solid versatileBlock2
	facet normal 0. 0. -1. 
		outer loop
			vertex 0. 0. 0. 
			vertex 1.4142135623730951 1.4142135623730951 0. 
			vertex 1.4142135623730951 -1.4142135623730951 0. 
		endloop
	endfacet
	facet normal 0. 0. -1. 
		outer loop
			vertex 1.4142135623730951 1.4142135623730951 0. 
			vertex 2.8284271247461903 0. 0. 
			vertex 1.4142135623730951 -1.4142135623730951 0. 
		endloop
	endfacet
	facet normal 0. 0. -1. 
		outer loop
			vertex 0. 1.4142135623730951 1.4142135623730951 
			vertex 1.4142135623730951 1.4142135623730951 1.4142135623730951 
			vertex 1.4142135623730951 0. 1.4142135623730951 
		endloop
	endfacet
	facet normal 0. -0. -1. 
		outer loop
			vertex 1.4142135623730951 0. 1.4142135623730951 
			vertex 1.4142135623730951 -1.4142135623730951 1.4142135623730951 
			vertex 0. -1.4142135623730951 1.4142135623730951 
		endloop
	endfacet
	facet normal 0. 0. -1. 
		outer loop
			vertex 0. 1.4142135623730951 1.4142135623730951 
			vertex 1.4142135623730951 0. 1.4142135623730951 
			vertex 0. -1.4142135623730951 1.4142135623730951 
		endloop
	endfacet
	facet normal 1. 0. -0. 
		outer loop
			vertex 0. 0. 0. 
			vertex 0. 1.4142135623730951 1.4142135623730951 
			vertex 0. -1.4142135623730951 1.4142135623730951 
		endloop
	endfacet
	facet normal 0.57735026918962573 -0.57735026918962573 0.57735026918962573 
		outer loop
			vertex 0. 0. 0. 
			vertex 1.4142135623730951 1.4142135623730951 0. 
			vertex 0. 1.4142135623730951 1.4142135623730951 
		endloop
	endfacet
	facet normal 0. 1. -0. 
		outer loop
			vertex 1.4142135623730951 1.4142135623730951 0. 
			vertex 0. 1.4142135623730951 1.4142135623730951 
			vertex 1.4142135623730951 1.4142135623730951 1.4142135623730951 
		endloop
	endfacet
	facet normal 1. 0. -0. 
		outer loop
			vertex 1.4142135623730951 1.4142135623730951 0. 
			vertex 1.4142135623730951 1.4142135623730951 1.4142135623730951 
			vertex 1.4142135623730951 0. 1.4142135623730951 
		endloop
	endfacet
	facet normal -0.57735026918962573 -0.57735026918962573 -0.57735026918962573 
		outer loop
			vertex 1.4142135623730951 1.4142135623730951 0. 
			vertex 2.8284271247461903 0. 0. 
			vertex 1.4142135623730951 0. 1.4142135623730951 
		endloop
	endfacet
	facet normal -0.57735026918962573 0.57735026918962573 -0.57735026918962573 
		outer loop
			vertex 2.8284271247461903 0. 0. 
			vertex 1.4142135623730951 -1.4142135623730951 0. 
			vertex 1.4142135623730951 0. 1.4142135623730951 
		endloop
	endfacet
	facet normal 1. 0. 0. 
		outer loop
			vertex 1.4142135623730951 -1.4142135623730951 0. 
			vertex 1.4142135623730951 0. 1.4142135623730951 
			vertex 1.4142135623730951 -1.4142135623730951 1.4142135623730951 
		endloop
	endfacet
	facet normal 0. -1. 0. 
		outer loop
			vertex 1.4142135623730951 -1.4142135623730951 0. 
			vertex 1.4142135623730951 -1.4142135623730951 1.4142135623730951 
			vertex 0. -1.4142135623730951 1.4142135623730951 
		endloop
	endfacet
	facet normal -0.57735026918962573 -0.57735026918962573 -0.57735026918962573 
		outer loop
			vertex 0. 0. 0. 
			vertex 1.4142135623730951 -1.4142135623730951 0. 
			vertex 0. -1.4142135623730951 1.4142135623730951 
		endloop
	endfacet
endsolid versatileBlock2