<?xml version="1.0" encoding="UTF-8" standalone="no"?>
<!-- Created with Inkscape (http://www.inkscape.org/) -->

<svg
   version="1.1"
   id="svg1"
   width="289.48801"
   height="301.31732"
   viewBox="0 0 289.48801 301.31732"
   xmlns="http://www.w3.org/2000/svg"
   xmlns:svg="http://www.w3.org/2000/svg">
  <defs
     id="defs1">
    <radialGradient
       fx="40.000519"
       fy="60.000759"
       cx="50.000641"
       cy="50.000641"
       r="50.000641"
       gradientUnits="userSpaceOnUse"
       id="radialGradient64">
      <stop
         style="stop-opacity:1;stop-color:#ffffff"
         offset="0"
         id="stop60" />
      <stop
         style="stop-opacity:1;stop-color:#ffffff"
         offset="0.1799995"
         id="stop61" />
      <stop
         style="stop-opacity:1;stop-color:#b3b3b3"
         offset="0.35999959"
         id="stop62" />
      <stop
         style="stop-opacity:1;stop-color:#808080"
         offset="0.5"
         id="stop63" />
      <stop
         style="stop-opacity:1;stop-color:#000000"
         offset="1"
         id="stop64" />
    </radialGradient>
    <clipPath
       clipPathUnits="userSpaceOnUse"
       id="clipPath65">
      <path
         d="m 118.54568,0 c 0,2.84897 -2.30948,5.15845 -5.15844,5.15845 -2.84899,0 -5.15846,-2.30948 -5.15846,-5.15845 0,-2.84897 2.30947,-5.15845 5.15846,-5.15845 2.84896,0 5.15844,2.30948 5.15844,5.15845 z"
         transform="matrix(1.3333333,0,0,-1.3333333,131.42933,150.65867)"
         id="path65" />
    </clipPath>
    <radialGradient
       fx="40.000519"
       fy="60.000759"
       cx="50.000641"
       cy="50.000641"
       r="50.000641"
       gradientUnits="userSpaceOnUse"
       id="radialGradient70">
      <stop
         style="stop-opacity:1;stop-color:#ffffff"
         offset="0"
         id="stop66" />
      <stop
         style="stop-opacity:1;stop-color:#ffffff"
         offset="0.1799995"
         id="stop67" />
      <stop
         style="stop-opacity:1;stop-color:#b3b3b3"
         offset="0.35999959"
         id="stop68" />
      <stop
         style="stop-opacity:1;stop-color:#808080"
         offset="0.5"
         id="stop69" />
      <stop
         style="stop-opacity:1;stop-color:#000000"
         offset="1"
         id="stop70" />
    </radialGradient>
    <clipPath
       clipPathUnits="userSpaceOnUse"
       id="clipPath71">
      <path
         d="m 40.19743,-107.83687 c 0,2.84897 -2.30949,5.15847 -5.15846,5.15847 -2.84897,0 -5.15846,-2.3095 -5.15846,-5.15847 0,-2.84897 2.30949,-5.15846 5.15846,-5.15846 2.84897,0 5.15846,2.30949 5.15846,5.15846 z"
         transform="matrix(1.3333333,0,0,-1.3333333,131.42933,150.65867)"
         id="path71" />
    </clipPath>
    <radialGradient
       fx="40.000519"
       fy="60.000759"
       cx="50.000641"
       cy="50.000641"
       r="50.000641"
       gradientUnits="userSpaceOnUse"
       id="radialGradient76">
      <stop
         style="stop-opacity:1;stop-color:#ffffff"
         offset="0"
         id="stop72" />
      <stop
         style="stop-opacity:1;stop-color:#ffffff"
         offset="0.1799995"
         id="stop73" />
      <stop
         style="stop-opacity:1;stop-color:#b3b3b3"
         offset="0.35999959"
         id="stop74" />
      <stop
         style="stop-opacity:1;stop-color:#808080"
         offset="0.5"
         id="stop75" />
      <stop
         style="stop-opacity:1;stop-color:#000000"
         offset="1"
         id="stop76" />
    </radialGradient>
    <clipPath
       clipPathUnits="userSpaceOnUse"
       id="clipPath77">
      <path
         d="m -86.57416,-66.64717 c 0,2.84897 -2.30949,5.15846 -5.15846,5.15846 -2.84897,0 -5.15846,-2.30949 -5.15846,-5.15846 0,-2.84897 2.30949,-5.15845 5.15846,-5.15845 2.84897,0 5.15846,2.30948 5.15846,5.15845 z"
         transform="matrix(1.3333333,0,0,-1.3333333,131.42933,150.65867)"
         id="path77" />
    </clipPath>
    <radialGradient
       fx="40.000519"
       fy="60.000759"
       cx="50.000641"
       cy="50.000641"
       r="50.000641"
       gradientUnits="userSpaceOnUse"
       id="radialGradient82">
      <stop
         style="stop-opacity:1;stop-color:#ffffff"
         offset="0"
         id="stop78" />
      <stop
         style="stop-opacity:1;stop-color:#ffffff"
         offset="0.1799995"
         id="stop79" />
      <stop
         style="stop-opacity:1;stop-color:#b3b3b3"
         offset="0.35999959"
         id="stop80" />
      <stop
         style="stop-opacity:1;stop-color:#808080"
         offset="0.5"
         id="stop81" />
      <stop
         style="stop-opacity:1;stop-color:#000000"
         offset="1"
         id="stop82" />
    </radialGradient>
    <clipPath
       clipPathUnits="userSpaceOnUse"
       id="clipPath83">
      <path
         d="m -86.57416,66.64717 c 0,2.84897 -2.30949,5.15845 -5.15846,5.15845 -2.84897,0 -5.15846,-2.30948 -5.15846,-5.15845 0,-2.84897 2.30949,-5.15846 5.15846,-5.15846 2.84897,0 5.15846,2.30949 5.15846,5.15846 z"
         transform="matrix(1.3333333,0,0,-1.3333333,131.42933,150.65867)"
         id="path83" />
    </clipPath>
    <radialGradient
       fx="40.000519"
       fy="60.000759"
       cx="50.000641"
       cy="50.000641"
       r="50.000641"
       gradientUnits="userSpaceOnUse"
       id="radialGradient88">
      <stop
         style="stop-opacity:1;stop-color:#ffffff"
         offset="0"
         id="stop84" />
      <stop
         style="stop-opacity:1;stop-color:#ffffff"
         offset="0.1799995"
         id="stop85" />
      <stop
         style="stop-opacity:1;stop-color:#b3b3b3"
         offset="0.35999959"
         id="stop86" />
      <stop
         style="stop-opacity:1;stop-color:#808080"
         offset="0.5"
         id="stop87" />
      <stop
         style="stop-opacity:1;stop-color:#000000"
         offset="1"
         id="stop88" />
    </radialGradient>
    <clipPath
       clipPathUnits="userSpaceOnUse"
       id="clipPath89">
      <path
         d="m 40.19743,107.83687 c 0,2.84897 -2.30949,5.15846 -5.15846,5.15846 -2.84897,0 -5.15846,-2.30949 -5.15846,-5.15846 0,-2.84897 2.30949,-5.15847 5.15846,-5.15847 2.84897,0 5.15846,2.3095 5.15846,5.15847 z"
         transform="matrix(1.3333333,0,0,-1.3333333,131.42933,150.65867)"
         id="path89" />
    </clipPath>
    <radialGradient
       fx="40.000519"
       fy="60.000759"
       cx="50.000641"
       cy="50.000641"
       r="50.000641"
       gradientUnits="userSpaceOnUse"
       id="radialGradient94">
      <stop
         style="stop-opacity:1;stop-color:#ffffff"
         offset="0"
         id="stop90" />
      <stop
         style="stop-opacity:1;stop-color:#ffffff"
         offset="0.1799995"
         id="stop91" />
      <stop
         style="stop-opacity:1;stop-color:#b3b3b3"
         offset="0.35999959"
         id="stop92" />
      <stop
         style="stop-opacity:1;stop-color:#808080"
         offset="0.5"
         id="stop93" />
      <stop
         style="stop-opacity:1;stop-color:#000000"
         offset="1"
         id="stop94" />
    </radialGradient>
    <clipPath
       clipPathUnits="userSpaceOnUse"
       id="clipPath95">
      <path
         d="m 79.37152,0 c 0,2.84897 -2.30948,5.15845 -5.15845,5.15845 -2.84897,0 -5.15846,-2.30948 -5.15846,-5.15845 0,-2.84897 2.30949,-5.15845 5.15846,-5.15845 2.84897,0 5.15845,2.30948 5.15845,5.15845 z"
         transform="matrix(1.3333333,0,0,-1.3333333,131.42933,150.65867)"
         id="path95" />
    </clipPath>
    <radialGradient
       fx="40.000519"
       fy="60.000759"
       cx="50.000641"
       cy="50.000641"
       r="50.000641"
       gradientUnits="userSpaceOnUse"
       id="radialGradient100">
      <stop
         style="stop-opacity:1;stop-color:#ffffff"
         offset="0"
         id="stop96" />
      <stop
         style="stop-opacity:1;stop-color:#ffffff"
         offset="0.1799995"
         id="stop97" />
      <stop
         style="stop-opacity:1;stop-color:#b3b3b3"
         offset="0.35999959"
         id="stop98" />
      <stop
         style="stop-opacity:1;stop-color:#808080"
         offset="0.5"
         id="stop99" />
      <stop
         style="stop-opacity:1;stop-color:#000000"
         offset="1"
         id="stop100" />
    </radialGradient>
    <clipPath
       clipPathUnits="userSpaceOnUse"
       id="clipPath101">
      <path
         d="m 27.85974,-66.84613 c 0,2.84897 -2.30948,5.15846 -5.15844,5.15846 -2.84899,0 -5.15847,-2.30949 -5.15847,-5.15846 0,-2.84897 2.30948,-5.15847 5.15847,-5.15847 2.84896,0 5.15844,2.3095 5.15844,5.15847 z"
         transform="matrix(1.3333333,0,0,-1.3333333,131.42933,150.65867)"
         id="path101" />
    </clipPath>
    <radialGradient
       fx="40.000519"
       fy="60.000759"
       cx="50.000641"
       cy="50.000641"
       r="50.000641"
       gradientUnits="userSpaceOnUse"
       id="radialGradient106">
      <stop
         style="stop-opacity:1;stop-color:#ffffff"
         offset="0"
         id="stop102" />
      <stop
         style="stop-opacity:1;stop-color:#ffffff"
         offset="0.1799995"
         id="stop103" />
      <stop
         style="stop-opacity:1;stop-color:#b3b3b3"
         offset="0.35999959"
         id="stop104" />
      <stop
         style="stop-opacity:1;stop-color:#808080"
         offset="0.5"
         id="stop105" />
      <stop
         style="stop-opacity:1;stop-color:#000000"
         offset="1"
         id="stop106" />
    </radialGradient>
    <clipPath
       clipPathUnits="userSpaceOnUse"
       id="clipPath107">
      <path
         d="m -48.32568,-51.70557 c 0,2.84897 -2.30948,5.15845 -5.15847,5.15845 -2.84896,0 -5.15845,-2.30948 -5.15845,-5.15845 0,-2.84896 2.30949,-5.15846 5.15845,-5.15846 2.84899,0 5.15847,2.3095 5.15847,5.15846 z"
         transform="matrix(1.3333333,0,0,-1.3333333,131.42933,150.65867)"
         id="path107" />
    </clipPath>
    <radialGradient
       fx="40.000519"
       fy="60.000759"
       cx="50.000641"
       cy="50.000641"
       r="50.000641"
       gradientUnits="userSpaceOnUse"
       id="radialGradient112">
      <stop
         style="stop-opacity:1;stop-color:#ffffff"
         offset="0"
         id="stop108" />
      <stop
         style="stop-opacity:1;stop-color:#ffffff"
         offset="0.1799995"
         id="stop109" />
      <stop
         style="stop-opacity:1;stop-color:#b3b3b3"
         offset="0.35999959"
         id="stop110" />
      <stop
         style="stop-opacity:1;stop-color:#808080"
         offset="0.5"
         id="stop111" />
      <stop
         style="stop-opacity:1;stop-color:#000000"
         offset="1"
         id="stop112" />
    </radialGradient>
    <clipPath
       clipPathUnits="userSpaceOnUse"
       id="clipPath113">
      <path
         d="m -60.35544,34.30714 c 0,2.84899 -2.30948,5.15846 -5.15845,5.15846 -2.84898,0 -5.15846,-2.30947 -5.15846,-5.15846 0,-2.84896 2.30948,-5.15844 5.15846,-5.15844 2.84897,0 5.15845,2.30948 5.15845,5.15844 z"
         transform="matrix(1.3333333,0,0,-1.3333333,131.42933,150.65867)"
         id="path113" />
    </clipPath>
    <radialGradient
       fx="40.000519"
       fy="60.000759"
       cx="50.000641"
       cy="50.000641"
       r="50.000641"
       gradientUnits="userSpaceOnUse"
       id="radialGradient118">
      <stop
         style="stop-opacity:1;stop-color:#ffffff"
         offset="0"
         id="stop114" />
      <stop
         style="stop-opacity:1;stop-color:#ffffff"
         offset="0.1799995"
         id="stop115" />
      <stop
         style="stop-opacity:1;stop-color:#b3b3b3"
         offset="0.35999959"
         id="stop116" />
      <stop
         style="stop-opacity:1;stop-color:#808080"
         offset="0.5"
         id="stop117" />
      <stop
         style="stop-opacity:1;stop-color:#000000"
         offset="1"
         id="stop118" />
    </radialGradient>
    <clipPath
       clipPathUnits="userSpaceOnUse"
       id="clipPath119">
      <path
         d="m 19.60799,70.5798 c 0,3.5729 -2.89634,6.46923 -6.46923,6.46923 -3.57289,0 -6.46923,-2.89633 -6.46923,-6.46923 0,-3.57289 2.89634,-6.46923 6.46923,-6.46923 3.57289,0 6.46923,2.89634 6.46923,6.46923 z"
         transform="matrix(1.3333333,0,0,-1.3333333,131.42933,150.65867)"
         id="path119" />
    </clipPath>
    <radialGradient
       fx="40.000519"
       fy="60.000759"
       cx="50.000641"
       cy="50.000641"
       r="50.000641"
       gradientUnits="userSpaceOnUse"
       id="radialGradient124">
      <stop
         style="stop-opacity:1;stop-color:#ffffff"
         offset="0"
         id="stop120" />
      <stop
         style="stop-opacity:1;stop-color:#ffffff"
         offset="0.1799995"
         id="stop121" />
      <stop
         style="stop-opacity:1;stop-color:#b3b3b3"
         offset="0.35999959"
         id="stop122" />
      <stop
         style="stop-opacity:1;stop-color:#808080"
         offset="0.5"
         id="stop123" />
      <stop
         style="stop-opacity:1;stop-color:#000000"
         offset="1"
         id="stop124" />
    </radialGradient>
    <clipPath
       clipPathUnits="userSpaceOnUse"
       id="clipPath125">
      <path
         d="m 53.86328,-18.15274 c 0,3.57289 -2.89635,6.46924 -6.46924,6.46924 -3.57289,0 -6.46922,-2.89635 -6.46922,-6.46924 0,-3.57289 2.89633,-6.46922 6.46922,-6.46922 3.57289,0 6.46924,2.89633 6.46924,6.46922 z"
         transform="matrix(1.3333333,0,0,-1.3333333,131.42933,150.65867)"
         id="path125" />
    </clipPath>
    <radialGradient
       fx="40.000519"
       fy="60.000759"
       cx="50.000641"
       cy="50.000641"
       r="50.000641"
       gradientUnits="userSpaceOnUse"
       id="radialGradient130">
      <stop
         style="stop-opacity:1;stop-color:#ffffff"
         offset="0"
         id="stop126" />
      <stop
         style="stop-opacity:1;stop-color:#ffffff"
         offset="0.1799995"
         id="stop127" />
      <stop
         style="stop-opacity:1;stop-color:#b3b3b3"
         offset="0.35999959"
         id="stop128" />
      <stop
         style="stop-opacity:1;stop-color:#808080"
         offset="0.5"
         id="stop129" />
      <stop
         style="stop-opacity:1;stop-color:#000000"
         offset="1"
         id="stop130" />
    </radialGradient>
    <clipPath
       clipPathUnits="userSpaceOnUse"
       id="clipPath131">
      <path
         d="m -26.04372,-38.4526 c 0,3.57289 -2.89634,6.46923 -6.46923,6.46923 -3.5729,0 -6.46923,-2.89634 -6.46923,-6.46923 0,-3.5729 2.89633,-6.46924 6.46923,-6.46924 3.57289,0 6.46923,2.89634 6.46923,6.46924 z"
         transform="matrix(1.3333333,0,0,-1.3333333,131.42933,150.65867)"
         id="path131" />
    </clipPath>
    <radialGradient
       fx="40.000519"
       fy="60.000759"
       cx="50.000641"
       cy="50.000641"
       r="50.000641"
       gradientUnits="userSpaceOnUse"
       id="radialGradient136">
      <stop
         style="stop-opacity:1;stop-color:#ffffff"
         offset="0"
         id="stop132" />
      <stop
         style="stop-opacity:1;stop-color:#ffffff"
         offset="0.1799995"
         id="stop133" />
      <stop
         style="stop-opacity:1;stop-color:#b3b3b3"
         offset="0.35999959"
         id="stop134" />
      <stop
         style="stop-opacity:1;stop-color:#808080"
         offset="0.5"
         id="stop135" />
      <stop
         style="stop-opacity:1;stop-color:#000000"
         offset="1"
         id="stop136" />
    </radialGradient>
    <clipPath
       clipPathUnits="userSpaceOnUse"
       id="clipPath137">
      <path
         d="m -39.31572,16.44507 c 0,3.57289 -2.89633,6.46923 -6.46922,6.46923 -3.57289,0 -6.46924,-2.89634 -6.46924,-6.46923 0,-3.57289 2.89635,-6.46924 6.46924,-6.46924 3.57289,0 6.46922,2.89635 6.46922,6.46924 z"
         transform="matrix(1.3333333,0,0,-1.3333333,131.42933,150.65867)"
         id="path137" />
    </clipPath>
    <radialGradient
       fx="40.000519"
       fy="60.000759"
       cx="50.000641"
       cy="50.000641"
       r="50.000641"
       gradientUnits="userSpaceOnUse"
       id="radialGradient142">
      <stop
         style="stop-opacity:1;stop-color:#ffffff"
         offset="0"
         id="stop138" />
      <stop
         style="stop-opacity:1;stop-color:#ffffff"
         offset="0.1799995"
         id="stop139" />
      <stop
         style="stop-opacity:1;stop-color:#b3b3b3"
         offset="0.35999959"
         id="stop140" />
      <stop
         style="stop-opacity:1;stop-color:#808080"
         offset="0.5"
         id="stop141" />
      <stop
         style="stop-opacity:1;stop-color:#000000"
         offset="1"
         id="stop142" />
    </radialGradient>
    <clipPath
       clipPathUnits="userSpaceOnUse"
       id="clipPath143">
      <path
         d="m 7.84464,48.87155 c 0,3.57289 -2.89634,6.46924 -6.46923,6.46924 -3.57287,0 -6.46922,-2.89635 -6.46922,-6.46924 0,-3.57289 2.89635,-6.46922 6.46922,-6.46922 3.57289,0 6.46923,2.89633 6.46923,6.46922 z"
         transform="matrix(1.3333333,0,0,-1.3333333,131.42933,150.65867)"
         id="path143" />
    </clipPath>
    <radialGradient
       fx="40.000519"
       fy="60.000759"
       cx="50.000641"
       cy="50.000641"
       r="50.000641"
       gradientUnits="userSpaceOnUse"
       id="radialGradient148">
      <stop
         style="stop-opacity:1;stop-color:#ffffff"
         offset="0"
         id="stop144" />
      <stop
         style="stop-opacity:1;stop-color:#ffffff"
         offset="0.1799995"
         id="stop145" />
      <stop
         style="stop-opacity:1;stop-color:#b3b3b3"
         offset="0.35999959"
         id="stop146" />
      <stop
         style="stop-opacity:1;stop-color:#808080"
         offset="0.5"
         id="stop147" />
      <stop
         style="stop-opacity:1;stop-color:#000000"
         offset="1"
         id="stop148" />
    </radialGradient>
    <clipPath
       clipPathUnits="userSpaceOnUse"
       id="clipPath149">
      <path
         d="m 51.20749,20.0213 c 0,3.5729 -2.89633,6.46924 -6.46922,6.46924 -3.5729,0 -6.46924,-2.89634 -6.46924,-6.46924 0,-3.57289 2.89634,-6.46924 6.46924,-6.46924 3.57289,0 6.46922,2.89635 6.46922,6.46924 z"
         transform="matrix(1.3333333,0,0,-1.3333333,131.42933,150.65867)"
         id="path149" />
    </clipPath>
    <radialGradient
       fx="40.000519"
       fy="60.000759"
       cx="50.000641"
       cy="50.000641"
       r="50.000641"
       gradientUnits="userSpaceOnUse"
       id="radialGradient154">
      <stop
         style="stop-opacity:1;stop-color:#ffffff"
         offset="0"
         id="stop150" />
      <stop
         style="stop-opacity:1;stop-color:#ffffff"
         offset="0.1799995"
         id="stop151" />
      <stop
         style="stop-opacity:1;stop-color:#b3b3b3"
         offset="0.35999959"
         id="stop152" />
      <stop
         style="stop-opacity:1;stop-color:#808080"
         offset="0.5"
         id="stop153" />
      <stop
         style="stop-opacity:1;stop-color:#000000"
         offset="1"
         id="stop154" />
    </radialGradient>
    <clipPath
       clipPathUnits="userSpaceOnUse"
       id="clipPath155">
      <path
         d="m 33.22252,-13.68549 c 0,3.57289 -2.89635,6.46924 -6.46924,6.46924 -3.57289,0 -6.46922,-2.89635 -6.46922,-6.46924 0,-3.57289 2.89633,-6.46922 6.46922,-6.46922 3.57289,0 6.46924,2.89633 6.46924,6.46922 z"
         transform="matrix(1.3333333,0,0,-1.3333333,131.42933,150.65867)"
         id="path155" />
    </clipPath>
    <radialGradient
       fx="40.000519"
       fy="60.000759"
       cx="50.000641"
       cy="50.000641"
       r="50.000641"
       gradientUnits="userSpaceOnUse"
       id="radialGradient160">
      <stop
         style="stop-opacity:1;stop-color:#ffffff"
         offset="0"
         id="stop156" />
      <stop
         style="stop-opacity:1;stop-color:#ffffff"
         offset="0.1799995"
         id="stop157" />
      <stop
         style="stop-opacity:1;stop-color:#b3b3b3"
         offset="0.35999959"
         id="stop158" />
      <stop
         style="stop-opacity:1;stop-color:#808080"
         offset="0.5"
         id="stop159" />
      <stop
         style="stop-opacity:1;stop-color:#000000"
         offset="1"
         id="stop160" />
    </radialGradient>
    <clipPath
       clipPathUnits="userSpaceOnUse"
       id="clipPath161">
      <path
         d="m -11.06758,-20.9175 c 0,3.5729 -2.89635,6.46924 -6.46924,6.46924 -3.57288,0 -6.46922,-2.89634 -6.46922,-6.46924 0,-3.57289 2.89634,-6.46922 6.46922,-6.46922 3.57289,0 6.46924,2.89633 6.46924,6.46922 z"
         transform="matrix(1.3333333,0,0,-1.3333333,131.42933,150.65867)"
         id="path161" />
    </clipPath>
    <radialGradient
       fx="40.000519"
       fy="60.000759"
       cx="50.000641"
       cy="50.000641"
       r="50.000641"
       gradientUnits="userSpaceOnUse"
       id="radialGradient166">
      <stop
         style="stop-opacity:1;stop-color:#ffffff"
         offset="0"
         id="stop162" />
      <stop
         style="stop-opacity:1;stop-color:#ffffff"
         offset="0.1799995"
         id="stop163" />
      <stop
         style="stop-opacity:1;stop-color:#b3b3b3"
         offset="0.35999959"
         id="stop164" />
      <stop
         style="stop-opacity:1;stop-color:#808080"
         offset="0.5"
         id="stop165" />
      <stop
         style="stop-opacity:1;stop-color:#000000"
         offset="1"
         id="stop166" />
    </radialGradient>
    <clipPath
       clipPathUnits="userSpaceOnUse"
       id="clipPath167">
      <path
         d="m -25.4036,6.9223 c 0,3.5729 -2.89634,6.46924 -6.46922,6.46924 -3.57289,0 -6.46924,-2.89634 -6.46924,-6.46924 0,-3.57289 2.89635,-6.46922 6.46924,-6.46922 3.57288,0 6.46922,2.89633 6.46922,6.46922 z"
         transform="matrix(1.3333333,0,0,-1.3333333,131.42933,150.65867)"
         id="path167" />
    </clipPath>
    <radialGradient
       fx="40.000519"
       fy="60.000759"
       cx="50.000641"
       cy="50.000641"
       r="50.000641"
       gradientUnits="userSpaceOnUse"
       id="radialGradient172">
      <stop
         style="stop-opacity:1;stop-color:#ffffff"
         offset="0"
         id="stop168" />
      <stop
         style="stop-opacity:1;stop-color:#ffffff"
         offset="0.1799995"
         id="stop169" />
      <stop
         style="stop-opacity:1;stop-color:#b3b3b3"
         offset="0.35999959"
         id="stop170" />
      <stop
         style="stop-opacity:1;stop-color:#808080"
         offset="0.5"
         id="stop171" />
      <stop
         style="stop-opacity:1;stop-color:#000000"
         offset="1"
         id="stop172" />
    </radialGradient>
    <clipPath
       clipPathUnits="userSpaceOnUse"
       id="clipPath173">
      <path
         d="m 3.06088,33.25 c 0,3.57289 -2.89634,6.46924 -6.46922,6.46924 -3.57289,0 -6.46922,-2.89635 -6.46922,-6.46924 0,-3.57289 2.89633,-6.46922 6.46922,-6.46922 3.57288,0 6.46922,2.89633 6.46922,6.46922 z"
         transform="matrix(1.3333333,0,0,-1.3333333,131.42933,150.65867)"
         id="path173" />
    </clipPath>
    <radialGradient
       fx="40.000519"
       fy="60.000759"
       cx="50.000641"
       cy="50.000641"
       r="50.000641"
       gradientUnits="userSpaceOnUse"
       id="radialGradient178">
      <stop
         style="stop-opacity:1;stop-color:#ffffff"
         offset="0"
         id="stop174" />
      <stop
         style="stop-opacity:1;stop-color:#ffffff"
         offset="0.1799995"
         id="stop175" />
      <stop
         style="stop-opacity:1;stop-color:#b3b3b3"
         offset="0.35999959"
         id="stop176" />
      <stop
         style="stop-opacity:1;stop-color:#808080"
         offset="0.5"
         id="stop177" />
      <stop
         style="stop-opacity:1;stop-color:#000000"
         offset="1"
         id="stop178" />
    </radialGradient>
    <clipPath
       clipPathUnits="userSpaceOnUse"
       id="clipPath179">
      <path
         d="m 35.87137,18.80673 c 0,3.57288 -2.89633,6.46923 -6.46922,6.46923 -3.5729,0 -6.46925,-2.89635 -6.46925,-6.46923 0,-3.57289 2.89635,-6.46923 6.46925,-6.46923 3.57289,0 6.46922,2.89634 6.46922,6.46923 z"
         transform="matrix(1.3333333,0,0,-1.3333333,131.42933,150.65867)"
         id="path179" />
    </clipPath>
  </defs>
  <g
     id="g1">
    <path
       id="path1"
       d="M 113.38724,0 35.03897,-107.83687"
       style="fill:none;stroke:#000000;stroke-width:1.19553;stroke-linecap:butt;stroke-linejoin:round;stroke-miterlimit:10;stroke-dasharray:none;stroke-opacity:1"
       transform="matrix(1.3333333,0,0,-1.3333333,131.42933,150.65867)" />
    <path
       id="path2"
       d="M 113.38724,0 35.03897,-107.83687"
       style="fill:none;stroke:#8c8c8c;stroke-width:0.79701;stroke-linecap:butt;stroke-linejoin:round;stroke-miterlimit:10;stroke-dasharray:none;stroke-opacity:1"
       transform="matrix(1.3333333,0,0,-1.3333333,131.42933,150.65867)" />
    <path
       id="path3"
       d="M 113.38724,0 35.03897,107.83687"
       style="fill:none;stroke:#000000;stroke-width:1.19553;stroke-linecap:butt;stroke-linejoin:round;stroke-miterlimit:10;stroke-dasharray:none;stroke-opacity:1"
       transform="matrix(1.3333333,0,0,-1.3333333,131.42933,150.65867)" />
    <path
       id="path4"
       d="M 113.38724,0 35.03897,107.83687"
       style="fill:none;stroke:#8c8c8c;stroke-width:0.79701;stroke-linecap:butt;stroke-linejoin:round;stroke-miterlimit:10;stroke-dasharray:none;stroke-opacity:1"
       transform="matrix(1.3333333,0,0,-1.3333333,131.42933,150.65867)" />
    <path
       id="path5"
       d="m 35.03897,-107.83687 -126.77159,41.1897"
       style="fill:none;stroke:#000000;stroke-width:1.19553;stroke-linecap:butt;stroke-linejoin:round;stroke-miterlimit:10;stroke-dasharray:none;stroke-opacity:1"
       transform="matrix(1.3333333,0,0,-1.3333333,131.42933,150.65867)" />
    <path
       id="path6"
       d="m 35.03897,-107.83687 -126.77159,41.1897"
       style="fill:none;stroke:#8c8c8c;stroke-width:0.79701;stroke-linecap:butt;stroke-linejoin:round;stroke-miterlimit:10;stroke-dasharray:none;stroke-opacity:1"
       transform="matrix(1.3333333,0,0,-1.3333333,131.42933,150.65867)" />
    <path
       id="path7"
       d="M -91.73262,-66.64717 V 66.64717"
       style="fill:none;stroke:#000000;stroke-width:1.19553;stroke-linecap:butt;stroke-linejoin:round;stroke-miterlimit:10;stroke-dasharray:none;stroke-opacity:1"
       transform="matrix(1.3333333,0,0,-1.3333333,131.42933,150.65867)" />
    <path
       id="path8"
       d="M -91.73262,-66.64717 V 66.64717"
       style="fill:none;stroke:#8c8c8c;stroke-width:0.79701;stroke-linecap:butt;stroke-linejoin:round;stroke-miterlimit:10;stroke-dasharray:none;stroke-opacity:1"
       transform="matrix(1.3333333,0,0,-1.3333333,131.42933,150.65867)" />
    <path
       id="path9"
       d="m -91.73262,66.64717 126.77159,41.1897"
       style="fill:none;stroke:#000000;stroke-width:1.19553;stroke-linecap:butt;stroke-linejoin:round;stroke-miterlimit:10;stroke-dasharray:none;stroke-opacity:1"
       transform="matrix(1.3333333,0,0,-1.3333333,131.42933,150.65867)" />
    <path
       id="path10"
       d="m -91.73262,66.64717 126.77159,41.1897"
       style="fill:none;stroke:#8c8c8c;stroke-width:0.79701;stroke-linecap:butt;stroke-linejoin:round;stroke-miterlimit:10;stroke-dasharray:none;stroke-opacity:1"
       transform="matrix(1.3333333,0,0,-1.3333333,131.42933,150.65867)" />
    <path
       id="path11"
       d="M 113.38724,0 H 74.21307"
       style="fill:none;stroke:#000000;stroke-width:1.19553;stroke-linecap:butt;stroke-linejoin:round;stroke-miterlimit:10;stroke-dasharray:none;stroke-opacity:1"
       transform="matrix(1.3333333,0,0,-1.3333333,131.42933,150.65867)" />
    <path
       id="path12"
       d="M 113.38724,0 H 74.21307"
       style="fill:none;stroke:#8c8c8c;stroke-width:0.79701;stroke-linecap:butt;stroke-linejoin:round;stroke-miterlimit:10;stroke-dasharray:none;stroke-opacity:1"
       transform="matrix(1.3333333,0,0,-1.3333333,131.42933,150.65867)" />
    <path
       id="path13"
       d="M 35.03897,-107.83687 22.7013,-66.84613"
       style="fill:none;stroke:#000000;stroke-width:1.19553;stroke-linecap:butt;stroke-linejoin:round;stroke-miterlimit:10;stroke-dasharray:none;stroke-opacity:1"
       transform="matrix(1.3333333,0,0,-1.3333333,131.42933,150.65867)" />
    <path
       id="path14"
       d="M 35.03897,-107.83687 22.7013,-66.84613"
       style="fill:none;stroke:#8c8c8c;stroke-width:0.79701;stroke-linecap:butt;stroke-linejoin:round;stroke-miterlimit:10;stroke-dasharray:none;stroke-opacity:1"
       transform="matrix(1.3333333,0,0,-1.3333333,131.42933,150.65867)" />
    <path
       id="path15"
       d="M 74.21307,0 47.39404,-18.15274"
       style="fill:none;stroke:#000000;stroke-width:1.19553;stroke-linecap:butt;stroke-linejoin:round;stroke-miterlimit:10;stroke-dasharray:none;stroke-opacity:1"
       transform="matrix(1.3333333,0,0,-1.3333333,131.42933,150.65867)" />
    <path
       id="path16"
       d="M 74.21307,0 47.39404,-18.15274"
       style="fill:none;stroke:#8c8c8c;stroke-width:0.79701;stroke-linecap:butt;stroke-linejoin:round;stroke-miterlimit:10;stroke-dasharray:none;stroke-opacity:1"
       transform="matrix(1.3333333,0,0,-1.3333333,131.42933,150.65867)" />
    <path
       id="path17"
       d="m 22.7013,-66.84613 24.69274,48.69339"
       style="fill:none;stroke:#000000;stroke-width:1.19553;stroke-linecap:butt;stroke-linejoin:round;stroke-miterlimit:10;stroke-dasharray:none;stroke-opacity:1"
       transform="matrix(1.3333333,0,0,-1.3333333,131.42933,150.65867)" />
    <path
       id="path18"
       d="m 22.7013,-66.84613 24.69274,48.69339"
       style="fill:none;stroke:#8c8c8c;stroke-width:0.79701;stroke-linecap:butt;stroke-linejoin:round;stroke-miterlimit:10;stroke-dasharray:none;stroke-opacity:1"
       transform="matrix(1.3333333,0,0,-1.3333333,131.42933,150.65867)" />
    <path
       id="path19"
       d="M 35.03897,107.83687 13.13876,70.5798"
       style="fill:none;stroke:#000000;stroke-width:1.19553;stroke-linecap:butt;stroke-linejoin:round;stroke-miterlimit:10;stroke-dasharray:none;stroke-opacity:1"
       transform="matrix(1.3333333,0,0,-1.3333333,131.42933,150.65867)" />
    <path
       id="path20"
       d="M 35.03897,107.83687 13.13876,70.5798"
       style="fill:none;stroke:#8c8c8c;stroke-width:0.79701;stroke-linecap:butt;stroke-linejoin:round;stroke-miterlimit:10;stroke-dasharray:none;stroke-opacity:1"
       transform="matrix(1.3333333,0,0,-1.3333333,131.42933,150.65867)" />
    <path
       id="path21"
       d="M 74.21307,0 44.73827,20.0213"
       style="fill:none;stroke:#000000;stroke-width:1.19553;stroke-linecap:butt;stroke-linejoin:round;stroke-miterlimit:10;stroke-dasharray:none;stroke-opacity:1"
       transform="matrix(1.3333333,0,0,-1.3333333,131.42933,150.65867)" />
    <path
       id="path22"
       d="M 74.21307,0 44.73827,20.0213"
       style="fill:none;stroke:#8c8c8c;stroke-width:0.79701;stroke-linecap:butt;stroke-linejoin:round;stroke-miterlimit:10;stroke-dasharray:none;stroke-opacity:1"
       transform="matrix(1.3333333,0,0,-1.3333333,131.42933,150.65867)" />
    <path
       id="path23"
       d="M 13.13876,70.5798 44.73827,20.0213"
       style="fill:none;stroke:#000000;stroke-width:1.19553;stroke-linecap:butt;stroke-linejoin:round;stroke-miterlimit:10;stroke-dasharray:none;stroke-opacity:1"
       transform="matrix(1.3333333,0,0,-1.3333333,131.42933,150.65867)" />
    <path
       id="path24"
       d="M 13.13876,70.5798 44.73827,20.0213"
       style="fill:none;stroke:#8c8c8c;stroke-width:0.79701;stroke-linecap:butt;stroke-linejoin:round;stroke-miterlimit:10;stroke-dasharray:none;stroke-opacity:1"
       transform="matrix(1.3333333,0,0,-1.3333333,131.42933,150.65867)" />
    <path
       id="path25"
       d="m -91.73262,-66.64717 38.24847,14.9416"
       style="fill:none;stroke:#000000;stroke-width:1.19553;stroke-linecap:butt;stroke-linejoin:round;stroke-miterlimit:10;stroke-dasharray:none;stroke-opacity:1"
       transform="matrix(1.3333333,0,0,-1.3333333,131.42933,150.65867)" />
    <path
       id="path26"
       d="m -91.73262,-66.64717 38.24847,14.9416"
       style="fill:none;stroke:#8c8c8c;stroke-width:0.79701;stroke-linecap:butt;stroke-linejoin:round;stroke-miterlimit:10;stroke-dasharray:none;stroke-opacity:1"
       transform="matrix(1.3333333,0,0,-1.3333333,131.42933,150.65867)" />
    <path
       id="path27"
       d="M 22.7013,-66.84613 -32.51295,-38.4526"
       style="fill:none;stroke:#000000;stroke-width:1.19553;stroke-linecap:butt;stroke-linejoin:round;stroke-miterlimit:10;stroke-dasharray:none;stroke-opacity:1"
       transform="matrix(1.3333333,0,0,-1.3333333,131.42933,150.65867)" />
    <path
       id="path28"
       d="M 22.7013,-66.84613 -32.51295,-38.4526"
       style="fill:none;stroke:#8c8c8c;stroke-width:0.79701;stroke-linecap:butt;stroke-linejoin:round;stroke-miterlimit:10;stroke-dasharray:none;stroke-opacity:1"
       transform="matrix(1.3333333,0,0,-1.3333333,131.42933,150.65867)" />
    <path
       id="path29"
       d="m -53.48415,-51.70557 20.9712,13.25297"
       style="fill:none;stroke:#000000;stroke-width:1.19553;stroke-linecap:butt;stroke-linejoin:round;stroke-miterlimit:10;stroke-dasharray:none;stroke-opacity:1"
       transform="matrix(1.3333333,0,0,-1.3333333,131.42933,150.65867)" />
    <path
       id="path30"
       d="m -53.48415,-51.70557 20.9712,13.25297"
       style="fill:none;stroke:#8c8c8c;stroke-width:0.79701;stroke-linecap:butt;stroke-linejoin:round;stroke-miterlimit:10;stroke-dasharray:none;stroke-opacity:1"
       transform="matrix(1.3333333,0,0,-1.3333333,131.42933,150.65867)" />
    <path
       id="path31"
       d="M -91.73262,66.64717 -65.51389,34.30714"
       style="fill:none;stroke:#000000;stroke-width:1.19553;stroke-linecap:butt;stroke-linejoin:round;stroke-miterlimit:10;stroke-dasharray:none;stroke-opacity:1"
       transform="matrix(1.3333333,0,0,-1.3333333,131.42933,150.65867)" />
    <path
       id="path32"
       d="M -91.73262,66.64717 -65.51389,34.30714"
       style="fill:none;stroke:#8c8c8c;stroke-width:0.79701;stroke-linecap:butt;stroke-linejoin:round;stroke-miterlimit:10;stroke-dasharray:none;stroke-opacity:1"
       transform="matrix(1.3333333,0,0,-1.3333333,131.42933,150.65867)" />
    <path
       id="path33"
       d="m -53.48415,-51.70557 7.69921,68.15064"
       style="fill:none;stroke:#000000;stroke-width:1.19553;stroke-linecap:butt;stroke-linejoin:round;stroke-miterlimit:10;stroke-dasharray:none;stroke-opacity:1"
       transform="matrix(1.3333333,0,0,-1.3333333,131.42933,150.65867)" />
    <path
       id="path34"
       d="m -53.48415,-51.70557 7.69921,68.15064"
       style="fill:none;stroke:#8c8c8c;stroke-width:0.79701;stroke-linecap:butt;stroke-linejoin:round;stroke-miterlimit:10;stroke-dasharray:none;stroke-opacity:1"
       transform="matrix(1.3333333,0,0,-1.3333333,131.42933,150.65867)" />
    <path
       id="path35"
       d="M -65.51389,34.30714 -45.78494,16.44507"
       style="fill:none;stroke:#000000;stroke-width:1.19553;stroke-linecap:butt;stroke-linejoin:round;stroke-miterlimit:10;stroke-dasharray:none;stroke-opacity:1"
       transform="matrix(1.3333333,0,0,-1.3333333,131.42933,150.65867)" />
    <path
       id="path36"
       d="M -65.51389,34.30714 -45.78494,16.44507"
       style="fill:none;stroke:#8c8c8c;stroke-width:0.79701;stroke-linecap:butt;stroke-linejoin:round;stroke-miterlimit:10;stroke-dasharray:none;stroke-opacity:1"
       transform="matrix(1.3333333,0,0,-1.3333333,131.42933,150.65867)" />
    <path
       id="path37"
       d="M -65.51389,34.30714 1.37541,48.87155"
       style="fill:none;stroke:#000000;stroke-width:1.19553;stroke-linecap:butt;stroke-linejoin:round;stroke-miterlimit:10;stroke-dasharray:none;stroke-opacity:1"
       transform="matrix(1.3333333,0,0,-1.3333333,131.42933,150.65867)" />
    <path
       id="path38"
       d="M -65.51389,34.30714 1.37541,48.87155"
       style="fill:none;stroke:#8c8c8c;stroke-width:0.79701;stroke-linecap:butt;stroke-linejoin:round;stroke-miterlimit:10;stroke-dasharray:none;stroke-opacity:1"
       transform="matrix(1.3333333,0,0,-1.3333333,131.42933,150.65867)" />
    <path
       id="path39"
       d="M 13.13876,70.5798 1.37541,48.87155"
       style="fill:none;stroke:#000000;stroke-width:1.19553;stroke-linecap:butt;stroke-linejoin:round;stroke-miterlimit:10;stroke-dasharray:none;stroke-opacity:1"
       transform="matrix(1.3333333,0,0,-1.3333333,131.42933,150.65867)" />
    <path
       id="path40"
       d="M 13.13876,70.5798 1.37541,48.87155"
       style="fill:none;stroke:#8c8c8c;stroke-width:0.79701;stroke-linecap:butt;stroke-linejoin:round;stroke-miterlimit:10;stroke-dasharray:none;stroke-opacity:1"
       transform="matrix(1.3333333,0,0,-1.3333333,131.42933,150.65867)" />
    <path
       id="path41"
       d="m 47.39404,-18.15274 -20.64076,4.46725"
       style="fill:none;stroke:#000000;stroke-width:1.19553;stroke-linecap:butt;stroke-linejoin:round;stroke-miterlimit:10;stroke-dasharray:none;stroke-opacity:1"
       transform="matrix(1.3333333,0,0,-1.3333333,131.42933,150.65867)" />
    <path
       id="path42"
       d="m 47.39404,-18.15274 -20.64076,4.46725"
       style="fill:none;stroke:#8c8c8c;stroke-width:0.79701;stroke-linecap:butt;stroke-linejoin:round;stroke-miterlimit:10;stroke-dasharray:none;stroke-opacity:1"
       transform="matrix(1.3333333,0,0,-1.3333333,131.42933,150.65867)" />
    <path
       id="path43"
       d="M 44.73827,20.0213 29.40215,18.80673"
       style="fill:none;stroke:#000000;stroke-width:1.19553;stroke-linecap:butt;stroke-linejoin:round;stroke-miterlimit:10;stroke-dasharray:none;stroke-opacity:1"
       transform="matrix(1.3333333,0,0,-1.3333333,131.42933,150.65867)" />
    <path
       id="path44"
       d="M 44.73827,20.0213 29.40215,18.80673"
       style="fill:none;stroke:#8c8c8c;stroke-width:0.79701;stroke-linecap:butt;stroke-linejoin:round;stroke-miterlimit:10;stroke-dasharray:none;stroke-opacity:1"
       transform="matrix(1.3333333,0,0,-1.3333333,131.42933,150.65867)" />
    <path
       id="path45"
       d="m 26.75328,-13.68549 2.64887,32.49222"
       style="fill:none;stroke:#000000;stroke-width:1.19553;stroke-linecap:butt;stroke-linejoin:round;stroke-miterlimit:10;stroke-dasharray:none;stroke-opacity:1"
       transform="matrix(1.3333333,0,0,-1.3333333,131.42933,150.65867)" />
    <path
       id="path46"
       d="m 26.75328,-13.68549 2.64887,32.49222"
       style="fill:none;stroke:#8c8c8c;stroke-width:0.79701;stroke-linecap:butt;stroke-linejoin:round;stroke-miterlimit:10;stroke-dasharray:none;stroke-opacity:1"
       transform="matrix(1.3333333,0,0,-1.3333333,131.42933,150.65867)" />
    <path
       id="path47"
       d="m -32.51295,-38.4526 14.97613,17.5351"
       style="fill:none;stroke:#000000;stroke-width:1.19553;stroke-linecap:butt;stroke-linejoin:round;stroke-miterlimit:10;stroke-dasharray:none;stroke-opacity:1"
       transform="matrix(1.3333333,0,0,-1.3333333,131.42933,150.65867)" />
    <path
       id="path48"
       d="m -32.51295,-38.4526 14.97613,17.5351"
       style="fill:none;stroke:#8c8c8c;stroke-width:0.79701;stroke-linecap:butt;stroke-linejoin:round;stroke-miterlimit:10;stroke-dasharray:none;stroke-opacity:1"
       transform="matrix(1.3333333,0,0,-1.3333333,131.42933,150.65867)" />
    <path
       id="path49"
       d="m 26.75328,-13.68549 -44.2901,-7.23201"
       style="fill:none;stroke:#000000;stroke-width:1.19553;stroke-linecap:butt;stroke-linejoin:round;stroke-miterlimit:10;stroke-dasharray:none;stroke-opacity:1"
       transform="matrix(1.3333333,0,0,-1.3333333,131.42933,150.65867)" />
    <path
       id="path50"
       d="m 26.75328,-13.68549 -44.2901,-7.23201"
       style="fill:none;stroke:#8c8c8c;stroke-width:0.79701;stroke-linecap:butt;stroke-linejoin:round;stroke-miterlimit:10;stroke-dasharray:none;stroke-opacity:1"
       transform="matrix(1.3333333,0,0,-1.3333333,131.42933,150.65867)" />
    <path
       id="path51"
       d="M -45.78494,16.44507 -31.87282,6.9223"
       style="fill:none;stroke:#000000;stroke-width:1.19553;stroke-linecap:butt;stroke-linejoin:round;stroke-miterlimit:10;stroke-dasharray:none;stroke-opacity:1"
       transform="matrix(1.3333333,0,0,-1.3333333,131.42933,150.65867)" />
    <path
       id="path52"
       d="M -45.78494,16.44507 -31.87282,6.9223"
       style="fill:none;stroke:#8c8c8c;stroke-width:0.79701;stroke-linecap:butt;stroke-linejoin:round;stroke-miterlimit:10;stroke-dasharray:none;stroke-opacity:1"
       transform="matrix(1.3333333,0,0,-1.3333333,131.42933,150.65867)" />
    <path
       id="path53"
       d="m -17.53682,-20.9175 -14.336,27.8398"
       style="fill:none;stroke:#000000;stroke-width:1.19553;stroke-linecap:butt;stroke-linejoin:round;stroke-miterlimit:10;stroke-dasharray:none;stroke-opacity:1"
       transform="matrix(1.3333333,0,0,-1.3333333,131.42933,150.65867)" />
    <path
       id="path54"
       d="m -17.53682,-20.9175 -14.336,27.8398"
       style="fill:none;stroke:#8c8c8c;stroke-width:0.79701;stroke-linecap:butt;stroke-linejoin:round;stroke-miterlimit:10;stroke-dasharray:none;stroke-opacity:1"
       transform="matrix(1.3333333,0,0,-1.3333333,131.42933,150.65867)" />
    <path
       id="path55"
       d="M 1.37541,48.87155 -3.40834,33.25"
       style="fill:none;stroke:#000000;stroke-width:1.19553;stroke-linecap:butt;stroke-linejoin:round;stroke-miterlimit:10;stroke-dasharray:none;stroke-opacity:1"
       transform="matrix(1.3333333,0,0,-1.3333333,131.42933,150.65867)" />
    <path
       id="path56"
       d="M 1.37541,48.87155 -3.40834,33.25"
       style="fill:none;stroke:#8c8c8c;stroke-width:0.79701;stroke-linecap:butt;stroke-linejoin:round;stroke-miterlimit:10;stroke-dasharray:none;stroke-opacity:1"
       transform="matrix(1.3333333,0,0,-1.3333333,131.42933,150.65867)" />
    <path
       id="path57"
       d="M -31.87282,6.9223 -3.40834,33.25"
       style="fill:none;stroke:#000000;stroke-width:1.19553;stroke-linecap:butt;stroke-linejoin:round;stroke-miterlimit:10;stroke-dasharray:none;stroke-opacity:1"
       transform="matrix(1.3333333,0,0,-1.3333333,131.42933,150.65867)" />
    <path
       id="path58"
       d="M -31.87282,6.9223 -3.40834,33.25"
       style="fill:none;stroke:#8c8c8c;stroke-width:0.79701;stroke-linecap:butt;stroke-linejoin:round;stroke-miterlimit:10;stroke-dasharray:none;stroke-opacity:1"
       transform="matrix(1.3333333,0,0,-1.3333333,131.42933,150.65867)" />
    <path
       id="path59"
       d="M -3.40834,33.25 29.40215,18.80673"
       style="fill:none;stroke:#000000;stroke-width:1.19553;stroke-linecap:butt;stroke-linejoin:round;stroke-miterlimit:10;stroke-dasharray:none;stroke-opacity:1"
       transform="matrix(1.3333333,0,0,-1.3333333,131.42933,150.65867)" />
    <path
       id="path60"
       d="M -3.40834,33.25 29.40215,18.80673"
       style="fill:none;stroke:#8c8c8c;stroke-width:0.79701;stroke-linecap:butt;stroke-linejoin:round;stroke-miterlimit:10;stroke-dasharray:none;stroke-opacity:1"
       transform="matrix(1.3333333,0,0,-1.3333333,131.42933,150.65867)" />
    <g
       id="g64"
       clip-path="url(#clipPath65)">
      <path
         d="M 0,0 H 100 V 100 H 0 Z"
         transform="matrix(0.27514667,0,0,-0.27514667,268.85499,164.416)"
         style="fill:url(#radialGradient64);stroke:none"
         id="path64" />
    </g>
    <path
       id="path66"
       d="m 1.9811406,-3.1654062 c 0,-0.1523438 -0.011719,-0.1523438 -0.1757812,-0.1523438 -0.3515625,0.3164063 -0.90234377,0.3164063 -1.00781252,0.3164063 h -0.0820313 v 0.2226562 h 0.0820313 c 0.1171875,0 0.43359372,-0.011719 0.72656252,-0.140625 v 2.484375 c 0,0.1640625 0,0.2109375 -0.52734377,0.2109375 H 0.75067188 v 0.22265625 c 0.26953122,-0.0234375 0.71484372,-0.0234375 1.00781252,-0.0234375 0.28125,0 0.7265625,0 0.9960937,0.0234375 V -0.224 H 2.5084844 c -0.5273438,0 -0.5273438,-0.046875 -0.5273438,-0.2109375 z m 0,0"
       style="fill:#000000;fill-opacity:1;fill-rule:nonzero;stroke:none"
       aria-label="1"
       transform="matrix(1.3333333,0,0,1.3333333,280.35067,152.79867)" />
    <g
       id="g70"
       clip-path="url(#clipPath71)">
      <path
         d="M 0,0 H 100 V 100 H 0 Z"
         transform="matrix(0.27514667,0,0,-0.27514667,164.39063,308.19849)"
         style="fill:url(#radialGradient70);stroke:none"
         id="path70" />
    </g>
    <path
       id="path72"
       d="M 2.9297266,-0.96234375 H 2.7187891 c -0.011719,0.09375 -0.058594,0.3984375 -0.140625,0.45703125 -0.035156,0.0234375 -0.4570313,0.0234375 -0.5273438,0.0234375 h -0.984375 c 0.328125,-0.24609375 0.703125,-0.515625 0.9960938,-0.7148438 0.4570312,-0.3164062 0.8671875,-0.5976562 0.8671875,-1.125 0,-0.6445312 -0.5976563,-0.9960937 -1.3125,-0.9960937 -0.66796879,0 -1.16015629,0.3867187 -1.16015629,0.8789062 0,0.2578125 0.2109375,0.3046875 0.28125,0.3046875 0.140625,0 0.29296879,-0.09375 0.29296879,-0.2929687 0,-0.1875 -0.12890629,-0.28125 -0.28125004,-0.2929688 0.140625,-0.234375 0.43359374,-0.375 0.76171874,-0.375 0.4804688,0 0.890625,0.28125 0.890625,0.7734375 0,0.421875 -0.2929687,0.7382813 -0.6796875,1.0546875 l -1.20703124,1.03125005 c -0.046875,0.046875 -0.0585938,0.046875 -0.0585938,0.0820313 V -0.0014062 H 2.7656641 Z m 0,0"
       style="fill:#000000;fill-opacity:1;fill-rule:nonzero;stroke:none"
       aria-label="2"
       transform="matrix(1.3333333,0,0,1.3333333,175.88667,296.58)" />
    <g
       id="g76"
       clip-path="url(#clipPath77)">
      <path
         d="M 0,0 H 100 V 100 H 0 Z"
         transform="matrix(0.27514667,0,0,-0.27514667,-4.63816,253.27889)"
         style="fill:url(#radialGradient76);stroke:none"
         id="path76" />
    </g>
    <path
       id="path78"
       d="m 1.6401563,-1.6522266 c 0.4570312,0 0.7617187,0.2929688 0.7617187,0.78515629 0,0.50390625 -0.3046875,0.7734375 -0.75,0.7734375 -0.058594,0 -0.65625,0 -0.90234375,-0.2578125 0.19921875,-0.0351563 0.25781255,-0.1875 0.25781255,-0.3046875 0,-0.1875 -0.14062505,-0.3046875 -0.30468755,-0.3046875 -0.15234375,0 -0.3046875,0.10546875 -0.3046875,0.31640625 0,0.515625 0.5859375,0.75 1.26562505,0.75 0.8203125,0 1.3242187,-0.4921875 1.3242187,-0.97265625 0,-0.41015629 -0.3632812,-0.76171879 -0.9257812,-0.89062499 0.5976562,-0.1875 0.75,-0.5625 0.75,-0.84375 0,-0.4101563 -0.5039063,-0.7148438 -1.1367188,-0.7148438 -0.609375,0 -1.1015625,0.2578125 -1.1015625,0.703125 0,0.234375 0.1875,0.2929688 0.28125,0.2929688 0.140625,0 0.28125,-0.1054688 0.28125,-0.28125 0,-0.1171875 -0.058594,-0.2578125 -0.234375,-0.28125 0.2109375,-0.234375 0.65625,-0.2460938 0.7617188,-0.2460938 0.3632812,0 0.6210937,0.1875 0.6210937,0.5273438 0,0.28125 -0.1875,0.7382812 -0.7148437,0.7734375 -0.140625,0 -0.1523438,0 -0.28125,0.011719 -0.058594,0 -0.1171875,0.011719 -0.1171875,0.082031 0,0.082031 0.058594,0.082031 0.140625,0.082031 z m 0,0"
       style="fill:#000000;fill-opacity:1;fill-rule:nonzero;stroke:none"
       aria-label="3"
       transform="matrix(1.3333333,0,0,1.3333333,6.86,241.66)" />
    <g
       id="g82"
       clip-path="url(#clipPath83)">
      <path
         d="M 0,0 H 100 V 100 H 0 Z"
         transform="matrix(0.27514667,0,0,-0.27514667,-4.63816,75.553107)"
         style="fill:url(#radialGradient82);stroke:none"
         id="path82" />
    </g>
    <path
       id="path84"
       d="M 3.0698438,-0.80846875 V -1.031125 H 2.44875 v -2.1914062 c 0,-0.1171875 0,-0.1523438 -0.1289062,-0.1523438 -0.1054688,0 -0.1054688,0.011719 -0.1640625,0.082031 l -1.8398438,2.261719 v 0.22265625 H 1.9682813 V -0.42175 c 0,0.15234375 0,0.19921875 -0.4335938,0.19921875 H 1.3589063 V 1.25e-4 c 0.234375,-0.01171875 0.5625,-0.0234375 0.8554687,-0.0234375 0.28125,0 0.609375,0.01171875 0.84375,0.0234375 V -0.22253125 H 2.8823438 C 2.44875,-0.22253125 2.44875,-0.26940625 2.44875,-0.42175 V -0.80846875 Z M 2.0151563,-2.8358125 V -1.031125 H 0.5503125 Z m 0,0"
       style="fill:#000000;fill-opacity:1;fill-rule:nonzero;stroke:none"
       aria-label="4"
       transform="matrix(1.3333333,0,0,1.3333333,6.86,63.937333)" />
    <g
       id="g88"
       clip-path="url(#clipPath89)">
      <path
         d="M 0,0 H 100 V 100 H 0 Z"
         transform="matrix(0.27514667,0,0,-0.27514667,164.39063,20.633507)"
         style="fill:url(#radialGradient88);stroke:none"
         id="path88" />
    </g>
    <path
       id="path90"
       d="m 0.97269531,-2.7415391 c 0.26953129,0.058594 0.49218749,0.058594 0.55078129,0.058594 0.3398437,0 0.5859375,-0.09375 0.7148437,-0.1640625 0.1171875,-0.058594 0.4570313,-0.2695313 0.4570313,-0.3867188 0,-0.070312 -0.058594,-0.082031 -0.070312,-0.082031 -0.011719,0 -0.023437,0 -0.070312,0.023437 -0.1992188,0.070312 -0.5039063,0.140625 -0.8320313,0.140625 -0.28125,0 -0.5625,-0.058594 -0.82031249,-0.140625 -0.0585938,-0.023437 -0.0703125,-0.023437 -0.0703125,-0.023437 -0.0703125,0 -0.0703125,0.058594 -0.0703125,0.140625 v 1.4882812 c 0,0.09375 0,0.1523438 0.09375,0.1523438 0.046875,0 0.0585938,-0.011719 0.10546875,-0.058594 0.18750004,-0.2226562 0.44531254,-0.328125 0.78515624,-0.328125 0.2929688,0 0.4453125,0.1640625 0.515625,0.2695313 0.1171875,0.1640625 0.140625,0.3867187 0.140625,0.6328125 0,0.21093749 -0.011719,0.49218749 -0.2109375,0.67968749 -0.2226562,0.234375 -0.5039062,0.24609375 -0.6210937,0.24609375 -0.3164063,0 -0.67968754,-0.140625 -0.84375004,-0.43359375 0.2109375,-0.0117188 0.28125004,-0.1640625 0.28125004,-0.28125 0,-0.15234375 -0.11718754,-0.28124999 -0.28125004,-0.28124999 -0.10546875,0 -0.26953125,0.070312 -0.26953125,0.29296874 0,0.4921875 0.46875,0.90234375 1.12499999,0.90234375 0.7382813,0 1.3476563,-0.4921875 1.3476563,-1.11328129 0,-0.5625 -0.4804688,-1.0898437 -1.171875,-1.0898437 -0.3164063,0 -0.5625,0.082031 -0.78515629,0.2460937 z m 0,0"
       style="fill:#000000;fill-opacity:1;fill-rule:nonzero;stroke:none"
       aria-label="5"
       transform="matrix(1.3333333,0,0,1.3333333,175.88667,9.0186667)" />
    <g
       id="g94"
       clip-path="url(#clipPath95)">
      <path
         d="M 0,0 H 100 V 100 H 0 Z"
         transform="matrix(0.27514667,0,0,-0.27514667,216.62276,164.416)"
         style="fill:url(#radialGradient94);stroke:none"
         id="path94" />
    </g>
    <path
       id="path96"
       d="m 0.92467188,-1.63025 c 0,-0.234375 0.0117188,-0.6328125 0.18750002,-0.9492187 0.1523437,-0.2695313 0.46875,-0.5507813 0.9375,-0.5507813 0.09375,0 0.3164062,0.011719 0.46875,0.1289063 -0.082031,0.023437 -0.2109375,0.09375 -0.2109375,0.2695312 0,0.1523438 0.1171875,0.2578125 0.2578125,0.2578125 0.09375,0 0.2695312,-0.046875 0.2695312,-0.28125 0,-0.2695312 -0.1875,-0.5625 -0.796875,-0.5625 -0.8554687,0 -1.64062497,0.703125 -1.64062497,1.734375 0,1.18359375 0.5859375,1.6875 1.31249997,1.6875 0.4921875,0 0.7265625,-0.17578125 0.890625,-0.31640625 0.3164063,-0.26953125 0.3867188,-0.5625 0.3867188,-0.80859375 0,-0.3046875 -0.09375,-0.5507812 -0.3632813,-0.7734375 -0.2109375,-0.1992187 -0.4453125,-0.3398437 -0.8789062,-0.3398437 -0.28125,0 -0.609375,0.140625 -0.82031252,0.5039062 z m 0.78515622,1.53515625 c -0.77343747,0 -0.77343747,-0.83203125 -0.77343747,-1.03124995 0,-0.3867188 0.28124997,-0.8320313 0.79687497,-0.8320313 0.2578125,0 0.421875,0.058594 0.5742188,0.2578125 0.1523437,0.1875 0.1523437,0.3984375 0.1523437,0.6679688 0,0.2929687 0,0.4804687 -0.1640625,0.67968745 -0.140625,0.1640625 -0.3046875,0.2578125 -0.5859375,0.2578125 z m 0,0"
       style="fill:#000000;fill-opacity:1;fill-rule:nonzero;stroke:none"
       aria-label="6"
       transform="matrix(1.3333333,0,0,1.3333333,228.11867,152.79867)" />
    <g
       id="g100"
       clip-path="url(#clipPath101)">
      <path
         d="M 0,0 H 100 V 100 H 0 Z"
         transform="matrix(0.27514667,0,0,-0.27514667,147.9404,253.54417)"
         style="fill:url(#radialGradient100);stroke:none"
         id="path100" />
    </g>
    <path
       id="path102"
       d="m 3.1173125,-2.9879453 c 0.035156,-0.046875 0.035156,-0.058594 0.046875,-0.082031 v -0.140625 H 1.9571562 c -0.1289062,0 -0.8554687,-0.011719 -0.9492187,-0.035156 -0.10546875,-0.023438 -0.1171875,-0.070313 -0.12890625,-0.117188 h -0.2109375 l -0.1875,1.1132812 h 0.2109375 c 0.0117188,-0.070312 0.0703125,-0.3984375 0.15234375,-0.4453125 0.0234375,-0.023437 0.4921875,-0.035156 0.5742187,-0.035156 H 2.6016875 C 2.39075,-2.4840391 2.1212187,-2.2145078 1.922,-1.9684141 c -0.5859375,0.75 -0.65625,1.46484379 -0.65625,1.76953129 0,0.28125 0.1640625,0.3046875 0.2578125,0.3046875 0.2695312,0 0.2695312,-0.24609375 0.2695312,-0.3046875 v -0.10546875 c 0,-0.89062504 0.1875,-1.42968754 0.4804688,-1.75781254 z m 0,0"
       style="fill:#000000;fill-opacity:1;fill-rule:nonzero;stroke:none"
       aria-label="7"
       transform="matrix(1.3333333,0,0,1.3333333,159.43733,241.92533)" />
    <g
       id="g106"
       clip-path="url(#clipPath107)">
      <path
         d="M 0,0 H 100 V 100 H 0 Z"
         transform="matrix(0.27514667,0,0,-0.27514667,46.3598,233.35676)"
         style="fill:url(#radialGradient106);stroke:none"
         id="path106" />
    </g>
    <path
       id="path108"
       d="m 2.1314141,-1.7932578 c 0.515625,-0.2226563 0.6796875,-0.4804688 0.6796875,-0.7617188 0,-0.5273437 -0.5742188,-0.7617187 -1.1132813,-0.7617187 -0.6210937,0 -1.12499999,0.3515625 -1.12499999,0.84375 0,0.4570312 0.38671875,0.6679687 0.65624999,0.796875 -0.52734374,0.2109375 -0.83203124,0.5039062 -0.83203124,0.91406249 0,0.59765625 0.66796874,0.8671875 1.28906254,0.8671875 0.703125,0 1.3007812,-0.375 1.3007812,-0.9609375 0,-0.53906249 -0.515625,-0.79687499 -0.8554687,-0.93749999 z m -0.9726563,-0.515625 c -0.21093749,-0.1054688 -0.28124999,-0.234375 -0.28124999,-0.3515625 0,-0.328125 0.41015629,-0.46875 0.80859379,-0.46875 0.3984375,0 0.8203125,0.1992187 0.8203125,0.5742187 0,0.4335938 -0.5742188,0.6445313 -0.5742188,0.6445313 -0.011719,0 -0.011719,0 -0.058594,-0.023437 z m 0.28125,0.75 0.7734375,0.3867187 c 0.1757813,0.09375 0.4335938,0.23437504 0.4335938,0.50390629 0,0.3984375 -0.5039063,0.57421875 -0.9492188,0.57421875 -0.4570312,0 -0.96093749,-0.22265625 -0.96093749,-0.6796875 0,-0.49218754 0.53906249,-0.72656254 0.70312499,-0.78515624 z m 0,0"
       style="fill:#000000;fill-opacity:1;fill-rule:nonzero;stroke:none"
       aria-label="8"
       transform="matrix(1.3333333,0,0,1.3333333,57.857333,221.73867)" />
    <g
       id="g112"
       clip-path="url(#clipPath113)">
      <path
         d="M 0,0 H 100 V 100 H 0 Z"
         transform="matrix(0.27514667,0,0,-0.27514667,30.320147,118.67315)"
         style="fill:url(#radialGradient112);stroke:none"
         id="path112" />
    </g>
    <path
       id="path114"
       d="m 2.4621719,-1.5830156 c 0,0.3164062 -0.023437,0.69140623 -0.1875,0.98437498 -0.1640625,0.29296875 -0.4570313,0.50390625 -0.8671875,0.50390625 -0.046875,0 -0.3515625,0 -0.52734377,-0.1171875 0.12890627,-0.0351563 0.19921877,-0.12890625 0.19921877,-0.2578125 0,-0.1640625 -0.11718752,-0.26953125 -0.25781252,-0.26953125 -0.09375,0 -0.26953125,0.046875 -0.26953125,0.28125 0,0.5625 0.73828127,0.5625 0.86718747,0.5625 0.84375,0 1.5703125,-0.703125 1.5703125,-1.73437498 0,-1.2070313 -0.5859375,-1.6875 -1.2773437,-1.6875 -0.4921875,0 -0.73828127,0.1757812 -0.93750002,0.3398437 -0.3046875,0.2578125 -0.375,0.5273438 -0.375,0.7851563 0,0.28125 0.0820313,0.5390625 0.3515625,0.7734375 0.234375,0.2109375 0.46875002,0.3398437 0.89062502,0.3398437 0.1992187,0 0.5625,-0.070312 0.8203125,-0.5039062 z m -0.8085938,0.328125 c -0.1992187,0 -0.3867187,-0.035156 -0.5742187,-0.2578125 -0.15234377,-0.1875 -0.15234377,-0.3867188 -0.15234377,-0.6796875 0,-0.3632813 0.0117188,-0.5039063 0.19921877,-0.703125 0.082031,-0.09375 0.234375,-0.234375 0.5859375,-0.234375 0.7382812,0 0.7382812,0.8203125 0.7382812,1.03125 0,0.421875 -0.2929687,0.84375 -0.796875,0.84375 z m 0,0"
       style="fill:#000000;fill-opacity:1;fill-rule:nonzero;stroke:none"
       aria-label="9"
       transform="matrix(1.3333333,0,0,1.3333333,41.818667,107.056)" />
    <g
       id="g118"
       clip-path="url(#clipPath119)">
      <path
         d="M 0,0 H 100 V 100 H 0 Z"
         transform="matrix(0.34505333,0,0,-0.34505333,131.69501,73.804933)"
         style="fill:url(#radialGradient118);stroke:none"
         id="path118" />
    </g>
    <path
       id="path120"
       d="m 1.9798047,-3.1655078 c 0,-0.1523438 -0.011719,-0.1523438 -0.1757813,-0.1523438 -0.3515625,0.3164063 -0.90234371,0.3164063 -1.00781246,0.3164063 h -0.0820313 v 0.2226562 h 0.0820313 c 0.1171875,0 0.43359376,-0.011719 0.72656246,-0.140625 v 2.48437504 c 0,0.1640625 0,0.2109375 -0.52734371,0.2109375 H 0.74933594 v 0.22265625 c 0.26953126,-0.0234375 0.71484376,-0.0234375 1.00781246,-0.0234375 0.28125,0 0.7265625,0 0.9960938,0.0234375 V -0.22410156 H 2.5071484 c -0.5273437,0 -0.5273437,-0.046875 -0.5273437,-0.2109375 z m 4.3974609,1.5703125 c 0,-0.3632813 0,-1.7226563 -1.2890625,-1.7226563 -1.3007812,0 -1.3007812,1.359375 -1.3007812,1.7226563 0,0.3632812 0,1.69921874 1.3007812,1.69921874 1.2890625,0 1.2890625,-1.33593754 1.2890625,-1.69921874 z m -1.2890625,1.53515624 c -0.1875,0 -0.609375,-0.05859375 -0.7382812,-0.5625 -0.058594,-0.26953125 -0.070312,-0.62109374 -0.070312,-1.03125004 0,-0.375 0,-0.7148437 0.082031,-0.9960937 0.1289063,-0.421875 0.5039063,-0.5039063 0.7265625,-0.5039063 0.3632813,0 0.6210938,0.1875 0.7265625,0.5390625 0.070312,0.2578125 0.070312,0.6679688 0.070312,0.9609375 0,0.3398438 0,0.73828129 -0.070312,1.04296879 -0.1289062,0.48046875 -0.5273437,0.55078125 -0.7265628,0.55078125 z m 0,0"
       style="fill:#000000;fill-opacity:1;fill-rule:nonzero;stroke:none"
       aria-label="10"
       transform="matrix(1.3333333,0,0,1.3333333,144.42667,58.693333)" />
    <g
       id="g124"
       clip-path="url(#clipPath125)">
      <path
         d="M 0,0 H 100 V 100 H 0 Z"
         transform="matrix(0.34505333,0,0,-0.34505333,177.36872,192.11499)"
         style="fill:url(#radialGradient124);stroke:none"
         id="path124" />
    </g>
    <path
       id="path126"
       d="m 1.9816406,-3.1631328 c 0,-0.1523438 -0.011719,-0.1523438 -0.1757812,-0.1523438 -0.3515625,0.3164063 -0.90234377,0.3164063 -1.00781252,0.3164063 h -0.0820313 v 0.2226562 h 0.0820313 c 0.1171875,0 0.43359372,-0.011719 0.72656252,-0.140625 v 2.48437504 c 0,0.1640625 0,0.2109375 -0.52734377,0.2109375 H 0.75117188 V 9.296875e-4 C 1.0207031,-0.02250781 1.4660156,-0.02250781 1.7589844,-0.02250781 c 0.28125,0 0.7265625,0 0.9960937,0.0234374975 V -0.22172656 H 2.5089844 c -0.5273438,0 -0.5273438,-0.046875 -0.5273438,-0.2109375 z m 3.3896485,0 c 0,-0.1523438 -0.011719,-0.1523438 -0.1757813,-0.1523438 -0.3515625,0.3164063 -0.9023437,0.3164063 -1.0078125,0.3164063 h -0.082031 v 0.2226562 h 0.082031 c 0.1171875,0 0.4335938,-0.011719 0.7265625,-0.140625 v 2.48437504 c 0,0.1640625 0,0.2109375 -0.5273437,0.2109375 H 4.1408203 V 9.296875e-4 C 4.4103516,-0.02250781 4.8556641,-0.02250781 5.1486328,-0.02250781 c 0.28125,0 0.7265625,0 0.9960938,0.0234374975 V -0.22172656 H 5.8986328 c -0.5273437,0 -0.5273437,-0.046875 -0.5273437,-0.2109375 z m 0,0"
       style="fill:#000000;fill-opacity:1;fill-rule:nonzero;stroke:none"
       aria-label="11"
       transform="matrix(1.3333333,0,0,1.3333333,190.1,177.00267)" />
    <g
       id="g130"
       clip-path="url(#clipPath131)">
      <path
         d="M 0,0 H 100 V 100 H 0 Z"
         transform="matrix(0.34505333,0,0,-0.34505333,70.826067,219.18147)"
         style="fill:url(#radialGradient130);stroke:none"
         id="path130" />
    </g>
    <path
       id="path132"
       d="m 1.9804141,-3.1652578 c 0,-0.1523438 -0.011719,-0.1523438 -0.1757813,-0.1523438 -0.3515625,0.3164063 -0.90234374,0.3164063 -1.00781249,0.3164063 h -0.0820313 v 0.2226562 h 0.0820313 c 0.1171875,0 0.43359379,-0.011719 0.72656249,-0.140625 v 2.48437504 c 0,0.1640625 0,0.2109375 -0.52734374,0.2109375 H 0.74994531 v 0.22265625 c 0.26953129,-0.0234375 0.71484379,-0.0234375 1.00781249,-0.0234375 0.28125,0 0.7265625,0 0.9960938,0.0234375 V -0.22385156 H 2.5077578 c -0.5273437,0 -0.5273437,-0.046875 -0.5273437,-0.2109375 z m 4.3388672,2.20312499 H 6.1083438 c -0.011719,0.09375 -0.058594,0.3984375 -0.140625,0.45703125 -0.035156,0.0234375 -0.4570313,0.0234375 -0.5273438,0.0234375 H 4.456 c 0.328125,-0.24609375 0.703125,-0.515625 0.9960938,-0.71484374 0.4570312,-0.3164063 0.8671875,-0.5976563 0.8671875,-1.125 0,-0.6445313 -0.5976563,-0.9960938 -1.3125,-0.9960938 -0.6679688,0 -1.1601563,0.3867188 -1.1601563,0.8789063 0,0.2578125 0.2109375,0.3046875 0.28125,0.3046875 0.140625,0 0.2929688,-0.09375 0.2929688,-0.2929688 0,-0.1875 -0.1289063,-0.28125 -0.28125,-0.2929687 0.140625,-0.234375 0.4335937,-0.375 0.7617187,-0.375 0.4804688,0 0.890625,0.28125 0.890625,0.7734375 0,0.421875 -0.2929687,0.7382812 -0.6796875,1.0546875 l -1.2070312,1.03124999 c -0.046875,0.046875 -0.058594,0.046875 -0.058594,0.0820313 v 0.15234375 h 2.3085938 z m 0,0"
       style="fill:#000000;fill-opacity:1;fill-rule:nonzero;stroke:none"
       aria-label="12"
       transform="matrix(1.3333333,0,0,1.3333333,83.558667,204.068)" />
    <g
       id="g136"
       clip-path="url(#clipPath137)">
      <path
         d="M 0,0 H 100 V 100 H 0 Z"
         transform="matrix(0.34505333,0,0,-0.34505333,53.13008,145.98457)"
         style="fill:url(#radialGradient136);stroke:none"
         id="path136" />
    </g>
    <path
       id="path138"
       d="m 1.9799297,-3.1647422 c 0,-0.1523437 -0.011719,-0.1523437 -0.1757813,-0.1523437 -0.3515625,0.3164062 -0.90234371,0.3164062 -1.00781246,0.3164062 h -0.0820313 v 0.2226563 h 0.0820313 c 0.1171875,0 0.43359376,-0.011719 0.72656246,-0.140625 v 2.48437496 c 0,0.1640625 0,0.2109375 -0.52734371,0.2109375 H 0.74946094 V -6.796875e-4 C 1.0189922,-0.02411719 1.4643047,-0.02411719 1.7572734,-0.02411719 c 0.28125,0 0.7265625,0 0.9960938,0.0234375025 V -0.22333594 H 2.5072734 c -0.5273437,0 -0.5273437,-0.046875 -0.5273437,-0.2109375 z m 3.0498047,1.5117188 c 0.4570312,0 0.7617187,0.2929687 0.7617187,0.78515621 0,0.50390625 -0.3046875,0.7734375 -0.75,0.7734375 -0.058594,0 -0.65625,0 -0.9023437,-0.2578125 0.1992187,-0.0351563 0.2578125,-0.1875 0.2578125,-0.3046875 0,-0.1875 -0.140625,-0.3046875 -0.3046875,-0.3046875 -0.1523438,0 -0.3046875,0.10546875 -0.3046875,0.31640625 0,0.515625 0.5859375,0.75 1.265625,0.75 0.8203125,0 1.3242187,-0.4921875 1.3242187,-0.97265625 0,-0.41015621 -0.3632812,-0.76171871 -0.9257812,-0.89062501 0.5976562,-0.1875 0.75,-0.5625 0.75,-0.84375 0,-0.4101562 -0.5039063,-0.7148437 -1.1367188,-0.7148437 -0.609375,0 -1.1015625,0.2578125 -1.1015625,0.703125 0,0.234375 0.1875,0.2929687 0.28125,0.2929687 0.140625,0 0.28125,-0.1054687 0.28125,-0.28125 0,-0.1171875 -0.058594,-0.2578125 -0.234375,-0.28125 0.2109375,-0.234375 0.65625,-0.2460937 0.7617188,-0.2460937 0.3632812,0 0.6210937,0.1875 0.6210937,0.5273437 0,0.28125 -0.1875,0.7382813 -0.7148437,0.7734375 -0.140625,0 -0.1523438,0 -0.28125,0.011719 -0.058594,0 -0.1171875,0.011719 -0.1171875,0.082031 0,0.082031 0.058594,0.082031 0.140625,0.082031 z m 0,0"
       style="fill:#000000;fill-opacity:1;fill-rule:nonzero;stroke:none"
       aria-label="13"
       transform="matrix(1.3333333,0,0,1.3333333,65.864,130.872)" />
    <g
       id="g142"
       clip-path="url(#clipPath143)">
      <path
         d="M 0,0 H 100 V 100 H 0 Z"
         transform="matrix(0.34505333,0,0,-0.34505333,116.01055,102.74927)"
         style="fill:url(#radialGradient142);stroke:none"
         id="path142" />
    </g>
    <path
       id="path144"
       d="m 1.9801094,-3.1645234 c 0,-0.1523438 -0.011719,-0.1523438 -0.1757813,-0.1523438 -0.3515625,0.3164063 -0.90234372,0.3164063 -1.00781247,0.3164063 h -0.0820313 v 0.2226562 h 0.0820313 c 0.1171875,0 0.43359377,-0.011719 0.72656247,-0.140625 v 2.48437501 c 0,0.1640625 0,0.2109375 -0.52734372,0.2109375 H 0.74964063 V -4.609375e-4 C 1.0191719,-0.02389844 1.4644844,-0.02389844 1.7574531,-0.02389844 c 0.28125,0 0.7265625,0 0.9960938,0.0234375025 V -0.22311719 H 2.5074531 c -0.5273437,0 -0.5273437,-0.046875 -0.5273437,-0.2109375 z m 4.4794922,2.35546871 V -1.0317109 H 5.8385078 v -2.1914063 c 0,-0.1171875 0,-0.1523437 -0.1289062,-0.1523437 -0.1054688,0 -0.1054688,0.011719 -0.1640625,0.082031 l -1.8398438,2.2617188 v 0.22265621 h 1.6523438 v 0.38671875 c 0,0.15234375 0,0.19921875 -0.4335938,0.19921875 H 4.7486641 v 0.2226562525 c 0.234375,-0.0117187525 0.5625,-0.0234375025 0.8554687,-0.0234375025 0.28125,0 0.609375,0.01171875 0.84375,0.0234375025 V -0.22311719 H 6.2721016 c -0.4335938,0 -0.4335938,-0.046875 -0.4335938,-0.19921875 V -0.80905469 Z M 5.4049141,-2.8363984 v 1.8046875 H 3.9400703 Z m 0,0"
       style="fill:#000000;fill-opacity:1;fill-rule:nonzero;stroke:none"
       aria-label="14"
       transform="matrix(1.3333333,0,0,1.3333333,128.74267,87.637333)" />
    <g
       id="g148"
       clip-path="url(#clipPath149)">
      <path
         d="M 0,0 H 100 V 100 H 0 Z"
         transform="matrix(0.34505333,0,0,-0.34505333,173.82769,141.21627)"
         style="fill:url(#radialGradient148);stroke:none"
         id="path148" />
    </g>
    <path
       id="path150"
       d="m 1.9794141,-3.1629609 c 0,-0.1523438 -0.011719,-0.1523438 -0.1757813,-0.1523438 -0.3515625,0.3164063 -0.90234374,0.3164063 -1.00781249,0.3164063 h -0.0820313 v 0.2226562 h 0.0820313 c 0.1171875,0 0.43359379,-0.011719 0.72656249,-0.140625 v 2.48437501 c 0,0.1640625 0,0.2109375 -0.52734374,0.2109375 H 0.74894531 v 0.22265625 c 0.26953129,-0.0234375 0.71484379,-0.0234375 1.00781249,-0.0234375 0.28125,0 0.7265625,0 0.9960938,0.0234375 V -0.22155469 H 2.5067578 c -0.5273437,0 -0.5273437,-0.046875 -0.5273437,-0.2109375 z m 2.3847656,0.421875 c 0.2695312,0.058594 0.4921875,0.058594 0.5507812,0.058594 0.3398438,0 0.5859375,-0.09375 0.7148438,-0.1640625 0.1171875,-0.058594 0.4570312,-0.2695312 0.4570312,-0.3867187 0,-0.070312 -0.058594,-0.082031 -0.070312,-0.082031 -0.011719,0 -0.023437,0 -0.070312,0.023437 -0.1992187,0.070312 -0.5039062,0.140625 -0.8320312,0.140625 -0.28125,0 -0.5625,-0.058594 -0.8203125,-0.140625 -0.058594,-0.023437 -0.070312,-0.023437 -0.070312,-0.023437 -0.070312,0 -0.070312,0.058594 -0.070312,0.140625 v 1.4882813 c 0,0.09375 0,0.1523437 0.09375,0.1523437 0.046875,0 0.058594,-0.011719 0.1054687,-0.058594 0.1875,-0.2226563 0.4453125,-0.328125 0.7851563,-0.328125 0.2929687,0 0.4453125,0.1640625 0.515625,0.2695312 0.1171875,0.1640625 0.140625,0.3867188 0.140625,0.6328125 0,0.21093751 -0.011719,0.49218751 -0.2109375,0.67968751 -0.2226563,0.234375 -0.5039063,0.24609375 -0.6210938,0.24609375 -0.3164062,0 -0.6796875,-0.140625 -0.84375,-0.43359375 0.2109375,-0.0117188 0.28125,-0.1640625 0.28125,-0.28125 0,-0.15234375 -0.1171875,-0.28125001 -0.28125,-0.28125001 -0.1054687,0 -0.2695312,0.070312 -0.2695312,0.29296876 0,0.4921875 0.46875,0.90234375 1.125,0.90234375 0.7382812,0 1.3476562,-0.4921875 1.3476562,-1.11328121 0,-0.5625 -0.4804687,-1.0898438 -1.171875,-1.0898438 -0.3164062,0 -0.5625,0.082031 -0.7851562,0.2460938 z m 0,0"
       style="fill:#000000;fill-opacity:1;fill-rule:nonzero;stroke:none"
       aria-label="15"
       transform="matrix(1.3333333,0,0,1.3333333,186.56,126.104)" />
    <g
       id="g154"
       clip-path="url(#clipPath155)">
      <path
         d="M 0,0 H 100 V 100 H 0 Z"
         transform="matrix(0.34505333,0,0,-0.34505333,149.84771,186.15865)"
         style="fill:url(#radialGradient154);stroke:none"
         id="path154" />
    </g>
    <path
       id="path156"
       d="m 1.9790625,-3.1629062 c 0,-0.1523438 -0.011719,-0.1523438 -0.1757812,-0.1523438 -0.3515625,0.3164063 -0.9023438,0.3164063 -1.00781255,0.3164063 H 0.7134375 v 0.2226562 h 0.0820313 c 0.1171875,0 0.4335938,-0.011719 0.7265625,-0.140625 v 2.484375 c 0,0.1640625 0,0.2109375 -0.52734375,0.2109375 h -0.2460938 v 0.22265625 c 0.26953125,-0.0234375 0.71484375,-0.0234375 1.00781255,-0.0234375 0.28125,0 0.7265625,0 0.9960937,0.0234375 V -0.2215 H 2.5064063 c -0.5273438,0 -0.5273438,-0.046875 -0.5273438,-0.2109375 z M 4.3169531,-1.62775 c 0,-0.234375 0.011719,-0.6328125 0.1875,-0.9492187 0.1523438,-0.2695313 0.46875,-0.5507813 0.9375,-0.5507813 0.09375,0 0.3164063,0.011719 0.46875,0.1289063 -0.082031,0.023437 -0.2109375,0.09375 -0.2109375,0.2695312 0,0.1523438 0.1171875,0.2578125 0.2578125,0.2578125 0.09375,0 0.2695313,-0.046875 0.2695313,-0.28125 0,-0.2695312 -0.1875,-0.5625 -0.796875,-0.5625 -0.8554688,0 -1.640625,0.703125 -1.640625,1.734375 0,1.18359375 0.5859375,1.6875 1.3125,1.6875 0.4921875,0 0.7265625,-0.17578125 0.890625,-0.31640625 0.3164062,-0.26953125 0.3867187,-0.5625 0.3867187,-0.80859375 0,-0.3046875 -0.09375,-0.5507812 -0.3632812,-0.7734375 -0.2109375,-0.1992187 -0.4453125,-0.3398437 -0.8789063,-0.3398437 -0.28125,0 -0.609375,0.140625 -0.8203125,0.5039062 z m 0.7851563,1.53515625 c -0.7734375,0 -0.7734375,-0.83203125 -0.7734375,-1.03124995 0,-0.3867188 0.28125,-0.8320313 0.796875,-0.8320313 0.2578125,0 0.421875,0.058594 0.5742187,0.2578125 0.1523438,0.1875 0.1523438,0.3984375 0.1523438,0.6679688 0,0.2929687 0,0.4804687 -0.1640625,0.67968745 -0.140625,0.1640625 -0.3046875,0.2578125 -0.5859375,0.2578125 z m 0,0"
       style="fill:#000000;fill-opacity:1;fill-rule:nonzero;stroke:none"
       aria-label="16"
       transform="matrix(1.3333333,0,0,1.3333333,162.58,171.04533)" />
    <g
       id="g160"
       clip-path="url(#clipPath161)">
      <path
         d="M 0,0 H 100 V 100 H 0 Z"
         transform="matrix(0.34505333,0,0,-0.34505333,90.79424,195.80133)"
         style="fill:url(#radialGradient160);stroke:none"
         id="path160" />
    </g>
    <path
       id="path162"
       d="m 1.9809766,-3.1644375 c 0,-0.1523438 -0.011719,-0.1523438 -0.1757813,-0.1523438 C 1.4536328,-3.000375 0.90285156,-3.000375 0.79738281,-3.000375 h -0.0820313 v 0.2226562 h 0.0820313 c 0.1171875,0 0.43359379,-0.011719 0.72656249,-0.140625 v 2.48437505 c 0,0.1640625 0,0.2109375 -0.52734374,0.2109375 H 0.75050781 V -3.75e-4 C 1.0200391,-0.0238125 1.4653516,-0.0238125 1.7583203,-0.0238125 c 0.28125,0 0.7265625,0 0.9960938,0.0234375 V -0.22303125 H 2.5083203 c -0.5273437,0 -0.5273437,-0.046875 -0.5273437,-0.2109375 z m 4.5263672,0.1757812 C 6.5425,-3.0355313 6.5425,-3.04725 6.5542188,-3.0706875 v -0.140625 H 5.3471875 c -0.1289062,0 -0.8554687,-0.011719 -0.9492187,-0.035156 C 4.2925,-3.2699063 4.2807813,-3.3167813 4.2690625,-3.3636563 H 4.058125 l -0.1875,1.1132813 h 0.2109375 c 0.011719,-0.070312 0.070312,-0.3984375 0.1523438,-0.4453125 0.023437,-0.023437 0.4921875,-0.035156 0.5742187,-0.035156 H 5.9917188 C 5.7807813,-2.48475 5.51125,-2.2152188 5.3120313,-1.969125 c -0.5859375,0.75 -0.65625,1.46484375 -0.65625,1.76953125 0,0.28125 0.1640625,0.3046875 0.2578125,0.3046875 0.2695312,0 0.2695312,-0.24609375 0.2695312,-0.3046875 V -0.3050625 c 0,-0.890625 0.1875,-1.4296875 0.4804688,-1.7578125 z m 0,0"
       style="fill:#000000;fill-opacity:1;fill-rule:nonzero;stroke:none"
       aria-label="17"
       transform="matrix(1.3333333,0,0,1.3333333,103.52667,180.688)" />
    <g
       id="g166"
       clip-path="url(#clipPath167)">
      <path
         d="M 0,0 H 100 V 100 H 0 Z"
         transform="matrix(0.34505333,0,0,-0.34505333,71.679573,158.6816)"
         style="fill:url(#radialGradient166);stroke:none"
         id="path166" />
    </g>
    <path
       id="path168"
       d="m 1.9790859,-3.1633281 c 0,-0.1523438 -0.011719,-0.1523438 -0.1757812,-0.1523438 -0.3515625,0.3164063 -0.90234376,0.3164063 -1.00781251,0.3164063 h -0.0820313 v 0.2226562 h 0.0820313 c 0.1171875,0 0.43359371,-0.011719 0.72656251,-0.140625 v 2.48437503 c 0,0.1640625 0,0.2109375 -0.52734376,0.2109375 H 0.74861719 V 7.34375e-4 C 1.0181484,-0.02270312 1.4634609,-0.02270312 1.7564297,-0.02270312 c 0.28125,0 0.7265625,0 0.9960937,0.023437495 V -0.22192187 H 2.5064297 c -0.5273438,0 -0.5273438,-0.046875 -0.5273438,-0.2109375 z m 3.5449219,1.3710937 c 0.515625,-0.2226562 0.6796875,-0.4804687 0.6796875,-0.7617187 0,-0.5273438 -0.5742187,-0.7617188 -1.1132812,-0.7617188 -0.6210938,0 -1.125,0.3515625 -1.125,0.84375 0,0.4570313 0.3867187,0.6679688 0.65625,0.796875 -0.5273438,0.2109375 -0.8320313,0.5039063 -0.8320313,0.91406253 0,0.59765625 0.6679688,0.8671875 1.2890625,0.8671875 0.703125,0 1.3007813,-0.375 1.3007813,-0.9609375 0,-0.53906253 -0.515625,-0.79687503 -0.8554688,-0.93750003 z m -0.9726562,-0.515625 c -0.2109375,-0.1054687 -0.28125,-0.234375 -0.28125,-0.3515625 0,-0.328125 0.4101562,-0.46875 0.8085937,-0.46875 0.3984375,0 0.8203125,0.1992188 0.8203125,0.5742188 0,0.4335937 -0.5742187,0.6445312 -0.5742187,0.6445312 -0.011719,0 -0.011719,0 -0.058594,-0.023437 z m 0.28125,0.75 0.7734375,0.3867188 c 0.1757812,0.09375 0.4335937,0.23437498 0.4335937,0.50390623 0,0.3984375 -0.5039062,0.57421875 -0.9492187,0.57421875 -0.4570313,0 -0.9609375,-0.22265625 -0.9609375,-0.6796875 0,-0.49218748 0.5390625,-0.72656248 0.703125,-0.78515628 z m 0,0"
       style="fill:#000000;fill-opacity:1;fill-rule:nonzero;stroke:none"
       aria-label="18"
       transform="matrix(1.3333333,0,0,1.3333333,84.412,143.56933)" />
    <g
       id="g172"
       clip-path="url(#clipPath173)">
      <path
         d="M 0,0 H 100 V 100 H 0 Z"
         transform="matrix(0.34505333,0,0,-0.34505333,109.63221,123.578)"
         style="fill:url(#radialGradient172);stroke:none"
         id="path172" />
    </g>
    <path
       id="path174"
       d="m 1.9818594,-3.1654297 c 0,-0.1523437 -0.011719,-0.1523437 -0.1757813,-0.1523437 -0.3515625,0.3164062 -0.90234373,0.3164062 -1.00781248,0.3164062 h -0.0820313 v 0.2226563 h 0.0820313 c 0.1171875,0 0.43359378,-0.011719 0.72656248,-0.140625 v 2.48437496 c 0,0.1640625 0,0.2109375 -0.52734373,0.2109375 H 0.75139062 v 0.22265625 c 0.26953128,-0.0234375 0.71484378,-0.0234375 1.00781248,-0.0234375 0.28125,0 0.7265625,0 0.9960938,0.0234375 V -0.22402344 H 2.5092031 c -0.5273437,0 -0.5273437,-0.046875 -0.5273437,-0.2109375 z m 3.8701172,1.5820313 c 0,0.3164062 -0.023437,0.69140621 -0.1875,0.98437496 -0.1640625,0.29296875 -0.4570313,0.50390625 -0.8671875,0.50390625 -0.046875,0 -0.3515625,0 -0.5273438,-0.1171875 0.1289063,-0.0351563 0.1992188,-0.12890625 0.1992188,-0.2578125 0,-0.1640625 -0.1171875,-0.26953125 -0.2578125,-0.26953125 -0.09375,0 -0.2695313,0.046875 -0.2695313,0.28125 0,0.5625 0.7382813,0.5625 0.8671875,0.5625 0.84375,0 1.5703125,-0.703125 1.5703125,-1.73437496 0,-1.2070313 -0.5859375,-1.6875 -1.2773437,-1.6875 -0.4921875,0 -0.7382813,0.1757812 -0.9375,0.3398437 -0.3046875,0.2578125 -0.375,0.5273438 -0.375,0.7851563 0,0.28125 0.082031,0.5390625 0.3515625,0.7734375 0.234375,0.2109375 0.46875,0.3398437 0.890625,0.3398437 0.1992187,0 0.5625,-0.070312 0.8203125,-0.5039062 z m -0.8085938,0.328125 c -0.1992187,0 -0.3867187,-0.035156 -0.5742187,-0.2578125 -0.1523438,-0.1875 -0.1523438,-0.3867188 -0.1523438,-0.6796875 0,-0.3632813 0.011719,-0.5039063 0.1992188,-0.703125 0.082031,-0.09375 0.234375,-0.234375 0.5859375,-0.234375 0.7382812,0 0.7382812,0.8203125 0.7382812,1.03125 0,0.421875 -0.2929687,0.84375 -0.796875,0.84375 z m 0,0"
       style="fill:#000000;fill-opacity:1;fill-rule:nonzero;stroke:none"
       aria-label="19"
       transform="matrix(1.3333333,0,0,1.3333333,122.36533,108.46667)" />
    <g
       id="g178"
       clip-path="url(#clipPath179)">
      <path
         d="M 0,0 H 100 V 100 H 0 Z"
         transform="matrix(0.34505333,0,0,-0.34505333,153.37953,142.83569)"
         style="fill:url(#radialGradient178);stroke:none"
         id="path178" />
    </g>
    <path
       id="path180"
       d="M 2.9306484,-0.96194531 H 2.7197109 c -0.011719,0.09375 -0.058594,0.3984375 -0.140625,0.45703125 -0.035156,0.0234375 -0.4570312,0.0234375 -0.5273437,0.0234375 h -0.984375 c 0.328125,-0.24609375 0.703125,-0.515625 0.9960937,-0.71484374 0.4570313,-0.3164063 0.8671875,-0.5976563 0.8671875,-1.125 0,-0.6445313 -0.5976562,-0.9960938 -1.3125,-0.9960938 -0.66796871,0 -1.16015621,0.3867188 -1.16015621,0.8789063 0,0.2578125 0.2109375,0.3046875 0.28125,0.3046875 0.140625,0 0.29296871,-0.09375 0.29296871,-0.2929688 0,-0.1875 -0.12890621,-0.28125 -0.28124996,-0.2929687 0.140625,-0.234375 0.43359376,-0.375 0.76171876,-0.375 0.4804687,0 0.890625,0.28125 0.890625,0.7734375 0,0.421875 -0.2929688,0.7382812 -0.6796875,1.0546875 l -1.20703126,1.03124999 c -0.046875,0.046875 -0.0585938,0.046875 -0.0585938,0.0820313 v 0.15234375 H 2.7665859 Z M 6.3788906,-1.5947578 c 0,-0.3632813 0,-1.7226563 -1.2890625,-1.7226563 -1.3007812,0 -1.3007812,1.359375 -1.3007812,1.7226563 0,0.3632812 0,1.69921874 1.3007812,1.69921874 1.2890625,0 1.2890625,-1.33593754 1.2890625,-1.69921874 z m -1.2890625,1.53515624 c -0.1875,0 -0.609375,-0.05859375 -0.7382812,-0.5625 -0.058594,-0.26953125 -0.070312,-0.62109374 -0.070312,-1.03125004 0,-0.375 0,-0.7148437 0.082031,-0.9960937 0.1289063,-0.421875 0.5039063,-0.5039063 0.7265625,-0.5039063 0.3632813,0 0.6210938,0.1875 0.7265625,0.5390625 0.070312,0.2578125 0.070312,0.6679688 0.070312,0.9609375 0,0.3398438 0,0.73828129 -0.070312,1.04296879 -0.1289062,0.48046875 -0.5273437,0.55078125 -0.7265628,0.55078125 z m 0,0"
       style="fill:#000000;fill-opacity:1;fill-rule:nonzero;stroke:none"
       aria-label="20"
       transform="matrix(1.3333333,0,0,1.3333333,166.112,127.724)" />
  </g>
</svg>
