<?xml version="1.0" encoding="UTF-8" standalone="no"?>
<!-- Created with Inkscape (http://www.inkscape.org/) -->

<svg
   version="1.1"
   id="svg1"
   width="289.48801"
   height="301.31732"
   viewBox="0 0 289.48801 301.31732"
   xmlns="http://www.w3.org/2000/svg"
   xmlns:svg="http://www.w3.org/2000/svg">
  <defs
     id="defs1">
    <radialGradient
       fx="40.000519"
       fy="60.000759"
       cx="50.000641"
       cy="50.000641"
       r="50.000641"
       gradientUnits="userSpaceOnUse"
       id="radialGradient64">
      <stop
         style="stop-opacity:1;stop-color:#ffffff"
         offset="0"
         id="stop60" />
      <stop
         style="stop-opacity:1;stop-color:#ffffff"
         offset="0.1799995"
         id="stop61" />
      <stop
         style="stop-opacity:1;stop-color:#b3b3b3"
         offset="0.35999959"
         id="stop62" />
      <stop
         style="stop-opacity:1;stop-color:#808080"
         offset="0.5"
         id="stop63" />
      <stop
         style="stop-opacity:1;stop-color:#000000"
         offset="1"
         id="stop64" />
    </radialGradient>
    <clipPath
       clipPathUnits="userSpaceOnUse"
       id="clipPath65">
      <path
         d="m 118.54568,0 c 0,2.84897 -2.30948,5.15845 -5.15844,5.15845 -2.84899,0 -5.15846,-2.30948 -5.15846,-5.15845 0,-2.84897 2.30947,-5.15845 5.15846,-5.15845 2.84896,0 5.15844,2.30948 5.15844,5.15845 z"
         transform="matrix(1.3333333,0,0,-1.3333333,131.42933,150.65867)"
         id="path65" />
    </clipPath>
    <radialGradient
       fx="40.000519"
       fy="60.000759"
       cx="50.000641"
       cy="50.000641"
       r="50.000641"
       gradientUnits="userSpaceOnUse"
       id="radialGradient70">
      <stop
         style="stop-opacity:1;stop-color:#ffffff"
         offset="0"
         id="stop66" />
      <stop
         style="stop-opacity:1;stop-color:#ffffff"
         offset="0.1799995"
         id="stop67" />
      <stop
         style="stop-opacity:1;stop-color:#b3b3b3"
         offset="0.35999959"
         id="stop68" />
      <stop
         style="stop-opacity:1;stop-color:#808080"
         offset="0.5"
         id="stop69" />
      <stop
         style="stop-opacity:1;stop-color:#000000"
         offset="1"
         id="stop70" />
    </radialGradient>
    <clipPath
       clipPathUnits="userSpaceOnUse"
       id="clipPath71">
      <path
         d="m 40.19743,-107.83687 c 0,2.84897 -2.30949,5.15847 -5.15846,5.15847 -2.84897,0 -5.15846,-2.3095 -5.15846,-5.15847 0,-2.84897 2.30949,-5.15846 5.15846,-5.15846 2.84897,0 5.15846,2.30949 5.15846,5.15846 z"
         transform="matrix(1.3333333,0,0,-1.3333333,131.42933,150.65867)"
         id="path71" />
    </clipPath>
    <radialGradient
       fx="40.000519"
       fy="60.000759"
       cx="50.000641"
       cy="50.000641"
       r="50.000641"
       gradientUnits="userSpaceOnUse"
       id="radialGradient76">
      <stop
         style="stop-opacity:1;stop-color:#ffffff"
         offset="0"
         id="stop72" />
      <stop
         style="stop-opacity:1;stop-color:#ffffff"
         offset="0.1799995"
         id="stop73" />
      <stop
         style="stop-opacity:1;stop-color:#b3b3b3"
         offset="0.35999959"
         id="stop74" />
      <stop
         style="stop-opacity:1;stop-color:#808080"
         offset="0.5"
         id="stop75" />
      <stop
         style="stop-opacity:1;stop-color:#000000"
         offset="1"
         id="stop76" />
    </radialGradient>
    <clipPath
       clipPathUnits="userSpaceOnUse"
       id="clipPath77">
      <path
         d="m -86.57416,-66.64717 c 0,2.84897 -2.30949,5.15846 -5.15846,5.15846 -2.84897,0 -5.15846,-2.30949 -5.15846,-5.15846 0,-2.84897 2.30949,-5.15845 5.15846,-5.15845 2.84897,0 5.15846,2.30948 5.15846,5.15845 z"
         transform="matrix(1.3333333,0,0,-1.3333333,131.42933,150.65867)"
         id="path77" />
    </clipPath>
    <radialGradient
       fx="40.000519"
       fy="60.000759"
       cx="50.000641"
       cy="50.000641"
       r="50.000641"
       gradientUnits="userSpaceOnUse"
       id="radialGradient82">
      <stop
         style="stop-opacity:1;stop-color:#ffffff"
         offset="0"
         id="stop78" />
      <stop
         style="stop-opacity:1;stop-color:#ffffff"
         offset="0.1799995"
         id="stop79" />
      <stop
         style="stop-opacity:1;stop-color:#b3b3b3"
         offset="0.35999959"
         id="stop80" />
      <stop
         style="stop-opacity:1;stop-color:#808080"
         offset="0.5"
         id="stop81" />
      <stop
         style="stop-opacity:1;stop-color:#000000"
         offset="1"
         id="stop82" />
    </radialGradient>
    <clipPath
       clipPathUnits="userSpaceOnUse"
       id="clipPath83">
      <path
         d="m -86.57416,66.64717 c 0,2.84897 -2.30949,5.15845 -5.15846,5.15845 -2.84897,0 -5.15846,-2.30948 -5.15846,-5.15845 0,-2.84897 2.30949,-5.15846 5.15846,-5.15846 2.84897,0 5.15846,2.30949 5.15846,5.15846 z"
         transform="matrix(1.3333333,0,0,-1.3333333,131.42933,150.65867)"
         id="path83" />
    </clipPath>
    <radialGradient
       fx="40.000519"
       fy="60.000759"
       cx="50.000641"
       cy="50.000641"
       r="50.000641"
       gradientUnits="userSpaceOnUse"
       id="radialGradient88">
      <stop
         style="stop-opacity:1;stop-color:#ffffff"
         offset="0"
         id="stop84" />
      <stop
         style="stop-opacity:1;stop-color:#ffffff"
         offset="0.1799995"
         id="stop85" />
      <stop
         style="stop-opacity:1;stop-color:#b3b3b3"
         offset="0.35999959"
         id="stop86" />
      <stop
         style="stop-opacity:1;stop-color:#808080"
         offset="0.5"
         id="stop87" />
      <stop
         style="stop-opacity:1;stop-color:#000000"
         offset="1"
         id="stop88" />
    </radialGradient>
    <clipPath
       clipPathUnits="userSpaceOnUse"
       id="clipPath89">
      <path
         d="m 40.19743,107.83687 c 0,2.84897 -2.30949,5.15846 -5.15846,5.15846 -2.84897,0 -5.15846,-2.30949 -5.15846,-5.15846 0,-2.84897 2.30949,-5.15847 5.15846,-5.15847 2.84897,0 5.15846,2.3095 5.15846,5.15847 z"
         transform="matrix(1.3333333,0,0,-1.3333333,131.42933,150.65867)"
         id="path89" />
    </clipPath>
    <radialGradient
       fx="40.000519"
       fy="60.000759"
       cx="50.000641"
       cy="50.000641"
       r="50.000641"
       gradientUnits="userSpaceOnUse"
       id="radialGradient94">
      <stop
         style="stop-opacity:1;stop-color:#ffffff"
         offset="0"
         id="stop90" />
      <stop
         style="stop-opacity:1;stop-color:#ffffff"
         offset="0.1799995"
         id="stop91" />
      <stop
         style="stop-opacity:1;stop-color:#b3b3b3"
         offset="0.35999959"
         id="stop92" />
      <stop
         style="stop-opacity:1;stop-color:#808080"
         offset="0.5"
         id="stop93" />
      <stop
         style="stop-opacity:1;stop-color:#000000"
         offset="1"
         id="stop94" />
    </radialGradient>
    <clipPath
       clipPathUnits="userSpaceOnUse"
       id="clipPath95">
      <path
         d="m 95.04155,0 c 0,2.84897 -2.30949,5.15845 -5.15846,5.15845 -2.84897,0 -5.15847,-2.30948 -5.15847,-5.15845 0,-2.84897 2.3095,-5.15845 5.15847,-5.15845 2.84897,0 5.15846,2.30948 5.15846,5.15845 z"
         transform="matrix(1.3333333,0,0,-1.3333333,131.42933,150.65867)"
         id="path95" />
    </clipPath>
    <radialGradient
       fx="40.000519"
       fy="60.000759"
       cx="50.000641"
       cy="50.000641"
       r="50.000641"
       gradientUnits="userSpaceOnUse"
       id="radialGradient100">
      <stop
         style="stop-opacity:1;stop-color:#ffffff"
         offset="0"
         id="stop96" />
      <stop
         style="stop-opacity:1;stop-color:#ffffff"
         offset="0.1799995"
         id="stop97" />
      <stop
         style="stop-opacity:1;stop-color:#b3b3b3"
         offset="0.35999959"
         id="stop98" />
      <stop
         style="stop-opacity:1;stop-color:#808080"
         offset="0.5"
         id="stop99" />
      <stop
         style="stop-opacity:1;stop-color:#000000"
         offset="1"
         id="stop100" />
    </radialGradient>
    <clipPath
       clipPathUnits="userSpaceOnUse"
       id="clipPath101">
      <path
         d="m 32.65227,-83.79816 c 0,2.84897 -2.3095,5.15845 -5.15847,5.15845 -2.84896,0 -5.15846,-2.30948 -5.15846,-5.15845 0,-2.84898 2.3095,-5.15846 5.15846,-5.15846 2.84897,0 5.15847,2.30948 5.15847,5.15846 z"
         transform="matrix(1.3333333,0,0,-1.3333333,131.42933,150.65867)"
         id="path101" />
    </clipPath>
    <radialGradient
       fx="40.000519"
       fy="60.000759"
       cx="50.000641"
       cy="50.000641"
       r="50.000641"
       gradientUnits="userSpaceOnUse"
       id="radialGradient106">
      <stop
         style="stop-opacity:1;stop-color:#ffffff"
         offset="0"
         id="stop102" />
      <stop
         style="stop-opacity:1;stop-color:#ffffff"
         offset="0.1799995"
         id="stop103" />
      <stop
         style="stop-opacity:1;stop-color:#b3b3b3"
         offset="0.35999959"
         id="stop104" />
      <stop
         style="stop-opacity:1;stop-color:#808080"
         offset="0.5"
         id="stop105" />
      <stop
         style="stop-opacity:1;stop-color:#000000"
         offset="1"
         id="stop106" />
    </radialGradient>
    <clipPath
       clipPathUnits="userSpaceOnUse"
       id="clipPath107">
      <path
         d="m -64.94899,-55.40634 c 0,2.84897 -2.30948,5.15846 -5.15845,5.15846 -2.84898,0 -5.15846,-2.30949 -5.15846,-5.15846 0,-2.84897 2.30948,-5.15845 5.15846,-5.15845 2.84897,0 5.15845,2.30948 5.15845,5.15845 z"
         transform="matrix(1.3333333,0,0,-1.3333333,131.42933,150.65867)"
         id="path107" />
    </clipPath>
    <radialGradient
       fx="40.000519"
       fy="60.000759"
       cx="50.000641"
       cy="50.000641"
       r="50.000641"
       gradientUnits="userSpaceOnUse"
       id="radialGradient112">
      <stop
         style="stop-opacity:1;stop-color:#ffffff"
         offset="0"
         id="stop108" />
      <stop
         style="stop-opacity:1;stop-color:#ffffff"
         offset="0.1799995"
         id="stop109" />
      <stop
         style="stop-opacity:1;stop-color:#b3b3b3"
         offset="0.35999959"
         id="stop110" />
      <stop
         style="stop-opacity:1;stop-color:#808080"
         offset="0.5"
         id="stop111" />
      <stop
         style="stop-opacity:1;stop-color:#000000"
         offset="1"
         id="stop112" />
    </radialGradient>
    <clipPath
       clipPathUnits="userSpaceOnUse"
       id="clipPath113">
      <path
         d="m -69.17575,49.47885 c 0,2.84897 -2.30948,5.15845 -5.15845,5.15845 -2.84897,0 -5.15846,-2.30948 -5.15846,-5.15845 0,-2.84898 2.30949,-5.15846 5.15846,-5.15846 2.84897,0 5.15845,2.30948 5.15845,5.15846 z"
         transform="matrix(1.3333333,0,0,-1.3333333,131.42933,150.65867)"
         id="path113" />
    </clipPath>
    <radialGradient
       fx="40.000519"
       fy="60.000759"
       cx="50.000641"
       cy="50.000641"
       r="50.000641"
       gradientUnits="userSpaceOnUse"
       id="radialGradient118">
      <stop
         style="stop-opacity:1;stop-color:#ffffff"
         offset="0"
         id="stop114" />
      <stop
         style="stop-opacity:1;stop-color:#ffffff"
         offset="0.1799995"
         id="stop115" />
      <stop
         style="stop-opacity:1;stop-color:#b3b3b3"
         offset="0.35999959"
         id="stop116" />
      <stop
         style="stop-opacity:1;stop-color:#808080"
         offset="0.5"
         id="stop117" />
      <stop
         style="stop-opacity:1;stop-color:#000000"
         offset="1"
         id="stop118" />
    </radialGradient>
    <clipPath
       clipPathUnits="userSpaceOnUse"
       id="clipPath119">
      <path
         d="m 30.719,85.48334 c 0,3.57289 -2.89635,6.46922 -6.46924,6.46922 -3.5729,0 -6.46923,-2.89633 -6.46923,-6.46922 0,-3.57289 2.89633,-6.46924 6.46923,-6.46924 3.57289,0 6.46924,2.89635 6.46924,6.46924 z"
         transform="matrix(1.3333333,0,0,-1.3333333,131.42933,150.65867)"
         id="path119" />
    </clipPath>
    <radialGradient
       fx="40.000519"
       fy="60.000759"
       cx="50.000641"
       cy="50.000641"
       r="50.000641"
       gradientUnits="userSpaceOnUse"
       id="radialGradient124">
      <stop
         style="stop-opacity:1;stop-color:#ffffff"
         offset="0"
         id="stop120" />
      <stop
         style="stop-opacity:1;stop-color:#ffffff"
         offset="0.1799995"
         id="stop121" />
      <stop
         style="stop-opacity:1;stop-color:#b3b3b3"
         offset="0.35999959"
         id="stop122" />
      <stop
         style="stop-opacity:1;stop-color:#808080"
         offset="0.5"
         id="stop123" />
      <stop
         style="stop-opacity:1;stop-color:#000000"
         offset="1"
         id="stop124" />
    </radialGradient>
    <clipPath
       clipPathUnits="userSpaceOnUse"
       id="clipPath125">
      <path
         d="m 77.4193,-13.85332 c 0,3.57289 -2.89635,6.46924 -6.46924,6.46924 -3.57289,0 -6.46924,-2.89635 -6.46924,-6.46924 0,-3.57289 2.89635,-6.46922 6.46924,-6.46922 3.57289,0 6.46924,2.89633 6.46924,6.46922 z"
         transform="matrix(1.3333333,0,0,-1.3333333,131.42933,150.65867)"
         id="path125" />
    </clipPath>
    <radialGradient
       fx="40.000519"
       fy="60.000759"
       cx="50.000641"
       cy="50.000641"
       r="50.000641"
       gradientUnits="userSpaceOnUse"
       id="radialGradient130">
      <stop
         style="stop-opacity:1;stop-color:#ffffff"
         offset="0"
         id="stop126" />
      <stop
         style="stop-opacity:1;stop-color:#ffffff"
         offset="0.1799995"
         id="stop127" />
      <stop
         style="stop-opacity:1;stop-color:#b3b3b3"
         offset="0.35999959"
         id="stop128" />
      <stop
         style="stop-opacity:1;stop-color:#808080"
         offset="0.5"
         id="stop129" />
      <stop
         style="stop-opacity:1;stop-color:#000000"
         offset="1"
         id="stop130" />
    </radialGradient>
    <clipPath
       clipPathUnits="userSpaceOnUse"
       id="clipPath131">
      <path
         d="m -47.4959,-45.84381 c 0,3.57289 -2.89634,6.46924 -6.46923,6.46924 -3.57289,0 -6.46923,-2.89635 -6.46923,-6.46924 0,-3.57289 2.89634,-6.46922 6.46923,-6.46922 3.57289,0 6.46923,2.89633 6.46923,6.46922 z"
         transform="matrix(1.3333333,0,0,-1.3333333,131.42933,150.65867)"
         id="path131" />
    </clipPath>
    <radialGradient
       fx="40.000519"
       fy="60.000759"
       cx="50.000641"
       cy="50.000641"
       r="50.000641"
       gradientUnits="userSpaceOnUse"
       id="radialGradient136">
      <stop
         style="stop-opacity:1;stop-color:#ffffff"
         offset="0"
         id="stop132" />
      <stop
         style="stop-opacity:1;stop-color:#ffffff"
         offset="0.1799995"
         id="stop133" />
      <stop
         style="stop-opacity:1;stop-color:#b3b3b3"
         offset="0.35999959"
         id="stop134" />
      <stop
         style="stop-opacity:1;stop-color:#808080"
         offset="0.5"
         id="stop135" />
      <stop
         style="stop-opacity:1;stop-color:#000000"
         offset="1"
         id="stop136" />
    </radialGradient>
    <clipPath
       clipPathUnits="userSpaceOnUse"
       id="clipPath137">
      <path
         d="m -53.62411,36.7363 c 0,3.57289 -2.89635,6.46924 -6.46924,6.46924 -3.57289,0 -6.46924,-2.89635 -6.46924,-6.46924 0,-3.5729 2.89635,-6.46923 6.46924,-6.46923 3.57289,0 6.46924,2.89633 6.46924,6.46923 z"
         transform="matrix(1.3333333,0,0,-1.3333333,131.42933,150.65867)"
         id="path137" />
    </clipPath>
    <radialGradient
       fx="40.000519"
       fy="60.000759"
       cx="50.000641"
       cy="50.000641"
       r="50.000641"
       gradientUnits="userSpaceOnUse"
       id="radialGradient142">
      <stop
         style="stop-opacity:1;stop-color:#ffffff"
         offset="0"
         id="stop138" />
      <stop
         style="stop-opacity:1;stop-color:#ffffff"
         offset="0.1799995"
         id="stop139" />
      <stop
         style="stop-opacity:1;stop-color:#b3b3b3"
         offset="0.35999959"
         id="stop140" />
      <stop
         style="stop-opacity:1;stop-color:#808080"
         offset="0.5"
         id="stop141" />
      <stop
         style="stop-opacity:1;stop-color:#000000"
         offset="1"
         id="stop142" />
    </radialGradient>
    <clipPath
       clipPathUnits="userSpaceOnUse"
       id="clipPath143">
      <path
         d="m 22.85544,69.41368 c 0,3.57289 -2.89635,6.46924 -6.46924,6.46924 -3.57289,0 -6.46922,-2.89635 -6.46922,-6.46924 0,-3.57289 2.89633,-6.46922 6.46922,-6.46922 3.57289,0 6.46924,2.89633 6.46924,6.46922 z"
         transform="matrix(1.3333333,0,0,-1.3333333,131.42933,150.65867)"
         id="path143" />
    </clipPath>
    <radialGradient
       fx="40.000519"
       fy="60.000759"
       cx="50.000641"
       cy="50.000641"
       r="50.000641"
       gradientUnits="userSpaceOnUse"
       id="radialGradient148">
      <stop
         style="stop-opacity:1;stop-color:#ffffff"
         offset="0"
         id="stop144" />
      <stop
         style="stop-opacity:1;stop-color:#ffffff"
         offset="0.1799995"
         id="stop145" />
      <stop
         style="stop-opacity:1;stop-color:#b3b3b3"
         offset="0.35999959"
         id="stop146" />
      <stop
         style="stop-opacity:1;stop-color:#808080"
         offset="0.5"
         id="stop147" />
      <stop
         style="stop-opacity:1;stop-color:#000000"
         offset="1"
         id="stop148" />
    </radialGradient>
    <clipPath
       clipPathUnits="userSpaceOnUse"
       id="clipPath149">
      <path
         d="m 76.87773,14.36021 c 0,3.57288 -2.89633,6.46923 -6.46922,6.46923 -3.57289,0 -6.46924,-2.89635 -6.46924,-6.46923 0,-3.57289 2.89635,-6.46923 6.46924,-6.46923 3.57289,0 6.46922,2.89634 6.46922,6.46923 z"
         transform="matrix(1.3333333,0,0,-1.3333333,131.42933,150.65867)"
         id="path149" />
    </clipPath>
    <radialGradient
       fx="40.000519"
       fy="60.000759"
       cx="50.000641"
       cy="50.000641"
       r="50.000641"
       gradientUnits="userSpaceOnUse"
       id="radialGradient154">
      <stop
         style="stop-opacity:1;stop-color:#ffffff"
         offset="0"
         id="stop150" />
      <stop
         style="stop-opacity:1;stop-color:#ffffff"
         offset="0.1799995"
         id="stop151" />
      <stop
         style="stop-opacity:1;stop-color:#b3b3b3"
         offset="0.35999959"
         id="stop152" />
      <stop
         style="stop-opacity:1;stop-color:#808080"
         offset="0.5"
         id="stop153" />
      <stop
         style="stop-opacity:1;stop-color:#000000"
         offset="1"
         id="stop154" />
    </radialGradient>
    <clipPath
       clipPathUnits="userSpaceOnUse"
       id="clipPath155">
      <path
         d="m 58.6004,-14.42078 c 0,3.57289 -2.89634,6.46924 -6.46924,6.46924 -3.57289,0 -6.46923,-2.89635 -6.46923,-6.46924 0,-3.57289 2.89634,-6.46922 6.46923,-6.46922 3.5729,0 6.46924,2.89633 6.46924,6.46922 z"
         transform="matrix(1.3333333,0,0,-1.3333333,131.42933,150.65867)"
         id="path155" />
    </clipPath>
    <radialGradient
       fx="40.000519"
       fy="60.000759"
       cx="50.000641"
       cy="50.000641"
       r="50.000641"
       gradientUnits="userSpaceOnUse"
       id="radialGradient160">
      <stop
         style="stop-opacity:1;stop-color:#ffffff"
         offset="0"
         id="stop156" />
      <stop
         style="stop-opacity:1;stop-color:#ffffff"
         offset="0.1799995"
         id="stop157" />
      <stop
         style="stop-opacity:1;stop-color:#b3b3b3"
         offset="0.35999959"
         id="stop158" />
      <stop
         style="stop-opacity:1;stop-color:#808080"
         offset="0.5"
         id="stop159" />
      <stop
         style="stop-opacity:1;stop-color:#000000"
         offset="1"
         id="stop160" />
    </radialGradient>
    <clipPath
       clipPathUnits="userSpaceOnUse"
       id="clipPath161">
      <path
         d="m -30.75323,-30.1496 c 0,3.5729 -2.89634,6.46924 -6.46923,6.46924 -3.57289,0 -6.46924,-2.89634 -6.46924,-6.46924 0,-3.57287 2.89635,-6.46922 6.46924,-6.46922 3.57289,0 6.46923,2.89635 6.46923,6.46922 z"
         transform="matrix(1.3333333,0,0,-1.3333333,131.42933,150.65867)"
         id="path161" />
    </clipPath>
    <radialGradient
       fx="40.000519"
       fy="60.000759"
       cx="50.000641"
       cy="50.000641"
       r="50.000641"
       gradientUnits="userSpaceOnUse"
       id="radialGradient166">
      <stop
         style="stop-opacity:1;stop-color:#ffffff"
         offset="0"
         id="stop162" />
      <stop
         style="stop-opacity:1;stop-color:#ffffff"
         offset="0.1799995"
         id="stop163" />
      <stop
         style="stop-opacity:1;stop-color:#b3b3b3"
         offset="0.35999959"
         id="stop164" />
      <stop
         style="stop-opacity:1;stop-color:#808080"
         offset="0.5"
         id="stop165" />
      <stop
         style="stop-opacity:1;stop-color:#000000"
         offset="1"
         id="stop166" />
    </radialGradient>
    <clipPath
       clipPathUnits="userSpaceOnUse"
       id="clipPath167">
      <path
         d="m -41.9819,27.3658 c 0,3.57289 -2.89633,6.46924 -6.46923,6.46924 -3.57289,0 -6.46923,-2.89635 -6.46923,-6.46924 0,-3.57289 2.89634,-6.46922 6.46923,-6.46922 3.5729,0 6.46923,2.89633 6.46923,6.46922 z"
         transform="matrix(1.3333333,0,0,-1.3333333,131.42933,150.65867)"
         id="path167" />
    </clipPath>
    <radialGradient
       fx="40.000519"
       fy="60.000759"
       cx="50.000641"
       cy="50.000641"
       r="50.000641"
       gradientUnits="userSpaceOnUse"
       id="radialGradient172">
      <stop
         style="stop-opacity:1;stop-color:#ffffff"
         offset="0"
         id="stop168" />
      <stop
         style="stop-opacity:1;stop-color:#ffffff"
         offset="0.1799995"
         id="stop169" />
      <stop
         style="stop-opacity:1;stop-color:#b3b3b3"
         offset="0.35999959"
         id="stop170" />
      <stop
         style="stop-opacity:1;stop-color:#808080"
         offset="0.5"
         id="stop171" />
      <stop
         style="stop-opacity:1;stop-color:#000000"
         offset="1"
         id="stop172" />
    </radialGradient>
    <clipPath
       clipPathUnits="userSpaceOnUse"
       id="clipPath173">
      <path
         d="m 17.86049,56.84584 c 0,3.57289 -2.89633,6.46924 -6.46922,6.46924 -3.5729,0 -6.46924,-2.89635 -6.46924,-6.46924 0,-3.57289 2.89634,-6.46922 6.46924,-6.46922 3.57289,0 6.46922,2.89633 6.46922,6.46922 z"
         transform="matrix(1.3333333,0,0,-1.3333333,131.42933,150.65867)"
         id="path173" />
    </clipPath>
    <radialGradient
       fx="40.000519"
       fy="60.000759"
       cx="50.000641"
       cy="50.000641"
       r="50.000641"
       gradientUnits="userSpaceOnUse"
       id="radialGradient178">
      <stop
         style="stop-opacity:1;stop-color:#ffffff"
         offset="0"
         id="stop174" />
      <stop
         style="stop-opacity:1;stop-color:#ffffff"
         offset="0.1799995"
         id="stop175" />
      <stop
         style="stop-opacity:1;stop-color:#b3b3b3"
         offset="0.35999959"
         id="stop176" />
      <stop
         style="stop-opacity:1;stop-color:#808080"
         offset="0.5"
         id="stop177" />
      <stop
         style="stop-opacity:1;stop-color:#000000"
         offset="1"
         id="stop178" />
    </radialGradient>
    <clipPath
       clipPathUnits="userSpaceOnUse"
       id="clipPath179">
      <path
         d="m 66.03313,18.30153 c 0,3.57289 -2.89633,6.46924 -6.46923,6.46924 -3.57289,0 -6.46923,-2.89635 -6.46923,-6.46924 0,-3.57289 2.89634,-6.46923 6.46923,-6.46923 3.5729,0 6.46923,2.89634 6.46923,6.46923 z"
         transform="matrix(1.3333333,0,0,-1.3333333,131.42933,150.65867)"
         id="path179" />
    </clipPath>
  </defs>
  <g
     id="g1">
    <path
       id="path1"
       d="M 113.38724,0 35.03897,-107.83687"
       style="fill:none;stroke:#000000;stroke-width:1.19553;stroke-linecap:butt;stroke-linejoin:round;stroke-miterlimit:10;stroke-dasharray:none;stroke-opacity:1"
       transform="matrix(1.3333333,0,0,-1.3333333,131.42933,150.65867)" />
    <path
       id="path2"
       d="M 113.38724,0 35.03897,-107.83687"
       style="fill:none;stroke:#8c8c8c;stroke-width:0.79701;stroke-linecap:butt;stroke-linejoin:round;stroke-miterlimit:10;stroke-dasharray:none;stroke-opacity:1"
       transform="matrix(1.3333333,0,0,-1.3333333,131.42933,150.65867)" />
    <path
       id="path3"
       d="M 113.38724,0 35.03897,107.83687"
       style="fill:none;stroke:#000000;stroke-width:1.19553;stroke-linecap:butt;stroke-linejoin:round;stroke-miterlimit:10;stroke-dasharray:none;stroke-opacity:1"
       transform="matrix(1.3333333,0,0,-1.3333333,131.42933,150.65867)" />
    <path
       id="path4"
       d="M 113.38724,0 35.03897,107.83687"
       style="fill:none;stroke:#8c8c8c;stroke-width:0.79701;stroke-linecap:butt;stroke-linejoin:round;stroke-miterlimit:10;stroke-dasharray:none;stroke-opacity:1"
       transform="matrix(1.3333333,0,0,-1.3333333,131.42933,150.65867)" />
    <path
       id="path5"
       d="m 35.03897,-107.83687 -126.77159,41.1897"
       style="fill:none;stroke:#000000;stroke-width:1.19553;stroke-linecap:butt;stroke-linejoin:round;stroke-miterlimit:10;stroke-dasharray:none;stroke-opacity:1"
       transform="matrix(1.3333333,0,0,-1.3333333,131.42933,150.65867)" />
    <path
       id="path6"
       d="m 35.03897,-107.83687 -126.77159,41.1897"
       style="fill:none;stroke:#8c8c8c;stroke-width:0.79701;stroke-linecap:butt;stroke-linejoin:round;stroke-miterlimit:10;stroke-dasharray:none;stroke-opacity:1"
       transform="matrix(1.3333333,0,0,-1.3333333,131.42933,150.65867)" />
    <path
       id="path7"
       d="M -91.73262,-66.64717 V 66.64717"
       style="fill:none;stroke:#000000;stroke-width:1.19553;stroke-linecap:butt;stroke-linejoin:round;stroke-miterlimit:10;stroke-dasharray:none;stroke-opacity:1"
       transform="matrix(1.3333333,0,0,-1.3333333,131.42933,150.65867)" />
    <path
       id="path8"
       d="M -91.73262,-66.64717 V 66.64717"
       style="fill:none;stroke:#8c8c8c;stroke-width:0.79701;stroke-linecap:butt;stroke-linejoin:round;stroke-miterlimit:10;stroke-dasharray:none;stroke-opacity:1"
       transform="matrix(1.3333333,0,0,-1.3333333,131.42933,150.65867)" />
    <path
       id="path9"
       d="m -91.73262,66.64717 126.77159,41.1897"
       style="fill:none;stroke:#000000;stroke-width:1.19553;stroke-linecap:butt;stroke-linejoin:round;stroke-miterlimit:10;stroke-dasharray:none;stroke-opacity:1"
       transform="matrix(1.3333333,0,0,-1.3333333,131.42933,150.65867)" />
    <path
       id="path10"
       d="m -91.73262,66.64717 126.77159,41.1897"
       style="fill:none;stroke:#8c8c8c;stroke-width:0.79701;stroke-linecap:butt;stroke-linejoin:round;stroke-miterlimit:10;stroke-dasharray:none;stroke-opacity:1"
       transform="matrix(1.3333333,0,0,-1.3333333,131.42933,150.65867)" />
    <path
       id="path11"
       d="M 113.38724,0 H 89.88309"
       style="fill:none;stroke:#000000;stroke-width:1.19553;stroke-linecap:butt;stroke-linejoin:round;stroke-miterlimit:10;stroke-dasharray:none;stroke-opacity:1"
       transform="matrix(1.3333333,0,0,-1.3333333,131.42933,150.65867)" />
    <path
       id="path12"
       d="M 113.38724,0 H 89.88309"
       style="fill:none;stroke:#8c8c8c;stroke-width:0.79701;stroke-linecap:butt;stroke-linejoin:round;stroke-miterlimit:10;stroke-dasharray:none;stroke-opacity:1"
       transform="matrix(1.3333333,0,0,-1.3333333,131.42933,150.65867)" />
    <path
       id="path13"
       d="M 35.03897,-107.83687 27.4938,-83.79816"
       style="fill:none;stroke:#000000;stroke-width:1.19553;stroke-linecap:butt;stroke-linejoin:round;stroke-miterlimit:10;stroke-dasharray:none;stroke-opacity:1"
       transform="matrix(1.3333333,0,0,-1.3333333,131.42933,150.65867)" />
    <path
       id="path14"
       d="M 35.03897,-107.83687 27.4938,-83.79816"
       style="fill:none;stroke:#8c8c8c;stroke-width:0.79701;stroke-linecap:butt;stroke-linejoin:round;stroke-miterlimit:10;stroke-dasharray:none;stroke-opacity:1"
       transform="matrix(1.3333333,0,0,-1.3333333,131.42933,150.65867)" />
    <path
       id="path15"
       d="M 89.88309,0 70.95006,-13.85332"
       style="fill:none;stroke:#000000;stroke-width:1.19553;stroke-linecap:butt;stroke-linejoin:round;stroke-miterlimit:10;stroke-dasharray:none;stroke-opacity:1"
       transform="matrix(1.3333333,0,0,-1.3333333,131.42933,150.65867)" />
    <path
       id="path16"
       d="M 89.88309,0 70.95006,-13.85332"
       style="fill:none;stroke:#8c8c8c;stroke-width:0.79701;stroke-linecap:butt;stroke-linejoin:round;stroke-miterlimit:10;stroke-dasharray:none;stroke-opacity:1"
       transform="matrix(1.3333333,0,0,-1.3333333,131.42933,150.65867)" />
    <path
       id="path17"
       d="m 27.4938,-83.79816 43.45626,69.94484"
       style="fill:none;stroke:#000000;stroke-width:1.19553;stroke-linecap:butt;stroke-linejoin:round;stroke-miterlimit:10;stroke-dasharray:none;stroke-opacity:1"
       transform="matrix(1.3333333,0,0,-1.3333333,131.42933,150.65867)" />
    <path
       id="path18"
       d="m 27.4938,-83.79816 43.45626,69.94484"
       style="fill:none;stroke:#8c8c8c;stroke-width:0.79701;stroke-linecap:butt;stroke-linejoin:round;stroke-miterlimit:10;stroke-dasharray:none;stroke-opacity:1"
       transform="matrix(1.3333333,0,0,-1.3333333,131.42933,150.65867)" />
    <path
       id="path19"
       d="M 35.03897,107.83687 24.24976,85.48334"
       style="fill:none;stroke:#000000;stroke-width:1.19553;stroke-linecap:butt;stroke-linejoin:round;stroke-miterlimit:10;stroke-dasharray:none;stroke-opacity:1"
       transform="matrix(1.3333333,0,0,-1.3333333,131.42933,150.65867)" />
    <path
       id="path20"
       d="M 35.03897,107.83687 24.24976,85.48334"
       style="fill:none;stroke:#8c8c8c;stroke-width:0.79701;stroke-linecap:butt;stroke-linejoin:round;stroke-miterlimit:10;stroke-dasharray:none;stroke-opacity:1"
       transform="matrix(1.3333333,0,0,-1.3333333,131.42933,150.65867)" />
    <path
       id="path21"
       d="M 89.88309,0 70.40851,14.36021"
       style="fill:none;stroke:#000000;stroke-width:1.19553;stroke-linecap:butt;stroke-linejoin:round;stroke-miterlimit:10;stroke-dasharray:none;stroke-opacity:1"
       transform="matrix(1.3333333,0,0,-1.3333333,131.42933,150.65867)" />
    <path
       id="path22"
       d="M 89.88309,0 70.40851,14.36021"
       style="fill:none;stroke:#8c8c8c;stroke-width:0.79701;stroke-linecap:butt;stroke-linejoin:round;stroke-miterlimit:10;stroke-dasharray:none;stroke-opacity:1"
       transform="matrix(1.3333333,0,0,-1.3333333,131.42933,150.65867)" />
    <path
       id="path23"
       d="M 24.24976,85.48334 70.40851,14.36021"
       style="fill:none;stroke:#000000;stroke-width:1.19553;stroke-linecap:butt;stroke-linejoin:round;stroke-miterlimit:10;stroke-dasharray:none;stroke-opacity:1"
       transform="matrix(1.3333333,0,0,-1.3333333,131.42933,150.65867)" />
    <path
       id="path24"
       d="M 24.24976,85.48334 70.40851,14.36021"
       style="fill:none;stroke:#8c8c8c;stroke-width:0.79701;stroke-linecap:butt;stroke-linejoin:round;stroke-miterlimit:10;stroke-dasharray:none;stroke-opacity:1"
       transform="matrix(1.3333333,0,0,-1.3333333,131.42933,150.65867)" />
    <path
       id="path25"
       d="m -91.73262,-66.64717 21.62518,11.24083"
       style="fill:none;stroke:#000000;stroke-width:1.19553;stroke-linecap:butt;stroke-linejoin:round;stroke-miterlimit:10;stroke-dasharray:none;stroke-opacity:1"
       transform="matrix(1.3333333,0,0,-1.3333333,131.42933,150.65867)" />
    <path
       id="path26"
       d="m -91.73262,-66.64717 21.62518,11.24083"
       style="fill:none;stroke:#8c8c8c;stroke-width:0.79701;stroke-linecap:butt;stroke-linejoin:round;stroke-miterlimit:10;stroke-dasharray:none;stroke-opacity:1"
       transform="matrix(1.3333333,0,0,-1.3333333,131.42933,150.65867)" />
    <path
       id="path27"
       d="m 27.4938,-83.79816 -81.45893,37.95435"
       style="fill:none;stroke:#000000;stroke-width:1.19553;stroke-linecap:butt;stroke-linejoin:round;stroke-miterlimit:10;stroke-dasharray:none;stroke-opacity:1"
       transform="matrix(1.3333333,0,0,-1.3333333,131.42933,150.65867)" />
    <path
       id="path28"
       d="m 27.4938,-83.79816 -81.45893,37.95435"
       style="fill:none;stroke:#8c8c8c;stroke-width:0.79701;stroke-linecap:butt;stroke-linejoin:round;stroke-miterlimit:10;stroke-dasharray:none;stroke-opacity:1"
       transform="matrix(1.3333333,0,0,-1.3333333,131.42933,150.65867)" />
    <path
       id="path29"
       d="m -70.10744,-55.40634 16.14231,9.56253"
       style="fill:none;stroke:#000000;stroke-width:1.19553;stroke-linecap:butt;stroke-linejoin:round;stroke-miterlimit:10;stroke-dasharray:none;stroke-opacity:1"
       transform="matrix(1.3333333,0,0,-1.3333333,131.42933,150.65867)" />
    <path
       id="path30"
       d="m -70.10744,-55.40634 16.14231,9.56253"
       style="fill:none;stroke:#8c8c8c;stroke-width:0.79701;stroke-linecap:butt;stroke-linejoin:round;stroke-miterlimit:10;stroke-dasharray:none;stroke-opacity:1"
       transform="matrix(1.3333333,0,0,-1.3333333,131.42933,150.65867)" />
    <path
       id="path31"
       d="M -91.73262,66.64717 -74.3342,49.47885"
       style="fill:none;stroke:#000000;stroke-width:1.19553;stroke-linecap:butt;stroke-linejoin:round;stroke-miterlimit:10;stroke-dasharray:none;stroke-opacity:1"
       transform="matrix(1.3333333,0,0,-1.3333333,131.42933,150.65867)" />
    <path
       id="path32"
       d="M -91.73262,66.64717 -74.3342,49.47885"
       style="fill:none;stroke:#8c8c8c;stroke-width:0.79701;stroke-linecap:butt;stroke-linejoin:round;stroke-miterlimit:10;stroke-dasharray:none;stroke-opacity:1"
       transform="matrix(1.3333333,0,0,-1.3333333,131.42933,150.65867)" />
    <path
       id="path33"
       d="M -70.10744,-55.40634 -60.09335,36.7363"
       style="fill:none;stroke:#000000;stroke-width:1.19553;stroke-linecap:butt;stroke-linejoin:round;stroke-miterlimit:10;stroke-dasharray:none;stroke-opacity:1"
       transform="matrix(1.3333333,0,0,-1.3333333,131.42933,150.65867)" />
    <path
       id="path34"
       d="M -70.10744,-55.40634 -60.09335,36.7363"
       style="fill:none;stroke:#8c8c8c;stroke-width:0.79701;stroke-linecap:butt;stroke-linejoin:round;stroke-miterlimit:10;stroke-dasharray:none;stroke-opacity:1"
       transform="matrix(1.3333333,0,0,-1.3333333,131.42933,150.65867)" />
    <path
       id="path35"
       d="M -74.3342,49.47885 -60.09335,36.7363"
       style="fill:none;stroke:#000000;stroke-width:1.19553;stroke-linecap:butt;stroke-linejoin:round;stroke-miterlimit:10;stroke-dasharray:none;stroke-opacity:1"
       transform="matrix(1.3333333,0,0,-1.3333333,131.42933,150.65867)" />
    <path
       id="path36"
       d="M -74.3342,49.47885 -60.09335,36.7363"
       style="fill:none;stroke:#8c8c8c;stroke-width:0.79701;stroke-linecap:butt;stroke-linejoin:round;stroke-miterlimit:10;stroke-dasharray:none;stroke-opacity:1"
       transform="matrix(1.3333333,0,0,-1.3333333,131.42933,150.65867)" />
    <path
       id="path37"
       d="M -74.3342,49.47885 16.3862,69.41368"
       style="fill:none;stroke:#000000;stroke-width:1.19553;stroke-linecap:butt;stroke-linejoin:round;stroke-miterlimit:10;stroke-dasharray:none;stroke-opacity:1"
       transform="matrix(1.3333333,0,0,-1.3333333,131.42933,150.65867)" />
    <path
       id="path38"
       d="M -74.3342,49.47885 16.3862,69.41368"
       style="fill:none;stroke:#8c8c8c;stroke-width:0.79701;stroke-linecap:butt;stroke-linejoin:round;stroke-miterlimit:10;stroke-dasharray:none;stroke-opacity:1"
       transform="matrix(1.3333333,0,0,-1.3333333,131.42933,150.65867)" />
    <path
       id="path39"
       d="M 24.24976,85.48334 16.3862,69.41368"
       style="fill:none;stroke:#000000;stroke-width:1.19553;stroke-linecap:butt;stroke-linejoin:round;stroke-miterlimit:10;stroke-dasharray:none;stroke-opacity:1"
       transform="matrix(1.3333333,0,0,-1.3333333,131.42933,150.65867)" />
    <path
       id="path40"
       d="M 24.24976,85.48334 16.3862,69.41368"
       style="fill:none;stroke:#8c8c8c;stroke-width:0.79701;stroke-linecap:butt;stroke-linejoin:round;stroke-miterlimit:10;stroke-dasharray:none;stroke-opacity:1"
       transform="matrix(1.3333333,0,0,-1.3333333,131.42933,150.65867)" />
    <path
       id="path41"
       d="m 70.95006,-13.85332 -18.8189,-0.56746"
       style="fill:none;stroke:#000000;stroke-width:1.19553;stroke-linecap:butt;stroke-linejoin:round;stroke-miterlimit:10;stroke-dasharray:none;stroke-opacity:1"
       transform="matrix(1.3333333,0,0,-1.3333333,131.42933,150.65867)" />
    <path
       id="path42"
       d="m 70.95006,-13.85332 -18.8189,-0.56746"
       style="fill:none;stroke:#8c8c8c;stroke-width:0.79701;stroke-linecap:butt;stroke-linejoin:round;stroke-miterlimit:10;stroke-dasharray:none;stroke-opacity:1"
       transform="matrix(1.3333333,0,0,-1.3333333,131.42933,150.65867)" />
    <path
       id="path43"
       d="M 70.40851,14.36021 59.5639,18.30153"
       style="fill:none;stroke:#000000;stroke-width:1.19553;stroke-linecap:butt;stroke-linejoin:round;stroke-miterlimit:10;stroke-dasharray:none;stroke-opacity:1"
       transform="matrix(1.3333333,0,0,-1.3333333,131.42933,150.65867)" />
    <path
       id="path44"
       d="M 70.40851,14.36021 59.5639,18.30153"
       style="fill:none;stroke:#8c8c8c;stroke-width:0.79701;stroke-linecap:butt;stroke-linejoin:round;stroke-miterlimit:10;stroke-dasharray:none;stroke-opacity:1"
       transform="matrix(1.3333333,0,0,-1.3333333,131.42933,150.65867)" />
    <path
       id="path45"
       d="M 52.13116,-14.42078 59.5639,18.30153"
       style="fill:none;stroke:#000000;stroke-width:1.19553;stroke-linecap:butt;stroke-linejoin:round;stroke-miterlimit:10;stroke-dasharray:none;stroke-opacity:1"
       transform="matrix(1.3333333,0,0,-1.3333333,131.42933,150.65867)" />
    <path
       id="path46"
       d="M 52.13116,-14.42078 59.5639,18.30153"
       style="fill:none;stroke:#8c8c8c;stroke-width:0.79701;stroke-linecap:butt;stroke-linejoin:round;stroke-miterlimit:10;stroke-dasharray:none;stroke-opacity:1"
       transform="matrix(1.3333333,0,0,-1.3333333,131.42933,150.65867)" />
    <path
       id="path47"
       d="m -53.96513,-45.84381 16.74267,15.69421"
       style="fill:none;stroke:#000000;stroke-width:1.19553;stroke-linecap:butt;stroke-linejoin:round;stroke-miterlimit:10;stroke-dasharray:none;stroke-opacity:1"
       transform="matrix(1.3333333,0,0,-1.3333333,131.42933,150.65867)" />
    <path
       id="path48"
       d="m -53.96513,-45.84381 16.74267,15.69421"
       style="fill:none;stroke:#8c8c8c;stroke-width:0.79701;stroke-linecap:butt;stroke-linejoin:round;stroke-miterlimit:10;stroke-dasharray:none;stroke-opacity:1"
       transform="matrix(1.3333333,0,0,-1.3333333,131.42933,150.65867)" />
    <path
       id="path49"
       d="M 52.13116,-14.42078 -37.22246,-30.1496"
       style="fill:none;stroke:#000000;stroke-width:1.19553;stroke-linecap:butt;stroke-linejoin:round;stroke-miterlimit:10;stroke-dasharray:none;stroke-opacity:1"
       transform="matrix(1.3333333,0,0,-1.3333333,131.42933,150.65867)" />
    <path
       id="path50"
       d="M 52.13116,-14.42078 -37.22246,-30.1496"
       style="fill:none;stroke:#8c8c8c;stroke-width:0.79701;stroke-linecap:butt;stroke-linejoin:round;stroke-miterlimit:10;stroke-dasharray:none;stroke-opacity:1"
       transform="matrix(1.3333333,0,0,-1.3333333,131.42933,150.65867)" />
    <path
       id="path51"
       d="m -60.09335,36.7363 11.64222,-9.3705"
       style="fill:none;stroke:#000000;stroke-width:1.19553;stroke-linecap:butt;stroke-linejoin:round;stroke-miterlimit:10;stroke-dasharray:none;stroke-opacity:1"
       transform="matrix(1.3333333,0,0,-1.3333333,131.42933,150.65867)" />
    <path
       id="path52"
       d="m -60.09335,36.7363 11.64222,-9.3705"
       style="fill:none;stroke:#8c8c8c;stroke-width:0.79701;stroke-linecap:butt;stroke-linejoin:round;stroke-miterlimit:10;stroke-dasharray:none;stroke-opacity:1"
       transform="matrix(1.3333333,0,0,-1.3333333,131.42933,150.65867)" />
    <path
       id="path53"
       d="M -37.22246,-30.1496 -48.45113,27.3658"
       style="fill:none;stroke:#000000;stroke-width:1.19553;stroke-linecap:butt;stroke-linejoin:round;stroke-miterlimit:10;stroke-dasharray:none;stroke-opacity:1"
       transform="matrix(1.3333333,0,0,-1.3333333,131.42933,150.65867)" />
    <path
       id="path54"
       d="M -37.22246,-30.1496 -48.45113,27.3658"
       style="fill:none;stroke:#8c8c8c;stroke-width:0.79701;stroke-linecap:butt;stroke-linejoin:round;stroke-miterlimit:10;stroke-dasharray:none;stroke-opacity:1"
       transform="matrix(1.3333333,0,0,-1.3333333,131.42933,150.65867)" />
    <path
       id="path55"
       d="M 16.3862,69.41368 11.39127,56.84584"
       style="fill:none;stroke:#000000;stroke-width:1.19553;stroke-linecap:butt;stroke-linejoin:round;stroke-miterlimit:10;stroke-dasharray:none;stroke-opacity:1"
       transform="matrix(1.3333333,0,0,-1.3333333,131.42933,150.65867)" />
    <path
       id="path56"
       d="M 16.3862,69.41368 11.39127,56.84584"
       style="fill:none;stroke:#8c8c8c;stroke-width:0.79701;stroke-linecap:butt;stroke-linejoin:round;stroke-miterlimit:10;stroke-dasharray:none;stroke-opacity:1"
       transform="matrix(1.3333333,0,0,-1.3333333,131.42933,150.65867)" />
    <path
       id="path57"
       d="m -48.45113,27.3658 59.8424,29.48004"
       style="fill:none;stroke:#000000;stroke-width:1.19553;stroke-linecap:butt;stroke-linejoin:round;stroke-miterlimit:10;stroke-dasharray:none;stroke-opacity:1"
       transform="matrix(1.3333333,0,0,-1.3333333,131.42933,150.65867)" />
    <path
       id="path58"
       d="m -48.45113,27.3658 59.8424,29.48004"
       style="fill:none;stroke:#8c8c8c;stroke-width:0.79701;stroke-linecap:butt;stroke-linejoin:round;stroke-miterlimit:10;stroke-dasharray:none;stroke-opacity:1"
       transform="matrix(1.3333333,0,0,-1.3333333,131.42933,150.65867)" />
    <path
       id="path59"
       d="M 11.39127,56.84584 59.5639,18.30153"
       style="fill:none;stroke:#000000;stroke-width:1.19553;stroke-linecap:butt;stroke-linejoin:round;stroke-miterlimit:10;stroke-dasharray:none;stroke-opacity:1"
       transform="matrix(1.3333333,0,0,-1.3333333,131.42933,150.65867)" />
    <path
       id="path60"
       d="M 11.39127,56.84584 59.5639,18.30153"
       style="fill:none;stroke:#8c8c8c;stroke-width:0.79701;stroke-linecap:butt;stroke-linejoin:round;stroke-miterlimit:10;stroke-dasharray:none;stroke-opacity:1"
       transform="matrix(1.3333333,0,0,-1.3333333,131.42933,150.65867)" />
    <g
       id="g64"
       clip-path="url(#clipPath65)">
      <path
         d="M 0,0 H 100 V 100 H 0 Z"
         transform="matrix(0.27514667,0,0,-0.27514667,268.85499,164.416)"
         style="fill:url(#radialGradient64);stroke:none"
         id="path64" />
    </g>
    <path
       id="path66"
       d="m 1.9811406,-3.1654062 c 0,-0.1523438 -0.011719,-0.1523438 -0.1757812,-0.1523438 -0.3515625,0.3164063 -0.90234377,0.3164063 -1.00781252,0.3164063 h -0.0820313 v 0.2226562 h 0.0820313 c 0.1171875,0 0.43359372,-0.011719 0.72656252,-0.140625 v 2.484375 c 0,0.1640625 0,0.2109375 -0.52734377,0.2109375 H 0.75067188 v 0.22265625 c 0.26953122,-0.0234375 0.71484372,-0.0234375 1.00781252,-0.0234375 0.28125,0 0.7265625,0 0.9960937,0.0234375 V -0.224 H 2.5084844 c -0.5273438,0 -0.5273438,-0.046875 -0.5273438,-0.2109375 z m 0,0"
       style="fill:#000000;fill-opacity:1;fill-rule:nonzero;stroke:none"
       aria-label="1"
       transform="matrix(1.3333333,0,0,1.3333333,280.35067,152.79867)" />
    <g
       id="g70"
       clip-path="url(#clipPath71)">
      <path
         d="M 0,0 H 100 V 100 H 0 Z"
         transform="matrix(0.27514667,0,0,-0.27514667,164.39063,308.19849)"
         style="fill:url(#radialGradient70);stroke:none"
         id="path70" />
    </g>
    <path
       id="path72"
       d="M 2.9297266,-0.96234375 H 2.7187891 c -0.011719,0.09375 -0.058594,0.3984375 -0.140625,0.45703125 -0.035156,0.0234375 -0.4570313,0.0234375 -0.5273438,0.0234375 h -0.984375 c 0.328125,-0.24609375 0.703125,-0.515625 0.9960938,-0.7148438 0.4570312,-0.3164062 0.8671875,-0.5976562 0.8671875,-1.125 0,-0.6445312 -0.5976563,-0.9960937 -1.3125,-0.9960937 -0.66796879,0 -1.16015629,0.3867187 -1.16015629,0.8789062 0,0.2578125 0.2109375,0.3046875 0.28125,0.3046875 0.140625,0 0.29296879,-0.09375 0.29296879,-0.2929687 0,-0.1875 -0.12890629,-0.28125 -0.28125004,-0.2929688 0.140625,-0.234375 0.43359374,-0.375 0.76171874,-0.375 0.4804688,0 0.890625,0.28125 0.890625,0.7734375 0,0.421875 -0.2929687,0.7382813 -0.6796875,1.0546875 l -1.20703124,1.03125005 c -0.046875,0.046875 -0.0585938,0.046875 -0.0585938,0.0820313 V -0.0014062 H 2.7656641 Z m 0,0"
       style="fill:#000000;fill-opacity:1;fill-rule:nonzero;stroke:none"
       aria-label="2"
       transform="matrix(1.3333333,0,0,1.3333333,175.88667,296.58)" />
    <g
       id="g76"
       clip-path="url(#clipPath77)">
      <path
         d="M 0,0 H 100 V 100 H 0 Z"
         transform="matrix(0.27514667,0,0,-0.27514667,-4.63816,253.27889)"
         style="fill:url(#radialGradient76);stroke:none"
         id="path76" />
    </g>
    <path
       id="path78"
       d="m 1.6401563,-1.6522266 c 0.4570312,0 0.7617187,0.2929688 0.7617187,0.78515629 0,0.50390625 -0.3046875,0.7734375 -0.75,0.7734375 -0.058594,0 -0.65625,0 -0.90234375,-0.2578125 0.19921875,-0.0351563 0.25781255,-0.1875 0.25781255,-0.3046875 0,-0.1875 -0.14062505,-0.3046875 -0.30468755,-0.3046875 -0.15234375,0 -0.3046875,0.10546875 -0.3046875,0.31640625 0,0.515625 0.5859375,0.75 1.26562505,0.75 0.8203125,0 1.3242187,-0.4921875 1.3242187,-0.97265625 0,-0.41015629 -0.3632812,-0.76171879 -0.9257812,-0.89062499 0.5976562,-0.1875 0.75,-0.5625 0.75,-0.84375 0,-0.4101563 -0.5039063,-0.7148438 -1.1367188,-0.7148438 -0.609375,0 -1.1015625,0.2578125 -1.1015625,0.703125 0,0.234375 0.1875,0.2929688 0.28125,0.2929688 0.140625,0 0.28125,-0.1054688 0.28125,-0.28125 0,-0.1171875 -0.058594,-0.2578125 -0.234375,-0.28125 0.2109375,-0.234375 0.65625,-0.2460938 0.7617188,-0.2460938 0.3632812,0 0.6210937,0.1875 0.6210937,0.5273438 0,0.28125 -0.1875,0.7382812 -0.7148437,0.7734375 -0.140625,0 -0.1523438,0 -0.28125,0.011719 -0.058594,0 -0.1171875,0.011719 -0.1171875,0.082031 0,0.082031 0.058594,0.082031 0.140625,0.082031 z m 0,0"
       style="fill:#000000;fill-opacity:1;fill-rule:nonzero;stroke:none"
       aria-label="3"
       transform="matrix(1.3333333,0,0,1.3333333,6.86,241.66)" />
    <g
       id="g82"
       clip-path="url(#clipPath83)">
      <path
         d="M 0,0 H 100 V 100 H 0 Z"
         transform="matrix(0.27514667,0,0,-0.27514667,-4.63816,75.553107)"
         style="fill:url(#radialGradient82);stroke:none"
         id="path82" />
    </g>
    <path
       id="path84"
       d="M 3.0698438,-0.80846875 V -1.031125 H 2.44875 v -2.1914062 c 0,-0.1171875 0,-0.1523438 -0.1289062,-0.1523438 -0.1054688,0 -0.1054688,0.011719 -0.1640625,0.082031 l -1.8398438,2.261719 v 0.22265625 H 1.9682813 V -0.42175 c 0,0.15234375 0,0.19921875 -0.4335938,0.19921875 H 1.3589063 V 1.25e-4 c 0.234375,-0.01171875 0.5625,-0.0234375 0.8554687,-0.0234375 0.28125,0 0.609375,0.01171875 0.84375,0.0234375 V -0.22253125 H 2.8823438 C 2.44875,-0.22253125 2.44875,-0.26940625 2.44875,-0.42175 V -0.80846875 Z M 2.0151563,-2.8358125 V -1.031125 H 0.5503125 Z m 0,0"
       style="fill:#000000;fill-opacity:1;fill-rule:nonzero;stroke:none"
       aria-label="4"
       transform="matrix(1.3333333,0,0,1.3333333,6.86,63.937333)" />
    <g
       id="g88"
       clip-path="url(#clipPath89)">
      <path
         d="M 0,0 H 100 V 100 H 0 Z"
         transform="matrix(0.27514667,0,0,-0.27514667,164.39063,20.633507)"
         style="fill:url(#radialGradient88);stroke:none"
         id="path88" />
    </g>
    <path
       id="path90"
       d="m 0.97269531,-2.7415391 c 0.26953129,0.058594 0.49218749,0.058594 0.55078129,0.058594 0.3398437,0 0.5859375,-0.09375 0.7148437,-0.1640625 0.1171875,-0.058594 0.4570313,-0.2695313 0.4570313,-0.3867188 0,-0.070312 -0.058594,-0.082031 -0.070312,-0.082031 -0.011719,0 -0.023437,0 -0.070312,0.023437 -0.1992188,0.070312 -0.5039063,0.140625 -0.8320313,0.140625 -0.28125,0 -0.5625,-0.058594 -0.82031249,-0.140625 -0.0585938,-0.023437 -0.0703125,-0.023437 -0.0703125,-0.023437 -0.0703125,0 -0.0703125,0.058594 -0.0703125,0.140625 v 1.4882812 c 0,0.09375 0,0.1523438 0.09375,0.1523438 0.046875,0 0.0585938,-0.011719 0.10546875,-0.058594 0.18750004,-0.2226562 0.44531254,-0.328125 0.78515624,-0.328125 0.2929688,0 0.4453125,0.1640625 0.515625,0.2695313 0.1171875,0.1640625 0.140625,0.3867187 0.140625,0.6328125 0,0.21093749 -0.011719,0.49218749 -0.2109375,0.67968749 -0.2226562,0.234375 -0.5039062,0.24609375 -0.6210937,0.24609375 -0.3164063,0 -0.67968754,-0.140625 -0.84375004,-0.43359375 0.2109375,-0.0117188 0.28125004,-0.1640625 0.28125004,-0.28125 0,-0.15234375 -0.11718754,-0.28124999 -0.28125004,-0.28124999 -0.10546875,0 -0.26953125,0.070312 -0.26953125,0.29296874 0,0.4921875 0.46875,0.90234375 1.12499999,0.90234375 0.7382813,0 1.3476563,-0.4921875 1.3476563,-1.11328129 0,-0.5625 -0.4804688,-1.0898437 -1.171875,-1.0898437 -0.3164063,0 -0.5625,0.082031 -0.78515629,0.2460937 z m 0,0"
       style="fill:#000000;fill-opacity:1;fill-rule:nonzero;stroke:none"
       aria-label="5"
       transform="matrix(1.3333333,0,0,1.3333333,175.88667,9.0186667)" />
    <g
       id="g94"
       clip-path="url(#clipPath95)">
      <path
         d="M 0,0 H 100 V 100 H 0 Z"
         transform="matrix(0.27514667,0,0,-0.27514667,237.51612,164.416)"
         style="fill:url(#radialGradient94);stroke:none"
         id="path94" />
    </g>
    <path
       id="path96"
       d="m 0.92557031,-1.63025 c 0,-0.234375 0.0117188,-0.6328125 0.18749999,-0.9492187 0.1523438,-0.2695313 0.46875,-0.5507813 0.9375,-0.5507813 0.09375,0 0.3164063,0.011719 0.46875,0.1289063 -0.082031,0.023437 -0.2109375,0.09375 -0.2109375,0.2695312 0,0.1523438 0.1171875,0.2578125 0.2578125,0.2578125 0.09375,0 0.2695313,-0.046875 0.2695313,-0.28125 0,-0.2695312 -0.1875,-0.5625 -0.796875,-0.5625 -0.8554688,0 -1.64062504,0.703125 -1.64062504,1.734375 0,1.18359375 0.5859375,1.6875 1.31250004,1.6875 0.4921875,0 0.7265625,-0.17578125 0.890625,-0.31640625 0.3164062,-0.26953125 0.3867187,-0.5625 0.3867187,-0.80859375 0,-0.3046875 -0.09375,-0.5507812 -0.3632812,-0.7734375 -0.2109375,-0.1992187 -0.4453125,-0.3398437 -0.8789063,-0.3398437 -0.28125,0 -0.609375,0.140625 -0.82031249,0.5039062 z m 0.78515629,1.53515625 c -0.77343754,0 -0.77343754,-0.83203125 -0.77343754,-1.03124995 0,-0.3867188 0.28125004,-0.8320313 0.79687504,-0.8320313 0.2578125,0 0.421875,0.058594 0.5742187,0.2578125 0.1523438,0.1875 0.1523438,0.3984375 0.1523438,0.6679688 0,0.2929687 0,0.4804687 -0.1640625,0.67968745 -0.140625,0.1640625 -0.3046875,0.2578125 -0.5859375,0.2578125 z m 0,0"
       style="fill:#000000;fill-opacity:1;fill-rule:nonzero;stroke:none"
       aria-label="6"
       transform="matrix(1.3333333,0,0,1.3333333,249.012,152.79867)" />
    <g
       id="g100"
       clip-path="url(#clipPath101)">
      <path
         d="M 0,0 H 100 V 100 H 0 Z"
         transform="matrix(0.27514667,0,0,-0.27514667,154.3304,276.14688)"
         style="fill:url(#radialGradient100);stroke:none"
         id="path100" />
    </g>
    <path
       id="path102"
       d="m 3.1182813,-2.9887734 c 0.035156,-0.046875 0.035156,-0.058594 0.046875,-0.082031 v -0.140625 H 1.958125 c -0.1289062,0 -0.8554687,-0.011719 -0.9492187,-0.035156 C 0.9034375,-3.2700234 0.89171875,-3.3168984 0.88,-3.3637734 H 0.6690625 l -0.1875,1.1132812 H 0.6925 c 0.0117188,-0.070312 0.0703125,-0.3984375 0.15234375,-0.4453125 0.0234375,-0.023437 0.49218755,-0.035156 0.57421875,-0.035156 h 1.1835938 c -0.2109375,0.2460937 -0.4804688,0.515625 -0.6796875,0.7617187 -0.5859375,0.75 -0.65625,1.46484376 -0.65625,1.76953126 0,0.28125 0.1640625,0.3046875 0.2578125,0.3046875 0.2695312,0 0.2695312,-0.24609375 0.2695312,-0.3046875 v -0.10546875 c 0,-0.89062501 0.1875,-1.42968751 0.4804688,-1.75781251 z m 0,0"
       style="fill:#000000;fill-opacity:1;fill-rule:nonzero;stroke:none"
       aria-label="7"
       transform="matrix(1.3333333,0,0,1.3333333,165.82667,264.528)" />
    <g
       id="g106"
       clip-path="url(#clipPath107)">
      <path
         d="M 0,0 H 100 V 100 H 0 Z"
         transform="matrix(0.27514667,0,0,-0.27514667,24.195413,238.29112)"
         style="fill:url(#radialGradient106);stroke:none"
         id="path106" />
    </g>
    <path
       id="path108"
       d="m 2.1313672,-1.7940625 c 0.515625,-0.2226562 0.6796875,-0.4804687 0.6796875,-0.7617187 0,-0.5273438 -0.5742188,-0.7617188 -1.1132813,-0.7617188 -0.6210937,0 -1.12499996,0.3515625 -1.12499996,0.84375 0,0.4570313 0.38671875,0.6679688 0.65624996,0.796875 -0.52734371,0.2109375 -0.83203121,0.5039063 -0.83203121,0.9140625 0,0.59765625 0.66796871,0.8671875 1.28906251,0.8671875 0.703125,0 1.3007812,-0.375 1.3007812,-0.9609375 0,-0.5390625 -0.515625,-0.796875 -0.8554687,-0.9375 z M 1.1587109,-2.3096875 C 0.94777344,-2.4151562 0.87746094,-2.5440625 0.87746094,-2.66125 c 0,-0.328125 0.41015626,-0.46875 0.80859376,-0.46875 0.3984375,0 0.8203125,0.1992188 0.8203125,0.5742188 0,0.4335937 -0.5742188,0.6445312 -0.5742188,0.6445312 -0.011719,0 -0.011719,0 -0.058594,-0.023437 z m 0.28125,0.75 0.7734375,0.3867188 c 0.1757813,0.09375 0.4335938,0.23437495 0.4335938,0.5039062 0,0.3984375 -0.5039063,0.57421875 -0.9492188,0.57421875 -0.4570312,0 -0.96093746,-0.22265625 -0.96093746,-0.6796875 0,-0.49218745 0.53906246,-0.72656245 0.70312496,-0.78515625 z m 0,0"
       style="fill:#000000;fill-opacity:1;fill-rule:nonzero;stroke:none"
       aria-label="8"
       transform="matrix(1.3333333,0,0,1.3333333,35.693333,226.67333)" />
    <g
       id="g112"
       clip-path="url(#clipPath113)">
      <path
         d="M 0,0 H 100 V 100 H 0 Z"
         transform="matrix(0.27514667,0,0,-0.27514667,18.559733,98.4442)"
         style="fill:url(#radialGradient112);stroke:none"
         id="path112" />
    </g>
    <path
       id="path114"
       d="m 2.4608828,-1.5819375 c 0,0.3164062 -0.023437,0.69140625 -0.1875,0.984375 -0.1640625,0.29296875 -0.4570312,0.50390625 -0.8671875,0.50390625 -0.046875,0 -0.3515625,0 -0.52734374,-0.1171875 C 1.0077578,-0.246 1.0780703,-0.33975 1.0780703,-0.46865625 c 0,-0.1640625 -0.11718749,-0.26953125 -0.25781249,-0.26953125 -0.09375,0 -0.26953125,0.046875 -0.26953125,0.28125 0,0.5625 0.73828124,0.5625 0.86718754,0.5625 0.84375,0 1.5703125,-0.703125 1.5703125,-1.734375 0,-1.2070313 -0.5859375,-1.6875 -1.2773438,-1.6875 -0.4921875,0 -0.73828124,0.1757812 -0.93749999,0.3398437 -0.3046875,0.2578125 -0.375,0.5273438 -0.375,0.7851563 0,0.28125 0.0820313,0.5390625 0.3515625,0.7734375 0.234375,0.2109375 0.46874999,0.3398437 0.89062499,0.3398437 0.1992188,0 0.5625,-0.070312 0.8203125,-0.5039062 z m -0.8085937,0.328125 c -0.1992188,0 -0.3867188,-0.035156 -0.5742188,-0.2578125 -0.15234374,-0.1875 -0.15234374,-0.3867188 -0.15234374,-0.6796875 0,-0.3632813 0.0117188,-0.5039063 0.19921874,-0.703125 0.082031,-0.09375 0.234375,-0.234375 0.5859375,-0.234375 0.7382813,0 0.7382813,0.8203125 0.7382813,1.03125 0,0.421875 -0.2929688,0.84375 -0.796875,0.84375 z m 0,0"
       style="fill:#000000;fill-opacity:1;fill-rule:nonzero;stroke:none"
       aria-label="9"
       transform="matrix(1.3333333,0,0,1.3333333,30.058667,86.828)" />
    <g
       id="g118"
       clip-path="url(#clipPath119)">
      <path
         d="M 0,0 H 100 V 100 H 0 Z"
         transform="matrix(0.34505333,0,0,-0.34505333,146.50968,53.933547)"
         style="fill:url(#radialGradient118);stroke:none"
         id="path118" />
    </g>
    <path
       id="path120"
       d="m 1.9811094,-3.1628984 c 0,-0.1523438 -0.011719,-0.1523438 -0.1757813,-0.1523438 -0.3515625,0.3164063 -0.90234372,0.3164063 -1.00781247,0.3164063 h -0.0820313 v 0.2226562 h 0.0820313 c 0.1171875,0 0.43359377,-0.011719 0.72656247,-0.140625 v 2.48437501 c 0,0.1640625 0,0.2109375 -0.52734372,0.2109375 H 0.75064063 v 0.22265625 c 0.26953127,-0.0234375 0.71484377,-0.0234375 1.00781247,-0.0234375 0.28125,0 0.7265625,0 0.9960938,0.0234375 V -0.22149219 H 2.5084531 c -0.5273437,0 -0.5273437,-0.046875 -0.5273437,-0.2109375 z m 4.3974609,1.5703125 c 0,-0.3632813 0,-1.7226563 -1.2890625,-1.7226563 -1.3007812,0 -1.3007812,1.359375 -1.3007812,1.7226563 0,0.3632812 0,1.69921871 1.3007812,1.69921871 1.2890625,0 1.2890625,-1.33593751 1.2890625,-1.69921871 z m -1.2890625,1.53515621 c -0.1875,0 -0.609375,-0.05859375 -0.7382812,-0.5625 -0.058594,-0.26953125 -0.070312,-0.62109371 -0.070312,-1.03125001 0,-0.375 0,-0.7148437 0.082031,-0.9960937 0.1289063,-0.421875 0.5039063,-0.5039063 0.7265625,-0.5039063 0.3632813,0 0.6210938,0.1875 0.7265625,0.5390625 0.070312,0.2578125 0.070312,0.6679688 0.070312,0.9609375 0,0.3398438 0,0.73828126 -0.070312,1.04296876 -0.1289062,0.48046875 -0.5273437,0.55078125 -0.7265628,0.55078125 z m 0,0"
       style="fill:#000000;fill-opacity:1;fill-rule:nonzero;stroke:none"
       aria-label="10"
       transform="matrix(1.3333333,0,0,1.3333333,159.24133,38.822667)" />
    <g
       id="g124"
       clip-path="url(#clipPath125)">
      <path
         d="M 0,0 H 100 V 100 H 0 Z"
         transform="matrix(0.34505333,0,0,-0.34505333,208.77675,186.38243)"
         style="fill:url(#radialGradient124);stroke:none"
         id="path124" />
    </g>
    <path
       id="path126"
       d="m 1.9803281,-3.1639141 c 0,-0.1523437 -0.011719,-0.1523437 -0.1757812,-0.1523437 -0.3515625,0.3164062 -0.90234377,0.3164062 -1.00781252,0.3164062 h -0.0820313 v 0.2226563 h 0.0820313 c 0.1171875,0 0.43359372,-0.011719 0.72656252,-0.140625 v 2.48437499 c 0,0.1640625 0,0.2109375 -0.52734377,0.2109375 H 0.74985938 V 1.484375e-4 C 1.0193906,-0.02328906 1.4647031,-0.02328906 1.7576719,-0.02328906 c 0.28125,0 0.7265625,0 0.9960937,0.0234374975 V -0.22250781 H 2.5076719 c -0.5273438,0 -0.5273438,-0.046875 -0.5273438,-0.2109375 z m 3.3896485,0 c 0,-0.1523437 -0.011719,-0.1523437 -0.1757813,-0.1523437 -0.3515625,0.3164062 -0.9023437,0.3164062 -1.0078125,0.3164062 h -0.082031 v 0.2226563 h 0.082031 c 0.1171875,0 0.4335938,-0.011719 0.7265625,-0.140625 v 2.48437499 c 0,0.1640625 0,0.2109375 -0.5273437,0.2109375 H 4.1395078 V 1.484375e-4 C 4.4090391,-0.02328906 4.8543516,-0.02328906 5.1473203,-0.02328906 c 0.28125,0 0.7265625,0 0.9960938,0.0234374975 V -0.22250781 H 5.8973203 c -0.5273437,0 -0.5273437,-0.046875 -0.5273437,-0.2109375 z m 0,0"
       style="fill:#000000;fill-opacity:1;fill-rule:nonzero;stroke:none"
       aria-label="11"
       transform="matrix(1.3333333,0,0,1.3333333,221.508,171.26933)" />
    <g
       id="g130"
       clip-path="url(#clipPath131)">
      <path
         d="M 0,0 H 100 V 100 H 0 Z"
         transform="matrix(0.34505333,0,0,-0.34505333,42.22316,229.03641)"
         style="fill:url(#radialGradient130);stroke:none"
         id="path130" />
    </g>
    <path
       id="path132"
       d="M 1.9812422,-3.1646562 C 1.9812422,-3.317 1.9695234,-3.317 1.8054609,-3.317 1.4538984,-3.0005937 0.90311719,-3.0005937 0.79764844,-3.0005937 h -0.0820313 v 0.2226562 h 0.0820313 c 0.1171875,0 0.43359376,-0.011719 0.72656246,-0.140625 v 2.484375 c 0,0.1640625 0,0.2109375 -0.52734371,0.2109375 H 0.75077344 v 0.22265625 c 0.26953126,-0.0234375 0.71484376,-0.0234375 1.00781246,-0.0234375 0.28125,0 0.7265625,0 0.9960938,0.0234375 V -0.22325 H 2.5085859 c -0.5273437,0 -0.5273437,-0.046875 -0.5273437,-0.2109375 z m 4.3388672,2.20312495 H 6.1091719 c -0.011719,0.09375 -0.058594,0.3984375 -0.140625,0.45703125 -0.035156,0.0234375 -0.4570313,0.0234375 -0.5273438,0.0234375 h -0.984375 c 0.328125,-0.24609375 0.703125,-0.515625 0.9960938,-0.7148437 0.4570312,-0.3164063 0.8671875,-0.5976563 0.8671875,-1.125 0,-0.6445313 -0.5976563,-0.9960938 -1.3125,-0.9960938 -0.6679688,0 -1.1601563,0.3867188 -1.1601563,0.8789063 0,0.2578125 0.2109375,0.3046875 0.28125,0.3046875 0.140625,0 0.2929688,-0.09375 0.2929688,-0.2929688 0,-0.1875 -0.1289063,-0.28125 -0.28125,-0.2929687 0.140625,-0.234375 0.4335937,-0.375 0.7617187,-0.375 0.4804688,0 0.890625,0.28125 0.890625,0.7734375 0,0.421875 -0.2929687,0.7382812 -0.6796875,1.0546875 l -1.2070312,1.03124995 c -0.046875,0.046875 -0.058594,0.046875 -0.058594,0.0820313 V -5.937e-4 h 2.3085938 z m 0,0"
       style="fill:#000000;fill-opacity:1;fill-rule:nonzero;stroke:none"
       aria-label="12"
       transform="matrix(1.3333333,0,0,1.3333333,54.956,213.92267)" />
    <g
       id="g136"
       clip-path="url(#clipPath137)">
      <path
         d="M 0,0 H 100 V 100 H 0 Z"
         transform="matrix(0.34505333,0,0,-0.34505333,34.0522,118.9296)"
         style="fill:url(#radialGradient136);stroke:none"
         id="path136" />
    </g>
    <path
       id="path138"
       d="m 1.9803359,-3.1647578 c 0,-0.1523438 -0.011719,-0.1523438 -0.1757812,-0.1523438 -0.3515625,0.3164063 -0.90234376,0.3164063 -1.00781251,0.3164063 h -0.0820313 v 0.2226562 h 0.0820313 c 0.1171875,0 0.43359371,-0.011719 0.72656251,-0.140625 v 2.48437504 c 0,0.1640625 0,0.2109375 -0.52734376,0.2109375 H 0.74986719 V -6.953125e-4 C 1.0193984,-0.02413281 1.4647109,-0.02413281 1.7576797,-0.02413281 c 0.28125,0 0.7265625,0 0.9960937,0.0234374975 V -0.22335156 H 2.5076797 c -0.5273438,0 -0.5273438,-0.046875 -0.5273438,-0.2109375 z m 3.0498047,1.5117187 c 0.4570313,0 0.7617188,0.2929688 0.7617188,0.78515629 0,0.50390625 -0.3046875,0.7734375 -0.75,0.7734375 -0.058594,0 -0.65625,0 -0.9023438,-0.2578125 0.1992188,-0.0351563 0.2578125,-0.1875 0.2578125,-0.3046875 0,-0.1875 -0.140625,-0.3046875 -0.3046875,-0.3046875 -0.1523437,0 -0.3046875,0.10546875 -0.3046875,0.31640625 0,0.515625 0.5859375,0.75 1.265625,0.75 0.8203125,0 1.3242188,-0.4921875 1.3242188,-0.97265625 0,-0.41015629 -0.3632813,-0.76171879 -0.9257813,-0.89062499 0.5976563,-0.1875 0.75,-0.5625 0.75,-0.84375 0,-0.4101563 -0.5039062,-0.7148438 -1.1367187,-0.7148438 -0.609375,0 -1.1015625,0.2578125 -1.1015625,0.703125 0,0.234375 0.1875,0.2929688 0.28125,0.2929688 0.140625,0 0.28125,-0.1054688 0.28125,-0.28125 0,-0.1171875 -0.058594,-0.2578125 -0.234375,-0.28125 0.2109375,-0.234375 0.65625,-0.2460938 0.7617187,-0.2460938 0.3632813,0 0.6210938,0.1875 0.6210938,0.5273438 0,0.28125 -0.1875,0.7382812 -0.7148438,0.7734375 -0.140625,0 -0.1523437,0 -0.28125,0.011719 -0.058594,0 -0.1171875,0.011719 -0.1171875,0.082031 0,0.082031 0.058594,0.082031 0.140625,0.082031 z m 0,0"
       style="fill:#000000;fill-opacity:1;fill-rule:nonzero;stroke:none"
       aria-label="13"
       transform="matrix(1.3333333,0,0,1.3333333,46.785333,103.81733)" />
    <g
       id="g142"
       clip-path="url(#clipPath143)">
      <path
         d="M 0,0 H 100 V 100 H 0 Z"
         transform="matrix(0.34505333,0,0,-0.34505333,136.02493,75.35976)"
         style="fill:url(#radialGradient142);stroke:none"
         id="path142" />
    </g>
    <path
       id="path144"
       d="m 1.9808281,-3.1654922 c 0,-0.1523437 -0.011719,-0.1523437 -0.1757812,-0.1523437 -0.3515625,0.3164062 -0.90234377,0.3164062 -1.00781252,0.3164062 h -0.0820313 v 0.2226563 h 0.0820313 c 0.1171875,0 0.43359372,-0.011719 0.72656252,-0.140625 v 2.48437496 c 0,0.1640625 0,0.2109375 -0.52734377,0.2109375 H 0.75035938 v 0.22265625 c 0.26953122,-0.0234375 0.71484372,-0.0234375 1.00781252,-0.0234375 0.28125,0 0.7265625,0 0.9960937,0.0234375 V -0.22408594 H 2.5081719 c -0.5273438,0 -0.5273438,-0.046875 -0.5273438,-0.2109375 z m 4.4794922,2.35546876 V -1.0326797 H 5.8392266 v -2.1914062 c 0,-0.1171875 0,-0.1523438 -0.1289063,-0.1523438 -0.1054687,0 -0.1054687,0.011719 -0.1640625,0.082031 L 3.7064141,-1.03268 v 0.22265626 h 1.6523437 v 0.38671875 c 0,0.15234375 0,0.19921875 -0.4335937,0.19921875 H 4.7493828 v 0.22265625 c 0.234375,-0.01171875 0.5625,-0.0234375 0.8554688,-0.0234375 0.28125,0 0.609375,0.01171875 0.84375,0.0234375 V -0.22408594 H 6.2728203 c -0.4335937,0 -0.4335937,-0.046875 -0.4335937,-0.19921875 V -0.81002344 Z M 5.4056328,-2.8373672 v 1.8046875 H 3.9407891 Z m 0,0"
       style="fill:#000000;fill-opacity:1;fill-rule:nonzero;stroke:none"
       aria-label="14"
       transform="matrix(1.3333333,0,0,1.3333333,148.75733,60.248)" />
    <g
       id="g148"
       clip-path="url(#clipPath149)">
      <path
         d="M 0,0 H 100 V 100 H 0 Z"
         transform="matrix(0.34505333,0,0,-0.34505333,208.05468,148.76439)"
         style="fill:url(#radialGradient148);stroke:none"
         id="path148" />
    </g>
    <path
       id="path150"
       d="m 1.9803359,-3.1638047 c 0,-0.1523437 -0.011719,-0.1523437 -0.1757812,-0.1523437 -0.3515625,0.3164062 -0.90234376,0.3164062 -1.00781251,0.3164062 h -0.0820313 v 0.2226563 h 0.0820313 c 0.1171875,0 0.43359371,-0.011719 0.72656251,-0.140625 v 2.48437496 c 0,0.1640625 0,0.2109375 -0.52734376,0.2109375 H 0.74986719 V 2.578125e-4 C 1.0193984,-0.02317969 1.4647109,-0.02317969 1.7576797,-0.02317969 c 0.28125,0 0.7265625,0 0.9960937,0.0234375025 V -0.22239844 H 2.5076797 c -0.5273438,0 -0.5273438,-0.046875 -0.5273438,-0.2109375 z m 2.381836,0.421875 c 0.2695312,0.058594 0.4921875,0.058594 0.5507812,0.058594 0.3398438,0 0.5859375,-0.09375 0.7148438,-0.1640625 0.1171875,-0.058594 0.4570312,-0.2695313 0.4570312,-0.3867188 0,-0.070312 -0.058594,-0.082031 -0.070312,-0.082031 -0.011719,0 -0.023437,0 -0.070312,0.023437 -0.1992187,0.070312 -0.5039062,0.140625 -0.8320312,0.140625 -0.28125,0 -0.5625,-0.058594 -0.8203125,-0.140625 -0.058594,-0.023437 -0.070312,-0.023437 -0.070312,-0.023437 -0.070312,0 -0.070312,0.058594 -0.070312,0.140625 v 1.4882812 c 0,0.09375 0,0.1523438 0.09375,0.1523438 0.046875,0 0.058594,-0.011719 0.1054687,-0.058594 0.1875,-0.2226562 0.4453125,-0.328125 0.7851563,-0.328125 0.2929687,0 0.4453125,0.1640625 0.515625,0.2695313 0.1171875,0.1640625 0.140625,0.3867187 0.140625,0.6328125 0,0.21093746 -0.011719,0.49218746 -0.2109375,0.67968746 -0.2226563,0.234375 -0.5039063,0.24609375 -0.6210938,0.24609375 -0.3164062,0 -0.6796875,-0.140625 -0.84375,-0.43359375 0.2109375,-0.0117188 0.28125,-0.1640625 0.28125,-0.28125 0,-0.15234375 -0.1171875,-0.28124996 -0.28125,-0.28124996 -0.1054687,0 -0.2695312,0.070312 -0.2695312,0.29296871 0,0.4921875 0.46875,0.90234375 1.125,0.90234375 0.7382812,0 1.3476562,-0.4921875 1.3476562,-1.11328126 0,-0.5625 -0.4804687,-1.0898437 -1.171875,-1.0898437 -0.3164062,0 -0.5625,0.082031 -0.7851562,0.2460937 z m 0,0"
       style="fill:#000000;fill-opacity:1;fill-rule:nonzero;stroke:none"
       aria-label="15"
       transform="matrix(1.3333333,0,0,1.3333333,220.78533,133.652)" />
    <g
       id="g154"
       clip-path="url(#clipPath155)">
      <path
         d="M 0,0 H 100 V 100 H 0 Z"
         transform="matrix(0.34505333,0,0,-0.34505333,183.68488,187.13904)"
         style="fill:url(#radialGradient154);stroke:none"
         id="path154" />
    </g>
    <path
       id="path156"
       d="m 1.9790156,-3.1635547 c 0,-0.1523437 -0.011719,-0.1523437 -0.1757812,-0.1523437 -0.3515625,0.3164062 -0.90234378,0.3164062 -1.00781253,0.3164062 h -0.0820313 v 0.2226563 h 0.0820313 c 0.1171875,0 0.43359373,-0.011719 0.72656253,-0.140625 v 2.48437496 c 0,0.1640625 0,0.2109375 -0.52734378,0.2109375 H 0.74854687 V 5.078125e-4 C 1.0180781,-0.02292969 1.4633906,-0.02292969 1.7563594,-0.02292969 c 0.28125,0 0.7265625,0 0.9960937,0.0234375025 V -0.22214844 H 2.5063594 c -0.5273438,0 -0.5273438,-0.046875 -0.5273438,-0.2109375 z m 2.3378906,1.5351563 c 0,-0.234375 0.011719,-0.6328125 0.1875,-0.9492188 0.1523438,-0.2695312 0.46875,-0.5507812 0.9375,-0.5507812 0.09375,0 0.3164063,0.011719 0.46875,0.1289062 -0.082031,0.023437 -0.2109375,0.09375 -0.2109375,0.2695313 0,0.1523437 0.1171875,0.2578125 0.2578125,0.2578125 0.09375,0 0.2695313,-0.046875 0.2695313,-0.28125 0,-0.2695313 -0.1875,-0.5625 -0.796875,-0.5625 -0.8554688,0 -1.640625,0.703125 -1.640625,1.734375 0,1.18359371 0.5859375,1.68749996 1.3125,1.68749996 0.4921875,0 0.7265625,-0.17578125 0.890625,-0.31640625 0.3164062,-0.26953125 0.3867187,-0.5625 0.3867187,-0.80859371 0,-0.3046875 -0.09375,-0.5507813 -0.3632812,-0.7734375 -0.2109375,-0.1992188 -0.4453125,-0.3398438 -0.8789063,-0.3398438 -0.28125,0 -0.609375,0.140625 -0.8203125,0.5039063 z m 0.7851563,1.53515621 c -0.7734375,0 -0.7734375,-0.83203125 -0.7734375,-1.03125001 0,-0.3867187 0.28125,-0.8320312 0.796875,-0.8320312 0.2578125,0 0.421875,0.058594 0.5742187,0.2578125 0.1523438,0.1875 0.1523438,0.3984375 0.1523438,0.6679687 0,0.29296876 0,0.48046876 -0.1640625,0.67968751 -0.140625,0.1640625 -0.3046875,0.2578125 -0.5859375,0.2578125 z m 0,0"
       style="fill:#000000;fill-opacity:1;fill-rule:nonzero;stroke:none"
       aria-label="16"
       transform="matrix(1.3333333,0,0,1.3333333,196.416,172.02667)" />
    <g
       id="g160"
       clip-path="url(#clipPath161)">
      <path
         d="M 0,0 H 100 V 100 H 0 Z"
         transform="matrix(0.34505333,0,0,-0.34505333,64.54672,208.1108)"
         style="fill:url(#radialGradient160);stroke:none"
         id="path160" />
    </g>
    <path
       id="path162"
       d="m 1.9814063,-3.1649922 c 0,-0.1523437 -0.011719,-0.1523437 -0.1757813,-0.1523437 -0.3515625,0.3164062 -0.90234375,0.3164062 -1.0078125,0.3164062 H 0.7157812 v 0.2226563 h 0.0820313 c 0.1171875,0 0.4335938,-0.011719 0.7265625,-0.140625 v 2.48437496 c 0,0.1640625 0,0.2109375 -0.52734375,0.2109375 H 0.7509375 V -9.296875e-4 C 1.0204688,-0.02436719 1.4657813,-0.02436719 1.75875,-0.02436719 c 0.28125,0 0.7265625,0 0.9960938,0.0234375025 V -0.22358594 H 2.50875 c -0.5273437,0 -0.5273437,-0.046875 -0.5273437,-0.2109375 z m 4.5263671,0.1757813 c 0.035156,-0.046875 0.035156,-0.058594 0.046875,-0.082031 v -0.140625 H 5.3476172 c -0.1289063,0 -0.8554688,-0.011719 -0.9492188,-0.035156 -0.1054687,-0.023437 -0.1171875,-0.070312 -0.1289062,-0.1171875 H 4.0585547 l -0.1875,1.1132812 h 0.2109375 c 0.011719,-0.070312 0.070312,-0.3984375 0.1523437,-0.4453125 0.023437,-0.023437 0.4921875,-0.035156 0.5742188,-0.035156 h 1.1835937 c -0.2109375,0.2460937 -0.4804687,0.515625 -0.6796875,0.7617187 -0.5859375,0.75 -0.65625,1.46484376 -0.65625,1.76953126 0,0.28125 0.1640625,0.3046875 0.2578125,0.3046875 0.2695313,0 0.2695313,-0.24609375 0.2695313,-0.3046875 v -0.10546875 c 0,-0.89062501 0.1875,-1.42968751 0.4804687,-1.75781251 z m 0,0"
       style="fill:#000000;fill-opacity:1;fill-rule:nonzero;stroke:none"
       aria-label="17"
       transform="matrix(1.3333333,0,0,1.3333333,77.28,192.99733)" />
    <g
       id="g166"
       clip-path="url(#clipPath167)">
      <path
         d="M 0,0 H 100 V 100 H 0 Z"
         transform="matrix(0.34505333,0,0,-0.34505333,49.57516,131.4236)"
         style="fill:url(#radialGradient166);stroke:none"
         id="path166" />
    </g>
    <path
       id="path168"
       d="m 1.9809141,-3.1636875 c 0,-0.1523437 -0.011719,-0.1523437 -0.1757813,-0.1523437 C 1.4535703,-2.999625 0.90278906,-2.999625 0.79732031,-2.999625 h -0.0820313 v 0.2226563 h 0.0820313 c 0.1171875,0 0.43359379,-0.011719 0.72656249,-0.140625 v 2.48437495 c 0,0.1640625 0,0.2109375 -0.52734374,0.2109375 H 0.75044531 V 3.75e-4 C 1.0199766,-0.0230625 1.4652891,-0.0230625 1.7582578,-0.0230625 c 0.28125,0 0.7265625,0 0.9960938,0.0234375 V -0.22228125 H 2.5082578 c -0.5273437,0 -0.5273437,-0.046875 -0.5273437,-0.2109375 z m 3.5419922,1.3710938 c 0.515625,-0.2226563 0.6796875,-0.4804688 0.6796875,-0.7617188 0,-0.5273437 -0.5742188,-0.7617187 -1.1132813,-0.7617187 -0.6210937,0 -1.125,0.3515625 -1.125,0.84375 0,0.4570312 0.3867188,0.6679687 0.65625,0.796875 -0.5273437,0.2109375 -0.8320312,0.5039062 -0.8320312,0.91406245 0,0.59765625 0.6679687,0.8671875 1.2890625,0.8671875 0.703125,0 1.3007812,-0.375 1.3007812,-0.9609375 0,-0.53906245 -0.515625,-0.79687495 -0.8554687,-0.93749995 z M 4.55025,-2.3082187 C 4.3393125,-2.4136875 4.269,-2.5425937 4.269,-2.6597812 c 0,-0.328125 0.4101563,-0.46875 0.8085938,-0.46875 0.3984375,0 0.8203125,0.1992187 0.8203125,0.5742187 0,0.4335938 -0.5742188,0.6445313 -0.5742188,0.6445313 -0.011719,0 -0.011719,0 -0.058594,-0.023437 z m 0.28125,0.75 0.7734375,0.3867187 c 0.1757813,0.09375 0.4335938,0.234375 0.4335938,0.50390625 0,0.3984375 -0.5039063,0.57421875 -0.9492188,0.57421875 -0.4570312,0 -0.9609375,-0.22265625 -0.9609375,-0.6796875 0,-0.4921875 0.5390625,-0.7265625 0.703125,-0.7851562 z m 0,0"
       style="fill:#000000;fill-opacity:1;fill-rule:nonzero;stroke:none"
       aria-label="18"
       transform="matrix(1.3333333,0,0,1.3333333,62.308,116.312)" />
    <g
       id="g172"
       clip-path="url(#clipPath173)">
      <path
         d="M 0,0 H 100 V 100 H 0 Z"
         transform="matrix(0.34505333,0,0,-0.34505333,129.36503,92.11688)"
         style="fill:url(#radialGradient172);stroke:none"
         id="path172" />
    </g>
    <path
       id="path174"
       d="m 1.9807109,-3.1651328 c 0,-0.1523438 -0.011719,-0.1523438 -0.1757812,-0.1523438 -0.3515625,0.3164063 -0.90234376,0.3164063 -1.00781251,0.3164063 h -0.0820313 v 0.2226562 h 0.0820313 c 0.1171875,0 0.43359371,-0.011719 0.72656251,-0.140625 v 2.48437504 c 0,0.1640625 0,0.2109375 -0.52734376,0.2109375 H 0.75024219 v 0.22265625 c 0.26953121,-0.0234375 0.71484371,-0.0234375 1.00781251,-0.0234375 0.28125,0 0.7265625,0 0.9960937,0.0234375 V -0.22372656 H 2.5080547 c -0.5273438,0 -0.5273438,-0.046875 -0.5273438,-0.2109375 z m 3.8701172,1.5820312 c 0,0.3164063 -0.023437,0.69140629 -0.1875,0.98437504 -0.1640625,0.29296875 -0.4570312,0.50390625 -0.8671875,0.50390625 -0.046875,0 -0.3515625,0 -0.5273437,-0.1171875 0.1289062,-0.0351563 0.1992187,-0.12890625 0.1992187,-0.2578125 0,-0.1640625 -0.1171875,-0.26953125 -0.2578125,-0.26953125 -0.09375,0 -0.2695312,0.046875 -0.2695312,0.28125 0,0.5625 0.7382812,0.5625 0.8671875,0.5625 0.84375,0 1.5703125,-0.703125 1.5703125,-1.73437504 0,-1.2070312 -0.5859375,-1.6875 -1.2773438,-1.6875 -0.4921875,0 -0.7382812,0.1757813 -0.9375,0.3398438 -0.3046875,0.2578125 -0.375,0.5273437 -0.375,0.7851562 0,0.28125 0.082031,0.5390625 0.3515625,0.7734375 0.234375,0.2109375 0.46875,0.3398438 0.890625,0.3398438 0.1992188,0 0.5625,-0.070312 0.8203125,-0.5039063 z m -0.8085937,0.328125 c -0.1992188,0 -0.3867188,-0.035156 -0.5742188,-0.2578125 -0.1523437,-0.1875 -0.1523437,-0.3867187 -0.1523437,-0.6796875 0,-0.3632812 0.011719,-0.5039062 0.1992187,-0.703125 0.082031,-0.09375 0.234375,-0.234375 0.5859375,-0.234375 0.7382813,0 0.7382813,0.8203125 0.7382813,1.03125 0,0.421875 -0.2929688,0.84375 -0.796875,0.84375 z m 0,0"
       style="fill:#000000;fill-opacity:1;fill-rule:nonzero;stroke:none"
       aria-label="19"
       transform="matrix(1.3333333,0,0,1.3333333,142.09733,77.005333)" />
    <g
       id="g178"
       clip-path="url(#clipPath179)">
      <path
         d="M 0,0 H 100 V 100 H 0 Z"
         transform="matrix(0.34505333,0,0,-0.34505333,193.5952,143.50929)"
         style="fill:url(#radialGradient178);stroke:none"
         id="path178" />
    </g>
    <path
       id="path180"
       d="M 2.9307812,-0.96010937 H 2.7198437 c -0.011719,0.09375 -0.058594,0.3984375 -0.140625,0.45703125 -0.035156,0.0234375 -0.4570312,0.0234375 -0.5273437,0.0234375 H 1.0675 c 0.328125,-0.24609375 0.703125,-0.515625 0.9960937,-0.71484378 0.4570313,-0.3164062 0.8671875,-0.5976562 0.8671875,-1.125 0,-0.6445312 -0.5976562,-0.9960937 -1.3125,-0.9960937 -0.6679687,0 -1.1601562,0.3867187 -1.1601562,0.8789062 0,0.2578125 0.2109375,0.3046875 0.28125,0.3046875 0.140625,0 0.2929687,-0.09375 0.2929687,-0.2929687 0,-0.1875 -0.1289062,-0.28125 -0.28124995,-0.2929688 0.140625,-0.234375 0.43359375,-0.375 0.76171875,-0.375 0.4804687,0 0.890625,0.28125 0.890625,0.7734375 0,0.421875 -0.2929688,0.7382813 -0.6796875,1.0546875 l -1.20703125,1.03125003 c -0.046875,0.046875 -0.0585938,0.046875 -0.0585938,0.0820313 V 8.28125e-4 H 2.7667187 Z M 6.3790234,-1.5929219 c 0,-0.3632812 0,-1.7226562 -1.2890625,-1.7226562 -1.3007812,0 -1.3007812,1.359375 -1.3007812,1.7226562 0,0.3632813 0,1.69921878 1.3007812,1.69921878 1.2890625,0 1.2890625,-1.33593748 1.2890625,-1.69921878 z m -1.2890625,1.53515628 c -0.1875,0 -0.609375,-0.05859375 -0.7382812,-0.5625 -0.058594,-0.26953125 -0.070312,-0.62109378 -0.070312,-1.03124998 0,-0.375 0,-0.7148438 0.082031,-0.9960938 0.1289063,-0.421875 0.5039063,-0.5039062 0.7265625,-0.5039062 0.3632813,0 0.6210938,0.1875 0.7265625,0.5390625 0.070312,0.2578125 0.070312,0.6679687 0.070312,0.9609375 0,0.3398437 0,0.73828123 -0.070312,1.04296873 -0.1289062,0.48046875 -0.5273437,0.55078125 -0.7265628,0.55078125 z m 0,0"
       style="fill:#000000;fill-opacity:1;fill-rule:nonzero;stroke:none"
       aria-label="20"
       transform="matrix(1.3333333,0,0,1.3333333,206.32667,128.39733)" />
  </g>
</svg>
