<?xml version="1.0" encoding="UTF-8"?>
<svg xmlns="http://www.w3.org/2000/svg" xmlns:xlink="http://www.w3.org/1999/xlink" width="65.627pt" height="62.306pt" viewBox="0 0 65.627 62.306" version="1.2">
<defs>
<clipPath id="clip1">
  <path d="M 0.175781 56 L 6 56 L 6 61.621094 L 0.175781 61.621094 Z M 0.175781 56 "/>
</clipPath>
<clipPath id="clip2">
  <path d="M 56 56 L 62 56 L 62 61.621094 L 56 61.621094 Z M 56 56 "/>
</clipPath>
<clipPath id="clip3">
  <path d="M 0.175781 0 L 36 0 L 36 61.621094 L 0.175781 61.621094 Z M 0.175781 0 "/>
</clipPath>
<clipPath id="clip4">
  <path d="M 0.175781 27 L 35 27 L 35 61.621094 L 0.175781 61.621094 Z M 0.175781 27 "/>
</clipPath>
<clipPath id="clip5">
  <path d="M 26 0 L 64 0 L 64 61.621094 L 26 61.621094 Z M 26 0 "/>
</clipPath>
<clipPath id="clip6">
  <path d="M 27 27 L 63 27 L 63 61.621094 L 27 61.621094 Z M 27 27 "/>
</clipPath>
</defs>
<g id="surface1">
<g clip-path="url(#clip1)" clip-rule="nonzero">
<path style=" stroke:none;fill-rule:nonzero;fill:rgb(0%,0%,0%);fill-opacity:1;" d="M 5.726562 58.84375 C 5.726562 57.3125 4.484375 56.070312 2.953125 56.070312 C 1.417969 56.070312 0.175781 57.3125 0.175781 58.84375 C 0.175781 60.378906 1.417969 61.621094 2.953125 61.621094 C 4.484375 61.621094 5.726562 60.378906 5.726562 58.84375 Z M 5.726562 58.84375 "/>
</g>
<g clip-path="url(#clip2)" clip-rule="nonzero">
<path style=" stroke:none;fill-rule:nonzero;fill:rgb(0%,0%,0%);fill-opacity:1;" d="M 61.796875 58.84375 C 61.796875 57.3125 60.554688 56.070312 59.019531 56.070312 C 57.488281 56.070312 56.246094 57.3125 56.246094 58.84375 C 56.246094 60.378906 57.488281 61.621094 59.019531 61.621094 C 60.554688 61.621094 61.796875 60.378906 61.796875 58.84375 Z M 61.796875 58.84375 "/>
</g>
<path style=" stroke:none;fill-rule:nonzero;fill:rgb(0%,0%,0%);fill-opacity:1;" d="M 33.761719 2.777344 C 33.761719 1.242188 32.519531 0 30.988281 0 C 29.453125 0 28.210938 1.242188 28.210938 2.777344 C 28.210938 4.308594 29.453125 5.550781 30.988281 5.550781 C 32.519531 5.550781 33.761719 4.308594 33.761719 2.777344 Z M 33.761719 2.777344 "/>
<path style=" stroke:none;fill-rule:nonzero;fill:rgb(0%,0%,0%);fill-opacity:1;" d="M 33.761719 30.808594 C 33.761719 29.277344 32.519531 28.035156 30.988281 28.035156 C 29.453125 28.035156 28.210938 29.277344 28.210938 30.808594 C 28.210938 32.34375 29.453125 33.585938 30.988281 33.585938 C 32.519531 33.585938 33.761719 32.34375 33.761719 30.808594 Z M 33.761719 30.808594 "/>
<path style="fill:none;stroke-width:0.3985;stroke-linecap:butt;stroke-linejoin:miter;stroke:rgb(0%,0%,0%);stroke-opacity:1;stroke-miterlimit:10;" d="M 3.00679 0.000814528 L 53.686162 0.000814528 " transform="matrix(0.988984,0,0,-0.988984,2.952113,58.844556)"/>
<g clip-path="url(#clip3)" clip-rule="nonzero">
<path style="fill:none;stroke-width:0.3985;stroke-linecap:butt;stroke-linejoin:miter;stroke:rgb(0%,0%,0%);stroke-opacity:1;stroke-miterlimit:10;" d="M 27.001583 54.005884 L 1.343941 2.686651 " transform="matrix(0.988984,0,0,-0.988984,2.952113,58.844556)"/>
</g>
<path style="fill:none;stroke-width:0.3985;stroke-linecap:butt;stroke-linejoin:miter;stroke:rgb(0%,0%,0%);stroke-opacity:1;stroke-miterlimit:10;" d="M 28.348451 31.35401 L 28.348451 53.689903 " transform="matrix(0.988984,0,0,-0.988984,2.952113,58.844556)"/>
<g clip-path="url(#clip4)" clip-rule="nonzero">
<path style="fill:none;stroke-width:0.3985;stroke-linecap:butt;stroke-linejoin:miter;stroke:rgb(0%,0%,0%);stroke-opacity:1;stroke-miterlimit:10;" d="M 2.125994 2.125785 L 26.21953 26.223272 " transform="matrix(0.988984,0,0,-0.988984,2.952113,58.844556)"/>
</g>
<g clip-path="url(#clip5)" clip-rule="nonzero">
<path style="fill:none;stroke-width:0.3985;stroke-linecap:butt;stroke-linejoin:miter;stroke:rgb(0%,0%,0%);stroke-opacity:1;stroke-miterlimit:10;" d="M 55.349011 2.686651 L 29.691369 54.005884 " transform="matrix(0.988984,0,0,-0.988984,2.952113,58.844556)"/>
</g>
<g clip-path="url(#clip6)" clip-rule="nonzero">
<path style="fill:none;stroke-width:0.3985;stroke-linecap:butt;stroke-linejoin:miter;stroke:rgb(0%,0%,0%);stroke-opacity:1;stroke-miterlimit:10;" d="M 54.566958 2.125785 L 30.473422 26.223272 " transform="matrix(0.988984,0,0,-0.988984,2.952113,58.844556)"/>
</g>
</g>
</svg>
