<?xml version="1.0" encoding="UTF-8"?>
<svg xmlns="http://www.w3.org/2000/svg" xmlns:xlink="http://www.w3.org/1999/xlink" width="84.547pt" height="66.854pt" viewBox="0 0 84.547 66.854" version="1.2">
<g id="surface1">
<path style="fill-rule:nonzero;fill:rgb(100%,96.939087%,40.000916%);fill-opacity:1;stroke-width:0.3985;stroke-linecap:butt;stroke-linejoin:round;stroke:rgb(0%,0%,0%);stroke-opacity:1;stroke-miterlimit:10;" d="M 0.000719851 -0.00065295 L 0.000719851 42.51892 L -42.518853 -0.00065295 Z M 0.000719851 -0.00065295 " transform="matrix(0.994671,0,0,-0.994671,49.09694,49.202476)"/>
<path style="fill-rule:nonzero;fill:rgb(100%,96.939087%,40.000916%);fill-opacity:1;stroke-width:0.3985;stroke-linecap:butt;stroke-linejoin:round;stroke:rgb(0%,0%,0%);stroke-opacity:1;stroke-miterlimit:10;" d="M 0.000719851 -0.00065295 L 0.000719851 42.51892 L 28.347102 -14.173844 Z M 0.000719851 -0.00065295 L 0.000719851 42.51892 L -17.007895 -14.173844 Z M 0.000719851 -0.00065295 " transform="matrix(0.994671,0,0,-0.994671,49.09694,49.202476)"/>
<path style="fill:none;stroke-width:0.3985;stroke-linecap:butt;stroke-linejoin:round;stroke:rgb(0%,0%,0%);stroke-opacity:1;stroke-dasharray:2.98883,2.98883;stroke-miterlimit:10;" d="M 0.000719851 -0.00065295 L -42.518853 -0.00065295 " transform="matrix(0.994671,0,0,-0.994671,49.09694,49.202476)"/>
<path style="fill:none;stroke-width:0.3985;stroke-linecap:butt;stroke-linejoin:round;stroke:rgb(0%,0%,0%);stroke-opacity:1;stroke-miterlimit:10;" d="M 0.000719851 -0.00065295 L 0.000719851 42.51892 " transform="matrix(0.994671,0,0,-0.994671,49.09694,49.202476)"/>
<path style=" stroke:none;fill-rule:nonzero;fill:rgb(0%,0%,100%);fill-opacity:1;" d="M 79.273438 63.300781 C 79.273438 62.207031 78.386719 61.320312 77.292969 61.320312 C 76.199219 61.320312 75.3125 62.207031 75.3125 63.300781 C 75.3125 64.394531 76.199219 65.28125 77.292969 65.28125 C 78.386719 65.28125 79.273438 64.394531 79.273438 63.300781 Z M 79.273438 63.300781 "/>
<path style=" stroke:none;fill-rule:nonzero;fill:rgb(0%,0%,100%);fill-opacity:1;" d="M 34.160156 63.300781 C 34.160156 62.207031 33.273438 61.320312 32.179688 61.320312 C 31.085938 61.320312 30.199219 62.207031 30.199219 63.300781 C 30.199219 64.394531 31.085938 65.28125 32.179688 65.28125 C 33.273438 65.28125 34.160156 64.394531 34.160156 63.300781 Z M 34.160156 63.300781 "/>
<path style=" stroke:none;fill-rule:nonzero;fill:rgb(0%,0%,100%);fill-opacity:1;" d="M 8.785156 49.203125 C 8.785156 48.109375 7.898438 47.21875 6.804688 47.21875 C 5.707031 47.21875 4.820312 48.109375 4.820312 49.203125 C 4.820312 50.296875 5.707031 51.183594 6.804688 51.183594 C 7.898438 51.183594 8.785156 50.296875 8.785156 49.203125 Z M 8.785156 49.203125 "/>
<path style=" stroke:none;fill-rule:nonzero;fill:rgb(0%,0%,100%);fill-opacity:1;" d="M 51.078125 49.203125 C 51.078125 48.109375 50.191406 47.21875 49.097656 47.21875 C 48.003906 47.21875 47.113281 48.109375 47.113281 49.203125 C 47.113281 50.296875 48.003906 51.183594 49.097656 51.183594 C 50.191406 51.183594 51.078125 50.296875 51.078125 49.203125 Z M 51.078125 49.203125 "/>
<path style=" stroke:none;fill-rule:nonzero;fill:rgb(0%,0%,100%);fill-opacity:1;" d="M 51.078125 6.910156 C 51.078125 5.8125 50.191406 4.925781 49.097656 4.925781 C 48.003906 4.925781 47.113281 5.8125 47.113281 6.910156 C 47.113281 8.003906 48.003906 8.890625 49.097656 8.890625 C 50.191406 8.890625 51.078125 8.003906 51.078125 6.910156 Z M 51.078125 6.910156 "/>
</g>
</svg>
