<?xml version="1.0" encoding="iso-8859-1" standalone="no"?> 
<?xml-stylesheet href="_Wrapper_Image_facegraph_oct_edgelabels.css" type="text/css"?> 
<svg xmlns="http://www.w3.org/2000/svg" xmlns:xlink="http://www.w3.org/1999/xlink" width="183.2487pt" height="183.20323pt" viewBox="-6.86595 -6.23297 183.2487 183.20323 "> 
<g transform="translate(0,176.97026 ) scale(1,-1) translate(0,6.23297 )"> 
<g stroke="#000" fill="#000">
 <g stroke-width="0.4">
 <g stroke-width="0.2">
 <g stroke-linejoin="round">
 <g stroke-width="1.2">
 <path d=" M 0.0 170.73729 L 0.0 0.0  " fill="none"/>
 <g stroke-width="0.8">
 <g stroke="#8c8c8c">
 <path d=" M 0.0 170.73729 L 0.0 0.0  " fill="none"/>
 </g>
 </g>
 </g>
 <g fill="#ccf">
 <g fill="#ccf">
 <path d=" M -5.64546 79.13567 h 11.29092 v 12.46594 h -11.29092 Z  " stroke="none"/>
 </g>
 <g transform="translate(-2.31248,82.46864)">
 <g fill="#000">
 <text style="stroke:none" transform="scale(1,-1) translate(2.31248,0)" text-anchor="middle"  font-size="10"> 
<g fill="#000">
 <g stroke="none"> <tspan font-family="cmr" font-size="9">1</tspan></g> </g>
 </text> 
</g>
 </g>
 </g>
 </g>
 </g>
 <g stroke-width="0.2">
 <g stroke-linejoin="round">
 <g stroke-width="1.2">
 <path d=" M 0.0 170.73729 L 170.73729 170.73729  " fill="none"/>
 <g stroke-width="0.8">
 <g stroke="#8c8c8c">
 <path d=" M 0.0 170.73729 L 170.73729 170.73729  " fill="none"/>
 </g>
 </g>
 </g>
 <g fill="#ccf">
 <g fill="#ccf">
 <path d=" M 79.72318 164.50432 h 11.29092 v 12.46594 h -11.29092 Z  " stroke="none"/>
 </g>
 <g transform="translate(83.05615,167.8373)">
 <g fill="#000">
 <text style="stroke:none" transform="scale(1,-1) translate(2.31248,0)" text-anchor="middle"  font-size="10"> 
<g fill="#000">
 <g stroke="none"> <tspan font-family="cmr" font-size="9">2</tspan></g> </g>
 </text> 
</g>
 </g>
 </g>
 </g>
 </g>
 <g stroke-width="0.2">
 <g stroke-linejoin="round">
 <g stroke-width="1.2">
 <path d=" M 170.73729 0.0 L 170.73729 170.73729  " fill="none"/>
 <g stroke-width="0.8">
 <g stroke="#8c8c8c">
 <path d=" M 170.73729 0.0 L 170.73729 170.73729  " fill="none"/>
 </g>
 </g>
 </g>
 <g fill="#ccf">
 <g fill="#ccf">
 <path d=" M 165.09183 79.13567 h 11.29092 v 12.46594 h -11.29092 Z  " stroke="none"/>
 </g>
 <g transform="translate(168.4248,82.46864)">
 <g fill="#000">
 <text style="stroke:none" transform="scale(1,-1) translate(2.31248,0)" text-anchor="middle"  font-size="10"> 
<g fill="#000">
 <g stroke="none"> <tspan font-family="cmr" font-size="9">3</tspan></g> </g>
 </text> 
</g>
 </g>
 </g>
 </g>
 </g>
 <g stroke-width="0.2">
 <g stroke-linejoin="round">
 <g stroke-width="1.2">
 <path d=" M 0.0 0.0 L 170.73729 0.0  " fill="none"/>
 <g stroke-width="0.8">
 <g stroke="#8c8c8c">
 <path d=" M 0.0 0.0 L 170.73729 0.0  " fill="none"/>
 </g>
 </g>
 </g>
 <g fill="#ccf">
 <g fill="#ccf">
 <path d=" M 79.72318 -6.23297 h 11.29092 v 12.46594 h -11.29092 Z  " stroke="none"/>
 </g>
 <g transform="translate(83.05615,-2.9)">
 <g fill="#000">
 <text style="stroke:none" transform="scale(1,-1) translate(2.31248,0)" text-anchor="middle"  font-size="10"> 
<g fill="#000">
 <g stroke="none"> <tspan font-family="cmr" font-size="9">4</tspan></g> </g>
 </text> 
</g>
 </g>
 </g>
 </g>
 </g>
 <g stroke-width="0.2">
 <g stroke-linejoin="round">
 <g stroke-width="1.2">
 <path d=" M 0.0 170.73729 L 42.68431 128.05295  " fill="none"/>
 <g stroke-width="0.8">
 <g stroke="#8c8c8c">
 <path d=" M 0.0 170.73729 L 42.68431 128.05295  " fill="none"/>
 </g>
 </g>
 </g>
 <g fill="#ccf">
 <g fill="#ccf">
 <path d=" M 15.69669 143.16216 h 11.29092 v 12.46594 h -11.29092 Z  " stroke="none"/>
 </g>
 <g transform="translate(19.02966,146.49513)">
 <g fill="#000">
 <text style="stroke:none" transform="scale(1,-1) translate(2.31248,0)" text-anchor="middle"  font-size="10"> 
<g fill="#000">
 <g stroke="none"> <tspan font-family="cmr" font-size="9">5</tspan></g> </g>
 </text> 
</g>
 </g>
 </g>
 </g>
 </g>
 <g stroke-width="0.2">
 <g stroke-linejoin="round">
 <g stroke-width="1.2">
 <path d=" M 42.68431 42.68431 L 0.0 0.0  " fill="none"/>
 <g stroke-width="0.8">
 <g stroke="#8c8c8c">
 <path d=" M 42.68431 42.68431 L 0.0 0.0  " fill="none"/>
 </g>
 </g>
 </g>
 <g fill="#ccf">
 <g fill="#ccf">
 <path d=" M 15.69669 15.10918 h 11.29092 v 12.46594 h -11.29092 Z  " stroke="none"/>
 </g>
 <g transform="translate(19.02966,18.44215)">
 <g fill="#000">
 <text style="stroke:none" transform="scale(1,-1) translate(2.31248,0)" text-anchor="middle"  font-size="10"> 
<g fill="#000">
 <g stroke="none"> <tspan font-family="cmr" font-size="9">6</tspan></g> </g>
 </text> 
</g>
 </g>
 </g>
 </g>
 </g>
 <g stroke-width="0.2">
 <g stroke-linejoin="round">
 <g stroke-width="1.2">
 <path d=" M 42.68431 42.68431 L 42.68431 128.05295  " fill="none"/>
 <g stroke-width="0.8">
 <g stroke="#8c8c8c">
 <path d=" M 42.68431 42.68431 L 42.68431 128.05295  " fill="none"/>
 </g>
 </g>
 </g>
 <g fill="#ccf">
 <g fill="#ccf">
 <path d=" M 37.03885 79.13565 h 11.29092 v 12.46594 h -11.29092 Z  " stroke="none"/>
 </g>
 <g transform="translate(40.37183,82.46863)">
 <g fill="#000">
 <text style="stroke:none" transform="scale(1,-1) translate(2.31248,0)" text-anchor="middle"  font-size="10"> 
<g fill="#000">
 <g stroke="none"> <tspan font-family="cmr" font-size="9">7</tspan></g> </g>
 </text> 
</g>
 </g>
 </g>
 </g>
 </g>
 <g stroke-width="0.2">
 <g stroke-linejoin="round">
 <g stroke-width="1.2">
 <path d=" M 128.05295 128.05295 L 170.73729 170.73729  " fill="none"/>
 <g stroke-width="0.8">
 <g stroke="#8c8c8c">
 <path d=" M 128.05295 128.05295 L 170.73729 170.73729  " fill="none"/>
 </g>
 </g>
 </g>
 <g fill="#ccf">
 <g fill="#ccf">
 <path d=" M 143.74965 143.16214 h 11.29092 v 12.46594 h -11.29092 Z  " stroke="none"/>
 </g>
 <g transform="translate(147.08263,146.49512)">
 <g fill="#000">
 <text style="stroke:none" transform="scale(1,-1) translate(2.31248,0)" text-anchor="middle"  font-size="10"> 
<g fill="#000">
 <g stroke="none"> <tspan font-family="cmr" font-size="9">8</tspan></g> </g>
 </text> 
</g>
 </g>
 </g>
 </g>
 </g>
 <g stroke-width="0.2">
 <g stroke-linejoin="round">
 <g stroke-width="1.2">
 <path d=" M 42.68431 128.05295 L 128.05295 128.05295  " fill="none"/>
 <g stroke-width="0.8">
 <g stroke="#8c8c8c">
 <path d=" M 42.68431 128.05295 L 128.05295 128.05295  " fill="none"/>
 </g>
 </g>
 </g>
 <g fill="#ccf">
 <g fill="#ccf">
 <path d=" M 79.72316 121.81998 h 11.29092 v 12.46594 h -11.29092 Z  " stroke="none"/>
 </g>
 <g transform="translate(83.05614,125.15295)">
 <g fill="#000">
 <text style="stroke:none" transform="scale(1,-1) translate(2.31248,0)" text-anchor="middle"  font-size="10"> 
<g fill="#000">
 <g stroke="none"> <tspan font-family="cmr" font-size="9">9</tspan></g> </g>
 </text> 
</g>
 </g>
 </g>
 </g>
 </g>
 <g stroke-width="0.2">
 <g stroke-linejoin="round">
 <g stroke-width="1.2">
 <path d=" M 170.73729 0.0 L 128.05295 42.68431  " fill="none"/>
 <g stroke-width="0.8">
 <g stroke="#8c8c8c">
 <path d=" M 170.73729 0.0 L 128.05295 42.68431  " fill="none"/>
 </g>
 </g>
 </g>
 <g fill="#ccf">
 <g fill="#ccf">
 <path d=" M 141.43718 15.10918 h 15.9159 v 12.46594 h -15.9159 Z  " stroke="none"/>
 </g>
 <g transform="translate(144.77016,18.44215)">
 <g fill="#000">
 <text style="stroke:none" transform="scale(1,-1) translate(4.62497,0)" text-anchor="middle"  font-size="10"> 
<g fill="#000">
 <g stroke="none"> <tspan font-family="cmr" font-size="9">10</tspan></g> </g>
 </text> 
</g>
 </g>
 </g>
 </g>
 </g>
 <g stroke-width="0.2">
 <g stroke-linejoin="round">
 <g stroke-width="1.2">
 <path d=" M 128.05295 128.05295 L 128.05295 42.68431  " fill="none"/>
 <g stroke-width="0.8">
 <g stroke="#8c8c8c">
 <path d=" M 128.05295 128.05295 L 128.05295 42.68431  " fill="none"/>
 </g>
 </g>
 </g>
 <g fill="#ccf">
 <g fill="#ccf">
 <path d=" M 120.095 79.13567 h 15.9159 v 12.46594 h -15.9159 Z  " stroke="none"/>
 </g>
 <g transform="translate(123.42798,82.46864)">
 <g fill="#000">
 <text style="stroke:none" transform="scale(1,-1) translate(4.62497,0)" text-anchor="middle"  font-size="10"> 
<g fill="#000">
 <g stroke="none"> <tspan font-family="cmr" font-size="9">11</tspan></g> </g>
 </text> 
</g>
 </g>
 </g>
 </g>
 </g>
 <g stroke-width="0.2">
 <g stroke-linejoin="round">
 <g stroke-width="1.2">
 <path d=" M 42.68431 42.68431 L 128.05295 42.68431  " fill="none"/>
 <g stroke-width="0.8">
 <g stroke="#8c8c8c">
 <path d=" M 42.68431 42.68431 L 128.05295 42.68431  " fill="none"/>
 </g>
 </g>
 </g>
 <g fill="#ccf">
 <g fill="#ccf">
 <path d=" M 77.41068 36.45134 h 15.9159 v 12.46594 h -15.9159 Z  " stroke="none"/>
 </g>
 <g transform="translate(80.74365,39.78432)">
 <g fill="#000">
 <text style="stroke:none" transform="scale(1,-1) translate(4.62497,0)" text-anchor="middle"  font-size="10"> 
<g fill="#000">
 <g stroke="none"> <tspan font-family="cmr" font-size="9">12</tspan></g> </g>
 </text> 
</g>
 </g>
 </g>
 </g>
 </g>
 <g fill="#e6e6e6">
 <g fill="#e6e6e6">
 <path d=" M 5.17773 170.73729 C 5.17773 173.59691 2.85962 175.91502 0.0 175.91502 C -2.85962 175.91502 -5.17773 173.59691 -5.17773 170.73729 C -5.17773 167.87767 -2.85962 165.55956 0.0 165.55956 C 2.85962 165.55956 5.17773 167.87767 5.17773 170.73729 Z M 0.0 170.73729  " stroke="none"/>
 </g>
 <g transform="translate(-1.70142,169.12619)">
 <g fill="#000">
 <text style="stroke:none" transform="scale(1,-1) translate(1.70142,0)" text-anchor="middle"  font-size="10"> 
<g fill="#000">
 <g stroke="none"> <tspan font-family="cmr" font-size="5">1</tspan></g> </g>
 </text> 
</g>
 </g>
 </g>
 <g transform="translate(-3.53297,170.73729)">
 <g fill="#000">
 <text style="stroke:none" transform="scale(1,-1) translate(0.0,0)" text-anchor="middle"  font-size="10"> 
<g fill="#000">
 <g stroke="none"> </g> </g>
 </text> 
</g>
 </g>
 <g fill="#e6e6e6">
 <g fill="#e6e6e6">
 <path d=" M 47.86205 42.68431 C 47.86205 45.54393 45.54393 47.86205 42.68431 47.86205 C 39.82469 47.86205 37.50658 45.54393 37.50658 42.68431 C 37.50658 39.82469 39.82469 37.50658 42.68431 37.50658 C 45.54393 37.50658 47.86205 39.82469 47.86205 42.68431 Z M 42.68431 42.68431  " stroke="none"/>
 </g>
 <g transform="translate(40.9829,41.07321)">
 <g fill="#000">
 <text style="stroke:none" transform="scale(1,-1) translate(1.70142,0)" text-anchor="middle"  font-size="10"> 
<g fill="#000">
 <g stroke="none"> <tspan font-family="cmr" font-size="5">2</tspan></g> </g>
 </text> 
</g>
 </g>
 </g>
 <g transform="translate(39.15134,42.68431)">
 <g fill="#000">
 <text style="stroke:none" transform="scale(1,-1) translate(0.0,0)" text-anchor="middle"  font-size="10"> 
<g fill="#000">
 <g stroke="none"> </g> </g>
 </text> 
</g>
 </g>
 <g fill="#e6e6e6">
 <g fill="#e6e6e6">
 <path d=" M 5.17773 0.0 C 5.17773 2.85962 2.85962 5.17773 0.0 5.17773 C -2.85962 5.17773 -5.17773 2.85962 -5.17773 0.0 C -5.17773 -2.85962 -2.85962 -5.17773 0.0 -5.17773 C 2.85962 -5.17773 5.17773 -2.85962 5.17773 0.0 Z M 0.0 0.0  " stroke="none"/>
 </g>
 <g transform="translate(-1.70142,-1.6111)">
 <g fill="#000">
 <text style="stroke:none" transform="scale(1,-1) translate(1.70142,0)" text-anchor="middle"  font-size="10"> 
<g fill="#000">
 <g stroke="none"> <tspan font-family="cmr" font-size="5">3</tspan></g> </g>
 </text> 
</g>
 </g>
 </g>
 <g transform="translate(-3.53297,0.0)">
 <g fill="#000">
 <text style="stroke:none" transform="scale(1,-1) translate(0.0,0)" text-anchor="middle"  font-size="10"> 
<g fill="#000">
 <g stroke="none"> </g> </g>
 </text> 
</g>
 </g>
 <g fill="#e6e6e6">
 <g fill="#e6e6e6">
 <path d=" M 47.86205 128.05295 C 47.86205 130.91257 45.54393 133.23068 42.68431 133.23068 C 39.82469 133.23068 37.50658 130.91257 37.50658 128.05295 C 37.50658 125.19333 39.82469 122.87521 42.68431 122.87521 C 45.54393 122.87521 47.86205 125.19333 47.86205 128.05295 Z M 42.68431 128.05295  " stroke="none"/>
 </g>
 <g transform="translate(40.9829,126.44185)">
 <g fill="#000">
 <text style="stroke:none" transform="scale(1,-1) translate(1.70142,0)" text-anchor="middle"  font-size="10"> 
<g fill="#000">
 <g stroke="none"> <tspan font-family="cmr" font-size="5">4</tspan></g> </g>
 </text> 
</g>
 </g>
 </g>
 <g transform="translate(39.15134,128.05295)">
 <g fill="#000">
 <text style="stroke:none" transform="scale(1,-1) translate(0.0,0)" text-anchor="middle"  font-size="10"> 
<g fill="#000">
 <g stroke="none"> </g> </g>
 </text> 
</g>
 </g>
 <g fill="#e6e6e6">
 <g fill="#e6e6e6">
 <path d=" M 175.91502 0.0 C 175.91502 2.85962 173.59691 5.17773 170.73729 5.17773 C 167.87767 5.17773 165.55956 2.85962 165.55956 0.0 C 165.55956 -2.85962 167.87767 -5.17773 170.73729 -5.17773 C 173.59691 -5.17773 175.91502 -2.85962 175.91502 0.0 Z M 170.73729 0.0  " stroke="none"/>
 </g>
 <g transform="translate(169.03587,-1.6111)">
 <g fill="#000">
 <text style="stroke:none" transform="scale(1,-1) translate(1.70142,0)" text-anchor="middle"  font-size="10"> 
<g fill="#000">
 <g stroke="none"> <tspan font-family="cmr" font-size="5">5</tspan></g> </g>
 </text> 
</g>
 </g>
 </g>
 <g transform="translate(167.20432,0.0)">
 <g fill="#000">
 <text style="stroke:none" transform="scale(1,-1) translate(0.0,0)" text-anchor="middle"  font-size="10"> 
<g fill="#000">
 <g stroke="none"> </g> </g>
 </text> 
</g>
 </g>
 <g fill="#e6e6e6">
 <g fill="#e6e6e6">
 <path d=" M 133.23068 128.05295 C 133.23068 130.91257 130.91257 133.23068 128.05295 133.23068 C 125.19333 133.23068 122.87521 130.91257 122.87521 128.05295 C 122.87521 125.19333 125.19333 122.87521 128.05295 122.87521 C 130.91257 122.87521 133.23068 125.19333 133.23068 128.05295 Z M 128.05295 128.05295  " stroke="none"/>
 </g>
 <g transform="translate(126.35153,126.44185)">
 <g fill="#000">
 <text style="stroke:none" transform="scale(1,-1) translate(1.70142,0)" text-anchor="middle"  font-size="10"> 
<g fill="#000">
 <g stroke="none"> <tspan font-family="cmr" font-size="5">6</tspan></g> </g>
 </text> 
</g>
 </g>
 </g>
 <g transform="translate(124.51997,128.05295)">
 <g fill="#000">
 <text style="stroke:none" transform="scale(1,-1) translate(0.0,0)" text-anchor="middle"  font-size="10"> 
<g fill="#000">
 <g stroke="none"> </g> </g>
 </text> 
</g>
 </g>
 <g fill="#e6e6e6">
 <g fill="#e6e6e6">
 <path d=" M 175.91502 170.73729 C 175.91502 173.59691 173.59691 175.91502 170.73729 175.91502 C 167.87767 175.91502 165.55956 173.59691 165.55956 170.73729 C 165.55956 167.87767 167.87767 165.55956 170.73729 165.55956 C 173.59691 165.55956 175.91502 167.87767 175.91502 170.73729 Z M 170.73729 170.73729  " stroke="none"/>
 </g>
 <g transform="translate(169.03587,169.12619)">
 <g fill="#000">
 <text style="stroke:none" transform="scale(1,-1) translate(1.70142,0)" text-anchor="middle"  font-size="10"> 
<g fill="#000">
 <g stroke="none"> <tspan font-family="cmr" font-size="5">7</tspan></g> </g>
 </text> 
</g>
 </g>
 </g>
 <g transform="translate(167.20432,170.73729)">
 <g fill="#000">
 <text style="stroke:none" transform="scale(1,-1) translate(0.0,0)" text-anchor="middle"  font-size="10"> 
<g fill="#000">
 <g stroke="none"> </g> </g>
 </text> 
</g>
 </g>
 <g fill="#e6e6e6">
 <g fill="#e6e6e6">
 <path d=" M 133.23068 42.68431 C 133.23068 45.54393 130.91257 47.86205 128.05295 47.86205 C 125.19333 47.86205 122.87521 45.54393 122.87521 42.68431 C 122.87521 39.82469 125.19333 37.50658 128.05295 37.50658 C 130.91257 37.50658 133.23068 39.82469 133.23068 42.68431 Z M 128.05295 42.68431  " stroke="none"/>
 </g>
 <g transform="translate(126.35153,41.07321)">
 <g fill="#000">
 <text style="stroke:none" transform="scale(1,-1) translate(1.70142,0)" text-anchor="middle"  font-size="10"> 
<g fill="#000">
 <g stroke="none"> <tspan font-family="cmr" font-size="5">8</tspan></g> </g>
 </text> 
</g>
 </g>
 </g>
 <g transform="translate(124.51997,42.68431)">
 <g fill="#000">
 <text style="stroke:none" transform="scale(1,-1) translate(0.0,0)" text-anchor="middle"  font-size="10"> 
<g fill="#000">
 <g stroke="none"> </g> </g>
 </text> 
</g>
 </g>
 </g>
 </g>
 
                                   </g> 
</svg> 
