<?xml version="1.0" encoding="iso-8859-1" standalone="no"?> 
<?xml-stylesheet href="_Wrapper_paths-23.css" type="text/css"?> 
<svg xmlns="http://www.w3.org/2000/svg" xmlns:xlink="http://www.w3.org/1999/xlink" width="199.4484pt" height="168.88448pt" viewBox="-97.22418 -127.12135 199.4484 168.88448 "> 
<g transform="translate(0,41.76312 ) scale(1,-1) translate(0,127.12135 )"> 
                   <g stroke="#000" fill="#000">
 <g stroke-width="0.4">
 <g fill="#ff6">
 <g stroke-linejoin="round">
 <g stroke="#000">
 <path d=" M -85.35823 0.0 L 0.0 28.45274 L 85.35823 0.0 L 0.0 -28.45274 Z M -85.35823 0.0 L 0.0 -28.45274 L 0.0 -113.81097 Z M 0.0 -28.45274 L 0.0 -113.81097 L 85.35823 0.0 Z  " />
 <g fill="#ccf">
 <g fill="#ccf">
 <path d=" M -48.32458 7.9934 h 11.29092 v 12.46594 h -11.29092 Z  " stroke="none"/>
 </g>
 <g transform="translate(-44.99161,11.32637)">
 <g fill="#000">
 <text style="stroke:none" transform="scale(1,-1) translate(2.31248,0)" text-anchor="middle"  font-size="10"> 
<g fill="#000">
 <g stroke="none"> <tspan font-family="cmr" font-size="9">2</tspan></g> </g>
 </text> 
</g>
 </g>
 </g>
 <g fill="#ccf">
 <g fill="#ccf">
 <path d=" M 34.72116 7.99341 h 15.9159 v 12.46594 h -15.9159 Z  " stroke="none"/>
 </g>
 <g transform="translate(38.05414,11.32639)">
 <g fill="#000">
 <text style="stroke:none" transform="scale(1,-1) translate(4.62497,0)" text-anchor="middle"  font-size="10"> 
<g fill="#000">
 <g stroke="none"> <tspan font-family="cmr" font-size="9">12</tspan></g> </g>
 </text> 
</g>
 </g>
 </g>
 <g fill="#ccf">
 <g fill="#ccf">
 <path d=" M -48.32458 -20.45934 h 11.29092 v 12.46594 h -11.29092 Z  " stroke="none"/>
 </g>
 <g transform="translate(-44.99161,-17.12636)">
 <g fill="#000">
 <text style="stroke:none" transform="scale(1,-1) translate(2.31248,0)" text-anchor="middle"  font-size="10"> 
<g fill="#000">
 <g stroke="none"> <tspan font-family="cmr" font-size="9">6</tspan> </g> </g>
 </text> 
</g>
 </g>
 </g>
 <g fill="#ccf">
 <g fill="#ccf">
 <path d=" M -48.32457 -63.13846 h 11.29092 v 12.46594 h -11.29092 Z  " stroke="none"/>
 </g>
 <g transform="translate(-44.9916,-59.80548)">
 <g fill="#000">
 <text style="stroke:none" transform="scale(1,-1) translate(2.31248,0)" text-anchor="middle"  font-size="10"> 
<g fill="#000">
 <g stroke="none"> <tspan font-family="cmr" font-size="9">8</tspan> </g> </g>
 </text> 
</g>
 </g>
 </g>
 <g fill="#ccf">
 <g fill="#ccf">
 <path d=" M -7.95795 -77.36482 h 15.9159 v 12.46594 h -15.9159 Z  " stroke="none"/>
 </g>
 <g transform="translate(-4.62497,-74.03185)">
 <g fill="#000">
 <text style="stroke:none" transform="scale(1,-1) translate(4.62497,0)" text-anchor="middle"  font-size="10"> 
<g fill="#000">
 <g stroke="none"> <tspan font-family="cmr" font-size="9">10</tspan></g> </g>
 </text> 
</g>
 </g>
 </g>
 <g fill="#ccf">
 <g fill="#ccf">
 <path d=" M 34.72116 -63.13846 h 15.9159 v 12.46594 h -15.9159 Z  " stroke="none"/>
 </g>
 <g transform="translate(38.05414,-59.80548)">
 <g fill="#000">
 <text style="stroke:none" transform="scale(1,-1) translate(4.62497,0)" text-anchor="middle"  font-size="10"> 
<g fill="#000">
 <g stroke="none"> <tspan font-family="cmr" font-size="9">15</tspan></g> </g>
 </text> 
</g>
 </g>
 </g>
 <g fill="#ccf">
 <g fill="#ccf">
 <path d=" M 34.72118 -20.45934 h 15.9159 v 12.46594 h -15.9159 Z  " stroke="none"/>
 </g>
 <g transform="translate(38.05415,-17.12636)">
 <g fill="#000">
 <text style="stroke:none" transform="scale(1,-1) translate(4.62497,0)" text-anchor="middle"  font-size="10"> 
<g fill="#000">
 <g stroke="none"> <tspan font-family="cmr" font-size="9">14</tspan></g> </g>
 </text> 
</g>
 </g>
 </g>
 </g>
 </g>
 </g>
 <g transform="translate(-1.80556,-3.41666)">
 <g fill="#000">
 <text style="stroke:none" transform="scale(1,-1) translate(1.80556,0)" text-anchor="middle"  font-size="10"> 
<g fill="#000">
 <g stroke="none"> I </g> </g>
 </text> 
</g>
 </g>
 <g transform="translate(-34.00786,-50.83716)">
 <g fill="#000">
 <text style="stroke:none" transform="scale(1,-1) translate(5.55556,0)" text-anchor="middle"  font-size="10"> 
<g fill="#000">
 <g stroke="none"> IV</g> </g>
 </text> 
</g>
 </g>
 <g transform="translate(22.89674,-50.83716)">
 <g fill="#000">
 <text style="stroke:none" transform="scale(1,-1) translate(5.55556,0)" text-anchor="middle"  font-size="10"> 
<g fill="#000">
 <g stroke="none"> IX</g> </g>
 </text> 
</g>
 </g>
 <g fill="#808080">
 <g fill="#808080">
 <path d=" M -84.35823 0.0 C -84.35823 0.55229 -84.80594 1.0 -85.35823 1.0 C -85.91052 1.0 -86.35823 0.55229 -86.35823 0.0 C -86.35823 -0.55229 -85.91052 -1.0 -85.35823 -1.0 C -84.80594 -1.0 -84.35823 -0.55229 -84.35823 0.0 Z M -85.35823 0.0  " stroke="none"/>
 </g>
 <g transform="translate(-85.35823,0.0)">
 <g fill="#000">
 <text style="stroke:none" transform="scale(1,-1) translate(0.0,0)" text-anchor="middle"  font-size="10"> 
<g fill="#000">
 <g stroke="none"> </g> </g>
 </text> 
</g>
 </g>
 </g>
 <g stroke="#808080" fill="#808080">
 <g stroke="#808080" fill="#808080">
 </g>
 <g transform="translate(-93.8912,-3.22221)">
 <g fill="#808080">
 <text style="stroke:none" transform="scale(1,-1) translate(2.5,0)" text-anchor="middle"  font-size="10"> 
<g fill="#808080">
 <g stroke="none"> 3 </g> </g>
 </text> 
</g>
 </g>
 </g>
 <g fill="#808080">
 <g fill="#808080">
 <path d=" M 1.0 28.45274 C 1.0 29.00504 0.55229 29.45274 0.0 29.45274 C -0.55229 29.45274 -1.0 29.00504 -1.0 28.45274 C -1.0 27.90045 -0.55229 27.45274 0.0 27.45274 C 0.55229 27.45274 1.0 27.90045 1.0 28.45274 Z M 0.0 28.45274  " stroke="none"/>
 </g>
 <g transform="translate(0.0,28.45274)">
 <g fill="#000">
 <text style="stroke:none" transform="scale(1,-1) translate(0.0,0)" text-anchor="middle"  font-size="10"> 
<g fill="#000">
 <g stroke="none"> </g> </g>
 </text> 
</g>
 </g>
 </g>
 <g stroke="#808080" fill="#808080">
 <g stroke="#808080" fill="#808080">
 </g>
 <g transform="translate(-2.5,31.98572)">
 <g fill="#808080">
 <text style="stroke:none" transform="scale(1,-1) translate(2.5,0)" text-anchor="middle"  font-size="10"> 
<g fill="#808080">
 <g stroke="none"> 5 </g> </g>
 </text> 
</g>
 </g>
 </g>
 <g fill="#808080">
 <g fill="#808080">
 <path d=" M 86.35823 0.0 C 86.35823 0.55229 85.91052 1.0 85.35823 1.0 C 84.80594 1.0 84.35823 0.55229 84.35823 0.0 C 84.35823 -0.55229 84.80594 -1.0 85.35823 -1.0 C 85.91052 -1.0 86.35823 -0.55229 86.35823 0.0 Z M 85.35823 0.0  " stroke="none"/>
 </g>
 <g transform="translate(85.35823,0.0)">
 <g fill="#000">
 <text style="stroke:none" transform="scale(1,-1) translate(0.0,0)" text-anchor="middle"  font-size="10"> 
<g fill="#000">
 <g stroke="none"> </g> </g>
 </text> 
</g>
 </g>
 </g>
 <g stroke="#808080" fill="#808080">
 <g stroke="#808080" fill="#808080">
 </g>
 <g transform="translate(88.8912,-3.22221)">
 <g fill="#808080">
 <text style="stroke:none" transform="scale(1,-1) translate(5.00002,0)" text-anchor="middle"  font-size="10"> 
<g fill="#808080">
 <g stroke="none"> 13 </g> </g>
 </text> 
</g>
 </g>
 </g>
 <g fill="#808080">
 <g fill="#808080">
 <path d=" M 1.0 -28.45274 C 1.0 -27.90045 0.55229 -27.45274 0.0 -27.45274 C -0.55229 -27.45274 -1.0 -27.90045 -1.0 -28.45274 C -1.0 -29.00504 -0.55229 -29.45274 0.0 -29.45274 C 0.55229 -29.45274 1.0 -29.00504 1.0 -28.45274 Z M 0.0 -28.45274  " stroke="none"/>
 </g>
 <g transform="translate(0.0,-28.45274)">
 <g fill="#000">
 <text style="stroke:none" transform="scale(1,-1) translate(0.0,0)" text-anchor="middle"  font-size="10"> 
<g fill="#000">
 <g stroke="none"> </g> </g>
 </text> 
</g>
 </g>
 </g>
 <g stroke="#808080" fill="#808080">
 <g stroke="#808080" fill="#808080">
 </g>
 <g transform="translate(-2.5,-24.91977)">
 <g fill="#808080">
 <text style="stroke:none" transform="scale(1,-1) translate(2.5,0)" text-anchor="middle"  font-size="10"> 
<g fill="#808080">
 <g stroke="none"> 7 </g> </g>
 </text> 
</g>
 </g>
 </g>
 <g fill="#808080">
 <g fill="#808080">
 <path d=" M 1.0 -113.81097 C 1.0 -113.25868 0.55229 -112.81097 0.0 -112.81097 C -0.55229 -112.81097 -1.0 -113.25868 -1.0 -113.81097 C -1.0 -114.36327 -0.55229 -114.81097 0.0 -114.81097 C 0.55229 -114.81097 1.0 -114.36327 1.0 -113.81097 Z M 0.0 -113.81097  " stroke="none"/>
 </g>
 <g transform="translate(0.0,-113.81097)">
 <g fill="#000">
 <text style="stroke:none" transform="scale(1,-1) translate(0.0,0)" text-anchor="middle"  font-size="10"> 
<g fill="#000">
 <g stroke="none"> </g> </g>
 </text> 
</g>
 </g>
 </g>
 <g stroke="#808080" fill="#808080">
 <g stroke="#808080" fill="#808080">
 </g>
 <g transform="translate(-5.00002,-123.78838)">
 <g fill="#808080">
 <text style="stroke:none" transform="scale(1,-1) translate(5.00002,0)" text-anchor="middle"  font-size="10"> 
<g fill="#808080">
 <g stroke="none"> 11 </g> </g>
 </text> 
</g>
 </g>
 </g>
 </g>
 </g>
 
                                      </g> 
</svg> 
