<?xml version="1.0" encoding="UTF-8"?>
<svg xmlns="http://www.w3.org/2000/svg" xmlns:xlink="http://www.w3.org/1999/xlink" width="155.413pt" height="123.547pt" viewBox="0 0 155.413 123.547" version="1.2">
<g id="surface1">
<path style="fill-rule:nonzero;fill:rgb(100%,96.939087%,40.000916%);fill-opacity:1;stroke-width:0.3985;stroke-linecap:butt;stroke-linejoin:round;stroke:rgb(0%,0%,0%);stroke-opacity:1;stroke-miterlimit:10;" d="M 0.000887538 -0.00190901 L 0.000887538 85.040747 L -85.041769 -0.00190901 Z M 0.000887538 -0.00190901 " transform="matrix(0.996237,0,0,-0.996237,91.534272,91.541067)"/>
<path style="fill-rule:nonzero;fill:rgb(100%,96.939087%,40.000916%);fill-opacity:1;stroke-width:0.3985;stroke-linecap:butt;stroke-linejoin:round;stroke:rgb(0%,0%,0%);stroke-opacity:1;stroke-miterlimit:10;" d="M 0.000887538 -0.00190901 L 0.000887538 85.040747 L 56.694685 -28.346847 Z M 0.000887538 -0.00190901 L 0.000887538 85.040747 L -34.017743 -28.346847 Z M 0.000887538 -0.00190901 " transform="matrix(0.996237,0,0,-0.996237,91.534272,91.541067)"/>
<path style="fill:none;stroke-width:0.3985;stroke-linecap:butt;stroke-linejoin:round;stroke:rgb(0%,0%,0%);stroke-opacity:1;stroke-dasharray:2.98883,2.98883;stroke-miterlimit:10;" d="M 0.000887538 -0.00190901 L -85.041769 -0.00190901 " transform="matrix(0.996237,0,0,-0.996237,91.534272,91.541067)"/>
<path style="fill:none;stroke-width:0.79701;stroke-linecap:butt;stroke-linejoin:round;stroke:rgb(0%,0%,100%);stroke-opacity:1;stroke-miterlimit:10;" d="M 0.000887538 -0.00190901 L 0.000887538 85.040747 " transform="matrix(0.996237,0,0,-0.996237,91.534272,91.541067)"/>
<path style=" stroke:none;fill-rule:nonzero;fill:rgb(50%,50%,50%);fill-opacity:1;" d="M 149.007812 119.78125 C 149.007812 119.234375 148.5625 118.789062 148.015625 118.789062 C 147.464844 118.789062 147.023438 119.234375 147.023438 119.78125 C 147.023438 120.328125 147.464844 120.773438 148.015625 120.773438 C 148.5625 120.773438 149.007812 120.328125 149.007812 119.78125 Z M 149.007812 119.78125 "/>
<path style=" stroke:none;fill-rule:nonzero;fill:rgb(50%,50%,50%);fill-opacity:1;" d="M 58.636719 119.78125 C 58.636719 119.234375 58.195312 118.789062 57.644531 118.789062 C 57.097656 118.789062 56.652344 119.234375 56.652344 119.78125 C 56.652344 120.328125 57.097656 120.773438 57.644531 120.773438 C 58.195312 120.773438 58.636719 120.328125 58.636719 119.78125 Z M 58.636719 119.78125 "/>
<path style=" stroke:none;fill-rule:nonzero;fill:rgb(50%,50%,50%);fill-opacity:1;" d="M 7.804688 91.542969 C 7.804688 90.992188 7.363281 90.546875 6.8125 90.546875 C 6.265625 90.546875 5.820312 90.992188 5.820312 91.542969 C 5.820312 92.089844 6.265625 92.535156 6.8125 92.535156 C 7.363281 92.535156 7.804688 92.089844 7.804688 91.542969 Z M 7.804688 91.542969 "/>
<path style=" stroke:none;fill-rule:nonzero;fill:rgb(50%,50%,50%);fill-opacity:1;" d="M 92.527344 91.542969 C 92.527344 90.992188 92.082031 90.546875 91.535156 90.546875 C 90.984375 90.546875 90.542969 90.992188 90.542969 91.542969 C 90.542969 92.089844 90.984375 92.535156 91.535156 92.535156 C 92.082031 92.535156 92.527344 92.089844 92.527344 91.542969 Z M 92.527344 91.542969 "/>
<path style=" stroke:none;fill-rule:nonzero;fill:rgb(50%,50%,50%);fill-opacity:1;" d="M 92.527344 6.820312 C 92.527344 6.273438 92.082031 5.828125 91.535156 5.828125 C 90.984375 5.828125 90.542969 6.273438 90.542969 6.820312 C 90.542969 7.367188 90.984375 7.8125 91.535156 7.8125 C 92.082031 7.8125 92.527344 7.367188 92.527344 6.820312 Z M 92.527344 6.820312 "/>
</g>
</svg>
