<?xml version="1.0" encoding="iso-8859-1" standalone="no"?> 
<?xml-stylesheet href="_Wrapper_constructors-14.css" type="text/css"?> 
<svg xmlns="http://www.w3.org/2000/svg" xmlns:xlink="http://www.w3.org/1999/xlink" width="417.98569pt" height="140.43173pt" viewBox="37.41577 -70.21587 417.98569 140.43173 "> 
<g transform="translate(0,70.21587 ) scale(1,-1) translate(0,70.21587 )"> 
<g stroke="#000" fill="#000">
 <g stroke-width="0.4">
 <g stroke-linejoin="round">
 <g stroke="#000">
 <g fill="#ffd4d4">
 <path d=" M 49.28172 -28.45274 L 98.56345 -56.90549 L 98.56345 0.0 Z M 98.56345 0.0 L 98.56345 -56.90549 L 147.84517 -28.45274 Z M 98.56345 0.0 L 147.84517 -28.45274 L 147.84517 28.45274 Z M 98.56345 0.0 L 147.84517 28.45274 L 98.56345 56.90549 Z M 98.56345 0.0 L 98.56345 56.90549 L 49.28172 28.45274 Z M 197.12689 0.0 L 246.40862 28.45274 L 197.12689 56.90549 Z M 197.12689 0.0 L 197.12689 56.90549 L 147.84517 28.45274 Z M 197.12689 0.0 L 147.84517 28.45274 L 147.84517 -28.45274 Z M 197.12689 0.0 L 147.84517 -28.45274 L 197.12689 -56.90549 Z M 197.12689 0.0 L 197.12689 -56.90549 L 246.40862 -28.45274 Z M 394.25378 0.0 L 443.5355 28.45274 L 394.25378 56.90549 Z M 394.25378 0.0 L 394.25378 56.90549 L 344.97206 28.45274 Z M 394.25378 0.0 L 344.97206 28.45274 L 344.97206 -28.45274 Z M 394.25378 0.0 L 344.97206 -28.45274 L 394.25378 -56.90549 Z M 394.25378 0.0 L 394.25378 -56.90549 L 443.5355 -28.45274 Z  " />
 <g transform="translate(73.92258,-42.67911)">
 <g fill="#000">
 <text style="stroke:none" transform="scale(1,-1) translate(0.0,0)" text-anchor="middle"  font-size="10"> 
<g fill="#000">
 <g stroke="none"> </g> </g>
 </text> 
</g>
 </g>
 <g transform="translate(73.92259,-14.22636)">
 <g fill="#000">
 <text style="stroke:none" transform="scale(1,-1) translate(0.0,0)" text-anchor="middle"  font-size="10"> 
<g fill="#000">
 <g stroke="none"> </g> </g>
 </text> 
</g>
 </g>
 <g transform="translate(98.56345,-28.45274)">
 <g fill="#000">
 <text style="stroke:none" transform="scale(1,-1) translate(0.0,0)" text-anchor="middle"  font-size="10"> 
<g fill="#000">
 <g stroke="none"> </g> </g>
 </text> 
</g>
 </g>
 <g transform="translate(123.2043,-42.67912)">
 <g fill="#000">
 <text style="stroke:none" transform="scale(1,-1) translate(0.0,0)" text-anchor="middle"  font-size="10"> 
<g fill="#000">
 <g stroke="none"> </g> </g>
 </text> 
</g>
 </g>
 <g transform="translate(123.2043,-14.22636)">
 <g fill="#000">
 <text style="stroke:none" transform="scale(1,-1) translate(0.0,0)" text-anchor="middle"  font-size="10"> 
<g fill="#000">
 <g stroke="none"> </g> </g>
 </text> 
</g>
 </g>
 <g transform="translate(123.2043,14.22636)">
 <g fill="#000">
 <text style="stroke:none" transform="scale(1,-1) translate(0.0,0)" text-anchor="middle"  font-size="10"> 
<g fill="#000">
 <g stroke="none"> </g> </g>
 </text> 
</g>
 </g>
 <g transform="translate(123.20432,42.67911)">
 <g fill="#000">
 <text style="stroke:none" transform="scale(1,-1) translate(0.0,0)" text-anchor="middle"  font-size="10"> 
<g fill="#000">
 <g stroke="none"> </g> </g>
 </text> 
</g>
 </g>
 <g transform="translate(98.56345,28.45274)">
 <g fill="#000">
 <text style="stroke:none" transform="scale(1,-1) translate(0.0,0)" text-anchor="middle"  font-size="10"> 
<g fill="#000">
 <g stroke="none"> </g> </g>
 </text> 
</g>
 </g>
 <g transform="translate(73.92259,42.67912)">
 <g fill="#000">
 <text style="stroke:none" transform="scale(1,-1) translate(0.0,0)" text-anchor="middle"  font-size="10"> 
<g fill="#000">
 <g stroke="none"> </g> </g>
 </text> 
</g>
 </g>
 <g transform="translate(73.92258,14.22638)">
 <g fill="#000">
 <text style="stroke:none" transform="scale(1,-1) translate(0.0,0)" text-anchor="middle"  font-size="10"> 
<g fill="#000">
 <g stroke="none"> </g> </g>
 </text> 
</g>
 </g>
 <g transform="translate(221.76775,14.22636)">
 <g fill="#000">
 <text style="stroke:none" transform="scale(1,-1) translate(0.0,0)" text-anchor="middle"  font-size="10"> 
<g fill="#000">
 <g stroke="none"> </g> </g>
 </text> 
</g>
 </g>
 <g transform="translate(221.76776,42.67911)">
 <g fill="#000">
 <text style="stroke:none" transform="scale(1,-1) translate(0.0,0)" text-anchor="middle"  font-size="10"> 
<g fill="#000">
 <g stroke="none"> </g> </g>
 </text> 
</g>
 </g>
 <g transform="translate(197.12689,28.45274)">
 <g fill="#000">
 <text style="stroke:none" transform="scale(1,-1) translate(0.0,0)" text-anchor="middle"  font-size="10"> 
<g fill="#000">
 <g stroke="none"> </g> </g>
 </text> 
</g>
 </g>
 <g transform="translate(172.48604,42.67912)">
 <g fill="#000">
 <text style="stroke:none" transform="scale(1,-1) translate(0.0,0)" text-anchor="middle"  font-size="10"> 
<g fill="#000">
 <g stroke="none"> </g> </g>
 </text> 
</g>
 </g>
 <g transform="translate(172.48604,14.22636)">
 <g fill="#000">
 <text style="stroke:none" transform="scale(1,-1) translate(0.0,0)" text-anchor="middle"  font-size="10"> 
<g fill="#000">
 <g stroke="none"> </g> </g>
 </text> 
</g>
 </g>
 <g transform="translate(172.48604,-14.22636)">
 <g fill="#000">
 <text style="stroke:none" transform="scale(1,-1) translate(0.0,0)" text-anchor="middle"  font-size="10"> 
<g fill="#000">
 <g stroke="none"> </g> </g>
 </text> 
</g>
 </g>
 <g transform="translate(172.48602,-42.67911)">
 <g fill="#000">
 <text style="stroke:none" transform="scale(1,-1) translate(0.0,0)" text-anchor="middle"  font-size="10"> 
<g fill="#000">
 <g stroke="none"> </g> </g>
 </text> 
</g>
 </g>
 <g transform="translate(197.12689,-28.45274)">
 <g fill="#000">
 <text style="stroke:none" transform="scale(1,-1) translate(0.0,0)" text-anchor="middle"  font-size="10"> 
<g fill="#000">
 <g stroke="none"> </g> </g>
 </text> 
</g>
 </g>
 <g transform="translate(221.76775,-42.67912)">
 <g fill="#000">
 <text style="stroke:none" transform="scale(1,-1) translate(0.0,0)" text-anchor="middle"  font-size="10"> 
<g fill="#000">
 <g stroke="none"> </g> </g>
 </text> 
</g>
 </g>
 <g transform="translate(221.76776,-14.22638)">
 <g fill="#000">
 <text style="stroke:none" transform="scale(1,-1) translate(0.0,0)" text-anchor="middle"  font-size="10"> 
<g fill="#000">
 <g stroke="none"> </g> </g>
 </text> 
</g>
 </g>
 <g transform="translate(418.89464,14.22636)">
 <g fill="#000">
 <text style="stroke:none" transform="scale(1,-1) translate(0.0,0)" text-anchor="middle"  font-size="10"> 
<g fill="#000">
 <g stroke="none"> </g> </g>
 </text> 
</g>
 </g>
 <g transform="translate(418.89465,42.67911)">
 <g fill="#000">
 <text style="stroke:none" transform="scale(1,-1) translate(0.0,0)" text-anchor="middle"  font-size="10"> 
<g fill="#000">
 <g stroke="none"> </g> </g>
 </text> 
</g>
 </g>
 <g transform="translate(394.25378,28.45274)">
 <g fill="#000">
 <text style="stroke:none" transform="scale(1,-1) translate(0.0,0)" text-anchor="middle"  font-size="10"> 
<g fill="#000">
 <g stroke="none"> </g> </g>
 </text> 
</g>
 </g>
 <g transform="translate(369.61293,42.67912)">
 <g fill="#000">
 <text style="stroke:none" transform="scale(1,-1) translate(0.0,0)" text-anchor="middle"  font-size="10"> 
<g fill="#000">
 <g stroke="none"> </g> </g>
 </text> 
</g>
 </g>
 <g transform="translate(369.61293,14.22636)">
 <g fill="#000">
 <text style="stroke:none" transform="scale(1,-1) translate(0.0,0)" text-anchor="middle"  font-size="10"> 
<g fill="#000">
 <g stroke="none"> </g> </g>
 </text> 
</g>
 </g>
 <g transform="translate(369.61293,-14.22636)">
 <g fill="#000">
 <text style="stroke:none" transform="scale(1,-1) translate(0.0,0)" text-anchor="middle"  font-size="10"> 
<g fill="#000">
 <g stroke="none"> </g> </g>
 </text> 
</g>
 </g>
 <g transform="translate(369.61292,-42.67911)">
 <g fill="#000">
 <text style="stroke:none" transform="scale(1,-1) translate(0.0,0)" text-anchor="middle"  font-size="10"> 
<g fill="#000">
 <g stroke="none"> </g> </g>
 </text> 
</g>
 </g>
 <g transform="translate(394.25378,-28.45274)">
 <g fill="#000">
 <text style="stroke:none" transform="scale(1,-1) translate(0.0,0)" text-anchor="middle"  font-size="10"> 
<g fill="#000">
 <g stroke="none"> </g> </g>
 </text> 
</g>
 </g>
 <g transform="translate(418.89464,-42.67912)">
 <g fill="#000">
 <text style="stroke:none" transform="scale(1,-1) translate(0.0,0)" text-anchor="middle"  font-size="10"> 
<g fill="#000">
 <g stroke="none"> </g> </g>
 </text> 
</g>
 </g>
 <g transform="translate(418.89465,-14.22638)">
 <g fill="#000">
 <text style="stroke:none" transform="scale(1,-1) translate(0.0,0)" text-anchor="middle"  font-size="10"> 
<g fill="#000">
 <g stroke="none"> </g> </g>
 </text> 
</g>
 </g>
 </g>
 </g>
 </g>
 <g stroke-width="0.8">
 <g stroke-linejoin="round">
 <g stroke="#f00">
 <path d=" M 147.84517 -28.45274 L 147.84517 28.45274 M 344.97206 -28.45274 L 344.97206 28.45274  " fill="none"/>
 <g transform="translate(147.84517,0.0)">
 <g fill="#000">
 <text style="stroke:none" transform="scale(1,-1) translate(0.0,0)" text-anchor="middle"  font-size="10"> 
<g fill="#000">
 <g stroke="none"> </g> </g>
 </text> 
</g>
 </g>
 <g transform="translate(344.97206,0.0)">
 <g fill="#000">
 <text style="stroke:none" transform="scale(1,-1) translate(0.0,0)" text-anchor="middle"  font-size="10"> 
<g fill="#000">
 <g stroke="none"> </g> </g>
 </text> 
</g>
 </g>
 </g>
 </g>
 </g>
 <g transform="translate(79.63495,25.23009)">
 <g fill="#000">
 <text style="stroke:none" transform="scale(1,-1) translate(2.5,0)" text-anchor="middle"  font-size="10"> 
<g fill="#000">
 <g stroke="none"> 1</g> </g>
 </text> 
</g>
 </g>
 <g transform="translate(112.48892,25.23009)">
 <g fill="#000">
 <text style="stroke:none" transform="scale(1,-1) translate(2.5,0)" text-anchor="middle"  font-size="10"> 
<g fill="#000">
 <g stroke="none"> 2</g> </g>
 </text> 
</g>
 </g>
 <g transform="translate(128.91591,-3.22221)">
 <g fill="#000">
 <text style="stroke:none" transform="scale(1,-1) translate(2.5,0)" text-anchor="middle"  font-size="10"> 
<g fill="#000">
 <g stroke="none"> 3</g> </g>
 </text> 
</g>
 </g>
 <g transform="translate(112.48892,-31.67451)">
 <g fill="#000">
 <text style="stroke:none" transform="scale(1,-1) translate(2.5,0)" text-anchor="middle"  font-size="10"> 
<g fill="#000">
 <g stroke="none"> 4</g> </g>
 </text> 
</g>
 </g>
 <g transform="translate(79.63495,-31.67451)">
 <g fill="#000">
 <text style="stroke:none" transform="scale(1,-1) translate(2.5,0)" text-anchor="middle"  font-size="10"> 
<g fill="#000">
 <g stroke="none"> 5</g> </g>
 </text> 
</g>
 </g>
 <g transform="translate(211.05087,25.23009)">
 <g fill="#000">
 <text style="stroke:none" transform="scale(1,-1) translate(2.5,0)" text-anchor="middle"  font-size="10"> 
<g fill="#000">
 <g stroke="none"> 6</g> </g>
 </text> 
</g>
 </g>
 <g transform="translate(178.19688,25.23009)">
 <g fill="#000">
 <text style="stroke:none" transform="scale(1,-1) translate(2.5,0)" text-anchor="middle"  font-size="10"> 
<g fill="#000">
 <g stroke="none"> 7</g> </g>
 </text> 
</g>
 </g>
 <g transform="translate(161.7699,-3.22221)">
 <g fill="#000">
 <text style="stroke:none" transform="scale(1,-1) translate(2.5,0)" text-anchor="middle"  font-size="10"> 
<g fill="#000">
 <g stroke="none"> 8</g> </g>
 </text> 
</g>
 </g>
 <g transform="translate(178.19688,-31.67451)">
 <g fill="#000">
 <text style="stroke:none" transform="scale(1,-1) translate(2.5,0)" text-anchor="middle"  font-size="10"> 
<g fill="#000">
 <g stroke="none"> 9</g> </g>
 </text> 
</g>
 </g>
 <g transform="translate(208.55086,-31.67451)">
 <g fill="#000">
 <text style="stroke:none" transform="scale(1,-1) translate(5.00002,0)" text-anchor="middle"  font-size="10"> 
<g fill="#000">
 <g stroke="none"> 10</g> </g>
 </text> 
</g>
 </g>
 <g transform="translate(405.67473,25.23009)">
 <g fill="#000">
 <text style="stroke:none" transform="scale(1,-1) translate(5.00002,0)" text-anchor="middle"  font-size="10"> 
<g fill="#000">
 <g stroke="none"> 11</g> </g>
 </text> 
</g>
 </g>
 <g transform="translate(372.82076,25.23009)">
 <g fill="#000">
 <text style="stroke:none" transform="scale(1,-1) translate(5.00002,0)" text-anchor="middle"  font-size="10"> 
<g fill="#000">
 <g stroke="none"> 12</g> </g>
 </text> 
</g>
 </g>
 <g transform="translate(356.39377,-3.22221)">
 <g fill="#000">
 <text style="stroke:none" transform="scale(1,-1) translate(5.00002,0)" text-anchor="middle"  font-size="10"> 
<g fill="#000">
 <g stroke="none"> 13</g> </g>
 </text> 
</g>
 </g>
 <g transform="translate(372.82076,-31.67451)">
 <g fill="#000">
 <text style="stroke:none" transform="scale(1,-1) translate(5.00002,0)" text-anchor="middle"  font-size="10"> 
<g fill="#000">
 <g stroke="none"> 14</g> </g>
 </text> 
</g>
 </g>
 <g transform="translate(405.67473,-31.67451)">
 <g fill="#000">
 <text style="stroke:none" transform="scale(1,-1) translate(5.00002,0)" text-anchor="middle"  font-size="10"> 
<g fill="#000">
 <g stroke="none"> 15</g> </g>
 </text> 
</g>
 </g>
 <g fill="#00f">
 <g fill="#00f">
 <path d=" M 100.56345 56.90549 C 100.56345 58.01007 99.66803 58.90549 98.56345 58.90549 C 97.45886 58.90549 96.56345 58.01007 96.56345 56.90549 C 96.56345 55.8009 97.45886 54.90549 98.56345 54.90549 C 99.66803 54.90549 100.56345 55.8009 100.56345 56.90549 Z M 98.56345 56.90549  " stroke="none"/>
 </g>
 <g transform="translate(98.56345,56.90549)">
 <g fill="#000">
 <text style="stroke:none" transform="scale(1,-1) translate(0.0,0)" text-anchor="middle"  font-size="10"> 
<g fill="#000">
 <g stroke="none"> </g> </g>
 </text> 
</g>
 </g>
 </g>
 <g stroke="#00f" fill="#00f">
 <g stroke="#00f" fill="#00f">
 </g>
 <g transform="translate(96.06345,60.43846)">
 <g fill="#00f">
 <text style="stroke:none" transform="scale(1,-1) translate(2.5,0)" text-anchor="middle"  font-size="10"> 
<g fill="#00f">
 <g stroke="none"> 2</g> </g>
 </text> 
</g>
 </g>
 </g>
 <g fill="#00f">
 <g fill="#00f">
 <path d=" M 149.84517 28.45274 C 149.84517 29.55733 148.94975 30.45274 147.84517 30.45274 C 146.74059 30.45274 145.84517 29.55733 145.84517 28.45274 C 145.84517 27.34816 146.74059 26.45274 147.84517 26.45274 C 148.94975 26.45274 149.84517 27.34816 149.84517 28.45274 Z M 147.84517 28.45274  " stroke="none"/>
 </g>
 <g transform="translate(147.84517,28.45274)">
 <g fill="#000">
 <text style="stroke:none" transform="scale(1,-1) translate(0.0,0)" text-anchor="middle"  font-size="10"> 
<g fill="#000">
 <g stroke="none"> </g> </g>
 </text> 
</g>
 </g>
 </g>
 <g stroke="#00f" fill="#00f">
 <g stroke="#00f" fill="#00f">
 </g>
 <g transform="translate(145.34517,31.98572)">
 <g fill="#00f">
 <text style="stroke:none" transform="scale(1,-1) translate(2.5,0)" text-anchor="middle"  font-size="10"> 
<g fill="#00f">
 <g stroke="none"> 3</g> </g>
 </text> 
</g>
 </g>
 </g>
 <g fill="#00f">
 <g fill="#00f">
 <path d=" M 100.56345 0.0 C 100.56345 1.10458 99.66803 2.0 98.56345 2.0 C 97.45886 2.0 96.56345 1.10458 96.56345 0.0 C 96.56345 -1.10458 97.45886 -2.0 98.56345 -2.0 C 99.66803 -2.0 100.56345 -1.10458 100.56345 0.0 Z M 98.56345 0.0  " stroke="none"/>
 </g>
 <g transform="translate(98.56345,0.0)">
 <g fill="#000">
 <text style="stroke:none" transform="scale(1,-1) translate(0.0,0)" text-anchor="middle"  font-size="10"> 
<g fill="#000">
 <g stroke="none"> </g> </g>
 </text> 
</g>
 </g>
 </g>
 <g stroke="#00f" fill="#00f">
 <g stroke="#00f" fill="#00f">
 </g>
 <g transform="translate(90.03047,-3.22221)">
 <g fill="#00f">
 <text style="stroke:none" transform="scale(1,-1) translate(2.5,0)" text-anchor="middle"  font-size="10"> 
<g fill="#00f">
 <g stroke="none"> 7</g> </g>
 </text> 
</g>
 </g>
 </g>
 <g fill="#00f">
 <g fill="#00f">
 <path d=" M 149.84517 -28.45274 C 149.84517 -27.34816 148.94975 -26.45274 147.84517 -26.45274 C 146.74059 -26.45274 145.84517 -27.34816 145.84517 -28.45274 C 145.84517 -29.55733 146.74059 -30.45274 147.84517 -30.45274 C 148.94975 -30.45274 149.84517 -29.55733 149.84517 -28.45274 Z M 147.84517 -28.45274  " stroke="none"/>
 </g>
 <g transform="translate(147.84517,-28.45274)">
 <g fill="#000">
 <text style="stroke:none" transform="scale(1,-1) translate(0.0,0)" text-anchor="middle"  font-size="10"> 
<g fill="#000">
 <g stroke="none"> </g> </g>
 </text> 
</g>
 </g>
 </g>
 <g stroke="#00f" fill="#00f">
 <g stroke="#00f" fill="#00f">
 </g>
 <g transform="translate(145.34517,-38.43015)">
 <g fill="#00f">
 <text style="stroke:none" transform="scale(1,-1) translate(2.5,0)" text-anchor="middle"  font-size="10"> 
<g fill="#00f">
 <g stroke="none"> 4</g> </g>
 </text> 
</g>
 </g>
 </g>
 <g fill="#00f">
 <g fill="#00f">
 <path d=" M 100.56345 -56.90549 C 100.56345 -55.8009 99.66803 -54.90549 98.56345 -54.90549 C 97.45886 -54.90549 96.56345 -55.8009 96.56345 -56.90549 C 96.56345 -58.01007 97.45886 -58.90549 98.56345 -58.90549 C 99.66803 -58.90549 100.56345 -58.01007 100.56345 -56.90549 Z M 98.56345 -56.90549  " stroke="none"/>
 </g>
 <g transform="translate(98.56345,-56.90549)">
 <g fill="#000">
 <text style="stroke:none" transform="scale(1,-1) translate(0.0,0)" text-anchor="middle"  font-size="10"> 
<g fill="#000">
 <g stroke="none"> </g> </g>
 </text> 
</g>
 </g>
 </g>
 <g stroke="#00f" fill="#00f">
 <g stroke="#00f" fill="#00f">
 </g>
 <g transform="translate(96.06345,-66.88289)">
 <g fill="#00f">
 <text style="stroke:none" transform="scale(1,-1) translate(2.5,0)" text-anchor="middle"  font-size="10"> 
<g fill="#00f">
 <g stroke="none"> 5</g> </g>
 </text> 
</g>
 </g>
 </g>
 <g fill="#00f">
 <g fill="#00f">
 <path d=" M 199.12689 56.90549 C 199.12689 58.01007 198.23148 58.90549 197.12689 58.90549 C 196.02231 58.90549 195.12689 58.01007 195.12689 56.90549 C 195.12689 55.8009 196.02231 54.90549 197.12689 54.90549 C 198.23148 54.90549 199.12689 55.8009 199.12689 56.90549 Z M 197.12689 56.90549  " stroke="none"/>
 </g>
 <g transform="translate(197.12689,56.90549)">
 <g fill="#000">
 <text style="stroke:none" transform="scale(1,-1) translate(0.0,0)" text-anchor="middle"  font-size="10"> 
<g fill="#000">
 <g stroke="none"> </g> </g>
 </text> 
</g>
 </g>
 </g>
 <g stroke="#00f" fill="#00f">
 <g stroke="#00f" fill="#00f">
 </g>
 <g transform="translate(194.62689,60.43846)">
 <g fill="#00f">
 <text style="stroke:none" transform="scale(1,-1) translate(2.5,0)" text-anchor="middle"  font-size="10"> 
<g fill="#00f">
 <g stroke="none"> 8</g> </g>
 </text> 
</g>
 </g>
 </g>
 <g fill="#00f">
 <g fill="#00f">
 <path d=" M 199.12689 0.0 C 199.12689 1.10458 198.23148 2.0 197.12689 2.0 C 196.02231 2.0 195.12689 1.10458 195.12689 0.0 C 195.12689 -1.10458 196.02231 -2.0 197.12689 -2.0 C 198.23148 -2.0 199.12689 -1.10458 199.12689 0.0 Z M 197.12689 0.0  " stroke="none"/>
 </g>
 <g transform="translate(197.12689,0.0)">
 <g fill="#000">
 <text style="stroke:none" transform="scale(1,-1) translate(0.0,0)" text-anchor="middle"  font-size="10"> 
<g fill="#000">
 <g stroke="none"> </g> </g>
 </text> 
</g>
 </g>
 </g>
 <g stroke="#00f" fill="#00f">
 <g stroke="#00f" fill="#00f">
 </g>
 <g transform="translate(200.65987,-3.22221)">
 <g fill="#00f">
 <text style="stroke:none" transform="scale(1,-1) translate(2.5,0)" text-anchor="middle"  font-size="10"> 
<g fill="#00f">
 <g stroke="none"> 9</g> </g>
 </text> 
</g>
 </g>
 </g>
 <g fill="#00f">
 <g fill="#00f">
 <path d=" M 199.12689 -56.90549 C 199.12689 -55.8009 198.23148 -54.90549 197.12689 -54.90549 C 196.02231 -54.90549 195.12689 -55.8009 195.12689 -56.90549 C 195.12689 -58.01007 196.02231 -58.90549 197.12689 -58.90549 C 198.23148 -58.90549 199.12689 -58.01007 199.12689 -56.90549 Z M 197.12689 -56.90549  " stroke="none"/>
 </g>
 <g transform="translate(197.12689,-56.90549)">
 <g fill="#000">
 <text style="stroke:none" transform="scale(1,-1) translate(0.0,0)" text-anchor="middle"  font-size="10"> 
<g fill="#000">
 <g stroke="none"> </g> </g>
 </text> 
</g>
 </g>
 </g>
 <g stroke="#00f" fill="#00f">
 <g stroke="#00f" fill="#00f">
 </g>
 <g transform="translate(192.12688,-66.88289)">
 <g fill="#00f">
 <text style="stroke:none" transform="scale(1,-1) translate(5.00002,0)" text-anchor="middle"  font-size="10"> 
<g fill="#00f">
 <g stroke="none"> 10</g> </g>
 </text> 
</g>
 </g>
 </g>
 <g fill="#00f">
 <g fill="#00f">
 <path d=" M 346.97206 28.45274 C 346.97206 29.55733 346.07664 30.45274 344.97206 30.45274 C 343.86748 30.45274 342.97206 29.55733 342.97206 28.45274 C 342.97206 27.34816 343.86748 26.45274 344.97206 26.45274 C 346.07664 26.45274 346.97206 27.34816 346.97206 28.45274 Z M 344.97206 28.45274  " stroke="none"/>
 </g>
 <g transform="translate(344.97206,28.45274)">
 <g fill="#000">
 <text style="stroke:none" transform="scale(1,-1) translate(0.0,0)" text-anchor="middle"  font-size="10"> 
<g fill="#000">
 <g stroke="none"> </g> </g>
 </text> 
</g>
 </g>
 </g>
 <g stroke="#00f" fill="#00f">
 <g stroke="#00f" fill="#00f">
 </g>
 <g transform="translate(342.47206,31.98572)">
 <g fill="#00f">
 <text style="stroke:none" transform="scale(1,-1) translate(2.5,0)" text-anchor="middle"  font-size="10"> 
<g fill="#00f">
 <g stroke="none"> 3</g> </g>
 </text> 
</g>
 </g>
 </g>
 <g fill="#00f">
 <g fill="#00f">
 <path d=" M 346.97206 -28.45274 C 346.97206 -27.34816 346.07664 -26.45274 344.97206 -26.45274 C 343.86748 -26.45274 342.97206 -27.34816 342.97206 -28.45274 C 342.97206 -29.55733 343.86748 -30.45274 344.97206 -30.45274 C 346.07664 -30.45274 346.97206 -29.55733 346.97206 -28.45274 Z M 344.97206 -28.45274  " stroke="none"/>
 </g>
 <g transform="translate(344.97206,-28.45274)">
 <g fill="#000">
 <text style="stroke:none" transform="scale(1,-1) translate(0.0,0)" text-anchor="middle"  font-size="10"> 
<g fill="#000">
 <g stroke="none"> </g> </g>
 </text> 
</g>
 </g>
 </g>
 <g stroke="#00f" fill="#00f">
 <g stroke="#00f" fill="#00f">
 </g>
 <g transform="translate(342.47206,-38.43015)">
 <g fill="#00f">
 <text style="stroke:none" transform="scale(1,-1) translate(2.5,0)" text-anchor="middle"  font-size="10"> 
<g fill="#00f">
 <g stroke="none"> 4</g> </g>
 </text> 
</g>
 </g>
 </g>
 <g fill="#00f">
 <g fill="#00f">
 <path d=" M 396.25378 56.90549 C 396.25378 58.01007 395.35837 58.90549 394.25378 58.90549 C 393.1492 58.90549 392.25378 58.01007 392.25378 56.90549 C 392.25378 55.8009 393.1492 54.90549 394.25378 54.90549 C 395.35837 54.90549 396.25378 55.8009 396.25378 56.90549 Z M 394.25378 56.90549  " stroke="none"/>
 </g>
 <g transform="translate(394.25378,56.90549)">
 <g fill="#000">
 <text style="stroke:none" transform="scale(1,-1) translate(0.0,0)" text-anchor="middle"  font-size="10"> 
<g fill="#000">
 <g stroke="none"> </g> </g>
 </text> 
</g>
 </g>
 </g>
 <g stroke="#00f" fill="#00f">
 <g stroke="#00f" fill="#00f">
 </g>
 <g transform="translate(389.25377,60.43846)">
 <g fill="#00f">
 <text style="stroke:none" transform="scale(1,-1) translate(5.00002,0)" text-anchor="middle"  font-size="10"> 
<g fill="#00f">
 <g stroke="none"> 11</g> </g>
 </text> 
</g>
 </g>
 </g>
 <g fill="#00f">
 <g fill="#00f">
 <path d=" M 396.25378 0.0 C 396.25378 1.10458 395.35837 2.0 394.25378 2.0 C 393.1492 2.0 392.25378 1.10458 392.25378 0.0 C 392.25378 -1.10458 393.1492 -2.0 394.25378 -2.0 C 395.35837 -2.0 396.25378 -1.10458 396.25378 0.0 Z M 394.25378 0.0  " stroke="none"/>
 </g>
 <g transform="translate(394.25378,0.0)">
 <g fill="#000">
 <text style="stroke:none" transform="scale(1,-1) translate(0.0,0)" text-anchor="middle"  font-size="10"> 
<g fill="#000">
 <g stroke="none"> </g> </g>
 </text> 
</g>
 </g>
 </g>
 <g stroke="#00f" fill="#00f">
 <g stroke="#00f" fill="#00f">
 </g>
 <g transform="translate(397.78676,-3.22221)">
 <g fill="#00f">
 <text style="stroke:none" transform="scale(1,-1) translate(5.00002,0)" text-anchor="middle"  font-size="10"> 
<g fill="#00f">
 <g stroke="none"> 12</g> </g>
 </text> 
</g>
 </g>
 </g>
 <g fill="#00f">
 <g fill="#00f">
 <path d=" M 396.25378 -56.90549 C 396.25378 -55.8009 395.35837 -54.90549 394.25378 -54.90549 C 393.1492 -54.90549 392.25378 -55.8009 392.25378 -56.90549 C 392.25378 -58.01007 393.1492 -58.90549 394.25378 -58.90549 C 395.35837 -58.90549 396.25378 -58.01007 396.25378 -56.90549 Z M 394.25378 -56.90549  " stroke="none"/>
 </g>
 <g transform="translate(394.25378,-56.90549)">
 <g fill="#000">
 <text style="stroke:none" transform="scale(1,-1) translate(0.0,0)" text-anchor="middle"  font-size="10"> 
<g fill="#000">
 <g stroke="none"> </g> </g>
 </text> 
</g>
 </g>
 </g>
 <g stroke="#00f" fill="#00f">
 <g stroke="#00f" fill="#00f">
 </g>
 <g transform="translate(389.25377,-66.88289)">
 <g fill="#00f">
 <text style="stroke:none" transform="scale(1,-1) translate(5.00002,0)" text-anchor="middle"  font-size="10"> 
<g fill="#00f">
 <g stroke="none"> 13</g> </g>
 </text> 
</g>
 </g>
 </g>
 <g fill="#f00">
 <g fill="#f00">
 <path d=" M 51.28172 28.45274 C 51.28172 29.55733 50.3863 30.45274 49.28172 30.45274 C 48.17714 30.45274 47.28172 29.55733 47.28172 28.45274 C 47.28172 27.34816 48.17714 26.45274 49.28172 26.45274 C 50.3863 26.45274 51.28172 27.34816 51.28172 28.45274 Z M 49.28172 28.45274  " stroke="none"/>
 </g>
 <g transform="translate(49.28172,28.45274)">
 <g fill="#000">
 <text style="stroke:none" transform="scale(1,-1) translate(0.0,0)" text-anchor="middle"  font-size="10"> 
<g fill="#000">
 <g stroke="none"> </g> </g>
 </text> 
</g>
 </g>
 </g>
 <g stroke="#00f" fill="#00f">
 <g stroke="#00f" fill="#00f">
 </g>
 <g transform="translate(40.74875,25.23053)">
 <g fill="#00f">
 <text style="stroke:none" transform="scale(1,-1) translate(2.5,0)" text-anchor="middle"  font-size="10"> 
<g fill="#00f">
 <g stroke="none"> 1</g> </g>
 </text> 
</g>
 </g>
 </g>
 <g fill="#f00">
 <g fill="#f00">
 <path d=" M 51.28172 -28.45274 C 51.28172 -27.34816 50.3863 -26.45274 49.28172 -26.45274 C 48.17714 -26.45274 47.28172 -27.34816 47.28172 -28.45274 C 47.28172 -29.55733 48.17714 -30.45274 49.28172 -30.45274 C 50.3863 -30.45274 51.28172 -29.55733 51.28172 -28.45274 Z M 49.28172 -28.45274  " stroke="none"/>
 </g>
 <g transform="translate(49.28172,-28.45274)">
 <g fill="#000">
 <text style="stroke:none" transform="scale(1,-1) translate(0.0,0)" text-anchor="middle"  font-size="10"> 
<g fill="#000">
 <g stroke="none"> </g> </g>
 </text> 
</g>
 </g>
 </g>
 <g stroke="#00f" fill="#00f">
 <g stroke="#00f" fill="#00f">
 </g>
 <g transform="translate(40.74875,-31.67496)">
 <g fill="#00f">
 <text style="stroke:none" transform="scale(1,-1) translate(2.5,0)" text-anchor="middle"  font-size="10"> 
<g fill="#00f">
 <g stroke="none"> 6</g> </g>
 </text> 
</g>
 </g>
 </g>
 <g fill="#f00">
 <g fill="#f00">
 <path d=" M 248.40862 28.45274 C 248.40862 29.55733 247.5132 30.45274 246.40862 30.45274 C 245.30403 30.45274 244.40862 29.55733 244.40862 28.45274 C 244.40862 27.34816 245.30403 26.45274 246.40862 26.45274 C 247.5132 26.45274 248.40862 27.34816 248.40862 28.45274 Z M 246.40862 28.45274  " stroke="none"/>
 </g>
 <g transform="translate(246.40862,28.45274)">
 <g fill="#000">
 <text style="stroke:none" transform="scale(1,-1) translate(0.0,0)" text-anchor="middle"  font-size="10"> 
<g fill="#000">
 <g stroke="none"> </g> </g>
 </text> 
</g>
 </g>
 </g>
 <g stroke="#00f" fill="#00f">
 <g stroke="#00f" fill="#00f">
 </g>
 <g transform="translate(249.94159,25.23053)">
 <g fill="#00f">
 <text style="stroke:none" transform="scale(1,-1) translate(2.5,0)" text-anchor="middle"  font-size="10"> 
<g fill="#00f">
 <g stroke="none"> 1</g> </g>
 </text> 
</g>
 </g>
 </g>
 <g fill="#f00">
 <g fill="#f00">
 <path d=" M 248.40862 -28.45274 C 248.40862 -27.34816 247.5132 -26.45274 246.40862 -26.45274 C 245.30403 -26.45274 244.40862 -27.34816 244.40862 -28.45274 C 244.40862 -29.55733 245.30403 -30.45274 246.40862 -30.45274 C 247.5132 -30.45274 248.40862 -29.55733 248.40862 -28.45274 Z M 246.40862 -28.45274  " stroke="none"/>
 </g>
 <g transform="translate(246.40862,-28.45274)">
 <g fill="#000">
 <text style="stroke:none" transform="scale(1,-1) translate(0.0,0)" text-anchor="middle"  font-size="10"> 
<g fill="#000">
 <g stroke="none"> </g> </g>
 </text> 
</g>
 </g>
 </g>
 <g stroke="#00f" fill="#00f">
 <g stroke="#00f" fill="#00f">
 </g>
 <g transform="translate(249.94159,-31.67496)">
 <g fill="#00f">
 <text style="stroke:none" transform="scale(1,-1) translate(2.5,0)" text-anchor="middle"  font-size="10"> 
<g fill="#00f">
 <g stroke="none"> 6</g> </g>
 </text> 
</g>
 </g>
 </g>
 <g fill="#f00">
 <g fill="#f00">
 <path d=" M 445.5355 28.45274 C 445.5355 29.55733 444.64009 30.45274 443.5355 30.45274 C 442.43092 30.45274 441.5355 29.55733 441.5355 28.45274 C 441.5355 27.34816 442.43092 26.45274 443.5355 26.45274 C 444.64009 26.45274 445.5355 27.34816 445.5355 28.45274 Z M 443.5355 28.45274  " stroke="none"/>
 </g>
 <g transform="translate(443.5355,28.45274)">
 <g fill="#000">
 <text style="stroke:none" transform="scale(1,-1) translate(0.0,0)" text-anchor="middle"  font-size="10"> 
<g fill="#000">
 <g stroke="none"> </g> </g>
 </text> 
</g>
 </g>
 </g>
 <g stroke="#00f" fill="#00f">
 <g stroke="#00f" fill="#00f">
 </g>
 <g transform="translate(447.06848,25.23053)">
 <g fill="#00f">
 <text style="stroke:none" transform="scale(1,-1) translate(2.5,0)" text-anchor="middle"  font-size="10"> 
<g fill="#00f">
 <g stroke="none"> 1</g> </g>
 </text> 
</g>
 </g>
 </g>
 <g fill="#f00">
 <g fill="#f00">
 <path d=" M 445.5355 -28.45274 C 445.5355 -27.34816 444.64009 -26.45274 443.5355 -26.45274 C 442.43092 -26.45274 441.5355 -27.34816 441.5355 -28.45274 C 441.5355 -29.55733 442.43092 -30.45274 443.5355 -30.45274 C 444.64009 -30.45274 445.5355 -29.55733 445.5355 -28.45274 Z M 443.5355 -28.45274  " stroke="none"/>
 </g>
 <g transform="translate(443.5355,-28.45274)">
 <g fill="#000">
 <text style="stroke:none" transform="scale(1,-1) translate(0.0,0)" text-anchor="middle"  font-size="10"> 
<g fill="#000">
 <g stroke="none"> </g> </g>
 </text> 
</g>
 </g>
 </g>
 <g stroke="#00f" fill="#00f">
 <g stroke="#00f" fill="#00f">
 </g>
 <g transform="translate(447.06848,-31.67496)">
 <g fill="#00f">
 <text style="stroke:none" transform="scale(1,-1) translate(2.5,0)" text-anchor="middle"  font-size="10"> 
<g fill="#00f">
 <g stroke="none"> 6</g> </g>
 </text> 
</g>
 </g>
 </g>
 </g>
 </g>
 
                                                                                </g> 
</svg> 
