<?xml version="1.0" encoding="UTF-8"?>
<svg xmlns="http://www.w3.org/2000/svg" xmlns:xlink="http://www.w3.org/1999/xlink" width="149.743pt" height="87.382pt" viewBox="0 0 149.743 87.382" version="1.2">
<g id="surface1">
<path style="fill-rule:nonzero;fill:rgb(100%,96.939087%,40.000916%);fill-opacity:1;stroke-width:0.3985;stroke-linecap:butt;stroke-linejoin:round;stroke:rgb(0%,0%,0%);stroke-opacity:1;stroke-miterlimit:10;" d="M 0.00170683 0.00189385 L -45.35589 -17.008188 L -68.030754 28.345474 Z M 0.00170683 0.00189385 L -68.030754 28.345474 L -28.345808 56.692989 Z M 0.00170683 0.00189385 " transform="matrix(0.992977,0,0,-0.992977,74.744399,63.087818)"/>
<path style="fill-rule:nonzero;fill:rgb(100%,96.939087%,40.000916%);fill-opacity:1;stroke-width:0.3985;stroke-linecap:butt;stroke-linejoin:round;stroke:rgb(0%,0%,0%);stroke-opacity:1;stroke-miterlimit:10;" d="M 0.00170683 0.00189385 L 28.345287 56.692989 L 68.030234 28.345474 Z M 0.00170683 0.00189385 L 68.030234 28.345474 L 45.355369 -17.008188 Z M 0.00170683 0.00189385 " transform="matrix(0.992977,0,0,-0.992977,74.744399,63.087818)"/>
<path style=" stroke:none;fill-rule:nonzero;fill:rgb(0%,0%,100%);fill-opacity:1;" d="M 76.722656 63.085938 C 76.722656 61.996094 75.835938 61.109375 74.746094 61.109375 C 73.652344 61.109375 72.765625 61.996094 72.765625 63.085938 C 72.765625 64.179688 73.652344 65.066406 74.746094 65.066406 C 75.835938 65.066406 76.722656 64.179688 76.722656 63.085938 Z M 76.722656 63.085938 "/>
<path style=" stroke:none;fill-rule:nonzero;fill:rgb(0%,0%,100%);fill-opacity:1;" d="M 48.574219 6.792969 C 48.574219 5.699219 47.6875 4.8125 46.597656 4.8125 C 45.503906 4.8125 44.617188 5.699219 44.617188 6.792969 C 44.617188 7.886719 45.503906 8.769531 46.597656 8.769531 C 47.6875 8.769531 48.574219 7.886719 48.574219 6.792969 Z M 48.574219 6.792969 "/>
<path style=" stroke:none;fill-rule:nonzero;fill:rgb(0%,0%,100%);fill-opacity:1;" d="M 9.167969 34.941406 C 9.167969 33.847656 8.28125 32.960938 7.191406 32.960938 C 6.097656 32.960938 5.210938 33.847656 5.210938 34.941406 C 5.210938 36.03125 6.097656 36.917969 7.191406 36.917969 C 8.28125 36.917969 9.167969 36.03125 9.167969 34.941406 Z M 9.167969 34.941406 "/>
<path style=" stroke:none;fill-rule:nonzero;fill:rgb(0%,0%,100%);fill-opacity:1;" d="M 31.6875 79.976562 C 31.6875 78.882812 30.800781 78 29.707031 78 C 28.613281 78 27.730469 78.882812 27.730469 79.976562 C 27.730469 81.070312 28.613281 81.957031 29.707031 81.957031 C 30.800781 81.957031 31.6875 81.070312 31.6875 79.976562 Z M 31.6875 79.976562 "/>
<path style=" stroke:none;fill-rule:nonzero;fill:rgb(0%,0%,100%);fill-opacity:1;" d="M 121.757812 79.976562 C 121.757812 78.882812 120.875 78 119.78125 78 C 118.6875 78 117.800781 78.882812 117.800781 79.976562 C 117.800781 81.070312 118.6875 81.957031 119.78125 81.957031 C 120.875 81.957031 121.757812 81.070312 121.757812 79.976562 Z M 121.757812 79.976562 "/>
<path style=" stroke:none;fill-rule:nonzero;fill:rgb(0%,0%,100%);fill-opacity:1;" d="M 144.277344 34.941406 C 144.277344 33.847656 143.390625 32.960938 142.296875 32.960938 C 141.207031 32.960938 140.320312 33.847656 140.320312 34.941406 C 140.320312 36.03125 141.207031 36.917969 142.296875 36.917969 C 143.390625 36.917969 144.277344 36.03125 144.277344 34.941406 Z M 144.277344 34.941406 "/>
<path style=" stroke:none;fill-rule:nonzero;fill:rgb(0%,0%,100%);fill-opacity:1;" d="M 104.871094 6.792969 C 104.871094 5.699219 103.984375 4.8125 102.890625 4.8125 C 101.800781 4.8125 100.914062 5.699219 100.914062 6.792969 C 100.914062 7.886719 101.800781 8.769531 102.890625 8.769531 C 103.984375 8.769531 104.871094 7.886719 104.871094 6.792969 Z M 104.871094 6.792969 "/>
</g>
</svg>
