<?xml version="1.0" encoding="iso-8859-1" standalone="no"?> 
<?xml-stylesheet href="_Wrapper__TIKZ_Surf10_Isosc3.css" type="text/css"?> 
<svg xmlns="http://www.w3.org/2000/svg" xmlns:xlink="http://www.w3.org/1999/xlink" width="196.10863pt" height="188.48639pt" viewBox="-42.27382 -69.55936 196.10863 188.48639 "> 
<g transform="translate(0,118.92703 ) scale(1,-1) translate(0,69.55936 )"> 
        <g stroke="#000" fill="#000">
 <g stroke-width="0.4">
 <g fill="#ff6">
 <path d=" M 45.52454 0.0 L 22.76184 64.38162 L 0.0 0.0 Z  " stroke="none"/>
 </g>
 <g transform="translate(20.26175,18.23799)">
 <g fill="#000">
 <text style="stroke:none" transform="scale(1,-1) translate(2.5,0)" text-anchor="middle"  font-size="10"> 
<g fill="#000">
 <g stroke="none"> 1</g> </g>
 </text> 
</g>
 </g>
 <g fill="#ff6">
 <path d=" M 0.0 0.0 L 22.76184 -64.38162 L 45.52454 0.0 Z  " stroke="none"/>
 </g>
 <g transform="translate(20.26175,-24.68242)">
 <g fill="#000">
 <text style="stroke:none" transform="scale(1,-1) translate(2.5,0)" text-anchor="middle"  font-size="10"> 
<g fill="#000">
 <g stroke="none"> 2</g> </g>
 </text> 
</g>
 </g>
 <g fill="#ff6">
 <path d=" M 22.76184 64.38162 L -35.40787 28.61423 L 0.0 0.0 Z  " stroke="none"/>
 </g>
 <g transform="translate(-6.71527,27.77592)">
 <g fill="#000">
 <text style="stroke:none" transform="scale(1,-1) translate(2.5,0)" text-anchor="middle"  font-size="10"> 
<g fill="#000">
 <g stroke="none"> 3</g> </g>
 </text> 
</g>
 </g>
 <g fill="#ff6">
 <path d=" M 0.0 0.0 L -35.40787 -28.61423 L 22.76184 -64.38162 Z  " stroke="none"/>
 </g>
 <g transform="translate(-6.71527,-34.22035)">
 <g fill="#000">
 <text style="stroke:none" transform="scale(1,-1) translate(2.5,0)" text-anchor="middle"  font-size="10"> 
<g fill="#000">
 <g stroke="none"> 4</g> </g>
 </text> 
</g>
 </g>
 <g fill="#ff6">
 <path d=" M 80.93243 28.61423 L 90.48645 73.1246 L 22.76184 64.38162 Z  " stroke="none"/>
 </g>
 <g transform="translate(62.22589,52.1504)">
 <g fill="#000">
 <text style="stroke:none" transform="scale(1,-1) translate(2.5,0)" text-anchor="middle"  font-size="10"> 
<g fill="#000">
 <g stroke="none"> 5</g> </g>
 </text> 
</g>
 </g>
 <g fill="#ff6">
 <path d=" M 80.93243 28.61423 L 148.65707 37.35724 L 90.48645 73.1246 Z  " stroke="none"/>
 </g>
 <g transform="translate(104.19034,43.14241)">
 <g fill="#000">
 <text style="stroke:none" transform="scale(1,-1) translate(2.5,0)" text-anchor="middle"  font-size="10"> 
<g fill="#000">
 <g stroke="none"> 6</g> </g>
 </text> 
</g>
 </g>
 <g fill="#ff6">
 <path d=" M 45.52454 0.0 L 80.93243 28.61423 L 22.76184 64.38162 Z  " stroke="none"/>
 </g>
 <g transform="translate(47.23883,27.77592)">
 <g fill="#000">
 <text style="stroke:none" transform="scale(1,-1) translate(2.5,0)" text-anchor="middle"  font-size="10"> 
<g fill="#000">
 <g stroke="none"> 7</g> </g>
 </text> 
</g>
 </g>
 <g fill="#ff6">
 <path d=" M 45.52454 0.0 L 103.6943 -35.76736 L 80.93243 28.61423 Z  " stroke="none"/>
 </g>
 <g transform="translate(74.21591,-5.60655)">
 <g fill="#000">
 <text style="stroke:none" transform="scale(1,-1) translate(2.5,0)" text-anchor="middle"  font-size="10"> 
<g fill="#000">
 <g stroke="none"> 8</g> </g>
 </text> 
</g>
 </g>
 <g fill="#ff6">
 <path d=" M 90.48645 73.1246 L 69.9414 113.7493 L 22.76184 64.38162 Z  " stroke="none"/>
 </g>
 <g transform="translate(58.56229,80.52834)">
 <g fill="#000">
 <text style="stroke:none" transform="scale(1,-1) translate(2.5,0)" text-anchor="middle"  font-size="10"> 
<g fill="#000">
 <g stroke="none"> 9</g> </g>
 </text> 
</g>
 </g>
 <g fill="#ff6">
 <path d=" M 148.65707 37.35724 L 125.89435 101.738 L 90.48645 73.1246 Z  " stroke="none"/>
 </g>
 <g transform="translate(116.67741,67.51665)">
 <g fill="#000">
 <text style="stroke:none" transform="scale(1,-1) translate(5.00002,0)" text-anchor="middle"  font-size="10"> 
<g fill="#000">
 <g stroke="none"> 10</g> </g>
 </text> 
</g>
 </g>
 <g stroke-width="0.2">
 <g stroke-linejoin="round">
 <g stroke-width="1.2">
 <path d=" M 45.52454 0.0 L 0.0 0.0  " fill="none"/>
 <g stroke-width="0.8">
 <g stroke="#00f">
 <path d=" M 45.52454 0.0 L 0.0 0.0  " fill="none"/>
 </g>
 </g>
 </g>
 <g fill="#ccf">
 <g fill="#ccf">
 <path d=" M 17.1168 -6.23297 h 11.29092 v 12.46594 h -11.29092 Z  " stroke="none"/>
 </g>
 <g transform="translate(20.44978,-2.9)">
 <g fill="#000">
 <text style="stroke:none" transform="scale(1,-1) translate(2.31248,0)" text-anchor="middle"  font-size="10"> 
<g fill="#000">
 <g stroke="none"> <tspan font-family="cmr" font-size="9">1</tspan> </g> </g>
 </text> 
</g>
 </g>
 </g>
 </g>
 </g>
 <g stroke-width="0.2">
 <g stroke-linejoin="round">
 <g stroke-width="1.2">
 <path d=" M 0.0 0.0 L 22.76184 64.38162  " fill="none"/>
 <g stroke-width="0.8">
 <g stroke="#f00">
 <path d=" M 0.0 0.0 L 22.76184 64.38162  " fill="none"/>
 </g>
 </g>
 </g>
 <g fill="#ccf">
 <g fill="#ccf">
 <path d=" M 5.73546 25.95782 h 11.29092 v 12.46594 h -11.29092 Z  " stroke="none"/>
 </g>
 <g transform="translate(9.06844,29.2908)">
 <g fill="#000">
 <text style="stroke:none" transform="scale(1,-1) translate(2.31248,0)" text-anchor="middle"  font-size="10"> 
<g fill="#000">
 <g stroke="none"> <tspan font-family="cmr" font-size="9">2</tspan> </g> </g>
 </text> 
</g>
 </g>
 </g>
 </g>
 </g>
 <g stroke-width="0.2">
 <g stroke-linejoin="round">
 <g stroke-width="1.2">
 <path d=" M 22.76184 -64.38162 L 0.0 0.0  " fill="none"/>
 <g stroke-width="0.8">
 <g stroke="#f00">
 <path d=" M 22.76184 -64.38162 L 0.0 0.0  " fill="none"/>
 </g>
 </g>
 </g>
 <g fill="#ccf">
 <g fill="#ccf">
 <path d=" M 5.73546 -38.4238 h 11.29092 v 12.46594 h -11.29092 Z  " stroke="none"/>
 </g>
 <g transform="translate(9.06844,-35.09082)">
 <g fill="#000">
 <text style="stroke:none" transform="scale(1,-1) translate(2.31248,0)" text-anchor="middle"  font-size="10"> 
<g fill="#000">
 <g stroke="none"> <tspan font-family="cmr" font-size="9">3</tspan> </g> </g>
 </text> 
</g>
 </g>
 </g>
 </g>
 </g>
 <g stroke-width="0.2">
 <g stroke-linejoin="round">
 <g stroke-width="1.2">
 <path d=" M 0.0 0.0 L -35.40787 28.61423  " fill="none"/>
 <g stroke-width="0.8">
 <g stroke="#00f">
 <path d=" M 0.0 0.0 L -35.40787 28.61423  " fill="none"/>
 </g>
 </g>
 </g>
 <g fill="#ccf">
 <g fill="#ccf">
 <path d=" M -23.34938 8.07413 h 11.29092 v 12.46594 h -11.29092 Z  " stroke="none"/>
 </g>
 <g transform="translate(-20.0164,11.4071)">
 <g fill="#000">
 <text style="stroke:none" transform="scale(1,-1) translate(2.31248,0)" text-anchor="middle"  font-size="10"> 
<g fill="#000">
 <g stroke="none"> <tspan font-family="cmr" font-size="9">4</tspan> </g> </g>
 </text> 
</g>
 </g>
 </g>
 </g>
 </g>
 <g stroke-width="0.2">
 <g stroke-linejoin="round">
 <g stroke-width="1.2">
 <path d=" M -35.40787 -28.61423 L 0.0 0.0  " fill="none"/>
 <g stroke-width="0.8">
 <g stroke="#00f">
 <path d=" M -35.40787 -28.61423 L 0.0 0.0  " fill="none"/>
 </g>
 </g>
 </g>
 <g fill="#ccf">
 <g fill="#ccf">
 <path d=" M -23.34941 -20.5401 h 11.29092 v 12.46594 h -11.29092 Z  " stroke="none"/>
 </g>
 <g transform="translate(-20.01643,-17.20712)">
 <g fill="#000">
 <text style="stroke:none" transform="scale(1,-1) translate(2.31248,0)" text-anchor="middle"  font-size="10"> 
<g fill="#000">
 <g stroke="none"> <tspan font-family="cmr" font-size="9">4</tspan> </g> </g>
 </text> 
</g>
 </g>
 </g>
 </g>
 </g>
 <g stroke-width="0.2">
 <g stroke-linejoin="round">
 <g stroke-width="1.2">
 <path d=" M 90.48645 73.1246 L 80.93243 28.61423  " fill="none"/>
 <g stroke-width="0.8">
 <g stroke="#00f">
 <path d=" M 90.48645 73.1246 L 80.93243 28.61423  " fill="none"/>
 </g>
 </g>
 </g>
 <g fill="#ccf">
 <g fill="#ccf">
 <path d=" M 80.06398 44.63644 h 11.29092 v 12.46594 h -11.29092 Z  " stroke="none"/>
 </g>
 <g transform="translate(83.39696,47.96942)">
 <g fill="#000">
 <text style="stroke:none" transform="scale(1,-1) translate(2.31248,0)" text-anchor="middle"  font-size="10"> 
<g fill="#000">
 <g stroke="none"> <tspan font-family="cmr" font-size="9">5</tspan> </g> </g>
 </text> 
</g>
 </g>
 </g>
 </g>
 </g>
 <g stroke-width="0.2">
 <g stroke-linejoin="round">
 <g stroke-width="1.2">
 <path d=" M 80.93243 28.61423 L 45.52454 0.0  " fill="none"/>
 <g stroke-width="0.8">
 <g stroke="#00f">
 <path d=" M 80.93243 28.61423 L 45.52454 0.0  " fill="none"/>
 </g>
 </g>
 </g>
 <g fill="#ccf">
 <g fill="#ccf">
 <path d=" M 57.58302 8.07416 h 11.29092 v 12.46594 h -11.29092 Z  " stroke="none"/>
 </g>
 <g transform="translate(60.916,11.40714)">
 <g fill="#000">
 <text style="stroke:none" transform="scale(1,-1) translate(2.31248,0)" text-anchor="middle"  font-size="10"> 
<g fill="#000">
 <g stroke="none"> <tspan font-family="cmr" font-size="9">6</tspan> </g> </g>
 </text> 
</g>
 </g>
 </g>
 </g>
 </g>
 <g stroke-width="0.2">
 <g stroke-linejoin="round">
 <g stroke-width="1.2">
 <path d=" M 22.76184 64.38162 L 80.93243 28.61423  " fill="none"/>
 <g stroke-width="0.8">
 <g stroke="#f00">
 <path d=" M 22.76184 64.38162 L 80.93243 28.61423  " fill="none"/>
 </g>
 </g>
 </g>
 <g fill="#ccf">
 <g fill="#ccf">
 <path d=" M 46.20168 40.26495 h 11.29092 v 12.46594 h -11.29092 Z  " stroke="none"/>
 </g>
 <g transform="translate(49.53465,43.59793)">
 <g fill="#000">
 <text style="stroke:none" transform="scale(1,-1) translate(2.31248,0)" text-anchor="middle"  font-size="10"> 
<g fill="#000">
 <g stroke="none"> <tspan font-family="cmr" font-size="9">7</tspan> </g> </g>
 </text> 
</g>
 </g>
 </g>
 </g>
 </g>
 <g stroke-width="0.2">
 <g stroke-linejoin="round">
 <g stroke-width="1.2">
 <path d=" M 80.93243 28.61423 L 103.6943 -35.76736  " fill="none"/>
 <g stroke-width="0.8">
 <g stroke="#f00">
 <path d=" M 80.93243 28.61423 L 103.6943 -35.76736  " fill="none"/>
 </g>
 </g>
 </g>
 <g fill="#ccf">
 <g fill="#ccf">
 <path d=" M 86.6679 -9.80954 h 11.29092 v 12.46594 h -11.29092 Z  " stroke="none"/>
 </g>
 <g transform="translate(90.00087,-6.47656)">
 <g fill="#000">
 <text style="stroke:none" transform="scale(1,-1) translate(2.31248,0)" text-anchor="middle"  font-size="10"> 
<g fill="#000">
 <g stroke="none"> <tspan font-family="cmr" font-size="9">8</tspan> </g> </g>
 </text> 
</g>
 </g>
 </g>
 </g>
 </g>
 <g stroke-width="0.2">
 <g stroke-linejoin="round">
 <g stroke-width="1.2">
 <path d=" M 148.65707 37.35724 L 80.93243 28.61423  " fill="none"/>
 <g stroke-width="0.8">
 <g stroke="#f00">
 <path d=" M 148.65707 37.35724 L 80.93243 28.61423  " fill="none"/>
 </g>
 </g>
 </g>
 <g fill="#ccf">
 <g fill="#ccf">
 <path d=" M 109.1493 26.75278 h 11.29092 v 12.46594 h -11.29092 Z  " stroke="none"/>
 </g>
 <g transform="translate(112.48228,30.08575)">
 <g fill="#000">
 <text style="stroke:none" transform="scale(1,-1) translate(2.31248,0)" text-anchor="middle"  font-size="10"> 
<g fill="#000">
 <g stroke="none"> <tspan font-family="cmr" font-size="9">8</tspan> </g> </g>
 </text> 
</g>
 </g>
 </g>
 </g>
 </g>
 <g stroke-width="0.2">
 <g stroke-linejoin="round">
 <g stroke-width="1.2">
 <path d=" M 22.76184 64.38162 L 90.48645 73.1246  " fill="none"/>
 <g stroke-width="0.8">
 <g stroke="#f00">
 <path d=" M 22.76184 64.38162 L 90.48645 73.1246  " fill="none"/>
 </g>
 </g>
 </g>
 <g fill="#ccf">
 <g fill="#ccf">
 <path d=" M 50.97868 62.52014 h 11.29092 v 12.46594 h -11.29092 Z  " stroke="none"/>
 </g>
 <g transform="translate(54.31166,65.85312)">
 <g fill="#000">
 <text style="stroke:none" transform="scale(1,-1) translate(2.31248,0)" text-anchor="middle"  font-size="10"> 
<g fill="#000">
 <g stroke="none"> <tspan font-family="cmr" font-size="9">9</tspan> </g> </g>
 </text> 
</g>
 </g>
 </g>
 </g>
 </g>
 <g stroke-width="0.2">
 <g stroke-linejoin="round">
 <g stroke-width="1.2">
 <path d=" M 90.48645 73.1246 L 148.65707 37.35724  " fill="none"/>
 <g stroke-width="0.8">
 <g stroke="#f00">
 <path d=" M 90.48645 73.1246 L 148.65707 37.35724  " fill="none"/>
 </g>
 </g>
 </g>
 <g fill="#ccf">
 <g fill="#ccf">
 <path d=" M 111.6138 49.00797 h 15.9159 v 12.46594 h -15.9159 Z  " stroke="none"/>
 </g>
 <g transform="translate(114.94678,52.34094)">
 <g fill="#000">
 <text style="stroke:none" transform="scale(1,-1) translate(4.62497,0)" text-anchor="middle"  font-size="10"> 
<g fill="#000">
 <g stroke="none"> <tspan font-family="cmr" font-size="9">10</tspan> </g> </g>
 </text> 
</g>
 </g>
 </g>
 </g>
 </g>
 <g stroke-width="0.2">
 <g stroke-linejoin="round">
 <g stroke-width="1.2">
 <path d=" M 69.9414 113.7493 L 90.48645 73.1246  " fill="none"/>
 <g stroke-width="0.8">
 <g stroke="#00f">
 <path d=" M 69.9414 113.7493 L 90.48645 73.1246  " fill="none"/>
 </g>
 </g>
 </g>
 <g fill="#ccf">
 <g fill="#ccf">
 <path d=" M 72.25598 87.20398 h 15.9159 v 12.46594 h -15.9159 Z  " stroke="none"/>
 </g>
 <g transform="translate(75.58896,90.53696)">
 <g fill="#000">
 <text style="stroke:none" transform="scale(1,-1) translate(4.62497,0)" text-anchor="middle"  font-size="10"> 
<g fill="#000">
 <g stroke="none"> <tspan font-family="cmr" font-size="9">11</tspan> </g> </g>
 </text> 
</g>
 </g>
 </g>
 </g>
 </g>
 <g stroke-width="0.2">
 <g stroke-linejoin="round">
 <g stroke-width="1.2">
 <path d=" M 90.48645 73.1246 L 125.89435 101.738  " fill="none"/>
 <g stroke-width="0.8">
 <g stroke="#00f">
 <path d=" M 90.48645 73.1246 L 125.89435 101.738  " fill="none"/>
 </g>
 </g>
 </g>
 <g fill="#ccf">
 <g fill="#ccf">
 <path d=" M 100.23245 81.19833 h 15.9159 v 12.46594 h -15.9159 Z  " stroke="none"/>
 </g>
 <g transform="translate(103.56543,84.53131)">
 <g fill="#000">
 <text style="stroke:none" transform="scale(1,-1) translate(4.62497,0)" text-anchor="middle"  font-size="10"> 
<g fill="#000">
 <g stroke="none"> <tspan font-family="cmr" font-size="9">11</tspan> </g> </g>
 </text> 
</g>
 </g>
 </g>
 </g>
 </g>
 <g stroke-width="0.2">
 <g stroke-linejoin="round">
 <g stroke-width="1.2">
 <path d=" M 22.76184 64.38162 L 45.52454 0.0  " fill="none"/>
 <g stroke-width="0.8">
 <g stroke="#f00">
 <path d=" M 22.76184 64.38162 L 45.52454 0.0  " fill="none"/>
 </g>
 </g>
 </g>
 <g fill="#ccf">
 <g fill="#ccf">
 <path d=" M 26.18524 25.95786 h 15.9159 v 12.46594 h -15.9159 Z  " stroke="none"/>
 </g>
 <g transform="translate(29.51822,29.29083)">
 <g fill="#000">
 <text style="stroke:none" transform="scale(1,-1) translate(4.62497,0)" text-anchor="middle"  font-size="10"> 
<g fill="#000">
 <g stroke="none"> <tspan font-family="cmr" font-size="9">12</tspan> </g> </g>
 </text> 
</g>
 </g>
 </g>
 </g>
 </g>
 <g stroke-width="0.2">
 <g stroke-linejoin="round">
 <g stroke-width="1.2">
 <path d=" M 45.52454 0.0 L 22.76184 -64.38162  " fill="none"/>
 <g stroke-width="0.8">
 <g stroke="#f00">
 <path d=" M 45.52454 0.0 L 22.76184 -64.38162  " fill="none"/>
 </g>
 </g>
 </g>
 <g fill="#ccf">
 <g fill="#ccf">
 <path d=" M 26.18524 -38.42377 h 15.9159 v 12.46594 h -15.9159 Z  " stroke="none"/>
 </g>
 <g transform="translate(29.51822,-35.09079)">
 <g fill="#000">
 <text style="stroke:none" transform="scale(1,-1) translate(4.62497,0)" text-anchor="middle"  font-size="10"> 
<g fill="#000">
 <g stroke="none"> <tspan font-family="cmr" font-size="9">13</tspan> </g> </g>
 </text> 
</g>
 </g>
 </g>
 </g>
 </g>
 <g stroke-width="0.2">
 <g stroke-linejoin="round">
 <g stroke-width="1.2">
 <path d=" M 103.6943 -35.76736 L 45.52454 0.0  " fill="none"/>
 <g stroke-width="0.8">
 <g stroke="#f00">
 <path d=" M 103.6943 -35.76736 L 45.52454 0.0  " fill="none"/>
 </g>
 </g>
 </g>
 <g fill="#ccf">
 <g fill="#ccf">
 <path d=" M 66.65149 -24.11667 h 15.9159 v 12.46594 h -15.9159 Z  " stroke="none"/>
 </g>
 <g transform="translate(69.98447,-20.78369)">
 <g fill="#000">
 <text style="stroke:none" transform="scale(1,-1) translate(4.62497,0)" text-anchor="middle"  font-size="10"> 
<g fill="#000">
 <g stroke="none"> <tspan font-family="cmr" font-size="9">13</tspan> </g> </g>
 </text> 
</g>
 </g>
 </g>
 </g>
 </g>
 <g stroke-width="0.2">
 <g stroke-linejoin="round">
 <g stroke-width="1.2">
 <path d=" M -35.40787 28.61423 L 22.76184 64.38162  " fill="none"/>
 <g stroke-width="0.8">
 <g stroke="#f00">
 <path d=" M -35.40787 28.61423 L 22.76184 64.38162  " fill="none"/>
 </g>
 </g>
 </g>
 <g fill="#ccf">
 <g fill="#ccf">
 <path d=" M -14.28098 40.26495 h 15.9159 v 12.46594 h -15.9159 Z  " stroke="none"/>
 </g>
 <g transform="translate(-10.948,43.59793)">
 <g fill="#000">
 <text style="stroke:none" transform="scale(1,-1) translate(4.62497,0)" text-anchor="middle"  font-size="10"> 
<g fill="#000">
 <g stroke="none"> <tspan font-family="cmr" font-size="9">14</tspan> </g> </g>
 </text> 
</g>
 </g>
 </g>
 </g>
 </g>
 <g stroke-width="0.2">
 <g stroke-linejoin="round">
 <g stroke-width="1.2">
 <path d=" M 22.76184 64.38162 L 69.9414 113.7493  " fill="none"/>
 <g stroke-width="0.8">
 <g stroke="#f00">
 <path d=" M 22.76184 64.38162 L 69.9414 113.7493  " fill="none"/>
 </g>
 </g>
 </g>
 <g fill="#ccf">
 <g fill="#ccf">
 <path d=" M 38.39368 82.83249 h 15.9159 v 12.46594 h -15.9159 Z  " stroke="none"/>
 </g>
 <g transform="translate(41.72665,86.16547)">
 <g fill="#000">
 <text style="stroke:none" transform="scale(1,-1) translate(4.62497,0)" text-anchor="middle"  font-size="10"> 
<g fill="#000">
 <g stroke="none"> <tspan font-family="cmr" font-size="9">14</tspan> </g> </g>
 </text> 
</g>
 </g>
 </g>
 </g>
 </g>
 <g stroke-width="0.2">
 <g stroke-linejoin="round">
 <g stroke-width="1.2">
 <path d=" M 22.76184 -64.38162 L -35.40787 -28.61423  " fill="none"/>
 <g stroke-width="0.8">
 <g stroke="#f00">
 <path d=" M 22.76184 -64.38162 L -35.40787 -28.61423  " fill="none"/>
 </g>
 </g>
 </g>
 <g fill="#ccf">
 <g fill="#ccf">
 <path d=" M -14.28094 -52.7309 h 15.9159 v 12.46594 h -15.9159 Z  " stroke="none"/>
 </g>
 <g transform="translate(-10.94797,-49.39792)">
 <g fill="#000">
 <text style="stroke:none" transform="scale(1,-1) translate(4.62497,0)" text-anchor="middle"  font-size="10"> 
<g fill="#000">
 <g stroke="none"> <tspan font-family="cmr" font-size="9">15</tspan> </g> </g>
 </text> 
</g>
 </g>
 </g>
 </g>
 </g>
 <g stroke-width="0.2">
 <g stroke-linejoin="round">
 <g stroke-width="1.2">
 <path d=" M 125.89435 101.738 L 148.65707 37.35724  " fill="none"/>
 <g stroke-width="0.8">
 <g stroke="#f00">
 <path d=" M 125.89435 101.738 L 148.65707 37.35724  " fill="none"/>
 </g>
 </g>
 </g>
 <g fill="#ccf">
 <g fill="#ccf">
 <path d=" M 129.31775 63.31467 h 15.9159 v 12.46594 h -15.9159 Z  " stroke="none"/>
 </g>
 <g transform="translate(132.65073,66.64764)">
 <g fill="#000">
 <text style="stroke:none" transform="scale(1,-1) translate(4.62497,0)" text-anchor="middle"  font-size="10"> 
<g fill="#000">
 <g stroke="none"> <tspan font-family="cmr" font-size="9">15</tspan> </g> </g>
 </text> 
</g>
 </g>
 </g>
 </g>
 </g>
 <g fill="#e6e6e6">
 <g fill="#e6e6e6">
 <path d=" M 5.17773 0.0 C 5.17773 2.85962 2.85962 5.17773 0.0 5.17773 C -2.85962 5.17773 -5.17773 2.85962 -5.17773 0.0 C -5.17773 -2.85962 -2.85962 -5.17773 0.0 -5.17773 C 2.85962 -5.17773 5.17773 -2.85962 5.17773 0.0 Z M 0.0 0.0  " stroke="none"/>
 </g>
 <g transform="translate(-1.70142,-1.6111)">
 <g fill="#000">
 <text style="stroke:none" transform="scale(1,-1) translate(1.70142,0)" text-anchor="middle"  font-size="10"> 
<g fill="#000">
 <g stroke="none"> <tspan font-family="cmr" font-size="5">1</tspan> </g> </g>
 </text> 
</g>
 </g>
 </g>
 <g transform="translate(-3.53297,0.0)">
 <g fill="#000">
 <text style="stroke:none" transform="scale(1,-1) translate(0.0,0)" text-anchor="middle"  font-size="10"> 
<g fill="#000">
 <g stroke="none"> </g> </g>
 </text> 
</g>
 </g>
 <g fill="#e6e6e6">
 <g fill="#e6e6e6">
 <path d=" M 86.11017 28.61423 C 86.11017 31.47385 83.79205 33.79196 80.93243 33.79196 C 78.07281 33.79196 75.7547 31.47385 75.7547 28.61423 C 75.7547 25.75461 78.07281 23.4365 80.93243 23.4365 C 83.79205 23.4365 86.11017 25.75461 86.11017 28.61423 Z M 80.93243 28.61423  " stroke="none"/>
 </g>
 <g transform="translate(79.23102,27.00313)">
 <g fill="#000">
 <text style="stroke:none" transform="scale(1,-1) translate(1.70142,0)" text-anchor="middle"  font-size="10"> 
<g fill="#000">
 <g stroke="none"> <tspan font-family="cmr" font-size="5">2</tspan> </g> </g>
 </text> 
</g>
 </g>
 </g>
 <g transform="translate(77.39946,28.61423)">
 <g fill="#000">
 <text style="stroke:none" transform="scale(1,-1) translate(0.0,0)" text-anchor="middle"  font-size="10"> 
<g fill="#000">
 <g stroke="none"> </g> </g>
 </text> 
</g>
 </g>
 <g fill="#e6e6e6">
 <g fill="#e6e6e6">
 <path d=" M 95.66418 73.1246 C 95.66418 75.98422 93.34607 78.30234 90.48645 78.30234 C 87.62683 78.30234 85.30872 75.98422 85.30872 73.1246 C 85.30872 70.26498 87.62683 67.94687 90.48645 67.94687 C 93.34607 67.94687 95.66418 70.26498 95.66418 73.1246 Z M 90.48645 73.1246  " stroke="none"/>
 </g>
 <g transform="translate(88.78503,71.5135)">
 <g fill="#000">
 <text style="stroke:none" transform="scale(1,-1) translate(1.70142,0)" text-anchor="middle"  font-size="10"> 
<g fill="#000">
 <g stroke="none"> <tspan font-family="cmr" font-size="5">3</tspan> </g> </g>
 </text> 
</g>
 </g>
 </g>
 <g transform="translate(86.95348,73.1246)">
 <g fill="#000">
 <text style="stroke:none" transform="scale(1,-1) translate(0.0,0)" text-anchor="middle"  font-size="10"> 
<g fill="#000">
 <g stroke="none"> </g> </g>
 </text> 
</g>
 </g>
 <g fill="#e6e6e6">
 <g fill="#e6e6e6">
 <path d=" M 50.70227 0.0 C 50.70227 2.85962 48.38416 5.17773 45.52454 5.17773 C 42.66492 5.17773 40.3468 2.85962 40.3468 0.0 C 40.3468 -2.85962 42.66492 -5.17773 45.52454 -5.17773 C 48.38416 -5.17773 50.70227 -2.85962 50.70227 0.0 Z M 45.52454 0.0  " stroke="none"/>
 </g>
 <g transform="translate(43.82312,-1.6111)">
 <g fill="#000">
 <text style="stroke:none" transform="scale(1,-1) translate(1.70142,0)" text-anchor="middle"  font-size="10"> 
<g fill="#000">
 <g stroke="none"> <tspan font-family="cmr" font-size="5">4</tspan> </g> </g>
 </text> 
</g>
 </g>
 </g>
 <g transform="translate(41.99156,0.0)">
 <g fill="#000">
 <text style="stroke:none" transform="scale(1,-1) translate(0.0,0)" text-anchor="middle"  font-size="10"> 
<g fill="#000">
 <g stroke="none"> </g> </g>
 </text> 
</g>
 </g>
 <g fill="#e6e6e6">
 <g fill="#e6e6e6">
 <path d=" M 27.93958 64.38162 C 27.93958 67.24124 25.62146 69.55936 22.76184 69.55936 C 19.90222 69.55936 17.5841 67.24124 17.5841 64.38162 C 17.5841 61.522 19.90222 59.20389 22.76184 59.20389 C 25.62146 59.20389 27.93958 61.522 27.93958 64.38162 Z M 22.76184 64.38162  " stroke="none"/>
 </g>
 <g transform="translate(21.06042,62.77052)">
 <g fill="#000">
 <text style="stroke:none" transform="scale(1,-1) translate(1.70142,0)" text-anchor="middle"  font-size="10"> 
<g fill="#000">
 <g stroke="none"> <tspan font-family="cmr" font-size="5">5</tspan> </g> </g>
 </text> 
</g>
 </g>
 </g>
 <g transform="translate(19.22887,64.38162)">
 <g fill="#000">
 <text style="stroke:none" transform="scale(1,-1) translate(0.0,0)" text-anchor="middle"  font-size="10"> 
<g fill="#000">
 <g stroke="none"> </g> </g>
 </text> 
</g>
 </g>
 <g fill="#e6e6e6">
 <g fill="#e6e6e6">
 <path d=" M 27.93958 -64.38162 C 27.93958 -61.522 25.62146 -59.20389 22.76184 -59.20389 C 19.90222 -59.20389 17.5841 -61.522 17.5841 -64.38162 C 17.5841 -67.24124 19.90222 -69.55936 22.76184 -69.55936 C 25.62146 -69.55936 27.93958 -67.24124 27.93958 -64.38162 Z M 22.76184 -64.38162  " stroke="none"/>
 </g>
 <g transform="translate(21.06042,-65.99272)">
 <g fill="#000">
 <text style="stroke:none" transform="scale(1,-1) translate(1.70142,0)" text-anchor="middle"  font-size="10"> 
<g fill="#000">
 <g stroke="none"> <tspan font-family="cmr" font-size="5">6</tspan> </g> </g>
 </text> 
</g>
 </g>
 </g>
 <g transform="translate(19.22887,-64.38162)">
 <g fill="#000">
 <text style="stroke:none" transform="scale(1,-1) translate(0.0,0)" text-anchor="middle"  font-size="10"> 
<g fill="#000">
 <g stroke="none"> </g> </g>
 </text> 
</g>
 </g>
 <g fill="#e6e6e6">
 <g fill="#e6e6e6">
 <path d=" M 108.87204 -35.76736 C 108.87204 -32.90775 106.55392 -30.58963 103.6943 -30.58963 C 100.83469 -30.58963 98.51657 -32.90775 98.51657 -35.76736 C 98.51657 -38.62698 100.83469 -40.9451 103.6943 -40.9451 C 106.55392 -40.9451 108.87204 -38.62698 108.87204 -35.76736 Z M 103.6943 -35.76736  " stroke="none"/>
 </g>
 <g transform="translate(101.99289,-37.37846)">
 <g fill="#000">
 <text style="stroke:none" transform="scale(1,-1) translate(1.70142,0)" text-anchor="middle"  font-size="10"> 
<g fill="#000">
 <g stroke="none"> <tspan font-family="cmr" font-size="5">6</tspan> </g> </g>
 </text> 
</g>
 </g>
 </g>
 <g transform="translate(100.16133,-35.76736)">
 <g fill="#000">
 <text style="stroke:none" transform="scale(1,-1) translate(0.0,0)" text-anchor="middle"  font-size="10"> 
<g fill="#000">
 <g stroke="none"> </g> </g>
 </text> 
</g>
 </g>
 <g fill="#e6e6e6">
 <g fill="#e6e6e6">
 <path d=" M 153.83481 37.35724 C 153.83481 40.21686 151.5167 42.53497 148.65707 42.53497 C 145.79745 42.53497 143.47934 40.21686 143.47934 37.35724 C 143.47934 34.49762 145.79745 32.1795 148.65707 32.1795 C 151.5167 32.1795 153.83481 34.49762 153.83481 37.35724 Z M 148.65707 37.35724  " stroke="none"/>
 </g>
 <g transform="translate(146.95566,35.74614)">
 <g fill="#000">
 <text style="stroke:none" transform="scale(1,-1) translate(1.70142,0)" text-anchor="middle"  font-size="10"> 
<g fill="#000">
 <g stroke="none"> <tspan font-family="cmr" font-size="5">6</tspan> </g> </g>
 </text> 
</g>
 </g>
 </g>
 <g transform="translate(145.1241,37.35724)">
 <g fill="#000">
 <text style="stroke:none" transform="scale(1,-1) translate(0.0,0)" text-anchor="middle"  font-size="10"> 
<g fill="#000">
 <g stroke="none"> </g> </g>
 </text> 
</g>
 </g>
 <g fill="#e6e6e6">
 <g fill="#e6e6e6">
 <path d=" M -30.23013 28.61423 C -30.23013 31.47385 -32.54825 33.79196 -35.40787 33.79196 C -38.26749 33.79196 -40.5856 31.47385 -40.5856 28.61423 C -40.5856 25.75461 -38.26749 23.4365 -35.40787 23.4365 C -32.54825 23.4365 -30.23013 25.75461 -30.23013 28.61423 Z M -35.40787 28.61423  " stroke="none"/>
 </g>
 <g transform="translate(-37.10928,27.00313)">
 <g fill="#000">
 <text style="stroke:none" transform="scale(1,-1) translate(1.70142,0)" text-anchor="middle"  font-size="10"> 
<g fill="#000">
 <g stroke="none"> <tspan font-family="cmr" font-size="5">7</tspan> </g> </g>
 </text> 
</g>
 </g>
 </g>
 <g transform="translate(-38.94084,28.61423)">
 <g fill="#000">
 <text style="stroke:none" transform="scale(1,-1) translate(0.0,0)" text-anchor="middle"  font-size="10"> 
<g fill="#000">
 <g stroke="none"> </g> </g>
 </text> 
</g>
 </g>
 <g fill="#e6e6e6">
 <g fill="#e6e6e6">
 <path d=" M -30.23013 -28.61423 C -30.23013 -25.75461 -32.54825 -23.4365 -35.40787 -23.4365 C -38.26749 -23.4365 -40.5856 -25.75461 -40.5856 -28.61423 C -40.5856 -31.47385 -38.26749 -33.79196 -35.40787 -33.79196 C -32.54825 -33.79196 -30.23013 -31.47385 -30.23013 -28.61423 Z M -35.40787 -28.61423  " stroke="none"/>
 </g>
 <g transform="translate(-37.10928,-30.22533)">
 <g fill="#000">
 <text style="stroke:none" transform="scale(1,-1) translate(1.70142,0)" text-anchor="middle"  font-size="10"> 
<g fill="#000">
 <g stroke="none"> <tspan font-family="cmr" font-size="5">7</tspan> </g> </g>
 </text> 
</g>
 </g>
 </g>
 <g transform="translate(-38.94084,-28.61423)">
 <g fill="#000">
 <text style="stroke:none" transform="scale(1,-1) translate(0.0,0)" text-anchor="middle"  font-size="10"> 
<g fill="#000">
 <g stroke="none"> </g> </g>
 </text> 
</g>
 </g>
 <g fill="#e6e6e6">
 <g fill="#e6e6e6">
 <path d=" M 75.11914 113.7493 C 75.11914 116.60892 72.80103 118.92703 69.9414 118.92703 C 67.08179 118.92703 64.76367 116.60892 64.76367 113.7493 C 64.76367 110.88968 67.08179 108.57156 69.9414 108.57156 C 72.80103 108.57156 75.11914 110.88968 75.11914 113.7493 Z M 69.9414 113.7493  " stroke="none"/>
 </g>
 <g transform="translate(68.23999,112.1382)">
 <g fill="#000">
 <text style="stroke:none" transform="scale(1,-1) translate(1.70142,0)" text-anchor="middle"  font-size="10"> 
<g fill="#000">
 <g stroke="none"> <tspan font-family="cmr" font-size="5">7</tspan> </g> </g>
 </text> 
</g>
 </g>
 </g>
 <g transform="translate(66.40843,113.7493)">
 <g fill="#000">
 <text style="stroke:none" transform="scale(1,-1) translate(0.0,0)" text-anchor="middle"  font-size="10"> 
<g fill="#000">
 <g stroke="none"> </g> </g>
 </text> 
</g>
 </g>
 <g fill="#e6e6e6">
 <g fill="#e6e6e6">
 <path d=" M 131.07208 101.738 C 131.07208 104.59763 128.75397 106.91574 125.89435 106.91574 C 123.03473 106.91574 120.71661 104.59763 120.71661 101.738 C 120.71661 98.87839 123.03473 96.56027 125.89435 96.56027 C 128.75397 96.56027 131.07208 98.87839 131.07208 101.738 Z M 125.89435 101.738  " stroke="none"/>
 </g>
 <g transform="translate(124.19293,100.1269)">
 <g fill="#000">
 <text style="stroke:none" transform="scale(1,-1) translate(1.70142,0)" text-anchor="middle"  font-size="10"> 
<g fill="#000">
 <g stroke="none"> <tspan font-family="cmr" font-size="5">7</tspan> </g> </g>
 </text> 
</g>
 </g>
 </g>
 <g transform="translate(122.36137,101.738)">
 <g fill="#000">
 <text style="stroke:none" transform="scale(1,-1) translate(0.0,0)" text-anchor="middle"  font-size="10"> 
<g fill="#000">
 <g stroke="none"> </g> </g>
 </text> 
</g>
 </g>
 </g>
 </g>
 
                                     </g> 
</svg> 
