<?xml version="1.0" encoding="iso-8859-1" standalone="no"?> 
<?xml-stylesheet href="_Wrapper_modification-4.css" type="text/css"?> 
<svg xmlns="http://www.w3.org/2000/svg" xmlns:xlink="http://www.w3.org/1999/xlink" width="165.9956pt" height="178.2778pt" viewBox="-82.9978 -89.1389 165.9956 178.2778 "> 
<g transform="translate(0,89.1389 ) scale(1,-1) translate(0,89.1389 )"> 
                <g stroke="#000" fill="#000">
 <g stroke-width="0.4">
 <g stroke-linejoin="round">
 <g stroke="#000">
 <g fill="#ff6">
 <path d=" M 0.0 14.22636 L 71.13185 0.0 L 35.56592 75.82852 Z M 0.0 -14.22636 L 71.13185 0.0 L 35.56592 -75.82852 Z  " />
 <g fill="#ccf">
 <g fill="#ccf">
 <path d=" M 27.60797 0.88022 h 15.9159 v 12.46594 h -15.9159 Z  " stroke="none"/>
 </g>
 <g transform="translate(30.94095,4.2132)">
 <g fill="#000">
 <text style="stroke:none" transform="scale(1,-1) translate(4.62497,0)" text-anchor="middle"  font-size="10"> 
<g fill="#000">
 <g stroke="none"> <tspan font-family="cmr" font-size="9">13</tspan></g> </g>
 </text> 
</g>
 </g>
 </g>
 <g fill="#ccf">
 <g fill="#ccf">
 <path d=" M 47.70343 31.68129 h 11.29092 v 12.46594 h -11.29092 Z  " stroke="none"/>
 </g>
 <g transform="translate(51.0364,35.01427)">
 <g fill="#000">
 <text style="stroke:none" transform="scale(1,-1) translate(2.31248,0)" text-anchor="middle"  font-size="10"> 
<g fill="#000">
 <g stroke="none"> <tspan font-family="cmr" font-size="9">7</tspan> </g> </g>
 </text> 
</g>
 </g>
 </g>
 <g fill="#ccf">
 <g fill="#ccf">
 <path d=" M 27.60797 -13.34616 h 15.9159 v 12.46594 h -15.9159 Z  " stroke="none"/>
 </g>
 <g transform="translate(30.94095,-10.01318)">
 <g fill="#000">
 <text style="stroke:none" transform="scale(1,-1) translate(4.62497,0)" text-anchor="middle"  font-size="10"> 
<g fill="#000">
 <g stroke="none"> <tspan font-family="cmr" font-size="9">14</tspan></g> </g>
 </text> 
</g>
 </g>
 </g>
 <g fill="#ccf">
 <g fill="#ccf">
 <path d=" M 45.39095 -44.14723 h 15.9159 v 12.46594 h -15.9159 Z  " stroke="none"/>
 </g>
 <g transform="translate(48.72392,-40.81425)">
 <g fill="#000">
 <text style="stroke:none" transform="scale(1,-1) translate(4.62497,0)" text-anchor="middle"  font-size="10"> 
<g fill="#000">
 <g stroke="none"> <tspan font-family="cmr" font-size="9">12</tspan></g> </g>
 </text> 
</g>
 </g>
 </g>
 </g>
 </g>
 </g>
 <g stroke-linejoin="round">
 <g stroke="#000">
 <g fill="#ff6">
 <path d=" M 0.0 14.22636 L -71.13185 0.0 L -35.56592 75.82852 Z M 0.0 -14.22636 L -71.13185 0.0 L -35.56592 -75.82852 Z  " />
 <g fill="#ccf">
 <g fill="#ccf">
 <path d=" M -43.52386 0.88022 h 15.9159 v 12.46594 h -15.9159 Z  " stroke="none"/>
 </g>
 <g transform="translate(-40.19089,4.2132)">
 <g fill="#000">
 <text style="stroke:none" transform="scale(1,-1) translate(4.62497,0)" text-anchor="middle"  font-size="10"> 
<g fill="#000">
 <g stroke="none"> <tspan font-family="cmr" font-size="9">15</tspan></g> </g>
 </text> 
</g>
 </g>
 </g>
 <g fill="#ccf">
 <g fill="#ccf">
 <path d=" M -58.99435 31.68129 h 11.29092 v 12.46594 h -11.29092 Z  " stroke="none"/>
 </g>
 <g transform="translate(-55.66138,35.01427)">
 <g fill="#000">
 <text style="stroke:none" transform="scale(1,-1) translate(2.31248,0)" text-anchor="middle"  font-size="10"> 
<g fill="#000">
 <g stroke="none"> <tspan font-family="cmr" font-size="9">9</tspan> </g> </g>
 </text> 
</g>
 </g>
 </g>
 <g fill="#ccf">
 <g fill="#ccf">
 <path d=" M -43.52386 -13.34616 h 15.9159 v 12.46594 h -15.9159 Z  " stroke="none"/>
 </g>
 <g transform="translate(-40.19089,-10.01318)">
 <g fill="#000">
 <text style="stroke:none" transform="scale(1,-1) translate(4.62497,0)" text-anchor="middle"  font-size="10"> 
<g fill="#000">
 <g stroke="none"> <tspan font-family="cmr" font-size="9">16</tspan></g> </g>
 </text> 
</g>
 </g>
 </g>
 <g fill="#ccf">
 <g fill="#ccf">
 <path d=" M -61.30684 -44.14723 h 15.9159 v 12.46594 h -15.9159 Z  " stroke="none"/>
 </g>
 <g transform="translate(-57.97386,-40.81425)">
 <g fill="#000">
 <text style="stroke:none" transform="scale(1,-1) translate(4.62497,0)" text-anchor="middle"  font-size="10"> 
<g fill="#000">
 <g stroke="none"> <tspan font-family="cmr" font-size="9">10</tspan></g> </g>
 </text> 
</g>
 </g>
 </g>
 </g>
 </g>
 </g>
 <g stroke-linejoin="round">
 <g stroke="#000">
 <g fill="#ff6">
 <path d=" M 0.0 14.22636 L 35.56592 75.82852 L -35.56592 75.82852 Z M 0.0 -14.22636 L 35.56592 -75.82852 L -35.56592 -75.82852 Z  " />
 <g fill="#ccf">
 <g fill="#ccf">
 <path d=" M 12.1375 38.79446 h 11.29092 v 12.46594 h -11.29092 Z  " stroke="none"/>
 </g>
 <g transform="translate(15.47047,42.12744)">
 <g fill="#000">
 <text style="stroke:none" transform="scale(1,-1) translate(2.31248,0)" text-anchor="middle"  font-size="10"> 
<g fill="#000">
 <g stroke="none"> <tspan font-family="cmr" font-size="9">2</tspan> </g> </g>
 </text> 
</g>
 </g>
 </g>
 <g fill="#ccf">
 <g fill="#ccf">
 <path d=" M -5.64546 69.59555 h 11.29092 v 12.46594 h -11.29092 Z  " stroke="none"/>
 </g>
 <g transform="translate(-2.31248,72.92853)">
 <g fill="#000">
 <text style="stroke:none" transform="scale(1,-1) translate(2.31248,0)" text-anchor="middle"  font-size="10"> 
<g fill="#000">
 <g stroke="none"> <tspan font-family="cmr" font-size="9">8</tspan> </g> </g>
 </text> 
</g>
 </g>
 </g>
 <g fill="#ccf">
 <g fill="#ccf">
 <path d=" M -23.42842 38.79448 h 11.29092 v 12.46594 h -11.29092 Z  " stroke="none"/>
 </g>
 <g transform="translate(-20.09544,42.12746)">
 <g fill="#000">
 <text style="stroke:none" transform="scale(1,-1) translate(2.31248,0)" text-anchor="middle"  font-size="10"> 
<g fill="#000">
 <g stroke="none"> <tspan font-family="cmr" font-size="9">3</tspan> </g> </g>
 </text> 
</g>
 </g>
 </g>
 <g fill="#ccf">
 <g fill="#ccf">
 <path d=" M 12.1375 -51.2604 h 11.29092 v 12.46594 h -11.29092 Z  " stroke="none"/>
 </g>
 <g transform="translate(15.47047,-47.92743)">
 <g fill="#000">
 <text style="stroke:none" transform="scale(1,-1) translate(2.31248,0)" text-anchor="middle"  font-size="10"> 
<g fill="#000">
 <g stroke="none"> <tspan font-family="cmr" font-size="9">6</tspan> </g> </g>
 </text> 
</g>
 </g>
 </g>
 <g fill="#ccf">
 <g fill="#ccf">
 <path d=" M -7.95795 -82.0615 h 15.9159 v 12.46594 h -15.9159 Z  " stroke="none"/>
 </g>
 <g transform="translate(-4.62497,-78.72852)">
 <g fill="#000">
 <text style="stroke:none" transform="scale(1,-1) translate(4.62497,0)" text-anchor="middle"  font-size="10"> 
<g fill="#000">
 <g stroke="none"> <tspan font-family="cmr" font-size="9">11</tspan></g> </g>
 </text> 
</g>
 </g>
 </g>
 <g fill="#ccf">
 <g fill="#ccf">
 <path d=" M -23.42842 -51.26042 h 11.29092 v 12.46594 h -11.29092 Z  " stroke="none"/>
 </g>
 <g transform="translate(-20.09544,-47.92744)">
 <g fill="#000">
 <text style="stroke:none" transform="scale(1,-1) translate(2.31248,0)" text-anchor="middle"  font-size="10"> 
<g fill="#000">
 <g stroke="none"> <tspan font-family="cmr" font-size="9">5</tspan> </g> </g>
 </text> 
</g>
 </g>
 </g>
 </g>
 </g>
 </g>
 <g fill="#00f">
 <g fill="#00f">
 <path d=" M -33.56592 75.82852 C -33.56592 76.9331 -34.46133 77.82852 -35.56592 77.82852 C -36.6705 77.82852 -37.56592 76.9331 -37.56592 75.82852 C -37.56592 74.72394 -36.6705 73.82852 -35.56592 73.82852 C -34.46133 73.82852 -33.56592 74.72394 -33.56592 75.82852 Z M -35.56592 75.82852  " stroke="none"/>
 </g>
 <g transform="translate(-35.56592,75.82852)">
 <g fill="#000">
 <text style="stroke:none" transform="scale(1,-1) translate(0.0,0)" text-anchor="middle"  font-size="10"> 
<g fill="#000">
 <g stroke="none"> </g> </g>
 </text> 
</g>
 </g>
 </g>
 <g stroke="#00f" fill="#00f">
 <g stroke="#00f" fill="#00f">
 </g>
 <g transform="translate(-38.06592,79.3615)">
 <g fill="#00f">
 <text style="stroke:none" transform="scale(1,-1) translate(2.5,0)" text-anchor="middle"  font-size="10"> 
<g fill="#00f">
 <g stroke="none"> 3 </g> </g>
 </text> 
</g>
 </g>
 </g>
 <g fill="#00f">
 <g fill="#00f">
 <path d=" M 37.56592 75.82852 C 37.56592 76.9331 36.6705 77.82852 35.56592 77.82852 C 34.46133 77.82852 33.56592 76.9331 33.56592 75.82852 C 33.56592 74.72394 34.46133 73.82852 35.56592 73.82852 C 36.6705 73.82852 37.56592 74.72394 37.56592 75.82852 Z M 35.56592 75.82852  " stroke="none"/>
 </g>
 <g transform="translate(35.56592,75.82852)">
 <g fill="#000">
 <text style="stroke:none" transform="scale(1,-1) translate(0.0,0)" text-anchor="middle"  font-size="10"> 
<g fill="#000">
 <g stroke="none"> </g> </g>
 </text> 
</g>
 </g>
 </g>
 <g stroke="#00f" fill="#00f">
 <g stroke="#00f" fill="#00f">
 </g>
 <g transform="translate(33.06592,79.3615)">
 <g fill="#00f">
 <text style="stroke:none" transform="scale(1,-1) translate(2.5,0)" text-anchor="middle"  font-size="10"> 
<g fill="#00f">
 <g stroke="none"> 2 </g> </g>
 </text> 
</g>
 </g>
 </g>
 <g fill="#00f">
 <g fill="#00f">
 <path d=" M -33.56592 -75.82852 C -33.56592 -74.72394 -34.46133 -73.82852 -35.56592 -73.82852 C -36.6705 -73.82852 -37.56592 -74.72394 -37.56592 -75.82852 C -37.56592 -76.9331 -36.6705 -77.82852 -35.56592 -77.82852 C -34.46133 -77.82852 -33.56592 -76.9331 -33.56592 -75.82852 Z M -35.56592 -75.82852  " stroke="none"/>
 </g>
 <g transform="translate(-35.56592,-75.82852)">
 <g fill="#000">
 <text style="stroke:none" transform="scale(1,-1) translate(0.0,0)" text-anchor="middle"  font-size="10"> 
<g fill="#000">
 <g stroke="none"> </g> </g>
 </text> 
</g>
 </g>
 </g>
 <g stroke="#00f" fill="#00f">
 <g stroke="#00f" fill="#00f">
 </g>
 <g transform="translate(-38.06592,-85.80592)">
 <g fill="#00f">
 <text style="stroke:none" transform="scale(1,-1) translate(2.5,0)" text-anchor="middle"  font-size="10"> 
<g fill="#00f">
 <g stroke="none"> 5 </g> </g>
 </text> 
</g>
 </g>
 </g>
 <g fill="#00f">
 <g fill="#00f">
 <path d=" M 37.56592 -75.82852 C 37.56592 -74.72394 36.6705 -73.82852 35.56592 -73.82852 C 34.46133 -73.82852 33.56592 -74.72394 33.56592 -75.82852 C 33.56592 -76.9331 34.46133 -77.82852 35.56592 -77.82852 C 36.6705 -77.82852 37.56592 -76.9331 37.56592 -75.82852 Z M 35.56592 -75.82852  " stroke="none"/>
 </g>
 <g transform="translate(35.56592,-75.82852)">
 <g fill="#000">
 <text style="stroke:none" transform="scale(1,-1) translate(0.0,0)" text-anchor="middle"  font-size="10"> 
<g fill="#000">
 <g stroke="none"> </g> </g>
 </text> 
</g>
 </g>
 </g>
 <g stroke="#00f" fill="#00f">
 <g stroke="#00f" fill="#00f">
 </g>
 <g transform="translate(33.06592,-85.80592)">
 <g fill="#00f">
 <text style="stroke:none" transform="scale(1,-1) translate(2.5,0)" text-anchor="middle"  font-size="10"> 
<g fill="#00f">
 <g stroke="none"> 6 </g> </g>
 </text> 
</g>
 </g>
 </g>
 <g fill="#00f">
 <g fill="#00f">
 <path d=" M -69.13185 0.0 C -69.13185 1.10458 -70.02727 2.0 -71.13185 2.0 C -72.23643 2.0 -73.13185 1.10458 -73.13185 0.0 C -73.13185 -1.10458 -72.23643 -2.0 -71.13185 -2.0 C -70.02727 -2.0 -69.13185 -1.10458 -69.13185 0.0 Z M -71.13185 0.0  " stroke="none"/>
 </g>
 <g transform="translate(-71.13185,0.0)">
 <g fill="#000">
 <text style="stroke:none" transform="scale(1,-1) translate(0.0,0)" text-anchor="middle"  font-size="10"> 
<g fill="#000">
 <g stroke="none"> </g> </g>
 </text> 
</g>
 </g>
 </g>
 <g stroke="#00f" fill="#00f">
 <g stroke="#00f" fill="#00f">
 </g>
 <g transform="translate(-79.66483,-3.22221)">
 <g fill="#00f">
 <text style="stroke:none" transform="scale(1,-1) translate(2.5,0)" text-anchor="middle"  font-size="10"> 
<g fill="#00f">
 <g stroke="none"> 4 </g> </g>
 </text> 
</g>
 </g>
 </g>
 <g fill="#00f">
 <g fill="#00f">
 <path d=" M 2.0 14.22636 C 2.0 15.33095 1.10458 16.22636 0.0 16.22636 C -1.10458 16.22636 -2.0 15.33095 -2.0 14.22636 C -2.0 13.12178 -1.10458 12.22636 0.0 12.22636 C 1.10458 12.22636 2.0 13.12178 2.0 14.22636 Z M 0.0 14.22636  " stroke="none"/>
 </g>
 <g transform="translate(0.0,14.22636)">
 <g fill="#000">
 <text style="stroke:none" transform="scale(1,-1) translate(0.0,0)" text-anchor="middle"  font-size="10"> 
<g fill="#000">
 <g stroke="none"> </g> </g>
 </text> 
</g>
 </g>
 </g>
 <g stroke="#00f" fill="#00f">
 <g stroke="#00f" fill="#00f">
 </g>
 <g transform="translate(-2.5,4.24896)">
 <g fill="#00f">
 <text style="stroke:none" transform="scale(1,-1) translate(2.5,0)" text-anchor="middle"  font-size="10"> 
<g fill="#00f">
 <g stroke="none"> 8 </g> </g>
 </text> 
</g>
 </g>
 </g>
 <g fill="#00f">
 <g fill="#00f">
 <path d=" M 73.13185 0.0 C 73.13185 1.10458 72.23643 2.0 71.13185 2.0 C 70.02727 2.0 69.13185 1.10458 69.13185 0.0 C 69.13185 -1.10458 70.02727 -2.0 71.13185 -2.0 C 72.23643 -2.0 73.13185 -1.10458 73.13185 0.0 Z M 71.13185 0.0  " stroke="none"/>
 </g>
 <g transform="translate(71.13185,0.0)">
 <g fill="#000">
 <text style="stroke:none" transform="scale(1,-1) translate(0.0,0)" text-anchor="middle"  font-size="10"> 
<g fill="#000">
 <g stroke="none"> </g> </g>
 </text> 
</g>
 </g>
 </g>
 <g stroke="#00f" fill="#00f">
 <g stroke="#00f" fill="#00f">
 </g>
 <g transform="translate(74.66483,-3.22221)">
 <g fill="#00f">
 <text style="stroke:none" transform="scale(1,-1) translate(2.5,0)" text-anchor="middle"  font-size="10"> 
<g fill="#00f">
 <g stroke="none"> 1 </g> </g>
 </text> 
</g>
 </g>
 </g>
 <g fill="#00f">
 <g fill="#00f">
 <path d=" M 2.0 -14.22636 C 2.0 -13.12178 1.10458 -12.22636 0.0 -12.22636 C -1.10458 -12.22636 -2.0 -13.12178 -2.0 -14.22636 C -2.0 -15.33095 -1.10458 -16.22636 0.0 -16.22636 C 1.10458 -16.22636 2.0 -15.33095 2.0 -14.22636 Z M 0.0 -14.22636  " stroke="none"/>
 </g>
 <g transform="translate(0.0,-14.22636)">
 <g fill="#000">
 <text style="stroke:none" transform="scale(1,-1) translate(0.0,0)" text-anchor="middle"  font-size="10"> 
<g fill="#000">
 <g stroke="none"> </g> </g>
 </text> 
</g>
 </g>
 </g>
 <g stroke="#00f" fill="#00f">
 <g stroke="#00f" fill="#00f">
 </g>
 <g transform="translate(-2.5,-10.69339)">
 <g fill="#00f">
 <text style="stroke:none" transform="scale(1,-1) translate(2.5,0)" text-anchor="middle"  font-size="10"> 
<g fill="#00f">
 <g stroke="none"> 9 </g> </g>
 </text> 
</g>
 </g>
 </g>
 <g transform="translate(33.75981,26.60117)">
 <g fill="#000">
 <text style="stroke:none" transform="scale(1,-1) translate(1.80556,0)" text-anchor="middle"  font-size="10"> 
<g fill="#000">
 <g stroke="none"> I </g> </g>
 </text> 
</g>
 </g>
 <g transform="translate(-3.75,51.87697)">
 <g fill="#000">
 <text style="stroke:none" transform="scale(1,-1) translate(3.75,0)" text-anchor="middle"  font-size="10"> 
<g fill="#000">
 <g stroke="none"> II </g> </g>
 </text> 
</g>
 </g>
 <g transform="translate(-41.25983,26.60117)">
 <g fill="#000">
 <text style="stroke:none" transform="scale(1,-1) translate(5.69446,0)" text-anchor="middle"  font-size="10"> 
<g fill="#000">
 <g stroke="none"> III</g> </g>
 </text> 
</g>
 </g>
 <g transform="translate(-41.12093,-33.43448)">
 <g fill="#000">
 <text style="stroke:none" transform="scale(1,-1) translate(5.55556,0)" text-anchor="middle"  font-size="10"> 
<g fill="#000">
 <g stroke="none"> IV </g> </g>
 </text> 
</g>
 </g>
 <g transform="translate(-3.75,-58.71028)">
 <g fill="#000">
 <text style="stroke:none" transform="scale(1,-1) translate(3.75,0)" text-anchor="middle"  font-size="10"> 
<g fill="#000">
 <g stroke="none"> V </g> </g>
 </text> 
</g>
 </g>
 <g transform="translate(30.00981,-33.43448)">
 <g fill="#000">
 <text style="stroke:none" transform="scale(1,-1) translate(5.55556,0)" text-anchor="middle"  font-size="10"> 
<g fill="#000">
 <g stroke="none"> VI </g> </g>
 </text> 
</g>
 </g>
 </g>
 </g>
 
                                </g> 
</svg> 
