<?xml version="1.0" encoding="iso-8859-1" standalone="no"?> 
<?xml-stylesheet href="_Wrapper_modification-14.css" type="text/css"?> 
<svg xmlns="http://www.w3.org/2000/svg" xmlns:xlink="http://www.w3.org/1999/xlink" width="75.30597pt" height="136.55386pt" viewBox="-63.44002 -68.27693 75.30597 136.55386 "> 
<g transform="translate(0,68.27693 ) scale(1,-1) translate(0,68.27693 )"> 
            <g stroke="#000" fill="#000">
 <g stroke-width="0.4">
 <g stroke-linejoin="round">
 <g stroke="#000">
 <g fill="#ff6">
 <path d=" M 0.0 0.0 L -14.72824 54.96655 L -51.57407 24.04955 Z M 0.0 0.0 L -51.57407 24.04955 L -51.57407 -24.04955 Z M 0.0 0.0 L -51.57407 -24.04955 L -14.72824 -54.96655 Z  " />
 </g>
 </g>
 </g>
 <g transform="translate(-24.60042,23.11607)">
 <g fill="#000">
 <text style="stroke:none" transform="scale(1,-1) translate(2.5,0)" text-anchor="middle"  font-size="10"> 
<g fill="#000">
 <g stroke="none"> 1</g> </g>
 </text> 
</g>
 </g>
 <g transform="translate(-36.88217,-3.22221)">
 <g fill="#000">
 <text style="stroke:none" transform="scale(1,-1) translate(2.5,0)" text-anchor="middle"  font-size="10"> 
<g fill="#000">
 <g stroke="none"> 2</g> </g>
 </text> 
</g>
 </g>
 <g transform="translate(-24.60042,-29.5605)">
 <g fill="#000">
 <text style="stroke:none" transform="scale(1,-1) translate(2.5,0)" text-anchor="middle"  font-size="10"> 
<g fill="#000">
 <g stroke="none"> 4</g> </g>
 </text> 
</g>
 </g>
 <g fill="#00f">
 <g fill="#00f">
 <path d=" M -12.72824 54.96655 C -12.72824 56.07114 -13.62366 56.96655 -14.72824 56.96655 C -15.83282 56.96655 -16.72824 56.07114 -16.72824 54.96655 C -16.72824 53.86197 -15.83282 52.96655 -14.72824 52.96655 C -13.62366 52.96655 -12.72824 53.86197 -12.72824 54.96655 Z M -14.72824 54.96655  " stroke="none"/>
 </g>
 <g transform="translate(-14.72824,54.96655)">
 <g fill="#000">
 <text style="stroke:none" transform="scale(1,-1) translate(0.0,0)" text-anchor="middle"  font-size="10"> 
<g fill="#000">
 <g stroke="none"> </g> </g>
 </text> 
</g>
 </g>
 </g>
 <g stroke="#00f" fill="#00f">
 <g stroke="#00f" fill="#00f">
 </g>
 <g transform="translate(-17.22824,58.49953)">
 <g fill="#00f">
 <text style="stroke:none" transform="scale(1,-1) translate(2.5,0)" text-anchor="middle"  font-size="10"> 
<g fill="#00f">
 <g stroke="none"> 1</g> </g>
 </text> 
</g>
 </g>
 </g>
 <g fill="#00f">
 <g fill="#00f">
 <path d=" M -49.57407 24.04955 C -49.57407 25.15413 -50.46948 26.04955 -51.57407 26.04955 C -52.67865 26.04955 -53.57407 25.15413 -53.57407 24.04955 C -53.57407 22.94496 -52.67865 22.04955 -51.57407 22.04955 C -50.46948 22.04955 -49.57407 22.94496 -49.57407 24.04955 Z M -51.57407 24.04955  " stroke="none"/>
 </g>
 <g transform="translate(-51.57407,24.04955)">
 <g fill="#000">
 <text style="stroke:none" transform="scale(1,-1) translate(0.0,0)" text-anchor="middle"  font-size="10"> 
<g fill="#000">
 <g stroke="none"> </g> </g>
 </text> 
</g>
 </g>
 </g>
 <g stroke="#00f" fill="#00f">
 <g stroke="#00f" fill="#00f">
 </g>
 <g transform="translate(-60.10704,20.82733)">
 <g fill="#00f">
 <text style="stroke:none" transform="scale(1,-1) translate(2.5,0)" text-anchor="middle"  font-size="10"> 
<g fill="#00f">
 <g stroke="none"> 2</g> </g>
 </text> 
</g>
 </g>
 </g>
 <g fill="#00f">
 <g fill="#00f">
 <path d=" M -49.57407 -24.04955 C -49.57407 -22.94496 -50.46948 -22.04955 -51.57407 -22.04955 C -52.67865 -22.04955 -53.57407 -22.94496 -53.57407 -24.04955 C -53.57407 -25.15413 -52.67865 -26.04955 -51.57407 -26.04955 C -50.46948 -26.04955 -49.57407 -25.15413 -49.57407 -24.04955 Z M -51.57407 -24.04955  " stroke="none"/>
 </g>
 <g transform="translate(-51.57407,-24.04955)">
 <g fill="#000">
 <text style="stroke:none" transform="scale(1,-1) translate(0.0,0)" text-anchor="middle"  font-size="10"> 
<g fill="#000">
 <g stroke="none"> </g> </g>
 </text> 
</g>
 </g>
 </g>
 <g stroke="#00f" fill="#00f">
 <g stroke="#00f" fill="#00f">
 </g>
 <g transform="translate(-60.10704,-27.27176)">
 <g fill="#00f">
 <text style="stroke:none" transform="scale(1,-1) translate(2.5,0)" text-anchor="middle"  font-size="10"> 
<g fill="#00f">
 <g stroke="none"> 4</g> </g>
 </text> 
</g>
 </g>
 </g>
 <g fill="#00f">
 <g fill="#00f">
 <path d=" M -12.72824 -54.96655 C -12.72824 -53.86197 -13.62366 -52.96655 -14.72824 -52.96655 C -15.83282 -52.96655 -16.72824 -53.86197 -16.72824 -54.96655 C -16.72824 -56.07114 -15.83282 -56.96655 -14.72824 -56.96655 C -13.62366 -56.96655 -12.72824 -56.07114 -12.72824 -54.96655 Z M -14.72824 -54.96655  " stroke="none"/>
 </g>
 <g transform="translate(-14.72824,-54.96655)">
 <g fill="#000">
 <text style="stroke:none" transform="scale(1,-1) translate(0.0,0)" text-anchor="middle"  font-size="10"> 
<g fill="#000">
 <g stroke="none"> </g> </g>
 </text> 
</g>
 </g>
 </g>
 <g stroke="#00f" fill="#00f">
 <g stroke="#00f" fill="#00f">
 </g>
 <g transform="translate(-17.22824,-64.94395)">
 <g fill="#00f">
 <text style="stroke:none" transform="scale(1,-1) translate(2.5,0)" text-anchor="middle"  font-size="10"> 
<g fill="#00f">
 <g stroke="none"> 5</g> </g>
 </text> 
</g>
 </g>
 </g>
 <g fill="#00f">
 <g fill="#00f">
 <path d=" M 2.0 0.0 C 2.0 1.10458 1.10458 2.0 0.0 2.0 C -1.10458 2.0 -2.0 1.10458 -2.0 0.0 C -2.0 -1.10458 -1.10458 -2.0 0.0 -2.0 C 1.10458 -2.0 2.0 -1.10458 2.0 0.0 Z M 0.0 0.0  " stroke="none"/>
 </g>
 <g fill="#000">
 <text style="stroke:none" transform="scale(1,-1) translate(0.0,0)" text-anchor="middle"  font-size="10"> 
<g fill="#000">
 <g stroke="none"> </g> </g>
 </text> 
</g>
 </g>
 <g stroke="#00f" fill="#00f">
 <g stroke="#00f" fill="#00f">
 </g>
 <g transform="translate(3.53297,-3.22221)">
 <g fill="#00f">
 <text style="stroke:none" transform="scale(1,-1) translate(2.5,0)" text-anchor="middle"  font-size="10"> 
<g fill="#00f">
 <g stroke="none"> 3</g> </g>
 </text> 
</g>
 </g>
 </g>
 </g>
 </g>
 
              </g> 
</svg> 
