<?xml version="1.0" encoding="UTF-8"?>
<svg xmlns="http://www.w3.org/2000/svg" xmlns:xlink="http://www.w3.org/1999/xlink" width="93.872pt" height="91.68pt" viewBox="0 0 93.872 91.68" version="1.2">
<defs>
<clipPath id="clip1">
  <path d="M 89 57 L 93.644531 57 L 93.644531 62 L 89 62 Z M 89 57 "/>
</clipPath>
<clipPath id="clip2">
  <path d="M 89 1 L 93.644531 1 L 93.644531 6 L 89 6 Z M 89 1 "/>
</clipPath>
</defs>
<g id="surface1">
<path style="fill:none;stroke-width:0.3985;stroke-linecap:butt;stroke-linejoin:round;stroke:rgb(0%,0%,0%);stroke-opacity:1;stroke-dasharray:2.98883,2.98883;stroke-miterlimit:10;" d="M 28.346974 28.34557 L -0.00163013 0.00088618 " transform="matrix(0.996522,0,0,-0.996522,6.915687,88.051664)"/>
<path style="fill:none;stroke-width:0.3985;stroke-linecap:butt;stroke-linejoin:round;stroke:rgb(0%,0%,0%);stroke-opacity:1;stroke-dasharray:2.98883,2.98883;stroke-miterlimit:10;" d="M 28.346974 28.34557 L 85.040262 28.34557 " transform="matrix(0.996522,0,0,-0.996522,6.915687,88.051664)"/>
<path style="fill:none;stroke-width:0.3985;stroke-linecap:butt;stroke-linejoin:round;stroke:rgb(0%,0%,0%);stroke-opacity:1;stroke-dasharray:2.98883,2.98883;stroke-miterlimit:10;" d="M 28.346974 28.34557 L 28.346974 85.038858 " transform="matrix(0.996522,0,0,-0.996522,6.915687,88.051664)"/>
<path style="fill:none;stroke-width:0.3985;stroke-linecap:butt;stroke-linejoin:round;stroke:rgb(0%,0%,0%);stroke-opacity:1;stroke-miterlimit:10;" d="M -0.00163013 0.00088618 L 56.695578 0.00088618 L 56.695578 56.694174 L -0.00163013 56.694174 Z M -0.00163013 0.00088618 " transform="matrix(0.996522,0,0,-0.996522,6.915687,88.051664)"/>
<path style="fill:none;stroke-width:0.3985;stroke-linecap:butt;stroke-linejoin:round;stroke:rgb(0%,0%,0%);stroke-opacity:1;stroke-miterlimit:10;" d="M 56.695578 0.00088618 L 85.040262 28.34557 L 85.040262 85.038858 L 56.695578 56.694174 Z M 56.695578 0.00088618 " transform="matrix(0.996522,0,0,-0.996522,6.915687,88.051664)"/>
<path style="fill:none;stroke-width:0.3985;stroke-linecap:butt;stroke-linejoin:round;stroke:rgb(0%,0%,0%);stroke-opacity:1;stroke-miterlimit:10;" d="M -0.00163013 56.694174 L 56.695578 56.694174 L 85.040262 85.038858 L 28.346974 85.038858 Z M -0.00163013 56.694174 " transform="matrix(0.996522,0,0,-0.996522,6.915687,88.051664)"/>
<path style=" stroke:none;fill-rule:nonzero;fill:rgb(0%,0%,100%);fill-opacity:1;" d="M 8.902344 88.050781 C 8.902344 86.953125 8.011719 86.066406 6.914062 86.066406 C 5.820312 86.066406 4.929688 86.953125 4.929688 88.050781 C 4.929688 89.148438 5.820312 90.039062 6.914062 90.039062 C 8.011719 90.039062 8.902344 89.148438 8.902344 88.050781 Z M 8.902344 88.050781 "/>
<path style=" stroke:none;fill-rule:nonzero;fill:rgb(0%,0%,100%);fill-opacity:1;" d="M 65.398438 88.050781 C 65.398438 86.953125 64.507812 86.066406 63.414062 86.066406 C 62.316406 86.066406 61.425781 86.953125 61.425781 88.050781 C 61.425781 89.148438 62.316406 90.039062 63.414062 90.039062 C 64.507812 90.039062 65.398438 89.148438 65.398438 88.050781 Z M 65.398438 88.050781 "/>
<path style=" stroke:none;fill-rule:nonzero;fill:rgb(0%,0%,100%);fill-opacity:1;" d="M 8.902344 31.554688 C 8.902344 30.457031 8.011719 29.570312 6.914062 29.570312 C 5.820312 29.570312 4.929688 30.457031 4.929688 31.554688 C 4.929688 32.652344 5.820312 33.539062 6.914062 33.539062 C 8.011719 33.539062 8.902344 32.652344 8.902344 31.554688 Z M 8.902344 31.554688 "/>
<path style=" stroke:none;fill-rule:nonzero;fill:rgb(0%,0%,100%);fill-opacity:1;" d="M 37.148438 59.804688 C 37.148438 58.707031 36.261719 57.816406 35.164062 57.816406 C 34.066406 57.816406 33.179688 58.707031 33.179688 59.804688 C 33.179688 60.898438 34.066406 61.789062 35.164062 61.789062 C 36.261719 61.789062 37.148438 60.898438 37.148438 59.804688 Z M 37.148438 59.804688 "/>
<g clip-path="url(#clip1)" clip-rule="nonzero">
<path style=" stroke:none;fill-rule:nonzero;fill:rgb(0%,0%,100%);fill-opacity:1;" d="M 93.644531 59.804688 C 93.644531 58.707031 92.757812 57.816406 91.660156 57.816406 C 90.5625 57.816406 89.675781 58.707031 89.675781 59.804688 C 89.675781 60.898438 90.5625 61.789062 91.660156 61.789062 C 92.757812 61.789062 93.644531 60.898438 93.644531 59.804688 Z M 93.644531 59.804688 "/>
</g>
<path style=" stroke:none;fill-rule:nonzero;fill:rgb(0%,0%,100%);fill-opacity:1;" d="M 65.398438 31.554688 C 65.398438 30.457031 64.507812 29.570312 63.414062 29.570312 C 62.316406 29.570312 61.425781 30.457031 61.425781 31.554688 C 61.425781 32.652344 62.316406 33.539062 63.414062 33.539062 C 64.507812 33.539062 65.398438 32.652344 65.398438 31.554688 Z M 65.398438 31.554688 "/>
<path style=" stroke:none;fill-rule:nonzero;fill:rgb(0%,0%,100%);fill-opacity:1;" d="M 37.148438 3.308594 C 37.148438 2.210938 36.261719 1.320312 35.164062 1.320312 C 34.066406 1.320312 33.179688 2.210938 33.179688 3.308594 C 33.179688 4.402344 34.066406 5.292969 35.164062 5.292969 C 36.261719 5.292969 37.148438 4.402344 37.148438 3.308594 Z M 37.148438 3.308594 "/>
<g clip-path="url(#clip2)" clip-rule="nonzero">
<path style=" stroke:none;fill-rule:nonzero;fill:rgb(0%,0%,100%);fill-opacity:1;" d="M 93.644531 3.308594 C 93.644531 2.210938 92.757812 1.320312 91.660156 1.320312 C 90.5625 1.320312 89.675781 2.210938 89.675781 3.308594 C 89.675781 4.402344 90.5625 5.292969 91.660156 5.292969 C 92.757812 5.292969 93.644531 4.402344 93.644531 3.308594 Z M 93.644531 3.308594 "/>
</g>
</g>
</svg>
