<?xml version="1.0" encoding="iso-8859-1" standalone="no"?> 
<?xml-stylesheet href="_Wrapper_Image_FlagsOfGeodesic.css" type="text/css"?> 
<svg xmlns="http://www.w3.org/2000/svg" xmlns:xlink="http://www.w3.org/1999/xlink" width="221.77461pt" height="99.26552pt" viewBox="-8.17905 -12.67146 221.77461 99.26552 "> 
<g transform="translate(0,86.59406 ) scale(1,-1) translate(0,12.67146 )"> 
<g stroke="#000" fill="#000">
 <g stroke-width="0.4">
 <g fill="#ff6">
 <g stroke-linejoin="round">
 <g stroke="#000">
 <path d=" M 0.0 0.0 L 85.35823 0.0 L 42.67911 73.92259 Z M 85.35823 0.0 L 42.67911 73.92259 L 128.03734 73.92259 Z M 85.35823 0.0 L 170.71646 0.0 L 128.03734 73.92259 Z M 128.03734 73.92259 L 170.71646 0.0 L 213.39557 73.92259 Z  " />
 </g>
 </g>
 </g>
 <g stroke-linejoin="round">
 <g stroke="#000">
 <path d=" M 0.0 0.0 L 42.67911 73.92259 L 85.35823 0.0 L 128.03734 73.92259 L 170.71646 0.0 L 213.39557 73.92259  " fill="none"/>
 <g fill="#ccf">
 <g fill="#ccf">
 <path d=" M 13.77312 31.19083 h 15.13287 v 11.54092 h -15.13287 Z  " stroke="none"/>
 </g>
 <g transform="translate(17.1061,35.52379)">
 <g fill="#000">
 <text style="stroke:none" transform="scale(1,-1) translate(4.23346,0)" text-anchor="middle"  font-size="10"> 
<g fill="#000">
 <g stroke="none"> <tspan font-family="cmmi" font-size="9">e</tspan><tspan baseline-shift="sub"><tspan font-family="cmr" font-size="6">1</tspan> </tspan></g> </g>
 </text> 
</g>
 </g>
 </g>
 <g fill="#ccf">
 <g fill="#ccf">
 <path d=" M 56.45222 31.19084 h 15.13287 v 11.54092 h -15.13287 Z  " stroke="none"/>
 </g>
 <g transform="translate(59.7852,35.5238)">
 <g fill="#000">
 <text style="stroke:none" transform="scale(1,-1) translate(4.23346,0)" text-anchor="middle"  font-size="10"> 
<g fill="#000">
 <g stroke="none"> <tspan font-family="cmmi" font-size="9">e</tspan><tspan baseline-shift="sub"><tspan font-family="cmr" font-size="6">2</tspan> </tspan></g> </g>
 </text> 
</g>
 </g>
 </g>
 <g fill="#ccf">
 <g fill="#ccf">
 <path d=" M 99.13135 31.19083 h 15.13287 v 11.54092 h -15.13287 Z  " stroke="none"/>
 </g>
 <g transform="translate(102.46432,35.52379)">
 <g fill="#000">
 <text style="stroke:none" transform="scale(1,-1) translate(4.23346,0)" text-anchor="middle"  font-size="10"> 
<g fill="#000">
 <g stroke="none"> <tspan font-family="cmmi" font-size="9">e</tspan><tspan baseline-shift="sub"><tspan font-family="cmr" font-size="6">3</tspan> </tspan></g> </g>
 </text> 
</g>
 </g>
 </g>
 <g fill="#ccf">
 <g fill="#ccf">
 <path d=" M 141.81046 31.19084 h 15.13287 v 11.54092 h -15.13287 Z  " stroke="none"/>
 </g>
 <g transform="translate(145.14343,35.5238)">
 <g fill="#000">
 <text style="stroke:none" transform="scale(1,-1) translate(4.23346,0)" text-anchor="middle"  font-size="10"> 
<g fill="#000">
 <g stroke="none"> <tspan font-family="cmmi" font-size="9">e</tspan><tspan baseline-shift="sub"><tspan font-family="cmr" font-size="6">4</tspan> </tspan></g> </g>
 </text> 
</g>
 </g>
 </g>
 <g fill="#ccf">
 <g fill="#ccf">
 <path d=" M 184.48958 31.19083 h 15.13287 v 11.54092 h -15.13287 Z  " stroke="none"/>
 </g>
 <g transform="translate(187.82256,35.52379)">
 <g fill="#000">
 <text style="stroke:none" transform="scale(1,-1) translate(4.23346,0)" text-anchor="middle"  font-size="10"> 
<g fill="#000">
 <g stroke="none"> <tspan font-family="cmmi" font-size="9">e</tspan><tspan baseline-shift="sub"><tspan font-family="cmr" font-size="6">1</tspan> </tspan></g> </g>
 </text> 
</g>
 </g>
 </g>
 </g>
 </g>
 <g transform="translate(37.44926,41.85287)">
 <g fill="#000">
 <text style="stroke:none" transform="scale(1,-1) translate(5.22919,0)" text-anchor="middle"  font-size="10"> 
<g fill="#000">
 <g stroke="none"> <tspan font-family="cmmi" font-size="10">f</tspan><tspan baseline-shift="sub"><tspan font-family="cmr" font-size="7">1</tspan> </tspan></g> </g>
 </text> 
</g>
 </g>
 <g transform="translate(80.12773,27.06857)">
 <g fill="#000">
 <text style="stroke:none" transform="scale(1,-1) translate(5.22919,0)" text-anchor="middle"  font-size="10"> 
<g fill="#000">
 <g stroke="none"> <tspan font-family="cmmi" font-size="10">f</tspan><tspan baseline-shift="sub"><tspan font-family="cmr" font-size="7">2</tspan> </tspan></g> </g>
 </text> 
</g>
 </g>
 <g transform="translate(122.8062,41.85287)">
 <g fill="#000">
 <text style="stroke:none" transform="scale(1,-1) translate(5.22919,0)" text-anchor="middle"  font-size="10"> 
<g fill="#000">
 <g stroke="none"> <tspan font-family="cmmi" font-size="10">f</tspan><tspan baseline-shift="sub"><tspan font-family="cmr" font-size="7">3</tspan> </tspan></g> </g>
 </text> 
</g>
 </g>
 <g transform="translate(165.48466,27.06857)">
 <g fill="#000">
 <text style="stroke:none" transform="scale(1,-1) translate(5.22919,0)" text-anchor="middle"  font-size="10"> 
<g fill="#000">
 <g stroke="none"> <tspan font-family="cmmi" font-size="10">f</tspan><tspan baseline-shift="sub"><tspan font-family="cmr" font-size="7">4</tspan> </tspan></g> </g>
 </text> 
</g>
 </g>
 <g fill="#00f">
 <g fill="#00f">
 <path d=" M 2.0 0.0 C 2.0 1.10458 1.10458 2.0 0.0 2.0 C -1.10458 2.0 -2.0 1.10458 -2.0 0.0 C -2.0 -1.10458 -1.10458 -2.0 0.0 -2.0 C 1.10458 -2.0 2.0 -1.10458 2.0 0.0 Z M 0.0 0.0  " stroke="none"/>
 </g>
 <g fill="#000">
 <text style="stroke:none" transform="scale(1,-1) translate(0.0,0)" text-anchor="middle"  font-size="10"> 
<g fill="#000">
 <g stroke="none"> </g> </g>
 </text> 
</g>
 </g>
 <g stroke="#00f" fill="#00f">
 <g stroke="#00f" fill="#00f">
 </g>
 <g transform="translate(-4.84607,-7.83852)">
 <g fill="#00f">
 <text style="stroke:none" transform="scale(1,-1) translate(4.84607,0)" text-anchor="middle"  font-size="10"> 
<g fill="#00f">
 <g stroke="none"> <tspan font-family="cmmi" font-size="10">v</tspan><tspan baseline-shift="sub"><tspan font-family="cmr" font-size="7">1</tspan> </tspan> </g> </g>
 </text> 
</g>
 </g>
 </g>
 <g fill="#00f">
 <g fill="#00f">
 <path d=" M 44.67911 73.92259 C 44.67911 75.02718 43.78369 75.92259 42.67911 75.92259 C 41.57452 75.92259 40.67911 75.02718 40.67911 73.92259 C 40.67911 72.81801 41.57452 71.92259 42.67911 71.92259 C 43.78369 71.92259 44.67911 72.81801 44.67911 73.92259 Z M 42.67911 73.92259  " stroke="none"/>
 </g>
 <g transform="translate(42.67911,73.92259)">
 <g fill="#000">
 <text style="stroke:none" transform="scale(1,-1) translate(0.0,0)" text-anchor="middle"  font-size="10"> 
<g fill="#000">
 <g stroke="none"> </g> </g>
 </text> 
</g>
 </g>
 </g>
 <g stroke="#00f" fill="#00f">
 <g stroke="#00f" fill="#00f">
 </g>
 <g transform="translate(37.83304,78.95554)">
 <g fill="#00f">
 <text style="stroke:none" transform="scale(1,-1) translate(4.84607,0)" text-anchor="middle"  font-size="10"> 
<g fill="#00f">
 <g stroke="none"> <tspan font-family="cmmi" font-size="10">v</tspan><tspan baseline-shift="sub"><tspan font-family="cmr" font-size="7">2</tspan> </tspan> </g> </g>
 </text> 
</g>
 </g>
 </g>
 <g fill="#00f">
 <g fill="#00f">
 <path d=" M 87.35823 0.0 C 87.35823 1.10458 86.46281 2.0 85.35823 2.0 C 84.25365 2.0 83.35823 1.10458 83.35823 0.0 C 83.35823 -1.10458 84.25365 -2.0 85.35823 -2.0 C 86.46281 -2.0 87.35823 -1.10458 87.35823 0.0 Z M 85.35823 0.0  " stroke="none"/>
 </g>
 <g transform="translate(85.35823,0.0)">
 <g fill="#000">
 <text style="stroke:none" transform="scale(1,-1) translate(0.0,0)" text-anchor="middle"  font-size="10"> 
<g fill="#000">
 <g stroke="none"> </g> </g>
 </text> 
</g>
 </g>
 </g>
 <g stroke="#00f" fill="#00f">
 <g stroke="#00f" fill="#00f">
 </g>
 <g transform="translate(80.51216,-7.83852)">
 <g fill="#00f">
 <text style="stroke:none" transform="scale(1,-1) translate(4.84607,0)" text-anchor="middle"  font-size="10"> 
<g fill="#00f">
 <g stroke="none"> <tspan font-family="cmmi" font-size="10">v</tspan><tspan baseline-shift="sub"><tspan font-family="cmr" font-size="7">3</tspan> </tspan> </g> </g>
 </text> 
</g>
 </g>
 </g>
 <g fill="#00f">
 <g fill="#00f">
 <path d=" M 130.03734 73.92259 C 130.03734 75.02718 129.14192 75.92259 128.03734 75.92259 C 126.93275 75.92259 126.03734 75.02718 126.03734 73.92259 C 126.03734 72.81801 126.93275 71.92259 128.03734 71.92259 C 129.14192 71.92259 130.03734 72.81801 130.03734 73.92259 Z M 128.03734 73.92259  " stroke="none"/>
 </g>
 <g transform="translate(128.03734,73.92259)">
 <g fill="#000">
 <text style="stroke:none" transform="scale(1,-1) translate(0.0,0)" text-anchor="middle"  font-size="10"> 
<g fill="#000">
 <g stroke="none"> </g> </g>
 </text> 
</g>
 </g>
 </g>
 <g stroke="#00f" fill="#00f">
 <g stroke="#00f" fill="#00f">
 </g>
 <g transform="translate(123.19127,78.95554)">
 <g fill="#00f">
 <text style="stroke:none" transform="scale(1,-1) translate(4.84607,0)" text-anchor="middle"  font-size="10"> 
<g fill="#00f">
 <g stroke="none"> <tspan font-family="cmmi" font-size="10">v</tspan><tspan baseline-shift="sub"><tspan font-family="cmr" font-size="7">4</tspan> </tspan> </g> </g>
 </text> 
</g>
 </g>
 </g>
 <g fill="#00f">
 <g fill="#00f">
 <path d=" M 172.71646 0.0 C 172.71646 1.10458 171.82104 2.0 170.71646 2.0 C 169.61188 2.0 168.71646 1.10458 168.71646 0.0 C 168.71646 -1.10458 169.61188 -2.0 170.71646 -2.0 C 171.82104 -2.0 172.71646 -1.10458 172.71646 0.0 Z M 170.71646 0.0  " stroke="none"/>
 </g>
 <g transform="translate(170.71646,0.0)">
 <g fill="#000">
 <text style="stroke:none" transform="scale(1,-1) translate(0.0,0)" text-anchor="middle"  font-size="10"> 
<g fill="#000">
 <g stroke="none"> </g> </g>
 </text> 
</g>
 </g>
 </g>
 <g stroke="#00f" fill="#00f">
 <g stroke="#00f" fill="#00f">
 </g>
 <g transform="translate(165.87039,-7.83852)">
 <g fill="#00f">
 <text style="stroke:none" transform="scale(1,-1) translate(4.84607,0)" text-anchor="middle"  font-size="10"> 
<g fill="#00f">
 <g stroke="none"> <tspan font-family="cmmi" font-size="10">v</tspan><tspan baseline-shift="sub"><tspan font-family="cmr" font-size="7">1</tspan> </tspan> </g> </g>
 </text> 
</g>
 </g>
 </g>
 </g>
 </g>
 
                                          </g> 
</svg> 
