<?xml version="1.0" encoding="UTF-8"?>
<svg xmlns="http://www.w3.org/2000/svg" xmlns:xlink="http://www.w3.org/1999/xlink" width="286.785pt" height="64.63pt" viewBox="0 0 286.785 64.63" version="1.2">
<defs>
<clipPath id="clip1">
  <path d="M 169 0 L 283 0 L 283 64.261719 L 169 64.261719 Z M 169 0 "/>
</clipPath>
<clipPath id="clip2">
  <path d="M 0.710938 0 L 114 0 L 114 64.261719 L 0.710938 64.261719 Z M 0.710938 0 "/>
</clipPath>
</defs>
<g id="surface1">
<g clip-path="url(#clip1)" clip-rule="nonzero">
<path style=" stroke:none;fill-rule:nonzero;fill:rgb(100%,96.939087%,40.000916%);fill-opacity:1;" d="M 169.820312 64.261719 L 282.5625 64.261719 L 282.5625 0 L 169.820312 0 Z M 169.820312 64.261719 "/>
</g>
<g clip-path="url(#clip2)" clip-rule="nonzero">
<path style=" stroke:none;fill-rule:nonzero;fill:rgb(100%,96.939087%,40.000916%);fill-opacity:1;" d="M 113.449219 64.261719 L 0.707031 64.261719 L 0.707031 0 L 113.449219 0 Z M 113.449219 64.261719 "/>
</g>
<path style="fill:none;stroke-width:0.3985;stroke-linecap:butt;stroke-linejoin:round;stroke:rgb(0%,0%,0%);stroke-opacity:1;stroke-miterlimit:10;" d="M -17.008727 17.575802 L 17.009132 17.575802 " transform="matrix(0.994308,0,0,-0.994308,141.634564,56.370286)"/>
<path style="fill:none;stroke-width:0.3985;stroke-linecap:butt;stroke-linejoin:round;stroke:rgb(0%,0%,0%);stroke-opacity:1;stroke-miterlimit:10;" d="M 8.503685 23.24479 L 17.009132 17.575802 " transform="matrix(0.994308,0,0,-0.994308,141.634564,56.370286)"/>
<path style="fill:none;stroke-width:0.3985;stroke-linecap:butt;stroke-linejoin:round;stroke:rgb(0%,0%,0%);stroke-opacity:1;stroke-miterlimit:10;" d="M 8.503685 11.906813 L 17.009132 17.575802 " transform="matrix(0.994308,0,0,-0.994308,141.634564,56.370286)"/>
<path style="fill:none;stroke-width:0.3985;stroke-linecap:butt;stroke-linejoin:round;stroke:rgb(0%,0%,0%);stroke-opacity:1;stroke-miterlimit:10;" d="M -85.040516 49.098991 L -56.695574 -0.000812374 " transform="matrix(0.994308,0,0,-0.994308,141.634564,56.370286)"/>
<path style="fill:none;stroke-width:0.3985;stroke-linecap:butt;stroke-linejoin:round;stroke:rgb(0%,0%,0%);stroke-opacity:1;stroke-miterlimit:10;" d="M -56.695574 -0.000812374 L -113.385458 -0.000812374 " transform="matrix(0.994308,0,0,-0.994308,141.634564,56.370286)"/>
<path style="fill:none;stroke-width:0.3985;stroke-linecap:butt;stroke-linejoin:round;stroke:rgb(0%,0%,0%);stroke-opacity:1;stroke-miterlimit:10;" d="M -85.040516 49.098991 L -113.385458 -0.000812374 " transform="matrix(0.994308,0,0,-0.994308,141.634564,56.370286)"/>
<path style="fill:none;stroke-width:0.3985;stroke-linecap:butt;stroke-linejoin:round;stroke:rgb(0%,0%,0%);stroke-opacity:1;stroke-miterlimit:10;" d="M 85.040921 49.098991 L 56.692051 -0.000812374 " transform="matrix(0.994308,0,0,-0.994308,141.634564,56.370286)"/>
<path style="fill:none;stroke-width:0.3985;stroke-linecap:butt;stroke-linejoin:round;stroke:rgb(0%,0%,0%);stroke-opacity:1;stroke-miterlimit:10;" d="M 56.692051 -0.000812374 L 113.385863 -0.000812374 " transform="matrix(0.994308,0,0,-0.994308,141.634564,56.370286)"/>
<path style="fill:none;stroke-width:0.3985;stroke-linecap:butt;stroke-linejoin:round;stroke:rgb(0%,0%,0%);stroke-opacity:1;stroke-miterlimit:10;" d="M 85.040921 49.098991 L 113.385863 -0.000812374 " transform="matrix(0.994308,0,0,-0.994308,141.634564,56.370286)"/>
<path style="fill:none;stroke-width:0.3985;stroke-linecap:butt;stroke-linejoin:round;stroke:rgb(0%,0%,0%);stroke-opacity:1;stroke-miterlimit:10;" d="M -85.040516 49.098991 L -85.040516 19.276891 " transform="matrix(0.994308,0,0,-0.994308,141.634564,56.370286)"/>
<path style="fill:none;stroke-width:0.3985;stroke-linecap:butt;stroke-linejoin:round;stroke:rgb(0%,0%,0%);stroke-opacity:1;stroke-miterlimit:10;" d="M -56.695574 -0.000812374 L -85.040516 19.276891 " transform="matrix(0.994308,0,0,-0.994308,141.634564,56.370286)"/>
<path style="fill:none;stroke-width:0.3985;stroke-linecap:butt;stroke-linejoin:round;stroke:rgb(0%,0%,0%);stroke-opacity:1;stroke-miterlimit:10;" d="M -113.385458 -0.000812374 L -85.040516 19.276891 " transform="matrix(0.994308,0,0,-0.994308,141.634564,56.370286)"/>
<path style=" stroke:none;fill-rule:nonzero;fill:rgb(0%,0%,100%);fill-opacity:1;" d="M 59.058594 7.550781 C 59.058594 6.457031 58.171875 5.570312 57.078125 5.570312 C 55.984375 5.570312 55.097656 6.457031 55.097656 7.550781 C 55.097656 8.644531 55.984375 9.53125 57.078125 9.53125 C 58.171875 9.53125 59.058594 8.644531 59.058594 7.550781 Z M 59.058594 7.550781 "/>
<path style=" stroke:none;fill-rule:nonzero;fill:rgb(0%,0%,100%);fill-opacity:1;" d="M 87.246094 56.371094 C 87.246094 55.277344 86.359375 54.390625 85.261719 54.390625 C 84.167969 54.390625 83.28125 55.277344 83.28125 56.371094 C 83.28125 57.464844 84.167969 58.351562 85.261719 58.351562 C 86.359375 58.351562 87.246094 57.464844 87.246094 56.371094 Z M 87.246094 56.371094 "/>
<path style=" stroke:none;fill-rule:nonzero;fill:rgb(0%,0%,100%);fill-opacity:1;" d="M 30.875 56.371094 C 30.875 55.277344 29.988281 54.390625 28.894531 54.390625 C 27.796875 54.390625 26.910156 55.277344 26.910156 56.371094 C 26.910156 57.464844 27.796875 58.351562 28.894531 58.351562 C 29.988281 58.351562 30.875 57.464844 30.875 56.371094 Z M 30.875 56.371094 "/>
<path style=" stroke:none;fill-rule:nonzero;fill:rgb(0%,0%,100%);fill-opacity:1;" d="M 228.171875 7.550781 C 228.171875 6.457031 227.285156 5.570312 226.191406 5.570312 C 225.097656 5.570312 224.210938 6.457031 224.210938 7.550781 C 224.210938 8.644531 225.097656 9.53125 226.191406 9.53125 C 227.285156 9.53125 228.171875 8.644531 228.171875 7.550781 Z M 228.171875 7.550781 "/>
<path style=" stroke:none;fill-rule:nonzero;fill:rgb(0%,0%,100%);fill-opacity:1;" d="M 199.988281 56.371094 C 199.988281 55.277344 199.101562 54.390625 198.003906 54.390625 C 196.910156 54.390625 196.023438 55.277344 196.023438 56.371094 C 196.023438 57.464844 196.910156 58.351562 198.003906 58.351562 C 199.101562 58.351562 199.988281 57.464844 199.988281 56.371094 Z M 199.988281 56.371094 "/>
<path style=" stroke:none;fill-rule:nonzero;fill:rgb(0%,0%,100%);fill-opacity:1;" d="M 256.359375 56.371094 C 256.359375 55.277344 255.46875 54.390625 254.375 54.390625 C 253.28125 54.390625 252.394531 55.277344 252.394531 56.371094 C 252.394531 57.464844 253.28125 58.351562 254.375 58.351562 C 255.46875 58.351562 256.359375 57.464844 256.359375 56.371094 Z M 256.359375 56.371094 "/>
<path style=" stroke:none;fill-rule:nonzero;fill:rgb(0%,0%,100%);fill-opacity:1;" d="M 59.058594 37.203125 C 59.058594 36.109375 58.171875 35.222656 57.078125 35.222656 C 55.984375 35.222656 55.097656 36.109375 55.097656 37.203125 C 55.097656 38.296875 55.984375 39.1875 57.078125 39.1875 C 58.171875 39.1875 59.058594 38.296875 59.058594 37.203125 Z M 59.058594 37.203125 "/>
</g>
</svg>
