<?xml version="1.0" encoding="UTF-8"?>
<svg xmlns="http://www.w3.org/2000/svg" xmlns:xlink="http://www.w3.org/1999/xlink" width="327.841pt" height="136.016pt" viewBox="0 0 327.841 136.016" version="1.2">
<defs>
<clipPath id="clip1">
  <path d="M 1.097656 6 L 58 6 L 58 50 L 1.097656 50 Z M 1.097656 6 "/>
</clipPath>
<clipPath id="clip2">
  <path d="M 1.097656 29 L 55 29 L 55 50 L 1.097656 50 Z M 1.097656 29 "/>
</clipPath>
<clipPath id="clip3">
  <path d="M 203 99 L 247 99 L 247 135.039062 L 203 135.039062 Z M 203 99 "/>
</clipPath>
</defs>
<g id="surface1">
<g clip-path="url(#clip1)" clip-rule="nonzero">
<path style="fill-rule:nonzero;fill:rgb(100%,96.939087%,40.000916%);fill-opacity:1;stroke-width:0.3985;stroke-linecap:butt;stroke-linejoin:round;stroke:rgb(0%,0%,0%);stroke-opacity:1;stroke-miterlimit:10;" d="M 0.000883653 0.00157778 L 56.693232 0.00157778 L 22.679397 42.521822 Z M 56.693232 0.00157778 L 22.679397 42.521822 L 53.860385 19.843309 Z M 56.693232 0.00157778 " transform="matrix(0.992818,0,0,-0.992818,1.295998,49.005473)"/>
</g>
<g clip-path="url(#clip2)" clip-rule="nonzero">
<path style="fill:none;stroke-width:0.3985;stroke-linecap:butt;stroke-linejoin:round;stroke:rgb(0%,0%,0%);stroke-opacity:1;stroke-dasharray:2.98883,2.98883;stroke-miterlimit:10;" d="M 0.000883653 0.00157778 L 53.860385 19.843309 " transform="matrix(0.992818,0,0,-0.992818,1.295998,49.005473)"/>
</g>
<path style="fill-rule:nonzero;fill:rgb(100%,96.939087%,40.000916%);fill-opacity:1;stroke-width:0.3985;stroke-linecap:butt;stroke-linejoin:round;stroke:rgb(0%,0%,0%);stroke-opacity:1;stroke-miterlimit:10;" d="M 85.041373 0.00157778 L 133.231246 14.173681 L 121.891989 39.685041 Z M 85.041373 0.00157778 L 121.891989 39.685041 L 99.213476 42.521822 Z M 85.041373 0.00157778 " transform="matrix(0.992818,0,0,-0.992818,1.295998,49.005473)"/>
<path style="fill-rule:nonzero;fill:rgb(100%,96.939087%,40.000916%);fill-opacity:1;stroke-width:0.3985;stroke-linecap:butt;stroke-linejoin:round;stroke:rgb(0%,0%,0%);stroke-opacity:1;stroke-miterlimit:10;" d="M 85.041373 0.00157778 L 133.231246 14.173681 L 113.38558 19.843309 Z M 85.041373 0.00157778 L 113.38558 19.843309 L 99.213476 42.521822 Z M 85.041373 0.00157778 " transform="matrix(0.992818,0,0,-0.992818,1.295998,49.005473)"/>
<path style="fill:none;stroke-width:0.3985;stroke-linecap:butt;stroke-linejoin:round;stroke:rgb(0%,0%,0%);stroke-opacity:1;stroke-dasharray:2.98883,2.98883;stroke-miterlimit:10;" d="M 85.041373 0.00157778 L 121.891989 39.685041 " transform="matrix(0.992818,0,0,-0.992818,1.295998,49.005473)"/>
<path style="fill-rule:nonzero;fill:rgb(100%,96.939087%,40.000916%);fill-opacity:1;stroke-width:0.3985;stroke-linecap:butt;stroke-linejoin:round;stroke:rgb(0%,0%,0%);stroke-opacity:1;stroke-miterlimit:10;" d="M 198.426069 0.00157778 L 198.426069 42.521822 L 155.905824 0.00157778 Z M 198.426069 0.00157778 " transform="matrix(0.992818,0,0,-0.992818,1.295998,49.005473)"/>
<path style="fill-rule:nonzero;fill:rgb(100%,96.939087%,40.000916%);fill-opacity:1;stroke-width:0.3985;stroke-linecap:butt;stroke-linejoin:round;stroke:rgb(0%,0%,0%);stroke-opacity:1;stroke-miterlimit:10;" d="M 198.426069 0.00157778 L 198.426069 42.521822 L 226.77421 -14.17446 Z M 198.426069 0.00157778 L 198.426069 42.521822 L 181.421119 -14.17446 Z M 198.426069 0.00157778 " transform="matrix(0.992818,0,0,-0.992818,1.295998,49.005473)"/>
<path style="fill:none;stroke-width:0.3985;stroke-linecap:butt;stroke-linejoin:round;stroke:rgb(0%,0%,0%);stroke-opacity:1;stroke-dasharray:2.98883,2.98883;stroke-miterlimit:10;" d="M 198.426069 0.00157778 L 155.905824 0.00157778 " transform="matrix(0.992818,0,0,-0.992818,1.295998,49.005473)"/>
<path style="fill:none;stroke-width:0.3985;stroke-linecap:butt;stroke-linejoin:round;stroke:rgb(0%,0%,0%);stroke-opacity:1;stroke-miterlimit:10;" d="M 198.426069 0.00157778 L 198.426069 42.521822 " transform="matrix(0.992818,0,0,-0.992818,1.295998,49.005473)"/>
<path style=" stroke:none;fill-rule:nonzero;fill:rgb(50%,50%,50%);fill-opacity:1;" d="M 227.429688 63.078125 C 227.429688 62.53125 226.988281 62.089844 226.441406 62.089844 C 225.894531 62.089844 225.453125 62.53125 225.453125 63.078125 C 225.453125 63.625 225.894531 64.066406 226.441406 64.066406 C 226.988281 64.066406 227.429688 63.625 227.429688 63.078125 Z M 227.429688 63.078125 "/>
<path style=" stroke:none;fill-rule:nonzero;fill:rgb(50%,50%,50%);fill-opacity:1;" d="M 182.402344 63.078125 C 182.402344 62.53125 181.957031 62.089844 181.414062 62.089844 C 180.867188 62.089844 180.421875 62.53125 180.421875 63.078125 C 180.421875 63.625 180.867188 64.066406 181.414062 64.066406 C 181.957031 64.066406 182.402344 63.625 182.402344 63.078125 Z M 182.402344 63.078125 "/>
<path style=" stroke:none;fill-rule:nonzero;fill:rgb(50%,50%,50%);fill-opacity:1;" d="M 157.074219 49.003906 C 157.074219 48.460938 156.628906 48.015625 156.082031 48.015625 C 155.539062 48.015625 155.09375 48.460938 155.09375 49.003906 C 155.09375 49.550781 155.539062 49.996094 156.082031 49.996094 C 156.628906 49.996094 157.074219 49.550781 157.074219 49.003906 Z M 157.074219 49.003906 "/>
<path style=" stroke:none;fill-rule:nonzero;fill:rgb(50%,50%,50%);fill-opacity:1;" d="M 199.289062 49.003906 C 199.289062 48.460938 198.84375 48.015625 198.296875 48.015625 C 197.753906 48.015625 197.308594 48.460938 197.308594 49.003906 C 197.308594 49.550781 197.753906 49.996094 198.296875 49.996094 C 198.84375 49.996094 199.289062 49.550781 199.289062 49.003906 Z M 199.289062 49.003906 "/>
<path style=" stroke:none;fill-rule:nonzero;fill:rgb(50%,50%,50%);fill-opacity:1;" d="M 199.289062 6.789062 C 199.289062 6.246094 198.84375 5.800781 198.296875 5.800781 C 197.753906 5.800781 197.308594 6.246094 197.308594 6.789062 C 197.308594 7.335938 197.753906 7.78125 198.296875 7.78125 C 198.84375 7.78125 199.289062 7.335938 199.289062 6.789062 Z M 199.289062 6.789062 "/>
<path style="fill-rule:nonzero;fill:rgb(100%,96.939087%,40.000916%);fill-opacity:1;stroke-width:0.3985;stroke-linecap:butt;stroke-linejoin:round;stroke:rgb(0%,0%,0%);stroke-opacity:1;stroke-miterlimit:10;" d="M 283.466558 0.00157778 L 260.79198 -8.504832 L 249.452723 14.173681 Z M 283.466558 0.00157778 L 249.452723 14.173681 L 269.294455 28.345785 Z M 283.466558 0.00157778 " transform="matrix(0.992818,0,0,-0.992818,1.295998,49.005473)"/>
<path style="fill-rule:nonzero;fill:rgb(100%,96.939087%,40.000916%);fill-opacity:1;stroke-width:0.3985;stroke-linecap:butt;stroke-linejoin:round;stroke:rgb(0%,0%,0%);stroke-opacity:1;stroke-miterlimit:10;" d="M 283.466558 0.00157778 L 297.642596 28.345785 L 317.484328 14.173681 Z M 283.466558 0.00157778 L 317.484328 14.173681 L 306.145071 -8.504832 Z M 283.466558 0.00157778 " transform="matrix(0.992818,0,0,-0.992818,1.295998,49.005473)"/>
<path style=" stroke:none;fill-rule:nonzero;fill:rgb(50%,50%,50%);fill-opacity:1;" d="M 283.71875 49.003906 C 283.71875 48.460938 283.273438 48.015625 282.726562 48.015625 C 282.183594 48.015625 281.738281 48.460938 281.738281 49.003906 C 281.738281 49.550781 282.183594 49.996094 282.726562 49.996094 C 283.273438 49.996094 283.71875 49.550781 283.71875 49.003906 Z M 283.71875 49.003906 "/>
<path style=" stroke:none;fill-rule:nonzero;fill:rgb(50%,50%,50%);fill-opacity:1;" d="M 269.644531 20.863281 C 269.644531 20.316406 269.203125 19.875 268.65625 19.875 C 268.109375 19.875 267.667969 20.316406 267.667969 20.863281 C 267.667969 21.410156 268.109375 21.851562 268.65625 21.851562 C 269.203125 21.851562 269.644531 21.410156 269.644531 20.863281 Z M 269.644531 20.863281 "/>
<path style=" stroke:none;fill-rule:nonzero;fill:rgb(50%,50%,50%);fill-opacity:1;" d="M 249.945312 34.933594 C 249.945312 34.386719 249.503906 33.945312 248.957031 33.945312 C 248.410156 33.945312 247.96875 34.386719 247.96875 34.933594 C 247.96875 35.480469 248.410156 35.921875 248.957031 35.921875 C 249.503906 35.921875 249.945312 35.480469 249.945312 34.933594 Z M 249.945312 34.933594 "/>
<path style=" stroke:none;fill-rule:nonzero;fill:rgb(50%,50%,50%);fill-opacity:1;" d="M 261.203125 57.449219 C 261.203125 56.902344 260.761719 56.460938 260.214844 56.460938 C 259.667969 56.460938 259.222656 56.902344 259.222656 57.449219 C 259.222656 57.996094 259.667969 58.4375 260.214844 58.4375 C 260.761719 58.4375 261.203125 57.996094 261.203125 57.449219 Z M 261.203125 57.449219 "/>
<path style=" stroke:none;fill-rule:nonzero;fill:rgb(50%,50%,50%);fill-opacity:1;" d="M 306.230469 57.449219 C 306.230469 56.902344 305.789062 56.460938 305.242188 56.460938 C 304.695312 56.460938 304.253906 56.902344 304.253906 57.449219 C 304.253906 57.996094 304.695312 58.4375 305.242188 58.4375 C 305.789062 58.4375 306.230469 57.996094 306.230469 57.449219 Z M 306.230469 57.449219 "/>
<path style=" stroke:none;fill-rule:nonzero;fill:rgb(50%,50%,50%);fill-opacity:1;" d="M 317.488281 34.933594 C 317.488281 34.386719 317.046875 33.945312 316.5 33.945312 C 315.953125 33.945312 315.511719 34.386719 315.511719 34.933594 C 315.511719 35.480469 315.953125 35.921875 316.5 35.921875 C 317.046875 35.921875 317.488281 35.480469 317.488281 34.933594 Z M 317.488281 34.933594 "/>
<path style=" stroke:none;fill-rule:nonzero;fill:rgb(50%,50%,50%);fill-opacity:1;" d="M 297.789062 20.863281 C 297.789062 20.316406 297.347656 19.875 296.800781 19.875 C 296.253906 19.875 295.8125 20.316406 295.8125 20.863281 C 295.8125 21.410156 296.253906 21.851562 296.800781 21.851562 C 297.347656 21.851562 297.789062 21.410156 297.789062 20.863281 Z M 297.789062 20.863281 "/>
<path style="fill-rule:nonzero;fill:rgb(100%,96.939087%,40.000916%);fill-opacity:1;stroke-width:0.3985;stroke-linecap:butt;stroke-linejoin:round;stroke:rgb(0%,0%,0%);stroke-opacity:1;stroke-miterlimit:10;" d="M 28.34509 -85.038911 L 65.199641 -73.703589 C 65.199641 -59.574766 53.813171 -48.188295 39.684347 -48.188295 Z M 28.34509 -85.038911 L 65.199641 -73.703589 C 51.070818 -73.703589 39.684347 -62.317119 39.684347 -48.188295 Z M 28.34509 -85.038911 " transform="matrix(0.992818,0,0,-0.992818,1.295998,49.005473)"/>
<path style="fill-rule:nonzero;fill:rgb(100%,96.939087%,40.000916%);fill-opacity:1;stroke-width:0.3985;stroke-linecap:butt;stroke-linejoin:round;stroke:rgb(0%,0%,0%);stroke-opacity:1;stroke-miterlimit:10;" d="M 113.38558 -85.038911 L 141.733721 -85.038911 L 127.561618 -68.033961 Z M 113.38558 -85.038911 L 127.561618 -68.033961 L 113.38558 -56.694705 Z M 113.38558 -56.694705 L 127.561618 -68.033961 L 141.733721 -56.694705 L 127.561618 -48.188295 Z M 127.561618 -68.033961 L 141.733721 -56.694705 L 161.575453 -62.364333 L 164.412234 -79.369283 L 141.733721 -85.038911 Z M 127.561618 -68.033961 " transform="matrix(0.992818,0,0,-0.992818,1.295998,49.005473)"/>
<path style=" stroke:none;fill-rule:nonzero;fill:rgb(100%,96.939087%,40.000916%);fill-opacity:1;" d="M 203.925781 127.804688 L 232.070312 134.84375 L 218 99.664062 Z M 232.070312 134.84375 L 218 99.664062 L 246.140625 113.734375 Z M 232.070312 134.84375 "/>
<g clip-path="url(#clip3)" clip-rule="nonzero">
<path style="fill:none;stroke-width:0.3985;stroke-linecap:butt;stroke-linejoin:round;stroke:rgb(0%,0%,0%);stroke-opacity:1;stroke-miterlimit:10;" d="M 204.095697 -79.369283 L 232.443838 -86.459269 L 218.271735 -51.025076 Z M 232.443838 -86.459269 L 218.271735 -51.025076 L 246.615942 -65.19718 Z M 232.443838 -86.459269 " transform="matrix(0.992818,0,0,-0.992818,1.295998,49.005473)"/>
</g>
<path style="fill-rule:nonzero;fill:rgb(100%,96.939087%,40.000916%);fill-opacity:1;stroke-width:0.3985;stroke-linecap:butt;stroke-linejoin:round;stroke:rgb(0%,0%,0%);stroke-opacity:1;stroke-miterlimit:10;" d="M 246.615942 -65.19718 L 267.878031 -36.849039 L 289.136186 -66.613603 Z M 246.615942 -65.19718 " transform="matrix(0.992818,0,0,-0.992818,1.295998,49.005473)"/>
<path style="fill:none;stroke-width:0.3985;stroke-linecap:butt;stroke-linejoin:round;stroke:rgb(0%,0%,0%);stroke-opacity:1;stroke-dasharray:2.98883,2.98883;stroke-miterlimit:10;" d="M 204.095697 -79.369283 L 246.615942 -65.19718 M 289.136186 -66.613603 L 263.624827 -51.025076 M 246.615942 -65.19718 L 263.624827 -51.025076 M 267.878031 -36.849039 L 263.624827 -51.025076 " transform="matrix(0.992818,0,0,-0.992818,1.295998,49.005473)"/>
</g>
</svg>
