<?xml version="1.0" encoding="iso-8859-1" standalone="no"?> 
<?xml-stylesheet href="_Wrapper_Image_facegraph_Double6Gon_FaceLabelsOff.css" type="text/css"?> 
<svg xmlns="http://www.w3.org/2000/svg" xmlns:xlink="http://www.w3.org/1999/xlink" width="237.82088pt" height="234.2879pt" viewBox="-6.86595 -3.33298 237.82088 234.2879 "> 
<g transform="translate(0,230.95493 ) scale(1,-1) translate(0,3.33298 )"> 
<g stroke="#000" fill="#000">
 <g stroke-width="0.4">
 <g stroke-width="0.2">
 <g stroke-linejoin="round">
 <g stroke-width="1.2">
 <path d=" M 0.0 227.62195 L 0.0 0.0  " fill="none"/>
 <g stroke-width="0.8">
 <g stroke="#8c8c8c">
 <path d=" M 0.0 227.62195 L 0.0 0.0  " fill="none"/>
 </g>
 </g>
 </g>
 <g transform="translate(0.0,113.81097)">
 <g fill="#000">
 <text style="stroke:none" transform="scale(1,-1) translate(0.0,0)" text-anchor="middle"  font-size="10"> 
<g fill="#000">
 <g stroke="none"> </g> </g>
 </text> 
</g>
 </g>
 </g>
 </g>
 <g stroke-width="0.2">
 <g stroke-linejoin="round">
 <g stroke-width="1.2">
 <path d=" M 0.0 227.62195 L 113.81097 227.62195  " fill="none"/>
 <g stroke-width="0.8">
 <g stroke="#8c8c8c">
 <path d=" M 0.0 227.62195 L 113.81097 227.62195  " fill="none"/>
 </g>
 </g>
 </g>
 <g transform="translate(56.90549,227.62195)">
 <g fill="#000">
 <text style="stroke:none" transform="scale(1,-1) translate(0.0,0)" text-anchor="middle"  font-size="10"> 
<g fill="#000">
 <g stroke="none"> </g> </g>
 </text> 
</g>
 </g>
 </g>
 </g>
 <g stroke-width="0.2">
 <g stroke-linejoin="round">
 <g stroke-width="1.2">
 <path d=" M 113.81097 227.62195 L 227.62195 227.62195  " fill="none"/>
 <g stroke-width="0.8">
 <g stroke="#8c8c8c">
 <path d=" M 113.81097 227.62195 L 227.62195 227.62195  " fill="none"/>
 </g>
 </g>
 </g>
 <g transform="translate(170.71646,227.62195)">
 <g fill="#000">
 <text style="stroke:none" transform="scale(1,-1) translate(0.0,0)" text-anchor="middle"  font-size="10"> 
<g fill="#000">
 <g stroke="none"> </g> </g>
 </text> 
</g>
 </g>
 </g>
 </g>
 <g stroke-width="0.2">
 <g stroke-linejoin="round">
 <g stroke-width="1.2">
 <path d=" M 227.62195 227.62195 L 227.62195 0.0  " fill="none"/>
 <g stroke-width="0.8">
 <g stroke="#8c8c8c">
 <path d=" M 227.62195 227.62195 L 227.62195 0.0  " fill="none"/>
 </g>
 </g>
 </g>
 <g transform="translate(227.62195,113.81097)">
 <g fill="#000">
 <text style="stroke:none" transform="scale(1,-1) translate(0.0,0)" text-anchor="middle"  font-size="10"> 
<g fill="#000">
 <g stroke="none"> </g> </g>
 </text> 
</g>
 </g>
 </g>
 </g>
 <g stroke-width="0.2">
 <g stroke-linejoin="round">
 <g stroke-width="1.2">
 <path d=" M 227.62195 0.0 L 113.81097 0.0  " fill="none"/>
 <g stroke-width="0.8">
 <g stroke="#8c8c8c">
 <path d=" M 227.62195 0.0 L 113.81097 0.0  " fill="none"/>
 </g>
 </g>
 </g>
 <g transform="translate(170.71646,0.0)">
 <g fill="#000">
 <text style="stroke:none" transform="scale(1,-1) translate(0.0,0)" text-anchor="middle"  font-size="10"> 
<g fill="#000">
 <g stroke="none"> </g> </g>
 </text> 
</g>
 </g>
 </g>
 </g>
 <g stroke-width="0.2">
 <g stroke-linejoin="round">
 <g stroke-width="1.2">
 <path d=" M 113.81097 0.0 L 0.0 0.0  " fill="none"/>
 <g stroke-width="0.8">
 <g stroke="#8c8c8c">
 <path d=" M 113.81097 0.0 L 0.0 0.0  " fill="none"/>
 </g>
 </g>
 </g>
 <g transform="translate(56.90549,0.0)">
 <g fill="#000">
 <text style="stroke:none" transform="scale(1,-1) translate(0.0,0)" text-anchor="middle"  font-size="10"> 
<g fill="#000">
 <g stroke="none"> </g> </g>
 </text> 
</g>
 </g>
 </g>
 </g>
 <g stroke-width="0.2">
 <g stroke-linejoin="round">
 <g stroke-width="1.2">
 <path d=" M 0.0 227.62195 L 56.90549 170.71646  " fill="none"/>
 <g stroke-width="0.8">
 <g stroke="#8c8c8c">
 <path d=" M 0.0 227.62195 L 56.90549 170.71646  " fill="none"/>
 </g>
 </g>
 </g>
 <g transform="translate(28.45273,199.16922)">
 <g fill="#000">
 <text style="stroke:none" transform="scale(1,-1) translate(0.0,0)" text-anchor="middle"  font-size="10"> 
<g fill="#000">
 <g stroke="none"> </g> </g>
 </text> 
</g>
 </g>
 </g>
 </g>
 <g stroke-width="0.2">
 <g stroke-linejoin="round">
 <g stroke-width="1.2">
 <path d=" M 0.0 0.0 L 56.90549 56.90549  " fill="none"/>
 <g stroke-width="0.8">
 <g stroke="#8c8c8c">
 <path d=" M 0.0 0.0 L 56.90549 56.90549  " fill="none"/>
 </g>
 </g>
 </g>
 <g transform="translate(28.45273,28.45273)">
 <g fill="#000">
 <text style="stroke:none" transform="scale(1,-1) translate(0.0,0)" text-anchor="middle"  font-size="10"> 
<g fill="#000">
 <g stroke="none"> </g> </g>
 </text> 
</g>
 </g>
 </g>
 </g>
 <g stroke-width="0.2">
 <g stroke-linejoin="round">
 <g stroke-width="1.2">
 <path d=" M 56.90549 170.71646 L 56.90549 56.90549  " fill="none"/>
 <g stroke-width="0.8">
 <g stroke="#8c8c8c">
 <path d=" M 56.90549 170.71646 L 56.90549 56.90549  " fill="none"/>
 </g>
 </g>
 </g>
 <g transform="translate(56.90549,113.81097)">
 <g fill="#000">
 <text style="stroke:none" transform="scale(1,-1) translate(0.0,0)" text-anchor="middle"  font-size="10"> 
<g fill="#000">
 <g stroke="none"> </g> </g>
 </text> 
</g>
 </g>
 </g>
 </g>
 <g stroke-width="0.2">
 <g stroke-linejoin="round">
 <g stroke-width="1.2">
 <path d=" M 113.81097 227.62195 L 113.81097 170.71646  " fill="none"/>
 <g stroke-width="0.8">
 <g stroke="#8c8c8c">
 <path d=" M 113.81097 227.62195 L 113.81097 170.71646  " fill="none"/>
 </g>
 </g>
 </g>
 <g transform="translate(113.81097,199.16922)">
 <g fill="#000">
 <text style="stroke:none" transform="scale(1,-1) translate(0.0,0)" text-anchor="middle"  font-size="10"> 
<g fill="#000">
 <g stroke="none"> </g> </g>
 </text> 
</g>
 </g>
 </g>
 </g>
 <g stroke-width="0.2">
 <g stroke-linejoin="round">
 <g stroke-width="1.2">
 <path d=" M 56.90549 170.71646 L 113.81097 170.71646  " fill="none"/>
 <g stroke-width="0.8">
 <g stroke="#8c8c8c">
 <path d=" M 56.90549 170.71646 L 113.81097 170.71646  " fill="none"/>
 </g>
 </g>
 </g>
 <g transform="translate(85.35822,170.71646)">
 <g fill="#000">
 <text style="stroke:none" transform="scale(1,-1) translate(0.0,0)" text-anchor="middle"  font-size="10"> 
<g fill="#000">
 <g stroke="none"> </g> </g>
 </text> 
</g>
 </g>
 </g>
 </g>
 <g stroke-width="0.2">
 <g stroke-linejoin="round">
 <g stroke-width="1.2">
 <path d=" M 227.62195 227.62195 L 170.71646 170.71646  " fill="none"/>
 <g stroke-width="0.8">
 <g stroke="#8c8c8c">
 <path d=" M 227.62195 227.62195 L 170.71646 170.71646  " fill="none"/>
 </g>
 </g>
 </g>
 <g transform="translate(199.16922,199.16922)">
 <g fill="#000">
 <text style="stroke:none" transform="scale(1,-1) translate(0.0,0)" text-anchor="middle"  font-size="10"> 
<g fill="#000">
 <g stroke="none"> </g> </g>
 </text> 
</g>
 </g>
 </g>
 </g>
 <g stroke-width="0.2">
 <g stroke-linejoin="round">
 <g stroke-width="1.2">
 <path d=" M 113.81097 170.71646 L 170.71646 170.71646  " fill="none"/>
 <g stroke-width="0.8">
 <g stroke="#8c8c8c">
 <path d=" M 113.81097 170.71646 L 170.71646 170.71646  " fill="none"/>
 </g>
 </g>
 </g>
 <g transform="translate(142.2637,170.71646)">
 <g fill="#000">
 <text style="stroke:none" transform="scale(1,-1) translate(0.0,0)" text-anchor="middle"  font-size="10"> 
<g fill="#000">
 <g stroke="none"> </g> </g>
 </text> 
</g>
 </g>
 </g>
 </g>
 <g stroke-width="0.2">
 <g stroke-linejoin="round">
 <g stroke-width="1.2">
 <path d=" M 227.62195 0.0 L 170.71646 56.90549  " fill="none"/>
 <g stroke-width="0.8">
 <g stroke="#8c8c8c">
 <path d=" M 227.62195 0.0 L 170.71646 56.90549  " fill="none"/>
 </g>
 </g>
 </g>
 <g transform="translate(199.16922,28.45273)">
 <g fill="#000">
 <text style="stroke:none" transform="scale(1,-1) translate(0.0,0)" text-anchor="middle"  font-size="10"> 
<g fill="#000">
 <g stroke="none"> </g> </g>
 </text> 
</g>
 </g>
 </g>
 </g>
 <g stroke-width="0.2">
 <g stroke-linejoin="round">
 <g stroke-width="1.2">
 <path d=" M 170.71646 170.71646 L 170.71646 56.90549  " fill="none"/>
 <g stroke-width="0.8">
 <g stroke="#8c8c8c">
 <path d=" M 170.71646 170.71646 L 170.71646 56.90549  " fill="none"/>
 </g>
 </g>
 </g>
 <g transform="translate(170.71646,113.81097)">
 <g fill="#000">
 <text style="stroke:none" transform="scale(1,-1) translate(0.0,0)" text-anchor="middle"  font-size="10"> 
<g fill="#000">
 <g stroke="none"> </g> </g>
 </text> 
</g>
 </g>
 </g>
 </g>
 <g stroke-width="0.2">
 <g stroke-linejoin="round">
 <g stroke-width="1.2">
 <path d=" M 113.81097 0.0 L 113.81097 56.90549  " fill="none"/>
 <g stroke-width="0.8">
 <g stroke="#8c8c8c">
 <path d=" M 113.81097 0.0 L 113.81097 56.90549  " fill="none"/>
 </g>
 </g>
 </g>
 <g transform="translate(113.81097,28.45273)">
 <g fill="#000">
 <text style="stroke:none" transform="scale(1,-1) translate(0.0,0)" text-anchor="middle"  font-size="10"> 
<g fill="#000">
 <g stroke="none"> </g> </g>
 </text> 
</g>
 </g>
 </g>
 </g>
 <g stroke-width="0.2">
 <g stroke-linejoin="round">
 <g stroke-width="1.2">
 <path d=" M 170.71646 56.90549 L 113.81097 56.90549  " fill="none"/>
 <g stroke-width="0.8">
 <g stroke="#8c8c8c">
 <path d=" M 170.71646 56.90549 L 113.81097 56.90549  " fill="none"/>
 </g>
 </g>
 </g>
 <g transform="translate(142.26373,56.90549)">
 <g fill="#000">
 <text style="stroke:none" transform="scale(1,-1) translate(0.0,0)" text-anchor="middle"  font-size="10"> 
<g fill="#000">
 <g stroke="none"> </g> </g>
 </text> 
</g>
 </g>
 </g>
 </g>
 <g stroke-width="0.2">
 <g stroke-linejoin="round">
 <g stroke-width="1.2">
 <path d=" M 113.81097 56.90549 L 56.90549 56.90549  " fill="none"/>
 <g stroke-width="0.8">
 <g stroke="#8c8c8c">
 <path d=" M 113.81097 56.90549 L 56.90549 56.90549  " fill="none"/>
 </g>
 </g>
 </g>
 <g transform="translate(85.35825,56.90549)">
 <g fill="#000">
 <text style="stroke:none" transform="scale(1,-1) translate(0.0,0)" text-anchor="middle"  font-size="10"> 
<g fill="#000">
 <g stroke="none"> </g> </g>
 </text> 
</g>
 </g>
 </g>
 </g>
 <g fill="#e6e6e6">
 <g fill="#e6e6e6">
 <path d=" M 2.82861 227.62195 C 2.82861 229.18416 1.56221 230.45056 0.0 230.45056 C -1.56221 230.45056 -2.82861 229.18416 -2.82861 227.62195 C -2.82861 226.05974 -1.56221 224.79333 0.0 224.79333 C 1.56221 224.79333 2.82861 226.05974 2.82861 227.62195 Z M 0.0 227.62195  " stroke="none"/>
 </g>
 <g transform="translate(0.0,227.62195)">
 <g fill="#000">
 <text style="stroke:none" transform="scale(1,-1) translate(0.0,0)" text-anchor="middle"  font-size="10"> 
<g fill="#000">
 <g stroke="none"> </g> </g>
 </text> 
</g>
 </g>
 </g>
 <g transform="translate(-3.53297,227.62195)">
 <g fill="#000">
 <text style="stroke:none" transform="scale(1,-1) translate(0.0,0)" text-anchor="middle"  font-size="10"> 
<g fill="#000">
 <g stroke="none"> </g> </g>
 </text> 
</g>
 </g>
 <g fill="#e6e6e6">
 <g fill="#e6e6e6">
 <path d=" M 116.63959 227.62195 C 116.63959 229.18416 115.37318 230.45056 113.81097 230.45056 C 112.24876 230.45056 110.98236 229.18416 110.98236 227.62195 C 110.98236 226.05974 112.24876 224.79333 113.81097 224.79333 C 115.37318 224.79333 116.63959 226.05974 116.63959 227.62195 Z M 113.81097 227.62195  " stroke="none"/>
 </g>
 <g transform="translate(113.81097,227.62195)">
 <g fill="#000">
 <text style="stroke:none" transform="scale(1,-1) translate(0.0,0)" text-anchor="middle"  font-size="10"> 
<g fill="#000">
 <g stroke="none"> </g> </g>
 </text> 
</g>
 </g>
 </g>
 <g transform="translate(110.278,227.62195)">
 <g fill="#000">
 <text style="stroke:none" transform="scale(1,-1) translate(0.0,0)" text-anchor="middle"  font-size="10"> 
<g fill="#000">
 <g stroke="none"> </g> </g>
 </text> 
</g>
 </g>
 <g fill="#e6e6e6">
 <g fill="#e6e6e6">
 <path d=" M 230.45056 227.62195 C 230.45056 229.18416 229.18416 230.45056 227.62195 230.45056 C 226.05974 230.45056 224.79333 229.18416 224.79333 227.62195 C 224.79333 226.05974 226.05974 224.79333 227.62195 224.79333 C 229.18416 224.79333 230.45056 226.05974 230.45056 227.62195 Z M 227.62195 227.62195  " stroke="none"/>
 </g>
 <g transform="translate(227.62195,227.62195)">
 <g fill="#000">
 <text style="stroke:none" transform="scale(1,-1) translate(0.0,0)" text-anchor="middle"  font-size="10"> 
<g fill="#000">
 <g stroke="none"> </g> </g>
 </text> 
</g>
 </g>
 </g>
 <g transform="translate(224.08897,227.62195)">
 <g fill="#000">
 <text style="stroke:none" transform="scale(1,-1) translate(0.0,0)" text-anchor="middle"  font-size="10"> 
<g fill="#000">
 <g stroke="none"> </g> </g>
 </text> 
</g>
 </g>
 <g fill="#e6e6e6">
 <g fill="#e6e6e6">
 <path d=" M 230.45056 0.0 C 230.45056 1.56221 229.18416 2.82861 227.62195 2.82861 C 226.05974 2.82861 224.79333 1.56221 224.79333 0.0 C 224.79333 -1.56221 226.05974 -2.82861 227.62195 -2.82861 C 229.18416 -2.82861 230.45056 -1.56221 230.45056 0.0 Z M 227.62195 0.0  " stroke="none"/>
 </g>
 <g transform="translate(227.62195,0.0)">
 <g fill="#000">
 <text style="stroke:none" transform="scale(1,-1) translate(0.0,0)" text-anchor="middle"  font-size="10"> 
<g fill="#000">
 <g stroke="none"> </g> </g>
 </text> 
</g>
 </g>
 </g>
 <g transform="translate(224.08897,0.0)">
 <g fill="#000">
 <text style="stroke:none" transform="scale(1,-1) translate(0.0,0)" text-anchor="middle"  font-size="10"> 
<g fill="#000">
 <g stroke="none"> </g> </g>
 </text> 
</g>
 </g>
 <g fill="#e6e6e6">
 <g fill="#e6e6e6">
 <path d=" M 116.63959 0.0 C 116.63959 1.56221 115.37318 2.82861 113.81097 2.82861 C 112.24876 2.82861 110.98236 1.56221 110.98236 0.0 C 110.98236 -1.56221 112.24876 -2.82861 113.81097 -2.82861 C 115.37318 -2.82861 116.63959 -1.56221 116.63959 0.0 Z M 113.81097 0.0  " stroke="none"/>
 </g>
 <g transform="translate(113.81097,0.0)">
 <g fill="#000">
 <text style="stroke:none" transform="scale(1,-1) translate(0.0,0)" text-anchor="middle"  font-size="10"> 
<g fill="#000">
 <g stroke="none"> </g> </g>
 </text> 
</g>
 </g>
 </g>
 <g transform="translate(110.278,0.0)">
 <g fill="#000">
 <text style="stroke:none" transform="scale(1,-1) translate(0.0,0)" text-anchor="middle"  font-size="10"> 
<g fill="#000">
 <g stroke="none"> </g> </g>
 </text> 
</g>
 </g>
 <g fill="#e6e6e6">
 <g fill="#e6e6e6">
 <path d=" M 2.82861 0.0 C 2.82861 1.56221 1.56221 2.82861 0.0 2.82861 C -1.56221 2.82861 -2.82861 1.56221 -2.82861 0.0 C -2.82861 -1.56221 -1.56221 -2.82861 0.0 -2.82861 C 1.56221 -2.82861 2.82861 -1.56221 2.82861 0.0 Z M 0.0 0.0  " stroke="none"/>
 </g>
 <g fill="#000">
 <text style="stroke:none" transform="scale(1,-1) translate(0.0,0)" text-anchor="middle"  font-size="10"> 
<g fill="#000">
 <g stroke="none"> </g> </g>
 </text> 
</g>
 </g>
 <g transform="translate(-3.53297,0.0)">
 <g fill="#000">
 <text style="stroke:none" transform="scale(1,-1) translate(0.0,0)" text-anchor="middle"  font-size="10"> 
<g fill="#000">
 <g stroke="none"> </g> </g>
 </text> 
</g>
 </g>
 <g fill="#e6e6e6">
 <g fill="#e6e6e6">
 <path d=" M 59.7341 170.71646 C 59.7341 172.27867 58.4677 173.54507 56.90549 173.54507 C 55.34328 173.54507 54.07687 172.27867 54.07687 170.71646 C 54.07687 169.15425 55.34328 167.88785 56.90549 167.88785 C 58.4677 167.88785 59.7341 169.15425 59.7341 170.71646 Z M 56.90549 170.71646  " stroke="none"/>
 </g>
 <g transform="translate(56.90549,170.71646)">
 <g fill="#000">
 <text style="stroke:none" transform="scale(1,-1) translate(0.0,0)" text-anchor="middle"  font-size="10"> 
<g fill="#000">
 <g stroke="none"> </g> </g>
 </text> 
</g>
 </g>
 </g>
 <g transform="translate(53.37251,170.71646)">
 <g fill="#000">
 <text style="stroke:none" transform="scale(1,-1) translate(0.0,0)" text-anchor="middle"  font-size="10"> 
<g fill="#000">
 <g stroke="none"> </g> </g>
 </text> 
</g>
 </g>
 <g fill="#e6e6e6">
 <g fill="#e6e6e6">
 <path d=" M 116.63959 170.71646 C 116.63959 172.27867 115.37318 173.54507 113.81097 173.54507 C 112.24876 173.54507 110.98236 172.27867 110.98236 170.71646 C 110.98236 169.15425 112.24876 167.88785 113.81097 167.88785 C 115.37318 167.88785 116.63959 169.15425 116.63959 170.71646 Z M 113.81097 170.71646  " stroke="none"/>
 </g>
 <g transform="translate(113.81097,170.71646)">
 <g fill="#000">
 <text style="stroke:none" transform="scale(1,-1) translate(0.0,0)" text-anchor="middle"  font-size="10"> 
<g fill="#000">
 <g stroke="none"> </g> </g>
 </text> 
</g>
 </g>
 </g>
 <g transform="translate(110.278,170.71646)">
 <g fill="#000">
 <text style="stroke:none" transform="scale(1,-1) translate(0.0,0)" text-anchor="middle"  font-size="10"> 
<g fill="#000">
 <g stroke="none"> </g> </g>
 </text> 
</g>
 </g>
 <g fill="#e6e6e6">
 <g fill="#e6e6e6">
 <path d=" M 173.54507 170.71646 C 173.54507 172.27867 172.27867 173.54507 170.71646 173.54507 C 169.15425 173.54507 167.88785 172.27867 167.88785 170.71646 C 167.88785 169.15425 169.15425 167.88785 170.71646 167.88785 C 172.27867 167.88785 173.54507 169.15425 173.54507 170.71646 Z M 170.71646 170.71646  " stroke="none"/>
 </g>
 <g transform="translate(170.71646,170.71646)">
 <g fill="#000">
 <text style="stroke:none" transform="scale(1,-1) translate(0.0,0)" text-anchor="middle"  font-size="10"> 
<g fill="#000">
 <g stroke="none"> </g> </g>
 </text> 
</g>
 </g>
 </g>
 <g transform="translate(167.18349,170.71646)">
 <g fill="#000">
 <text style="stroke:none" transform="scale(1,-1) translate(0.0,0)" text-anchor="middle"  font-size="10"> 
<g fill="#000">
 <g stroke="none"> </g> </g>
 </text> 
</g>
 </g>
 <g fill="#e6e6e6">
 <g fill="#e6e6e6">
 <path d=" M 173.54507 56.90549 C 173.54507 58.4677 172.27867 59.7341 170.71646 59.7341 C 169.15425 59.7341 167.88785 58.4677 167.88785 56.90549 C 167.88785 55.34328 169.15425 54.07687 170.71646 54.07687 C 172.27867 54.07687 173.54507 55.34328 173.54507 56.90549 Z M 170.71646 56.90549  " stroke="none"/>
 </g>
 <g transform="translate(170.71646,56.90549)">
 <g fill="#000">
 <text style="stroke:none" transform="scale(1,-1) translate(0.0,0)" text-anchor="middle"  font-size="10"> 
<g fill="#000">
 <g stroke="none"> </g> </g>
 </text> 
</g>
 </g>
 </g>
 <g transform="translate(167.18349,56.90549)">
 <g fill="#000">
 <text style="stroke:none" transform="scale(1,-1) translate(0.0,0)" text-anchor="middle"  font-size="10"> 
<g fill="#000">
 <g stroke="none"> </g> </g>
 </text> 
</g>
 </g>
 <g fill="#e6e6e6">
 <g fill="#e6e6e6">
 <path d=" M 116.63959 56.90549 C 116.63959 58.4677 115.37318 59.7341 113.81097 59.7341 C 112.24876 59.7341 110.98236 58.4677 110.98236 56.90549 C 110.98236 55.34328 112.24876 54.07687 113.81097 54.07687 C 115.37318 54.07687 116.63959 55.34328 116.63959 56.90549 Z M 113.81097 56.90549  " stroke="none"/>
 </g>
 <g transform="translate(113.81097,56.90549)">
 <g fill="#000">
 <text style="stroke:none" transform="scale(1,-1) translate(0.0,0)" text-anchor="middle"  font-size="10"> 
<g fill="#000">
 <g stroke="none"> </g> </g>
 </text> 
</g>
 </g>
 </g>
 <g transform="translate(110.278,56.90549)">
 <g fill="#000">
 <text style="stroke:none" transform="scale(1,-1) translate(0.0,0)" text-anchor="middle"  font-size="10"> 
<g fill="#000">
 <g stroke="none"> </g> </g>
 </text> 
</g>
 </g>
 <g fill="#e6e6e6">
 <g fill="#e6e6e6">
 <path d=" M 59.7341 56.90549 C 59.7341 58.4677 58.4677 59.7341 56.90549 59.7341 C 55.34328 59.7341 54.07687 58.4677 54.07687 56.90549 C 54.07687 55.34328 55.34328 54.07687 56.90549 54.07687 C 58.4677 54.07687 59.7341 55.34328 59.7341 56.90549 Z M 56.90549 56.90549  " stroke="none"/>
 </g>
 <g transform="translate(56.90549,56.90549)">
 <g fill="#000">
 <text style="stroke:none" transform="scale(1,-1) translate(0.0,0)" text-anchor="middle"  font-size="10"> 
<g fill="#000">
 <g stroke="none"> </g> </g>
 </text> 
</g>
 </g>
 </g>
 <g transform="translate(53.37251,56.90549)">
 <g fill="#000">
 <text style="stroke:none" transform="scale(1,-1) translate(0.0,0)" text-anchor="middle"  font-size="10"> 
<g fill="#000">
 <g stroke="none"> </g> </g>
 </text> 
</g>
 </g>
 </g>
 </g>
                                              </g> 
</svg> 
