<?xml version="1.0" encoding="iso-8859-1" standalone="no"?> 
<?xml-stylesheet href="_Wrapper_structs-8.css" type="text/css"?> 
<svg xmlns="http://www.w3.org/2000/svg" xmlns:xlink="http://www.w3.org/1999/xlink" width="197.69928pt" height="56.85825pt" viewBox="-42.8791 -21.53955 197.69928 56.85825 "> 
<g transform="translate(0,35.3187 ) scale(1,-1) translate(0,21.53955 )"> 
             <g stroke="#000" fill="#000">
 <g stroke-width="0.4">
 <g stroke-linejoin="round">
 <g stroke="#000">
 <g fill="#ff6">
 <path d=" M -42.67911 -14.22636 L -14.22636 -21.33955 L -28.45274 14.22636 Z M -14.22636 -21.33955 L -28.45274 14.22636 L 0.0 0.0 Z  " />
 </g>
 </g>
 </g>
 <g stroke-linejoin="round">
 <g stroke="#000">
 <g fill="#6ff">
 <path d=" M 0.0 0.0 L 21.33955 28.45274 L 42.67911 -1.42271 Z  " />
 </g>
 </g>
 </g>
 <g stroke-linejoin="round">
 <g stroke="#000">
 <g stroke-dasharray="3.0,3.0" stroke-dashoffset="0.0">
 <path d=" M -42.67911 -14.22636 L 0.0 0.0 M 42.67911 -1.42271 L 17.0716 14.22636 M 0.0 0.0 L 17.0716 14.22636 M 21.33955 28.45274 L 17.0716 14.22636  " fill="none"/>
 </g>
 </g>
 </g>
 <g fill="#ff6">
 <g stroke-linejoin="round">
 <g stroke="#000">
 <path d=" M 113.81102 0.0 L 91.04875 -8.5359 L 79.66782 14.22636 Z M 113.81102 0.0 L 79.66782 14.22636 L 99.58466 28.45274 Z  " />
 </g>
 </g>
 </g>
 <g fill="#6ff">
 <g stroke-linejoin="round">
 <g stroke="#000">
 <path d=" M 113.81102 0.0 L 128.03738 28.45274 L 147.95422 14.22636 Z M 113.81102 0.0 L 147.95422 14.22636 L 136.57329 -8.5359 Z  " />
 </g>
 </g>
 </g>
 <g fill="#808080">
 <g fill="#808080">
 <path d=" M 114.81102 0.0 C 114.81102 0.55229 114.36331 1.0 113.81102 1.0 C 113.25873 1.0 112.81102 0.55229 112.81102 0.0 C 112.81102 -0.55229 113.25873 -1.0 113.81102 -1.0 C 114.36331 -1.0 114.81102 -0.55229 114.81102 0.0 Z M 113.81102 0.0  " stroke="none"/>
 </g>
 <g transform="translate(113.81102,0.0)">
 <g fill="#000">
 <text style="stroke:none" transform="scale(1,-1) translate(0.0,0)" text-anchor="middle"  font-size="10"> 
<g fill="#000">
 <g stroke="none"> </g> </g>
 </text> 
</g>
 </g>
 </g>
 <g transform="translate(113.81102,-3.53297)">
 <g fill="#000">
 <text style="stroke:none" transform="scale(1,-1) translate(0.0,0)" text-anchor="middle"  font-size="10"> 
<g fill="#000">
 <g stroke="none"> </g> </g>
 </text> 
</g>
 </g>
 <g fill="#808080">
 <g fill="#808080">
 <path d=" M 100.58466 28.45274 C 100.58466 29.00504 100.13695 29.45274 99.58466 29.45274 C 99.03236 29.45274 98.58466 29.00504 98.58466 28.45274 C 98.58466 27.90045 99.03236 27.45274 99.58466 27.45274 C 100.13695 27.45274 100.58466 27.90045 100.58466 28.45274 Z M 99.58466 28.45274  " stroke="none"/>
 </g>
 <g transform="translate(99.58466,28.45274)">
 <g fill="#000">
 <text style="stroke:none" transform="scale(1,-1) translate(0.0,0)" text-anchor="middle"  font-size="10"> 
<g fill="#000">
 <g stroke="none"> </g> </g>
 </text> 
</g>
 </g>
 </g>
 <g transform="translate(99.58466,31.98572)">
 <g fill="#000">
 <text style="stroke:none" transform="scale(1,-1) translate(0.0,0)" text-anchor="middle"  font-size="10"> 
<g fill="#000">
 <g stroke="none"> </g> </g>
 </text> 
</g>
 </g>
 <g fill="#808080">
 <g fill="#808080">
 <path d=" M 80.66782 14.22636 C 80.66782 14.77866 80.22011 15.22636 79.66782 15.22636 C 79.11552 15.22636 78.66782 14.77866 78.66782 14.22636 C 78.66782 13.67407 79.11552 13.22636 79.66782 13.22636 C 80.22011 13.22636 80.66782 13.67407 80.66782 14.22636 Z M 79.66782 14.22636  " stroke="none"/>
 </g>
 <g transform="translate(79.66782,14.22636)">
 <g fill="#000">
 <text style="stroke:none" transform="scale(1,-1) translate(0.0,0)" text-anchor="middle"  font-size="10"> 
<g fill="#000">
 <g stroke="none"> </g> </g>
 </text> 
</g>
 </g>
 </g>
 <g transform="translate(76.13484,14.22636)">
 <g fill="#000">
 <text style="stroke:none" transform="scale(1,-1) translate(0.0,0)" text-anchor="middle"  font-size="10"> 
<g fill="#000">
 <g stroke="none"> </g> </g>
 </text> 
</g>
 </g>
 <g fill="#808080">
 <g fill="#808080">
 <path d=" M 92.04875 -8.5359 C 92.04875 -7.98361 91.60104 -7.5359 91.04875 -7.5359 C 90.49646 -7.5359 90.04875 -7.98361 90.04875 -8.5359 C 90.04875 -9.0882 90.49646 -9.5359 91.04875 -9.5359 C 91.60104 -9.5359 92.04875 -9.0882 92.04875 -8.5359 Z M 91.04875 -8.5359  " stroke="none"/>
 </g>
 <g transform="translate(91.04875,-8.5359)">
 <g fill="#000">
 <text style="stroke:none" transform="scale(1,-1) translate(0.0,0)" text-anchor="middle"  font-size="10"> 
<g fill="#000">
 <g stroke="none"> </g> </g>
 </text> 
</g>
 </g>
 </g>
 <g transform="translate(91.04875,-12.06888)">
 <g fill="#000">
 <text style="stroke:none" transform="scale(1,-1) translate(0.0,0)" text-anchor="middle"  font-size="10"> 
<g fill="#000">
 <g stroke="none"> </g> </g>
 </text> 
</g>
 </g>
 <g fill="#808080">
 <g fill="#808080">
 <path d=" M 137.57329 -8.5359 C 137.57329 -7.98361 137.12558 -7.5359 136.57329 -7.5359 C 136.021 -7.5359 135.57329 -7.98361 135.57329 -8.5359 C 135.57329 -9.0882 136.021 -9.5359 136.57329 -9.5359 C 137.12558 -9.5359 137.57329 -9.0882 137.57329 -8.5359 Z M 136.57329 -8.5359  " stroke="none"/>
 </g>
 <g transform="translate(136.57329,-8.5359)">
 <g fill="#000">
 <text style="stroke:none" transform="scale(1,-1) translate(0.0,0)" text-anchor="middle"  font-size="10"> 
<g fill="#000">
 <g stroke="none"> </g> </g>
 </text> 
</g>
 </g>
 </g>
 <g transform="translate(136.57329,-12.06888)">
 <g fill="#000">
 <text style="stroke:none" transform="scale(1,-1) translate(0.0,0)" text-anchor="middle"  font-size="10"> 
<g fill="#000">
 <g stroke="none"> </g> </g>
 </text> 
</g>
 </g>
 <g fill="#808080">
 <g fill="#808080">
 <path d=" M 148.95422 14.22636 C 148.95422 14.77866 148.50652 15.22636 147.95422 15.22636 C 147.40193 15.22636 146.95422 14.77866 146.95422 14.22636 C 146.95422 13.67407 147.40193 13.22636 147.95422 13.22636 C 148.50652 13.22636 148.95422 13.67407 148.95422 14.22636 Z M 147.95422 14.22636  " stroke="none"/>
 </g>
 <g transform="translate(147.95422,14.22636)">
 <g fill="#000">
 <text style="stroke:none" transform="scale(1,-1) translate(0.0,0)" text-anchor="middle"  font-size="10"> 
<g fill="#000">
 <g stroke="none"> </g> </g>
 </text> 
</g>
 </g>
 </g>
 <g transform="translate(151.4872,14.22636)">
 <g fill="#000">
 <text style="stroke:none" transform="scale(1,-1) translate(0.0,0)" text-anchor="middle"  font-size="10"> 
<g fill="#000">
 <g stroke="none"> </g> </g>
 </text> 
</g>
 </g>
 <g fill="#808080">
 <g fill="#808080">
 <path d=" M 129.03738 28.45274 C 129.03738 29.00504 128.58968 29.45274 128.03738 29.45274 C 127.48509 29.45274 127.03738 29.00504 127.03738 28.45274 C 127.03738 27.90045 127.48509 27.45274 128.03738 27.45274 C 128.58968 27.45274 129.03738 27.90045 129.03738 28.45274 Z M 128.03738 28.45274  " stroke="none"/>
 </g>
 <g transform="translate(128.03738,28.45274)">
 <g fill="#000">
 <text style="stroke:none" transform="scale(1,-1) translate(0.0,0)" text-anchor="middle"  font-size="10"> 
<g fill="#000">
 <g stroke="none"> </g> </g>
 </text> 
</g>
 </g>
 </g>
 <g transform="translate(128.03738,31.98572)">
 <g fill="#000">
 <text style="stroke:none" transform="scale(1,-1) translate(0.0,0)" text-anchor="middle"  font-size="10"> 
<g fill="#000">
 <g stroke="none"> </g> </g>
 </text> 
</g>
 </g>
 <g transform="translate(94.84282,1.89679)">
 <g fill="#000">
 <text style="stroke:none" transform="scale(1,-1) translate(0.0,0)" text-anchor="middle"  font-size="10"> 
<g fill="#000">
 <g stroke="none"> </g> </g>
 </text> 
</g>
 </g>
 <g transform="translate(97.68808,14.22615)">
 <g fill="#000">
 <text style="stroke:none" transform="scale(1,-1) translate(0.0,0)" text-anchor="middle"  font-size="10"> 
<g fill="#000">
 <g stroke="none"> </g> </g>
 </text> 
</g>
 </g>
 <g transform="translate(132.77922,1.89679)">
 <g fill="#000">
 <text style="stroke:none" transform="scale(1,-1) translate(0.0,0)" text-anchor="middle"  font-size="10"> 
<g fill="#000">
 <g stroke="none"> </g> </g>
 </text> 
</g>
 </g>
 <g transform="translate(129.93396,14.22615)">
 <g fill="#000">
 <text style="stroke:none" transform="scale(1,-1) translate(0.0,0)" text-anchor="middle"  font-size="10"> 
<g fill="#000">
 <g stroke="none"> </g> </g>
 </text> 
</g>
 </g>
 </g>
 </g>
 
                                                           </g> 
</svg> 
