<?xml version="1.0" encoding="UTF-8"?>
<svg xmlns="http://www.w3.org/2000/svg" xmlns:xlink="http://www.w3.org/1999/xlink" width="176.72pt" height="70.373pt" viewBox="0 0 176.72 70.373" version="1.2">
<g id="surface1">
<path style="fill-rule:nonzero;fill:rgb(100%,96.939087%,40.000916%);fill-opacity:1;stroke-width:0.3985;stroke-linecap:butt;stroke-linejoin:round;stroke:rgb(0%,0%,0%);stroke-opacity:1;stroke-miterlimit:10;" d="M 0.000382579 -0.000721651 L 85.040433 -0.000721651 L 42.520408 56.695272 Z M 85.040433 -0.000721651 L 127.560458 56.695272 L 42.520408 56.695272 Z M 85.040433 -0.000721651 L 170.080483 -0.000721651 L 127.560458 56.695272 Z M 85.040433 -0.000721651 " transform="matrix(0.991169,0,0,-0.991169,3.933215,62.971941)"/>
<path style=" stroke:none;fill-rule:nonzero;fill:rgb(0%,0%,100%);fill-opacity:1;" d="M 5.90625 62.972656 C 5.90625 61.882812 5.023438 60.996094 3.933594 60.996094 C 2.84375 60.996094 1.957031 61.882812 1.957031 62.972656 C 1.957031 64.0625 2.84375 64.945312 3.933594 64.945312 C 5.023438 64.945312 5.90625 64.0625 5.90625 62.972656 Z M 5.90625 62.972656 "/>
<path style=" stroke:none;fill-rule:nonzero;fill:rgb(0%,0%,100%);fill-opacity:1;" d="M 90.199219 62.972656 C 90.199219 61.882812 89.3125 60.996094 88.222656 60.996094 C 87.132812 60.996094 86.246094 61.882812 86.246094 62.972656 C 86.246094 64.0625 87.132812 64.945312 88.222656 64.945312 C 89.3125 64.945312 90.199219 64.0625 90.199219 62.972656 Z M 90.199219 62.972656 "/>
<path style=" stroke:none;fill-rule:nonzero;fill:rgb(0%,0%,100%);fill-opacity:1;" d="M 48.054688 6.777344 C 48.054688 5.6875 47.167969 4.804688 46.078125 4.804688 C 44.988281 4.804688 44.101562 5.6875 44.101562 6.777344 C 44.101562 7.871094 44.988281 8.753906 46.078125 8.753906 C 47.167969 8.753906 48.054688 7.871094 48.054688 6.777344 Z M 48.054688 6.777344 "/>
<path style=" stroke:none;fill-rule:nonzero;fill:rgb(0%,0%,100%);fill-opacity:1;" d="M 132.34375 6.777344 C 132.34375 5.6875 131.457031 4.804688 130.367188 4.804688 C 129.277344 4.804688 128.390625 5.6875 128.390625 6.777344 C 128.390625 7.871094 129.277344 8.753906 130.367188 8.753906 C 131.457031 8.753906 132.34375 7.871094 132.34375 6.777344 Z M 132.34375 6.777344 "/>
<path style=" stroke:none;fill-rule:nonzero;fill:rgb(0%,0%,100%);fill-opacity:1;" d="M 174.488281 62.972656 C 174.488281 61.882812 173.601562 60.996094 172.511719 60.996094 C 171.421875 60.996094 170.539062 61.882812 170.539062 62.972656 C 170.539062 64.0625 171.421875 64.945312 172.511719 64.945312 C 173.601562 64.945312 174.488281 64.0625 174.488281 62.972656 Z M 174.488281 62.972656 "/>
</g>
</svg>
