<?xml version="1.0" encoding="iso-8859-1" standalone="no"?> 
<?xml-stylesheet href="_Wrapper_Image_ManyExamples.css" type="text/css"?> 
<svg xmlns="http://www.w3.org/2000/svg" xmlns:xlink="http://www.w3.org/1999/xlink" width="325.73671pt" height="136.52603pt" viewBox="-0.2 -86.98097 325.73671 136.52603 "> 
<g transform="translate(0,49.54506 ) scale(1,-1) translate(0,86.98097 )"> 
<g stroke="#000" fill="#000">
 <g stroke-width="0.4">
 <g fill="#ff6">
 <g stroke-linejoin="round">
 <g stroke="#000">
 <path d=" M 0.0 0.0 L 56.90549 0.0 L 22.76227 42.67911 Z M 56.90549 0.0 L 22.76227 42.67911 L 54.06003 19.91682 Z  " />
 </g>
 </g>
 </g>
 <g stroke-dasharray="3.0,3.0" stroke-dashoffset="0.0">
 <g stroke-linejoin="round">
 <g stroke="#000">
 <path d=" M 0.0 0.0 L 54.06003 19.91682  " fill="none"/>
 </g>
 </g>
 </g>
 <g fill="#ff6">
 <g stroke-linejoin="round">
 <g stroke="#000">
 <path d=" M 85.35826 0.0 L 133.72783 14.22636 L 122.34691 39.83366 Z M 85.35826 0.0 L 122.34691 39.83366 L 99.58463 42.67911 Z  " />
 </g>
 </g>
 </g>
 <g fill="#ff6">
 <g stroke-linejoin="round">
 <g stroke="#000">
 <path d=" M 85.35826 0.0 L 133.72783 14.22636 L 113.811 19.91682 Z M 85.35826 0.0 L 113.811 19.91682 L 99.58463 42.67911 Z  " />
 </g>
 </g>
 </g>
 <g stroke-linejoin="round">
 <g stroke="#000">
 <g stroke-dasharray="3.0,3.0" stroke-dashoffset="0.0">
 <path d=" M 85.35826 0.0 L 122.34691 39.83366  " fill="none"/>
 </g>
 </g>
 </g>
 <g stroke-linejoin="round">
 <g stroke="#000">
 <g fill="#ff6">
 <path d=" M 199.16928 0.0 L 199.16928 42.67911 L 156.49017 0.0 Z  " />
 <g transform="translate(177.82973,21.33955)">
 <g fill="#000">
 <text style="stroke:none" transform="scale(1,-1) translate(0.0,0)" text-anchor="middle"  font-size="10"> 
<g fill="#000">
 <g stroke="none"> </g> </g>
 </text> 
</g>
 </g>
 </g>
 </g>
 </g>
 <g stroke-linejoin="round">
 <g stroke="#000">
 <g fill="#ff6">
 <path d=" M 199.16928 0.0 L 199.16928 42.67911 L 227.62202 -14.22636 Z M 199.16928 0.0 L 199.16928 42.67911 L 182.09747 -14.22636 Z  " />
 <g transform="translate(213.39565,14.22638)">
 <g fill="#000">
 <text style="stroke:none" transform="scale(1,-1) translate(0.0,0)" text-anchor="middle"  font-size="10"> 
<g fill="#000">
 <g stroke="none"> </g> </g>
 </text> 
</g>
 </g>
 <g transform="translate(213.39566,-7.11319)">
 <g fill="#000">
 <text style="stroke:none" transform="scale(1,-1) translate(0.0,0)" text-anchor="middle"  font-size="10"> 
<g fill="#000">
 <g stroke="none"> </g> </g>
 </text> 
</g>
 </g>
 <g transform="translate(190.63338,14.22638)">
 <g fill="#000">
 <text style="stroke:none" transform="scale(1,-1) translate(0.0,0)" text-anchor="middle"  font-size="10"> 
<g fill="#000">
 <g stroke="none"> </g> </g>
 </text> 
</g>
 </g>
 <g transform="translate(190.63338,-7.11319)">
 <g fill="#000">
 <text style="stroke:none" transform="scale(1,-1) translate(0.0,0)" text-anchor="middle"  font-size="10"> 
<g fill="#000">
 <g stroke="none"> </g> </g>
 </text> 
</g>
 </g>
 </g>
 </g>
 </g>
 <g stroke-linejoin="round">
 <g stroke="#000">
 <g stroke-dasharray="3.0,3.0" stroke-dashoffset="0.0">
 <path d=" M 199.16928 0.0 L 156.49017 0.0  " fill="none"/>
 <g transform="translate(177.82973,0.0)">
 <g fill="#000">
 <text style="stroke:none" transform="scale(1,-1) translate(0.0,0)" text-anchor="middle"  font-size="10"> 
<g fill="#000">
 <g stroke="none"> </g> </g>
 </text> 
</g>
 </g>
 </g>
 </g>
 </g>
 <g stroke-linejoin="round">
 <g stroke="#000">
 <path d=" M 199.16928 0.0 L 199.16928 42.67911  " fill="none"/>
 <g transform="translate(199.16928,21.33955)">
 <g fill="#000">
 <text style="stroke:none" transform="scale(1,-1) translate(0.0,0)" text-anchor="middle"  font-size="10"> 
<g fill="#000">
 <g stroke="none"> </g> </g>
 </text> 
</g>
 </g>
 </g>
 </g>
 <g fill="#808080">
 <g fill="#808080">
 <path d=" M 228.62202 -14.22636 C 228.62202 -13.67407 228.17432 -13.22636 227.62202 -13.22636 C 227.06973 -13.22636 226.62202 -13.67407 226.62202 -14.22636 C 226.62202 -14.77866 227.06973 -15.22636 227.62202 -15.22636 C 228.17432 -15.22636 228.62202 -14.77866 228.62202 -14.22636 Z M 227.62202 -14.22636  " stroke="none"/>
 </g>
 <g transform="translate(227.62202,-14.22636)">
 <g fill="#000">
 <text style="stroke:none" transform="scale(1,-1) translate(0.0,0)" text-anchor="middle"  font-size="10"> 
<g fill="#000">
 <g stroke="none"> </g> </g>
 </text> 
</g>
 </g>
 </g>
 <g transform="translate(231.155,-14.22636)">
 <g fill="#000">
 <text style="stroke:none" transform="scale(1,-1) translate(0.0,0)" text-anchor="middle"  font-size="10"> 
<g fill="#000">
 <g stroke="none"> </g> </g>
 </text> 
</g>
 </g>
 <g fill="#808080">
 <g fill="#808080">
 <path d=" M 183.09747 -14.22636 C 183.09747 -13.67407 182.64977 -13.22636 182.09747 -13.22636 C 181.54518 -13.22636 181.09747 -13.67407 181.09747 -14.22636 C 181.09747 -14.77866 181.54518 -15.22636 182.09747 -15.22636 C 182.64977 -15.22636 183.09747 -14.77866 183.09747 -14.22636 Z M 182.09747 -14.22636  " stroke="none"/>
 </g>
 <g transform="translate(182.09747,-14.22636)">
 <g fill="#000">
 <text style="stroke:none" transform="scale(1,-1) translate(0.0,0)" text-anchor="middle"  font-size="10"> 
<g fill="#000">
 <g stroke="none"> </g> </g>
 </text> 
</g>
 </g>
 </g>
 <g transform="translate(178.5645,-14.22636)">
 <g fill="#000">
 <text style="stroke:none" transform="scale(1,-1) translate(0.0,0)" text-anchor="middle"  font-size="10"> 
<g fill="#000">
 <g stroke="none"> </g> </g>
 </text> 
</g>
 </g>
 <g fill="#808080">
 <g fill="#808080">
 <path d=" M 157.49017 0.0 C 157.49017 0.55229 157.04247 1.0 156.49017 1.0 C 155.93788 1.0 155.49017 0.55229 155.49017 0.0 C 155.49017 -0.55229 155.93788 -1.0 156.49017 -1.0 C 157.04247 -1.0 157.49017 -0.55229 157.49017 0.0 Z M 156.49017 0.0  " stroke="none"/>
 </g>
 <g transform="translate(156.49017,0.0)">
 <g fill="#000">
 <text style="stroke:none" transform="scale(1,-1) translate(0.0,0)" text-anchor="middle"  font-size="10"> 
<g fill="#000">
 <g stroke="none"> </g> </g>
 </text> 
</g>
 </g>
 </g>
 <g transform="translate(152.9572,0.0)">
 <g fill="#000">
 <text style="stroke:none" transform="scale(1,-1) translate(0.0,0)" text-anchor="middle"  font-size="10"> 
<g fill="#000">
 <g stroke="none"> </g> </g>
 </text> 
</g>
 </g>
 <g fill="#808080">
 <g fill="#808080">
 <path d=" M 200.16928 0.0 C 200.16928 0.55229 199.72157 1.0 199.16928 1.0 C 198.61699 1.0 198.16928 0.55229 198.16928 0.0 C 198.16928 -0.55229 198.61699 -1.0 199.16928 -1.0 C 199.72157 -1.0 200.16928 -0.55229 200.16928 0.0 Z M 199.16928 0.0  " stroke="none"/>
 </g>
 <g transform="translate(199.16928,0.0)">
 <g fill="#000">
 <text style="stroke:none" transform="scale(1,-1) translate(0.0,0)" text-anchor="middle"  font-size="10"> 
<g fill="#000">
 <g stroke="none"> </g> </g>
 </text> 
</g>
 </g>
 </g>
 <g transform="translate(199.16928,-3.53297)">
 <g fill="#000">
 <text style="stroke:none" transform="scale(1,-1) translate(0.0,0)" text-anchor="middle"  font-size="10"> 
<g fill="#000">
 <g stroke="none"> </g> </g>
 </text> 
</g>
 </g>
 <g fill="#808080">
 <g fill="#808080">
 <path d=" M 200.16928 42.67911 C 200.16928 43.2314 199.72157 43.67911 199.16928 43.67911 C 198.61699 43.67911 198.16928 43.2314 198.16928 42.67911 C 198.16928 42.12682 198.61699 41.67911 199.16928 41.67911 C 199.72157 41.67911 200.16928 42.12682 200.16928 42.67911 Z M 199.16928 42.67911  " stroke="none"/>
 </g>
 <g transform="translate(199.16928,42.67911)">
 <g fill="#000">
 <text style="stroke:none" transform="scale(1,-1) translate(0.0,0)" text-anchor="middle"  font-size="10"> 
<g fill="#000">
 <g stroke="none"> </g> </g>
 </text> 
</g>
 </g>
 </g>
 <g transform="translate(199.16928,46.21208)">
 <g fill="#000">
 <text style="stroke:none" transform="scale(1,-1) translate(0.0,0)" text-anchor="middle"  font-size="10"> 
<g fill="#000">
 <g stroke="none"> </g> </g>
 </text> 
</g>
 </g>
 <g transform="translate(208.65338,9.4841)">
 <g fill="#000">
 <text style="stroke:none" transform="scale(1,-1) translate(0.0,0)" text-anchor="middle"  font-size="10"> 
<g fill="#000">
 <g stroke="none"> </g> </g>
 </text> 
</g>
 </g>
 <g transform="translate(195.75497,5.69046)">
 <g fill="#000">
 <text style="stroke:none" transform="scale(1,-1) translate(0.0,0)" text-anchor="middle"  font-size="10"> 
<g fill="#000">
 <g stroke="none"> </g> </g>
 </text> 
</g>
 </g>
 <g transform="translate(173.56221,8.53569)">
 <g fill="#000">
 <text style="stroke:none" transform="scale(1,-1) translate(0.0,0)" text-anchor="middle"  font-size="10"> 
<g fill="#000">
 <g stroke="none"> </g> </g>
 </text> 
</g>
 </g>
 <g fill="#ff6">
 <g stroke-linejoin="round">
 <g stroke="#000">
 <path d=" M 284.52756 0.0 L 261.76529 -8.5359 L 250.38435 14.22636 Z M 284.52756 0.0 L 250.38435 14.22636 L 270.3012 28.45274 Z  " />
 </g>
 </g>
 </g>
 <g fill="#ff6">
 <g stroke-linejoin="round">
 <g stroke="#000">
 <path d=" M 284.52756 0.0 L 298.75392 28.45274 L 318.67076 14.22636 Z M 284.52756 0.0 L 318.67076 14.22636 L 307.28983 -8.5359 Z  " />
 </g>
 </g>
 </g>
 <g fill="#808080">
 <g fill="#808080">
 <path d=" M 285.52756 0.0 C 285.52756 0.55229 285.07985 1.0 284.52756 1.0 C 283.97527 1.0 283.52756 0.55229 283.52756 0.0 C 283.52756 -0.55229 283.97527 -1.0 284.52756 -1.0 C 285.07985 -1.0 285.52756 -0.55229 285.52756 0.0 Z M 284.52756 0.0  " stroke="none"/>
 </g>
 <g transform="translate(284.52756,0.0)">
 <g fill="#000">
 <text style="stroke:none" transform="scale(1,-1) translate(0.0,0)" text-anchor="middle"  font-size="10"> 
<g fill="#000">
 <g stroke="none"> </g> </g>
 </text> 
</g>
 </g>
 </g>
 <g transform="translate(284.52756,-3.53297)">
 <g fill="#000">
 <text style="stroke:none" transform="scale(1,-1) translate(0.0,0)" text-anchor="middle"  font-size="10"> 
<g fill="#000">
 <g stroke="none"> </g> </g>
 </text> 
</g>
 </g>
 <g fill="#808080">
 <g fill="#808080">
 <path d=" M 271.3012 28.45274 C 271.3012 29.00504 270.85349 29.45274 270.3012 29.45274 C 269.7489 29.45274 269.3012 29.00504 269.3012 28.45274 C 269.3012 27.90045 269.7489 27.45274 270.3012 27.45274 C 270.85349 27.45274 271.3012 27.90045 271.3012 28.45274 Z M 270.3012 28.45274  " stroke="none"/>
 </g>
 <g transform="translate(270.3012,28.45274)">
 <g fill="#000">
 <text style="stroke:none" transform="scale(1,-1) translate(0.0,0)" text-anchor="middle"  font-size="10"> 
<g fill="#000">
 <g stroke="none"> </g> </g>
 </text> 
</g>
 </g>
 </g>
 <g transform="translate(270.3012,31.98572)">
 <g fill="#000">
 <text style="stroke:none" transform="scale(1,-1) translate(0.0,0)" text-anchor="middle"  font-size="10"> 
<g fill="#000">
 <g stroke="none"> </g> </g>
 </text> 
</g>
 </g>
 <g fill="#808080">
 <g fill="#808080">
 <path d=" M 251.38435 14.22636 C 251.38435 14.77866 250.93665 15.22636 250.38435 15.22636 C 249.83206 15.22636 249.38435 14.77866 249.38435 14.22636 C 249.38435 13.67407 249.83206 13.22636 250.38435 13.22636 C 250.93665 13.22636 251.38435 13.67407 251.38435 14.22636 Z M 250.38435 14.22636  " stroke="none"/>
 </g>
 <g transform="translate(250.38435,14.22636)">
 <g fill="#000">
 <text style="stroke:none" transform="scale(1,-1) translate(0.0,0)" text-anchor="middle"  font-size="10"> 
<g fill="#000">
 <g stroke="none"> </g> </g>
 </text> 
</g>
 </g>
 </g>
 <g transform="translate(246.85138,14.22636)">
 <g fill="#000">
 <text style="stroke:none" transform="scale(1,-1) translate(0.0,0)" text-anchor="middle"  font-size="10"> 
<g fill="#000">
 <g stroke="none"> </g> </g>
 </text> 
</g>
 </g>
 <g fill="#808080">
 <g fill="#808080">
 <path d=" M 262.76529 -8.5359 C 262.76529 -7.98361 262.31758 -7.5359 261.76529 -7.5359 C 261.213 -7.5359 260.76529 -7.98361 260.76529 -8.5359 C 260.76529 -9.0882 261.213 -9.5359 261.76529 -9.5359 C 262.31758 -9.5359 262.76529 -9.0882 262.76529 -8.5359 Z M 261.76529 -8.5359  " stroke="none"/>
 </g>
 <g transform="translate(261.76529,-8.5359)">
 <g fill="#000">
 <text style="stroke:none" transform="scale(1,-1) translate(0.0,0)" text-anchor="middle"  font-size="10"> 
<g fill="#000">
 <g stroke="none"> </g> </g>
 </text> 
</g>
 </g>
 </g>
 <g transform="translate(261.76529,-12.06888)">
 <g fill="#000">
 <text style="stroke:none" transform="scale(1,-1) translate(0.0,0)" text-anchor="middle"  font-size="10"> 
<g fill="#000">
 <g stroke="none"> </g> </g>
 </text> 
</g>
 </g>
 <g fill="#808080">
 <g fill="#808080">
 <path d=" M 308.28983 -8.5359 C 308.28983 -7.98361 307.84212 -7.5359 307.28983 -7.5359 C 306.73753 -7.5359 306.28983 -7.98361 306.28983 -8.5359 C 306.28983 -9.0882 306.73753 -9.5359 307.28983 -9.5359 C 307.84212 -9.5359 308.28983 -9.0882 308.28983 -8.5359 Z M 307.28983 -8.5359  " stroke="none"/>
 </g>
 <g transform="translate(307.28983,-8.5359)">
 <g fill="#000">
 <text style="stroke:none" transform="scale(1,-1) translate(0.0,0)" text-anchor="middle"  font-size="10"> 
<g fill="#000">
 <g stroke="none"> </g> </g>
 </text> 
</g>
 </g>
 </g>
 <g transform="translate(307.28983,-12.06888)">
 <g fill="#000">
 <text style="stroke:none" transform="scale(1,-1) translate(0.0,0)" text-anchor="middle"  font-size="10"> 
<g fill="#000">
 <g stroke="none"> </g> </g>
 </text> 
</g>
 </g>
 <g fill="#808080">
 <g fill="#808080">
 <path d=" M 319.67076 14.22636 C 319.67076 14.77866 319.22305 15.22636 318.67076 15.22636 C 318.11847 15.22636 317.67076 14.77866 317.67076 14.22636 C 317.67076 13.67407 318.11847 13.22636 318.67076 13.22636 C 319.22305 13.22636 319.67076 13.67407 319.67076 14.22636 Z M 318.67076 14.22636  " stroke="none"/>
 </g>
 <g transform="translate(318.67076,14.22636)">
 <g fill="#000">
 <text style="stroke:none" transform="scale(1,-1) translate(0.0,0)" text-anchor="middle"  font-size="10"> 
<g fill="#000">
 <g stroke="none"> </g> </g>
 </text> 
</g>
 </g>
 </g>
 <g transform="translate(322.20374,14.22636)">
 <g fill="#000">
 <text style="stroke:none" transform="scale(1,-1) translate(0.0,0)" text-anchor="middle"  font-size="10"> 
<g fill="#000">
 <g stroke="none"> </g> </g>
 </text> 
</g>
 </g>
 <g fill="#808080">
 <g fill="#808080">
 <path d=" M 299.75392 28.45274 C 299.75392 29.00504 299.30621 29.45274 298.75392 29.45274 C 298.20163 29.45274 297.75392 29.00504 297.75392 28.45274 C 297.75392 27.90045 298.20163 27.45274 298.75392 27.45274 C 299.30621 27.45274 299.75392 27.90045 299.75392 28.45274 Z M 298.75392 28.45274  " stroke="none"/>
 </g>
 <g transform="translate(298.75392,28.45274)">
 <g fill="#000">
 <text style="stroke:none" transform="scale(1,-1) translate(0.0,0)" text-anchor="middle"  font-size="10"> 
<g fill="#000">
 <g stroke="none"> </g> </g>
 </text> 
</g>
 </g>
 </g>
 <g transform="translate(298.75392,31.98572)">
 <g fill="#000">
 <text style="stroke:none" transform="scale(1,-1) translate(0.0,0)" text-anchor="middle"  font-size="10"> 
<g fill="#000">
 <g stroke="none"> </g> </g>
 </text> 
</g>
 </g>
 <g transform="translate(265.55936,1.89679)">
 <g fill="#000">
 <text style="stroke:none" transform="scale(1,-1) translate(0.0,0)" text-anchor="middle"  font-size="10"> 
<g fill="#000">
 <g stroke="none"> </g> </g>
 </text> 
</g>
 </g>
 <g transform="translate(268.40462,14.22615)">
 <g fill="#000">
 <text style="stroke:none" transform="scale(1,-1) translate(0.0,0)" text-anchor="middle"  font-size="10"> 
<g fill="#000">
 <g stroke="none"> </g> </g>
 </text> 
</g>
 </g>
 <g transform="translate(303.49576,1.89679)">
 <g fill="#000">
 <text style="stroke:none" transform="scale(1,-1) translate(0.0,0)" text-anchor="middle"  font-size="10"> 
<g fill="#000">
 <g stroke="none"> </g> </g>
 </text> 
</g>
 </g>
 <g transform="translate(300.6505,14.22615)">
 <g fill="#000">
 <text style="stroke:none" transform="scale(1,-1) translate(0.0,0)" text-anchor="middle"  font-size="10"> 
<g fill="#000">
 <g stroke="none"> </g> </g>
 </text> 
</g>
 </g>
 <g fill="#ff6">
 <g stroke-linejoin="round">
 <g stroke="#000">
 <path d=" M 28.45274 -85.35826 L 65.44139 -73.97734 C 65.44139 -59.79799 54.01302 -48.36961 39.83366 -48.36961 Z M 28.45274 -85.35826 L 65.44139 -73.97734 C 51.26204 -73.97734 39.83366 -62.54897 39.83366 -48.36961 Z  " />
 </g>
 </g>
 </g>
 <g fill="#ff6">
 <g stroke-linejoin="round">
 <g stroke="#000">
 <path d=" M 113.81102 -85.35826 L 142.26376 -85.35826 L 128.03738 -68.28645 Z M 113.81102 -85.35826 L 128.03738 -68.28645 L 113.81102 -56.90552 Z M 113.81102 -56.90552 L 128.03738 -68.28645 L 142.26376 -56.90552 L 128.03738 -48.36961 Z M 128.03738 -68.28645 L 142.26376 -56.90552 L 162.18059 -62.596 L 165.02603 -79.6678 L 142.26376 -85.35826 Z  " />
 </g>
 </g>
 </g>
 <g stroke-linejoin="round">
 <g stroke="#000">
 <g fill="#ff6">
 <path d=" M 204.85977 -79.66779 L 233.31252 -86.78098 L 219.08614 -51.21506 Z M 233.31252 -86.78098 L 219.08614 -51.21506 L 247.53888 -65.44142 Z  " />
 </g>
 </g>
 </g>
 <g stroke-linejoin="round">
 <g stroke="#000">
 <g fill="#ff6">
 <path d=" M 247.53888 -65.44142 L 268.87843 -36.98868 L 290.21799 -66.86414 Z  " />
 </g>
 </g>
 </g>
 <g stroke-linejoin="round">
 <g stroke="#000">
 <g stroke-dasharray="3.0,3.0" stroke-dashoffset="0.0">
 <path d=" M 204.85977 -79.66779 L 247.53888 -65.44142 M 290.21799 -66.86414 L 264.61047 -51.21506 M 247.53888 -65.44142 L 264.61047 -51.21506 M 268.87843 -36.98868 L 264.61047 -51.21506  " fill="none"/>
 </g>
 </g>
 </g>
 </g>
 </g>
 
                                                              </g> 
</svg> 
