<?xml version="1.0" encoding="UTF-8"?>
<svg xmlns="http://www.w3.org/2000/svg" xmlns:xlink="http://www.w3.org/1999/xlink" width="168.696pt" height="149.265pt" viewBox="0 0 168.696 149.265" version="1.2">
<defs>
<g>
<symbol overflow="visible" id="glyph0-0">
<path style="stroke:none;" d=""/>
</symbol>
<symbol overflow="visible" id="glyph0-1">
<path style="stroke:none;" d="M 4.375 -5.4375 C 4.453125 -5.546875 4.453125 -5.5625 4.453125 -5.75 L 2.234375 -5.75 C 1.109375 -5.75 1.078125 -5.859375 1.046875 -6.03125 L 0.796875 -6.03125 L 0.515625 -4.171875 L 0.765625 -4.171875 C 0.796875 -4.375 0.859375 -4.875 0.984375 -4.984375 C 1.046875 -5.03125 1.75 -5.03125 1.875 -5.03125 L 3.75 -5.03125 L 2.890625 -3.859375 C 1.734375 -2.265625 1.625 -0.8125 1.625 -0.296875 C 1.625 -0.203125 1.625 0.203125 2.03125 0.203125 C 2.453125 0.203125 2.453125 -0.203125 2.453125 -0.3125 L 2.453125 -0.75 C 2.453125 -2.0625 2.65625 -3.09375 3.125 -3.734375 Z M 4.375 -5.4375 "/>
</symbol>
<symbol overflow="visible" id="glyph0-2">
<path style="stroke:none;" d="M 2.71875 -5.703125 C 2.71875 -5.921875 2.703125 -5.9375 2.484375 -5.9375 C 1.921875 -5.375 1.109375 -5.375 0.828125 -5.375 L 0.828125 -5.09375 C 1 -5.09375 1.546875 -5.09375 2.03125 -5.328125 L 2.03125 -0.71875 C 2.03125 -0.390625 2 -0.28125 1.171875 -0.28125 L 0.890625 -0.28125 L 0.890625 0 C 1.203125 -0.03125 2 -0.03125 2.359375 -0.03125 C 2.734375 -0.03125 3.53125 -0.03125 3.859375 0 L 3.859375 -0.28125 L 3.5625 -0.28125 C 2.734375 -0.28125 2.71875 -0.390625 2.71875 -0.71875 Z M 2.71875 -5.703125 "/>
</symbol>
<symbol overflow="visible" id="glyph0-3">
<path style="stroke:none;" d="M 4.125 -1.578125 L 3.875 -1.578125 C 3.859375 -1.46875 3.78125 -0.9375 3.671875 -0.796875 C 3.609375 -0.71875 3 -0.71875 2.8125 -0.71875 L 1.234375 -0.71875 L 2.109375 -1.546875 C 3.578125 -2.8125 4.125 -3.296875 4.125 -4.203125 C 4.125 -5.234375 3.28125 -5.9375 2.171875 -5.9375 C 1.15625 -5.9375 0.453125 -5.125 0.453125 -4.3125 C 0.453125 -3.875 0.84375 -3.828125 0.921875 -3.828125 C 1.109375 -3.828125 1.390625 -3.96875 1.390625 -4.296875 C 1.390625 -4.5625 1.203125 -4.75 0.921875 -4.75 C 0.875 -4.75 0.84375 -4.75 0.8125 -4.75 C 1.03125 -5.375 1.59375 -5.671875 2.078125 -5.671875 C 2.984375 -5.671875 3.296875 -4.8125 3.296875 -4.203125 C 3.296875 -3.296875 2.609375 -2.546875 2.1875 -2.09375 L 0.546875 -0.328125 C 0.453125 -0.21875 0.453125 -0.203125 0.453125 0 L 3.875 0 Z M 4.125 -1.578125 "/>
</symbol>
<symbol overflow="visible" id="glyph0-4">
<path style="stroke:none;" d="M 3.375 -2.8125 L 3.375 -2.609375 C 3.375 -0.4375 2.390625 -0.046875 1.875 -0.046875 C 1.671875 -0.046875 1.21875 -0.09375 0.984375 -0.390625 L 1.03125 -0.390625 C 1.09375 -0.359375 1.453125 -0.4375 1.453125 -0.796875 C 1.453125 -1.03125 1.28125 -1.203125 1.03125 -1.203125 C 0.78125 -1.203125 0.609375 -1.046875 0.609375 -0.78125 C 0.609375 -0.1875 1.09375 0.203125 1.890625 0.203125 C 3.046875 0.203125 4.1875 -0.984375 4.1875 -2.9375 C 4.1875 -5.359375 3.125 -5.9375 2.3125 -5.9375 C 1.296875 -5.9375 0.390625 -5.109375 0.390625 -3.9375 C 0.390625 -2.8125 1.203125 -1.953125 2.21875 -1.953125 C 2.859375 -1.953125 3.21875 -2.421875 3.375 -2.8125 Z M 2.234375 -2.171875 C 2.09375 -2.171875 1.65625 -2.171875 1.359375 -2.734375 C 1.203125 -3.0625 1.203125 -3.5 1.203125 -3.9375 C 1.203125 -4.359375 1.203125 -4.8125 1.390625 -5.140625 C 1.65625 -5.609375 2 -5.71875 2.3125 -5.71875 C 2.921875 -5.71875 3.171875 -5.109375 3.203125 -5.015625 C 3.328125 -4.6875 3.359375 -4.140625 3.359375 -3.75 C 3.359375 -3.109375 3.0625 -2.171875 2.234375 -2.171875 Z M 2.234375 -2.171875 "/>
</symbol>
<symbol overflow="visible" id="glyph0-5">
<path style="stroke:none;" d="M 0.265625 -1.75 L 0.265625 -1.46875 L 2.6875 -1.46875 L 2.6875 -0.703125 C 2.6875 -0.375 2.671875 -0.28125 2 -0.28125 L 1.796875 -0.28125 L 1.796875 0 C 2.359375 -0.03125 2.984375 -0.03125 3.046875 -0.03125 C 3.09375 -0.03125 3.734375 -0.03125 4.296875 0 L 4.296875 -0.28125 L 4.109375 -0.28125 C 3.4375 -0.28125 3.40625 -0.375 3.40625 -0.703125 L 3.40625 -1.46875 L 4.3125 -1.46875 L 4.3125 -1.75 L 3.40625 -1.75 L 3.40625 -5.796875 C 3.40625 -5.984375 3.40625 -6.046875 3.234375 -6.046875 C 3.125 -6.046875 3.125 -6.03125 3.046875 -5.90625 Z M 0.546875 -1.75 L 2.75 -5.046875 L 2.75 -1.75 Z M 0.546875 -1.75 "/>
</symbol>
<symbol overflow="visible" id="glyph0-6">
<path style="stroke:none;" d="M 4.21875 -2.859375 C 4.21875 -3.453125 4.1875 -4.21875 3.875 -4.890625 C 3.484375 -5.734375 2.8125 -5.9375 2.296875 -5.9375 C 1.75 -5.9375 1.078125 -5.734375 0.6875 -4.875 C 0.40625 -4.25 0.359375 -3.53125 0.359375 -2.859375 C 0.359375 -2.28125 0.375 -1.40625 0.765625 -0.703125 C 1.171875 0.046875 1.875 0.203125 2.28125 0.203125 C 2.859375 0.203125 3.53125 -0.046875 3.90625 -0.875 C 4.171875 -1.46875 4.21875 -2.140625 4.21875 -2.859375 Z M 2.296875 -0.03125 C 2.03125 -0.03125 1.390625 -0.15625 1.21875 -1.15625 C 1.125 -1.6875 1.125 -2.453125 1.125 -2.96875 C 1.125 -3.5625 1.125 -4.28125 1.234375 -4.765625 C 1.40625 -5.5625 1.984375 -5.71875 2.28125 -5.71875 C 2.625 -5.71875 3.1875 -5.546875 3.359375 -4.703125 C 3.453125 -4.21875 3.453125 -3.53125 3.453125 -2.96875 C 3.453125 -2.40625 3.453125 -1.65625 3.359375 -1.140625 C 3.171875 -0.109375 2.515625 -0.03125 2.296875 -0.03125 Z M 2.296875 -0.03125 "/>
</symbol>
<symbol overflow="visible" id="glyph0-7">
<path style="stroke:none;" d="M 1.53125 -4.046875 C 1.265625 -4.21875 1.0625 -4.453125 1.0625 -4.796875 C 1.0625 -5.375 1.6875 -5.71875 2.28125 -5.71875 C 2.96875 -5.71875 3.515625 -5.234375 3.515625 -4.609375 C 3.515625 -3.984375 2.984375 -3.578125 2.625 -3.375 Z M 2.84375 -3.234375 C 3.296875 -3.4375 3.9375 -3.890625 3.9375 -4.609375 C 3.9375 -5.453125 3.109375 -5.9375 2.296875 -5.9375 C 1.359375 -5.9375 0.640625 -5.265625 0.640625 -4.453125 C 0.640625 -4.109375 0.765625 -3.796875 0.96875 -3.53125 C 1.125 -3.359375 1.171875 -3.328125 1.6875 -3 C 0.90625 -2.625 0.390625 -2.078125 0.390625 -1.34375 C 0.390625 -0.40625 1.328125 0.203125 2.28125 0.203125 C 3.3125 0.203125 4.1875 -0.53125 4.1875 -1.5 C 4.1875 -2.359375 3.53125 -2.796875 3.3125 -2.9375 C 3.21875 -3 2.953125 -3.171875 2.84375 -3.234375 Z M 1.9375 -2.84375 L 3.0625 -2.15625 C 3.265625 -2.015625 3.71875 -1.734375 3.71875 -1.1875 C 3.71875 -0.484375 3 -0.046875 2.296875 -0.046875 C 1.515625 -0.046875 0.859375 -0.609375 0.859375 -1.34375 C 0.859375 -1.984375 1.3125 -2.53125 1.9375 -2.84375 Z M 1.9375 -2.84375 "/>
</symbol>
<symbol overflow="visible" id="glyph0-8">
<path style="stroke:none;" d="M 2.71875 -3.140625 C 3.546875 -3.453125 3.9375 -4.109375 3.9375 -4.71875 C 3.9375 -5.40625 3.1875 -5.9375 2.25 -5.9375 C 1.328125 -5.9375 0.640625 -5.421875 0.640625 -4.734375 C 0.640625 -4.4375 0.828125 -4.28125 1.09375 -4.28125 C 1.34375 -4.28125 1.53125 -4.453125 1.53125 -4.71875 C 1.53125 -5.03125 1.328125 -5.171875 1.015625 -5.171875 C 1.25 -5.546875 1.796875 -5.71875 2.234375 -5.71875 C 2.96875 -5.71875 3.109375 -5.125 3.109375 -4.703125 C 3.109375 -4.4375 3.0625 -4.015625 2.84375 -3.671875 C 2.5625 -3.28125 2.25 -3.25 1.984375 -3.234375 C 1.765625 -3.21875 1.75 -3.21875 1.671875 -3.21875 C 1.59375 -3.21875 1.53125 -3.203125 1.53125 -3.109375 C 1.53125 -2.984375 1.59375 -2.984375 1.75 -2.984375 L 2.171875 -2.984375 C 2.9375 -2.984375 3.28125 -2.359375 3.28125 -1.515625 C 3.28125 -0.375 2.671875 -0.046875 2.21875 -0.046875 C 2.046875 -0.046875 1.1875 -0.09375 0.78125 -0.765625 C 1.109375 -0.71875 1.359375 -0.9375 1.359375 -1.234375 C 1.359375 -1.53125 1.140625 -1.71875 0.875 -1.71875 C 0.65625 -1.71875 0.390625 -1.59375 0.390625 -1.21875 C 0.390625 -0.421875 1.21875 0.203125 2.25 0.203125 C 3.359375 0.203125 4.1875 -0.609375 4.1875 -1.515625 C 4.1875 -2.296875 3.578125 -2.953125 2.71875 -3.140625 Z M 2.71875 -3.140625 "/>
</symbol>
<symbol overflow="visible" id="glyph0-9">
<path style="stroke:none;" d="M 1.203125 -2.953125 C 1.203125 -3.859375 1.296875 -4.375 1.53125 -4.828125 C 1.71875 -5.203125 2.15625 -5.71875 2.8125 -5.71875 C 2.984375 -5.71875 3.40625 -5.6875 3.609375 -5.359375 C 3.28125 -5.359375 3.125 -5.1875 3.125 -4.953125 C 3.125 -4.71875 3.296875 -4.546875 3.546875 -4.546875 C 3.796875 -4.546875 3.96875 -4.703125 3.96875 -4.96875 C 3.96875 -5.46875 3.609375 -5.9375 2.796875 -5.9375 C 1.640625 -5.9375 0.390625 -4.8125 0.390625 -2.8125 C 0.390625 -0.40625 1.46875 0.203125 2.3125 0.203125 C 3.296875 0.203125 4.1875 -0.640625 4.1875 -1.8125 C 4.1875 -2.9375 3.375 -3.796875 2.359375 -3.796875 C 1.828125 -3.796875 1.453125 -3.484375 1.203125 -2.953125 Z M 2.296875 -0.046875 C 1.796875 -0.046875 1.5 -0.46875 1.390625 -0.734375 C 1.21875 -1.140625 1.21875 -1.875 1.21875 -2.015625 C 1.21875 -2.609375 1.484375 -3.578125 2.34375 -3.578125 C 2.484375 -3.578125 2.921875 -3.578125 3.21875 -3.03125 C 3.375 -2.6875 3.375 -2.25 3.375 -1.8125 C 3.375 -1.390625 3.375 -0.953125 3.21875 -0.625 C 2.9375 -0.109375 2.546875 -0.046875 2.296875 -0.046875 Z M 2.296875 -0.046875 "/>
</symbol>
<symbol overflow="visible" id="glyph0-10">
<path style="stroke:none;" d="M 0.921875 -3.078125 C 0.921875 -2.921875 0.921875 -2.8125 1.046875 -2.8125 C 1.125 -2.8125 1.15625 -2.859375 1.203125 -2.9375 C 1.46875 -3.3125 1.90625 -3.53125 2.359375 -3.53125 C 3.3125 -3.53125 3.3125 -2.15625 3.3125 -1.828125 C 3.3125 -1.546875 3.3125 -1 3.0625 -0.59375 C 2.828125 -0.21875 2.453125 -0.046875 2.109375 -0.046875 C 1.578125 -0.046875 0.984375 -0.390625 0.765625 -1.046875 C 0.78125 -1.046875 0.828125 -1.03125 0.890625 -1.03125 C 1.078125 -1.03125 1.328125 -1.140625 1.328125 -1.46875 C 1.328125 -1.734375 1.140625 -1.90625 0.890625 -1.90625 C 0.703125 -1.90625 0.453125 -1.796875 0.453125 -1.4375 C 0.453125 -0.625 1.140625 0.203125 2.125 0.203125 C 3.203125 0.203125 4.125 -0.671875 4.125 -1.78125 C 4.125 -2.859375 3.359375 -3.75 2.375 -3.75 C 1.953125 -3.75 1.515625 -3.609375 1.203125 -3.28125 L 1.203125 -5.046875 C 1.46875 -4.953125 1.75 -4.921875 2.03125 -4.921875 C 3.125 -4.921875 3.765625 -5.703125 3.765625 -5.828125 C 3.765625 -5.90625 3.71875 -5.9375 3.671875 -5.9375 C 3.65625 -5.9375 3.625 -5.9375 3.546875 -5.890625 C 3.125 -5.734375 2.71875 -5.65625 2.34375 -5.65625 C 1.96875 -5.65625 1.5625 -5.734375 1.15625 -5.890625 C 1.0625 -5.9375 1.046875 -5.9375 1.03125 -5.9375 C 0.921875 -5.9375 0.921875 -5.859375 0.921875 -5.703125 Z M 0.921875 -3.078125 "/>
</symbol>
<symbol overflow="visible" id="glyph1-0">
<path style="stroke:none;" d=""/>
</symbol>
<symbol overflow="visible" id="glyph1-1">
<path style="stroke:none;" d="M 2.875 -3.484375 C 3.6875 -3.75 4.265625 -4.453125 4.265625 -5.234375 C 4.265625 -6.046875 3.390625 -6.59375 2.4375 -6.59375 C 1.4375 -6.59375 0.6875 -6 0.6875 -5.25 C 0.6875 -4.921875 0.90625 -4.734375 1.1875 -4.734375 C 1.5 -4.734375 1.6875 -4.953125 1.6875 -5.234375 C 1.6875 -5.734375 1.234375 -5.734375 1.078125 -5.734375 C 1.390625 -6.21875 2.046875 -6.34375 2.390625 -6.34375 C 2.796875 -6.34375 3.34375 -6.125 3.34375 -5.234375 C 3.34375 -5.125 3.328125 -4.546875 3.078125 -4.109375 C 2.78125 -3.640625 2.4375 -3.609375 2.1875 -3.59375 C 2.109375 -3.59375 1.875 -3.5625 1.796875 -3.5625 C 1.71875 -3.5625 1.65625 -3.546875 1.65625 -3.453125 C 1.65625 -3.34375 1.71875 -3.34375 1.890625 -3.34375 L 2.328125 -3.34375 C 3.140625 -3.34375 3.5 -2.671875 3.5 -1.6875 C 3.5 -0.34375 2.828125 -0.0625 2.390625 -0.0625 C 1.96875 -0.0625 1.21875 -0.234375 0.875 -0.8125 C 1.21875 -0.765625 1.53125 -0.984375 1.53125 -1.359375 C 1.53125 -1.71875 1.265625 -1.90625 0.96875 -1.90625 C 0.734375 -1.90625 0.421875 -1.765625 0.421875 -1.34375 C 0.421875 -0.4375 1.34375 0.21875 2.421875 0.21875 C 3.625 0.21875 4.53125 -0.6875 4.53125 -1.6875 C 4.53125 -2.5 3.90625 -3.28125 2.875 -3.484375 Z M 2.875 -3.484375 "/>
</symbol>
<symbol overflow="visible" id="glyph1-2">
<path style="stroke:none;" d="M 1.265625 -0.765625 L 2.3125 -1.78125 C 3.859375 -3.15625 4.453125 -3.6875 4.453125 -4.671875 C 4.453125 -5.8125 3.5625 -6.59375 2.34375 -6.59375 C 1.234375 -6.59375 0.5 -5.6875 0.5 -4.796875 C 0.5 -4.25 0.984375 -4.25 1.015625 -4.25 C 1.1875 -4.25 1.53125 -4.375 1.53125 -4.78125 C 1.53125 -5.03125 1.359375 -5.296875 1.015625 -5.296875 C 0.9375 -5.296875 0.90625 -5.296875 0.875 -5.28125 C 1.109375 -5.921875 1.640625 -6.296875 2.21875 -6.296875 C 3.125 -6.296875 3.546875 -5.484375 3.546875 -4.671875 C 3.546875 -3.890625 3.046875 -3.09375 2.5 -2.484375 L 0.609375 -0.359375 C 0.5 -0.25 0.5 -0.234375 0.5 0 L 4.171875 0 L 4.453125 -1.71875 L 4.203125 -1.71875 C 4.15625 -1.421875 4.078125 -0.984375 3.984375 -0.84375 C 3.90625 -0.765625 3.265625 -0.765625 3.046875 -0.765625 Z M 1.265625 -0.765625 "/>
</symbol>
<symbol overflow="visible" id="glyph1-3">
<path style="stroke:none;" d="M 4.453125 -1.984375 C 4.453125 -3.171875 3.640625 -4.15625 2.5625 -4.15625 C 2.09375 -4.15625 1.671875 -4 1.3125 -3.65625 L 1.3125 -5.59375 C 1.5 -5.53125 1.828125 -5.453125 2.15625 -5.453125 C 3.375 -5.453125 4.0625 -6.359375 4.0625 -6.484375 C 4.0625 -6.546875 4.03125 -6.59375 3.96875 -6.59375 C 3.953125 -6.59375 3.9375 -6.59375 3.890625 -6.5625 C 3.6875 -6.484375 3.203125 -6.28125 2.53125 -6.28125 C 2.140625 -6.28125 1.6875 -6.34375 1.21875 -6.5625 C 1.140625 -6.59375 1.125 -6.59375 1.09375 -6.59375 C 1 -6.59375 1 -6.515625 1 -6.34375 L 1 -3.421875 C 1 -3.234375 1 -3.15625 1.140625 -3.15625 C 1.203125 -3.15625 1.234375 -3.1875 1.265625 -3.25 C 1.375 -3.40625 1.75 -3.9375 2.546875 -3.9375 C 3.0625 -3.9375 3.3125 -3.484375 3.390625 -3.3125 C 3.546875 -2.9375 3.5625 -2.5625 3.5625 -2.0625 C 3.5625 -1.71875 3.5625 -1.125 3.328125 -0.703125 C 3.09375 -0.3125 2.71875 -0.0625 2.265625 -0.0625 C 1.546875 -0.0625 0.984375 -0.578125 0.8125 -1.171875 C 0.84375 -1.15625 0.875 -1.15625 0.984375 -1.15625 C 1.3125 -1.15625 1.46875 -1.390625 1.46875 -1.640625 C 1.46875 -1.875 1.3125 -2.125 0.984375 -2.125 C 0.84375 -2.125 0.5 -2.046875 0.5 -1.59375 C 0.5 -0.75 1.171875 0.21875 2.28125 0.21875 C 3.4375 0.21875 4.453125 -0.734375 4.453125 -1.984375 Z M 4.453125 -1.984375 "/>
</symbol>
<symbol overflow="visible" id="glyph1-4">
<path style="stroke:none;" d="M 1.3125 -3.25 L 1.3125 -3.484375 C 1.3125 -6 2.53125 -6.34375 3.046875 -6.34375 C 3.28125 -6.34375 3.6875 -6.296875 3.90625 -5.953125 C 3.765625 -5.953125 3.375 -5.953125 3.375 -5.515625 C 3.375 -5.203125 3.609375 -5.046875 3.828125 -5.046875 C 3.984375 -5.046875 4.28125 -5.140625 4.28125 -5.53125 C 4.28125 -6.125 3.84375 -6.59375 3.015625 -6.59375 C 1.75 -6.59375 0.421875 -5.3125 0.421875 -3.125 C 0.421875 -0.484375 1.5625 0.21875 2.484375 0.21875 C 3.59375 0.21875 4.53125 -0.71875 4.53125 -2.015625 C 4.53125 -3.28125 3.640625 -4.234375 2.546875 -4.234375 C 1.875 -4.234375 1.5 -3.71875 1.3125 -3.25 Z M 2.484375 -0.0625 C 1.859375 -0.0625 1.5625 -0.65625 1.5 -0.796875 C 1.328125 -1.265625 1.328125 -2.0625 1.328125 -2.234375 C 1.328125 -3.015625 1.640625 -4 2.53125 -4 C 2.6875 -4 3.15625 -4 3.453125 -3.390625 C 3.640625 -3.015625 3.640625 -2.515625 3.640625 -2.03125 C 3.640625 -1.5625 3.640625 -1.0625 3.46875 -0.703125 C 3.171875 -0.109375 2.71875 -0.0625 2.484375 -0.0625 Z M 2.484375 -0.0625 "/>
</symbol>
<symbol overflow="visible" id="glyph1-5">
<path style="stroke:none;" d="M 2.90625 -1.640625 L 2.90625 -0.765625 C 2.90625 -0.421875 2.890625 -0.3125 2.15625 -0.3125 L 1.953125 -0.3125 L 1.953125 0 C 2.359375 -0.03125 2.875 -0.03125 3.28125 -0.03125 C 3.703125 -0.03125 4.234375 -0.03125 4.640625 0 L 4.640625 -0.3125 L 4.421875 -0.3125 C 3.6875 -0.3125 3.671875 -0.421875 3.671875 -0.765625 L 3.671875 -1.640625 L 4.671875 -1.640625 L 4.671875 -1.9375 L 3.671875 -1.9375 L 3.671875 -6.453125 C 3.671875 -6.640625 3.671875 -6.703125 3.515625 -6.703125 C 3.421875 -6.703125 3.390625 -6.703125 3.3125 -6.59375 L 0.28125 -1.9375 L 0.28125 -1.640625 Z M 2.96875 -1.9375 L 0.5625 -1.9375 L 2.96875 -5.640625 Z M 2.96875 -1.9375 "/>
</symbol>
<symbol overflow="visible" id="glyph1-6">
<path style="stroke:none;" d="M 4.71875 -6.03125 C 4.796875 -6.15625 4.796875 -6.171875 4.796875 -6.375 L 2.390625 -6.375 C 1.1875 -6.375 1.171875 -6.515625 1.125 -6.703125 L 0.875 -6.703125 L 0.5625 -4.65625 L 0.796875 -4.65625 C 0.828125 -4.8125 0.921875 -5.4375 1.046875 -5.5625 C 1.125 -5.609375 1.890625 -5.609375 2.015625 -5.609375 L 4.078125 -5.609375 C 3.96875 -5.453125 3.1875 -4.375 2.96875 -4.046875 C 2.078125 -2.71875 1.75 -1.34375 1.75 -0.328125 C 1.75 -0.234375 1.75 0.21875 2.203125 0.21875 C 2.65625 0.21875 2.65625 -0.234375 2.65625 -0.328125 L 2.65625 -0.828125 C 2.65625 -1.375 2.6875 -1.921875 2.765625 -2.453125 C 2.796875 -2.6875 2.9375 -3.53125 3.375 -4.15625 Z M 4.71875 -6.03125 "/>
</symbol>
<symbol overflow="visible" id="glyph1-7">
<path style="stroke:none;" d="M 2.90625 -6.34375 C 2.90625 -6.578125 2.90625 -6.59375 2.6875 -6.59375 C 2.078125 -5.96875 1.203125 -5.96875 0.875 -5.96875 L 0.875 -5.65625 C 1.078125 -5.65625 1.671875 -5.65625 2.171875 -5.90625 L 2.171875 -0.78125 C 2.171875 -0.421875 2.15625 -0.3125 1.265625 -0.3125 L 0.9375 -0.3125 L 0.9375 0 C 1.28125 -0.03125 2.15625 -0.03125 2.546875 -0.03125 C 2.9375 -0.03125 3.796875 -0.03125 4.15625 0 L 4.15625 -0.3125 L 3.828125 -0.3125 C 2.9375 -0.3125 2.90625 -0.421875 2.90625 -0.78125 Z M 2.90625 -6.34375 "/>
</symbol>
<symbol overflow="visible" id="glyph1-8">
<path style="stroke:none;" d="M 2.234375 -6 C 2.234375 -6.34375 2.265625 -6.453125 3.046875 -6.453125 L 3.296875 -6.453125 L 3.296875 -6.765625 C 2.953125 -6.734375 2.171875 -6.734375 1.796875 -6.734375 C 1.40625 -6.734375 0.625 -6.734375 0.28125 -6.765625 L 0.28125 -6.453125 L 0.53125 -6.453125 C 1.3125 -6.453125 1.34375 -6.34375 1.34375 -6 L 1.34375 -0.765625 C 1.34375 -0.421875 1.3125 -0.3125 0.53125 -0.3125 L 0.28125 -0.3125 L 0.28125 0 C 0.625 -0.03125 1.40625 -0.03125 1.78125 -0.03125 C 2.171875 -0.03125 2.953125 -0.03125 3.296875 0 L 3.296875 -0.3125 L 3.046875 -0.3125 C 2.265625 -0.3125 2.234375 -0.421875 2.234375 -0.765625 Z M 2.234375 -6 "/>
</symbol>
<symbol overflow="visible" id="glyph1-9">
<path style="stroke:none;" d="M 6.15625 -5.796875 C 6.296875 -6.15625 6.5625 -6.453125 7.234375 -6.453125 L 7.234375 -6.765625 C 6.921875 -6.75 6.53125 -6.734375 6.265625 -6.734375 C 5.96875 -6.734375 5.40625 -6.75 5.140625 -6.765625 L 5.140625 -6.453125 C 5.65625 -6.453125 5.859375 -6.1875 5.859375 -5.96875 C 5.859375 -5.890625 5.828125 -5.828125 5.8125 -5.765625 L 4 -0.984375 L 2.109375 -6 C 2.046875 -6.125 2.046875 -6.15625 2.046875 -6.171875 C 2.046875 -6.453125 2.609375 -6.453125 2.859375 -6.453125 L 2.859375 -6.765625 C 2.5 -6.734375 1.828125 -6.734375 1.453125 -6.734375 C 0.96875 -6.734375 0.546875 -6.75 0.1875 -6.765625 L 0.1875 -6.453125 C 0.828125 -6.453125 1.015625 -6.453125 1.15625 -6.078125 L 3.453125 0 C 3.53125 0.1875 3.578125 0.21875 3.703125 0.21875 C 3.875 0.21875 3.890625 0.171875 3.9375 0.03125 Z M 6.15625 -5.796875 "/>
</symbol>
</g>
</defs>
<g id="surface1">
<path style="fill-rule:nonzero;fill:rgb(100%,96.939087%,40.000916%);fill-opacity:1;stroke-width:0.3985;stroke-linecap:butt;stroke-linejoin:round;stroke:rgb(0%,0%,0%);stroke-opacity:1;stroke-miterlimit:10;" d="M -0.00191946 0.00068154 L 70.868784 0.00068154 L 35.433433 61.371712 Z M -0.00191946 0.00068154 L 70.868784 0.00068154 L 35.433433 -61.374274 Z M -0.00191946 0.00068154 " transform="matrix(0.9951,0,0,-0.9951,82.544879,74.266303)"/>
<path style=" stroke:none;fill-rule:nonzero;fill:rgb(79.998779%,79.998779%,100%);fill-opacity:1;" d="M 129.835938 49.910156 L 141.03125 49.910156 L 141.03125 37.550781 L 129.835938 37.550781 Z M 129.835938 49.910156 "/>
<g style="fill:rgb(0%,0%,0%);fill-opacity:1;">
  <use xlink:href="#glyph0-1" x="133.140738" y="46.605508"/>
</g>
<path style=" stroke:none;fill-rule:nonzero;fill:rgb(79.998779%,79.998779%,100%);fill-opacity:1;" d="M 112.207031 80.445312 L 123.402344 80.445312 L 123.402344 68.085938 L 112.207031 68.085938 Z M 112.207031 80.445312 "/>
<g style="fill:rgb(0%,0%,0%);fill-opacity:1;">
  <use xlink:href="#glyph0-2" x="115.511547" y="77.141147"/>
</g>
<path style=" stroke:none;fill-rule:nonzero;fill:rgb(79.998779%,79.998779%,100%);fill-opacity:1;" d="M 127.546875 110.980469 L 143.324219 110.980469 L 143.324219 98.621094 L 127.546875 98.621094 Z M 127.546875 110.980469 "/>
<g style="fill:rgb(0%,0%,0%);fill-opacity:1;">
  <use xlink:href="#glyph0-2" x="130.849023" y="107.676786"/>
  <use xlink:href="#glyph0-3" x="135.434278" y="107.676786"/>
</g>
<path style="fill-rule:nonzero;fill:rgb(100%,96.939087%,40.000916%);fill-opacity:1;stroke-width:0.3985;stroke-linecap:butt;stroke-linejoin:round;stroke:rgb(0%,0%,0%);stroke-opacity:1;stroke-miterlimit:10;" d="M -0.00191946 0.00068154 L -70.868698 0.00068154 L -35.433346 61.371712 Z M -0.00191946 0.00068154 L -70.868698 0.00068154 L -35.433346 -61.374274 Z M -0.00191946 0.00068154 " transform="matrix(0.9951,0,0,-0.9951,82.544879,74.266303)"/>
<path style=" stroke:none;fill-rule:nonzero;fill:rgb(79.998779%,79.998779%,100%);fill-opacity:1;" d="M 24.058594 49.910156 L 35.25 49.910156 L 35.25 37.550781 L 24.058594 37.550781 Z M 24.058594 49.910156 "/>
<g style="fill:rgb(0%,0%,0%);fill-opacity:1;">
  <use xlink:href="#glyph0-4" x="27.362603" y="46.605508"/>
</g>
<path style=" stroke:none;fill-rule:nonzero;fill:rgb(79.998779%,79.998779%,100%);fill-opacity:1;" d="M 41.6875 80.445312 L 52.882812 80.445312 L 52.882812 68.085938 L 41.6875 68.085938 Z M 41.6875 80.445312 "/>
<g style="fill:rgb(0%,0%,0%);fill-opacity:1;">
  <use xlink:href="#glyph0-5" x="44.99279" y="77.141147"/>
</g>
<path style=" stroke:none;fill-rule:nonzero;fill:rgb(79.998779%,79.998779%,100%);fill-opacity:1;" d="M 21.765625 110.980469 L 37.542969 110.980469 L 37.542969 98.621094 L 21.765625 98.621094 Z M 21.765625 110.980469 "/>
<g style="fill:rgb(0%,0%,0%);fill-opacity:1;">
  <use xlink:href="#glyph0-2" x="25.069893" y="107.676786"/>
  <use xlink:href="#glyph0-6" x="29.655148" y="107.676786"/>
</g>
<path style="fill-rule:nonzero;fill:rgb(100%,96.939087%,40.000916%);fill-opacity:1;stroke-width:0.3985;stroke-linecap:butt;stroke-linejoin:round;stroke:rgb(0%,0%,0%);stroke-opacity:1;stroke-miterlimit:10;" d="M -0.00191946 0.00068154 L 35.433433 61.371712 L -35.433346 61.371712 Z M -0.00191946 0.00068154 L 35.433433 -61.374274 L -35.433346 -61.374274 Z M -0.00191946 0.00068154 " transform="matrix(0.9951,0,0,-0.9951,82.544879,74.266303)"/>
<path style=" stroke:none;fill-rule:nonzero;fill:rgb(79.998779%,79.998779%,100%);fill-opacity:1;" d="M 94.578125 49.910156 L 105.773438 49.910156 L 105.773438 37.550781 L 94.578125 37.550781 Z M 94.578125 49.910156 "/>
<g style="fill:rgb(0%,0%,0%);fill-opacity:1;">
  <use xlink:href="#glyph0-3" x="97.88136" y="46.605508"/>
</g>
<path style=" stroke:none;fill-rule:nonzero;fill:rgb(79.998779%,79.998779%,100%);fill-opacity:1;" d="M 76.949219 19.375 L 88.140625 19.375 L 88.140625 7.015625 L 76.949219 7.015625 Z M 76.949219 19.375 "/>
<g style="fill:rgb(0%,0%,0%);fill-opacity:1;">
  <use xlink:href="#glyph0-7" x="80.252168" y="16.06987"/>
</g>
<path style=" stroke:none;fill-rule:nonzero;fill:rgb(79.998779%,79.998779%,100%);fill-opacity:1;" d="M 59.316406 49.910156 L 70.511719 49.910156 L 70.511719 37.550781 L 59.316406 37.550781 Z M 59.316406 49.910156 "/>
<g style="fill:rgb(0%,0%,0%);fill-opacity:1;">
  <use xlink:href="#glyph0-8" x="62.621982" y="46.605508"/>
</g>
<path style=" stroke:none;fill-rule:nonzero;fill:rgb(79.998779%,79.998779%,100%);fill-opacity:1;" d="M 94.578125 110.980469 L 105.773438 110.980469 L 105.773438 98.621094 L 94.578125 98.621094 Z M 94.578125 110.980469 "/>
<g style="fill:rgb(0%,0%,0%);fill-opacity:1;">
  <use xlink:href="#glyph0-9" x="97.88136" y="107.676786"/>
</g>
<path style=" stroke:none;fill-rule:nonzero;fill:rgb(79.998779%,79.998779%,100%);fill-opacity:1;" d="M 74.65625 141.519531 L 90.433594 141.519531 L 90.433594 129.160156 L 74.65625 129.160156 Z M 74.65625 141.519531 "/>
<g style="fill:rgb(0%,0%,0%);fill-opacity:1;">
  <use xlink:href="#glyph0-2" x="77.959458" y="138.212424"/>
  <use xlink:href="#glyph0-2" x="82.544713" y="138.212424"/>
</g>
<path style=" stroke:none;fill-rule:nonzero;fill:rgb(79.998779%,79.998779%,100%);fill-opacity:1;" d="M 59.316406 110.980469 L 70.511719 110.980469 L 70.511719 98.621094 L 59.316406 98.621094 Z M 59.316406 110.980469 "/>
<g style="fill:rgb(0%,0%,0%);fill-opacity:1;">
  <use xlink:href="#glyph0-10" x="62.621982" y="107.676786"/>
</g>
<path style=" stroke:none;fill-rule:nonzero;fill:rgb(0%,0%,100%);fill-opacity:1;" d="M 49.269531 13.195312 C 49.269531 12.097656 48.378906 11.210938 47.285156 11.210938 C 46.191406 11.210938 45.300781 12.097656 45.300781 13.195312 C 45.300781 14.289062 46.191406 15.175781 47.285156 15.175781 C 48.378906 15.175781 49.269531 14.289062 49.269531 13.195312 Z M 49.269531 13.195312 "/>
<g style="fill:rgb(0%,0%,100%);fill-opacity:1;">
  <use xlink:href="#glyph1-1" x="44.806706" y="9.692274"/>
</g>
<path style=" stroke:none;fill-rule:nonzero;fill:rgb(0%,0%,100%);fill-opacity:1;" d="M 119.789062 13.195312 C 119.789062 12.097656 118.898438 11.210938 117.804688 11.210938 C 116.710938 11.210938 115.820312 12.097656 115.820312 13.195312 C 115.820312 14.289062 116.710938 15.175781 117.804688 15.175781 C 118.898438 15.175781 119.789062 14.289062 119.789062 13.195312 Z M 119.789062 13.195312 "/>
<g style="fill:rgb(0%,0%,100%);fill-opacity:1;">
  <use xlink:href="#glyph1-2" x="115.325463" y="9.692274"/>
</g>
<path style=" stroke:none;fill-rule:nonzero;fill:rgb(0%,0%,100%);fill-opacity:1;" d="M 49.269531 135.339844 C 49.269531 134.242188 48.378906 133.355469 47.285156 133.355469 C 46.191406 133.355469 45.300781 134.242188 45.300781 135.339844 C 45.300781 136.433594 46.191406 137.320312 47.285156 137.320312 C 48.378906 137.320312 49.269531 136.433594 49.269531 135.339844 Z M 49.269531 135.339844 "/>
<g style="fill:rgb(0%,0%,100%);fill-opacity:1;">
  <use xlink:href="#glyph1-3" x="44.806706" y="145.228874"/>
</g>
<path style=" stroke:none;fill-rule:nonzero;fill:rgb(0%,0%,100%);fill-opacity:1;" d="M 119.789062 135.339844 C 119.789062 134.242188 118.898438 133.355469 117.804688 133.355469 C 116.710938 133.355469 115.820312 134.242188 115.820312 135.339844 C 115.820312 136.433594 116.710938 137.320312 117.804688 137.320312 C 118.898438 137.320312 119.789062 136.433594 119.789062 135.339844 Z M 119.789062 135.339844 "/>
<g style="fill:rgb(0%,0%,100%);fill-opacity:1;">
  <use xlink:href="#glyph1-4" x="115.325463" y="145.228874"/>
</g>
<path style=" stroke:none;fill-rule:nonzero;fill:rgb(0%,0%,100%);fill-opacity:1;" d="M 14.007812 74.265625 C 14.007812 73.171875 13.121094 72.285156 12.023438 72.285156 C 10.929688 72.285156 10.042969 73.171875 10.042969 74.265625 C 10.042969 75.363281 10.929688 76.25 12.023438 76.25 C 13.121094 76.25 14.007812 75.363281 14.007812 74.265625 Z M 14.007812 74.265625 "/>
<g style="fill:rgb(0%,0%,100%);fill-opacity:1;">
  <use xlink:href="#glyph1-5" x="3.566777" y="77.460574"/>
</g>
<path style=" stroke:none;fill-rule:nonzero;fill:rgb(0%,0%,100%);fill-opacity:1;" d="M 84.527344 74.265625 C 84.527344 73.171875 83.640625 72.285156 82.542969 72.285156 C 81.449219 72.285156 80.5625 73.171875 80.5625 74.265625 C 80.5625 75.363281 81.449219 76.25 82.542969 76.25 C 83.640625 76.25 84.527344 75.363281 84.527344 74.265625 Z M 84.527344 74.265625 "/>
<g style="fill:rgb(0%,0%,100%);fill-opacity:1;">
  <use xlink:href="#glyph1-6" x="80.066085" y="84.157597"/>
</g>
<path style=" stroke:none;fill-rule:nonzero;fill:rgb(0%,0%,100%);fill-opacity:1;" d="M 155.046875 74.265625 C 155.046875 73.171875 154.160156 72.285156 153.066406 72.285156 C 151.96875 72.285156 151.082031 73.171875 151.082031 74.265625 C 151.082031 75.363281 151.96875 76.25 153.066406 76.25 C 154.160156 76.25 155.046875 75.363281 155.046875 74.265625 Z M 155.046875 74.265625 "/>
<g style="fill:rgb(0%,0%,100%);fill-opacity:1;">
  <use xlink:href="#glyph1-7" x="156.566387" y="77.460574"/>
</g>
<g style="fill:rgb(0%,0%,0%);fill-opacity:1;">
  <use xlink:href="#glyph1-8" x="116.013077" y="57.296863"/>
</g>
<g style="fill:rgb(0%,0%,0%);fill-opacity:1;">
  <use xlink:href="#glyph1-8" x="78.827185" y="36.940102"/>
</g>
<g style="fill:rgb(0%,0%,0%);fill-opacity:1;">
  <use xlink:href="#glyph1-8" x="82.684638" y="36.940102"/>
</g>
<g style="fill:rgb(0%,0%,0%);fill-opacity:1;">
  <use xlink:href="#glyph1-8" x="41.640298" y="57.296863"/>
</g>
<g style="fill:rgb(0%,0%,0%);fill-opacity:1;">
  <use xlink:href="#glyph1-8" x="45.497751" y="57.296863"/>
</g>
<g style="fill:rgb(0%,0%,0%);fill-opacity:1;">
  <use xlink:href="#glyph1-8" x="49.355204" y="57.296863"/>
</g>
<g style="fill:rgb(0%,0%,0%);fill-opacity:1;">
  <use xlink:href="#glyph1-8" x="41.777622" y="98.010384"/>
  <use xlink:href="#glyph1-9" x="45.357489" y="98.010384"/>
</g>
<g style="fill:rgb(0%,0%,0%);fill-opacity:1;">
  <use xlink:href="#glyph1-9" x="78.827185" y="118.367145"/>
</g>
<g style="fill:rgb(0%,0%,0%);fill-opacity:1;">
  <use xlink:href="#glyph1-9" x="112.295383" y="98.010384"/>
  <use xlink:href="#glyph1-8" x="119.730721" y="98.010384"/>
</g>
</g>
</svg>
