<?xml version="1.0" encoding="iso-8859-1" standalone="no"?> 
<?xml-stylesheet href="_Wrapper_Image_FacegraphOct.css" type="text/css"?> 
<svg xmlns="http://www.w3.org/2000/svg" xmlns:xlink="http://www.w3.org/1999/xlink" width="62.53928pt" height="62.53928pt" viewBox="-2.8169 -2.8169 62.53928 62.53928 "> 
<g transform="translate(0, 59.72238 ) scale(1,-1) translate(0,2.8169 )"> 
 <g stroke="#000" fill="#000">
 <g stroke-width="0.4">
 <g fill="#000">
 <g fill="#000">
 <path d=" M 2.8169 0.0 C 2.8169 1.55574 1.55574 2.8169 0.0 2.8169 C -1.55574 2.8169 -2.8169 1.55574 -2.8169 0.0 C -2.8169 -1.55574 -1.55574 -2.8169 0.0 -2.8169 C 1.55574 -2.8169 2.8169 -1.55574 2.8169 0.0 Z M 0.0 0.0  " stroke="none"/>
 </g>
 <g fill="#000">
 <text style="stroke:none" transform="scale(1,-1) translate(0.0,0)" text-anchor="middle"  font-size="10"> 
<g fill="#000">
 <g stroke="none"> </g> </g>
 </text> 
</g>
 </g>
 <g fill="#000">
 <g fill="#000">
 <path d=" M 59.72238 0.0 C 59.72238 1.55574 58.46123 2.8169 56.90549 2.8169 C 55.34975 2.8169 54.0886 1.55574 54.0886 0.0 C 54.0886 -1.55574 55.34975 -2.8169 56.90549 -2.8169 C 58.46123 -2.8169 59.72238 -1.55574 59.72238 0.0 Z M 56.90549 0.0  " stroke="none"/>
 </g>
 <g transform="translate(56.90549,0.0)">
 <g fill="#000">
 <text style="stroke:none" transform="scale(1,-1) translate(0.0,0)" text-anchor="middle"  font-size="10"> 
<g fill="#000">
 <g stroke="none"> </g> </g>
 </text> 
</g>
 </g>
 </g>
 <g fill="#000">
 <g fill="#000">
 <path d=" M 59.72238 56.90549 C 59.72238 58.46123 58.46123 59.72238 56.90549 59.72238 C 55.34975 59.72238 54.0886 58.46123 54.0886 56.90549 C 54.0886 55.34975 55.34975 54.0886 56.90549 54.0886 C 58.46123 54.0886 59.72238 55.34975 59.72238 56.90549 Z M 56.90549 56.90549  " stroke="none"/>
 </g>
 <g transform="translate(56.90549,56.90549)">
 <g fill="#000">
 <text style="stroke:none" transform="scale(1,-1) translate(0.0,0)" text-anchor="middle"  font-size="10"> 
<g fill="#000">
 <g stroke="none"> </g> </g>
 </text> 
</g>
 </g>
 </g>
 <g fill="#000">
 <g fill="#000">
 <path d=" M 2.8169 56.90549 C 2.8169 58.46123 1.55574 59.72238 0.0 59.72238 C -1.55574 59.72238 -2.8169 58.46123 -2.8169 56.90549 C -2.8169 55.34975 -1.55574 54.0886 0.0 54.0886 C 1.55574 54.0886 2.8169 55.34975 2.8169 56.90549 Z M 0.0 56.90549  " stroke="none"/>
 </g>
 <g transform="translate(0.0,56.90549)">
 <g fill="#000">
 <text style="stroke:none" transform="scale(1,-1) translate(0.0,0)" text-anchor="middle"  font-size="10"> 
<g fill="#000">
 <g stroke="none"> </g> </g>
 </text> 
</g>
 </g>
 </g>
 <g fill="#000">
 <g fill="#000">
 <path d=" M 17.04326 14.22636 C 17.04326 15.7821 15.7821 17.04326 14.22636 17.04326 C 12.67062 17.04326 11.40947 15.7821 11.40947 14.22636 C 11.40947 12.67062 12.67062 11.40947 14.22636 11.40947 C 15.7821 11.40947 17.04326 12.67062 17.04326 14.22636 Z M 14.22636 14.22636  " stroke="none"/>
 </g>
 <g transform="translate(14.22636,14.22636)">
 <g fill="#000">
 <text style="stroke:none" transform="scale(1,-1) translate(0.0,0)" text-anchor="middle"  font-size="10"> 
<g fill="#000">
 <g stroke="none"> </g> </g>
 </text> 
</g>
 </g>
 </g>
 <g fill="#000">
 <g fill="#000">
 <path d=" M 45.496 14.22636 C 45.496 15.7821 44.23485 17.04326 42.67911 17.04326 C 41.12337 17.04326 39.86221 15.7821 39.86221 14.22636 C 39.86221 12.67062 41.12337 11.40947 42.67911 11.40947 C 44.23485 11.40947 45.496 12.67062 45.496 14.22636 Z M 42.67911 14.22636  " stroke="none"/>
 </g>
 <g transform="translate(42.67911,14.22636)">
 <g fill="#000">
 <text style="stroke:none" transform="scale(1,-1) translate(0.0,0)" text-anchor="middle"  font-size="10"> 
<g fill="#000">
 <g stroke="none"> </g> </g>
 </text> 
</g>
 </g>
 </g>
 <g fill="#000">
 <g fill="#000">
 <path d=" M 45.496 42.67911 C 45.496 44.23485 44.23485 45.496 42.67911 45.496 C 41.12337 45.496 39.86221 44.23485 39.86221 42.67911 C 39.86221 41.12337 41.12337 39.86221 42.67911 39.86221 C 44.23485 39.86221 45.496 41.12337 45.496 42.67911 Z M 42.67911 42.67911  " stroke="none"/>
 </g>
 <g transform="translate(42.67911,42.67911)">
 <g fill="#000">
 <text style="stroke:none" transform="scale(1,-1) translate(0.0,0)" text-anchor="middle"  font-size="10"> 
<g fill="#000">
 <g stroke="none"> </g> </g>
 </text> 
</g>
 </g>
 </g>
 <g fill="#000">
 <g fill="#000">
 <path d=" M 17.04326 42.67911 C 17.04326 44.23485 15.7821 45.496 14.22636 45.496 C 12.67062 45.496 11.40947 44.23485 11.40947 42.67911 C 11.40947 41.12337 12.67062 39.86221 14.22636 39.86221 C 15.7821 39.86221 17.04326 41.12337 17.04326 42.67911 Z M 14.22636 42.67911  " stroke="none"/>
 </g>
 <g transform="translate(14.22636,42.67911)">
 <g fill="#000">
 <text style="stroke:none" transform="scale(1,-1) translate(0.0,0)" text-anchor="middle"  font-size="10"> 
<g fill="#000">
 <g stroke="none"> </g> </g>
 </text> 
</g>
 </g>
 </g>
 <path d=" M 3.01689 0.0 L 53.8886 0.0  " fill="none"/>
 <path d=" M 56.90549 3.01689 L 56.90549 53.8886  " fill="none"/>
 <path d=" M 53.8886 56.90549 L 3.01689 56.90549  " fill="none"/>
 <path d=" M 0.0 53.8886 L 0.0 3.01689  " fill="none"/>
 <path d=" M 17.24326 14.22636 L 39.66222 14.22636  " fill="none"/>
 <path d=" M 42.67911 17.24326 L 42.67911 39.66222  " fill="none"/>
 <path d=" M 39.66222 42.67911 L 17.24326 42.67911  " fill="none"/>
 <path d=" M 14.22636 39.66222 L 14.22636 17.24326  " fill="none"/>
 <path d=" M 2.13326 2.13326 L 12.09311 12.09311  " fill="none"/>
 <path d=" M 54.77223 2.13326 L 44.81236 12.09311  " fill="none"/>
 <path d=" M 54.77223 54.77223 L 44.81236 44.81236  " fill="none"/>
 <path d=" M 2.13326 54.77223 L 12.09311 44.81236  " fill="none"/>
 </g>
 </g>
                   </g> 
</svg> 
