<?xml version="1.0" encoding="iso-8859-1" standalone="no"?> 
<?xml-stylesheet href="_Wrapper_morphisms-8.css" type="text/css"?> 
<svg xmlns="http://www.w3.org/2000/svg" xmlns:xlink="http://www.w3.org/1999/xlink" width="416.03734pt" height="140.43173pt" viewBox="-211.03516 -13.31038 416.03734 140.43173 "> 
<g transform="translate(0,127.12135 ) scale(1,-1) translate(0,13.31038 )"> 
                                        <g stroke="#000" fill="#000">
 <g stroke-width="0.4">
 <g stroke-linejoin="round">
 <g stroke="#000">
 <g fill="#ff6">
 <path d=" M -142.26372 56.90549 L -199.1692 56.90549 L -142.26372 0.0 Z M -85.35823 56.90549 L -142.26372 56.90549 L -142.26372 0.0 L -85.35823 0.0 Z M -85.35823 56.90549 L -85.35823 0.0 L -28.45274 0.0 L -28.45274 56.90549 Z M -85.35823 56.90549 L -28.45274 56.90549 L -28.45274 113.81097 L -85.35823 56.90549  " />
 <g transform="translate(-170.71646,56.90549)">
 <g fill="#000">
 <text style="stroke:none" transform="scale(1,-1) translate(0.0,0)" text-anchor="middle"  font-size="10"> 
<g fill="#000">
 <g stroke="none"> </g> </g>
 </text> 
</g>
 </g>
 <g transform="translate(-170.71646,28.45274)">
 <g fill="#000">
 <text style="stroke:none" transform="scale(1,-1) translate(0.0,0)" text-anchor="middle"  font-size="10"> 
<g fill="#000">
 <g stroke="none"> </g> </g>
 </text> 
</g>
 </g>
 <g transform="translate(-113.81097,56.90549)">
 <g fill="#000">
 <text style="stroke:none" transform="scale(1,-1) translate(0.0,0)" text-anchor="middle"  font-size="10"> 
<g fill="#000">
 <g stroke="none"> </g> </g>
 </text> 
</g>
 </g>
 <g transform="translate(-142.26372,28.45274)">
 <g fill="#000">
 <text style="stroke:none" transform="scale(1,-1) translate(0.0,0)" text-anchor="middle"  font-size="10"> 
<g fill="#000">
 <g stroke="none"> </g> </g>
 </text> 
</g>
 </g>
 <g transform="translate(-113.81097,0.0)">
 <g fill="#000">
 <text style="stroke:none" transform="scale(1,-1) translate(0.0,0)" text-anchor="middle"  font-size="10"> 
<g fill="#000">
 <g stroke="none"> </g> </g>
 </text> 
</g>
 </g>
 <g transform="translate(-85.35823,28.45274)">
 <g fill="#000">
 <text style="stroke:none" transform="scale(1,-1) translate(0.0,0)" text-anchor="middle"  font-size="10"> 
<g fill="#000">
 <g stroke="none"> </g> </g>
 </text> 
</g>
 </g>
 <g transform="translate(-56.90549,0.0)">
 <g fill="#000">
 <text style="stroke:none" transform="scale(1,-1) translate(0.0,0)" text-anchor="middle"  font-size="10"> 
<g fill="#000">
 <g stroke="none"> </g> </g>
 </text> 
</g>
 </g>
 <g transform="translate(-28.45274,28.45274)">
 <g fill="#000">
 <text style="stroke:none" transform="scale(1,-1) translate(0.0,0)" text-anchor="middle"  font-size="10"> 
<g fill="#000">
 <g stroke="none"> </g> </g>
 </text> 
</g>
 </g>
 <g transform="translate(-56.90549,56.90549)">
 <g fill="#000">
 <text style="stroke:none" transform="scale(1,-1) translate(0.0,0)" text-anchor="middle"  font-size="10"> 
<g fill="#000">
 <g stroke="none"> </g> </g>
 </text> 
</g>
 </g>
 <g transform="translate(-28.45274,85.35823)">
 <g fill="#000">
 <text style="stroke:none" transform="scale(1,-1) translate(0.0,0)" text-anchor="middle"  font-size="10"> 
<g fill="#000">
 <g stroke="none"> </g> </g>
 </text> 
</g>
 </g>
 <g transform="translate(-56.90549,85.35823)">
 <g fill="#000">
 <text style="stroke:none" transform="scale(1,-1) translate(0.0,0)" text-anchor="middle"  font-size="10"> 
<g fill="#000">
 <g stroke="none"> </g> </g>
 </text> 
</g>
 </g>
 </g>
 </g>
 </g>
 <g fill="#00f">
 <g fill="#00f">
 <path d=" M -197.1692 56.90549 C -197.1692 58.01007 -198.06462 58.90549 -199.1692 58.90549 C -200.27379 58.90549 -201.1692 58.01007 -201.1692 56.90549 C -201.1692 55.8009 -200.27379 54.90549 -199.1692 54.90549 C -198.06462 54.90549 -197.1692 55.8009 -197.1692 56.90549 Z M -199.1692 56.90549  " stroke="none"/>
 </g>
 <g transform="translate(-199.1692,56.90549)">
 <g fill="#000">
 <text style="stroke:none" transform="scale(1,-1) translate(0.0,0)" text-anchor="middle"  font-size="10"> 
<g fill="#000">
 <g stroke="none"> </g> </g>
 </text> 
</g>
 </g>
 </g>
 <g stroke="#00f" fill="#00f">
 <g stroke="#00f" fill="#00f">
 </g>
 <g transform="translate(-207.70218,53.68327)">
 <g fill="#00f">
 <text style="stroke:none" transform="scale(1,-1) translate(2.5,0)" text-anchor="middle"  font-size="10"> 
<g fill="#00f">
 <g stroke="none"> 1</g> </g>
 </text> 
</g>
 </g>
 </g>
 <g fill="#00f">
 <g fill="#00f">
 <path d=" M -140.26372 56.90549 C -140.26372 58.01007 -141.15913 58.90549 -142.26372 58.90549 C -143.3683 58.90549 -144.26372 58.01007 -144.26372 56.90549 C -144.26372 55.8009 -143.3683 54.90549 -142.26372 54.90549 C -141.15913 54.90549 -140.26372 55.8009 -140.26372 56.90549 Z M -142.26372 56.90549  " stroke="none"/>
 </g>
 <g transform="translate(-142.26372,56.90549)">
 <g fill="#000">
 <text style="stroke:none" transform="scale(1,-1) translate(0.0,0)" text-anchor="middle"  font-size="10"> 
<g fill="#000">
 <g stroke="none"> </g> </g>
 </text> 
</g>
 </g>
 </g>
 <g stroke="#00f" fill="#00f">
 <g stroke="#00f" fill="#00f">
 </g>
 <g transform="translate(-144.76372,60.43846)">
 <g fill="#00f">
 <text style="stroke:none" transform="scale(1,-1) translate(2.5,0)" text-anchor="middle"  font-size="10"> 
<g fill="#00f">
 <g stroke="none"> 2</g> </g>
 </text> 
</g>
 </g>
 </g>
 <g fill="#00f">
 <g fill="#00f">
 <path d=" M -83.35823 56.90549 C -83.35823 58.01007 -84.25365 58.90549 -85.35823 58.90549 C -86.46281 58.90549 -87.35823 58.01007 -87.35823 56.90549 C -87.35823 55.8009 -86.46281 54.90549 -85.35823 54.90549 C -84.25365 54.90549 -83.35823 55.8009 -83.35823 56.90549 Z M -85.35823 56.90549  " stroke="none"/>
 </g>
 <g transform="translate(-85.35823,56.90549)">
 <g fill="#000">
 <text style="stroke:none" transform="scale(1,-1) translate(0.0,0)" text-anchor="middle"  font-size="10"> 
<g fill="#000">
 <g stroke="none"> </g> </g>
 </text> 
</g>
 </g>
 </g>
 <g stroke="#00f" fill="#00f">
 <g stroke="#00f" fill="#00f">
 </g>
 <g transform="translate(-87.85823,60.43846)">
 <g fill="#00f">
 <text style="stroke:none" transform="scale(1,-1) translate(2.5,0)" text-anchor="middle"  font-size="10"> 
<g fill="#00f">
 <g stroke="none"> 4</g> </g>
 </text> 
</g>
 </g>
 </g>
 <g fill="#00f">
 <g fill="#00f">
 <path d=" M -26.45274 113.81097 C -26.45274 114.91556 -27.34816 115.81097 -28.45274 115.81097 C -29.55733 115.81097 -30.45274 114.91556 -30.45274 113.81097 C -30.45274 112.70639 -29.55733 111.81097 -28.45274 111.81097 C -27.34816 111.81097 -26.45274 112.70639 -26.45274 113.81097 Z M -28.45274 113.81097  " stroke="none"/>
 </g>
 <g transform="translate(-28.45274,113.81097)">
 <g fill="#000">
 <text style="stroke:none" transform="scale(1,-1) translate(0.0,0)" text-anchor="middle"  font-size="10"> 
<g fill="#000">
 <g stroke="none"> </g> </g>
 </text> 
</g>
 </g>
 </g>
 <g stroke="#00f" fill="#00f">
 <g stroke="#00f" fill="#00f">
 </g>
 <g transform="translate(-24.91977,110.58876)">
 <g fill="#00f">
 <text style="stroke:none" transform="scale(1,-1) translate(2.5,0)" text-anchor="middle"  font-size="10"> 
<g fill="#00f">
 <g stroke="none"> 5</g> </g>
 </text> 
</g>
 </g>
 </g>
 <g fill="#00f">
 <g fill="#00f">
 <path d=" M -26.45274 56.90549 C -26.45274 58.01007 -27.34816 58.90549 -28.45274 58.90549 C -29.55733 58.90549 -30.45274 58.01007 -30.45274 56.90549 C -30.45274 55.8009 -29.55733 54.90549 -28.45274 54.90549 C -27.34816 54.90549 -26.45274 55.8009 -26.45274 56.90549 Z M -28.45274 56.90549  " stroke="none"/>
 </g>
 <g transform="translate(-28.45274,56.90549)">
 <g fill="#000">
 <text style="stroke:none" transform="scale(1,-1) translate(0.0,0)" text-anchor="middle"  font-size="10"> 
<g fill="#000">
 <g stroke="none"> </g> </g>
 </text> 
</g>
 </g>
 </g>
 <g stroke="#00f" fill="#00f">
 <g stroke="#00f" fill="#00f">
 </g>
 <g transform="translate(-24.91977,53.68327)">
 <g fill="#00f">
 <text style="stroke:none" transform="scale(1,-1) translate(2.5,0)" text-anchor="middle"  font-size="10"> 
<g fill="#00f">
 <g stroke="none"> 6</g> </g>
 </text> 
</g>
 </g>
 </g>
 <g fill="#00f">
 <g fill="#00f">
 <path d=" M -26.45274 0.0 C -26.45274 1.10458 -27.34816 2.0 -28.45274 2.0 C -29.55733 2.0 -30.45274 1.10458 -30.45274 0.0 C -30.45274 -1.10458 -29.55733 -2.0 -28.45274 -2.0 C -27.34816 -2.0 -26.45274 -1.10458 -26.45274 0.0 Z M -28.45274 0.0  " stroke="none"/>
 </g>
 <g transform="translate(-28.45274,0.0)">
 <g fill="#000">
 <text style="stroke:none" transform="scale(1,-1) translate(0.0,0)" text-anchor="middle"  font-size="10"> 
<g fill="#000">
 <g stroke="none"> </g> </g>
 </text> 
</g>
 </g>
 </g>
 <g stroke="#00f" fill="#00f">
 <g stroke="#00f" fill="#00f">
 </g>
 <g transform="translate(-24.91977,-9.9774)">
 <g fill="#00f">
 <text style="stroke:none" transform="scale(1,-1) translate(2.5,0)" text-anchor="middle"  font-size="10"> 
<g fill="#00f">
 <g stroke="none"> 8</g> </g>
 </text> 
</g>
 </g>
 </g>
 <g fill="#00f">
 <g fill="#00f">
 <path d=" M -83.35823 0.0 C -83.35823 1.10458 -84.25365 2.0 -85.35823 2.0 C -86.46281 2.0 -87.35823 1.10458 -87.35823 0.0 C -87.35823 -1.10458 -86.46281 -2.0 -85.35823 -2.0 C -84.25365 -2.0 -83.35823 -1.10458 -83.35823 0.0 Z M -85.35823 0.0  " stroke="none"/>
 </g>
 <g transform="translate(-85.35823,0.0)">
 <g fill="#000">
 <text style="stroke:none" transform="scale(1,-1) translate(0.0,0)" text-anchor="middle"  font-size="10"> 
<g fill="#000">
 <g stroke="none"> </g> </g>
 </text> 
</g>
 </g>
 </g>
 <g stroke="#00f" fill="#00f">
 <g stroke="#00f" fill="#00f">
 </g>
 <g transform="translate(-90.35825,-9.9774)">
 <g fill="#00f">
 <text style="stroke:none" transform="scale(1,-1) translate(5.00002,0)" text-anchor="middle"  font-size="10"> 
<g fill="#00f">
 <g stroke="none"> 10</g> </g>
 </text> 
</g>
 </g>
 </g>
 <g fill="#00f">
 <g fill="#00f">
 <path d=" M -140.26372 0.0 C -140.26372 1.10458 -141.15913 2.0 -142.26372 2.0 C -143.3683 2.0 -144.26372 1.10458 -144.26372 0.0 C -144.26372 -1.10458 -143.3683 -2.0 -142.26372 -2.0 C -141.15913 -2.0 -140.26372 -1.10458 -140.26372 0.0 Z M -142.26372 0.0  " stroke="none"/>
 </g>
 <g transform="translate(-142.26372,0.0)">
 <g fill="#000">
 <text style="stroke:none" transform="scale(1,-1) translate(0.0,0)" text-anchor="middle"  font-size="10"> 
<g fill="#000">
 <g stroke="none"> </g> </g>
 </text> 
</g>
 </g>
 </g>
 <g stroke="#00f" fill="#00f">
 <g stroke="#00f" fill="#00f">
 </g>
 <g transform="translate(-147.26373,-9.9774)">
 <g fill="#00f">
 <text style="stroke:none" transform="scale(1,-1) translate(5.00002,0)" text-anchor="middle"  font-size="10"> 
<g fill="#00f">
 <g stroke="none"> 12</g> </g>
 </text> 
</g>
 </g>
 </g>
 <g transform="translate(-161.2328,37.9364)">
 <g fill="#000">
 <text style="stroke:none" transform="scale(1,-1) translate(0.0,0)" text-anchor="middle"  font-size="10"> 
<g fill="#000">
 <g stroke="none"> </g> </g>
 </text> 
</g>
 </g>
 <g transform="translate(-113.81097,28.45274)">
 <g fill="#000">
 <text style="stroke:none" transform="scale(1,-1) translate(0.0,0)" text-anchor="middle"  font-size="10"> 
<g fill="#000">
 <g stroke="none"> </g> </g>
 </text> 
</g>
 </g>
 <g transform="translate(-56.90549,28.45274)">
 <g fill="#000">
 <text style="stroke:none" transform="scale(1,-1) translate(0.0,0)" text-anchor="middle"  font-size="10"> 
<g fill="#000">
 <g stroke="none"> </g> </g>
 </text> 
</g>
 </g>
 <g transform="translate(-47.42357,75.87282)">
 <g fill="#000">
 <text style="stroke:none" transform="scale(1,-1) translate(0.0,0)" text-anchor="middle"  font-size="10"> 
<g fill="#000">
 <g stroke="none"> </g> </g>
 </text> 
</g>
 </g>
 <g transform="translate(-6.38885,55.07112)">
 <g fill="#000">
 <text style="stroke:none" transform="scale(1,-1) translate(6.38885,0)" text-anchor="middle"  font-size="10"> 
<g fill="#000">
 <g stroke="none">  <tspan font-family="cmsy" font-size="10">&#x2192;</tspan></g> </g>
 </text> 
</g>
 </g>
 <g stroke-linejoin="round">
 <g stroke="#000">
 <g fill="#ff6">
 <path d=" M 85.35823 56.90549 L 28.45274 56.90549 L 85.35823 0.0 Z M 142.26372 56.90549 L 85.35823 113.81097 L 85.35823 56.90549 Z M 142.26372 56.90549 L 85.35823 56.90549 L 85.35823 0.0 L 142.26372 0.0 Z M 199.1692 0.0 L 142.26372 56.90549 L 142.26372 0.0 L 199.1692 0.0  " />
 <g transform="translate(56.90549,56.90549)">
 <g fill="#000">
 <text style="stroke:none" transform="scale(1,-1) translate(0.0,0)" text-anchor="middle"  font-size="10"> 
<g fill="#000">
 <g stroke="none"> </g> </g>
 </text> 
</g>
 </g>
 <g transform="translate(56.90549,28.45274)">
 <g fill="#000">
 <text style="stroke:none" transform="scale(1,-1) translate(0.0,0)" text-anchor="middle"  font-size="10"> 
<g fill="#000">
 <g stroke="none"> </g> </g>
 </text> 
</g>
 </g>
 <g transform="translate(113.81097,85.35823)">
 <g fill="#000">
 <text style="stroke:none" transform="scale(1,-1) translate(0.0,0)" text-anchor="middle"  font-size="10"> 
<g fill="#000">
 <g stroke="none"> </g> </g>
 </text> 
</g>
 </g>
 <g transform="translate(85.35823,85.35823)">
 <g fill="#000">
 <text style="stroke:none" transform="scale(1,-1) translate(0.0,0)" text-anchor="middle"  font-size="10"> 
<g fill="#000">
 <g stroke="none"> </g> </g>
 </text> 
</g>
 </g>
 <g transform="translate(113.81097,56.90549)">
 <g fill="#000">
 <text style="stroke:none" transform="scale(1,-1) translate(0.0,0)" text-anchor="middle"  font-size="10"> 
<g fill="#000">
 <g stroke="none"> </g> </g>
 </text> 
</g>
 </g>
 <g transform="translate(85.35823,28.45274)">
 <g fill="#000">
 <text style="stroke:none" transform="scale(1,-1) translate(0.0,0)" text-anchor="middle"  font-size="10"> 
<g fill="#000">
 <g stroke="none"> </g> </g>
 </text> 
</g>
 </g>
 <g transform="translate(113.81097,0.0)">
 <g fill="#000">
 <text style="stroke:none" transform="scale(1,-1) translate(0.0,0)" text-anchor="middle"  font-size="10"> 
<g fill="#000">
 <g stroke="none"> </g> </g>
 </text> 
</g>
 </g>
 <g transform="translate(170.71646,28.45274)">
 <g fill="#000">
 <text style="stroke:none" transform="scale(1,-1) translate(0.0,0)" text-anchor="middle"  font-size="10"> 
<g fill="#000">
 <g stroke="none"> </g> </g>
 </text> 
</g>
 </g>
 <g transform="translate(142.26372,28.45274)">
 <g fill="#000">
 <text style="stroke:none" transform="scale(1,-1) translate(0.0,0)" text-anchor="middle"  font-size="10"> 
<g fill="#000">
 <g stroke="none"> </g> </g>
 </text> 
</g>
 </g>
 <g transform="translate(170.71646,0.0)">
 <g fill="#000">
 <text style="stroke:none" transform="scale(1,-1) translate(0.0,0)" text-anchor="middle"  font-size="10"> 
<g fill="#000">
 <g stroke="none"> </g> </g>
 </text> 
</g>
 </g>
 </g>
 </g>
 </g>
 <g fill="#00f">
 <g fill="#00f">
 <path d=" M 30.45274 56.90549 C 30.45274 58.01007 29.55733 58.90549 28.45274 58.90549 C 27.34816 58.90549 26.45274 58.01007 26.45274 56.90549 C 26.45274 55.8009 27.34816 54.90549 28.45274 54.90549 C 29.55733 54.90549 30.45274 55.8009 30.45274 56.90549 Z M 28.45274 56.90549  " stroke="none"/>
 </g>
 <g transform="translate(28.45274,56.90549)">
 <g fill="#000">
 <text style="stroke:none" transform="scale(1,-1) translate(0.0,0)" text-anchor="middle"  font-size="10"> 
<g fill="#000">
 <g stroke="none"> </g> </g>
 </text> 
</g>
 </g>
 </g>
 <g stroke="#00f" fill="#00f">
 <g stroke="#00f" fill="#00f">
 </g>
 <g transform="translate(19.91977,53.68327)">
 <g fill="#00f">
 <text style="stroke:none" transform="scale(1,-1) translate(2.5,0)" text-anchor="middle"  font-size="10"> 
<g fill="#00f">
 <g stroke="none"> 1 </g> </g>
 </text> 
</g>
 </g>
 </g>
 <g fill="#00f">
 <g fill="#00f">
 <path d=" M 87.35823 56.90549 C 87.35823 58.01007 86.46281 58.90549 85.35823 58.90549 C 84.25365 58.90549 83.35823 58.01007 83.35823 56.90549 C 83.35823 55.8009 84.25365 54.90549 85.35823 54.90549 C 86.46281 54.90549 87.35823 55.8009 87.35823 56.90549 Z M 85.35823 56.90549  " stroke="none"/>
 </g>
 <g transform="translate(85.35823,56.90549)">
 <g fill="#000">
 <text style="stroke:none" transform="scale(1,-1) translate(0.0,0)" text-anchor="middle"  font-size="10"> 
<g fill="#000">
 <g stroke="none"> </g> </g>
 </text> 
</g>
 </g>
 </g>
 <g stroke="#00f" fill="#00f">
 <g stroke="#00f" fill="#00f">
 </g>
 <g transform="translate(76.82526,60.43846)">
 <g fill="#00f">
 <text style="stroke:none" transform="scale(1,-1) translate(2.5,0)" text-anchor="middle"  font-size="10"> 
<g fill="#00f">
 <g stroke="none"> 2 </g> </g>
 </text> 
</g>
 </g>
 </g>
 <g fill="#00f">
 <g fill="#00f">
 <path d=" M 87.35823 113.81097 C 87.35823 114.91556 86.46281 115.81097 85.35823 115.81097 C 84.25365 115.81097 83.35823 114.91556 83.35823 113.81097 C 83.35823 112.70639 84.25365 111.81097 85.35823 111.81097 C 86.46281 111.81097 87.35823 112.70639 87.35823 113.81097 Z M 85.35823 113.81097  " stroke="none"/>
 </g>
 <g transform="translate(85.35823,113.81097)">
 <g fill="#000">
 <text style="stroke:none" transform="scale(1,-1) translate(0.0,0)" text-anchor="middle"  font-size="10"> 
<g fill="#000">
 <g stroke="none"> </g> </g>
 </text> 
</g>
 </g>
 </g>
 <g stroke="#00f" fill="#00f">
 <g stroke="#00f" fill="#00f">
 </g>
 <g transform="translate(82.85823,117.34395)">
 <g fill="#00f">
 <text style="stroke:none" transform="scale(1,-1) translate(2.5,0)" text-anchor="middle"  font-size="10"> 
<g fill="#00f">
 <g stroke="none"> 3 </g> </g>
 </text> 
</g>
 </g>
 </g>
 <g fill="#00f">
 <g fill="#00f">
 <path d=" M 144.26372 56.90549 C 144.26372 58.01007 143.3683 58.90549 142.26372 58.90549 C 141.15913 58.90549 140.26372 58.01007 140.26372 56.90549 C 140.26372 55.8009 141.15913 54.90549 142.26372 54.90549 C 143.3683 54.90549 144.26372 55.8009 144.26372 56.90549 Z M 142.26372 56.90549  " stroke="none"/>
 </g>
 <g transform="translate(142.26372,56.90549)">
 <g fill="#000">
 <text style="stroke:none" transform="scale(1,-1) translate(0.0,0)" text-anchor="middle"  font-size="10"> 
<g fill="#000">
 <g stroke="none"> </g> </g>
 </text> 
</g>
 </g>
 </g>
 <g stroke="#00f" fill="#00f">
 <g stroke="#00f" fill="#00f">
 </g>
 <g transform="translate(145.79669,60.43846)">
 <g fill="#00f">
 <text style="stroke:none" transform="scale(1,-1) translate(2.5,0)" text-anchor="middle"  font-size="10"> 
<g fill="#00f">
 <g stroke="none"> 4 </g> </g>
 </text> 
</g>
 </g>
 </g>
 <g fill="#00f">
 <g fill="#00f">
 <path d=" M 201.1692 0.0 C 201.1692 1.10458 200.27379 2.0 199.1692 2.0 C 198.06462 2.0 197.1692 1.10458 197.1692 0.0 C 197.1692 -1.10458 198.06462 -2.0 199.1692 -2.0 C 200.27379 -2.0 201.1692 -1.10458 201.1692 0.0 Z M 199.1692 0.0  " stroke="none"/>
 </g>
 <g transform="translate(199.1692,0.0)">
 <g fill="#000">
 <text style="stroke:none" transform="scale(1,-1) translate(0.0,0)" text-anchor="middle"  font-size="10"> 
<g fill="#000">
 <g stroke="none"> </g> </g>
 </text> 
</g>
 </g>
 </g>
 <g stroke="#00f" fill="#00f">
 <g stroke="#00f" fill="#00f">
 </g>
 <g transform="translate(196.6692,-9.9774)">
 <g fill="#00f">
 <text style="stroke:none" transform="scale(1,-1) translate(2.5,0)" text-anchor="middle"  font-size="10"> 
<g fill="#00f">
 <g stroke="none"> 5 </g> </g>
 </text> 
</g>
 </g>
 </g>
 <g fill="#00f">
 <g fill="#00f">
 <path d=" M 144.26372 0.0 C 144.26372 1.10458 143.3683 2.0 142.26372 2.0 C 141.15913 2.0 140.26372 1.10458 140.26372 0.0 C 140.26372 -1.10458 141.15913 -2.0 142.26372 -2.0 C 143.3683 -2.0 144.26372 -1.10458 144.26372 0.0 Z M 142.26372 0.0  " stroke="none"/>
 </g>
 <g transform="translate(142.26372,0.0)">
 <g fill="#000">
 <text style="stroke:none" transform="scale(1,-1) translate(0.0,0)" text-anchor="middle"  font-size="10"> 
<g fill="#000">
 <g stroke="none"> </g> </g>
 </text> 
</g>
 </g>
 </g>
 <g stroke="#00f" fill="#00f">
 <g stroke="#00f" fill="#00f">
 </g>
 <g transform="translate(139.76372,-9.9774)">
 <g fill="#00f">
 <text style="stroke:none" transform="scale(1,-1) translate(2.5,0)" text-anchor="middle"  font-size="10"> 
<g fill="#00f">
 <g stroke="none"> 6 </g> </g>
 </text> 
</g>
 </g>
 </g>
 <g fill="#00f">
 <g fill="#00f">
 <path d=" M 87.35823 0.0 C 87.35823 1.10458 86.46281 2.0 85.35823 2.0 C 84.25365 2.0 83.35823 1.10458 83.35823 0.0 C 83.35823 -1.10458 84.25365 -2.0 85.35823 -2.0 C 86.46281 -2.0 87.35823 -1.10458 87.35823 0.0 Z M 85.35823 0.0  " stroke="none"/>
 </g>
 <g transform="translate(85.35823,0.0)">
 <g fill="#000">
 <text style="stroke:none" transform="scale(1,-1) translate(0.0,0)" text-anchor="middle"  font-size="10"> 
<g fill="#000">
 <g stroke="none"> </g> </g>
 </text> 
</g>
 </g>
 </g>
 <g stroke="#00f" fill="#00f">
 <g stroke="#00f" fill="#00f">
 </g>
 <g transform="translate(82.85823,-9.9774)">
 <g fill="#00f">
 <text style="stroke:none" transform="scale(1,-1) translate(2.5,0)" text-anchor="middle"  font-size="10"> 
<g fill="#00f">
 <g stroke="none"> 8 </g> </g>
 </text> 
</g>
 </g>
 </g>
 <g transform="translate(66.38914,37.9364)">
 <g fill="#000">
 <text style="stroke:none" transform="scale(1,-1) translate(0.0,0)" text-anchor="middle"  font-size="10"> 
<g fill="#000">
 <g stroke="none"> </g> </g>
 </text> 
</g>
 </g>
 <g transform="translate(113.81097,28.45274)">
 <g fill="#000">
 <text style="stroke:none" transform="scale(1,-1) translate(0.0,0)" text-anchor="middle"  font-size="10"> 
<g fill="#000">
 <g stroke="none"> </g> </g>
 </text> 
</g>
 </g>
 <g transform="translate(104.32556,75.87282)">
 <g fill="#000">
 <text style="stroke:none" transform="scale(1,-1) translate(0.0,0)" text-anchor="middle"  font-size="10"> 
<g fill="#000">
 <g stroke="none"> </g> </g>
 </text> 
</g>
 </g>
 <g transform="translate(161.23018,18.9682)">
 <g fill="#000">
 <text style="stroke:none" transform="scale(1,-1) translate(0.0,0)" text-anchor="middle"  font-size="10"> 
<g fill="#000">
 <g stroke="none"> </g> </g>
 </text> 
</g>
 </g>
 </g>
 </g>
 
                                                                               </g> 
</svg> 
