<?xml version="1.0" encoding="UTF-8"?>
<svg xmlns="http://www.w3.org/2000/svg" xmlns:xlink="http://www.w3.org/1999/xlink" width="161.856pt" height="111.561pt" viewBox="0 0 161.856 111.561" version="1.2">
<defs>
<g>
<symbol overflow="visible" id="glyph0-0">
<path style="stroke:none;" d=""/>
</symbol>
<symbol overflow="visible" id="glyph0-1">
<path style="stroke:none;" d="M 1.265625 -0.765625 L 2.3125 -1.78125 C 3.859375 -3.15625 4.453125 -3.6875 4.453125 -4.6875 C 4.453125 -5.8125 3.5625 -6.609375 2.34375 -6.609375 C 1.234375 -6.609375 0.5 -5.6875 0.5 -4.8125 C 0.5 -4.25 0.984375 -4.25 1.015625 -4.25 C 1.1875 -4.25 1.53125 -4.375 1.53125 -4.78125 C 1.53125 -5.046875 1.359375 -5.296875 1.015625 -5.296875 C 0.9375 -5.296875 0.90625 -5.296875 0.890625 -5.28125 C 1.109375 -5.9375 1.640625 -6.296875 2.21875 -6.296875 C 3.125 -6.296875 3.546875 -5.5 3.546875 -4.6875 C 3.546875 -3.890625 3.0625 -3.109375 2.515625 -2.484375 L 0.609375 -0.359375 C 0.5 -0.265625 0.5 -0.234375 0.5 0 L 4.171875 0 L 4.453125 -1.71875 L 4.203125 -1.71875 C 4.15625 -1.421875 4.09375 -0.984375 3.984375 -0.84375 C 3.921875 -0.765625 3.265625 -0.765625 3.046875 -0.765625 Z M 1.265625 -0.765625 "/>
</symbol>
<symbol overflow="visible" id="glyph0-2">
<path style="stroke:none;" d="M 4.453125 -2 C 4.453125 -3.171875 3.640625 -4.171875 2.5625 -4.171875 C 2.09375 -4.171875 1.671875 -4.015625 1.3125 -3.65625 L 1.3125 -5.59375 C 1.515625 -5.53125 1.828125 -5.46875 2.15625 -5.46875 C 3.375 -5.46875 4.0625 -6.375 4.0625 -6.5 C 4.0625 -6.5625 4.03125 -6.609375 3.96875 -6.609375 C 3.953125 -6.609375 3.9375 -6.609375 3.890625 -6.578125 C 3.6875 -6.484375 3.203125 -6.296875 2.546875 -6.296875 C 2.140625 -6.296875 1.6875 -6.359375 1.21875 -6.5625 C 1.140625 -6.59375 1.125 -6.59375 1.09375 -6.59375 C 1 -6.59375 1 -6.515625 1 -6.359375 L 1 -3.421875 C 1 -3.25 1 -3.171875 1.140625 -3.171875 C 1.203125 -3.171875 1.234375 -3.1875 1.265625 -3.25 C 1.375 -3.40625 1.75 -3.953125 2.546875 -3.953125 C 3.0625 -3.953125 3.3125 -3.5 3.390625 -3.3125 C 3.546875 -2.953125 3.578125 -2.5625 3.578125 -2.0625 C 3.578125 -1.71875 3.578125 -1.125 3.328125 -0.703125 C 3.09375 -0.3125 2.734375 -0.0625 2.265625 -0.0625 C 1.546875 -0.0625 0.984375 -0.578125 0.8125 -1.171875 C 0.84375 -1.15625 0.875 -1.15625 0.984375 -1.15625 C 1.3125 -1.15625 1.484375 -1.40625 1.484375 -1.640625 C 1.484375 -1.875 1.3125 -2.125 0.984375 -2.125 C 0.84375 -2.125 0.5 -2.046875 0.5 -1.59375 C 0.5 -0.75 1.1875 0.21875 2.296875 0.21875 C 3.4375 0.21875 4.453125 -0.734375 4.453125 -2 Z M 4.453125 -2 "/>
</symbol>
<symbol overflow="visible" id="glyph0-3">
<path style="stroke:none;" d="M 2.875 -3.5 C 3.6875 -3.765625 4.265625 -4.453125 4.265625 -5.234375 C 4.265625 -6.046875 3.390625 -6.609375 2.4375 -6.609375 C 1.4375 -6.609375 0.6875 -6.015625 0.6875 -5.265625 C 0.6875 -4.9375 0.90625 -4.75 1.1875 -4.75 C 1.5 -4.75 1.703125 -4.953125 1.703125 -5.25 C 1.703125 -5.75 1.234375 -5.75 1.078125 -5.75 C 1.390625 -6.234375 2.046875 -6.359375 2.40625 -6.359375 C 2.8125 -6.359375 3.359375 -6.140625 3.359375 -5.25 C 3.359375 -5.125 3.328125 -4.546875 3.078125 -4.125 C 2.78125 -3.640625 2.4375 -3.609375 2.1875 -3.609375 C 2.109375 -3.59375 1.875 -3.578125 1.8125 -3.578125 C 1.71875 -3.5625 1.65625 -3.546875 1.65625 -3.453125 C 1.65625 -3.34375 1.71875 -3.34375 1.890625 -3.34375 L 2.328125 -3.34375 C 3.140625 -3.34375 3.515625 -2.671875 3.515625 -1.703125 C 3.515625 -0.34375 2.828125 -0.0625 2.390625 -0.0625 C 1.96875 -0.0625 1.21875 -0.234375 0.875 -0.8125 C 1.21875 -0.765625 1.53125 -0.984375 1.53125 -1.359375 C 1.53125 -1.71875 1.265625 -1.921875 0.96875 -1.921875 C 0.734375 -1.921875 0.421875 -1.78125 0.421875 -1.34375 C 0.421875 -0.4375 1.34375 0.21875 2.421875 0.21875 C 3.625 0.21875 4.53125 -0.6875 4.53125 -1.703125 C 4.53125 -2.515625 3.90625 -3.28125 2.875 -3.5 Z M 2.875 -3.5 "/>
</symbol>
<symbol overflow="visible" id="glyph0-4">
<path style="stroke:none;" d="M 4.71875 -6.046875 C 4.8125 -6.15625 4.8125 -6.1875 4.8125 -6.390625 L 2.40625 -6.390625 C 1.1875 -6.390625 1.171875 -6.515625 1.125 -6.703125 L 0.890625 -6.703125 L 0.5625 -4.65625 L 0.796875 -4.65625 C 0.828125 -4.828125 0.921875 -5.453125 1.046875 -5.5625 C 1.125 -5.625 1.890625 -5.625 2.03125 -5.625 L 4.078125 -5.625 C 3.96875 -5.46875 3.1875 -4.390625 2.96875 -4.0625 C 2.078125 -2.71875 1.75 -1.34375 1.75 -0.328125 C 1.75 -0.234375 1.75 0.21875 2.203125 0.21875 C 2.65625 0.21875 2.65625 -0.234375 2.65625 -0.328125 L 2.65625 -0.828125 C 2.65625 -1.375 2.6875 -1.921875 2.765625 -2.453125 C 2.8125 -2.6875 2.953125 -3.546875 3.390625 -4.15625 Z M 4.71875 -6.046875 "/>
</symbol>
<symbol overflow="visible" id="glyph0-5">
<path style="stroke:none;" d="M 2.921875 -6.34375 C 2.921875 -6.59375 2.921875 -6.609375 2.6875 -6.609375 C 2.078125 -5.96875 1.203125 -5.96875 0.890625 -5.96875 L 0.890625 -5.671875 C 1.078125 -5.671875 1.671875 -5.671875 2.1875 -5.921875 L 2.1875 -0.78125 C 2.1875 -0.421875 2.15625 -0.3125 1.265625 -0.3125 L 0.9375 -0.3125 L 0.9375 0 C 1.296875 -0.03125 2.15625 -0.03125 2.546875 -0.03125 C 2.953125 -0.03125 3.8125 -0.03125 4.15625 0 L 4.15625 -0.3125 L 3.84375 -0.3125 C 2.953125 -0.3125 2.921875 -0.421875 2.921875 -0.78125 Z M 2.921875 -6.34375 "/>
</symbol>
<symbol overflow="visible" id="glyph0-6">
<path style="stroke:none;" d="M 2.234375 -6 C 2.234375 -6.359375 2.265625 -6.46875 3.046875 -6.46875 L 3.296875 -6.46875 L 3.296875 -6.78125 C 2.953125 -6.75 2.171875 -6.75 1.796875 -6.75 C 1.40625 -6.75 0.625 -6.75 0.28125 -6.78125 L 0.28125 -6.46875 L 0.53125 -6.46875 C 1.3125 -6.46875 1.34375 -6.359375 1.34375 -6 L 1.34375 -0.78125 C 1.34375 -0.421875 1.3125 -0.3125 0.53125 -0.3125 L 0.28125 -0.3125 L 0.28125 0 C 0.625 -0.03125 1.40625 -0.03125 1.78125 -0.03125 C 2.171875 -0.03125 2.953125 -0.03125 3.296875 0 L 3.296875 -0.3125 L 3.046875 -0.3125 C 2.265625 -0.3125 2.234375 -0.421875 2.234375 -0.78125 Z M 2.234375 -6 "/>
</symbol>
<symbol overflow="visible" id="glyph0-7">
<path style="stroke:none;" d="M 6.15625 -5.796875 C 6.296875 -6.171875 6.5625 -6.453125 7.25 -6.46875 L 7.25 -6.78125 C 6.9375 -6.75 6.53125 -6.75 6.28125 -6.75 C 5.984375 -6.75 5.40625 -6.765625 5.15625 -6.78125 L 5.15625 -6.46875 C 5.671875 -6.453125 5.875 -6.203125 5.875 -5.96875 C 5.875 -5.890625 5.84375 -5.828125 5.828125 -5.78125 L 4.015625 -0.984375 L 2.109375 -6 C 2.046875 -6.140625 2.046875 -6.15625 2.046875 -6.1875 C 2.046875 -6.46875 2.625 -6.46875 2.875 -6.46875 L 2.875 -6.78125 C 2.515625 -6.75 1.828125 -6.75 1.453125 -6.75 C 0.96875 -6.75 0.546875 -6.765625 0.1875 -6.78125 L 0.1875 -6.46875 C 0.828125 -6.46875 1.015625 -6.46875 1.15625 -6.09375 L 3.46875 0 C 3.53125 0.1875 3.578125 0.21875 3.703125 0.21875 C 3.875 0.21875 3.90625 0.171875 3.953125 0.03125 Z M 6.15625 -5.796875 "/>
</symbol>
</g>
</defs>
<g id="surface1">
<path style="fill-rule:nonzero;fill:rgb(100%,96.939087%,40.000916%);fill-opacity:1;stroke-width:0.3985;stroke-linecap:butt;stroke-linejoin:round;stroke:rgb(0%,0%,0%);stroke-opacity:1;stroke-miterlimit:10;" d="M -0.00162819 14.172858 L 56.693252 -28.345361 L 56.693252 56.694998 Z M 56.693252 -28.345361 L 56.693252 56.694998 L 141.733611 56.694998 L 141.733611 -28.345361 Z M 56.693252 -28.345361 " transform="matrix(0.99608,0,0,-0.99608,12.021153,69.679805)"/>
<path style=" stroke:none;fill-rule:nonzero;fill:rgb(0%,0%,100%);fill-opacity:1;" d="M 14.007812 55.5625 C 14.007812 54.464844 13.117188 53.578125 12.019531 53.578125 C 10.925781 53.578125 10.035156 54.464844 10.035156 55.5625 C 10.035156 56.65625 10.925781 57.546875 12.019531 57.546875 C 13.117188 57.546875 14.007812 56.65625 14.007812 55.5625 Z M 14.007812 55.5625 "/>
<g style="fill:rgb(0%,0%,100%);fill-opacity:1;">
  <use xlink:href="#glyph0-1" x="3.553474" y="58.759776"/>
</g>
<path style=" stroke:none;fill-rule:nonzero;fill:rgb(0%,0%,100%);fill-opacity:1;" d="M 70.476562 97.914062 C 70.476562 96.820312 69.589844 95.929688 68.492188 95.929688 C 67.394531 95.929688 66.507812 96.820312 66.507812 97.914062 C 66.507812 99.011719 67.394531 99.898438 68.492188 99.898438 C 69.589844 99.898438 70.476562 99.011719 70.476562 97.914062 Z M 70.476562 97.914062 "/>
<g style="fill:rgb(0%,0%,100%);fill-opacity:1;">
  <use xlink:href="#glyph0-2" x="66.010701" y="107.816734"/>
</g>
<path style=" stroke:none;fill-rule:nonzero;fill:rgb(0%,0%,100%);fill-opacity:1;" d="M 70.476562 13.207031 C 70.476562 12.113281 69.589844 11.222656 68.492188 11.222656 C 67.394531 11.222656 66.507812 12.113281 66.507812 13.207031 C 66.507812 14.304688 67.394531 15.191406 68.492188 15.191406 C 69.589844 15.191406 70.476562 14.304688 70.476562 13.207031 Z M 70.476562 13.207031 "/>
<g style="fill:rgb(0%,0%,100%);fill-opacity:1;">
  <use xlink:href="#glyph0-3" x="66.010701" y="9.702819"/>
</g>
<path style=" stroke:none;fill-rule:nonzero;fill:rgb(0%,0%,100%);fill-opacity:1;" d="M 155.183594 13.207031 C 155.183594 12.113281 154.296875 11.222656 153.199219 11.222656 C 152.101562 11.222656 151.214844 12.113281 151.214844 13.207031 C 151.214844 14.304688 152.101562 15.191406 153.199219 15.191406 C 154.296875 15.191406 155.183594 14.304688 155.183594 13.207031 Z M 155.183594 13.207031 "/>
<g style="fill:rgb(0%,0%,100%);fill-opacity:1;">
  <use xlink:href="#glyph0-4" x="150.716378" y="9.702819"/>
</g>
<path style=" stroke:none;fill-rule:nonzero;fill:rgb(0%,0%,100%);fill-opacity:1;" d="M 155.183594 97.914062 C 155.183594 96.820312 154.296875 95.929688 153.199219 95.929688 C 152.101562 95.929688 151.214844 96.820312 151.214844 97.914062 C 151.214844 99.011719 152.101562 99.898438 153.199219 99.898438 C 154.296875 99.898438 155.183594 99.011719 155.183594 97.914062 Z M 155.183594 97.914062 "/>
<g style="fill:rgb(0%,0%,100%);fill-opacity:1;">
  <use xlink:href="#glyph0-5" x="148.236138" y="107.816734"/>
  <use xlink:href="#glyph0-5" x="153.197913" y="107.816734"/>
</g>
<g style="fill:rgb(0%,0%,0%);fill-opacity:1;">
  <use xlink:href="#glyph0-6" x="47.876062" y="58.953016"/>
</g>
<g style="fill:rgb(0%,0%,0%);fill-opacity:1;">
  <use xlink:href="#glyph0-6" x="105.331969" y="58.953016"/>
  <use xlink:href="#glyph0-7" x="108.915363" y="58.953016"/>
</g>
</g>
</svg>
