<?xml version="1.0" encoding="iso-8859-1" standalone="no"?> 
<?xml-stylesheet href="_Wrapper__TIKZ_facegraph_Double6Gon_VertexLabelsOn.css" type="text/css"?> 
<svg xmlns="http://www.w3.org/2000/svg" xmlns:xlink="http://www.w3.org/1999/xlink" width="297.22636pt" height="237.97742pt" viewBox="-6.86595 -5.17773 297.22636 237.97742 "> 
<g transform="translate(0,232.79968 ) scale(1,-1) translate(0,5.17773 )"> 
<g stroke="#000" fill="#000">
 <g stroke-width="0.4">
 <g stroke-width="0.2">
 <g stroke-linejoin="round">
 <g stroke-width="1.2">
 <path d=" M 0.0 227.62195 L 0.0 0.0  " fill="none"/>
 <g stroke-width="0.8">
 <g stroke="#8c8c8c">
 <path d=" M 0.0 227.62195 L 0.0 0.0  " fill="none"/>
 </g>
 </g>
 </g>
 <g transform="translate(0.0,113.81097)">
 <g fill="#000">
 <text style="stroke:none" transform="scale(1,-1) translate(0.0,0)" text-anchor="middle"  font-size="10"> 
<g fill="#000">
 <g stroke="none"> </g> </g>
 </text> 
</g>
 </g>
 </g>
 </g>
 <g stroke-width="0.2">
 <g stroke-linejoin="round">
 <g stroke-width="1.2">
 <path d=" M 0.0 227.62195 L 113.81097 227.62195  " fill="none"/>
 <g stroke-width="0.8">
 <g stroke="#8c8c8c">
 <path d=" M 0.0 227.62195 L 113.81097 227.62195  " fill="none"/>
 </g>
 </g>
 </g>
 <g transform="translate(56.90549,227.62195)">
 <g fill="#000">
 <text style="stroke:none" transform="scale(1,-1) translate(0.0,0)" text-anchor="middle"  font-size="10"> 
<g fill="#000">
 <g stroke="none"> </g> </g>
 </text> 
</g>
 </g>
 </g>
 </g>
 <g stroke-width="0.2">
 <g stroke-linejoin="round">
 <g stroke-width="1.2">
 <path d=" M 113.81097 227.62195 L 227.62195 227.62195  " fill="none"/>
 <g stroke-width="0.8">
 <g stroke="#8c8c8c">
 <path d=" M 113.81097 227.62195 L 227.62195 227.62195  " fill="none"/>
 </g>
 </g>
 </g>
 <g transform="translate(170.71646,227.62195)">
 <g fill="#000">
 <text style="stroke:none" transform="scale(1,-1) translate(0.0,0)" text-anchor="middle"  font-size="10"> 
<g fill="#000">
 <g stroke="none"> </g> </g>
 </text> 
</g>
 </g>
 </g>
 </g>
 <g stroke-width="0.2">
 <g stroke-linejoin="round">
 <g stroke-width="1.2">
 <path d=" M 227.62195 227.62195 L 227.62195 0.0  " fill="none"/>
 <g stroke-width="0.8">
 <g stroke="#8c8c8c">
 <path d=" M 227.62195 227.62195 L 227.62195 0.0  " fill="none"/>
 </g>
 </g>
 </g>
 <g transform="translate(227.62195,113.81097)">
 <g fill="#000">
 <text style="stroke:none" transform="scale(1,-1) translate(0.0,0)" text-anchor="middle"  font-size="10"> 
<g fill="#000">
 <g stroke="none"> </g> </g>
 </text> 
</g>
 </g>
 </g>
 </g>
 <g stroke-width="0.2">
 <g stroke-linejoin="round">
 <g stroke-width="1.2">
 <path d=" M 227.62195 0.0 L 113.81097 0.0  " fill="none"/>
 <g stroke-width="0.8">
 <g stroke="#8c8c8c">
 <path d=" M 227.62195 0.0 L 113.81097 0.0  " fill="none"/>
 </g>
 </g>
 </g>
 <g transform="translate(170.71646,0.0)">
 <g fill="#000">
 <text style="stroke:none" transform="scale(1,-1) translate(0.0,0)" text-anchor="middle"  font-size="10"> 
<g fill="#000">
 <g stroke="none"> </g> </g>
 </text> 
</g>
 </g>
 </g>
 </g>
 <g stroke-width="0.2">
 <g stroke-linejoin="round">
 <g stroke-width="1.2">
 <path d=" M 113.81097 0.0 L 0.0 0.0  " fill="none"/>
 <g stroke-width="0.8">
 <g stroke="#8c8c8c">
 <path d=" M 113.81097 0.0 L 0.0 0.0  " fill="none"/>
 </g>
 </g>
 </g>
 <g transform="translate(56.90549,0.0)">
 <g fill="#000">
 <text style="stroke:none" transform="scale(1,-1) translate(0.0,0)" text-anchor="middle"  font-size="10"> 
<g fill="#000">
 <g stroke="none"> </g> </g>
 </text> 
</g>
 </g>
 </g>
 </g>
 <g stroke-width="0.2">
 <g stroke-linejoin="round">
 <g stroke-width="1.2">
 <path d=" M 0.0 227.62195 L 56.90549 170.71646  " fill="none"/>
 <g stroke-width="0.8">
 <g stroke="#8c8c8c">
 <path d=" M 0.0 227.62195 L 56.90549 170.71646  " fill="none"/>
 </g>
 </g>
 </g>
 <g transform="translate(28.45273,199.16922)">
 <g fill="#000">
 <text style="stroke:none" transform="scale(1,-1) translate(0.0,0)" text-anchor="middle"  font-size="10"> 
<g fill="#000">
 <g stroke="none"> </g> </g>
 </text> 
</g>
 </g>
 </g>
 </g>
 <g stroke-width="0.2">
 <g stroke-linejoin="round">
 <g stroke-width="1.2">
 <path d=" M 0.0 0.0 L 56.90549 56.90549  " fill="none"/>
 <g stroke-width="0.8">
 <g stroke="#8c8c8c">
 <path d=" M 0.0 0.0 L 56.90549 56.90549  " fill="none"/>
 </g>
 </g>
 </g>
 <g transform="translate(28.45273,28.45273)">
 <g fill="#000">
 <text style="stroke:none" transform="scale(1,-1) translate(0.0,0)" text-anchor="middle"  font-size="10"> 
<g fill="#000">
 <g stroke="none"> </g> </g>
 </text> 
</g>
 </g>
 </g>
 </g>
 <g stroke-width="0.2">
 <g stroke-linejoin="round">
 <g stroke-width="1.2">
 <path d=" M 56.90549 170.71646 L 56.90549 56.90549  " fill="none"/>
 <g stroke-width="0.8">
 <g stroke="#8c8c8c">
 <path d=" M 56.90549 170.71646 L 56.90549 56.90549  " fill="none"/>
 </g>
 </g>
 </g>
 <g transform="translate(56.90549,113.81097)">
 <g fill="#000">
 <text style="stroke:none" transform="scale(1,-1) translate(0.0,0)" text-anchor="middle"  font-size="10"> 
<g fill="#000">
 <g stroke="none"> </g> </g>
 </text> 
</g>
 </g>
 </g>
 </g>
 <g stroke-width="0.2">
 <g stroke-linejoin="round">
 <g stroke-width="1.2">
 <path d=" M 113.81097 227.62195 L 113.81097 170.71646  " fill="none"/>
 <g stroke-width="0.8">
 <g stroke="#8c8c8c">
 <path d=" M 113.81097 227.62195 L 113.81097 170.71646  " fill="none"/>
 </g>
 </g>
 </g>
 <g transform="translate(113.81097,199.16922)">
 <g fill="#000">
 <text style="stroke:none" transform="scale(1,-1) translate(0.0,0)" text-anchor="middle"  font-size="10"> 
<g fill="#000">
 <g stroke="none"> </g> </g>
 </text> 
</g>
 </g>
 </g>
 </g>
 <g stroke-width="0.2">
 <g stroke-linejoin="round">
 <g stroke-width="1.2">
 <path d=" M 56.90549 170.71646 L 113.81097 170.71646  " fill="none"/>
 <g stroke-width="0.8">
 <g stroke="#8c8c8c">
 <path d=" M 56.90549 170.71646 L 113.81097 170.71646  " fill="none"/>
 </g>
 </g>
 </g>
 <g transform="translate(85.35822,170.71646)">
 <g fill="#000">
 <text style="stroke:none" transform="scale(1,-1) translate(0.0,0)" text-anchor="middle"  font-size="10"> 
<g fill="#000">
 <g stroke="none"> </g> </g>
 </text> 
</g>
 </g>
 </g>
 </g>
 <g stroke-width="0.2">
 <g stroke-linejoin="round">
 <g stroke-width="1.2">
 <path d=" M 227.62195 227.62195 L 170.71646 170.71646  " fill="none"/>
 <g stroke-width="0.8">
 <g stroke="#8c8c8c">
 <path d=" M 227.62195 227.62195 L 170.71646 170.71646  " fill="none"/>
 </g>
 </g>
 </g>
 <g transform="translate(199.16922,199.16922)">
 <g fill="#000">
 <text style="stroke:none" transform="scale(1,-1) translate(0.0,0)" text-anchor="middle"  font-size="10"> 
<g fill="#000">
 <g stroke="none"> </g> </g>
 </text> 
</g>
 </g>
 </g>
 </g>
 <g stroke-width="0.2">
 <g stroke-linejoin="round">
 <g stroke-width="1.2">
 <path d=" M 113.81097 170.71646 L 170.71646 170.71646  " fill="none"/>
 <g stroke-width="0.8">
 <g stroke="#8c8c8c">
 <path d=" M 113.81097 170.71646 L 170.71646 170.71646  " fill="none"/>
 </g>
 </g>
 </g>
 <g transform="translate(142.2637,170.71646)">
 <g fill="#000">
 <text style="stroke:none" transform="scale(1,-1) translate(0.0,0)" text-anchor="middle"  font-size="10"> 
<g fill="#000">
 <g stroke="none"> </g> </g>
 </text> 
</g>
 </g>
 </g>
 </g>
 <g stroke-width="0.2">
 <g stroke-linejoin="round">
 <g stroke-width="1.2">
 <path d=" M 227.62195 0.0 L 170.71646 56.90549  " fill="none"/>
 <g stroke-width="0.8">
 <g stroke="#8c8c8c">
 <path d=" M 227.62195 0.0 L 170.71646 56.90549  " fill="none"/>
 </g>
 </g>
 </g>
 <g transform="translate(199.16922,28.45273)">
 <g fill="#000">
 <text style="stroke:none" transform="scale(1,-1) translate(0.0,0)" text-anchor="middle"  font-size="10"> 
<g fill="#000">
 <g stroke="none"> </g> </g>
 </text> 
</g>
 </g>
 </g>
 </g>
 <g stroke-width="0.2">
 <g stroke-linejoin="round">
 <g stroke-width="1.2">
 <path d=" M 170.71646 170.71646 L 170.71646 56.90549  " fill="none"/>
 <g stroke-width="0.8">
 <g stroke="#8c8c8c">
 <path d=" M 170.71646 170.71646 L 170.71646 56.90549  " fill="none"/>
 </g>
 </g>
 </g>
 <g transform="translate(170.71646,113.81097)">
 <g fill="#000">
 <text style="stroke:none" transform="scale(1,-1) translate(0.0,0)" text-anchor="middle"  font-size="10"> 
<g fill="#000">
 <g stroke="none"> </g> </g>
 </text> 
</g>
 </g>
 </g>
 </g>
 <g stroke-width="0.2">
 <g stroke-linejoin="round">
 <g stroke-width="1.2">
 <path d=" M 113.81097 0.0 L 113.81097 56.90549  " fill="none"/>
 <g stroke-width="0.8">
 <g stroke="#8c8c8c">
 <path d=" M 113.81097 0.0 L 113.81097 56.90549  " fill="none"/>
 </g>
 </g>
 </g>
 <g transform="translate(113.81097,28.45273)">
 <g fill="#000">
 <text style="stroke:none" transform="scale(1,-1) translate(0.0,0)" text-anchor="middle"  font-size="10"> 
<g fill="#000">
 <g stroke="none"> </g> </g>
 </text> 
</g>
 </g>
 </g>
 </g>
 <g stroke-width="0.2">
 <g stroke-linejoin="round">
 <g stroke-width="1.2">
 <path d=" M 170.71646 56.90549 L 113.81097 56.90549  " fill="none"/>
 <g stroke-width="0.8">
 <g stroke="#8c8c8c">
 <path d=" M 170.71646 56.90549 L 113.81097 56.90549  " fill="none"/>
 </g>
 </g>
 </g>
 <g transform="translate(142.26373,56.90549)">
 <g fill="#000">
 <text style="stroke:none" transform="scale(1,-1) translate(0.0,0)" text-anchor="middle"  font-size="10"> 
<g fill="#000">
 <g stroke="none"> </g> </g>
 </text> 
</g>
 </g>
 </g>
 </g>
 <g stroke-width="0.2">
 <g stroke-linejoin="round">
 <g stroke-width="1.2">
 <path d=" M 113.81097 56.90549 L 56.90549 56.90549  " fill="none"/>
 <g stroke-width="0.8">
 <g stroke="#8c8c8c">
 <path d=" M 113.81097 56.90549 L 56.90549 56.90549  " fill="none"/>
 </g>
 </g>
 </g>
 <g transform="translate(85.35825,56.90549)">
 <g fill="#000">
 <text style="stroke:none" transform="scale(1,-1) translate(0.0,0)" text-anchor="middle"  font-size="10"> 
<g fill="#000">
 <g stroke="none"> </g> </g>
 </text> 
</g>
 </g>
 </g>
 </g>
 <g fill="#e6e6e6">
 <g fill="#e6e6e6">
 <path d=" M 5.17773 227.62195 C 5.17773 230.48157 2.85962 232.79968 0.0 232.79968 C -2.85962 232.79968 -5.17773 230.48157 -5.17773 227.62195 C -5.17773 224.76233 -2.85962 222.44421 0.0 222.44421 C 2.85962 222.44421 5.17773 224.76233 5.17773 227.62195 Z M 0.0 227.62195  " stroke="none"/>
 </g>
 <g transform="translate(-1.70142,226.01085)">
 <g fill="#000">
 <text style="stroke:none" transform="scale(1,-1) translate(1.70142,0)" text-anchor="middle"  font-size="10"> 
<g fill="#000">
 <g stroke="none"> <tspan font-family="cmr" font-size="5">1</tspan></g> </g>
 </text> 
</g>
 </g>
 </g>
 <g transform="translate(-3.53297,227.62195)">
 <g fill="#000">
 <text style="stroke:none" transform="scale(1,-1) translate(0.0,0)" text-anchor="middle"  font-size="10"> 
<g fill="#000">
 <g stroke="none"> </g> </g>
 </text> 
</g>
 </g>
 <g fill="#e6e6e6">
 <g fill="#e6e6e6">
 <path d=" M 118.98871 227.62195 C 118.98871 230.48157 116.6706 232.79968 113.81097 232.79968 C 110.95135 232.79968 108.63324 230.48157 108.63324 227.62195 C 108.63324 224.76233 110.95135 222.44421 113.81097 222.44421 C 116.6706 222.44421 118.98871 224.76233 118.98871 227.62195 Z M 113.81097 227.62195  " stroke="none"/>
 </g>
 <g transform="translate(112.10956,226.01085)">
 <g fill="#000">
 <text style="stroke:none" transform="scale(1,-1) translate(1.70142,0)" text-anchor="middle"  font-size="10"> 
<g fill="#000">
 <g stroke="none"> <tspan font-family="cmr" font-size="5">2</tspan></g> </g>
 </text> 
</g>
 </g>
 </g>
 <g transform="translate(110.278,227.62195)">
 <g fill="#000">
 <text style="stroke:none" transform="scale(1,-1) translate(0.0,0)" text-anchor="middle"  font-size="10"> 
<g fill="#000">
 <g stroke="none"> </g> </g>
 </text> 
</g>
 </g>
 <g fill="#e6e6e6">
 <g fill="#e6e6e6">
 <path d=" M 232.79968 227.62195 C 232.79968 230.48157 230.48157 232.79968 227.62195 232.79968 C 224.76233 232.79968 222.44421 230.48157 222.44421 227.62195 C 222.44421 224.76233 224.76233 222.44421 227.62195 222.44421 C 230.48157 222.44421 232.79968 224.76233 232.79968 227.62195 Z M 227.62195 227.62195  " stroke="none"/>
 </g>
 <g transform="translate(225.92053,226.01085)">
 <g fill="#000">
 <text style="stroke:none" transform="scale(1,-1) translate(1.70142,0)" text-anchor="middle"  font-size="10"> 
<g fill="#000">
 <g stroke="none"> <tspan font-family="cmr" font-size="5">3</tspan></g> </g>
 </text> 
</g>
 </g>
 </g>
 <g transform="translate(224.08897,227.62195)">
 <g fill="#000">
 <text style="stroke:none" transform="scale(1,-1) translate(0.0,0)" text-anchor="middle"  font-size="10"> 
<g fill="#000">
 <g stroke="none"> </g> </g>
 </text> 
</g>
 </g>
 <g fill="#e6e6e6">
 <g fill="#e6e6e6">
 <path d=" M 232.79968 0.0 C 232.79968 2.85962 230.48157 5.17773 227.62195 5.17773 C 224.76233 5.17773 222.44421 2.85962 222.44421 0.0 C 222.44421 -2.85962 224.76233 -5.17773 227.62195 -5.17773 C 230.48157 -5.17773 232.79968 -2.85962 232.79968 0.0 Z M 227.62195 0.0  " stroke="none"/>
 </g>
 <g transform="translate(225.92053,-1.6111)">
 <g fill="#000">
 <text style="stroke:none" transform="scale(1,-1) translate(1.70142,0)" text-anchor="middle"  font-size="10"> 
<g fill="#000">
 <g stroke="none"> <tspan font-family="cmr" font-size="5">4</tspan></g> </g>
 </text> 
</g>
 </g>
 </g>
 <g transform="translate(224.08897,0.0)">
 <g fill="#000">
 <text style="stroke:none" transform="scale(1,-1) translate(0.0,0)" text-anchor="middle"  font-size="10"> 
<g fill="#000">
 <g stroke="none"> </g> </g>
 </text> 
</g>
 </g>
 <g fill="#e6e6e6">
 <g fill="#e6e6e6">
 <path d=" M 118.98871 0.0 C 118.98871 2.85962 116.6706 5.17773 113.81097 5.17773 C 110.95135 5.17773 108.63324 2.85962 108.63324 0.0 C 108.63324 -2.85962 110.95135 -5.17773 113.81097 -5.17773 C 116.6706 -5.17773 118.98871 -2.85962 118.98871 0.0 Z M 113.81097 0.0  " stroke="none"/>
 </g>
 <g transform="translate(112.10956,-1.6111)">
 <g fill="#000">
 <text style="stroke:none" transform="scale(1,-1) translate(1.70142,0)" text-anchor="middle"  font-size="10"> 
<g fill="#000">
 <g stroke="none"> <tspan font-family="cmr" font-size="5">5</tspan></g> </g>
 </text> 
</g>
 </g>
 </g>
 <g transform="translate(110.278,0.0)">
 <g fill="#000">
 <text style="stroke:none" transform="scale(1,-1) translate(0.0,0)" text-anchor="middle"  font-size="10"> 
<g fill="#000">
 <g stroke="none"> </g> </g>
 </text> 
</g>
 </g>
 <g fill="#e6e6e6">
 <g fill="#e6e6e6">
 <path d=" M 5.17773 0.0 C 5.17773 2.85962 2.85962 5.17773 0.0 5.17773 C -2.85962 5.17773 -5.17773 2.85962 -5.17773 0.0 C -5.17773 -2.85962 -2.85962 -5.17773 0.0 -5.17773 C 2.85962 -5.17773 5.17773 -2.85962 5.17773 0.0 Z M 0.0 0.0  " stroke="none"/>
 </g>
 <g transform="translate(-1.70142,-1.6111)">
 <g fill="#000">
 <text style="stroke:none" transform="scale(1,-1) translate(1.70142,0)" text-anchor="middle"  font-size="10"> 
<g fill="#000">
 <g stroke="none"> <tspan font-family="cmr" font-size="5">6</tspan></g> </g>
 </text> 
</g>
 </g>
 </g>
 <g transform="translate(-3.53297,0.0)">
 <g fill="#000">
 <text style="stroke:none" transform="scale(1,-1) translate(0.0,0)" text-anchor="middle"  font-size="10"> 
<g fill="#000">
 <g stroke="none"> </g> </g>
 </text> 
</g>
 </g>
 <g fill="#e6e6e6">
 <g fill="#e6e6e6">
 <path d=" M 62.08322 170.71646 C 62.08322 173.57608 59.7651 175.8942 56.90549 175.8942 C 54.04587 175.8942 51.72775 173.57608 51.72775 170.71646 C 51.72775 167.85684 54.04587 165.53873 56.90549 165.53873 C 59.7651 165.53873 62.08322 167.85684 62.08322 170.71646 Z M 56.90549 170.71646  " stroke="none"/>
 </g>
 <g transform="translate(55.20407,169.10536)">
 <g fill="#000">
 <text style="stroke:none" transform="scale(1,-1) translate(1.70142,0)" text-anchor="middle"  font-size="10"> 
<g fill="#000">
 <g stroke="none"> <tspan font-family="cmr" font-size="5">7</tspan></g> </g>
 </text> 
</g>
 </g>
 </g>
 <g transform="translate(53.37251,170.71646)">
 <g fill="#000">
 <text style="stroke:none" transform="scale(1,-1) translate(0.0,0)" text-anchor="middle"  font-size="10"> 
<g fill="#000">
 <g stroke="none"> </g> </g>
 </text> 
</g>
 </g>
 <g fill="#e6e6e6">
 <g fill="#e6e6e6">
 <path d=" M 118.98871 170.71646 C 118.98871 173.57608 116.6706 175.8942 113.81097 175.8942 C 110.95135 175.8942 108.63324 173.57608 108.63324 170.71646 C 108.63324 167.85684 110.95135 165.53873 113.81097 165.53873 C 116.6706 165.53873 118.98871 167.85684 118.98871 170.71646 Z M 113.81097 170.71646  " stroke="none"/>
 </g>
 <g transform="translate(112.10956,169.10536)">
 <g fill="#000">
 <text style="stroke:none" transform="scale(1,-1) translate(1.70142,0)" text-anchor="middle"  font-size="10"> 
<g fill="#000">
 <g stroke="none"> <tspan font-family="cmr" font-size="5">8</tspan></g> </g>
 </text> 
</g>
 </g>
 </g>
 <g transform="translate(110.278,170.71646)">
 <g fill="#000">
 <text style="stroke:none" transform="scale(1,-1) translate(0.0,0)" text-anchor="middle"  font-size="10"> 
<g fill="#000">
 <g stroke="none"> </g> </g>
 </text> 
</g>
 </g>
 <g fill="#e6e6e6">
 <g fill="#e6e6e6">
 <path d=" M 175.8942 170.71646 C 175.8942 173.57608 173.57608 175.8942 170.71646 175.8942 C 167.85684 175.8942 165.53873 173.57608 165.53873 170.71646 C 165.53873 167.85684 167.85684 165.53873 170.71646 165.53873 C 173.57608 165.53873 175.8942 167.85684 175.8942 170.71646 Z M 170.71646 170.71646  " stroke="none"/>
 </g>
 <g transform="translate(169.01505,169.10536)">
 <g fill="#000">
 <text style="stroke:none" transform="scale(1,-1) translate(1.70142,0)" text-anchor="middle"  font-size="10"> 
<g fill="#000">
 <g stroke="none"> <tspan font-family="cmr" font-size="5">9</tspan></g> </g>
 </text> 
</g>
 </g>
 </g>
 <g transform="translate(167.18349,170.71646)">
 <g fill="#000">
 <text style="stroke:none" transform="scale(1,-1) translate(0.0,0)" text-anchor="middle"  font-size="10"> 
<g fill="#000">
 <g stroke="none"> </g> </g>
 </text> 
</g>
 </g>
 <g fill="#e6e6e6">
 <g fill="#e6e6e6">
 <path d=" M 177.20987 56.90549 C 177.20987 60.49173 174.3027 63.3989 170.71646 63.3989 C 167.13022 63.3989 164.22305 60.49173 164.22305 56.90549 C 164.22305 53.31924 167.13022 50.41208 170.71646 50.41208 C 174.3027 50.41208 177.20987 53.31924 177.20987 56.90549 Z M 170.71646 56.90549  " stroke="none"/>
 </g>
 <g transform="translate(167.31363,55.29439)">
 <g fill="#000">
 <text style="stroke:none" transform="scale(1,-1) translate(3.40283,0)" text-anchor="middle"  font-size="10"> 
<g fill="#000">
 <g stroke="none"> <tspan font-family="cmr" font-size="5">10</tspan></g> </g>
 </text> 
</g>
 </g>
 </g>
 <g transform="translate(167.18349,56.90549)">
 <g fill="#000">
 <text style="stroke:none" transform="scale(1,-1) translate(0.0,0)" text-anchor="middle"  font-size="10"> 
<g fill="#000">
 <g stroke="none"> </g> </g>
 </text> 
</g>
 </g>
 <g fill="#e6e6e6">
 <g fill="#e6e6e6">
 <path d=" M 120.30438 56.90549 C 120.30438 60.49173 117.39722 63.3989 113.81097 63.3989 C 110.22473 63.3989 107.31757 60.49173 107.31757 56.90549 C 107.31757 53.31924 110.22473 50.41208 113.81097 50.41208 C 117.39722 50.41208 120.30438 53.31924 120.30438 56.90549 Z M 113.81097 56.90549  " stroke="none"/>
 </g>
 <g transform="translate(110.40814,55.29439)">
 <g fill="#000">
 <text style="stroke:none" transform="scale(1,-1) translate(3.40283,0)" text-anchor="middle"  font-size="10"> 
<g fill="#000">
 <g stroke="none"> <tspan font-family="cmr" font-size="5">11</tspan></g> </g>
 </text> 
</g>
 </g>
 </g>
 <g transform="translate(110.278,56.90549)">
 <g fill="#000">
 <text style="stroke:none" transform="scale(1,-1) translate(0.0,0)" text-anchor="middle"  font-size="10"> 
<g fill="#000">
 <g stroke="none"> </g> </g>
 </text> 
</g>
 </g>
 <g fill="#e6e6e6">
 <g fill="#e6e6e6">
 <path d=" M 63.3989 56.90549 C 63.3989 60.49173 60.49173 63.3989 56.90549 63.3989 C 53.31924 63.3989 50.41208 60.49173 50.41208 56.90549 C 50.41208 53.31924 53.31924 50.41208 56.90549 50.41208 C 60.49173 50.41208 63.3989 53.31924 63.3989 56.90549 Z M 56.90549 56.90549  " stroke="none"/>
 </g>
 <g transform="translate(53.50266,55.29439)">
 <g fill="#000">
 <text style="stroke:none" transform="scale(1,-1) translate(3.40283,0)" text-anchor="middle"  font-size="10"> 
<g fill="#000">
 <g stroke="none"> <tspan font-family="cmr" font-size="5">12</tspan></g> </g>
 </text> 
</g>
 </g>
 </g>
 <g transform="translate(53.37251,56.90549)">
 <g fill="#000">
 <text style="stroke:none" transform="scale(1,-1) translate(0.0,0)" text-anchor="middle"  font-size="10"> 
<g fill="#000">
 <g stroke="none"> </g> </g>
 </text> 
</g>
 </g>
 <g transform="translate(282.02744,110.58876)">
 <g fill="#000">
 <text style="stroke:none" transform="scale(1,-1) translate(2.5,0)" text-anchor="middle"  font-size="10"> 
<g fill="#000">
 <g stroke="none"> 1</g> </g>
 </text> 
</g>
 </g>
 <g transform="translate(68.63184,195.94698)">
 <g fill="#000">
 <text style="stroke:none" transform="scale(1,-1) translate(2.5,0)" text-anchor="middle"  font-size="10"> 
<g fill="#000">
 <g stroke="none"> 3</g> </g>
 </text> 
</g>
 </g>
 <g transform="translate(25.95273,110.58876)">
 <g fill="#000">
 <text style="stroke:none" transform="scale(1,-1) translate(2.5,0)" text-anchor="middle"  font-size="10"> 
<g fill="#000">
 <g stroke="none"> 2</g> </g>
 </text> 
</g>
 </g>
 <g transform="translate(153.99008,195.94698)">
 <g fill="#000">
 <text style="stroke:none" transform="scale(1,-1) translate(2.5,0)" text-anchor="middle"  font-size="10"> 
<g fill="#000">
 <g stroke="none"> 4</g> </g>
 </text> 
</g>
 </g>
 <g transform="translate(196.66919,110.58876)">
 <g fill="#000">
 <text style="stroke:none" transform="scale(1,-1) translate(2.5,0)" text-anchor="middle"  font-size="10"> 
<g fill="#000">
 <g stroke="none"> 5</g> </g>
 </text> 
</g>
 </g>
 <g transform="translate(153.99008,25.23051)">
 <g fill="#000">
 <text style="stroke:none" transform="scale(1,-1) translate(2.5,0)" text-anchor="middle"  font-size="10"> 
<g fill="#000">
 <g stroke="none"> 6</g> </g>
 </text> 
</g>
 </g>
 <g transform="translate(68.63184,25.23051)">
 <g fill="#000">
 <text style="stroke:none" transform="scale(1,-1) translate(2.5,0)" text-anchor="middle"  font-size="10"> 
<g fill="#000">
 <g stroke="none"> 7</g> </g>
 </text> 
</g>
 </g>
 <g transform="translate(111.31097,110.58876)">
 <g fill="#000">
 <text style="stroke:none" transform="scale(1,-1) translate(2.5,0)" text-anchor="middle"  font-size="10"> 
<g fill="#000">
 <g stroke="none"> 8</g> </g>
 </text> 
</g>
 </g>
 </g>
 </g>
                                                          </g> 
</svg> 
