<?xml version="1.0" encoding="iso-8859-1" standalone="no"?> 
<?xml-stylesheet href="_Wrapper_paths-22.css" type="text/css"?> 
<svg xmlns="http://www.w3.org/2000/svg" xmlns:xlink="http://www.w3.org/1999/xlink" width="184.44836pt" height="155.99562pt" viewBox="-92.22418 -120.67693 184.44836 155.99562 "> 
<g transform="translate(0,35.3187 ) scale(1,-1) translate(0,120.67693 )"> 
                  <g stroke="#000" fill="#000">
 <g stroke-width="0.4">
 <g fill="#ff6">
 <g stroke-linejoin="round">
 <g stroke="#000">
 <path d=" M -85.35823 0.0 L 0.0 28.45274 L 85.35823 0.0 L 0.0 -28.45274 Z M -85.35823 0.0 L 0.0 -28.45274 L 0.0 -113.81097 Z M 0.0 -28.45274 L 0.0 -113.81097 L 85.35823 0.0 Z  " />
 <g transform="translate(-42.67912,14.22636)">
 <g fill="#000">
 <text style="stroke:none" transform="scale(1,-1) translate(0.0,0)" text-anchor="middle"  font-size="10"> 
<g fill="#000">
 <g stroke="none"> </g> </g>
 </text> 
</g>
 </g>
 <g transform="translate(42.67911,14.22638)">
 <g fill="#000">
 <text style="stroke:none" transform="scale(1,-1) translate(0.0,0)" text-anchor="middle"  font-size="10"> 
<g fill="#000">
 <g stroke="none"> </g> </g>
 </text> 
</g>
 </g>
 <g transform="translate(-42.67912,-14.22636)">
 <g fill="#000">
 <text style="stroke:none" transform="scale(1,-1) translate(0.0,0)" text-anchor="middle"  font-size="10"> 
<g fill="#000">
 <g stroke="none"> </g> </g>
 </text> 
</g>
 </g>
 <g transform="translate(-42.67911,-56.90549)">
 <g fill="#000">
 <text style="stroke:none" transform="scale(1,-1) translate(0.0,0)" text-anchor="middle"  font-size="10"> 
<g fill="#000">
 <g stroke="none"> </g> </g>
 </text> 
</g>
 </g>
 <g transform="translate(0.0,-71.13185)">
 <g fill="#000">
 <text style="stroke:none" transform="scale(1,-1) translate(0.0,0)" text-anchor="middle"  font-size="10"> 
<g fill="#000">
 <g stroke="none"> </g> </g>
 </text> 
</g>
 </g>
 <g transform="translate(42.67911,-56.90549)">
 <g fill="#000">
 <text style="stroke:none" transform="scale(1,-1) translate(0.0,0)" text-anchor="middle"  font-size="10"> 
<g fill="#000">
 <g stroke="none"> </g> </g>
 </text> 
</g>
 </g>
 <g transform="translate(42.67912,-14.22636)">
 <g fill="#000">
 <text style="stroke:none" transform="scale(1,-1) translate(0.0,0)" text-anchor="middle"  font-size="10"> 
<g fill="#000">
 <g stroke="none"> </g> </g>
 </text> 
</g>
 </g>
 </g>
 </g>
 </g>
 <g fill="#000">
 <text style="stroke:none" transform="scale(1,-1) translate(0.0,0)" text-anchor="middle"  font-size="10"> 
<g fill="#000">
 <g stroke="none"> </g> </g>
 </text> 
</g>
 <g transform="translate(-28.4523,-47.4205)">
 <g fill="#000">
 <text style="stroke:none" transform="scale(1,-1) translate(0.0,0)" text-anchor="middle"  font-size="10"> 
<g fill="#000">
 <g stroke="none"> </g> </g>
 </text> 
</g>
 </g>
 <g transform="translate(28.4523,-47.4205)">
 <g fill="#000">
 <text style="stroke:none" transform="scale(1,-1) translate(0.0,0)" text-anchor="middle"  font-size="10"> 
<g fill="#000">
 <g stroke="none"> </g> </g>
 </text> 
</g>
 </g>
 <g fill="#808080">
 <g fill="#808080">
 <path d=" M -84.35823 0.0 C -84.35823 0.55229 -84.80594 1.0 -85.35823 1.0 C -85.91052 1.0 -86.35823 0.55229 -86.35823 0.0 C -86.35823 -0.55229 -85.91052 -1.0 -85.35823 -1.0 C -84.80594 -1.0 -84.35823 -0.55229 -84.35823 0.0 Z M -85.35823 0.0  " stroke="none"/>
 </g>
 <g transform="translate(-85.35823,0.0)">
 <g fill="#000">
 <text style="stroke:none" transform="scale(1,-1) translate(0.0,0)" text-anchor="middle"  font-size="10"> 
<g fill="#000">
 <g stroke="none"> </g> </g>
 </text> 
</g>
 </g>
 </g>
 <g transform="translate(-88.8912,0.0)">
 <g fill="#000">
 <text style="stroke:none" transform="scale(1,-1) translate(0.0,0)" text-anchor="middle"  font-size="10"> 
<g fill="#000">
 <g stroke="none"> </g> </g>
 </text> 
</g>
 </g>
 <g fill="#808080">
 <g fill="#808080">
 <path d=" M 1.0 28.45274 C 1.0 29.00504 0.55229 29.45274 0.0 29.45274 C -0.55229 29.45274 -1.0 29.00504 -1.0 28.45274 C -1.0 27.90045 -0.55229 27.45274 0.0 27.45274 C 0.55229 27.45274 1.0 27.90045 1.0 28.45274 Z M 0.0 28.45274  " stroke="none"/>
 </g>
 <g transform="translate(0.0,28.45274)">
 <g fill="#000">
 <text style="stroke:none" transform="scale(1,-1) translate(0.0,0)" text-anchor="middle"  font-size="10"> 
<g fill="#000">
 <g stroke="none"> </g> </g>
 </text> 
</g>
 </g>
 </g>
 <g transform="translate(0.0,31.98572)">
 <g fill="#000">
 <text style="stroke:none" transform="scale(1,-1) translate(0.0,0)" text-anchor="middle"  font-size="10"> 
<g fill="#000">
 <g stroke="none"> </g> </g>
 </text> 
</g>
 </g>
 <g fill="#808080">
 <g fill="#808080">
 <path d=" M 86.35823 0.0 C 86.35823 0.55229 85.91052 1.0 85.35823 1.0 C 84.80594 1.0 84.35823 0.55229 84.35823 0.0 C 84.35823 -0.55229 84.80594 -1.0 85.35823 -1.0 C 85.91052 -1.0 86.35823 -0.55229 86.35823 0.0 Z M 85.35823 0.0  " stroke="none"/>
 </g>
 <g transform="translate(85.35823,0.0)">
 <g fill="#000">
 <text style="stroke:none" transform="scale(1,-1) translate(0.0,0)" text-anchor="middle"  font-size="10"> 
<g fill="#000">
 <g stroke="none"> </g> </g>
 </text> 
</g>
 </g>
 </g>
 <g transform="translate(88.8912,0.0)">
 <g fill="#000">
 <text style="stroke:none" transform="scale(1,-1) translate(0.0,0)" text-anchor="middle"  font-size="10"> 
<g fill="#000">
 <g stroke="none"> </g> </g>
 </text> 
</g>
 </g>
 <g fill="#808080">
 <g fill="#808080">
 <path d=" M 1.0 -28.45274 C 1.0 -27.90045 0.55229 -27.45274 0.0 -27.45274 C -0.55229 -27.45274 -1.0 -27.90045 -1.0 -28.45274 C -1.0 -29.00504 -0.55229 -29.45274 0.0 -29.45274 C 0.55229 -29.45274 1.0 -29.00504 1.0 -28.45274 Z M 0.0 -28.45274  " stroke="none"/>
 </g>
 <g transform="translate(0.0,-28.45274)">
 <g fill="#000">
 <text style="stroke:none" transform="scale(1,-1) translate(0.0,0)" text-anchor="middle"  font-size="10"> 
<g fill="#000">
 <g stroke="none"> </g> </g>
 </text> 
</g>
 </g>
 </g>
 <g transform="translate(0.0,-24.91977)">
 <g fill="#000">
 <text style="stroke:none" transform="scale(1,-1) translate(0.0,0)" text-anchor="middle"  font-size="10"> 
<g fill="#000">
 <g stroke="none"> </g> </g>
 </text> 
</g>
 </g>
 <g fill="#808080">
 <g fill="#808080">
 <path d=" M 1.0 -113.81097 C 1.0 -113.25868 0.55229 -112.81097 0.0 -112.81097 C -0.55229 -112.81097 -1.0 -113.25868 -1.0 -113.81097 C -1.0 -114.36327 -0.55229 -114.81097 0.0 -114.81097 C 0.55229 -114.81097 1.0 -114.36327 1.0 -113.81097 Z M 0.0 -113.81097  " stroke="none"/>
 </g>
 <g transform="translate(0.0,-113.81097)">
 <g fill="#000">
 <text style="stroke:none" transform="scale(1,-1) translate(0.0,0)" text-anchor="middle"  font-size="10"> 
<g fill="#000">
 <g stroke="none"> </g> </g>
 </text> 
</g>
 </g>
 </g>
 <g transform="translate(0.0,-117.34395)">
 <g fill="#000">
 <text style="stroke:none" transform="scale(1,-1) translate(0.0,0)" text-anchor="middle"  font-size="10"> 
<g fill="#000">
 <g stroke="none"> </g> </g>
 </text> 
</g>
 </g>
 <g stroke-width="0.8">
 <path d=" M -61.39664 -2.81075 L -7.75876 -20.69005  " fill="none"/>
 <g transform="matrix(-0.94864,0.31621,-0.31621,-0.94864,-61.39662,-2.81075)">
 <g stroke-width="0.64">
 <g stroke-dasharray="none" stroke-dashoffset="0.0">
 <g stroke-linecap="round">
 <g stroke-linejoin="round">
 <path d=" M -1.55997 2.07996 C -1.42996 1.29997 0.0 0.12999 0.38998 0.0 C 0.0 -0.12999 -1.42996 -1.29997 -1.55997 -2.07996  " fill="none"/>
 </g>
 </g>
 </g>
 </g>
  </g>
 </g>
 <g stroke-width="0.8">
 <path d=" M 8.4323 -20.46555 L 62.07018 -2.58624  " fill="none"/>
 <g transform="matrix(-0.94864,-0.31621,0.31621,-0.94864,8.43231,-20.46555)">
 <g stroke-width="0.64">
 <g stroke-dasharray="none" stroke-dashoffset="0.0">
 <g stroke-linecap="round">
 <g stroke-linejoin="round">
 <path d=" M -1.55997 2.07996 C -1.42996 1.29997 0.0 0.12999 0.38998 0.0 C 0.0 -0.12999 -1.42996 -1.29997 -1.55997 -2.07996  " fill="none"/>
 </g>
 </g>
 </g>
 </g>
  </g>
 </g>
 <g stroke-width="0.8">
 <path d=" M 61.39664 2.81075 L 7.75876 20.69005  " fill="none"/>
 <g transform="matrix(0.94864,-0.31621,0.31621,0.94864,61.39662,2.81075)">
 <g stroke-width="0.64">
 <g stroke-dasharray="none" stroke-dashoffset="0.0">
 <g stroke-linecap="round">
 <g stroke-linejoin="round">
 <path d=" M -1.55997 2.07996 C -1.42996 1.29997 0.0 0.12999 0.38998 0.0 C 0.0 -0.12999 -1.42996 -1.29997 -1.55997 -2.07996  " fill="none"/>
 </g>
 </g>
 </g>
 </g>
  </g>
 </g>
 <g stroke-width="0.8">
 <path d=" M -8.4323 20.46555 L -62.07018 2.58624  " fill="none"/>
 <g transform="matrix(0.94864,0.31621,-0.31621,0.94864,-8.43231,20.46555)">
 <g stroke-width="0.64">
 <g stroke-dasharray="none" stroke-dashoffset="0.0">
 <g stroke-linecap="round">
 <g stroke-linejoin="round">
 <path d=" M -1.55997 2.07996 C -1.42996 1.29997 0.0 0.12999 0.38998 0.0 C 0.0 -0.12999 -1.42996 -1.29997 -1.55997 -2.07996  " fill="none"/>
 </g>
 </g>
 </g>
 </g>
  </g>
 </g>
 <g stroke-width="0.8">
 <path d=" M -65.23117 -20.26512 L -13.13142 -89.73146  " fill="none"/>
 <g transform="matrix(-0.59999,0.79997,-0.79997,-0.59999,-65.23117,-20.26512)">
 <g stroke-width="0.64">
 <g stroke-dasharray="none" stroke-dashoffset="0.0">
 <g stroke-linecap="round">
 <g stroke-linejoin="round">
 <path d=" M -1.55997 2.07996 C -1.42996 1.29997 0.0 0.12999 0.38998 0.0 C 0.0 -0.12999 -1.42996 -1.29997 -1.55997 -2.07996  " fill="none"/>
 </g>
 </g>
 </g>
 </g>
  </g>
 </g>
 <g stroke-width="0.8">
 <path d=" M -6.5657 -91.21002 L -6.5657 -39.3943  " fill="none"/>
 <g transform="matrix(0.0,-1.0,1.0,0.0,-6.5657,-91.21002)">
 <g stroke-width="0.64">
 <g stroke-dasharray="none" stroke-dashoffset="0.0">
 <g stroke-linecap="round">
 <g stroke-linejoin="round">
 <path d=" M -1.55997 2.07996 C -1.42996 1.29997 0.0 0.12999 0.38998 0.0 C 0.0 -0.12999 -1.42996 -1.29997 -1.55997 -2.07996  " fill="none"/>
 </g>
 </g>
 </g>
 </g>
  </g>
 </g>
 <g stroke-width="0.8">
 <path d=" M -13.80496 -30.4155 L -65.65717 -13.13142  " fill="none"/>
 <g transform="matrix(0.94864,-0.31621,0.31621,0.94864,-13.80498,-30.4155)">
 <g stroke-width="0.64">
 <g stroke-dasharray="none" stroke-dashoffset="0.0">
 <g stroke-linecap="round">
 <g stroke-linejoin="round">
 <path d=" M -1.55997 2.07996 C -1.42996 1.29997 0.0 0.12999 0.38998 0.0 C 0.0 -0.12999 -1.42996 -1.29997 -1.55997 -2.07996  " fill="none"/>
 </g>
 </g>
 </g>
 </g>
  </g>
 </g>
 <g stroke-width="0.8">
 <path d=" M 65.65717 -19.69714 L 13.55742 -89.16348  " fill="none"/>
 <g transform="matrix(-0.59999,-0.79997,0.79997,-0.59999,13.55742,-89.16348)">
 <g stroke-width="0.64">
 <g stroke-dasharray="none" stroke-dashoffset="0.0">
 <g stroke-linecap="round">
 <g stroke-linejoin="round">
 <path d=" M -1.55997 2.07996 C -1.42996 1.29997 0.0 0.12999 0.38998 0.0 C 0.0 -0.12999 -1.42996 -1.29997 -1.55997 -2.07996  " fill="none"/>
 </g>
 </g>
 </g>
 </g>
  </g>
 </g>
 <g stroke-width="0.8">
 <path d=" M 6.5657 -91.92003 L 6.5657 -40.10431  " fill="none"/>
 <g transform="matrix(0.0,1.0,-1.0,0.0,6.5657,-40.10431)">
 <g stroke-width="0.64">
 <g stroke-dasharray="none" stroke-dashoffset="0.0">
 <g stroke-linecap="round">
 <g stroke-linejoin="round">
 <path d=" M -1.55997 2.07996 C -1.42996 1.29997 0.0 0.12999 0.38998 0.0 C 0.0 -0.12999 -1.42996 -1.29997 -1.55997 -2.07996  " fill="none"/>
 </g>
 </g>
 </g>
 </g>
  </g>
 </g>
 <g stroke-width="0.8">
 <path d=" M 13.13142 -30.64 L 64.98363 -13.35593  " fill="none"/>
 <g transform="matrix(0.94864,0.31621,-0.31621,0.94864,64.98361,-13.35593)">
 <g stroke-width="0.64">
 <g stroke-dasharray="none" stroke-dashoffset="0.0">
 <g stroke-linecap="round">
 <g stroke-linejoin="round">
 <path d=" M -1.55997 2.07996 C -1.42996 1.29997 0.0 0.12999 0.38998 0.0 C 0.0 -0.12999 -1.42996 -1.29997 -1.55997 -2.07996  " fill="none"/>
 </g>
 </g>
 </g>
 </g>
  </g>
 </g>
 </g>
 </g>
 
                                   </g> 
</svg> 
