<?xml version="1.0" encoding="iso-8859-1" standalone="no"?> 
<?xml-stylesheet href="_Wrapper_Image_Constructor_Umbrella.css" type="text/css"?> 
<svg xmlns="http://www.w3.org/2000/svg" xmlns:xlink="http://www.w3.org/1999/xlink" width="146.9189pt" height="160.97354pt" viewBox="-80.89244 -80.48677 146.9189 160.97354 "> 
<g transform="translate(0,80.48677 ) scale(1,-1) translate(0,80.48677 )"> 
               <g stroke="#000" fill="#000">
 <g stroke-width="0.4">
 <g fill="#ececec">
 <path d=" M 42.68431 0.0 L 21.34213 36.96576 L 0.0 0.0 Z  " stroke="none"/>
 </g>
 <g transform="translate(18.84181,9.0995)">
 <g fill="#000">
 <text style="stroke:none" transform="scale(1,-1) translate(2.5,0)" text-anchor="middle"  font-size="10"> 
<g fill="#000">
 <g stroke="none"> 1</g> </g>
 </text> 
</g>
 </g>
 <g fill="#ececec">
 <path d=" M 21.34213 36.96576 L -21.34213 36.96576 L 0.0 0.0 Z  " stroke="none"/>
 </g>
 <g transform="translate(-2.5,21.42123)">
 <g fill="#000">
 <text style="stroke:none" transform="scale(1,-1) translate(2.5,0)" text-anchor="middle"  font-size="10"> 
<g fill="#000">
 <g stroke="none"> 2</g> </g>
 </text> 
</g>
 </g>
 <g fill="#ececec">
 <path d=" M -21.34213 36.96576 L -42.68431 0.0 L 0.0 0.0 Z  " stroke="none"/>
 </g>
 <g transform="translate(-23.84181,9.0995)">
 <g fill="#000">
 <text style="stroke:none" transform="scale(1,-1) translate(2.5,0)" text-anchor="middle"  font-size="10"> 
<g fill="#000">
 <g stroke="none"> 3</g> </g>
 </text> 
</g>
 </g>
 <g fill="#ececec">
 <path d=" M -42.68431 0.0 L -21.34213 -36.96576 L 0.0 0.0 Z  " stroke="none"/>
 </g>
 <g transform="translate(-23.84181,-15.54393)">
 <g fill="#000">
 <text style="stroke:none" transform="scale(1,-1) translate(2.5,0)" text-anchor="middle"  font-size="10"> 
<g fill="#000">
 <g stroke="none"> 4</g> </g>
 </text> 
</g>
 </g>
 <g fill="#ececec">
 <path d=" M -21.34213 -36.96576 L 21.34213 -36.96576 L 0.0 0.0 Z  " stroke="none"/>
 </g>
 <g transform="translate(-2.5,-27.86566)">
 <g fill="#000">
 <text style="stroke:none" transform="scale(1,-1) translate(2.5,0)" text-anchor="middle"  font-size="10"> 
<g fill="#000">
 <g stroke="none"> 5</g> </g>
 </text> 
</g>
 </g>
 <g fill="#ececec">
 <path d=" M 0.0 0.0 L 21.34213 -36.96576 L 42.68431 0.0 Z  " stroke="none"/>
 </g>
 <g transform="translate(18.84181,-15.54393)">
 <g fill="#000">
 <text style="stroke:none" transform="scale(1,-1) translate(2.5,0)" text-anchor="middle"  font-size="10"> 
<g fill="#000">
 <g stroke="none"> 6</g> </g>
 </text> 
</g>
 </g>
 <g fill="#ececec">
 <path d=" M 21.34213 -36.96576 L 64.02646 -36.96576 L 42.68431 0.0 Z  " stroke="none"/>
 </g>
 <g transform="translate(40.18364,-27.86566)">
 <g fill="#000">
 <text style="stroke:none" transform="scale(1,-1) translate(2.5,0)" text-anchor="middle"  font-size="10"> 
<g fill="#000">
 <g stroke="none"> 7</g> </g>
 </text> 
</g>
 </g>
 <g fill="#ececec">
 <path d=" M 42.68431 0.0 L 64.02646 36.96576 L 21.34213 36.96576 Z  " stroke="none"/>
 </g>
 <g transform="translate(40.18364,21.42123)">
 <g fill="#000">
 <text style="stroke:none" transform="scale(1,-1) translate(2.5,0)" text-anchor="middle"  font-size="10"> 
<g fill="#000">
 <g stroke="none"> 8</g> </g>
 </text> 
</g>
 </g>
 <g fill="#ececec">
 <path d=" M 21.34213 36.96576 L 0.0 73.93158 L -21.34213 36.96576 Z  " stroke="none"/>
 </g>
 <g transform="translate(-2.5,46.06471)">
 <g fill="#000">
 <text style="stroke:none" transform="scale(1,-1) translate(2.5,0)" text-anchor="middle"  font-size="10"> 
<g fill="#000">
 <g stroke="none"> 9</g> </g>
 </text> 
</g>
 </g>
 <g fill="#ececec">
 <path d=" M -21.34213 36.96576 L -64.02646 36.96576 L -42.68431 0.0 Z  " stroke="none"/>
 </g>
 <g transform="translate(-47.68365,21.42123)">
 <g fill="#000">
 <text style="stroke:none" transform="scale(1,-1) translate(5.00002,0)" text-anchor="middle"  font-size="10"> 
<g fill="#000">
 <g stroke="none"> 10</g> </g>
 </text> 
</g>
 </g>
 <g fill="#ececec">
 <path d=" M -42.68431 0.0 L -64.02646 -36.96576 L -21.34213 -36.96576 Z  " stroke="none"/>
 </g>
 <g transform="translate(-47.68365,-27.86566)">
 <g fill="#000">
 <text style="stroke:none" transform="scale(1,-1) translate(5.00002,0)" text-anchor="middle"  font-size="10"> 
<g fill="#000">
 <g stroke="none"> 11</g> </g>
 </text> 
</g>
 </g>
 <g fill="#ececec">
 <path d=" M -21.34213 -36.96576 L 0.0 -73.93158 L 21.34213 -36.96576 Z  " stroke="none"/>
 </g>
 <g transform="translate(-5.00002,-52.50914)">
 <g fill="#000">
 <text style="stroke:none" transform="scale(1,-1) translate(5.00002,0)" text-anchor="middle"  font-size="10"> 
<g fill="#000">
 <g stroke="none"> 12</g> </g>
 </text> 
</g>
 </g>
 <g stroke-linejoin="round">
 <g stroke="#000">
 <path d=" M 42.68431 0.0 L 0.0 0.0  " fill="none"/>
 <g fill="#ccf">
 <g fill="#ccf">
 <path d=" M 15.69669 -6.23297 h 11.29092 v 12.46594 h -11.29092 Z  " stroke="none"/>
 </g>
 <g transform="translate(19.02966,-2.9)">
 <g fill="#000">
 <text style="stroke:none" transform="scale(1,-1) translate(2.31248,0)" text-anchor="middle"  font-size="10"> 
<g fill="#000">
 <g stroke="none"> <tspan font-family="cmr" font-size="9">1</tspan> </g> </g>
 </text> 
</g>
 </g>
 </g>
 </g>
 </g>
 <g stroke-linejoin="round">
 <g stroke="#000">
 <path d=" M 0.0 0.0 L -21.34213 36.96576  " fill="none"/>
 <g fill="#ccf">
 <g fill="#ccf">
 <path d=" M -16.31653 12.2499 h 11.29092 v 12.46594 h -11.29092 Z  " stroke="none"/>
 </g>
 <g transform="translate(-12.98355,15.58287)">
 <g fill="#000">
 <text style="stroke:none" transform="scale(1,-1) translate(2.31248,0)" text-anchor="middle"  font-size="10"> 
<g fill="#000">
 <g stroke="none"> <tspan font-family="cmr" font-size="9">2</tspan> </g> </g>
 </text> 
</g>
 </g>
 </g>
 </g>
 </g>
 <g stroke-linejoin="round">
 <g stroke="#000">
 <path d=" M 0.0 0.0 L -21.34213 -36.96576  " fill="none"/>
 <g fill="#ccf">
 <g fill="#ccf">
 <path d=" M -16.31653 -24.71584 h 11.29092 v 12.46594 h -11.29092 Z  " stroke="none"/>
 </g>
 <g transform="translate(-12.98355,-21.38286)">
 <g fill="#000">
 <text style="stroke:none" transform="scale(1,-1) translate(2.31248,0)" text-anchor="middle"  font-size="10"> 
<g fill="#000">
 <g stroke="none"> <tspan font-family="cmr" font-size="9">3</tspan> </g> </g>
 </text> 
</g>
 </g>
 </g>
 </g>
 </g>
 <g stroke-linejoin="round">
 <g stroke="#000">
 <path d=" M 21.34213 36.96576 L 42.68431 0.0  " fill="none"/>
 <g fill="#ccf">
 <g fill="#ccf">
 <path d=" M 26.36775 12.24992 h 11.29092 v 12.46594 h -11.29092 Z  " stroke="none"/>
 </g>
 <g transform="translate(29.70073,15.5829)">
 <g fill="#000">
 <text style="stroke:none" transform="scale(1,-1) translate(2.31248,0)" text-anchor="middle"  font-size="10"> 
<g fill="#000">
 <g stroke="none"> <tspan font-family="cmr" font-size="9">4</tspan> </g> </g>
 </text> 
</g>
 </g>
 </g>
 </g>
 </g>
 <g stroke-linejoin="round">
 <g stroke="#000">
 <path d=" M 0.0 0.0 L 21.34213 36.96576  " fill="none"/>
 <g fill="#ccf">
 <g fill="#ccf">
 <path d=" M 5.0256 12.2499 h 11.29092 v 12.46594 h -11.29092 Z  " stroke="none"/>
 </g>
 <g transform="translate(8.35858,15.58287)">
 <g fill="#000">
 <text style="stroke:none" transform="scale(1,-1) translate(2.31248,0)" text-anchor="middle"  font-size="10"> 
<g fill="#000">
 <g stroke="none"> <tspan font-family="cmr" font-size="9">5</tspan> </g> </g>
 </text> 
</g>
 </g>
 </g>
 </g>
 </g>
 <g stroke-linejoin="round">
 <g stroke="#000">
 <path d=" M -21.34213 36.96576 L 21.34213 36.96576  " fill="none"/>
 <g fill="#ccf">
 <g fill="#ccf">
 <path d=" M -5.64546 30.73279 h 11.29092 v 12.46594 h -11.29092 Z  " stroke="none"/>
 </g>
 <g transform="translate(-2.31248,34.06577)">
 <g fill="#000">
 <text style="stroke:none" transform="scale(1,-1) translate(2.31248,0)" text-anchor="middle"  font-size="10"> 
<g fill="#000">
 <g stroke="none"> <tspan font-family="cmr" font-size="9">6</tspan> </g> </g>
 </text> 
</g>
 </g>
 </g>
 </g>
 </g>
 <g stroke-linejoin="round">
 <g stroke="#000">
 <path d=" M -42.68431 0.0 L -21.34213 36.96576  " fill="none"/>
 <g fill="#ccf">
 <g fill="#ccf">
 <path d=" M -37.65868 12.2499 h 11.29092 v 12.46594 h -11.29092 Z  " stroke="none"/>
 </g>
 <g transform="translate(-34.3257,15.58287)">
 <g fill="#000">
 <text style="stroke:none" transform="scale(1,-1) translate(2.31248,0)" text-anchor="middle"  font-size="10"> 
<g fill="#000">
 <g stroke="none"> <tspan font-family="cmr" font-size="9">7</tspan> </g> </g>
 </text> 
</g>
 </g>
 </g>
 </g>
 </g>
 <g stroke-linejoin="round">
 <g stroke="#000">
 <path d=" M 0.0 0.0 L -42.68431 0.0  " fill="none"/>
 <g fill="#ccf">
 <g fill="#ccf">
 <path d=" M -26.98761 -6.23297 h 11.29092 v 12.46594 h -11.29092 Z  " stroke="none"/>
 </g>
 <g transform="translate(-23.65463,-2.9)">
 <g fill="#000">
 <text style="stroke:none" transform="scale(1,-1) translate(2.31248,0)" text-anchor="middle"  font-size="10"> 
<g fill="#000">
 <g stroke="none"> <tspan font-family="cmr" font-size="9">8</tspan> </g> </g>
 </text> 
</g>
 </g>
 </g>
 </g>
 </g>
 <g stroke-linejoin="round">
 <g stroke="#000">
 <path d=" M -21.34213 -36.96576 L -42.68431 0.0  " fill="none"/>
 <g fill="#ccf">
 <g fill="#ccf">
 <path d=" M -37.65868 -24.71587 h 11.29092 v 12.46594 h -11.29092 Z  " stroke="none"/>
 </g>
 <g transform="translate(-34.3257,-21.38289)">
 <g fill="#000">
 <text style="stroke:none" transform="scale(1,-1) translate(2.31248,0)" text-anchor="middle"  font-size="10"> 
<g fill="#000">
 <g stroke="none"> <tspan font-family="cmr" font-size="9">9</tspan> </g> </g>
 </text> 
</g>
 </g>
 </g>
 </g>
 </g>
 <g stroke-linejoin="round">
 <g stroke="#000">
 <path d=" M 21.34213 -36.96576 L -21.34213 -36.96576  " fill="none"/>
 <g fill="#ccf">
 <g fill="#ccf">
 <path d=" M -7.95795 -43.19873 h 15.9159 v 12.46594 h -15.9159 Z  " stroke="none"/>
 </g>
 <g transform="translate(-4.62497,-39.86575)">
 <g fill="#000">
 <text style="stroke:none" transform="scale(1,-1) translate(4.62497,0)" text-anchor="middle"  font-size="10"> 
<g fill="#000">
 <g stroke="none"> <tspan font-family="cmr" font-size="9">10</tspan> </g> </g>
 </text> 
</g>
 </g>
 </g>
 </g>
 </g>
 <g stroke-linejoin="round">
 <g stroke="#000">
 <path d=" M 21.34213 -36.96576 L 0.0 0.0  " fill="none"/>
 <g fill="#ccf">
 <g fill="#ccf">
 <path d=" M 2.71312 -24.71587 h 15.9159 v 12.46594 h -15.9159 Z  " stroke="none"/>
 </g>
 <g transform="translate(6.0461,-21.38289)">
 <g fill="#000">
 <text style="stroke:none" transform="scale(1,-1) translate(4.62497,0)" text-anchor="middle"  font-size="10"> 
<g fill="#000">
 <g stroke="none"> <tspan font-family="cmr" font-size="9">11</tspan> </g> </g>
 </text> 
</g>
 </g>
 </g>
 </g>
 </g>
 <g stroke-linejoin="round">
 <g stroke="#000">
 <path d=" M 42.68431 0.0 L 21.34213 -36.96576  " fill="none"/>
 <g fill="#ccf">
 <g fill="#ccf">
 <path d=" M 24.05527 -24.71584 h 15.9159 v 12.46594 h -15.9159 Z  " stroke="none"/>
 </g>
 <g transform="translate(27.38824,-21.38286)">
 <g fill="#000">
 <text style="stroke:none" transform="scale(1,-1) translate(4.62497,0)" text-anchor="middle"  font-size="10"> 
<g fill="#000">
 <g stroke="none"> <tspan font-family="cmr" font-size="9">12</tspan> </g> </g>
 </text> 
</g>
 </g>
 </g>
 </g>
 </g>
 <g stroke-linejoin="round">
 <g stroke="#000">
 <path d=" M 64.02646 -36.96576 L 21.34213 -36.96576  " fill="none"/>
 <g fill="#ccf">
 <g fill="#ccf">
 <path d=" M 34.72636 -43.19873 h 15.9159 v 12.46594 h -15.9159 Z  " stroke="none"/>
 </g>
 <g transform="translate(38.05934,-39.86575)">
 <g fill="#000">
 <text style="stroke:none" transform="scale(1,-1) translate(4.62497,0)" text-anchor="middle"  font-size="10"> 
<g fill="#000">
 <g stroke="none"> <tspan font-family="cmr" font-size="9">13</tspan> </g> </g>
 </text> 
</g>
 </g>
 </g>
 </g>
 </g>
 <g stroke-linejoin="round">
 <g stroke="#000">
 <path d=" M 64.02646 36.96576 L 42.68431 0.0  " fill="none"/>
 <g fill="#ccf">
 <g fill="#ccf">
 <path d=" M 45.39745 12.24992 h 15.9159 v 12.46594 h -15.9159 Z  " stroke="none"/>
 </g>
 <g transform="translate(48.73042,15.5829)">
 <g fill="#000">
 <text style="stroke:none" transform="scale(1,-1) translate(4.62497,0)" text-anchor="middle"  font-size="10"> 
<g fill="#000">
 <g stroke="none"> <tspan font-family="cmr" font-size="9">14</tspan> </g> </g>
 </text> 
</g>
 </g>
 </g>
 </g>
 </g>
 <g stroke-linejoin="round">
 <g stroke="#000">
 <path d=" M 42.68431 0.0 L 64.02646 -36.96576  " fill="none"/>
 <g fill="#ccf">
 <g fill="#ccf">
 <path d=" M 45.39743 -24.71584 h 15.9159 v 12.46594 h -15.9159 Z  " stroke="none"/>
 </g>
 <g transform="translate(48.73041,-21.38286)">
 <g fill="#000">
 <text style="stroke:none" transform="scale(1,-1) translate(4.62497,0)" text-anchor="middle"  font-size="10"> 
<g fill="#000">
 <g stroke="none"> <tspan font-family="cmr" font-size="9">14</tspan> </g> </g>
 </text> 
</g>
 </g>
 </g>
 </g>
 </g>
 <g stroke-linejoin="round">
 <g stroke="#000">
 <path d=" M 21.34213 36.96576 L 64.02646 36.96576  " fill="none"/>
 <g fill="#ccf">
 <g fill="#ccf">
 <path d=" M 34.72633 30.73279 h 15.9159 v 12.46594 h -15.9159 Z  " stroke="none"/>
 </g>
 <g transform="translate(38.05931,34.06577)">
 <g fill="#000">
 <text style="stroke:none" transform="scale(1,-1) translate(4.62497,0)" text-anchor="middle"  font-size="10"> 
<g fill="#000">
 <g stroke="none"> <tspan font-family="cmr" font-size="9">15</tspan> </g> </g>
 </text> 
</g>
 </g>
 </g>
 </g>
 </g>
 <g stroke-linejoin="round">
 <g stroke="#000">
 <path d=" M 0.0 73.93158 L 21.34213 36.96576  " fill="none"/>
 <g fill="#ccf">
 <g fill="#ccf">
 <path d=" M 2.71312 49.21571 h 15.9159 v 12.46594 h -15.9159 Z  " stroke="none"/>
 </g>
 <g transform="translate(6.0461,52.54869)">
 <g fill="#000">
 <text style="stroke:none" transform="scale(1,-1) translate(4.62497,0)" text-anchor="middle"  font-size="10"> 
<g fill="#000">
 <g stroke="none"> <tspan font-family="cmr" font-size="9">16</tspan> </g> </g>
 </text> 
</g>
 </g>
 </g>
 </g>
 </g>
 <g stroke-linejoin="round">
 <g stroke="#000">
 <path d=" M -21.34213 36.96576 L 0.0 73.93158  " fill="none"/>
 <g fill="#ccf">
 <g fill="#ccf">
 <path d=" M -18.62901 49.21568 h 15.9159 v 12.46594 h -15.9159 Z  " stroke="none"/>
 </g>
 <g transform="translate(-15.29604,52.54866)">
 <g fill="#000">
 <text style="stroke:none" transform="scale(1,-1) translate(4.62497,0)" text-anchor="middle"  font-size="10"> 
<g fill="#000">
 <g stroke="none"> <tspan font-family="cmr" font-size="9">17</tspan> </g> </g>
 </text> 
</g>
 </g>
 </g>
 </g>
 </g>
 <g stroke-linejoin="round">
 <g stroke="#000">
 <path d=" M -64.02646 36.96576 L -21.34213 36.96576  " fill="none"/>
 <g fill="#ccf">
 <g fill="#ccf">
 <path d=" M -50.64226 30.73279 h 15.9159 v 12.46594 h -15.9159 Z  " stroke="none"/>
 </g>
 <g transform="translate(-47.30928,34.06577)">
 <g fill="#000">
 <text style="stroke:none" transform="scale(1,-1) translate(4.62497,0)" text-anchor="middle"  font-size="10"> 
<g fill="#000">
 <g stroke="none"> <tspan font-family="cmr" font-size="9">17</tspan> </g> </g>
 </text> 
</g>
 </g>
 </g>
 </g>
 </g>
 <g stroke-linejoin="round">
 <g stroke="#000">
 <path d=" M -42.68431 0.0 L -64.02646 36.96576  " fill="none"/>
 <g fill="#ccf">
 <g fill="#ccf">
 <path d=" M -61.31332 12.2499 h 15.9159 v 12.46594 h -15.9159 Z  " stroke="none"/>
 </g>
 <g transform="translate(-57.98035,15.58287)">
 <g fill="#000">
 <text style="stroke:none" transform="scale(1,-1) translate(4.62497,0)" text-anchor="middle"  font-size="10"> 
<g fill="#000">
 <g stroke="none"> <tspan font-family="cmr" font-size="9">18</tspan> </g> </g>
 </text> 
</g>
 </g>
 </g>
 </g>
 </g>
 <g stroke-linejoin="round">
 <g stroke="#000">
 <path d=" M -64.02646 -36.96576 L -42.68431 0.0  " fill="none"/>
 <g fill="#ccf">
 <g fill="#ccf">
 <path d=" M -61.31334 -24.71587 h 15.9159 v 12.46594 h -15.9159 Z  " stroke="none"/>
 </g>
 <g transform="translate(-57.98036,-21.38289)">
 <g fill="#000">
 <text style="stroke:none" transform="scale(1,-1) translate(4.62497,0)" text-anchor="middle"  font-size="10"> 
<g fill="#000">
 <g stroke="none"> <tspan font-family="cmr" font-size="9">19</tspan> </g> </g>
 </text> 
</g>
 </g>
 </g>
 </g>
 </g>
 <g stroke-linejoin="round">
 <g stroke="#000">
 <path d=" M -21.34213 -36.96576 L -64.02646 -36.96576  " fill="none"/>
 <g fill="#ccf">
 <g fill="#ccf">
 <path d=" M -50.64223 -43.19873 h 15.9159 v 12.46594 h -15.9159 Z  " stroke="none"/>
 </g>
 <g transform="translate(-47.30925,-39.86575)">
 <g fill="#000">
 <text style="stroke:none" transform="scale(1,-1) translate(4.62497,0)" text-anchor="middle"  font-size="10"> 
<g fill="#000">
 <g stroke="none"> <tspan font-family="cmr" font-size="9">20</tspan> </g> </g>
 </text> 
</g>
 </g>
 </g>
 </g>
 </g>
 <g stroke-linejoin="round">
 <g stroke="#000">
 <path d=" M 0.0 -73.93158 L -21.34213 -36.96576  " fill="none"/>
 <g fill="#ccf">
 <g fill="#ccf">
 <path d=" M -18.62901 -61.68166 h 15.9159 v 12.46594 h -15.9159 Z  " stroke="none"/>
 </g>
 <g transform="translate(-15.29604,-58.34868)">
 <g fill="#000">
 <text style="stroke:none" transform="scale(1,-1) translate(4.62497,0)" text-anchor="middle"  font-size="10"> 
<g fill="#000">
 <g stroke="none"> <tspan font-family="cmr" font-size="9">20</tspan> </g> </g>
 </text> 
</g>
 </g>
 </g>
 </g>
 </g>
 <g stroke-linejoin="round">
 <g stroke="#000">
 <path d=" M 21.34213 -36.96576 L 0.0 -73.93158  " fill="none"/>
 <g fill="#ccf">
 <g fill="#ccf">
 <path d=" M 2.71312 -61.68163 h 15.9159 v 12.46594 h -15.9159 Z  " stroke="none"/>
 </g>
 <g transform="translate(6.0461,-58.34865)">
 <g fill="#000">
 <text style="stroke:none" transform="scale(1,-1) translate(4.62497,0)" text-anchor="middle"  font-size="10"> 
<g fill="#000">
 <g stroke="none"> <tspan font-family="cmr" font-size="9">21</tspan> </g> </g>
 </text> 
</g>
 </g>
 </g>
 </g>
 </g>
 <g fill="#00f">
 <g fill="#00f">
 <path d=" M 2.0 0.0 C 2.0 1.10458 1.10458 2.0 0.0 2.0 C -1.10458 2.0 -2.0 1.10458 -2.0 0.0 C -2.0 -1.10458 -1.10458 -2.0 0.0 -2.0 C 1.10458 -2.0 2.0 -1.10458 2.0 0.0 Z M 0.0 0.0  " stroke="none"/>
 </g>
 <g fill="#000">
 <text style="stroke:none" transform="scale(1,-1) translate(0.0,0)" text-anchor="middle"  font-size="10"> 
<g fill="#000">
 <g stroke="none"> </g> </g>
 </text> 
</g>
 </g>
 <g stroke="#00f" fill="#00f">
 <g stroke="#00f" fill="#00f">
 </g>
 <g transform="translate(-8.53297,-3.22221)">
 <g fill="#00f">
 <text style="stroke:none" transform="scale(1,-1) translate(2.5,0)" text-anchor="middle"  font-size="10"> 
<g fill="#00f">
 <g stroke="none"> 1 </g> </g>
 </text> 
</g>
 </g>
 </g>
 <g fill="#00f">
 <g fill="#00f">
 <path d=" M 44.68431 0.0 C 44.68431 1.10458 43.7889 2.0 42.68431 2.0 C 41.57973 2.0 40.68431 1.10458 40.68431 0.0 C 40.68431 -1.10458 41.57973 -2.0 42.68431 -2.0 C 43.7889 -2.0 44.68431 -1.10458 44.68431 0.0 Z M 42.68431 0.0  " stroke="none"/>
 </g>
 <g transform="translate(42.68431,0.0)">
 <g fill="#000">
 <text style="stroke:none" transform="scale(1,-1) translate(0.0,0)" text-anchor="middle"  font-size="10"> 
<g fill="#000">
 <g stroke="none"> </g> </g>
 </text> 
</g>
 </g>
 </g>
 <g stroke="#00f" fill="#00f">
 <g stroke="#00f" fill="#00f">
 </g>
 <g transform="translate(34.15134,-3.22221)">
 <g fill="#00f">
 <text style="stroke:none" transform="scale(1,-1) translate(2.5,0)" text-anchor="middle"  font-size="10"> 
<g fill="#00f">
 <g stroke="none"> 2 </g> </g>
 </text> 
</g>
 </g>
 </g>
 <g fill="#00f">
 <g fill="#00f">
 <path d=" M -19.34213 36.96576 C -19.34213 38.07034 -20.23755 38.96576 -21.34213 38.96576 C -22.44672 38.96576 -23.34213 38.07034 -23.34213 36.96576 C -23.34213 35.86118 -22.44672 34.96576 -21.34213 34.96576 C -20.23755 34.96576 -19.34213 35.86118 -19.34213 36.96576 Z M -21.34213 36.96576  " stroke="none"/>
 </g>
 <g transform="translate(-21.34213,36.96576)">
 <g fill="#000">
 <text style="stroke:none" transform="scale(1,-1) translate(0.0,0)" text-anchor="middle"  font-size="10"> 
<g fill="#000">
 <g stroke="none"> </g> </g>
 </text> 
</g>
 </g>
 </g>
 <g stroke="#00f" fill="#00f">
 <g stroke="#00f" fill="#00f">
 </g>
 <g transform="translate(-29.8751,33.74355)">
 <g fill="#00f">
 <text style="stroke:none" transform="scale(1,-1) translate(2.5,0)" text-anchor="middle"  font-size="10"> 
<g fill="#00f">
 <g stroke="none"> 3 </g> </g>
 </text> 
</g>
 </g>
 </g>
 <g fill="#00f">
 <g fill="#00f">
 <path d=" M -19.34213 -36.96576 C -19.34213 -35.86118 -20.23755 -34.96576 -21.34213 -34.96576 C -22.44672 -34.96576 -23.34213 -35.86118 -23.34213 -36.96576 C -23.34213 -38.07034 -22.44672 -38.96576 -21.34213 -38.96576 C -20.23755 -38.96576 -19.34213 -38.07034 -19.34213 -36.96576 Z M -21.34213 -36.96576  " stroke="none"/>
 </g>
 <g transform="translate(-21.34213,-36.96576)">
 <g fill="#000">
 <text style="stroke:none" transform="scale(1,-1) translate(0.0,0)" text-anchor="middle"  font-size="10"> 
<g fill="#000">
 <g stroke="none"> </g> </g>
 </text> 
</g>
 </g>
 </g>
 <g stroke="#00f" fill="#00f">
 <g stroke="#00f" fill="#00f">
 </g>
 <g transform="translate(-29.8751,-40.18797)">
 <g fill="#00f">
 <text style="stroke:none" transform="scale(1,-1) translate(2.5,0)" text-anchor="middle"  font-size="10"> 
<g fill="#00f">
 <g stroke="none"> 4 </g> </g>
 </text> 
</g>
 </g>
 </g>
 <g fill="#00f">
 <g fill="#00f">
 <path d=" M 23.34213 36.96576 C 23.34213 38.07034 22.44672 38.96576 21.34213 38.96576 C 20.23755 38.96576 19.34213 38.07034 19.34213 36.96576 C 19.34213 35.86118 20.23755 34.96576 21.34213 34.96576 C 22.44672 34.96576 23.34213 35.86118 23.34213 36.96576 Z M 21.34213 36.96576  " stroke="none"/>
 </g>
 <g transform="translate(21.34213,36.96576)">
 <g fill="#000">
 <text style="stroke:none" transform="scale(1,-1) translate(0.0,0)" text-anchor="middle"  font-size="10"> 
<g fill="#000">
 <g stroke="none"> </g> </g>
 </text> 
</g>
 </g>
 </g>
 <g stroke="#00f" fill="#00f">
 <g stroke="#00f" fill="#00f">
 </g>
 <g transform="translate(12.80916,33.74355)">
 <g fill="#00f">
 <text style="stroke:none" transform="scale(1,-1) translate(2.5,0)" text-anchor="middle"  font-size="10"> 
<g fill="#00f">
 <g stroke="none"> 5 </g> </g>
 </text> 
</g>
 </g>
 </g>
 <g fill="#00f">
 <g fill="#00f">
 <path d=" M -40.68431 0.0 C -40.68431 1.10458 -41.57973 2.0 -42.68431 2.0 C -43.7889 2.0 -44.68431 1.10458 -44.68431 0.0 C -44.68431 -1.10458 -43.7889 -2.0 -42.68431 -2.0 C -41.57973 -2.0 -40.68431 -1.10458 -40.68431 0.0 Z M -42.68431 0.0  " stroke="none"/>
 </g>
 <g transform="translate(-42.68431,0.0)">
 <g fill="#000">
 <text style="stroke:none" transform="scale(1,-1) translate(0.0,0)" text-anchor="middle"  font-size="10"> 
<g fill="#000">
 <g stroke="none"> </g> </g>
 </text> 
</g>
 </g>
 </g>
 <g stroke="#00f" fill="#00f">
 <g stroke="#00f" fill="#00f">
 </g>
 <g transform="translate(-51.21729,-3.22221)">
 <g fill="#00f">
 <text style="stroke:none" transform="scale(1,-1) translate(2.5,0)" text-anchor="middle"  font-size="10"> 
<g fill="#00f">
 <g stroke="none"> 6 </g> </g>
 </text> 
</g>
 </g>
 </g>
 <g fill="#00f">
 <g fill="#00f">
 <path d=" M 23.34213 -36.96576 C 23.34213 -35.86118 22.44672 -34.96576 21.34213 -34.96576 C 20.23755 -34.96576 19.34213 -35.86118 19.34213 -36.96576 C 19.34213 -38.07034 20.23755 -38.96576 21.34213 -38.96576 C 22.44672 -38.96576 23.34213 -38.07034 23.34213 -36.96576 Z M 21.34213 -36.96576  " stroke="none"/>
 </g>
 <g transform="translate(21.34213,-36.96576)">
 <g fill="#000">
 <text style="stroke:none" transform="scale(1,-1) translate(0.0,0)" text-anchor="middle"  font-size="10"> 
<g fill="#000">
 <g stroke="none"> </g> </g>
 </text> 
</g>
 </g>
 </g>
 <g stroke="#00f" fill="#00f">
 <g stroke="#00f" fill="#00f">
 </g>
 <g transform="translate(12.80916,-40.18797)">
 <g fill="#00f">
 <text style="stroke:none" transform="scale(1,-1) translate(2.5,0)" text-anchor="middle"  font-size="10"> 
<g fill="#00f">
 <g stroke="none"> 7 </g> </g>
 </text> 
</g>
 </g>
 </g>
 <g fill="#00f">
 <g fill="#00f">
 <path d=" M 66.02646 36.96576 C 66.02646 38.07034 65.13104 38.96576 64.02646 38.96576 C 62.92188 38.96576 62.02646 38.07034 62.02646 36.96576 C 62.02646 35.86118 62.92188 34.96576 64.02646 34.96576 C 65.13104 34.96576 66.02646 35.86118 66.02646 36.96576 Z M 64.02646 36.96576  " stroke="none"/>
 </g>
 <g transform="translate(64.02646,36.96576)">
 <g fill="#000">
 <text style="stroke:none" transform="scale(1,-1) translate(0.0,0)" text-anchor="middle"  font-size="10"> 
<g fill="#000">
 <g stroke="none"> </g> </g>
 </text> 
</g>
 </g>
 </g>
 <g stroke="#00f" fill="#00f">
 <g stroke="#00f" fill="#00f">
 </g>
 <g transform="translate(55.49348,33.74355)">
 <g fill="#00f">
 <text style="stroke:none" transform="scale(1,-1) translate(2.5,0)" text-anchor="middle"  font-size="10"> 
<g fill="#00f">
 <g stroke="none"> 8 </g> </g>
 </text> 
</g>
 </g>
 </g>
 <g fill="#00f">
 <g fill="#00f">
 <path d=" M 66.02646 -36.96576 C 66.02646 -35.86118 65.13104 -34.96576 64.02646 -34.96576 C 62.92188 -34.96576 62.02646 -35.86118 62.02646 -36.96576 C 62.02646 -38.07034 62.92188 -38.96576 64.02646 -38.96576 C 65.13104 -38.96576 66.02646 -38.07034 66.02646 -36.96576 Z M 64.02646 -36.96576  " stroke="none"/>
 </g>
 <g transform="translate(64.02646,-36.96576)">
 <g fill="#000">
 <text style="stroke:none" transform="scale(1,-1) translate(0.0,0)" text-anchor="middle"  font-size="10"> 
<g fill="#000">
 <g stroke="none"> </g> </g>
 </text> 
</g>
 </g>
 </g>
 <g stroke="#00f" fill="#00f">
 <g stroke="#00f" fill="#00f">
 </g>
 <g transform="translate(55.49348,-40.18797)">
 <g fill="#00f">
 <text style="stroke:none" transform="scale(1,-1) translate(2.5,0)" text-anchor="middle"  font-size="10"> 
<g fill="#00f">
 <g stroke="none"> 8 </g> </g>
 </text> 
</g>
 </g>
 </g>
 <g fill="#00f">
 <g fill="#00f">
 <path d=" M 2.0 73.93158 C 2.0 75.03616 1.10458 75.93158 0.0 75.93158 C -1.10458 75.93158 -2.0 75.03616 -2.0 73.93158 C -2.0 72.827 -1.10458 71.93158 0.0 71.93158 C 1.10458 71.93158 2.0 72.827 2.0 73.93158 Z M 0.0 73.93158  " stroke="none"/>
 </g>
 <g transform="translate(0.0,73.93158)">
 <g fill="#000">
 <text style="stroke:none" transform="scale(1,-1) translate(0.0,0)" text-anchor="middle"  font-size="10"> 
<g fill="#000">
 <g stroke="none"> </g> </g>
 </text> 
</g>
 </g>
 </g>
 <g stroke="#00f" fill="#00f">
 <g stroke="#00f" fill="#00f">
 </g>
 <g transform="translate(-8.53297,70.70937)">
 <g fill="#00f">
 <text style="stroke:none" transform="scale(1,-1) translate(2.5,0)" text-anchor="middle"  font-size="10"> 
<g fill="#00f">
 <g stroke="none"> 9 </g> </g>
 </text> 
</g>
 </g>
 </g>
 <g fill="#00f">
 <g fill="#00f">
 <path d=" M -62.02646 36.96576 C -62.02646 38.07034 -62.92188 38.96576 -64.02646 38.96576 C -65.13104 38.96576 -66.02646 38.07034 -66.02646 36.96576 C -66.02646 35.86118 -65.13104 34.96576 -64.02646 34.96576 C -62.92188 34.96576 -62.02646 35.86118 -62.02646 36.96576 Z M -64.02646 36.96576  " stroke="none"/>
 </g>
 <g transform="translate(-64.02646,36.96576)">
 <g fill="#000">
 <text style="stroke:none" transform="scale(1,-1) translate(0.0,0)" text-anchor="middle"  font-size="10"> 
<g fill="#000">
 <g stroke="none"> </g> </g>
 </text> 
</g>
 </g>
 </g>
 <g stroke="#00f" fill="#00f">
 <g stroke="#00f" fill="#00f">
 </g>
 <g transform="translate(-72.55943,33.74355)">
 <g fill="#00f">
 <text style="stroke:none" transform="scale(1,-1) translate(2.5,0)" text-anchor="middle"  font-size="10"> 
<g fill="#00f">
 <g stroke="none"> 9 </g> </g>
 </text> 
</g>
 </g>
 </g>
 <g fill="#00f">
 <g fill="#00f">
 <path d=" M -62.02646 -36.96576 C -62.02646 -35.86118 -62.92188 -34.96576 -64.02646 -34.96576 C -65.13104 -34.96576 -66.02646 -35.86118 -66.02646 -36.96576 C -66.02646 -38.07034 -65.13104 -38.96576 -64.02646 -38.96576 C -62.92188 -38.96576 -62.02646 -38.07034 -62.02646 -36.96576 Z M -64.02646 -36.96576  " stroke="none"/>
 </g>
 <g transform="translate(-64.02646,-36.96576)">
 <g fill="#000">
 <text style="stroke:none" transform="scale(1,-1) translate(0.0,0)" text-anchor="middle"  font-size="10"> 
<g fill="#000">
 <g stroke="none"> </g> </g>
 </text> 
</g>
 </g>
 </g>
 <g stroke="#00f" fill="#00f">
 <g stroke="#00f" fill="#00f">
 </g>
 <g transform="translate(-77.55946,-40.18797)">
 <g fill="#00f">
 <text style="stroke:none" transform="scale(1,-1) translate(5.00002,0)" text-anchor="middle"  font-size="10"> 
<g fill="#00f">
 <g stroke="none"> 10</g> </g>
 </text> 
</g>
 </g>
 </g>
 <g fill="#00f">
 <g fill="#00f">
 <path d=" M 2.0 -73.93158 C 2.0 -72.827 1.10458 -71.93158 0.0 -71.93158 C -1.10458 -71.93158 -2.0 -72.827 -2.0 -73.93158 C -2.0 -75.03616 -1.10458 -75.93158 0.0 -75.93158 C 1.10458 -75.93158 2.0 -75.03616 2.0 -73.93158 Z M 0.0 -73.93158  " stroke="none"/>
 </g>
 <g transform="translate(0.0,-73.93158)">
 <g fill="#000">
 <text style="stroke:none" transform="scale(1,-1) translate(0.0,0)" text-anchor="middle"  font-size="10"> 
<g fill="#000">
 <g stroke="none"> </g> </g>
 </text> 
</g>
 </g>
 </g>
 <g stroke="#00f" fill="#00f">
 <g stroke="#00f" fill="#00f">
 </g>
 <g transform="translate(-13.533,-77.1538)">
 <g fill="#00f">
 <text style="stroke:none" transform="scale(1,-1) translate(5.00002,0)" text-anchor="middle"  font-size="10"> 
<g fill="#00f">
 <g stroke="none"> 10</g> </g>
 </text> 
</g>
 </g>
 </g>
 </g>
 </g>
 
                            </g> 
</svg> 
