<?xml version="1.0" encoding="iso-8859-1" standalone="no"?> 
<?xml-stylesheet href="_Wrapper_modification-20.css" type="text/css"?> 
<svg xmlns="http://www.w3.org/2000/svg" xmlns:xlink="http://www.w3.org/1999/xlink" width="84.86375pt" height="67.1044pt" viewBox="234.9825 -17.55934 84.86375 67.1044 "> 
<g transform="translate(0, 49.54506 ) scale(1,-1) translate(0,17.55934 )"> 
<g stroke="#000" fill="#000">
 <g stroke-width="0.4">
 <g stroke-linejoin="round">
 <g stroke="#000">
 <g fill="#ff6">
 <path d=" M 284.52756 0.0 L 284.52756 42.67911 L 241.84845 0.0 Z  " />
 <g transform="translate(263.188,21.33955)">
 <g fill="#000">
 <text style="stroke:none" transform="scale(1,-1) translate(0.0,0)" text-anchor="middle"  font-size="10"> 
<g fill="#000">
 <g stroke="none"> </g> </g>
 </text> 
</g>
 </g>
 </g>
 </g>
 </g>
 <g stroke-linejoin="round">
 <g stroke="#000">
 <g fill="#ff6">
 <path d=" M 284.52756 0.0 L 284.52756 42.67911 L 312.9803 -14.22636 Z M 284.52756 0.0 L 284.52756 42.67911 L 267.45575 -14.22636 Z  " />
 <g transform="translate(298.75392,14.22638)">
 <g fill="#000">
 <text style="stroke:none" transform="scale(1,-1) translate(0.0,0)" text-anchor="middle"  font-size="10"> 
<g fill="#000">
 <g stroke="none"> </g> </g>
 </text> 
</g>
 </g>
 <g transform="translate(298.75394,-7.11319)">
 <g fill="#000">
 <text style="stroke:none" transform="scale(1,-1) translate(0.0,0)" text-anchor="middle"  font-size="10"> 
<g fill="#000">
 <g stroke="none"> </g> </g>
 </text> 
</g>
 </g>
 <g transform="translate(275.99165,14.22638)">
 <g fill="#000">
 <text style="stroke:none" transform="scale(1,-1) translate(0.0,0)" text-anchor="middle"  font-size="10"> 
<g fill="#000">
 <g stroke="none"> </g> </g>
 </text> 
</g>
 </g>
 <g transform="translate(275.99165,-7.11319)">
 <g fill="#000">
 <text style="stroke:none" transform="scale(1,-1) translate(0.0,0)" text-anchor="middle"  font-size="10"> 
<g fill="#000">
 <g stroke="none"> </g> </g>
 </text> 
</g>
 </g>
 </g>
 </g>
 </g>
 <g stroke-linejoin="round">
 <g stroke="#000">
 <g stroke-dasharray="3.0,3.0" stroke-dashoffset="0.0">
 <path d=" M 284.52756 0.0 L 241.84845 0.0  " fill="none"/>
 <g transform="translate(263.188,0.0)">
 <g fill="#000">
 <text style="stroke:none" transform="scale(1,-1) translate(0.0,0)" text-anchor="middle"  font-size="10"> 
<g fill="#000">
 <g stroke="none"> </g> </g>
 </text> 
</g>
 </g>
 </g>
 </g>
 </g>
 <g stroke-linejoin="round">
 <g stroke="#000">
 <path d=" M 284.52756 0.0 L 284.52756 42.67911  " fill="none"/>
 <g transform="translate(284.52756,21.33955)">
 <g fill="#000">
 <text style="stroke:none" transform="scale(1,-1) translate(0.0,0)" text-anchor="middle"  font-size="10"> 
<g fill="#000">
 <g stroke="none"> </g> </g>
 </text> 
</g>
 </g>
 </g>
 </g>
 <g fill="#808080">
 <g fill="#808080">
 <path d=" M 313.9803 -14.22636 C 313.9803 -13.67407 313.5326 -13.22636 312.9803 -13.22636 C 312.42801 -13.22636 311.9803 -13.67407 311.9803 -14.22636 C 311.9803 -14.77866 312.42801 -15.22636 312.9803 -15.22636 C 313.5326 -15.22636 313.9803 -14.77866 313.9803 -14.22636 Z M 312.9803 -14.22636  " stroke="none"/>
 </g>
 <g transform="translate(312.9803,-14.22636)">
 <g fill="#000">
 <text style="stroke:none" transform="scale(1,-1) translate(0.0,0)" text-anchor="middle"  font-size="10"> 
<g fill="#000">
 <g stroke="none"> </g> </g>
 </text> 
</g>
 </g>
 </g>
 <g transform="translate(316.51328,-14.22636)">
 <g fill="#000">
 <text style="stroke:none" transform="scale(1,-1) translate(0.0,0)" text-anchor="middle"  font-size="10"> 
<g fill="#000">
 <g stroke="none"> </g> </g>
 </text> 
</g>
 </g>
 <g fill="#808080">
 <g fill="#808080">
 <path d=" M 268.45575 -14.22636 C 268.45575 -13.67407 268.00804 -13.22636 267.45575 -13.22636 C 266.90346 -13.22636 266.45575 -13.67407 266.45575 -14.22636 C 266.45575 -14.77866 266.90346 -15.22636 267.45575 -15.22636 C 268.00804 -15.22636 268.45575 -14.77866 268.45575 -14.22636 Z M 267.45575 -14.22636  " stroke="none"/>
 </g>
 <g transform="translate(267.45575,-14.22636)">
 <g fill="#000">
 <text style="stroke:none" transform="scale(1,-1) translate(0.0,0)" text-anchor="middle"  font-size="10"> 
<g fill="#000">
 <g stroke="none"> </g> </g>
 </text> 
</g>
 </g>
 </g>
 <g transform="translate(263.92278,-14.22636)">
 <g fill="#000">
 <text style="stroke:none" transform="scale(1,-1) translate(0.0,0)" text-anchor="middle"  font-size="10"> 
<g fill="#000">
 <g stroke="none"> </g> </g>
 </text> 
</g>
 </g>
 <g fill="#808080">
 <g fill="#808080">
 <path d=" M 242.84845 0.0 C 242.84845 0.55229 242.40074 1.0 241.84845 1.0 C 241.29616 1.0 240.84845 0.55229 240.84845 0.0 C 240.84845 -0.55229 241.29616 -1.0 241.84845 -1.0 C 242.40074 -1.0 242.84845 -0.55229 242.84845 0.0 Z M 241.84845 0.0  " stroke="none"/>
 </g>
 <g transform="translate(241.84845,0.0)">
 <g fill="#000">
 <text style="stroke:none" transform="scale(1,-1) translate(0.0,0)" text-anchor="middle"  font-size="10"> 
<g fill="#000">
 <g stroke="none"> </g> </g>
 </text> 
</g>
 </g>
 </g>
 <g transform="translate(238.31548,0.0)">
 <g fill="#000">
 <text style="stroke:none" transform="scale(1,-1) translate(0.0,0)" text-anchor="middle"  font-size="10"> 
<g fill="#000">
 <g stroke="none"> </g> </g>
 </text> 
</g>
 </g>
 <g fill="#808080">
 <g fill="#808080">
 <path d=" M 285.52756 0.0 C 285.52756 0.55229 285.07985 1.0 284.52756 1.0 C 283.97527 1.0 283.52756 0.55229 283.52756 0.0 C 283.52756 -0.55229 283.97527 -1.0 284.52756 -1.0 C 285.07985 -1.0 285.52756 -0.55229 285.52756 0.0 Z M 284.52756 0.0  " stroke="none"/>
 </g>
 <g transform="translate(284.52756,0.0)">
 <g fill="#000">
 <text style="stroke:none" transform="scale(1,-1) translate(0.0,0)" text-anchor="middle"  font-size="10"> 
<g fill="#000">
 <g stroke="none"> </g> </g>
 </text> 
</g>
 </g>
 </g>
 <g transform="translate(284.52756,-3.53297)">
 <g fill="#000">
 <text style="stroke:none" transform="scale(1,-1) translate(0.0,0)" text-anchor="middle"  font-size="10"> 
<g fill="#000">
 <g stroke="none"> </g> </g>
 </text> 
</g>
 </g>
 <g fill="#808080">
 <g fill="#808080">
 <path d=" M 285.52756 42.67911 C 285.52756 43.2314 285.07985 43.67911 284.52756 43.67911 C 283.97527 43.67911 283.52756 43.2314 283.52756 42.67911 C 283.52756 42.12682 283.97527 41.67911 284.52756 41.67911 C 285.07985 41.67911 285.52756 42.12682 285.52756 42.67911 Z M 284.52756 42.67911  " stroke="none"/>
 </g>
 <g transform="translate(284.52756,42.67911)">
 <g fill="#000">
 <text style="stroke:none" transform="scale(1,-1) translate(0.0,0)" text-anchor="middle"  font-size="10"> 
<g fill="#000">
 <g stroke="none"> </g> </g>
 </text> 
</g>
 </g>
 </g>
 <g transform="translate(284.52756,46.21208)">
 <g fill="#000">
 <text style="stroke:none" transform="scale(1,-1) translate(0.0,0)" text-anchor="middle"  font-size="10"> 
<g fill="#000">
 <g stroke="none"> </g> </g>
 </text> 
</g>
 </g>
 <g transform="translate(294.01166,9.4841)">
 <g fill="#000">
 <text style="stroke:none" transform="scale(1,-1) translate(0.0,0)" text-anchor="middle"  font-size="10"> 
<g fill="#000">
 <g stroke="none"> </g> </g>
 </text> 
</g>
 </g>
 <g transform="translate(281.11325,5.69046)">
 <g fill="#000">
 <text style="stroke:none" transform="scale(1,-1) translate(0.0,0)" text-anchor="middle"  font-size="10"> 
<g fill="#000">
 <g stroke="none"> </g> </g>
 </text> 
</g>
 </g>
 <g transform="translate(258.92049,8.53569)">
 <g fill="#000">
 <text style="stroke:none" transform="scale(1,-1) translate(0.0,0)" text-anchor="middle"  font-size="10"> 
<g fill="#000">
 <g stroke="none"> </g> </g>
 </text> 
</g>
 </g>
 </g>
 </g>
 
                         </g> 
</svg> 
