<?xml version="1.0" encoding="iso-8859-1" standalone="no"?> 
<?xml-stylesheet href="_Wrapper_constructors-19.css" type="text/css"?> 
<svg xmlns="http://www.w3.org/2000/svg" xmlns:xlink="http://www.w3.org/1999/xlink" width="141.9189pt" height="87.0419pt" viewBox="-54.55026 -43.52095 141.9189 87.0419 "> 
<g transform="translate(0,43.52095 ) scale(1,-1) translate(0,43.52095 )"> 
          <g stroke="#000" fill="#000">
 <g stroke-width="0.4">
 <g fill="#fcc">
 <path d=" M 42.68431 0.0 L 21.34213 36.96576 L 0.0 0.0 Z  " stroke="none"/>
 </g>
 <g transform="translate(18.84181,9.0995)">
 <g fill="#000">
 <text style="stroke:none" transform="scale(1,-1) translate(2.5,0)" text-anchor="middle"  font-size="10"> 
<g fill="#000">
 <g stroke="none"> 3</g> </g>
 </text> 
</g>
 </g>
 <g fill="#fcc">
 <path d=" M 0.0 0.0 L 21.34213 -36.96576 L 42.68431 0.0 Z  " stroke="none"/>
 </g>
 <g transform="translate(18.84181,-15.54393)">
 <g fill="#000">
 <text style="stroke:none" transform="scale(1,-1) translate(2.5,0)" text-anchor="middle"  font-size="10"> 
<g fill="#000">
 <g stroke="none"> 2</g> </g>
 </text> 
</g>
 </g>
 <g fill="#fcc">
 <path d=" M 21.34213 36.96576 L -21.34213 36.96576 L 0.0 0.0 Z  " stroke="none"/>
 </g>
 <g transform="translate(-2.5,21.42123)">
 <g fill="#000">
 <text style="stroke:none" transform="scale(1,-1) translate(2.5,0)" text-anchor="middle"  font-size="10"> 
<g fill="#000">
 <g stroke="none"> 4</g> </g>
 </text> 
</g>
 </g>
 <g fill="#fcc">
 <path d=" M 42.68431 0.0 L 64.02646 36.96576 L 21.34213 36.96576 Z  " stroke="none"/>
 </g>
 <g transform="translate(37.68362,21.42123)">
 <g fill="#000">
 <text style="stroke:none" transform="scale(1,-1) translate(5.00002,0)" text-anchor="middle"  font-size="10"> 
<g fill="#000">
 <g stroke="none"> 11</g> </g>
 </text> 
</g>
 </g>
 <g fill="#fcc">
 <path d=" M 0.0 0.0 L -21.34213 -36.96576 L 21.34213 -36.96576 Z  " stroke="none"/>
 </g>
 <g transform="translate(-2.5,-27.86566)">
 <g fill="#000">
 <text style="stroke:none" transform="scale(1,-1) translate(2.5,0)" text-anchor="middle"  font-size="10"> 
<g fill="#000">
 <g stroke="none"> 8 </g> </g>
 </text> 
</g>
 </g>
 <g fill="#fcc">
 <path d=" M 0.0 0.0 L -42.68431 0.0 L -21.34213 -36.96576 Z  " stroke="none"/>
 </g>
 <g transform="translate(-23.84181,-15.54393)">
 <g fill="#000">
 <text style="stroke:none" transform="scale(1,-1) translate(2.5,0)" text-anchor="middle"  font-size="10"> 
<g fill="#000">
 <g stroke="none"> 6 </g> </g>
 </text> 
</g>
 </g>
 <g fill="#fcc">
 <path d=" M -21.34213 36.96576 L -42.68431 0.0 L 0.0 0.0 Z  " stroke="none"/>
 </g>
 <g transform="translate(-26.34183,9.0995)">
 <g fill="#000">
 <text style="stroke:none" transform="scale(1,-1) translate(5.00002,0)" text-anchor="middle"  font-size="10"> 
<g fill="#000">
 <g stroke="none"> 10</g> </g>
 </text> 
</g>
 </g>
 <g fill="#fcc">
 <path d=" M 21.34213 -36.96576 L 64.02646 -36.96576 L 42.68431 0.0 Z  " stroke="none"/>
 </g>
 <g transform="translate(40.18364,-27.86566)">
 <g fill="#000">
 <text style="stroke:none" transform="scale(1,-1) translate(2.5,0)" text-anchor="middle"  font-size="10"> 
<g fill="#000">
 <g stroke="none"> 5 </g> </g>
 </text> 
</g>
 </g>
 <g fill="#fcc">
 <path d=" M 64.02646 -36.96576 L 85.36864 0.0 L 42.68431 0.0 Z  " stroke="none"/>
 </g>
 <g transform="translate(61.52548,-15.54393)">
 <g fill="#000">
 <text style="stroke:none" transform="scale(1,-1) translate(2.5,0)" text-anchor="middle"  font-size="10"> 
<g fill="#000">
 <g stroke="none"> 1 </g> </g>
 </text> 
</g>
 </g>
 <g fill="#fcc">
 <path d=" M 42.68431 0.0 L 85.36864 0.0 L 64.02646 36.96576 Z  " stroke="none"/>
 </g>
 <g transform="translate(61.52548,9.0995)">
 <g fill="#000">
 <text style="stroke:none" transform="scale(1,-1) translate(2.5,0)" text-anchor="middle"  font-size="10"> 
<g fill="#000">
 <g stroke="none"> 7 </g> </g>
 </text> 
</g>
 </g>
 <g stroke-linejoin="round">
 <g stroke="#000">
 <path d=" M -21.34213 36.96576 L 21.34213 36.96576  " fill="none"/>
 <g transform="translate(0.0,36.96576)">
 <g fill="#000">
 <text style="stroke:none" transform="scale(1,-1) translate(0.0,0)" text-anchor="middle"  font-size="10"> 
<g fill="#000">
 <g stroke="none"> </g> </g>
 </text> 
</g>
 </g>
 </g>
 </g>
 <g stroke-linejoin="round">
 <g stroke="#000">
 <path d=" M 21.34213 36.96576 L 64.02646 36.96576  " fill="none"/>
 <g transform="translate(42.68428,36.96576)">
 <g fill="#000">
 <text style="stroke:none" transform="scale(1,-1) translate(0.0,0)" text-anchor="middle"  font-size="10"> 
<g fill="#000">
 <g stroke="none"> </g> </g>
 </text> 
</g>
 </g>
 </g>
 </g>
 <g stroke-linejoin="round">
 <g stroke="#000">
 <path d=" M 21.34213 -36.96576 L -21.34213 -36.96576  " fill="none"/>
 <g transform="translate(0.0,-36.96576)">
 <g fill="#000">
 <text style="stroke:none" transform="scale(1,-1) translate(0.0,0)" text-anchor="middle"  font-size="10"> 
<g fill="#000">
 <g stroke="none"> </g> </g>
 </text> 
</g>
 </g>
 </g>
 </g>
 <g stroke-linejoin="round">
 <g stroke="#000">
 <path d=" M -21.34213 -36.96576 L -42.68431 0.0  " fill="none"/>
 <g transform="translate(-32.01321,-18.4829)">
 <g fill="#000">
 <text style="stroke:none" transform="scale(1,-1) translate(0.0,0)" text-anchor="middle"  font-size="10"> 
<g fill="#000">
 <g stroke="none"> </g> </g>
 </text> 
</g>
 </g>
 </g>
 </g>
 <g stroke-linejoin="round">
 <g stroke="#000">
 <path d=" M -42.68431 0.0 L -21.34213 36.96576  " fill="none"/>
 <g transform="translate(-32.01321,18.48286)">
 <g fill="#000">
 <text style="stroke:none" transform="scale(1,-1) translate(0.0,0)" text-anchor="middle"  font-size="10"> 
<g fill="#000">
 <g stroke="none"> </g> </g>
 </text> 
</g>
 </g>
 </g>
 </g>
 <g stroke-linejoin="round">
 <g stroke="#000">
 <path d=" M 64.02646 -36.96576 L 21.34213 -36.96576  " fill="none"/>
 <g transform="translate(42.68431,-36.96576)">
 <g fill="#000">
 <text style="stroke:none" transform="scale(1,-1) translate(0.0,0)" text-anchor="middle"  font-size="10"> 
<g fill="#000">
 <g stroke="none"> </g> </g>
 </text> 
</g>
 </g>
 </g>
 </g>
 <g stroke-linejoin="round">
 <g stroke="#000">
 <path d=" M 85.36864 0.0 L 64.02646 -36.96576  " fill="none"/>
 <g transform="translate(74.69756,-18.48286)">
 <g fill="#000">
 <text style="stroke:none" transform="scale(1,-1) translate(0.0,0)" text-anchor="middle"  font-size="10"> 
<g fill="#000">
 <g stroke="none"> </g> </g>
 </text> 
</g>
 </g>
 </g>
 </g>
 <g stroke-linejoin="round">
 <g stroke="#000">
 <path d=" M 64.02646 36.96576 L 85.36864 0.0  " fill="none"/>
 <g transform="translate(74.69756,18.4829)">
 <g fill="#000">
 <text style="stroke:none" transform="scale(1,-1) translate(0.0,0)" text-anchor="middle"  font-size="10"> 
<g fill="#000">
 <g stroke="none"> </g> </g>
 </text> 
</g>
 </g>
 </g>
 </g>
 <g stroke-linejoin="round">
 <g stroke="#000">
 <path d=" M 42.68431 0.0 L 0.0 0.0  " fill="none"/>
 <g transform="translate(21.34215,0.0)">
 <g fill="#000">
 <text style="stroke:none" transform="scale(1,-1) translate(0.0,0)" text-anchor="middle"  font-size="10"> 
<g fill="#000">
 <g stroke="none"> </g> </g>
 </text> 
</g>
 </g>
 </g>
 </g>
 <g stroke-linejoin="round">
 <g stroke="#000">
 <path d=" M 0.0 0.0 L 21.34213 36.96576  " fill="none"/>
 <g transform="translate(10.67107,18.48286)">
 <g fill="#000">
 <text style="stroke:none" transform="scale(1,-1) translate(0.0,0)" text-anchor="middle"  font-size="10"> 
<g fill="#000">
 <g stroke="none"> </g> </g>
 </text> 
</g>
 </g>
 </g>
 </g>
 <g stroke-linejoin="round">
 <g stroke="#000">
 <path d=" M 21.34213 36.96576 L 42.68431 0.0  " fill="none"/>
 <g transform="translate(32.01321,18.4829)">
 <g fill="#000">
 <text style="stroke:none" transform="scale(1,-1) translate(0.0,0)" text-anchor="middle"  font-size="10"> 
<g fill="#000">
 <g stroke="none"> </g> </g>
 </text> 
</g>
 </g>
 </g>
 </g>
 <g stroke-linejoin="round">
 <g stroke="#000">
 <path d=" M 21.34213 -36.96576 L 0.0 0.0  " fill="none"/>
 <g transform="translate(10.67107,-18.4829)">
 <g fill="#000">
 <text style="stroke:none" transform="scale(1,-1) translate(0.0,0)" text-anchor="middle"  font-size="10"> 
<g fill="#000">
 <g stroke="none"> </g> </g>
 </text> 
</g>
 </g>
 </g>
 </g>
 <g stroke-linejoin="round">
 <g stroke="#000">
 <path d=" M 42.68431 0.0 L 21.34213 -36.96576  " fill="none"/>
 <g transform="translate(32.01321,-18.48286)">
 <g fill="#000">
 <text style="stroke:none" transform="scale(1,-1) translate(0.0,0)" text-anchor="middle"  font-size="10"> 
<g fill="#000">
 <g stroke="none"> </g> </g>
 </text> 
</g>
 </g>
 </g>
 </g>
 <g stroke-linejoin="round">
 <g stroke="#000">
 <path d=" M 0.0 0.0 L -21.34213 36.96576  " fill="none"/>
 <g transform="translate(-10.67107,18.48286)">
 <g fill="#000">
 <text style="stroke:none" transform="scale(1,-1) translate(0.0,0)" text-anchor="middle"  font-size="10"> 
<g fill="#000">
 <g stroke="none"> </g> </g>
 </text> 
</g>
 </g>
 </g>
 </g>
 <g stroke-linejoin="round">
 <g stroke="#000">
 <path d=" M 64.02646 36.96576 L 42.68431 0.0  " fill="none"/>
 <g transform="translate(53.3554,18.4829)">
 <g fill="#000">
 <text style="stroke:none" transform="scale(1,-1) translate(0.0,0)" text-anchor="middle"  font-size="10"> 
<g fill="#000">
 <g stroke="none"> </g> </g>
 </text> 
</g>
 </g>
 </g>
 </g>
 <g stroke-linejoin="round">
 <g stroke="#000">
 <path d=" M -21.34213 -36.96576 L 0.0 0.0  " fill="none"/>
 <g transform="translate(-10.67107,-18.4829)">
 <g fill="#000">
 <text style="stroke:none" transform="scale(1,-1) translate(0.0,0)" text-anchor="middle"  font-size="10"> 
<g fill="#000">
 <g stroke="none"> </g> </g>
 </text> 
</g>
 </g>
 </g>
 </g>
 <g stroke-linejoin="round">
 <g stroke="#000">
 <path d=" M 0.0 0.0 L -42.68431 0.0  " fill="none"/>
 <g transform="translate(-21.34215,0.0)">
 <g fill="#000">
 <text style="stroke:none" transform="scale(1,-1) translate(0.0,0)" text-anchor="middle"  font-size="10"> 
<g fill="#000">
 <g stroke="none"> </g> </g>
 </text> 
</g>
 </g>
 </g>
 </g>
 <g stroke-linejoin="round">
 <g stroke="#000">
 <path d=" M 42.68431 0.0 L 64.02646 -36.96576  " fill="none"/>
 <g transform="translate(53.35538,-18.48286)">
 <g fill="#000">
 <text style="stroke:none" transform="scale(1,-1) translate(0.0,0)" text-anchor="middle"  font-size="10"> 
<g fill="#000">
 <g stroke="none"> </g> </g>
 </text> 
</g>
 </g>
 </g>
 </g>
 <g stroke-linejoin="round">
 <g stroke="#000">
 <path d=" M 85.36864 0.0 L 42.68431 0.0  " fill="none"/>
 <g transform="translate(64.02649,0.0)">
 <g fill="#000">
 <text style="stroke:none" transform="scale(1,-1) translate(0.0,0)" text-anchor="middle"  font-size="10"> 
<g fill="#000">
 <g stroke="none"> </g> </g>
 </text> 
</g>
 </g>
 </g>
 </g>
 <g fill="#00f">
 <g fill="#00f">
 <path d=" M 2.0 0.0 C 2.0 1.10458 1.10458 2.0 0.0 2.0 C -1.10458 2.0 -2.0 1.10458 -2.0 0.0 C -2.0 -1.10458 -1.10458 -2.0 0.0 -2.0 C 1.10458 -2.0 2.0 -1.10458 2.0 0.0 Z M 0.0 0.0  " stroke="none"/>
 </g>
 <g fill="#000">
 <text style="stroke:none" transform="scale(1,-1) translate(0.0,0)" text-anchor="middle"  font-size="10"> 
<g fill="#000">
 <g stroke="none"> </g> </g>
 </text> 
</g>
 </g>
 <g stroke="#00f" fill="#00f">
 <g stroke="#00f" fill="#00f">
 </g>
 <g transform="translate(-8.53297,-3.22221)">
 <g fill="#00f">
 <text style="stroke:none" transform="scale(1,-1) translate(2.5,0)" text-anchor="middle"  font-size="10"> 
<g fill="#00f">
 <g stroke="none"> 2 </g> </g>
 </text> 
</g>
 </g>
 </g>
 <g fill="#00f">
 <g fill="#00f">
 <path d=" M 44.68431 0.0 C 44.68431 1.10458 43.7889 2.0 42.68431 2.0 C 41.57973 2.0 40.68431 1.10458 40.68431 0.0 C 40.68431 -1.10458 41.57973 -2.0 42.68431 -2.0 C 43.7889 -2.0 44.68431 -1.10458 44.68431 0.0 Z M 42.68431 0.0  " stroke="none"/>
 </g>
 <g transform="translate(42.68431,0.0)">
 <g fill="#000">
 <text style="stroke:none" transform="scale(1,-1) translate(0.0,0)" text-anchor="middle"  font-size="10"> 
<g fill="#000">
 <g stroke="none"> </g> </g>
 </text> 
</g>
 </g>
 </g>
 <g stroke="#00f" fill="#00f">
 <g stroke="#00f" fill="#00f">
 </g>
 <g transform="translate(34.15134,-3.22221)">
 <g fill="#00f">
 <text style="stroke:none" transform="scale(1,-1) translate(2.5,0)" text-anchor="middle"  font-size="10"> 
<g fill="#00f">
 <g stroke="none"> 1 </g> </g>
 </text> 
</g>
 </g>
 </g>
 <g fill="#00f">
 <g fill="#00f">
 <path d=" M 23.34213 36.96576 C 23.34213 38.07034 22.44672 38.96576 21.34213 38.96576 C 20.23755 38.96576 19.34213 38.07034 19.34213 36.96576 C 19.34213 35.86118 20.23755 34.96576 21.34213 34.96576 C 22.44672 34.96576 23.34213 35.86118 23.34213 36.96576 Z M 21.34213 36.96576  " stroke="none"/>
 </g>
 <g transform="translate(21.34213,36.96576)">
 <g fill="#000">
 <text style="stroke:none" transform="scale(1,-1) translate(0.0,0)" text-anchor="middle"  font-size="10"> 
<g fill="#000">
 <g stroke="none"> </g> </g>
 </text> 
</g>
 </g>
 </g>
 <g stroke="#00f" fill="#00f">
 <g stroke="#00f" fill="#00f">
 </g>
 <g transform="translate(12.80916,33.74355)">
 <g fill="#00f">
 <text style="stroke:none" transform="scale(1,-1) translate(2.5,0)" text-anchor="middle"  font-size="10"> 
<g fill="#00f">
 <g stroke="none"> 3 </g> </g>
 </text> 
</g>
 </g>
 </g>
 <g fill="#00f">
 <g fill="#00f">
 <path d=" M 23.34213 -36.96576 C 23.34213 -35.86118 22.44672 -34.96576 21.34213 -34.96576 C 20.23755 -34.96576 19.34213 -35.86118 19.34213 -36.96576 C 19.34213 -38.07034 20.23755 -38.96576 21.34213 -38.96576 C 22.44672 -38.96576 23.34213 -38.07034 23.34213 -36.96576 Z M 21.34213 -36.96576  " stroke="none"/>
 </g>
 <g transform="translate(21.34213,-36.96576)">
 <g fill="#000">
 <text style="stroke:none" transform="scale(1,-1) translate(0.0,0)" text-anchor="middle"  font-size="10"> 
<g fill="#000">
 <g stroke="none"> </g> </g>
 </text> 
</g>
 </g>
 </g>
 <g stroke="#00f" fill="#00f">
 <g stroke="#00f" fill="#00f">
 </g>
 <g transform="translate(12.80916,-40.18797)">
 <g fill="#00f">
 <text style="stroke:none" transform="scale(1,-1) translate(2.5,0)" text-anchor="middle"  font-size="10"> 
<g fill="#00f">
 <g stroke="none"> 4 </g> </g>
 </text> 
</g>
 </g>
 </g>
 <g fill="#00f">
 <g fill="#00f">
 <path d=" M -19.34213 -36.96576 C -19.34213 -35.86118 -20.23755 -34.96576 -21.34213 -34.96576 C -22.44672 -34.96576 -23.34213 -35.86118 -23.34213 -36.96576 C -23.34213 -38.07034 -22.44672 -38.96576 -21.34213 -38.96576 C -20.23755 -38.96576 -19.34213 -38.07034 -19.34213 -36.96576 Z M -21.34213 -36.96576  " stroke="none"/>
 </g>
 <g transform="translate(-21.34213,-36.96576)">
 <g fill="#000">
 <text style="stroke:none" transform="scale(1,-1) translate(0.0,0)" text-anchor="middle"  font-size="10"> 
<g fill="#000">
 <g stroke="none"> </g> </g>
 </text> 
</g>
 </g>
 </g>
 <g stroke="#00f" fill="#00f">
 <g stroke="#00f" fill="#00f">
 </g>
 <g transform="translate(-34.87514,-40.18797)">
 <g fill="#00f">
 <text style="stroke:none" transform="scale(1,-1) translate(5.00002,0)" text-anchor="middle"  font-size="10"> 
<g fill="#00f">
 <g stroke="none"> 10</g> </g>
 </text> 
</g>
 </g>
 </g>
 <g fill="#00f">
 <g fill="#00f">
 <path d=" M -40.68431 0.0 C -40.68431 1.10458 -41.57973 2.0 -42.68431 2.0 C -43.7889 2.0 -44.68431 1.10458 -44.68431 0.0 C -44.68431 -1.10458 -43.7889 -2.0 -42.68431 -2.0 C -41.57973 -2.0 -40.68431 -1.10458 -40.68431 0.0 Z M -42.68431 0.0  " stroke="none"/>
 </g>
 <g transform="translate(-42.68431,0.0)">
 <g fill="#000">
 <text style="stroke:none" transform="scale(1,-1) translate(0.0,0)" text-anchor="middle"  font-size="10"> 
<g fill="#000">
 <g stroke="none"> </g> </g>
 </text> 
</g>
 </g>
 </g>
 <g stroke="#00f" fill="#00f">
 <g stroke="#00f" fill="#00f">
 </g>
 <g transform="translate(-51.21729,-3.22221)">
 <g fill="#00f">
 <text style="stroke:none" transform="scale(1,-1) translate(2.5,0)" text-anchor="middle"  font-size="10"> 
<g fill="#00f">
 <g stroke="none"> 9 </g> </g>
 </text> 
</g>
 </g>
 </g>
 <g fill="#00f">
 <g fill="#00f">
 <path d=" M -19.34213 36.96576 C -19.34213 38.07034 -20.23755 38.96576 -21.34213 38.96576 C -22.44672 38.96576 -23.34213 38.07034 -23.34213 36.96576 C -23.34213 35.86118 -22.44672 34.96576 -21.34213 34.96576 C -20.23755 34.96576 -19.34213 35.86118 -19.34213 36.96576 Z M -21.34213 36.96576  " stroke="none"/>
 </g>
 <g transform="translate(-21.34213,36.96576)">
 <g fill="#000">
 <text style="stroke:none" transform="scale(1,-1) translate(0.0,0)" text-anchor="middle"  font-size="10"> 
<g fill="#000">
 <g stroke="none"> </g> </g>
 </text> 
</g>
 </g>
 </g>
 <g stroke="#00f" fill="#00f">
 <g stroke="#00f" fill="#00f">
 </g>
 <g transform="translate(-29.8751,33.74355)">
 <g fill="#00f">
 <text style="stroke:none" transform="scale(1,-1) translate(2.5,0)" text-anchor="middle"  font-size="10"> 
<g fill="#00f">
 <g stroke="none"> 8 </g> </g>
 </text> 
</g>
 </g>
 </g>
 <g fill="#00f">
 <g fill="#00f">
 <path d=" M 66.02646 36.96576 C 66.02646 38.07034 65.13104 38.96576 64.02646 38.96576 C 62.92188 38.96576 62.02646 38.07034 62.02646 36.96576 C 62.02646 35.86118 62.92188 34.96576 64.02646 34.96576 C 65.13104 34.96576 66.02646 35.86118 66.02646 36.96576 Z M 64.02646 36.96576  " stroke="none"/>
 </g>
 <g transform="translate(64.02646,36.96576)">
 <g fill="#000">
 <text style="stroke:none" transform="scale(1,-1) translate(0.0,0)" text-anchor="middle"  font-size="10"> 
<g fill="#000">
 <g stroke="none"> </g> </g>
 </text> 
</g>
 </g>
 </g>
 <g stroke="#00f" fill="#00f">
 <g stroke="#00f" fill="#00f">
 </g>
 <g transform="translate(55.49348,33.74355)">
 <g fill="#00f">
 <text style="stroke:none" transform="scale(1,-1) translate(2.5,0)" text-anchor="middle"  font-size="10"> 
<g fill="#00f">
 <g stroke="none"> 7 </g> </g>
 </text> 
</g>
 </g>
 </g>
 <g fill="#00f">
 <g fill="#00f">
 <path d=" M 87.36864 0.0 C 87.36864 1.10458 86.47322 2.0 85.36864 2.0 C 84.26405 2.0 83.36864 1.10458 83.36864 0.0 C 83.36864 -1.10458 84.26405 -2.0 85.36864 -2.0 C 86.47322 -2.0 87.36864 -1.10458 87.36864 0.0 Z M 85.36864 0.0  " stroke="none"/>
 </g>
 <g transform="translate(85.36864,0.0)">
 <g fill="#000">
 <text style="stroke:none" transform="scale(1,-1) translate(0.0,0)" text-anchor="middle"  font-size="10"> 
<g fill="#000">
 <g stroke="none"> </g> </g>
 </text> 
</g>
 </g>
 </g>
 <g stroke="#00f" fill="#00f">
 <g stroke="#00f" fill="#00f">
 </g>
 <g transform="translate(76.83566,-3.22221)">
 <g fill="#00f">
 <text style="stroke:none" transform="scale(1,-1) translate(2.5,0)" text-anchor="middle"  font-size="10"> 
<g fill="#00f">
 <g stroke="none"> 6 </g> </g>
 </text> 
</g>
 </g>
 </g>
 <g fill="#00f">
 <g fill="#00f">
 <path d=" M 66.02646 -36.96576 C 66.02646 -35.86118 65.13104 -34.96576 64.02646 -34.96576 C 62.92188 -34.96576 62.02646 -35.86118 62.02646 -36.96576 C 62.02646 -38.07034 62.92188 -38.96576 64.02646 -38.96576 C 65.13104 -38.96576 66.02646 -38.07034 66.02646 -36.96576 Z M 64.02646 -36.96576  " stroke="none"/>
 </g>
 <g transform="translate(64.02646,-36.96576)">
 <g fill="#000">
 <text style="stroke:none" transform="scale(1,-1) translate(0.0,0)" text-anchor="middle"  font-size="10"> 
<g fill="#000">
 <g stroke="none"> </g> </g>
 </text> 
</g>
 </g>
 </g>
 <g stroke="#00f" fill="#00f">
 <g stroke="#00f" fill="#00f">
 </g>
 <g transform="translate(55.49348,-40.18797)">
 <g fill="#00f">
 <text style="stroke:none" transform="scale(1,-1) translate(2.5,0)" text-anchor="middle"  font-size="10"> 
<g fill="#00f">
 <g stroke="none"> 5 </g> </g>
 </text> 
</g>
 </g>
 </g>
 </g>
 </g>
 
                           </g> 
</svg> 
