<?xml version="1.0" encoding="iso-8859-1" standalone="no"?> 
<?xml-stylesheet href="_Wrapper_twisted_polygonal_complex-8.css" type="text/css"?> 
<svg xmlns="http://www.w3.org/2000/svg" xmlns:xlink="http://www.w3.org/1999/xlink" width="152.46265pt" height="108.92006pt" viewBox="-6.86595 -40.23366 152.46265 108.92006 "> 
<g transform="translate(0,68.6864 ) scale(1,-1) translate(0,40.23366 )"> 
<g stroke="#000" fill="#000">
 <g stroke-width="0.4">
 <g stroke-linejoin="round">
 <g stroke="#000">
 <g fill="#ff6">
 <path d=" M 0.0 14.22636 L 56.90549 -28.45274 L 56.90549 56.90549 Z M 56.90549 -28.45274 L 56.90549 56.90549 L 142.26372 56.90549 L 142.26372 -28.45274 Z  " />
 </g>
 </g>
 </g>
 <g stroke="#00f" fill="#00f">
 <g stroke-width="0.8">
 <path d=" M 56.90549 68.2864 L 141.55371 68.2864  " fill="none"/>
 <g transform="translate(141.55371,68.2864)">
 <g stroke-width="0.64">
 <g stroke-dasharray="none" stroke-dashoffset="0.0">
 <g stroke-linecap="round">
 <g stroke-linejoin="round">
 <path d=" M -1.55997 2.07996 C -1.42996 1.29997 0.0 0.12999 0.38998 0.0 C 0.0 -0.12999 -1.42996 -1.29997 -1.55997 -2.07996  " fill="none"/>
 </g>
 </g>
 </g>
 </g>
  </g>
 </g>
 </g>
 <g stroke="#00f" fill="#00f">
 <g stroke-width="0.8">
 <path d=" M 56.90549 -39.83366 L 141.55371 -39.83366  " fill="none"/>
 <g transform="translate(141.55371,-39.83366)">
 <g stroke-width="0.64">
 <g stroke-dasharray="none" stroke-dashoffset="0.0">
 <g stroke-linecap="round">
 <g stroke-linejoin="round">
 <path d=" M -1.55997 2.07996 C -1.42996 1.29997 0.0 0.12999 0.38998 0.0 C 0.0 -0.12999 -1.42996 -1.29997 -1.55997 -2.07996  " fill="none"/>
 </g>
 </g>
 </g>
 </g>
  </g>
 </g>
 </g>
 <g stroke="#f00" fill="#f00">
 <g stroke-width="0.8">
 <path d=" M -5.69046 24.08253 L 50.64705 66.33566  " fill="none"/>
 <g transform="matrix(0.79997,0.59999,-0.59999,0.79997,50.64705,66.33566)">
 <g stroke-width="0.64">
 <g stroke-dasharray="none" stroke-dashoffset="0.0">
 <g stroke-linecap="round">
 <g stroke-linejoin="round">
 <path d=" M -1.55997 2.07996 C -1.42996 1.29997 0.0 0.12999 0.38998 0.0 C 0.0 -0.12999 -1.42996 -1.29997 -1.55997 -2.07996  " fill="none"/>
 </g>
 </g>
 </g>
 </g>
  </g>
 </g>
 </g>
 <g stroke="#f00" fill="#f00">
 <g stroke-width="0.8">
 <path d=" M -5.69046 4.3702 L 50.64705 -37.88292  " fill="none"/>
 <g transform="matrix(0.79997,-0.59999,0.59999,0.79997,50.64705,-37.88292)">
 <g stroke-width="0.64">
 <g stroke-dasharray="none" stroke-dashoffset="0.0">
 <g stroke-linecap="round">
 <g stroke-linejoin="round">
 <path d=" M -1.55997 2.07996 C -1.42996 1.29997 0.0 0.12999 0.38998 0.0 C 0.0 -0.12999 -1.42996 -1.29997 -1.55997 -2.07996  " fill="none"/>
 </g>
 </g>
 </g>
 </g>
  </g>
 </g>
 </g>
 <g stroke="#808080" fill="#808080">
 <path d=" M 28.45274 -7.11319 L 37.9364 14.22615 L 0.0 14.22636  " fill="none"/>
 </g>
 <g transform="translate(19.62936,3.89078)">
 <g fill="#000">
 <text style="stroke:none" transform="scale(1,-1) translate(2.5,0)" text-anchor="middle"  font-size="10"> 
<g fill="#000">
 <g stroke="none"> 1</g> </g>
 </text> 
</g>
 </g>
 <g stroke="#808080" fill="#808080">
 <path d=" M 28.45274 -7.11319 L 37.9364 14.22615 L 56.90549 -28.45274  " fill="none"/>
 </g>
 <g transform="translate(38.59758,-10.33536)">
 <g fill="#000">
 <text style="stroke:none" transform="scale(1,-1) translate(2.5,0)" text-anchor="middle"  font-size="10"> 
<g fill="#000">
 <g stroke="none"> 2</g> </g>
 </text> 
</g>
 </g>
 <g stroke="#808080" fill="#808080">
 <path d=" M 56.90549 14.22638 L 37.9364 14.22615 L 56.90549 -28.45274  " fill="none"/>
 </g>
 <g transform="translate(48.08168,-3.22227)">
 <g fill="#000">
 <text style="stroke:none" transform="scale(1,-1) translate(2.5,0)" text-anchor="middle"  font-size="10"> 
<g fill="#000">
 <g stroke="none"> 3</g> </g>
 </text> 
</g>
 </g>
 <g stroke="#808080" fill="#808080">
 <path d=" M 56.90549 14.22638 L 37.9364 14.22615 L 56.90549 56.90549  " fill="none"/>
 </g>
 <g transform="translate(48.08168,25.23001)">
 <g fill="#000">
 <text style="stroke:none" transform="scale(1,-1) translate(2.5,0)" text-anchor="middle"  font-size="10"> 
<g fill="#000">
 <g stroke="none"> 4</g> </g>
 </text> 
</g>
 </g>
 <g stroke="#808080" fill="#808080">
 <path d=" M 28.45274 35.56592 L 37.9364 14.22615 L 56.90549 56.90549  " fill="none"/>
 </g>
 <g transform="translate(38.59758,32.3431)">
 <g fill="#000">
 <text style="stroke:none" transform="scale(1,-1) translate(2.5,0)" text-anchor="middle"  font-size="10"> 
<g fill="#000">
 <g stroke="none"> 5</g> </g>
 </text> 
</g>
 </g>
 <g stroke="#808080" fill="#808080">
 <path d=" M 28.45274 35.56592 L 37.9364 14.22615 L 0.0 14.22636  " fill="none"/>
 </g>
 <g transform="translate(19.62936,18.11693)">
 <g fill="#000">
 <text style="stroke:none" transform="scale(1,-1) translate(2.5,0)" text-anchor="middle"  font-size="10"> 
<g fill="#000">
 <g stroke="none"> 6</g> </g>
 </text> 
</g>
 </g>
 <g stroke="#808080" fill="#808080">
 <path d=" M 56.90549 14.22638 L 99.5846 14.22636 L 56.90549 56.90549  " fill="none"/>
 </g>
 <g transform="translate(68.63077,25.23009)">
 <g fill="#000">
 <text style="stroke:none" transform="scale(1,-1) translate(2.5,0)" text-anchor="middle"  font-size="10"> 
<g fill="#000">
 <g stroke="none"> 7</g> </g>
 </text> 
</g>
 </g>
 <g stroke="#808080" fill="#808080">
 <path d=" M 56.90549 14.22638 L 99.5846 14.22636 L 56.90549 -28.45274  " fill="none"/>
 </g>
 <g transform="translate(68.63077,-3.22221)">
 <g fill="#000">
 <text style="stroke:none" transform="scale(1,-1) translate(2.5,0)" text-anchor="middle"  font-size="10"> 
<g fill="#000">
 <g stroke="none"> 8</g> </g>
 </text> 
</g>
 </g>
 <g stroke="#808080" fill="#808080">
 <path d=" M 99.5846 -28.45273 L 99.5846 14.22636 L 56.90549 -28.45274  " fill="none"/>
 </g>
 <g transform="translate(82.85692,-17.44836)">
 <g fill="#000">
 <text style="stroke:none" transform="scale(1,-1) translate(2.5,0)" text-anchor="middle"  font-size="10"> 
<g fill="#000">
 <g stroke="none"> 9</g> </g>
 </text> 
</g>
 </g>
 <g stroke="#808080" fill="#808080">
 <path d=" M 99.5846 -28.45273 L 99.5846 14.22636 L 142.26372 -28.45274  " fill="none"/>
 </g>
 <g transform="translate(108.8092,-17.44836)">
 <g fill="#000">
 <text style="stroke:none" transform="scale(1,-1) translate(5.00002,0)" text-anchor="middle"  font-size="10"> 
<g fill="#000">
 <g stroke="none"> 10</g> </g>
 </text> 
</g>
 </g>
 <g stroke="#808080" fill="#808080">
 <path d=" M 142.2637 14.22638 L 99.5846 14.22636 L 142.26372 -28.45274  " fill="none"/>
 </g>
 <g transform="translate(123.03535,-3.22221)">
 <g fill="#000">
 <text style="stroke:none" transform="scale(1,-1) translate(5.00002,0)" text-anchor="middle"  font-size="10"> 
<g fill="#000">
 <g stroke="none"> 11</g> </g>
 </text> 
</g>
 </g>
 <g stroke="#808080" fill="#808080">
 <path d=" M 142.2637 14.22638 L 99.5846 14.22636 L 142.26372 56.90549  " fill="none"/>
 </g>
 <g transform="translate(123.03535,25.23009)">
 <g fill="#000">
 <text style="stroke:none" transform="scale(1,-1) translate(5.00002,0)" text-anchor="middle"  font-size="10"> 
<g fill="#000">
 <g stroke="none"> 12</g> </g>
 </text> 
</g>
 </g>
 <g stroke="#808080" fill="#808080">
 <path d=" M 99.5846 56.90549 L 99.5846 14.22636 L 142.26372 56.90549  " fill="none"/>
 </g>
 <g transform="translate(108.8092,39.45624)">
 <g fill="#000">
 <text style="stroke:none" transform="scale(1,-1) translate(5.00002,0)" text-anchor="middle"  font-size="10"> 
<g fill="#000">
 <g stroke="none"> 13</g> </g>
 </text> 
</g>
 </g>
 <g stroke="#808080" fill="#808080">
 <path d=" M 99.5846 56.90549 L 99.5846 14.22636 L 56.90549 56.90549  " fill="none"/>
 </g>
 <g transform="translate(80.3569,39.45624)">
 <g fill="#000">
 <text style="stroke:none" transform="scale(1,-1) translate(5.00002,0)" text-anchor="middle"  font-size="10"> 
<g fill="#000">
 <g stroke="none"> 14</g> </g>
 </text> 
</g>
 </g>
 <g transform="translate(28.45274,-7.11319)">
 <g fill="#000">
 <text style="stroke:none" transform="scale(1,-1) translate(0.0,0)" text-anchor="middle"  font-size="10"> 
<g fill="#000">
 <g stroke="none"> </g> </g>
 </text> 
</g>
 </g>
 <g transform="translate(28.45274,35.56592)">
 <g fill="#000">
 <text style="stroke:none" transform="scale(1,-1) translate(0.0,0)" text-anchor="middle"  font-size="10"> 
<g fill="#000">
 <g stroke="none"> </g> </g>
 </text> 
</g>
 </g>
 <g transform="translate(56.90549,14.22638)">
 <g fill="#000">
 <text style="stroke:none" transform="scale(1,-1) translate(0.0,0)" text-anchor="middle"  font-size="10"> 
<g fill="#000">
 <g stroke="none"> </g> </g>
 </text> 
</g>
 </g>
 <g transform="translate(99.5846,56.90549)">
 <g fill="#000">
 <text style="stroke:none" transform="scale(1,-1) translate(0.0,0)" text-anchor="middle"  font-size="10"> 
<g fill="#000">
 <g stroke="none"> </g> </g>
 </text> 
</g>
 </g>
 <g transform="translate(99.5846,-28.45273)">
 <g fill="#000">
 <text style="stroke:none" transform="scale(1,-1) translate(0.0,0)" text-anchor="middle"  font-size="10"> 
<g fill="#000">
 <g stroke="none"> </g> </g>
 </text> 
</g>
 </g>
 <g transform="translate(142.2637,14.22638)">
 <g fill="#000">
 <text style="stroke:none" transform="scale(1,-1) translate(0.0,0)" text-anchor="middle"  font-size="10"> 
<g fill="#000">
 <g stroke="none"> </g> </g>
 </text> 
</g>
 </g>
 <g fill="#00f">
 <g fill="#00f">
 <path d=" M 2.0 14.22636 C 2.0 15.33095 1.10458 16.22636 0.0 16.22636 C -1.10458 16.22636 -2.0 15.33095 -2.0 14.22636 C -2.0 13.12178 -1.10458 12.22636 0.0 12.22636 C 1.10458 12.22636 2.0 13.12178 2.0 14.22636 Z M 0.0 14.22636  " stroke="none"/>
 </g>
 <g transform="translate(0.0,14.22636)">
 <g fill="#000">
 <text style="stroke:none" transform="scale(1,-1) translate(0.0,0)" text-anchor="middle"  font-size="10"> 
<g fill="#000">
 <g stroke="none"> </g> </g>
 </text> 
</g>
 </g>
 </g>
 <g transform="translate(-3.53297,14.22636)">
 <g fill="#000">
 <text style="stroke:none" transform="scale(1,-1) translate(0.0,0)" text-anchor="middle"  font-size="10"> 
<g fill="#000">
 <g stroke="none"> </g> </g>
 </text> 
</g>
 </g>
 <g fill="#00f">
 <g fill="#00f">
 <path d=" M 58.90549 -28.45274 C 58.90549 -27.34816 58.01007 -26.45274 56.90549 -26.45274 C 55.8009 -26.45274 54.90549 -27.34816 54.90549 -28.45274 C 54.90549 -29.55733 55.8009 -30.45274 56.90549 -30.45274 C 58.01007 -30.45274 58.90549 -29.55733 58.90549 -28.45274 Z M 56.90549 -28.45274  " stroke="none"/>
 </g>
 <g transform="translate(56.90549,-28.45274)">
 <g fill="#000">
 <text style="stroke:none" transform="scale(1,-1) translate(0.0,0)" text-anchor="middle"  font-size="10"> 
<g fill="#000">
 <g stroke="none"> </g> </g>
 </text> 
</g>
 </g>
 </g>
 <g transform="translate(56.90549,-31.98572)">
 <g fill="#000">
 <text style="stroke:none" transform="scale(1,-1) translate(0.0,0)" text-anchor="middle"  font-size="10"> 
<g fill="#000">
 <g stroke="none"> </g> </g>
 </text> 
</g>
 </g>
 <g fill="#00f">
 <g fill="#00f">
 <path d=" M 58.90549 56.90549 C 58.90549 58.01007 58.01007 58.90549 56.90549 58.90549 C 55.8009 58.90549 54.90549 58.01007 54.90549 56.90549 C 54.90549 55.8009 55.8009 54.90549 56.90549 54.90549 C 58.01007 54.90549 58.90549 55.8009 58.90549 56.90549 Z M 56.90549 56.90549  " stroke="none"/>
 </g>
 <g transform="translate(56.90549,56.90549)">
 <g fill="#000">
 <text style="stroke:none" transform="scale(1,-1) translate(0.0,0)" text-anchor="middle"  font-size="10"> 
<g fill="#000">
 <g stroke="none"> </g> </g>
 </text> 
</g>
 </g>
 </g>
 <g transform="translate(56.90549,60.43846)">
 <g fill="#000">
 <text style="stroke:none" transform="scale(1,-1) translate(0.0,0)" text-anchor="middle"  font-size="10"> 
<g fill="#000">
 <g stroke="none"> </g> </g>
 </text> 
</g>
 </g>
 <g fill="#00f">
 <g fill="#00f">
 <path d=" M 144.26372 56.90549 C 144.26372 58.01007 143.3683 58.90549 142.26372 58.90549 C 141.15913 58.90549 140.26372 58.01007 140.26372 56.90549 C 140.26372 55.8009 141.15913 54.90549 142.26372 54.90549 C 143.3683 54.90549 144.26372 55.8009 144.26372 56.90549 Z M 142.26372 56.90549  " stroke="none"/>
 </g>
 <g transform="translate(142.26372,56.90549)">
 <g fill="#000">
 <text style="stroke:none" transform="scale(1,-1) translate(0.0,0)" text-anchor="middle"  font-size="10"> 
<g fill="#000">
 <g stroke="none"> </g> </g>
 </text> 
</g>
 </g>
 </g>
 <g transform="translate(142.26372,60.43846)">
 <g fill="#000">
 <text style="stroke:none" transform="scale(1,-1) translate(0.0,0)" text-anchor="middle"  font-size="10"> 
<g fill="#000">
 <g stroke="none"> </g> </g>
 </text> 
</g>
 </g>
 <g fill="#00f">
 <g fill="#00f">
 <path d=" M 144.26372 -28.45274 C 144.26372 -27.34816 143.3683 -26.45274 142.26372 -26.45274 C 141.15913 -26.45274 140.26372 -27.34816 140.26372 -28.45274 C 140.26372 -29.55733 141.15913 -30.45274 142.26372 -30.45274 C 143.3683 -30.45274 144.26372 -29.55733 144.26372 -28.45274 Z M 142.26372 -28.45274  " stroke="none"/>
 </g>
 <g transform="translate(142.26372,-28.45274)">
 <g fill="#000">
 <text style="stroke:none" transform="scale(1,-1) translate(0.0,0)" text-anchor="middle"  font-size="10"> 
<g fill="#000">
 <g stroke="none"> </g> </g>
 </text> 
</g>
 </g>
 </g>
 <g transform="translate(142.26372,-31.98572)">
 <g fill="#000">
 <text style="stroke:none" transform="scale(1,-1) translate(0.0,0)" text-anchor="middle"  font-size="10"> 
<g fill="#000">
 <g stroke="none"> </g> </g>
 </text> 
</g>
 </g>
 <g fill="#ff6">
 <g fill="#ff6">
 <path d=" M 32.79787 7.47652 h 10.27707 v 13.49927 h -10.27707 Z  " stroke="none"/>
 </g>
 <g transform="translate(36.13084,10.8095)">
 <g fill="#000">
 <text style="stroke:none" transform="scale(1,-1) translate(1.80556,0)" text-anchor="middle"  font-size="10"> 
<g fill="#000">
 <g stroke="none"> I</g> </g>
 </text> 
</g>
 </g>
 </g>
 <g fill="#ff6">
 <g fill="#ff6">
 <path d=" M 90.69606 7.47673 h 17.77707 v 13.49927 h -17.77707 Z  " stroke="none"/>
 </g>
 <g transform="translate(94.02904,10.80971)">
 <g fill="#000">
 <text style="stroke:none" transform="scale(1,-1) translate(5.55556,0)" text-anchor="middle"  font-size="10"> 
<g fill="#000">
 <g stroke="none"> IX</g> </g>
 </text> 
</g>
 </g>
 </g>
 </g>
 </g>
 
                             </g> 
</svg> 
