<?xml version="1.0" encoding="iso-8859-1" standalone="no"?> 
<?xml-stylesheet href="_Wrapper_constructors-13.css" type="text/css"?> 
<svg xmlns="http://www.w3.org/2000/svg" xmlns:xlink="http://www.w3.org/1999/xlink" width="218.15436pt" height="206.77136pt" viewBox="-111.5772 -102.0272 218.15436 206.77136 "> 
<g transform="translate(0,104.74416 ) scale(1,-1) translate(0,102.0272 )"> 
                     <g stroke="#000" fill="#000">
 <g stroke-width="0.4">
 <g stroke-linejoin="round">
 <g stroke="#000">
 <g fill="#ffd4d4">
 <path d=" M 0.0 56.90549 L -25.08586 91.43378 L 25.08586 91.43378 Z M 0.0 56.90549 L -54.12082 17.58498 L -79.20668 52.11327 L -25.08586 91.43378 Z M -94.71121 4.39624 L -79.20668 52.11327 L -54.12082 17.58498 Z M -74.03851 -59.22646 L -94.71121 4.39624 L -54.12082 17.58498 L -33.44812 -46.03772 Z M -33.44812 -88.71683 L -74.03851 -59.22646 L -33.44812 -46.03772 Z M 33.44812 -88.71683 L -33.44812 -88.71683 L -33.44812 -46.03772 L 33.44812 -46.03772 Z M 74.03851 -59.22646 L 33.44812 -88.71683 L 33.44812 -46.03772 Z M 94.71121 4.39624 L 74.03851 -59.22646 L 33.44812 -46.03772 L 54.12082 17.58498 Z M 79.20668 52.11327 L 94.71121 4.39624 L 54.12082 17.58498 Z M 25.08586 91.43378 L 79.20668 52.11327 L 54.12082 17.58498 L 0.0 56.90549 Z  " />
 <g transform="translate(0.0,91.43378)">
 <g fill="#000">
 <text style="stroke:none" transform="scale(1,-1) translate(0.0,0)" text-anchor="middle"  font-size="10"> 
<g fill="#000">
 <g stroke="none"> </g> </g>
 </text> 
</g>
 </g>
 <g transform="translate(-27.06041,37.24524)">
 <g fill="#000">
 <text style="stroke:none" transform="scale(1,-1) translate(0.0,0)" text-anchor="middle"  font-size="10"> 
<g fill="#000">
 <g stroke="none"> </g> </g>
 </text> 
</g>
 </g>
 <g transform="translate(-52.14627,71.77351)">
 <g fill="#000">
 <text style="stroke:none" transform="scale(1,-1) translate(0.0,0)" text-anchor="middle"  font-size="10"> 
<g fill="#000">
 <g stroke="none"> </g> </g>
 </text> 
</g>
 </g>
 <g transform="translate(-12.54294,74.16963)">
 <g fill="#000">
 <text style="stroke:none" transform="scale(1,-1) translate(0.0,0)" text-anchor="middle"  font-size="10"> 
<g fill="#000">
 <g stroke="none"> </g> </g>
 </text> 
</g>
 </g>
 <g transform="translate(-86.95895,28.25475)">
 <g fill="#000">
 <text style="stroke:none" transform="scale(1,-1) translate(0.0,0)" text-anchor="middle"  font-size="10"> 
<g fill="#000">
 <g stroke="none"> </g> </g>
 </text> 
</g>
 </g>
 <g transform="translate(-66.66376,34.84912)">
 <g fill="#000">
 <text style="stroke:none" transform="scale(1,-1) translate(0.0,0)" text-anchor="middle"  font-size="10"> 
<g fill="#000">
 <g stroke="none"> </g> </g>
 </text> 
</g>
 </g>
 <g transform="translate(-84.37486,-27.41512)">
 <g fill="#000">
 <text style="stroke:none" transform="scale(1,-1) translate(0.0,0)" text-anchor="middle"  font-size="10"> 
<g fill="#000">
 <g stroke="none"> </g> </g>
 </text> 
</g>
 </g>
 <g transform="translate(-74.41602,10.9906)">
 <g fill="#000">
 <text style="stroke:none" transform="scale(1,-1) translate(0.0,0)" text-anchor="middle"  font-size="10"> 
<g fill="#000">
 <g stroke="none"> </g> </g>
 </text> 
</g>
 </g>
 <g transform="translate(-43.78447,-14.22636)">
 <g fill="#000">
 <text style="stroke:none" transform="scale(1,-1) translate(0.0,0)" text-anchor="middle"  font-size="10"> 
<g fill="#000">
 <g stroke="none"> </g> </g>
 </text> 
</g>
 </g>
 <g transform="translate(-53.74332,-73.97165)">
 <g fill="#000">
 <text style="stroke:none" transform="scale(1,-1) translate(0.0,0)" text-anchor="middle"  font-size="10"> 
<g fill="#000">
 <g stroke="none"> </g> </g>
 </text> 
</g>
 </g>
 <g transform="translate(-53.74332,-52.6321)">
 <g fill="#000">
 <text style="stroke:none" transform="scale(1,-1) translate(0.0,0)" text-anchor="middle"  font-size="10"> 
<g fill="#000">
 <g stroke="none"> </g> </g>
 </text> 
</g>
 </g>
 <g transform="translate(0.0,-88.71683)">
 <g fill="#000">
 <text style="stroke:none" transform="scale(1,-1) translate(0.0,0)" text-anchor="middle"  font-size="10"> 
<g fill="#000">
 <g stroke="none"> </g> </g>
 </text> 
</g>
 </g>
 <g transform="translate(-33.44812,-67.37727)">
 <g fill="#000">
 <text style="stroke:none" transform="scale(1,-1) translate(0.0,0)" text-anchor="middle"  font-size="10"> 
<g fill="#000">
 <g stroke="none"> </g> </g>
 </text> 
</g>
 </g>
 <g transform="translate(0.0,-46.03772)">
 <g fill="#000">
 <text style="stroke:none" transform="scale(1,-1) translate(0.0,0)" text-anchor="middle"  font-size="10"> 
<g fill="#000">
 <g stroke="none"> </g> </g>
 </text> 
</g>
 </g>
 <g transform="translate(53.74332,-73.97163)">
 <g fill="#000">
 <text style="stroke:none" transform="scale(1,-1) translate(0.0,0)" text-anchor="middle"  font-size="10"> 
<g fill="#000">
 <g stroke="none"> </g> </g>
 </text> 
</g>
 </g>
 <g transform="translate(33.44812,-67.37727)">
 <g fill="#000">
 <text style="stroke:none" transform="scale(1,-1) translate(0.0,0)" text-anchor="middle"  font-size="10"> 
<g fill="#000">
 <g stroke="none"> </g> </g>
 </text> 
</g>
 </g>
 <g transform="translate(84.37486,-27.4151)">
 <g fill="#000">
 <text style="stroke:none" transform="scale(1,-1) translate(0.0,0)" text-anchor="middle"  font-size="10"> 
<g fill="#000">
 <g stroke="none"> </g> </g>
 </text> 
</g>
 </g>
 <g transform="translate(53.74332,-52.6321)">
 <g fill="#000">
 <text style="stroke:none" transform="scale(1,-1) translate(0.0,0)" text-anchor="middle"  font-size="10"> 
<g fill="#000">
 <g stroke="none"> </g> </g>
 </text> 
</g>
 </g>
 <g transform="translate(43.78447,-14.22638)">
 <g fill="#000">
 <text style="stroke:none" transform="scale(1,-1) translate(0.0,0)" text-anchor="middle"  font-size="10"> 
<g fill="#000">
 <g stroke="none"> </g> </g>
 </text> 
</g>
 </g>
 <g transform="translate(86.95894,28.25476)">
 <g fill="#000">
 <text style="stroke:none" transform="scale(1,-1) translate(0.0,0)" text-anchor="middle"  font-size="10"> 
<g fill="#000">
 <g stroke="none"> </g> </g>
 </text> 
</g>
 </g>
 <g transform="translate(74.41602,10.9906)">
 <g fill="#000">
 <text style="stroke:none" transform="scale(1,-1) translate(0.0,0)" text-anchor="middle"  font-size="10"> 
<g fill="#000">
 <g stroke="none"> </g> </g>
 </text> 
</g>
 </g>
 <g transform="translate(52.14627,71.77353)">
 <g fill="#000">
 <text style="stroke:none" transform="scale(1,-1) translate(0.0,0)" text-anchor="middle"  font-size="10"> 
<g fill="#000">
 <g stroke="none"> </g> </g>
 </text> 
</g>
 </g>
 <g transform="translate(66.66376,34.84912)">
 <g fill="#000">
 <text style="stroke:none" transform="scale(1,-1) translate(0.0,0)" text-anchor="middle"  font-size="10"> 
<g fill="#000">
 <g stroke="none"> </g> </g>
 </text> 
</g>
 </g>
 <g transform="translate(27.06041,37.24522)">
 <g fill="#000">
 <text style="stroke:none" transform="scale(1,-1) translate(0.0,0)" text-anchor="middle"  font-size="10"> 
<g fill="#000">
 <g stroke="none"> </g> </g>
 </text> 
</g>
 </g>
 <g transform="translate(12.54292,74.16963)">
 <g fill="#000">
 <text style="stroke:none" transform="scale(1,-1) translate(0.0,0)" text-anchor="middle"  font-size="10"> 
<g fill="#000">
 <g stroke="none"> </g> </g>
 </text> 
</g>
 </g>
 </g>
 </g>
 </g>
 <g transform="translate(-1.80556,76.50647)">
 <g fill="#000">
 <text style="stroke:none" transform="scale(1,-1) translate(1.80556,0)" text-anchor="middle"  font-size="10"> 
<g fill="#000">
 <g stroke="none"> I</g> </g>
 </text> 
</g>
 </g>
 <g transform="translate(-81.56729,21.28111)">
 <g fill="#000">
 <text style="stroke:none" transform="scale(1,-1) translate(5.55556,0)" text-anchor="middle"  font-size="10"> 
<g fill="#000">
 <g stroke="none"> IX</g> </g>
 </text> 
</g>
 </g>
 <g transform="translate(-54.47754,-68.076)">
 <g fill="#000">
 <text style="stroke:none" transform="scale(1,-1) translate(7.50002,0)" text-anchor="middle"  font-size="10"> 
<g fill="#000">
 <g stroke="none"> VII</g> </g>
 </text> 
</g>
 </g>
 <g transform="translate(43.22752,-68.076)">
 <g fill="#000">
 <text style="stroke:none" transform="scale(1,-1) translate(3.75,0)" text-anchor="middle"  font-size="10"> 
<g fill="#000">
 <g stroke="none"> V </g> </g>
 </text> 
</g>
 </g>
 <g transform="translate(70.31728,21.28111)">
 <g fill="#000">
 <text style="stroke:none" transform="scale(1,-1) translate(5.69446,0)" text-anchor="middle"  font-size="10"> 
<g fill="#000">
 <g stroke="none"> III </g> </g>
 </text> 
</g>
 </g>
 <g transform="translate(-43.35333,51.09271)">
 <g fill="#000">
 <text style="stroke:none" transform="scale(1,-1) translate(3.75,0)" text-anchor="middle"  font-size="10"> 
<g fill="#000">
 <g stroke="none"> X </g> </g>
 </text> 
</g>
 </g>
 <g transform="translate(-73.52412,-24.2374)">
 <g fill="#000">
 <text style="stroke:none" transform="scale(1,-1) translate(9.44446,0)" text-anchor="middle"  font-size="10"> 
<g fill="#000">
 <g stroke="none"> VIII</g> </g>
 </text> 
</g>
 </g>
 <g transform="translate(-5.55556,-70.79393)">
 <g fill="#000">
 <text style="stroke:none" transform="scale(1,-1) translate(5.55556,0)" text-anchor="middle"  font-size="10"> 
<g fill="#000">
 <g stroke="none"> VI </g> </g>
 </text> 
</g>
 </g>
 <g transform="translate(58.52411,-24.2374)">
 <g fill="#000">
 <text style="stroke:none" transform="scale(1,-1) translate(5.55556,0)" text-anchor="middle"  font-size="10"> 
<g fill="#000">
 <g stroke="none"> IV </g> </g>
 </text> 
</g>
 </g>
 <g transform="translate(35.85333,51.09271)">
 <g fill="#000">
 <text style="stroke:none" transform="scale(1,-1) translate(3.75,0)" text-anchor="middle"  font-size="10"> 
<g fill="#000">
 <g stroke="none"> II </g> </g>
 </text> 
</g>
 </g>
 <g fill="#00f">
 <g fill="#00f">
 <path d=" M 2.0 56.90549 C 2.0 58.01007 1.10458 58.90549 0.0 58.90549 C -1.10458 58.90549 -2.0 58.01007 -2.0 56.90549 C -2.0 55.8009 -1.10458 54.90549 0.0 54.90549 C 1.10458 54.90549 2.0 55.8009 2.0 56.90549 Z M 0.0 56.90549  " stroke="none"/>
 </g>
 <g transform="translate(0.0,56.90549)">
 <g fill="#000">
 <text style="stroke:none" transform="scale(1,-1) translate(0.0,0)" text-anchor="middle"  font-size="10"> 
<g fill="#000">
 <g stroke="none"> </g> </g>
 </text> 
</g>
 </g>
 </g>
 <g stroke="#00f" fill="#00f">
 <g stroke="#00f" fill="#00f">
 </g>
 <g transform="translate(-2.5,46.92809)">
 <g fill="#00f">
 <text style="stroke:none" transform="scale(1,-1) translate(2.5,0)" text-anchor="middle"  font-size="10"> 
<g fill="#00f">
 <g stroke="none"> 1 </g> </g>
 </text> 
</g>
 </g>
 </g>
 <g fill="#00f">
 <g fill="#00f">
 <path d=" M 56.12082 17.58498 C 56.12082 18.68956 55.2254 19.58498 54.12082 19.58498 C 53.01624 19.58498 52.12082 18.68956 52.12082 17.58498 C 52.12082 16.4804 53.01624 15.58498 54.12082 15.58498 C 55.2254 15.58498 56.12082 16.4804 56.12082 17.58498 Z M 54.12082 17.58498  " stroke="none"/>
 </g>
 <g transform="translate(54.12082,17.58498)">
 <g fill="#000">
 <text style="stroke:none" transform="scale(1,-1) translate(0.0,0)" text-anchor="middle"  font-size="10"> 
<g fill="#000">
 <g stroke="none"> </g> </g>
 </text> 
</g>
 </g>
 </g>
 <g stroke="#00f" fill="#00f">
 <g stroke="#00f" fill="#00f">
 </g>
 <g transform="translate(45.58784,14.36276)">
 <g fill="#00f">
 <text style="stroke:none" transform="scale(1,-1) translate(2.5,0)" text-anchor="middle"  font-size="10"> 
<g fill="#00f">
 <g stroke="none"> 2 </g> </g>
 </text> 
</g>
 </g>
 </g>
 <g fill="#00f">
 <g fill="#00f">
 <path d=" M 35.44812 -46.03772 C 35.44812 -44.93314 34.5527 -44.03772 33.44812 -44.03772 C 32.34354 -44.03772 31.44812 -44.93314 31.44812 -46.03772 C 31.44812 -47.1423 32.34354 -48.03772 33.44812 -48.03772 C 34.5527 -48.03772 35.44812 -47.1423 35.44812 -46.03772 Z M 33.44812 -46.03772  " stroke="none"/>
 </g>
 <g transform="translate(33.44812,-46.03772)">
 <g fill="#000">
 <text style="stroke:none" transform="scale(1,-1) translate(0.0,0)" text-anchor="middle"  font-size="10"> 
<g fill="#000">
 <g stroke="none"> </g> </g>
 </text> 
</g>
 </g>
 </g>
 <g stroke="#00f" fill="#00f">
 <g stroke="#00f" fill="#00f">
 </g>
 <g transform="translate(30.94812,-42.50475)">
 <g fill="#00f">
 <text style="stroke:none" transform="scale(1,-1) translate(2.5,0)" text-anchor="middle"  font-size="10"> 
<g fill="#00f">
 <g stroke="none"> 3 </g> </g>
 </text> 
</g>
 </g>
 </g>
 <g fill="#00f">
 <g fill="#00f">
 <path d=" M -31.44812 -46.03772 C -31.44812 -44.93314 -32.34354 -44.03772 -33.44812 -44.03772 C -34.5527 -44.03772 -35.44812 -44.93314 -35.44812 -46.03772 C -35.44812 -47.1423 -34.5527 -48.03772 -33.44812 -48.03772 C -32.34354 -48.03772 -31.44812 -47.1423 -31.44812 -46.03772 Z M -33.44812 -46.03772  " stroke="none"/>
 </g>
 <g transform="translate(-33.44812,-46.03772)">
 <g fill="#000">
 <text style="stroke:none" transform="scale(1,-1) translate(0.0,0)" text-anchor="middle"  font-size="10"> 
<g fill="#000">
 <g stroke="none"> </g> </g>
 </text> 
</g>
 </g>
 </g>
 <g stroke="#00f" fill="#00f">
 <g stroke="#00f" fill="#00f">
 </g>
 <g transform="translate(-35.94812,-42.50475)">
 <g fill="#00f">
 <text style="stroke:none" transform="scale(1,-1) translate(2.5,0)" text-anchor="middle"  font-size="10"> 
<g fill="#00f">
 <g stroke="none"> 4 </g> </g>
 </text> 
</g>
 </g>
 </g>
 <g fill="#00f">
 <g fill="#00f">
 <path d=" M -52.12082 17.58498 C -52.12082 18.68956 -53.01624 19.58498 -54.12082 19.58498 C -55.2254 19.58498 -56.12082 18.68956 -56.12082 17.58498 C -56.12082 16.4804 -55.2254 15.58498 -54.12082 15.58498 C -53.01624 15.58498 -52.12082 16.4804 -52.12082 17.58498 Z M -54.12082 17.58498  " stroke="none"/>
 </g>
 <g transform="translate(-54.12082,17.58498)">
 <g fill="#000">
 <text style="stroke:none" transform="scale(1,-1) translate(0.0,0)" text-anchor="middle"  font-size="10"> 
<g fill="#000">
 <g stroke="none"> </g> </g>
 </text> 
</g>
 </g>
 </g>
 <g stroke="#00f" fill="#00f">
 <g stroke="#00f" fill="#00f">
 </g>
 <g transform="translate(-50.58784,14.36276)">
 <g fill="#00f">
 <text style="stroke:none" transform="scale(1,-1) translate(2.5,0)" text-anchor="middle"  font-size="10"> 
<g fill="#00f">
 <g stroke="none"> 5 </g> </g>
 </text> 
</g>
 </g>
 </g>
 <g fill="#00f">
 <g fill="#00f">
 <path d=" M 27.08586 91.43378 C 27.08586 92.53836 26.19044 93.43378 25.08586 93.43378 C 23.98128 93.43378 23.08586 92.53836 23.08586 91.43378 C 23.08586 90.3292 23.98128 89.43378 25.08586 89.43378 C 26.19044 89.43378 27.08586 90.3292 27.08586 91.43378 Z M 25.08586 91.43378  " stroke="none"/>
 </g>
 <g transform="translate(25.08586,91.43378)">
 <g fill="#000">
 <text style="stroke:none" transform="scale(1,-1) translate(0.0,0)" text-anchor="middle"  font-size="10"> 
<g fill="#000">
 <g stroke="none"> </g> </g>
 </text> 
</g>
 </g>
 </g>
 <g stroke="#00f" fill="#00f">
 <g stroke="#00f" fill="#00f">
 </g>
 <g transform="translate(22.58586,94.96675)">
 <g fill="#00f">
 <text style="stroke:none" transform="scale(1,-1) translate(2.5,0)" text-anchor="middle"  font-size="10"> 
<g fill="#00f">
 <g stroke="none"> 6 </g> </g>
 </text> 
</g>
 </g>
 </g>
 <g fill="#00f">
 <g fill="#00f">
 <path d=" M 81.20668 52.11327 C 81.20668 53.21785 80.31126 54.11327 79.20668 54.11327 C 78.1021 54.11327 77.20668 53.21785 77.20668 52.11327 C 77.20668 51.00868 78.1021 50.11327 79.20668 50.11327 C 80.31126 50.11327 81.20668 51.00868 81.20668 52.11327 Z M 79.20668 52.11327  " stroke="none"/>
 </g>
 <g transform="translate(79.20668,52.11327)">
 <g fill="#000">
 <text style="stroke:none" transform="scale(1,-1) translate(0.0,0)" text-anchor="middle"  font-size="10"> 
<g fill="#000">
 <g stroke="none"> </g> </g>
 </text> 
</g>
 </g>
 </g>
 <g stroke="#00f" fill="#00f">
 <g stroke="#00f" fill="#00f">
 </g>
 <g transform="translate(82.73965,48.89105)">
 <g fill="#00f">
 <text style="stroke:none" transform="scale(1,-1) translate(2.5,0)" text-anchor="middle"  font-size="10"> 
<g fill="#00f">
 <g stroke="none"> 7 </g> </g>
 </text> 
</g>
 </g>
 </g>
 <g fill="#00f">
 <g fill="#00f">
 <path d=" M 96.71121 4.39624 C 96.71121 5.50082 95.8158 6.39624 94.71121 6.39624 C 93.60663 6.39624 92.71121 5.50082 92.71121 4.39624 C 92.71121 3.29166 93.60663 2.39624 94.71121 2.39624 C 95.8158 2.39624 96.71121 3.29166 96.71121 4.39624 Z M 94.71121 4.39624  " stroke="none"/>
 </g>
 <g transform="translate(94.71121,4.39624)">
 <g fill="#000">
 <text style="stroke:none" transform="scale(1,-1) translate(0.0,0)" text-anchor="middle"  font-size="10"> 
<g fill="#000">
 <g stroke="none"> </g> </g>
 </text> 
</g>
 </g>
 </g>
 <g stroke="#00f" fill="#00f">
 <g stroke="#00f" fill="#00f">
 </g>
 <g transform="translate(98.24419,1.17403)">
 <g fill="#00f">
 <text style="stroke:none" transform="scale(1,-1) translate(2.5,0)" text-anchor="middle"  font-size="10"> 
<g fill="#00f">
 <g stroke="none"> 8 </g> </g>
 </text> 
</g>
 </g>
 </g>
 <g fill="#00f">
 <g fill="#00f">
 <path d=" M 76.03851 -59.22646 C 76.03851 -58.12187 75.1431 -57.22646 74.03851 -57.22646 C 72.93393 -57.22646 72.03851 -58.12187 72.03851 -59.22646 C 72.03851 -60.33104 72.93393 -61.22646 74.03851 -61.22646 C 75.1431 -61.22646 76.03851 -60.33104 76.03851 -59.22646 Z M 74.03851 -59.22646  " stroke="none"/>
 </g>
 <g transform="translate(74.03851,-59.22646)">
 <g fill="#000">
 <text style="stroke:none" transform="scale(1,-1) translate(0.0,0)" text-anchor="middle"  font-size="10"> 
<g fill="#000">
 <g stroke="none"> </g> </g>
 </text> 
</g>
 </g>
 </g>
 <g stroke="#00f" fill="#00f">
 <g stroke="#00f" fill="#00f">
 </g>
 <g transform="translate(77.57149,-62.44867)">
 <g fill="#00f">
 <text style="stroke:none" transform="scale(1,-1) translate(2.5,0)" text-anchor="middle"  font-size="10"> 
<g fill="#00f">
 <g stroke="none"> 9 </g> </g>
 </text> 
</g>
 </g>
 </g>
 <g fill="#00f">
 <g fill="#00f">
 <path d=" M 35.44812 -88.71683 C 35.44812 -87.61224 34.5527 -86.71683 33.44812 -86.71683 C 32.34354 -86.71683 31.44812 -87.61224 31.44812 -88.71683 C 31.44812 -89.82141 32.34354 -90.71683 33.44812 -90.71683 C 34.5527 -90.71683 35.44812 -89.82141 35.44812 -88.71683 Z M 33.44812 -88.71683  " stroke="none"/>
 </g>
 <g transform="translate(33.44812,-88.71683)">
 <g fill="#000">
 <text style="stroke:none" transform="scale(1,-1) translate(0.0,0)" text-anchor="middle"  font-size="10"> 
<g fill="#000">
 <g stroke="none"> </g> </g>
 </text> 
</g>
 </g>
 </g>
 <g stroke="#00f" fill="#00f">
 <g stroke="#00f" fill="#00f">
 </g>
 <g transform="translate(28.4481,-98.69423)">
 <g fill="#00f">
 <text style="stroke:none" transform="scale(1,-1) translate(5.00002,0)" text-anchor="middle"  font-size="10"> 
<g fill="#00f">
 <g stroke="none"> 10 </g> </g>
 </text> 
</g>
 </g>
 </g>
 <g fill="#00f">
 <g fill="#00f">
 <path d=" M -31.44812 -88.71683 C -31.44812 -87.61224 -32.34354 -86.71683 -33.44812 -86.71683 C -34.5527 -86.71683 -35.44812 -87.61224 -35.44812 -88.71683 C -35.44812 -89.82141 -34.5527 -90.71683 -33.44812 -90.71683 C -32.34354 -90.71683 -31.44812 -89.82141 -31.44812 -88.71683 Z M -33.44812 -88.71683  " stroke="none"/>
 </g>
 <g transform="translate(-33.44812,-88.71683)">
 <g fill="#000">
 <text style="stroke:none" transform="scale(1,-1) translate(0.0,0)" text-anchor="middle"  font-size="10"> 
<g fill="#000">
 <g stroke="none"> </g> </g>
 </text> 
</g>
 </g>
 </g>
 <g stroke="#00f" fill="#00f">
 <g stroke="#00f" fill="#00f">
 </g>
 <g transform="translate(-38.44814,-98.69423)">
 <g fill="#00f">
 <text style="stroke:none" transform="scale(1,-1) translate(5.00002,0)" text-anchor="middle"  font-size="10"> 
<g fill="#00f">
 <g stroke="none"> 11 </g> </g>
 </text> 
</g>
 </g>
 </g>
 <g fill="#00f">
 <g fill="#00f">
 <path d=" M -72.03851 -59.22646 C -72.03851 -58.12187 -72.93393 -57.22646 -74.03851 -57.22646 C -75.1431 -57.22646 -76.03851 -58.12187 -76.03851 -59.22646 C -76.03851 -60.33104 -75.1431 -61.22646 -74.03851 -61.22646 C -72.93393 -61.22646 -72.03851 -60.33104 -72.03851 -59.22646 Z M -74.03851 -59.22646  " stroke="none"/>
 </g>
 <g transform="translate(-74.03851,-59.22646)">
 <g fill="#000">
 <text style="stroke:none" transform="scale(1,-1) translate(0.0,0)" text-anchor="middle"  font-size="10"> 
<g fill="#000">
 <g stroke="none"> </g> </g>
 </text> 
</g>
 </g>
 </g>
 <g stroke="#00f" fill="#00f">
 <g stroke="#00f" fill="#00f">
 </g>
 <g transform="translate(-87.57152,-62.44867)">
 <g fill="#00f">
 <text style="stroke:none" transform="scale(1,-1) translate(5.00002,0)" text-anchor="middle"  font-size="10"> 
<g fill="#00f">
 <g stroke="none"> 12 </g> </g>
 </text> 
</g>
 </g>
 </g>
 <g fill="#00f">
 <g fill="#00f">
 <path d=" M -92.71121 4.39624 C -92.71121 5.50082 -93.60663 6.39624 -94.71121 6.39624 C -95.8158 6.39624 -96.71121 5.50082 -96.71121 4.39624 C -96.71121 3.29166 -95.8158 2.39624 -94.71121 2.39624 C -93.60663 2.39624 -92.71121 3.29166 -92.71121 4.39624 Z M -94.71121 4.39624  " stroke="none"/>
 </g>
 <g transform="translate(-94.71121,4.39624)">
 <g fill="#000">
 <text style="stroke:none" transform="scale(1,-1) translate(0.0,0)" text-anchor="middle"  font-size="10"> 
<g fill="#000">
 <g stroke="none"> </g> </g>
 </text> 
</g>
 </g>
 </g>
 <g stroke="#00f" fill="#00f">
 <g stroke="#00f" fill="#00f">
 </g>
 <g transform="translate(-108.24422,1.17403)">
 <g fill="#00f">
 <text style="stroke:none" transform="scale(1,-1) translate(5.00002,0)" text-anchor="middle"  font-size="10"> 
<g fill="#00f">
 <g stroke="none"> 13 </g> </g>
 </text> 
</g>
 </g>
 </g>
 <g fill="#00f">
 <g fill="#00f">
 <path d=" M -77.20668 52.11327 C -77.20668 53.21785 -78.1021 54.11327 -79.20668 54.11327 C -80.31126 54.11327 -81.20668 53.21785 -81.20668 52.11327 C -81.20668 51.00868 -80.31126 50.11327 -79.20668 50.11327 C -78.1021 50.11327 -77.20668 51.00868 -77.20668 52.11327 Z M -79.20668 52.11327  " stroke="none"/>
 </g>
 <g transform="translate(-79.20668,52.11327)">
 <g fill="#000">
 <text style="stroke:none" transform="scale(1,-1) translate(0.0,0)" text-anchor="middle"  font-size="10"> 
<g fill="#000">
 <g stroke="none"> </g> </g>
 </text> 
</g>
 </g>
 </g>
 <g stroke="#00f" fill="#00f">
 <g stroke="#00f" fill="#00f">
 </g>
 <g transform="translate(-84.2067,55.64624)">
 <g fill="#00f">
 <text style="stroke:none" transform="scale(1,-1) translate(5.00002,0)" text-anchor="middle"  font-size="10"> 
<g fill="#00f">
 <g stroke="none"> 14 </g> </g>
 </text> 
</g>
 </g>
 </g>
 <g fill="#00f">
 <g fill="#00f">
 <path d=" M -23.08586 91.43378 C -23.08586 92.53836 -23.98128 93.43378 -25.08586 93.43378 C -26.19044 93.43378 -27.08586 92.53836 -27.08586 91.43378 C -27.08586 90.3292 -26.19044 89.43378 -25.08586 89.43378 C -23.98128 89.43378 -23.08586 90.3292 -23.08586 91.43378 Z M -25.08586 91.43378  " stroke="none"/>
 </g>
 <g transform="translate(-25.08586,91.43378)">
 <g fill="#000">
 <text style="stroke:none" transform="scale(1,-1) translate(0.0,0)" text-anchor="middle"  font-size="10"> 
<g fill="#000">
 <g stroke="none"> </g> </g>
 </text> 
</g>
 </g>
 </g>
 <g stroke="#00f" fill="#00f">
 <g stroke="#00f" fill="#00f">
 </g>
 <g transform="translate(-30.08588,94.96675)">
 <g fill="#00f">
 <text style="stroke:none" transform="scale(1,-1) translate(5.00002,0)" text-anchor="middle"  font-size="10"> 
<g fill="#00f">
 <g stroke="none"> 15 </g> </g>
 </text> 
</g>
 </g>
 </g>
 </g>
 </g>
 
                                          </g> 
</svg> 
