<?xml version="1.0" encoding="iso-8859-1" standalone="no"?> 
<?xml-stylesheet href="_Wrapper_Image_EdgegraphOct.css" type="text/css"?> 
<svg xmlns="http://www.w3.org/2000/svg" xmlns:xlink="http://www.w3.org/1999/xlink" width="74.14876pt" height="90.99202pt" viewBox="-42.87912 -31.26964 74.14876 90.99202 "> 
<g transform="translate(0,59.72238 ) scale(1,-1) translate(0,31.26964 )"> 
        <g stroke="#000" fill="#000">
 <g stroke-width="0.4">
 <g fill="#000">
 <g fill="#000">
 <path d=" M 2.8169 0.0 C 2.8169 1.55574 1.55574 2.8169 0.0 2.8169 C -1.55574 2.8169 -2.8169 1.55574 -2.8169 0.0 C -2.8169 -1.55574 -1.55574 -2.8169 0.0 -2.8169 C 1.55574 -2.8169 2.8169 -1.55574 2.8169 0.0 Z M 0.0 0.0  " stroke="none"/>
 </g>
 <g fill="#000">
 <text style="stroke:none" transform="scale(1,-1) translate(0.0,0)" text-anchor="middle"  font-size="10"> 
<g fill="#000">
 <g stroke="none"> </g> </g>
 </text> 
</g>
 </g>
 <g fill="#000">
 <g fill="#000">
 <path d=" M -25.63585 0.0 C -25.63585 1.55574 -26.897 2.8169 -28.45274 2.8169 C -30.00848 2.8169 -31.26964 1.55574 -31.26964 0.0 C -31.26964 -1.55574 -30.00848 -2.8169 -28.45274 -2.8169 C -26.897 -2.8169 -25.63585 -1.55574 -25.63585 0.0 Z M -28.45274 0.0  " stroke="none"/>
 </g>
 <g transform="translate(-28.45274,0.0)">
 <g fill="#000">
 <text style="stroke:none" transform="scale(1,-1) translate(0.0,0)" text-anchor="middle"  font-size="10"> 
<g fill="#000">
 <g stroke="none"> </g> </g>
 </text> 
</g>
 </g>
 </g>
 <g fill="#000">
 <g fill="#000">
 <path d=" M 2.8169 28.45274 C 2.8169 30.00848 1.55574 31.26964 0.0 31.26964 C -1.55574 31.26964 -2.8169 30.00848 -2.8169 28.45274 C -2.8169 26.897 -1.55574 25.63585 0.0 25.63585 C 1.55574 25.63585 2.8169 26.897 2.8169 28.45274 Z M 0.0 28.45274  " stroke="none"/>
 </g>
 <g transform="translate(0.0,28.45274)">
 <g fill="#000">
 <text style="stroke:none" transform="scale(1,-1) translate(0.0,0)" text-anchor="middle"  font-size="10"> 
<g fill="#000">
 <g stroke="none"> </g> </g>
 </text> 
</g>
 </g>
 </g>
 <g fill="#000">
 <g fill="#000">
 <path d=" M 31.26964 0.0 C 31.26964 1.55574 30.00848 2.8169 28.45274 2.8169 C 26.897 2.8169 25.63585 1.55574 25.63585 0.0 C 25.63585 -1.55574 26.897 -2.8169 28.45274 -2.8169 C 30.00848 -2.8169 31.26964 -1.55574 31.26964 0.0 Z M 28.45274 0.0  " stroke="none"/>
 </g>
 <g transform="translate(28.45274,0.0)">
 <g fill="#000">
 <text style="stroke:none" transform="scale(1,-1) translate(0.0,0)" text-anchor="middle"  font-size="10"> 
<g fill="#000">
 <g stroke="none"> </g> </g>
 </text> 
</g>
 </g>
 </g>
 <g fill="#000">
 <g fill="#000">
 <path d=" M 2.8169 -28.45274 C 2.8169 -26.897 1.55574 -25.63585 0.0 -25.63585 C -1.55574 -25.63585 -2.8169 -26.897 -2.8169 -28.45274 C -2.8169 -30.00848 -1.55574 -31.26964 0.0 -31.26964 C 1.55574 -31.26964 2.8169 -30.00848 2.8169 -28.45274 Z M 0.0 -28.45274  " stroke="none"/>
 </g>
 <g transform="translate(0.0,-28.45274)">
 <g fill="#000">
 <text style="stroke:none" transform="scale(1,-1) translate(0.0,0)" text-anchor="middle"  font-size="10"> 
<g fill="#000">
 <g stroke="none"> </g> </g>
 </text> 
</g>
 </g>
 </g>
 <g fill="#000">
 <g fill="#000">
 <path d=" M 2.8169 56.90549 C 2.8169 58.46123 1.55574 59.72238 0.0 59.72238 C -1.55574 59.72238 -2.8169 58.46123 -2.8169 56.90549 C -2.8169 55.34975 -1.55574 54.0886 0.0 54.0886 C 1.55574 54.0886 2.8169 55.34975 2.8169 56.90549 Z M 0.0 56.90549  " stroke="none"/>
 </g>
 <g transform="translate(0.0,56.90549)">
 <g fill="#000">
 <text style="stroke:none" transform="scale(1,-1) translate(0.0,0)" text-anchor="middle"  font-size="10"> 
<g fill="#000">
 <g stroke="none"> </g> </g>
 </text> 
</g>
 </g>
 </g>
 <path d=" M -3.01689 0.0 L -25.43585 0.0  " fill="none"/>
 <path d=" M 0.0 3.01689 L 0.0 25.43585  " fill="none"/>
 <path d=" M 3.01689 0.0 L 25.43585 0.0  " fill="none"/>
 <path d=" M 0.0 -3.01689 L 0.0 -25.43585  " fill="none"/>
 <path d=" M -26.31949 2.13326 L -2.13326 26.31949  " fill="none"/>
 <path d=" M 2.13326 26.31949 L 26.31949 2.13326  " fill="none"/>
 <path d=" M 26.31949 -2.13326 L 2.13326 -26.31949  " fill="none"/>
 <path d=" M -2.13326 -26.31949 L -26.31949 -2.13326  " fill="none"/>
 <path d=" M -1.34908 54.20729 L -27.10367 2.6982  " fill="none"/>
 <path d=" M 0.0 53.8886 L 0.0 31.46964  " fill="none"/>
 <path d=" M 1.34908 54.20729 L 27.10367 2.6982  " fill="none"/>
 <path d=" M 0.0 56.90549 C -23.57132 56.90549 -42.67912 37.79768 -42.67912 14.22636 C -42.67912 -9.34496 -23.57132 -28.45276 0.0 -28.45276  " fill="none"/>
 </g>
 </g>
 
              </g> 
</svg> 
