<?xml version="1.0" encoding="iso-8859-1" standalone="no"?> 
<?xml-stylesheet href="_Wrapper_embedding-2.css" type="text/css"?> 
<svg xmlns="http://www.w3.org/2000/svg" xmlns:xlink="http://www.w3.org/1999/xlink" width="120.47104pt" height="136.92545pt" viewBox="-60.23552 -13.31038 120.47104 136.92545 "> 
<g transform="translate(0,123.61507 ) scale(1,-1) translate(0,13.31038 )"> 
           <g stroke="#000" fill="#000">
 <g stroke-width="0.4">
 <g stroke-linejoin="round">
 <g stroke="#000">
 <g fill="#cccc6a">
 <path d=" M 48.36957 96.73915 C 21.69365 123.41507 -21.69365 123.41507 -48.36957 96.73915 C -21.69365 70.06323 21.69365 70.06323 48.36957 96.73915  " />
 <g fill="#ccf">
 <g fill="#ccf">
 <path d=" M -5.64546 110.51309 h 11.29092 v 12.46594 h -11.29092 Z  " stroke="none"/>
 </g>
 <g transform="translate(-2.31248,113.84607)">
 <g fill="#000">
 <text style="stroke:none" transform="scale(1,-1) translate(2.31248,0)" text-anchor="middle"  font-size="10"> 
<g fill="#000">
 <g stroke="none"> <tspan font-family="cmr" font-size="9">3</tspan></g> </g>
 </text> 
</g>
 </g>
 </g>
 </g>
 </g>
 </g>
 <g stroke-linejoin="round">
 <g stroke="#000">
 <g fill="#ff6">
 <path d=" M 0.0 0.0 L 48.36957 96.73915 C 21.69365 70.06323 -21.69365 70.06323 -48.36957 96.73915 Z  " />
 <g fill="#ccf">
 <g fill="#ccf">
 <path d=" M 18.53932 42.1366 h 11.29092 v 12.46594 h -11.29092 Z  " stroke="none"/>
 </g>
 <g transform="translate(21.8723,45.46957)">
 <g fill="#000">
 <text style="stroke:none" transform="scale(1,-1) translate(2.31248,0)" text-anchor="middle"  font-size="10"> 
<g fill="#000">
 <g stroke="none"> <tspan font-family="cmr" font-size="9">1</tspan></g> </g>
 </text> 
</g>
 </g>
 </g>
 <g fill="#ccf">
 <g fill="#ccf">
 <path d=" M -5.64546 70.49924 h 11.29092 v 12.46594 h -11.29092 Z  " stroke="none"/>
 </g>
 <g transform="translate(-2.31248,73.83221)">
 <g fill="#000">
 <text style="stroke:none" transform="scale(1,-1) translate(2.31248,0)" text-anchor="middle"  font-size="10"> 
<g fill="#000">
 <g stroke="none"> <tspan font-family="cmr" font-size="9">4</tspan></g> </g>
 </text> 
</g>
 </g>
 </g>
 <g fill="#ccf">
 <g fill="#ccf">
 <path d=" M -29.83025 42.13661 h 11.29092 v 12.46594 h -11.29092 Z  " stroke="none"/>
 </g>
 <g transform="translate(-26.49727,45.46959)">
 <g fill="#000">
 <text style="stroke:none" transform="scale(1,-1) translate(2.31248,0)" text-anchor="middle"  font-size="10"> 
<g fill="#000">
 <g stroke="none"> <tspan font-family="cmr" font-size="9">2</tspan></g> </g>
 </text> 
</g>
 </g>
 </g>
 </g>
 </g>
 </g>
 <g fill="#00f">
 <g fill="#00f">
 <path d=" M 2.0 0.0 C 2.0 1.10458 1.10458 2.0 0.0 2.0 C -1.10458 2.0 -2.0 1.10458 -2.0 0.0 C -2.0 -1.10458 -1.10458 -2.0 0.0 -2.0 C 1.10458 -2.0 2.0 -1.10458 2.0 0.0 Z M 0.0 0.0  " stroke="none"/>
 </g>
 <g fill="#000">
 <text style="stroke:none" transform="scale(1,-1) translate(0.0,0)" text-anchor="middle"  font-size="10"> 
<g fill="#000">
 <g stroke="none"> </g> </g>
 </text> 
</g>
 </g>
 <g stroke="#00f" fill="#00f">
 <g stroke="#00f" fill="#00f">
 </g>
 <g transform="translate(-2.5,-9.9774)">
 <g fill="#00f">
 <text style="stroke:none" transform="scale(1,-1) translate(2.5,0)" text-anchor="middle"  font-size="10"> 
<g fill="#00f">
 <g stroke="none"> 1</g> </g>
 </text> 
</g>
 </g>
 </g>
 <g fill="#00f">
 <g fill="#00f">
 <path d=" M 50.36957 96.73915 C 50.36957 97.84373 49.47415 98.73915 48.36957 98.73915 C 47.26498 98.73915 46.36957 97.84373 46.36957 96.73915 C 46.36957 95.63457 47.26498 94.73915 48.36957 94.73915 C 49.47415 94.73915 50.36957 95.63457 50.36957 96.73915 Z M 48.36957 96.73915  " stroke="none"/>
 </g>
 <g transform="translate(48.36957,96.73915)">
 <g fill="#000">
 <text style="stroke:none" transform="scale(1,-1) translate(0.0,0)" text-anchor="middle"  font-size="10"> 
<g fill="#000">
 <g stroke="none"> </g> </g>
 </text> 
</g>
 </g>
 </g>
 <g stroke="#00f" fill="#00f">
 <g stroke="#00f" fill="#00f">
 </g>
 <g transform="translate(51.90254,93.51694)">
 <g fill="#00f">
 <text style="stroke:none" transform="scale(1,-1) translate(2.5,0)" text-anchor="middle"  font-size="10"> 
<g fill="#00f">
 <g stroke="none"> 2</g> </g>
 </text> 
</g>
 </g>
 </g>
 <g fill="#00f">
 <g fill="#00f">
 <path d=" M -46.36957 96.73915 C -46.36957 97.84373 -47.26498 98.73915 -48.36957 98.73915 C -49.47415 98.73915 -50.36957 97.84373 -50.36957 96.73915 C -50.36957 95.63457 -49.47415 94.73915 -48.36957 94.73915 C -47.26498 94.73915 -46.36957 95.63457 -46.36957 96.73915 Z M -48.36957 96.73915  " stroke="none"/>
 </g>
 <g transform="translate(-48.36957,96.73915)">
 <g fill="#000">
 <text style="stroke:none" transform="scale(1,-1) translate(0.0,0)" text-anchor="middle"  font-size="10"> 
<g fill="#000">
 <g stroke="none"> </g> </g>
 </text> 
</g>
 </g>
 </g>
 <g stroke="#00f" fill="#00f">
 <g stroke="#00f" fill="#00f">
 </g>
 <g transform="translate(-56.90254,93.51694)">
 <g fill="#00f">
 <text style="stroke:none" transform="scale(1,-1) translate(2.5,0)" text-anchor="middle"  font-size="10"> 
<g fill="#00f">
 <g stroke="none"> 3</g> </g>
 </text> 
</g>
 </g>
 </g>
 <g transform="translate(-1.80556,44.95291)">
 <g fill="#000">
 <text style="stroke:none" transform="scale(1,-1) translate(1.80556,0)" text-anchor="middle"  font-size="10"> 
<g fill="#000">
 <g stroke="none"> I </g> </g>
 </text> 
</g>
 </g>
 <g transform="translate(-3.75,93.3225)">
 <g fill="#000">
 <text style="stroke:none" transform="scale(1,-1) translate(3.75,0)" text-anchor="middle"  font-size="10"> 
<g fill="#000">
 <g stroke="none"> II</g> </g>
 </text> 
</g>
 </g>
 </g>
 </g>
 
                       </g> 
</svg> 
