<?xml version="1.0" encoding="iso-8859-1" standalone="no"?> 
<?xml-stylesheet href="_Wrapper_twisted_polygonal_complex-17.css" type="text/css"?> 
<svg xmlns="http://www.w3.org/2000/svg" xmlns:xlink="http://www.w3.org/1999/xlink" width="186.30026pt" height="100.54335pt" viewBox="-93.15013 -13.31038 186.30026 100.54335 "> 
<g transform="translate(0,87.23297 ) scale(1,-1) translate(0,13.31038 )"> 
                  <g stroke="#000" fill="#000">
 <g stroke-width="0.4">
 <g stroke-linejoin="round">
 <g stroke="#000">
 <g fill="#ff6">
 <path d=" M -85.35823 0.0 L -42.67911 73.92259 L 0.0 0.0 Z M -42.67911 73.92259 L 42.67911 73.92259 L 0.0 0.0 Z M 0.0 0.0 L 42.67911 73.92259 L 85.35823 0.0 Z  " />
 </g>
 </g>
 </g>
 <g stroke-width="0.8">
 <g stroke="#f00" fill="#f00">
 <path d=" M -50.07101 78.19032 L -92.39516 4.8826  " fill="none"/>
 <g transform="matrix(-0.49998,-0.86601,0.86601,-0.49998,-92.39514,4.88261)">
 <g stroke-width="0.64">
 <g stroke-dasharray="none" stroke-dashoffset="0.0">
 <g stroke-linecap="round">
 <g stroke-linejoin="round">
 <path d=" M -1.55997 2.07996 C -1.42996 1.29997 0.0 0.12999 0.38998 0.0 C 0.0 -0.12999 -1.42996 -1.29997 -1.55997 -2.07996  " fill="none"/>
 </g>
 </g>
 </g>
 </g>
  </g>
 </g>
 </g>
 <g stroke-width="0.8">
 <g stroke="#f00" fill="#f00">
 <path d=" M 50.07101 78.19032 L 92.39516 4.8826  " fill="none"/>
 <g transform="matrix(0.49998,-0.86601,0.86601,0.49998,92.39514,4.88261)">
 <g stroke-width="0.64">
 <g stroke-dasharray="none" stroke-dashoffset="0.0">
 <g stroke-linecap="round">
 <g stroke-linejoin="round">
 <path d=" M -1.55997 2.07996 C -1.42996 1.29997 0.0 0.12999 0.38998 0.0 C 0.0 -0.12999 -1.42996 -1.29997 -1.55997 -2.07996  " fill="none"/>
 </g>
 </g>
 </g>
 </g>
  </g>
 </g>
 </g>
 <g stroke="#808080" fill="#808080">
 <path d=" M -85.35823 0.0 L -42.67845 24.64049 L -42.67911 0.0  " fill="none"/>
 </g>
 <g transform="translate(-59.40439,4.99115)">
 <g fill="#000">
 <text style="stroke:none" transform="scale(1,-1) translate(2.5,0)" text-anchor="middle"  font-size="10"> 
<g fill="#000">
 <g stroke="none"> 1</g> </g>
 </text> 
</g>
 </g>
 <g stroke="#808080" fill="#808080">
 <path d=" M 0.0 0.0 L -42.67845 24.64049 L -42.67911 0.0  " fill="none"/>
 </g>
 <g transform="translate(-30.95207,4.99115)">
 <g fill="#000">
 <text style="stroke:none" transform="scale(1,-1) translate(2.5,0)" text-anchor="middle"  font-size="10"> 
<g fill="#000">
 <g stroke="none"> 2</g> </g>
 </text> 
</g>
 </g>
 <g stroke="#808080" fill="#808080">
 <path d=" M 0.0 0.0 L -42.67845 24.64049 L -21.33955 36.96129  " fill="none"/>
 </g>
 <g transform="translate(-23.839,17.31139)">
 <g fill="#000">
 <text style="stroke:none" transform="scale(1,-1) translate(2.5,0)" text-anchor="middle"  font-size="10"> 
<g fill="#000">
 <g stroke="none"> 3</g> </g>
 </text> 
</g>
 </g>
 <g stroke="#808080" fill="#808080">
 <path d=" M -42.67911 73.92259 L -42.67845 24.64049 L -21.33955 36.96129  " fill="none"/>
 </g>
 <g transform="translate(-38.06516,41.95187)">
 <g fill="#000">
 <text style="stroke:none" transform="scale(1,-1) translate(2.5,0)" text-anchor="middle"  font-size="10"> 
<g fill="#000">
 <g stroke="none"> 4</g> </g>
 </text> 
</g>
 </g>
 <g stroke="#808080" fill="#808080">
 <path d=" M -42.67911 73.92259 L -42.67845 24.64049 L -64.01866 36.96129  " fill="none"/>
 </g>
 <g transform="translate(-52.2913,41.95187)">
 <g fill="#000">
 <text style="stroke:none" transform="scale(1,-1) translate(2.5,0)" text-anchor="middle"  font-size="10"> 
<g fill="#000">
 <g stroke="none"> 5</g> </g>
 </text> 
</g>
 </g>
 <g stroke="#808080" fill="#808080">
 <path d=" M -85.35823 0.0 L -42.67845 24.64049 L -64.01866 36.96129  " fill="none"/>
 </g>
 <g transform="translate(-66.51746,17.31139)">
 <g fill="#000">
 <text style="stroke:none" transform="scale(1,-1) translate(2.5,0)" text-anchor="middle"  font-size="10"> 
<g fill="#000">
 <g stroke="none"> 6</g> </g>
 </text> 
</g>
 </g>
 <g stroke="#808080" fill="#808080">
 <path d=" M -42.67911 73.92259 L 0.0 49.28098 L -21.33955 36.96129  " fill="none"/>
 </g>
 <g transform="translate(-23.83922,50.16525)">
 <g fill="#000">
 <text style="stroke:none" transform="scale(1,-1) translate(2.5,0)" text-anchor="middle"  font-size="10"> 
<g fill="#000">
 <g stroke="none"> 7</g> </g>
 </text> 
</g>
 </g>
 <g stroke="#808080" fill="#808080">
 <path d=" M 0.0 0.0 L 0.0 49.28098 L -21.33955 36.96129  " fill="none"/>
 </g>
 <g transform="translate(-9.61307,25.52477)">
 <g fill="#000">
 <text style="stroke:none" transform="scale(1,-1) translate(2.5,0)" text-anchor="middle"  font-size="10"> 
<g fill="#000">
 <g stroke="none"> 8</g> </g>
 </text> 
</g>
 </g>
 <g stroke="#808080" fill="#808080">
 <path d=" M 0.0 0.0 L 0.0 49.28098 L 21.33955 36.96129  " fill="none"/>
 </g>
 <g transform="translate(4.61307,25.52477)">
 <g fill="#000">
 <text style="stroke:none" transform="scale(1,-1) translate(2.5,0)" text-anchor="middle"  font-size="10"> 
<g fill="#000">
 <g stroke="none"> 9</g> </g>
 </text> 
</g>
 </g>
 <g stroke="#808080" fill="#808080">
 <path d=" M 42.67911 73.92259 L 0.0 49.28098 L 21.33955 36.96129  " fill="none"/>
 </g>
 <g transform="translate(16.3392,50.16525)">
 <g fill="#000">
 <text style="stroke:none" transform="scale(1,-1) translate(5.00002,0)" text-anchor="middle"  font-size="10"> 
<g fill="#000">
 <g stroke="none"> 10</g> </g>
 </text> 
</g>
 </g>
 <g stroke="#808080" fill="#808080">
 <path d=" M 42.67911 73.92259 L 0.0 49.28098 L 0.0 73.92259  " fill="none"/>
 </g>
 <g transform="translate(9.22614,62.48549)">
 <g fill="#000">
 <text style="stroke:none" transform="scale(1,-1) translate(5.00002,0)" text-anchor="middle"  font-size="10"> 
<g fill="#000">
 <g stroke="none"> 11</g> </g>
 </text> 
</g>
 </g>
 <g stroke="#808080" fill="#808080">
 <path d=" M -42.67911 73.92259 L 0.0 49.28098 L 0.0 73.92259  " fill="none"/>
 </g>
 <g transform="translate(-19.22617,62.48549)">
 <g fill="#000">
 <text style="stroke:none" transform="scale(1,-1) translate(5.00002,0)" text-anchor="middle"  font-size="10"> 
<g fill="#000">
 <g stroke="none"> 12</g> </g>
 </text> 
</g>
 </g>
 <g stroke="#808080" fill="#808080">
 <path d=" M 42.67911 73.92259 L 42.67845 24.64049 L 21.33955 36.96129  " fill="none"/>
 </g>
 <g transform="translate(30.56514,41.95187)">
 <g fill="#000">
 <text style="stroke:none" transform="scale(1,-1) translate(5.00002,0)" text-anchor="middle"  font-size="10"> 
<g fill="#000">
 <g stroke="none"> 13</g> </g>
 </text> 
</g>
 </g>
 <g stroke="#808080" fill="#808080">
 <path d=" M 0.0 0.0 L 42.67845 24.64049 L 21.33955 36.96129  " fill="none"/>
 </g>
 <g transform="translate(16.33899,17.31139)">
 <g fill="#000">
 <text style="stroke:none" transform="scale(1,-1) translate(5.00002,0)" text-anchor="middle"  font-size="10"> 
<g fill="#000">
 <g stroke="none"> 14</g> </g>
 </text> 
</g>
 </g>
 <g stroke="#808080" fill="#808080">
 <path d=" M 0.0 0.0 L 42.67845 24.64049 L 42.67911 0.0  " fill="none"/>
 </g>
 <g transform="translate(23.45206,4.99115)">
 <g fill="#000">
 <text style="stroke:none" transform="scale(1,-1) translate(5.00002,0)" text-anchor="middle"  font-size="10"> 
<g fill="#000">
 <g stroke="none"> 15</g> </g>
 </text> 
</g>
 </g>
 <g stroke="#808080" fill="#808080">
 <path d=" M 85.35823 0.0 L 42.67845 24.64049 L 42.67911 0.0  " fill="none"/>
 </g>
 <g transform="translate(51.90437,4.99115)">
 <g fill="#000">
 <text style="stroke:none" transform="scale(1,-1) translate(5.00002,0)" text-anchor="middle"  font-size="10"> 
<g fill="#000">
 <g stroke="none"> 16</g> </g>
 </text> 
</g>
 </g>
 <g stroke="#808080" fill="#808080">
 <path d=" M 85.35823 0.0 L 42.67845 24.64049 L 64.01866 36.96129  " fill="none"/>
 </g>
 <g transform="translate(59.01744,17.31139)">
 <g fill="#000">
 <text style="stroke:none" transform="scale(1,-1) translate(5.00002,0)" text-anchor="middle"  font-size="10"> 
<g fill="#000">
 <g stroke="none"> 17</g> </g>
 </text> 
</g>
 </g>
 <g stroke="#808080" fill="#808080">
 <path d=" M 42.67911 73.92259 L 42.67845 24.64049 L 64.01866 36.96129  " fill="none"/>
 </g>
 <g transform="translate(44.79129,41.95187)">
 <g fill="#000">
 <text style="stroke:none" transform="scale(1,-1) translate(5.00002,0)" text-anchor="middle"  font-size="10"> 
<g fill="#000">
 <g stroke="none"> 18</g> </g>
 </text> 
</g>
 </g>
 <g fill="#ccf">
 <g fill="#ccf">
 <path d=" M -69.66412 30.72832 h 11.29092 v 12.46594 h -11.29092 Z  " stroke="none"/>
 </g>
 <g transform="translate(-66.33115,34.0613)">
 <g fill="#000">
 <text style="stroke:none" transform="scale(1,-1) translate(2.31248,0)" text-anchor="middle"  font-size="10"> 
<g fill="#000">
 <g stroke="none"> <tspan font-family="cmr" font-size="9">3</tspan> </g> </g>
 </text> 
</g>
 </g>
 </g>
 <g fill="#ccf">
 <g fill="#ccf">
 <path d=" M -48.32457 -6.23297 h 11.29092 v 12.46594 h -11.29092 Z  " stroke="none"/>
 </g>
 <g transform="translate(-44.9916,-2.9)">
 <g fill="#000">
 <text style="stroke:none" transform="scale(1,-1) translate(2.31248,0)" text-anchor="middle"  font-size="10"> 
<g fill="#000">
 <g stroke="none"> <tspan font-family="cmr" font-size="9">1</tspan> </g> </g>
 </text> 
</g>
 </g>
 </g>
 <g fill="#ccf">
 <g fill="#ccf">
 <path d=" M -26.98502 30.72832 h 11.29092 v 12.46594 h -11.29092 Z  " stroke="none"/>
 </g>
 <g transform="translate(-23.65204,34.0613)">
 <g fill="#000">
 <text style="stroke:none" transform="scale(1,-1) translate(2.31248,0)" text-anchor="middle"  font-size="10"> 
<g fill="#000">
 <g stroke="none"> <tspan font-family="cmr" font-size="9">2</tspan> </g> </g>
 </text> 
</g>
 </g>
 </g>
 <g fill="#ccf">
 <g fill="#ccf">
 <path d=" M -5.64546 67.6896 h 11.29092 v 12.46594 h -11.29092 Z  " stroke="none"/>
 </g>
 <g transform="translate(-2.31248,71.02258)">
 <g fill="#000">
 <text style="stroke:none" transform="scale(1,-1) translate(2.31248,0)" text-anchor="middle"  font-size="10"> 
<g fill="#000">
 <g stroke="none"> <tspan font-family="cmr" font-size="9">5</tspan> </g> </g>
 </text> 
</g>
 </g>
 </g>
 <g fill="#ccf">
 <g fill="#ccf">
 <path d=" M 15.69409 30.72832 h 11.29092 v 12.46594 h -11.29092 Z  " stroke="none"/>
 </g>
 <g transform="translate(19.02707,34.0613)">
 <g fill="#000">
 <text style="stroke:none" transform="scale(1,-1) translate(2.31248,0)" text-anchor="middle"  font-size="10"> 
<g fill="#000">
 <g stroke="none"> <tspan font-family="cmr" font-size="9">4</tspan> </g> </g>
 </text> 
</g>
 </g>
 </g>
 <g fill="#ccf">
 <g fill="#ccf">
 <path d=" M 37.03365 -6.23297 h 11.29092 v 12.46594 h -11.29092 Z  " stroke="none"/>
 </g>
 <g transform="translate(40.36662,-2.9)">
 <g fill="#000">
 <text style="stroke:none" transform="scale(1,-1) translate(2.31248,0)" text-anchor="middle"  font-size="10"> 
<g fill="#000">
 <g stroke="none"> <tspan font-family="cmr" font-size="9">6</tspan> </g> </g>
 </text> 
</g>
 </g>
 </g>
 <g fill="#ccf">
 <g fill="#ccf">
 <path d=" M 58.3732 30.72832 h 11.29092 v 12.46594 h -11.29092 Z  " stroke="none"/>
 </g>
 <g transform="translate(61.70618,34.0613)">
 <g fill="#000">
 <text style="stroke:none" transform="scale(1,-1) translate(2.31248,0)" text-anchor="middle"  font-size="10"> 
<g fill="#000">
 <g stroke="none"> <tspan font-family="cmr" font-size="9">3</tspan> </g> </g>
 </text> 
</g>
 </g>
 </g>
 <g fill="#00f">
 <g fill="#00f">
 <path d=" M -83.35823 0.0 C -83.35823 1.10458 -84.25365 2.0 -85.35823 2.0 C -86.46281 2.0 -87.35823 1.10458 -87.35823 0.0 C -87.35823 -1.10458 -86.46281 -2.0 -85.35823 -2.0 C -84.25365 -2.0 -83.35823 -1.10458 -83.35823 0.0 Z M -85.35823 0.0  " stroke="none"/>
 </g>
 <g transform="translate(-85.35823,0.0)">
 <g fill="#000">
 <text style="stroke:none" transform="scale(1,-1) translate(0.0,0)" text-anchor="middle"  font-size="10"> 
<g fill="#000">
 <g stroke="none"> </g> </g>
 </text> 
</g>
 </g>
 </g>
 <g stroke="#00f" fill="#00f">
 <g stroke="#00f" fill="#00f">
 </g>
 <g transform="translate(-87.85823,-9.9774)">
 <g fill="#00f">
 <text style="stroke:none" transform="scale(1,-1) translate(2.5,0)" text-anchor="middle"  font-size="10"> 
<g fill="#00f">
 <g stroke="none"> 1 </g> </g>
 </text> 
</g>
 </g>
 </g>
 <g fill="#00f">
 <g fill="#00f">
 <path d=" M -40.67911 73.92259 C -40.67911 75.02718 -41.57452 75.92259 -42.67911 75.92259 C -43.78369 75.92259 -44.67911 75.02718 -44.67911 73.92259 C -44.67911 72.81801 -43.78369 71.92259 -42.67911 71.92259 C -41.57452 71.92259 -40.67911 72.81801 -40.67911 73.92259 Z M -42.67911 73.92259  " stroke="none"/>
 </g>
 <g transform="translate(-42.67911,73.92259)">
 <g fill="#000">
 <text style="stroke:none" transform="scale(1,-1) translate(0.0,0)" text-anchor="middle"  font-size="10"> 
<g fill="#000">
 <g stroke="none"> </g> </g>
 </text> 
</g>
 </g>
 </g>
 <g stroke="#00f" fill="#00f">
 <g stroke="#00f" fill="#00f">
 </g>
 <g transform="translate(-45.17911,77.45557)">
 <g fill="#00f">
 <text style="stroke:none" transform="scale(1,-1) translate(2.5,0)" text-anchor="middle"  font-size="10"> 
<g fill="#00f">
 <g stroke="none"> 3 </g> </g>
 </text> 
</g>
 </g>
 </g>
 <g fill="#00f">
 <g fill="#00f">
 <path d=" M 2.0 0.0 C 2.0 1.10458 1.10458 2.0 0.0 2.0 C -1.10458 2.0 -2.0 1.10458 -2.0 0.0 C -2.0 -1.10458 -1.10458 -2.0 0.0 -2.0 C 1.10458 -2.0 2.0 -1.10458 2.0 0.0 Z M 0.0 0.0  " stroke="none"/>
 </g>
 <g fill="#000">
 <text style="stroke:none" transform="scale(1,-1) translate(0.0,0)" text-anchor="middle"  font-size="10"> 
<g fill="#000">
 <g stroke="none"> </g> </g>
 </text> 
</g>
 </g>
 <g stroke="#00f" fill="#00f">
 <g stroke="#00f" fill="#00f">
 </g>
 <g transform="translate(-2.5,-9.9774)">
 <g fill="#00f">
 <text style="stroke:none" transform="scale(1,-1) translate(2.5,0)" text-anchor="middle"  font-size="10"> 
<g fill="#00f">
 <g stroke="none"> 2 </g> </g>
 </text> 
</g>
 </g>
 </g>
 <g fill="#00f">
 <g fill="#00f">
 <path d=" M 44.67911 73.92259 C 44.67911 75.02718 43.78369 75.92259 42.67911 75.92259 C 41.57452 75.92259 40.67911 75.02718 40.67911 73.92259 C 40.67911 72.81801 41.57452 71.92259 42.67911 71.92259 C 43.78369 71.92259 44.67911 72.81801 44.67911 73.92259 Z M 42.67911 73.92259  " stroke="none"/>
 </g>
 <g transform="translate(42.67911,73.92259)">
 <g fill="#000">
 <text style="stroke:none" transform="scale(1,-1) translate(0.0,0)" text-anchor="middle"  font-size="10"> 
<g fill="#000">
 <g stroke="none"> </g> </g>
 </text> 
</g>
 </g>
 </g>
 <g stroke="#00f" fill="#00f">
 <g stroke="#00f" fill="#00f">
 </g>
 <g transform="translate(40.17911,77.45557)">
 <g fill="#00f">
 <text style="stroke:none" transform="scale(1,-1) translate(2.5,0)" text-anchor="middle"  font-size="10"> 
<g fill="#00f">
 <g stroke="none"> 3 </g> </g>
 </text> 
</g>
 </g>
 </g>
 <g fill="#00f">
 <g fill="#00f">
 <path d=" M 87.35823 0.0 C 87.35823 1.10458 86.46281 2.0 85.35823 2.0 C 84.25365 2.0 83.35823 1.10458 83.35823 0.0 C 83.35823 -1.10458 84.25365 -2.0 85.35823 -2.0 C 86.46281 -2.0 87.35823 -1.10458 87.35823 0.0 Z M 85.35823 0.0  " stroke="none"/>
 </g>
 <g transform="translate(85.35823,0.0)">
 <g fill="#000">
 <text style="stroke:none" transform="scale(1,-1) translate(0.0,0)" text-anchor="middle"  font-size="10"> 
<g fill="#000">
 <g stroke="none"> </g> </g>
 </text> 
</g>
 </g>
 </g>
 <g stroke="#00f" fill="#00f">
 <g stroke="#00f" fill="#00f">
 </g>
 <g transform="translate(82.85823,-9.9774)">
 <g fill="#00f">
 <text style="stroke:none" transform="scale(1,-1) translate(2.5,0)" text-anchor="middle"  font-size="10"> 
<g fill="#00f">
 <g stroke="none"> 1 </g> </g>
 </text> 
</g>
 </g>
 </g>
 <g fill="#ff6">
 <g fill="#ff6">
 <path d=" M -47.81699 17.89085 h 10.27707 v 13.49927 h -10.27707 Z  " stroke="none"/>
 </g>
 <g transform="translate(-44.48401,21.22383)">
 <g fill="#000">
 <text style="stroke:none" transform="scale(1,-1) translate(1.80556,0)" text-anchor="middle"  font-size="10"> 
<g fill="#000">
 <g stroke="none"> I </g> </g>
 </text> 
</g>
 </g>
 </g>
 <g fill="#ff6">
 <g fill="#ff6">
 <path d=" M -7.08298 42.53134 h 14.16595 v 13.49927 h -14.16595 Z  " stroke="none"/>
 </g>
 <g transform="translate(-3.75,45.86432)">
 <g fill="#000">
 <text style="stroke:none" transform="scale(1,-1) translate(3.75,0)" text-anchor="middle"  font-size="10"> 
<g fill="#000">
 <g stroke="none"> II </g> </g>
 </text> 
</g>
 </g>
 </g>
 <g fill="#ff6">
 <g fill="#ff6">
 <path d=" M 33.65102 17.89085 h 18.05487 v 13.49927 h -18.05487 Z  " stroke="none"/>
 </g>
 <g transform="translate(36.984,21.22383)">
 <g fill="#000">
 <text style="stroke:none" transform="scale(1,-1) translate(5.69446,0)" text-anchor="middle"  font-size="10"> 
<g fill="#000">
 <g stroke="none"> III</g> </g>
 </text> 
</g>
 </g>
 </g>
 </g>
 </g>
 
                                   </g> 
</svg> 
