<?xml version="1.0" encoding="UTF-8"?>
<svg xmlns="http://www.w3.org/2000/svg" xmlns:xlink="http://www.w3.org/1999/xlink" width="203.602pt" height="56.646pt" viewBox="0 0 203.602 56.646" version="1.2">
<defs>
<clipPath id="clip1">
  <path d="M 3 20 L 47 20 L 47 56.292969 L 3 56.292969 Z M 3 20 "/>
</clipPath>
</defs>
<g id="surface1">
<g clip-path="url(#clip1)" clip-rule="nonzero">
<path style="fill-rule:nonzero;fill:rgb(100%,96.939087%,40.000916%);fill-opacity:1;stroke-width:0.3985;stroke-linecap:butt;stroke-linejoin:round;stroke:rgb(0%,0%,0%);stroke-opacity:1;stroke-miterlimit:10;" d="M -42.519013 -14.174247 L -14.175013 -21.261229 L -28.345047 14.173684 Z M -14.175013 -21.261229 L -28.345047 14.173684 L -0.00104756 -0.000281538 Z M -14.175013 -21.261229 " transform="matrix(0.993789,0,0,-0.993789,46.188541,34.96847)"/>
</g>
<path style="fill-rule:nonzero;fill:rgb(40.000916%,80.703735%,96.237183%);fill-opacity:1;stroke-width:0.3985;stroke-linecap:butt;stroke-linejoin:round;stroke:rgb(0%,0%,0%);stroke-opacity:1;stroke-miterlimit:10;" d="M -0.00104756 -0.000281538 L 21.2599 28.347649 L 42.520848 -1.41925 Z M -0.00104756 -0.000281538 " transform="matrix(0.993789,0,0,-0.993789,46.188541,34.96847)"/>
<path style="fill:none;stroke-width:0.3985;stroke-linecap:butt;stroke-linejoin:round;stroke:rgb(0%,0%,0%);stroke-opacity:1;stroke-dasharray:2.98883,2.98883;stroke-miterlimit:10;" d="M -42.519013 -14.174247 L -0.00104756 -0.000281538 M 42.520848 -1.41925 L 17.006925 14.173684 M -0.00104756 -0.000281538 L 17.006925 14.173684 M 21.2599 28.347649 L 17.006925 14.173684 " transform="matrix(0.993789,0,0,-0.993789,46.188541,34.96847)"/>
<path style="fill-rule:nonzero;fill:rgb(100%,96.939087%,40.000916%);fill-opacity:1;stroke-width:0.3985;stroke-linecap:butt;stroke-linejoin:round;stroke:rgb(0%,0%,0%);stroke-opacity:1;stroke-miterlimit:10;" d="M 113.386744 -0.000281538 L 90.710758 -8.502302 L 79.3708 14.173684 Z M 113.386744 -0.000281538 L 79.3708 14.173684 L 99.212779 28.347649 Z M 113.386744 -0.000281538 " transform="matrix(0.993789,0,0,-0.993789,46.188541,34.96847)"/>
<path style="fill-rule:nonzero;fill:rgb(40.000916%,80.703735%,96.237183%);fill-opacity:1;stroke-width:0.3985;stroke-linecap:butt;stroke-linejoin:round;stroke:rgb(0%,0%,0%);stroke-opacity:1;stroke-miterlimit:10;" d="M 113.386744 -0.000281538 L 127.560709 28.347649 L 147.402688 14.173684 Z M 113.386744 -0.000281538 L 147.402688 14.173684 L 136.066661 -8.502302 Z M 113.386744 -0.000281538 " transform="matrix(0.993789,0,0,-0.993789,46.188541,34.96847)"/>
<path style=" stroke:none;fill-rule:nonzero;fill:rgb(50%,50%,50%);fill-opacity:1;" d="M 159.863281 34.96875 C 159.863281 34.421875 159.417969 33.976562 158.871094 33.976562 C 158.324219 33.976562 157.882812 34.421875 157.882812 34.96875 C 157.882812 35.515625 158.324219 35.957031 158.871094 35.957031 C 159.417969 35.957031 159.863281 35.515625 159.863281 34.96875 Z M 159.863281 34.96875 "/>
<path style=" stroke:none;fill-rule:nonzero;fill:rgb(50%,50%,50%);fill-opacity:1;" d="M 145.777344 6.796875 C 145.777344 6.25 145.332031 5.808594 144.785156 5.808594 C 144.238281 5.808594 143.796875 6.25 143.796875 6.796875 C 143.796875 7.34375 144.238281 7.789062 144.785156 7.789062 C 145.332031 7.789062 145.777344 7.34375 145.777344 6.796875 Z M 145.777344 6.796875 "/>
<path style=" stroke:none;fill-rule:nonzero;fill:rgb(50%,50%,50%);fill-opacity:1;" d="M 126.058594 20.882812 C 126.058594 20.335938 125.613281 19.894531 125.066406 19.894531 C 124.519531 19.894531 124.078125 20.335938 124.078125 20.882812 C 124.078125 21.429688 124.519531 21.875 125.066406 21.875 C 125.613281 21.875 126.058594 21.429688 126.058594 20.882812 Z M 126.058594 20.882812 "/>
<path style=" stroke:none;fill-rule:nonzero;fill:rgb(50%,50%,50%);fill-opacity:1;" d="M 137.324219 43.417969 C 137.324219 42.871094 136.882812 42.429688 136.335938 42.429688 C 135.789062 42.429688 135.34375 42.871094 135.34375 43.417969 C 135.34375 43.964844 135.789062 44.410156 136.335938 44.410156 C 136.882812 44.410156 137.324219 43.964844 137.324219 43.417969 Z M 137.324219 43.417969 "/>
<path style=" stroke:none;fill-rule:nonzero;fill:rgb(50%,50%,50%);fill-opacity:1;" d="M 182.398438 43.417969 C 182.398438 42.871094 181.957031 42.429688 181.410156 42.429688 C 180.863281 42.429688 180.417969 42.871094 180.417969 43.417969 C 180.417969 43.964844 180.863281 44.410156 181.410156 44.410156 C 181.957031 44.410156 182.398438 43.964844 182.398438 43.417969 Z M 182.398438 43.417969 "/>
<path style=" stroke:none;fill-rule:nonzero;fill:rgb(50%,50%,50%);fill-opacity:1;" d="M 193.667969 20.882812 C 193.667969 20.335938 193.222656 19.894531 192.675781 19.894531 C 192.128906 19.894531 191.6875 20.335938 191.6875 20.882812 C 191.6875 21.429688 192.128906 21.875 192.675781 21.875 C 193.222656 21.875 193.667969 21.429688 193.667969 20.882812 Z M 193.667969 20.882812 "/>
<path style=" stroke:none;fill-rule:nonzero;fill:rgb(50%,50%,50%);fill-opacity:1;" d="M 173.945312 6.796875 C 173.945312 6.25 173.503906 5.808594 172.957031 5.808594 C 172.410156 5.808594 171.96875 6.25 171.96875 6.796875 C 171.96875 7.34375 172.410156 7.789062 172.957031 7.789062 C 173.503906 7.789062 173.945312 7.34375 173.945312 6.796875 Z M 173.945312 6.796875 "/>
</g>
</svg>
