<?xml version="1.0" encoding="UTF-8"?>
<svg xmlns="http://www.w3.org/2000/svg" xmlns:xlink="http://www.w3.org/1999/xlink" width="360.185pt" height="154.72pt" viewBox="0 0 360.185 154.72" version="1.2">
<defs>
<g>
<symbol overflow="visible" id="glyph0-0">
<path style="stroke:none;" d=""/>
</symbol>
<symbol overflow="visible" id="glyph0-1">
<path style="stroke:none;" d="M 1.203125 -2.96875 C 1.203125 -3.875 1.296875 -4.390625 1.546875 -4.859375 C 1.71875 -5.21875 2.15625 -5.734375 2.8125 -5.734375 C 3 -5.734375 3.40625 -5.703125 3.609375 -5.375 C 3.28125 -5.375 3.140625 -5.203125 3.140625 -4.96875 C 3.140625 -4.734375 3.296875 -4.5625 3.546875 -4.5625 C 3.8125 -4.5625 3.96875 -4.71875 3.96875 -4.984375 C 3.96875 -5.484375 3.609375 -5.96875 2.796875 -5.96875 C 1.640625 -5.96875 0.390625 -4.828125 0.390625 -2.828125 C 0.390625 -0.40625 1.484375 0.203125 2.3125 0.203125 C 3.3125 0.203125 4.203125 -0.640625 4.203125 -1.8125 C 4.203125 -2.953125 3.390625 -3.8125 2.375 -3.8125 C 1.828125 -3.8125 1.453125 -3.5 1.203125 -2.96875 Z M 2.3125 -0.046875 C 1.796875 -0.046875 1.5 -0.46875 1.390625 -0.734375 C 1.234375 -1.140625 1.21875 -1.875 1.21875 -2.015625 C 1.21875 -2.625 1.5 -3.59375 2.359375 -3.59375 C 2.5 -3.59375 2.9375 -3.59375 3.21875 -3.03125 C 3.390625 -2.6875 3.390625 -2.25 3.390625 -1.828125 C 3.390625 -1.390625 3.390625 -0.953125 3.21875 -0.625 C 2.953125 -0.109375 2.546875 -0.046875 2.3125 -0.046875 Z M 2.3125 -0.046875 "/>
</symbol>
<symbol overflow="visible" id="glyph0-2">
<path style="stroke:none;" d="M 4.140625 -1.578125 L 3.890625 -1.578125 C 3.875 -1.46875 3.796875 -0.9375 3.6875 -0.796875 C 3.625 -0.71875 3.015625 -0.71875 2.828125 -0.71875 L 1.234375 -0.71875 L 2.125 -1.5625 C 3.59375 -2.828125 4.140625 -3.296875 4.140625 -4.21875 C 4.140625 -5.25 3.28125 -5.96875 2.1875 -5.96875 C 1.15625 -5.96875 0.453125 -5.140625 0.453125 -4.328125 C 0.453125 -3.890625 0.84375 -3.84375 0.921875 -3.84375 C 1.125 -3.84375 1.390625 -3.984375 1.390625 -4.3125 C 1.390625 -4.578125 1.203125 -4.765625 0.921875 -4.765625 C 0.875 -4.765625 0.84375 -4.765625 0.8125 -4.765625 C 1.03125 -5.40625 1.609375 -5.6875 2.09375 -5.6875 C 3 -5.6875 3.3125 -4.828125 3.3125 -4.21875 C 3.3125 -3.296875 2.625 -2.5625 2.1875 -2.09375 L 0.5625 -0.328125 C 0.453125 -0.21875 0.453125 -0.203125 0.453125 0 L 3.890625 0 Z M 4.140625 -1.578125 "/>
</symbol>
<symbol overflow="visible" id="glyph0-3">
<path style="stroke:none;" d="M 4.390625 -5.46875 C 4.46875 -5.5625 4.46875 -5.578125 4.46875 -5.765625 L 2.234375 -5.765625 C 1.109375 -5.765625 1.078125 -5.875 1.0625 -6.046875 L 0.8125 -6.046875 L 0.515625 -4.1875 L 0.765625 -4.1875 C 0.796875 -4.390625 0.875 -4.890625 0.984375 -5 C 1.046875 -5.046875 1.75 -5.046875 1.875 -5.046875 L 3.765625 -5.046875 L 2.90625 -3.875 C 1.734375 -2.28125 1.625 -0.8125 1.625 -0.296875 C 1.625 -0.203125 1.625 0.203125 2.046875 0.203125 C 2.46875 0.203125 2.46875 -0.203125 2.46875 -0.3125 L 2.46875 -0.75 C 2.46875 -2.0625 2.65625 -3.109375 3.140625 -3.75 Z M 4.390625 -5.46875 "/>
</symbol>
<symbol overflow="visible" id="glyph0-4">
<path style="stroke:none;" d="M 2.734375 -3.15625 C 3.5625 -3.46875 3.953125 -4.125 3.953125 -4.734375 C 3.953125 -5.421875 3.203125 -5.96875 2.265625 -5.96875 C 1.328125 -5.96875 0.640625 -5.4375 0.640625 -4.75 C 0.640625 -4.453125 0.828125 -4.28125 1.09375 -4.28125 C 1.359375 -4.28125 1.546875 -4.46875 1.546875 -4.734375 C 1.546875 -5.046875 1.328125 -5.1875 1.015625 -5.1875 C 1.25 -5.5625 1.796875 -5.734375 2.234375 -5.734375 C 2.984375 -5.734375 3.125 -5.140625 3.125 -4.734375 C 3.125 -4.453125 3.078125 -4.03125 2.84375 -3.6875 C 2.5625 -3.28125 2.25 -3.265625 2 -3.25 C 1.765625 -3.234375 1.75 -3.234375 1.6875 -3.234375 C 1.609375 -3.21875 1.53125 -3.21875 1.53125 -3.109375 C 1.53125 -3 1.609375 -3 1.75 -3 L 2.171875 -3 C 2.953125 -3 3.296875 -2.375 3.296875 -1.515625 C 3.296875 -0.375 2.6875 -0.046875 2.234375 -0.046875 C 2.0625 -0.046875 1.1875 -0.09375 0.78125 -0.765625 C 1.109375 -0.71875 1.359375 -0.9375 1.359375 -1.25 C 1.359375 -1.546875 1.140625 -1.734375 0.875 -1.734375 C 0.65625 -1.734375 0.390625 -1.59375 0.390625 -1.21875 C 0.390625 -0.421875 1.21875 0.203125 2.25 0.203125 C 3.375 0.203125 4.203125 -0.609375 4.203125 -1.515625 C 4.203125 -2.296875 3.59375 -2.96875 2.734375 -3.15625 Z M 2.734375 -3.15625 "/>
</symbol>
<symbol overflow="visible" id="glyph0-5">
<path style="stroke:none;" d="M 1.546875 -4.0625 C 1.265625 -4.234375 1.0625 -4.46875 1.0625 -4.8125 C 1.0625 -5.390625 1.6875 -5.734375 2.28125 -5.734375 C 2.96875 -5.734375 3.53125 -5.25 3.53125 -4.625 C 3.53125 -4 2.984375 -3.59375 2.625 -3.390625 Z M 2.859375 -3.234375 C 3.296875 -3.453125 3.953125 -3.90625 3.953125 -4.625 C 3.953125 -5.46875 3.109375 -5.96875 2.3125 -5.96875 C 1.375 -5.96875 0.640625 -5.296875 0.640625 -4.46875 C 0.640625 -4.125 0.765625 -3.8125 0.96875 -3.546875 C 1.125 -3.375 1.1875 -3.34375 1.703125 -3.015625 C 0.90625 -2.625 0.390625 -2.09375 0.390625 -1.359375 C 0.390625 -0.40625 1.328125 0.203125 2.296875 0.203125 C 3.328125 0.203125 4.203125 -0.53125 4.203125 -1.5 C 4.203125 -2.375 3.546875 -2.796875 3.328125 -2.953125 C 3.21875 -3.015625 2.96875 -3.171875 2.859375 -3.234375 Z M 1.9375 -2.859375 L 3.078125 -2.15625 C 3.28125 -2.015625 3.71875 -1.734375 3.71875 -1.1875 C 3.71875 -0.484375 3.015625 -0.046875 2.296875 -0.046875 C 1.515625 -0.046875 0.875 -0.609375 0.875 -1.359375 C 0.875 -2 1.3125 -2.53125 1.9375 -2.859375 Z M 1.9375 -2.859375 "/>
</symbol>
<symbol overflow="visible" id="glyph0-6">
<path style="stroke:none;" d="M 0.265625 -1.75 L 0.265625 -1.484375 L 2.703125 -1.484375 L 2.703125 -0.703125 C 2.703125 -0.375 2.671875 -0.28125 2 -0.28125 L 1.8125 -0.28125 L 1.8125 0 C 2.375 -0.03125 3 -0.03125 3.0625 -0.03125 C 3.109375 -0.03125 3.75 -0.03125 4.3125 0 L 4.3125 -0.28125 L 4.125 -0.28125 C 3.453125 -0.28125 3.421875 -0.375 3.421875 -0.703125 L 3.421875 -1.484375 L 4.328125 -1.484375 L 4.328125 -1.75 L 3.421875 -1.75 L 3.421875 -5.8125 C 3.421875 -6 3.421875 -6.0625 3.25 -6.0625 C 3.140625 -6.0625 3.140625 -6.046875 3.046875 -5.921875 Z M 0.546875 -1.75 L 2.75 -5.0625 L 2.75 -1.75 Z M 0.546875 -1.75 "/>
</symbol>
<symbol overflow="visible" id="glyph0-7">
<path style="stroke:none;" d="M 3.390625 -2.8125 L 3.390625 -2.625 C 3.390625 -0.4375 2.40625 -0.046875 1.890625 -0.046875 C 1.6875 -0.046875 1.234375 -0.09375 1 -0.390625 L 1.03125 -0.390625 C 1.09375 -0.359375 1.453125 -0.4375 1.453125 -0.796875 C 1.453125 -1.03125 1.296875 -1.203125 1.03125 -1.203125 C 0.78125 -1.203125 0.625 -1.046875 0.625 -0.78125 C 0.625 -0.1875 1.09375 0.203125 1.890625 0.203125 C 3.046875 0.203125 4.203125 -0.984375 4.203125 -2.953125 C 4.203125 -5.375 3.140625 -5.96875 2.328125 -5.96875 C 1.296875 -5.96875 0.390625 -5.125 0.390625 -3.953125 C 0.390625 -2.8125 1.203125 -1.953125 2.21875 -1.953125 C 2.875 -1.953125 3.234375 -2.4375 3.390625 -2.8125 Z M 2.234375 -2.1875 C 2.09375 -2.1875 1.65625 -2.1875 1.375 -2.734375 C 1.203125 -3.078125 1.203125 -3.515625 1.203125 -3.953125 C 1.203125 -4.375 1.203125 -4.828125 1.390625 -5.171875 C 1.65625 -5.625 2 -5.734375 2.328125 -5.734375 C 2.9375 -5.734375 3.171875 -5.125 3.21875 -5.03125 C 3.34375 -4.703125 3.375 -4.15625 3.375 -3.765625 C 3.375 -3.109375 3.078125 -2.1875 2.234375 -2.1875 Z M 2.234375 -2.1875 "/>
</symbol>
<symbol overflow="visible" id="glyph0-8">
<path style="stroke:none;" d="M 0.9375 -3.09375 C 0.9375 -2.921875 0.9375 -2.828125 1.0625 -2.828125 C 1.125 -2.828125 1.15625 -2.859375 1.203125 -2.953125 C 1.484375 -3.328125 1.90625 -3.53125 2.375 -3.53125 C 3.328125 -3.53125 3.328125 -2.15625 3.328125 -1.828125 C 3.328125 -1.5625 3.328125 -1 3.078125 -0.59375 C 2.84375 -0.21875 2.46875 -0.046875 2.109375 -0.046875 C 1.578125 -0.046875 0.984375 -0.390625 0.765625 -1.046875 C 0.78125 -1.046875 0.828125 -1.03125 0.890625 -1.03125 C 1.078125 -1.03125 1.328125 -1.140625 1.328125 -1.46875 C 1.328125 -1.75 1.140625 -1.90625 0.890625 -1.90625 C 0.703125 -1.90625 0.453125 -1.796875 0.453125 -1.4375 C 0.453125 -0.625 1.140625 0.203125 2.125 0.203125 C 3.21875 0.203125 4.140625 -0.6875 4.140625 -1.796875 C 4.140625 -2.875 3.359375 -3.765625 2.390625 -3.765625 C 1.953125 -3.765625 1.515625 -3.609375 1.203125 -3.296875 L 1.203125 -5.0625 C 1.484375 -4.984375 1.75 -4.9375 2.03125 -4.9375 C 3.140625 -4.9375 3.78125 -5.734375 3.78125 -5.84375 C 3.78125 -5.921875 3.71875 -5.96875 3.6875 -5.96875 C 3.65625 -5.96875 3.640625 -5.96875 3.5625 -5.921875 C 3.140625 -5.75 2.734375 -5.671875 2.359375 -5.671875 C 1.96875 -5.671875 1.5625 -5.75 1.15625 -5.921875 C 1.0625 -5.96875 1.046875 -5.96875 1.03125 -5.96875 C 0.9375 -5.96875 0.9375 -5.875 0.9375 -5.71875 Z M 0.9375 -3.09375 "/>
</symbol>
<symbol overflow="visible" id="glyph0-9">
<path style="stroke:none;" d="M 2.71875 -5.71875 C 2.71875 -5.9375 2.71875 -5.96875 2.484375 -5.96875 C 1.9375 -5.390625 1.109375 -5.390625 0.828125 -5.390625 L 0.828125 -5.109375 C 1 -5.109375 1.546875 -5.109375 2.03125 -5.34375 L 2.03125 -0.71875 C 2.03125 -0.390625 2 -0.28125 1.171875 -0.28125 L 0.890625 -0.28125 L 0.890625 0 C 1.203125 -0.03125 2 -0.03125 2.375 -0.03125 C 2.734375 -0.03125 3.546875 -0.03125 3.875 0 L 3.875 -0.28125 L 3.578125 -0.28125 C 2.75 -0.28125 2.71875 -0.390625 2.71875 -0.71875 Z M 2.71875 -5.71875 "/>
</symbol>
<symbol overflow="visible" id="glyph0-10">
<path style="stroke:none;" d="M 4.234375 -2.859375 C 4.234375 -3.46875 4.203125 -4.234375 3.890625 -4.90625 C 3.5 -5.75 2.8125 -5.96875 2.296875 -5.96875 C 1.765625 -5.96875 1.078125 -5.75 0.6875 -4.890625 C 0.40625 -4.265625 0.359375 -3.546875 0.359375 -2.859375 C 0.359375 -2.28125 0.375 -1.421875 0.765625 -0.703125 C 1.1875 0.046875 1.875 0.203125 2.296875 0.203125 C 2.875 0.203125 3.53125 -0.046875 3.90625 -0.875 C 4.1875 -1.484375 4.234375 -2.15625 4.234375 -2.859375 Z M 2.296875 -0.03125 C 2.03125 -0.03125 1.390625 -0.15625 1.21875 -1.15625 C 1.125 -1.6875 1.125 -2.46875 1.125 -2.96875 C 1.125 -3.578125 1.125 -4.28125 1.234375 -4.78125 C 1.421875 -5.578125 1.984375 -5.734375 2.296875 -5.734375 C 2.625 -5.734375 3.203125 -5.5625 3.359375 -4.734375 C 3.46875 -4.234375 3.46875 -3.53125 3.46875 -2.96875 C 3.46875 -2.421875 3.46875 -1.671875 3.375 -1.140625 C 3.1875 -0.109375 2.53125 -0.03125 2.296875 -0.03125 Z M 2.296875 -0.03125 "/>
</symbol>
<symbol overflow="visible" id="glyph1-0">
<path style="stroke:none;" d=""/>
</symbol>
<symbol overflow="visible" id="glyph1-1">
<path style="stroke:none;" d="M 1.265625 -0.765625 L 2.3125 -1.78125 C 3.859375 -3.15625 4.46875 -3.703125 4.46875 -4.6875 C 4.46875 -5.828125 3.5625 -6.625 2.359375 -6.625 C 1.234375 -6.625 0.5 -5.703125 0.5 -4.8125 C 0.5 -4.265625 1 -4.265625 1.03125 -4.265625 C 1.1875 -4.265625 1.546875 -4.375 1.546875 -4.796875 C 1.546875 -5.046875 1.359375 -5.3125 1.015625 -5.3125 C 0.9375 -5.3125 0.921875 -5.3125 0.890625 -5.296875 C 1.109375 -5.9375 1.65625 -6.3125 2.21875 -6.3125 C 3.125 -6.3125 3.5625 -5.5 3.5625 -4.6875 C 3.5625 -3.890625 3.0625 -3.109375 2.515625 -2.5 L 0.609375 -0.375 C 0.5 -0.265625 0.5 -0.234375 0.5 0 L 4.1875 0 L 4.46875 -1.734375 L 4.21875 -1.734375 C 4.15625 -1.4375 4.09375 -1 4 -0.84375 C 3.921875 -0.765625 3.265625 -0.765625 3.046875 -0.765625 Z M 1.265625 -0.765625 "/>
</symbol>
<symbol overflow="visible" id="glyph1-2">
<path style="stroke:none;" d="M 2.875 -3.5 C 3.703125 -3.765625 4.265625 -4.46875 4.265625 -5.25 C 4.265625 -6.0625 3.40625 -6.625 2.4375 -6.625 C 1.4375 -6.625 0.6875 -6.015625 0.6875 -5.265625 C 0.6875 -4.9375 0.90625 -4.75 1.1875 -4.75 C 1.5 -4.75 1.703125 -4.96875 1.703125 -5.25 C 1.703125 -5.75 1.234375 -5.75 1.078125 -5.75 C 1.390625 -6.234375 2.046875 -6.375 2.40625 -6.375 C 2.8125 -6.375 3.359375 -6.15625 3.359375 -5.25 C 3.359375 -5.140625 3.34375 -4.5625 3.078125 -4.125 C 2.78125 -3.640625 2.4375 -3.625 2.203125 -3.609375 C 2.109375 -3.59375 1.875 -3.578125 1.8125 -3.578125 C 1.734375 -3.5625 1.65625 -3.5625 1.65625 -3.453125 C 1.65625 -3.34375 1.734375 -3.34375 1.890625 -3.34375 L 2.328125 -3.34375 C 3.15625 -3.34375 3.515625 -2.671875 3.515625 -1.703125 C 3.515625 -0.34375 2.828125 -0.0625 2.390625 -0.0625 C 1.96875 -0.0625 1.21875 -0.234375 0.875 -0.8125 C 1.21875 -0.765625 1.53125 -0.984375 1.53125 -1.359375 C 1.53125 -1.71875 1.265625 -1.921875 0.96875 -1.921875 C 0.734375 -1.921875 0.421875 -1.78125 0.421875 -1.34375 C 0.421875 -0.4375 1.34375 0.21875 2.421875 0.21875 C 3.640625 0.21875 4.546875 -0.6875 4.546875 -1.703125 C 4.546875 -2.515625 3.921875 -3.296875 2.875 -3.5 Z M 2.875 -3.5 "/>
</symbol>
<symbol overflow="visible" id="glyph1-3">
<path style="stroke:none;" d="M 2.921875 -1.640625 L 2.921875 -0.78125 C 2.921875 -0.421875 2.90625 -0.3125 2.171875 -0.3125 L 1.953125 -0.3125 L 1.953125 0 C 2.359375 -0.03125 2.875 -0.03125 3.296875 -0.03125 C 3.71875 -0.03125 4.25 -0.03125 4.65625 0 L 4.65625 -0.3125 L 4.4375 -0.3125 C 3.703125 -0.3125 3.6875 -0.421875 3.6875 -0.78125 L 3.6875 -1.640625 L 4.6875 -1.640625 L 4.6875 -1.953125 L 3.6875 -1.953125 L 3.6875 -6.46875 C 3.6875 -6.671875 3.6875 -6.734375 3.53125 -6.734375 C 3.4375 -6.734375 3.40625 -6.734375 3.328125 -6.609375 L 0.28125 -1.953125 L 0.28125 -1.640625 Z M 2.984375 -1.953125 L 0.5625 -1.953125 L 2.984375 -5.65625 Z M 2.984375 -1.953125 "/>
</symbol>
<symbol overflow="visible" id="glyph1-4">
<path style="stroke:none;" d="M 4.46875 -2 C 4.46875 -3.1875 3.640625 -4.171875 2.578125 -4.171875 C 2.09375 -4.171875 1.671875 -4.015625 1.3125 -3.671875 L 1.3125 -5.609375 C 1.515625 -5.546875 1.84375 -5.46875 2.15625 -5.46875 C 3.375 -5.46875 4.078125 -6.375 4.078125 -6.515625 C 4.078125 -6.5625 4.046875 -6.625 3.96875 -6.625 C 3.96875 -6.625 3.9375 -6.625 3.890625 -6.59375 C 3.703125 -6.5 3.203125 -6.296875 2.546875 -6.296875 C 2.140625 -6.296875 1.6875 -6.375 1.21875 -6.578125 C 1.140625 -6.609375 1.125 -6.609375 1.109375 -6.609375 C 1 -6.609375 1 -6.53125 1 -6.375 L 1 -3.421875 C 1 -3.25 1 -3.171875 1.140625 -3.171875 C 1.21875 -3.171875 1.234375 -3.203125 1.265625 -3.265625 C 1.375 -3.421875 1.75 -3.953125 2.546875 -3.953125 C 3.078125 -3.953125 3.3125 -3.5 3.40625 -3.3125 C 3.5625 -2.953125 3.578125 -2.5625 3.578125 -2.0625 C 3.578125 -1.71875 3.578125 -1.125 3.34375 -0.703125 C 3.09375 -0.3125 2.734375 -0.0625 2.28125 -0.0625 C 1.546875 -0.0625 0.984375 -0.59375 0.8125 -1.171875 C 0.84375 -1.15625 0.875 -1.15625 0.984375 -1.15625 C 1.3125 -1.15625 1.484375 -1.40625 1.484375 -1.640625 C 1.484375 -1.875 1.3125 -2.125 0.984375 -2.125 C 0.84375 -2.125 0.5 -2.0625 0.5 -1.59375 C 0.5 -0.75 1.1875 0.21875 2.296875 0.21875 C 3.453125 0.21875 4.46875 -0.734375 4.46875 -2 Z M 4.46875 -2 "/>
</symbol>
<symbol overflow="visible" id="glyph1-5">
<path style="stroke:none;" d="M 1.3125 -3.265625 L 1.3125 -3.5 C 1.3125 -6.015625 2.546875 -6.375 3.046875 -6.375 C 3.296875 -6.375 3.703125 -6.3125 3.921875 -5.96875 C 3.78125 -5.96875 3.375 -5.96875 3.375 -5.53125 C 3.375 -5.21875 3.625 -5.0625 3.828125 -5.0625 C 4 -5.0625 4.296875 -5.15625 4.296875 -5.546875 C 4.296875 -6.140625 3.859375 -6.625 3.03125 -6.625 C 1.765625 -6.625 0.421875 -5.34375 0.421875 -3.140625 C 0.421875 -0.484375 1.5625 0.21875 2.5 0.21875 C 3.59375 0.21875 4.546875 -0.71875 4.546875 -2.03125 C 4.546875 -3.296875 3.65625 -4.25 2.546875 -4.25 C 1.875 -4.25 1.515625 -3.734375 1.3125 -3.265625 Z M 2.5 -0.0625 C 1.875 -0.0625 1.5625 -0.65625 1.515625 -0.8125 C 1.328125 -1.265625 1.328125 -2.0625 1.328125 -2.25 C 1.328125 -3.015625 1.65625 -4.015625 2.546875 -4.015625 C 2.703125 -4.015625 3.15625 -4.015625 3.46875 -3.40625 C 3.640625 -3.03125 3.640625 -2.53125 3.640625 -2.03125 C 3.640625 -1.5625 3.640625 -1.0625 3.484375 -0.703125 C 3.1875 -0.109375 2.71875 -0.0625 2.5 -0.0625 Z M 2.5 -0.0625 "/>
</symbol>
<symbol overflow="visible" id="glyph1-6">
<path style="stroke:none;" d="M 2.921875 -6.359375 C 2.921875 -6.59375 2.921875 -6.625 2.6875 -6.625 C 2.078125 -5.984375 1.203125 -5.984375 0.890625 -5.984375 L 0.890625 -5.671875 C 1.078125 -5.671875 1.671875 -5.671875 2.1875 -5.9375 L 2.1875 -0.78125 C 2.1875 -0.421875 2.15625 -0.3125 1.265625 -0.3125 L 0.9375 -0.3125 L 0.9375 0 C 1.296875 -0.03125 2.15625 -0.03125 2.546875 -0.03125 C 2.953125 -0.03125 3.8125 -0.03125 4.15625 0 L 4.15625 -0.3125 L 3.84375 -0.3125 C 2.953125 -0.3125 2.921875 -0.421875 2.921875 -0.78125 Z M 2.921875 -6.359375 "/>
</symbol>
<symbol overflow="visible" id="glyph1-7">
<path style="stroke:none;" d="M 4.734375 -6.046875 C 4.8125 -6.171875 4.8125 -6.1875 4.8125 -6.40625 L 2.40625 -6.40625 C 1.1875 -6.40625 1.171875 -6.53125 1.140625 -6.71875 L 0.890625 -6.71875 L 0.5625 -4.671875 L 0.8125 -4.671875 C 0.828125 -4.828125 0.921875 -5.453125 1.046875 -5.578125 C 1.125 -5.640625 1.890625 -5.640625 2.03125 -5.640625 L 4.078125 -5.640625 C 3.96875 -5.46875 3.1875 -4.390625 2.96875 -4.0625 C 2.078125 -2.71875 1.75 -1.34375 1.75 -0.328125 C 1.75 -0.234375 1.75 0.21875 2.203125 0.21875 C 2.65625 0.21875 2.65625 -0.234375 2.65625 -0.328125 L 2.65625 -0.828125 C 2.65625 -1.375 2.6875 -1.921875 2.765625 -2.46875 C 2.8125 -2.6875 2.953125 -3.546875 3.390625 -4.15625 Z M 4.734375 -6.046875 "/>
</symbol>
<symbol overflow="visible" id="glyph2-0">
<path style="stroke:none;" d=""/>
</symbol>
<symbol overflow="visible" id="glyph2-1">
<path style="stroke:none;" d="M 3.71875 -6.015625 C 3.8125 -6.375 3.828125 -6.484375 4.625 -6.484375 C 4.859375 -6.484375 4.9375 -6.484375 4.9375 -6.671875 C 4.9375 -6.78125 4.828125 -6.78125 4.796875 -6.78125 C 4.5 -6.78125 3.765625 -6.75 3.484375 -6.75 C 3.1875 -6.75 2.453125 -6.78125 2.15625 -6.78125 C 2.09375 -6.78125 1.953125 -6.78125 1.953125 -6.59375 C 1.953125 -6.484375 2.046875 -6.484375 2.234375 -6.484375 C 2.65625 -6.484375 2.921875 -6.484375 2.921875 -6.296875 C 2.921875 -6.234375 2.921875 -6.21875 2.90625 -6.125 L 1.5625 -0.78125 C 1.46875 -0.40625 1.4375 -0.3125 0.65625 -0.3125 C 0.421875 -0.3125 0.34375 -0.3125 0.34375 -0.109375 C 0.34375 0 0.453125 0 0.484375 0 C 0.78125 0 1.5 -0.03125 1.78125 -0.03125 C 2.09375 -0.03125 2.828125 0 3.125 0 C 3.203125 0 3.3125 0 3.3125 -0.1875 C 3.3125 -0.3125 3.234375 -0.3125 3.015625 -0.3125 C 2.84375 -0.3125 2.796875 -0.3125 2.59375 -0.328125 C 2.390625 -0.34375 2.34375 -0.390625 2.34375 -0.5 C 2.34375 -0.578125 2.359375 -0.65625 2.390625 -0.71875 Z M 3.71875 -6.015625 "/>
</symbol>
<symbol overflow="visible" id="glyph2-2">
<path style="stroke:none;" d="M 6.234375 -5.65625 C 6.734375 -6.421875 7.140625 -6.453125 7.515625 -6.484375 C 7.625 -6.484375 7.640625 -6.65625 7.640625 -6.671875 C 7.640625 -6.75 7.59375 -6.78125 7.515625 -6.78125 C 7.25 -6.78125 6.96875 -6.75 6.703125 -6.75 C 6.375 -6.75 6.03125 -6.78125 5.71875 -6.78125 C 5.65625 -6.78125 5.53125 -6.78125 5.53125 -6.59375 C 5.53125 -6.484375 5.609375 -6.484375 5.6875 -6.484375 C 5.953125 -6.453125 6.140625 -6.359375 6.140625 -6.15625 C 6.140625 -6 6 -5.78125 6 -5.78125 L 2.9375 -0.921875 L 2.265625 -6.1875 C 2.265625 -6.34375 2.5 -6.484375 2.953125 -6.484375 C 3.09375 -6.484375 3.203125 -6.484375 3.203125 -6.671875 C 3.203125 -6.765625 3.125 -6.78125 3.0625 -6.78125 C 2.65625 -6.78125 2.234375 -6.75 1.828125 -6.75 C 1.65625 -6.75 1.453125 -6.765625 1.28125 -6.765625 C 1.109375 -6.765625 0.921875 -6.78125 0.75 -6.78125 C 0.671875 -6.78125 0.5625 -6.78125 0.5625 -6.59375 C 0.5625 -6.484375 0.640625 -6.484375 0.8125 -6.484375 C 1.359375 -6.484375 1.375 -6.390625 1.40625 -6.140625 L 2.1875 -0.015625 C 2.21875 0.1875 2.25 0.21875 2.390625 0.21875 C 2.546875 0.21875 2.578125 0.171875 2.65625 0.046875 Z M 6.234375 -5.65625 "/>
</symbol>
<symbol overflow="visible" id="glyph3-0">
<path style="stroke:none;" d=""/>
</symbol>
<symbol overflow="visible" id="glyph3-1">
<path style="stroke:none;" d="M 8.28125 -2.28125 C 7.734375 -1.875 7.46875 -1.453125 7.390625 -1.328125 C 6.953125 -0.640625 6.859375 -0.015625 6.859375 -0.015625 C 6.859375 0.109375 6.984375 0.109375 7.0625 0.109375 C 7.234375 0.109375 7.25 0.09375 7.28125 -0.09375 C 7.515625 -1.0625 8.09375 -1.890625 9.21875 -2.359375 C 9.34375 -2.390625 9.375 -2.421875 9.375 -2.484375 C 9.375 -2.546875 9.3125 -2.578125 9.296875 -2.59375 C 8.859375 -2.765625 7.65625 -3.265625 7.28125 -4.921875 C 7.25 -5.046875 7.234375 -5.078125 7.0625 -5.078125 C 6.984375 -5.078125 6.859375 -5.078125 6.859375 -4.953125 C 6.859375 -4.9375 6.953125 -4.3125 7.375 -3.640625 C 7.578125 -3.34375 7.859375 -3 8.28125 -2.6875 L 0.90625 -2.6875 C 0.71875 -2.6875 0.546875 -2.6875 0.546875 -2.484375 C 0.546875 -2.28125 0.71875 -2.28125 0.90625 -2.28125 Z M 8.28125 -2.28125 "/>
</symbol>
</g>
</defs>
<g id="surface1">
<path style="fill-rule:nonzero;fill:rgb(100%,96.939087%,40.000916%);fill-opacity:1;stroke-width:0.3985;stroke-linecap:butt;stroke-linejoin:round;stroke:rgb(0%,0%,0%);stroke-opacity:1;stroke-miterlimit:10;" d="M -99.214094 -0.00061888 L -99.214094 70.866403 L -31.815841 21.900388 Z M -99.214094 -0.00061888 L -31.815841 21.900388 L -57.561464 -57.333179 Z M -99.214094 -0.00061888 L -57.561464 -57.333179 L -140.866723 -57.333179 Z M -99.214094 -0.00061888 L -140.866723 -57.333179 L -166.612347 21.900388 Z M -99.214094 -0.00061888 L -166.612347 21.900388 L -99.214094 70.866403 L -99.214094 -0.00061888 " transform="matrix(0.997742,0,0,-0.997742,178.029169,83.972039)"/>
<path style=" stroke:none;fill-rule:nonzero;fill:rgb(79.998779%,79.998779%,100%);fill-opacity:1;" d="M 107.050781 43.890625 L 118.273438 43.890625 L 118.273438 31.496094 L 107.050781 31.496094 Z M 107.050781 43.890625 "/>
<g style="fill:rgb(0%,0%,0%);fill-opacity:1;">
  <use xlink:href="#glyph0-1" x="110.365274" y="40.577229"/>
</g>
<path style=" stroke:none;fill-rule:nonzero;fill:rgb(79.998779%,79.998779%,100%);fill-opacity:1;" d="M 107.050781 79.242188 L 118.273438 79.242188 L 118.273438 66.851562 L 107.050781 66.851562 Z M 107.050781 79.242188 "/>
<g style="fill:rgb(0%,0%,0%);fill-opacity:1;">
  <use xlink:href="#glyph0-2" x="110.365274" y="75.930235"/>
</g>
<path style=" stroke:none;fill-rule:nonzero;fill:rgb(79.998779%,79.998779%,100%);fill-opacity:1;" d="M 127.832031 107.84375 L 139.054688 107.84375 L 139.054688 95.453125 L 127.832031 95.453125 Z M 127.832031 107.84375 "/>
<g style="fill:rgb(0%,0%,0%);fill-opacity:1;">
  <use xlink:href="#glyph0-3" x="131.145254" y="104.531518"/>
</g>
<path style=" stroke:none;fill-rule:nonzero;fill:rgb(79.998779%,79.998779%,100%);fill-opacity:1;" d="M 94.207031 118.769531 L 105.429688 118.769531 L 105.429688 106.378906 L 94.207031 106.378906 Z M 94.207031 118.769531 "/>
<g style="fill:rgb(0%,0%,0%);fill-opacity:1;">
  <use xlink:href="#glyph0-4" x="97.522334" y="115.4558"/>
</g>
<path style=" stroke:none;fill-rule:nonzero;fill:rgb(79.998779%,79.998779%,100%);fill-opacity:1;" d="M 73.425781 147.371094 L 84.652344 147.371094 L 84.652344 134.980469 L 73.425781 134.980469 Z M 73.425781 147.371094 "/>
<g style="fill:rgb(0%,0%,0%);fill-opacity:1;">
  <use xlink:href="#glyph0-5" x="76.742353" y="144.057083"/>
</g>
<path style=" stroke:none;fill-rule:nonzero;fill:rgb(79.998779%,79.998779%,100%);fill-opacity:1;" d="M 52.648438 118.769531 L 63.871094 118.769531 L 63.871094 106.378906 L 52.648438 106.378906 Z M 52.648438 118.769531 "/>
<g style="fill:rgb(0%,0%,0%);fill-opacity:1;">
  <use xlink:href="#glyph0-6" x="55.962372" y="115.4558"/>
</g>
<path style=" stroke:none;fill-rule:nonzero;fill:rgb(79.998779%,79.998779%,100%);fill-opacity:1;" d="M 19.023438 107.84375 L 30.246094 107.84375 L 30.246094 95.453125 L 19.023438 95.453125 Z M 19.023438 107.84375 "/>
<g style="fill:rgb(0%,0%,0%);fill-opacity:1;">
  <use xlink:href="#glyph0-7" x="22.339452" y="104.531518"/>
</g>
<path style=" stroke:none;fill-rule:nonzero;fill:rgb(79.998779%,79.998779%,100%);fill-opacity:1;" d="M 39.804688 79.242188 L 51.027344 79.242188 L 51.027344 66.851562 L 39.804688 66.851562 Z M 39.804688 79.242188 "/>
<g style="fill:rgb(0%,0%,0%);fill-opacity:1;">
  <use xlink:href="#glyph0-8" x="43.119433" y="75.930235"/>
</g>
<path style=" stroke:none;fill-rule:nonzero;fill:rgb(79.998779%,79.998779%,100%);fill-opacity:1;" d="M 37.503906 43.890625 L 53.328125 43.890625 L 53.328125 31.496094 L 37.503906 31.496094 Z M 37.503906 43.890625 "/>
<g style="fill:rgb(0%,0%,0%);fill-opacity:1;">
  <use xlink:href="#glyph0-9" x="40.820634" y="40.577229"/>
  <use xlink:href="#glyph0-10" x="45.418064" y="40.577229"/>
</g>
<path style=" stroke:none;fill-rule:nonzero;fill:rgb(79.998779%,79.998779%,100%);fill-opacity:1;" d="M 73.425781 54.8125 L 84.652344 54.8125 L 84.652344 42.421875 L 73.425781 42.421875 Z M 73.425781 54.8125 "/>
<g style="fill:rgb(0%,0%,0%);fill-opacity:1;">
  <use xlink:href="#glyph0-9" x="76.742353" y="51.501511"/>
</g>
<path style=" stroke:none;fill-rule:nonzero;fill:rgb(0%,0%,100%);fill-opacity:1;" d="M 81.027344 13.265625 C 81.027344 12.167969 80.136719 11.277344 79.039062 11.277344 C 77.941406 11.277344 77.050781 12.167969 77.050781 13.265625 C 77.050781 14.363281 77.941406 15.253906 79.039062 15.253906 C 80.136719 15.253906 81.027344 14.363281 81.027344 13.265625 Z M 81.027344 13.265625 "/>
<g style="fill:rgb(0%,0%,100%);fill-opacity:1;">
  <use xlink:href="#glyph1-1" x="76.555775" y="9.753974"/>
</g>
<path style=" stroke:none;fill-rule:nonzero;fill:rgb(0%,0%,100%);fill-opacity:1;" d="M 148.273438 62.121094 C 148.273438 61.023438 147.382812 60.132812 146.285156 60.132812 C 145.1875 60.132812 144.296875 61.023438 144.296875 62.121094 C 144.296875 63.21875 145.1875 64.109375 146.285156 64.109375 C 147.382812 64.109375 148.273438 63.21875 148.273438 62.121094 Z M 148.273438 62.121094 "/>
<g style="fill:rgb(0%,0%,100%);fill-opacity:1;">
  <use xlink:href="#glyph1-2" x="149.798048" y="65.325231"/>
</g>
<path style=" stroke:none;fill-rule:nonzero;fill:rgb(0%,0%,100%);fill-opacity:1;" d="M 122.585938 141.175781 C 122.585938 140.078125 121.699219 139.1875 120.597656 139.1875 C 119.5 139.1875 118.613281 140.078125 118.613281 141.175781 C 118.613281 142.273438 119.5 143.164062 120.597656 143.164062 C 121.699219 143.164062 122.585938 142.273438 122.585938 141.175781 Z M 122.585938 141.175781 "/>
<g style="fill:rgb(0%,0%,100%);fill-opacity:1;">
  <use xlink:href="#glyph1-3" x="118.115736" y="151.092164"/>
</g>
<path style=" stroke:none;fill-rule:nonzero;fill:rgb(0%,0%,100%);fill-opacity:1;" d="M 39.46875 141.175781 C 39.46875 140.078125 38.578125 139.1875 37.480469 139.1875 C 36.382812 139.1875 35.492188 140.078125 35.492188 141.175781 C 35.492188 142.273438 36.382812 143.164062 37.480469 143.164062 C 38.578125 143.164062 39.46875 142.273438 39.46875 141.175781 Z M 39.46875 141.175781 "/>
<g style="fill:rgb(0%,0%,100%);fill-opacity:1;">
  <use xlink:href="#glyph1-4" x="34.995814" y="151.092164"/>
</g>
<path style=" stroke:none;fill-rule:nonzero;fill:rgb(0%,0%,100%);fill-opacity:1;" d="M 13.78125 62.121094 C 13.78125 61.023438 12.890625 60.132812 11.792969 60.132812 C 10.695312 60.132812 9.804688 61.023438 9.804688 62.121094 C 9.804688 63.21875 10.695312 64.109375 11.792969 64.109375 C 12.890625 64.109375 13.78125 63.21875 13.78125 62.121094 Z M 13.78125 62.121094 "/>
<g style="fill:rgb(0%,0%,100%);fill-opacity:1;">
  <use xlink:href="#glyph1-5" x="3.312505" y="65.325231"/>
</g>
<path style=" stroke:none;fill-rule:nonzero;fill:rgb(0%,0%,100%);fill-opacity:1;" d="M 81.027344 83.972656 C 81.027344 82.875 80.136719 81.984375 79.039062 81.984375 C 77.941406 81.984375 77.050781 82.875 77.050781 83.972656 C 77.050781 85.070312 77.941406 85.960938 79.039062 85.960938 C 80.136719 85.960938 81.027344 85.070312 81.027344 83.972656 Z M 81.027344 83.972656 "/>
<g style="fill:rgb(0%,0%,100%);fill-opacity:1;">
  <use xlink:href="#glyph1-6" x="76.555775" y="93.889598"/>
</g>
<g style="fill:rgb(0%,0%,0%);fill-opacity:1;">
  <use xlink:href="#glyph2-1" x="98.881259" y="56.517162"/>
</g>
<g style="fill:rgb(0%,0%,0%);fill-opacity:1;">
  <use xlink:href="#glyph2-1" x="110.158741" y="99.152689"/>
</g>
<g style="fill:rgb(0%,0%,0%);fill-opacity:1;">
  <use xlink:href="#glyph2-1" x="115.313681" y="99.152689"/>
</g>
<g style="fill:rgb(0%,0%,0%);fill-opacity:1;">
  <use xlink:href="#glyph2-1" x="71.31663" y="125.503065"/>
</g>
<g style="fill:rgb(0%,0%,0%);fill-opacity:1;">
  <use xlink:href="#glyph2-1" x="76.46163" y="125.503065"/>
</g>
<g style="fill:rgb(0%,0%,0%);fill-opacity:1;">
  <use xlink:href="#glyph2-1" x="81.61657" y="125.503065"/>
</g>
<g style="fill:rgb(0%,0%,0%);fill-opacity:1;">
  <use xlink:href="#glyph2-1" x="36.194103" y="99.152689"/>
</g>
<g style="fill:rgb(0%,0%,0%);fill-opacity:1;">
  <use xlink:href="#glyph2-2" x="41.339103" y="99.152689"/>
</g>
<g style="fill:rgb(0%,0%,0%);fill-opacity:1;">
  <use xlink:href="#glyph2-2" x="52.621931" y="56.517162"/>
</g>
<g style="fill:rgb(0%,0%,0%);fill-opacity:1;">
  <use xlink:href="#glyph3-1" x="173.059414" y="85.795912"/>
</g>
<path style="fill-rule:nonzero;fill:rgb(100%,96.939087%,40.000916%);fill-opacity:1;stroke-width:0.3985;stroke-linecap:butt;stroke-linejoin:round;stroke:rgb(0%,0%,0%);stroke-opacity:1;stroke-miterlimit:10;" d="M 99.214351 -0.00061888 L 99.214351 70.866403 L 166.612604 21.900388 Z M 99.214351 -0.00061888 L 166.612604 21.900388 L 140.86698 -57.333179 Z M 99.214351 -0.00061888 L 140.86698 -57.333179 L 57.557806 -57.333179 Z M 99.214351 -0.00061888 L 57.557806 -57.333179 L 31.816097 21.900388 Z M 99.214351 -0.00061888 L 31.816097 21.900388 L 99.214351 70.866403 L 99.214351 -0.00061888 " transform="matrix(0.997742,0,0,-0.997742,178.029169,83.972039)"/>
<path style=" stroke:none;fill-rule:nonzero;fill:rgb(79.998779%,79.998779%,100%);fill-opacity:1;" d="M 305.03125 43.890625 L 316.253906 43.890625 L 316.253906 31.496094 L 305.03125 31.496094 Z M 305.03125 43.890625 "/>
<g style="fill:rgb(0%,0%,0%);fill-opacity:1;">
  <use xlink:href="#glyph0-5" x="308.342306" y="40.577229"/>
</g>
<path style=" stroke:none;fill-rule:nonzero;fill:rgb(79.998779%,79.998779%,100%);fill-opacity:1;" d="M 305.03125 79.242188 L 316.253906 79.242188 L 316.253906 66.851562 L 305.03125 66.851562 Z M 305.03125 79.242188 "/>
<g style="fill:rgb(0%,0%,0%);fill-opacity:1;">
  <use xlink:href="#glyph0-4" x="308.342306" y="75.930235"/>
</g>
<path style=" stroke:none;fill-rule:nonzero;fill:rgb(79.998779%,79.998779%,100%);fill-opacity:1;" d="M 325.8125 107.84375 L 337.035156 107.84375 L 337.035156 95.453125 L 325.8125 95.453125 Z M 325.8125 107.84375 "/>
<g style="fill:rgb(0%,0%,0%);fill-opacity:1;">
  <use xlink:href="#glyph0-7" x="329.122286" y="104.531518"/>
</g>
<path style=" stroke:none;fill-rule:nonzero;fill:rgb(79.998779%,79.998779%,100%);fill-opacity:1;" d="M 292.1875 118.769531 L 303.410156 118.769531 L 303.410156 106.378906 L 292.1875 106.378906 Z M 292.1875 118.769531 "/>
<g style="fill:rgb(0%,0%,0%);fill-opacity:1;">
  <use xlink:href="#glyph0-6" x="295.499366" y="115.4558"/>
</g>
<path style=" stroke:none;fill-rule:nonzero;fill:rgb(79.998779%,79.998779%,100%);fill-opacity:1;" d="M 269.109375 147.371094 L 284.929688 147.371094 L 284.929688 134.980469 L 269.109375 134.980469 Z M 269.109375 147.371094 "/>
<g style="fill:rgb(0%,0%,0%);fill-opacity:1;">
  <use xlink:href="#glyph0-9" x="272.420587" y="144.057083"/>
  <use xlink:href="#glyph0-10" x="277.018017" y="144.057083"/>
</g>
<path style=" stroke:none;fill-rule:nonzero;fill:rgb(79.998779%,79.998779%,100%);fill-opacity:1;" d="M 250.628906 118.769531 L 261.851562 118.769531 L 261.851562 106.378906 L 250.628906 106.378906 Z M 250.628906 118.769531 "/>
<g style="fill:rgb(0%,0%,0%);fill-opacity:1;">
  <use xlink:href="#glyph0-8" x="253.939405" y="115.4558"/>
</g>
<path style=" stroke:none;fill-rule:nonzero;fill:rgb(79.998779%,79.998779%,100%);fill-opacity:1;" d="M 214.707031 107.84375 L 230.527344 107.84375 L 230.527344 95.453125 L 214.707031 95.453125 Z M 214.707031 107.84375 "/>
<g style="fill:rgb(0%,0%,0%);fill-opacity:1;">
  <use xlink:href="#glyph0-9" x="218.017686" y="104.531518"/>
  <use xlink:href="#glyph0-9" x="222.615116" y="104.531518"/>
</g>
<path style=" stroke:none;fill-rule:nonzero;fill:rgb(79.998779%,79.998779%,100%);fill-opacity:1;" d="M 237.785156 79.242188 L 249.007812 79.242188 L 249.007812 66.851562 L 237.785156 66.851562 Z M 237.785156 79.242188 "/>
<g style="fill:rgb(0%,0%,0%);fill-opacity:1;">
  <use xlink:href="#glyph0-1" x="241.096465" y="75.930235"/>
</g>
<path style=" stroke:none;fill-rule:nonzero;fill:rgb(79.998779%,79.998779%,100%);fill-opacity:1;" d="M 235.484375 43.890625 L 251.304688 43.890625 L 251.304688 31.496094 L 235.484375 31.496094 Z M 235.484375 43.890625 "/>
<g style="fill:rgb(0%,0%,0%);fill-opacity:1;">
  <use xlink:href="#glyph0-9" x="238.797666" y="40.577229"/>
  <use xlink:href="#glyph0-2" x="243.395097" y="40.577229"/>
</g>
<path style=" stroke:none;fill-rule:nonzero;fill:rgb(79.998779%,79.998779%,100%);fill-opacity:1;" d="M 271.40625 54.8125 L 282.628906 54.8125 L 282.628906 42.421875 L 271.40625 42.421875 Z M 271.40625 54.8125 "/>
<g style="fill:rgb(0%,0%,0%);fill-opacity:1;">
  <use xlink:href="#glyph0-2" x="274.719385" y="51.501511"/>
</g>
<path style=" stroke:none;fill-rule:nonzero;fill:rgb(0%,0%,100%);fill-opacity:1;" d="M 279.007812 13.265625 C 279.007812 12.167969 278.117188 11.277344 277.019531 11.277344 C 275.921875 11.277344 275.03125 12.167969 275.03125 13.265625 C 275.03125 14.363281 275.921875 15.253906 277.019531 15.253906 C 278.117188 15.253906 279.007812 14.363281 279.007812 13.265625 Z M 279.007812 13.265625 "/>
<g style="fill:rgb(0%,0%,100%);fill-opacity:1;">
  <use xlink:href="#glyph1-2" x="274.532807" y="9.753974"/>
</g>
<path style=" stroke:none;fill-rule:nonzero;fill:rgb(0%,0%,100%);fill-opacity:1;" d="M 346.253906 62.121094 C 346.253906 61.023438 345.363281 60.132812 344.265625 60.132812 C 343.167969 60.132812 342.277344 61.023438 342.277344 62.121094 C 342.277344 63.21875 343.167969 64.109375 344.265625 64.109375 C 345.363281 64.109375 346.253906 63.21875 346.253906 62.121094 Z M 346.253906 62.121094 "/>
<g style="fill:rgb(0%,0%,100%);fill-opacity:1;">
  <use xlink:href="#glyph1-3" x="347.776078" y="65.325231"/>
</g>
<path style=" stroke:none;fill-rule:nonzero;fill:rgb(0%,0%,100%);fill-opacity:1;" d="M 320.566406 141.175781 C 320.566406 140.078125 319.675781 139.1875 318.578125 139.1875 C 317.480469 139.1875 316.589844 140.078125 316.589844 141.175781 C 316.589844 142.273438 317.480469 143.164062 318.578125 143.164062 C 319.675781 143.164062 320.566406 142.273438 320.566406 141.175781 Z M 320.566406 141.175781 "/>
<g style="fill:rgb(0%,0%,100%);fill-opacity:1;">
  <use xlink:href="#glyph1-4" x="316.092769" y="151.092164"/>
</g>
<path style=" stroke:none;fill-rule:nonzero;fill:rgb(0%,0%,100%);fill-opacity:1;" d="M 237.445312 141.175781 C 237.445312 140.078125 236.558594 139.1875 235.457031 139.1875 C 234.359375 139.1875 233.472656 140.078125 233.472656 141.175781 C 233.472656 142.273438 234.359375 143.164062 235.457031 143.164062 C 236.558594 143.164062 237.445312 142.273438 237.445312 141.175781 Z M 237.445312 141.175781 "/>
<g style="fill:rgb(0%,0%,100%);fill-opacity:1;">
  <use xlink:href="#glyph1-5" x="232.972846" y="151.092164"/>
</g>
<path style=" stroke:none;fill-rule:nonzero;fill:rgb(0%,0%,100%);fill-opacity:1;" d="M 211.761719 62.121094 C 211.761719 61.023438 210.871094 60.132812 209.773438 60.132812 C 208.675781 60.132812 207.785156 61.023438 207.785156 62.121094 C 207.785156 63.21875 208.675781 64.109375 209.773438 64.109375 C 210.871094 64.109375 211.761719 63.21875 211.761719 62.121094 Z M 211.761719 62.121094 "/>
<g style="fill:rgb(0%,0%,100%);fill-opacity:1;">
  <use xlink:href="#glyph1-7" x="201.290535" y="65.325231"/>
</g>
<path style=" stroke:none;fill-rule:nonzero;fill:rgb(0%,0%,100%);fill-opacity:1;" d="M 279.007812 83.972656 C 279.007812 82.875 278.117188 81.984375 277.019531 81.984375 C 275.921875 81.984375 275.03125 82.875 275.03125 83.972656 C 275.03125 85.070312 275.921875 85.960938 277.019531 85.960938 C 278.117188 85.960938 279.007812 85.070312 279.007812 83.972656 Z M 279.007812 83.972656 "/>
<g style="fill:rgb(0%,0%,100%);fill-opacity:1;">
  <use xlink:href="#glyph1-6" x="274.532807" y="93.889598"/>
</g>
<g style="fill:rgb(0%,0%,0%);fill-opacity:1;">
  <use xlink:href="#glyph2-1" x="291.708943" y="56.517162"/>
</g>
<g style="fill:rgb(0%,0%,0%);fill-opacity:1;">
  <use xlink:href="#glyph2-1" x="296.853943" y="56.517162"/>
</g>
<g style="fill:rgb(0%,0%,0%);fill-opacity:1;">
  <use xlink:href="#glyph2-1" x="302.008883" y="56.517162"/>
</g>
<g style="fill:rgb(0%,0%,0%);fill-opacity:1;">
  <use xlink:href="#glyph2-1" x="306.707006" y="99.152689"/>
</g>
<g style="fill:rgb(0%,0%,0%);fill-opacity:1;">
  <use xlink:href="#glyph2-2" x="311.861946" y="99.152689"/>
</g>
<g style="fill:rgb(0%,0%,0%);fill-opacity:1;">
  <use xlink:href="#glyph2-2" x="273.014244" y="125.503065"/>
</g>
<g style="fill:rgb(0%,0%,0%);fill-opacity:1;">
  <use xlink:href="#glyph2-2" x="234.171135" y="99.152689"/>
</g>
<g style="fill:rgb(0%,0%,0%);fill-opacity:1;">
  <use xlink:href="#glyph2-1" x="242.175904" y="99.152689"/>
</g>
<g style="fill:rgb(0%,0%,0%);fill-opacity:1;">
  <use xlink:href="#glyph2-2" x="245.449615" y="56.517162"/>
</g>
<g style="fill:rgb(0%,0%,0%);fill-opacity:1;">
  <use xlink:href="#glyph2-1" x="253.454384" y="56.517162"/>
</g>
<g style="fill:rgb(0%,0%,0%);fill-opacity:1;">
  <use xlink:href="#glyph2-1" x="258.609324" y="56.517162"/>
</g>
</g>
</svg>
