<?xml version="1.0" encoding="iso-8859-1" standalone="no"?> 
<?xml-stylesheet href="_Wrapper__TIKZ_Prism_coloured.css" type="text/css"?> 
<svg xmlns="http://www.w3.org/2000/svg" xmlns:xlink="http://www.w3.org/1999/xlink" width="183.22787pt" height="165.82437pt" viewBox="-63.77144 -111.36493 183.22787 165.82437 "> 
<g transform="translate(0,54.45944 ) scale(1,-1) translate(0,111.36493 )"> 
            <g stroke="#000" fill="#000">
 <g stroke-width="0.4">
 <g fill="#ff6">
 <path d=" M 56.90549 0.0 L 28.45273 49.28171 L 0.0 0.0 Z  " stroke="none"/>
 </g>
 <g transform="translate(25.9523,13.20476)">
 <g fill="#000">
 <text style="stroke:none" transform="scale(1,-1) translate(2.5,0)" text-anchor="middle"  font-size="10"> 
<g fill="#000">
 <g stroke="none"> 1</g> </g>
 </text> 
</g>
 </g>
 <g fill="#ff6">
 <path d=" M 0.0 0.0 L -56.90549 0.0 L -56.90549 -56.90549 L 0.0 -56.90549 Z  " stroke="none"/>
 </g>
 <g transform="translate(-30.95273,-31.67494)">
 <g fill="#000">
 <text style="stroke:none" transform="scale(1,-1) translate(2.5,0)" text-anchor="middle"  font-size="10"> 
<g fill="#000">
 <g stroke="none"> 3</g> </g>
 </text> 
</g>
 </g>
 <g fill="#ff6">
 <path d=" M 0.0 0.0 L 0.0 -56.90549 L 56.90549 -56.90549 L 56.90549 0.0 Z  " stroke="none"/>
 </g>
 <g transform="translate(25.95273,-31.67494)">
 <g fill="#000">
 <text style="stroke:none" transform="scale(1,-1) translate(2.5,0)" text-anchor="middle"  font-size="10"> 
<g fill="#000">
 <g stroke="none"> 4</g> </g>
 </text> 
</g>
 </g>
 <g fill="#ff6">
 <path d=" M 56.90549 -56.90549 L 113.81097 -56.90549 L 113.81097 0.0 L 56.90549 0.0 Z  " stroke="none"/>
 </g>
 <g transform="translate(82.85822,-31.67494)">
 <g fill="#000">
 <text style="stroke:none" transform="scale(1,-1) translate(2.5,0)" text-anchor="middle"  font-size="10"> 
<g fill="#000">
 <g stroke="none"> 5</g> </g>
 </text> 
</g>
 </g>
 <g fill="#ff6">
 <path d=" M 0.0 -56.90549 L 28.45273 -106.1872 L 56.90549 -56.90549 Z  " stroke="none"/>
 </g>
 <g transform="translate(25.9523,-76.55382)">
 <g fill="#000">
 <text style="stroke:none" transform="scale(1,-1) translate(2.5,0)" text-anchor="middle"  font-size="10"> 
<g fill="#000">
 <g stroke="none"> 7</g> </g>
 </text> 
</g>
 </g>
 <g stroke-width="0.2">
 <g stroke-linejoin="round">
 <g stroke-width="1.2">
 <path d=" M 56.90549 0.0 L 0.0 0.0  " fill="none"/>
 <g stroke-width="0.8">
 <g stroke="#f0f">
 <path d=" M 56.90549 0.0 L 0.0 0.0  " fill="none"/>
 </g>
 </g>
 </g>
 <g fill="#ccf">
 <g fill="#ccf">
 <path d=" M 22.8073 -6.23297 h 11.29092 v 12.46594 h -11.29092 Z  " stroke="none"/>
 </g>
 <g transform="translate(26.14027,-2.9)">
 <g fill="#000">
 <text style="stroke:none" transform="scale(1,-1) translate(2.31248,0)" text-anchor="middle"  font-size="10"> 
<g fill="#000">
 <g stroke="none"> <tspan font-family="cmr" font-size="9">1</tspan> </g> </g>
 </text> 
</g>
 </g>
 </g>
 </g>
 </g>
 <g stroke-width="0.2">
 <g stroke-linejoin="round">
 <g stroke-width="1.2">
 <path d=" M 28.45273 49.28171 L 56.90549 0.0  " fill="none"/>
 <g stroke-width="0.8">
 <g stroke="#c0ff00">
 <path d=" M 28.45273 49.28171 L 56.90549 0.0  " fill="none"/>
 </g>
 </g>
 </g>
 <g fill="#ccf">
 <g fill="#ccf">
 <path d=" M 37.03365 18.4079 h 11.29092 v 12.46594 h -11.29092 Z  " stroke="none"/>
 </g>
 <g transform="translate(40.36662,21.74088)">
 <g fill="#000">
 <text style="stroke:none" transform="scale(1,-1) translate(2.31248,0)" text-anchor="middle"  font-size="10"> 
<g fill="#000">
 <g stroke="none"> <tspan font-family="cmr" font-size="9">2</tspan> </g> </g>
 </text> 
</g>
 </g>
 </g>
 </g>
 </g>
 <g stroke-width="0.2">
 <g stroke-linejoin="round">
 <g stroke-width="1.2">
 <path d=" M 56.90549 0.0 L 113.81097 0.0  " fill="none"/>
 <g stroke-width="0.8">
 <g stroke="#c0ff00">
 <path d=" M 56.90549 0.0 L 113.81097 0.0  " fill="none"/>
 </g>
 </g>
 </g>
 <g fill="#ccf">
 <g fill="#ccf">
 <path d=" M 79.71275 -6.23297 h 11.29092 v 12.46594 h -11.29092 Z  " stroke="none"/>
 </g>
 <g transform="translate(83.04573,-2.9)">
 <g fill="#000">
 <text style="stroke:none" transform="scale(1,-1) translate(2.31248,0)" text-anchor="middle"  font-size="10"> 
<g fill="#000">
 <g stroke="none"> <tspan font-family="cmr" font-size="9">2</tspan> </g> </g>
 </text> 
</g>
 </g>
 </g>
 </g>
 </g>
 <g stroke-width="0.2">
 <g stroke-linejoin="round">
 <g stroke-width="1.2">
 <path d=" M 0.0 0.0 L 28.45273 49.28171  " fill="none"/>
 <g stroke-width="0.8">
 <g stroke="#0ff">
 <path d=" M 0.0 0.0 L 28.45273 49.28171  " fill="none"/>
 </g>
 </g>
 </g>
 <g fill="#ccf">
 <g fill="#ccf">
 <path d=" M 8.58089 18.40787 h 11.29092 v 12.46594 h -11.29092 Z  " stroke="none"/>
 </g>
 <g transform="translate(11.91386,21.74084)">
 <g fill="#000">
 <text style="stroke:none" transform="scale(1,-1) translate(2.31248,0)" text-anchor="middle"  font-size="10"> 
<g fill="#000">
 <g stroke="none"> <tspan font-family="cmr" font-size="9">3</tspan> </g> </g>
 </text> 
</g>
 </g>
 </g>
 </g>
 </g>
 <g stroke-width="0.2">
 <g stroke-linejoin="round">
 <g stroke-width="1.2">
 <path d=" M -56.90549 0.0 L 0.0 0.0  " fill="none"/>
 <g stroke-width="0.8">
 <g stroke="#0ff">
 <path d=" M -56.90549 0.0 L 0.0 0.0  " fill="none"/>
 </g>
 </g>
 </g>
 <g fill="#ccf">
 <g fill="#ccf">
 <path d=" M -34.09822 -6.23297 h 11.29092 v 12.46594 h -11.29092 Z  " stroke="none"/>
 </g>
 <g transform="translate(-30.76524,-2.9)">
 <g fill="#000">
 <text style="stroke:none" transform="scale(1,-1) translate(2.31248,0)" text-anchor="middle"  font-size="10"> 
<g fill="#000">
 <g stroke="none"> <tspan font-family="cmr" font-size="9">3</tspan> </g> </g>
 </text> 
</g>
 </g>
 </g>
 </g>
 </g>
 <g stroke-width="0.2">
 <g stroke-linejoin="round">
 <g stroke-width="1.2">
 <path d=" M -56.90549 -56.90549 L -56.90549 0.0  " fill="none"/>
 <g stroke-width="0.8">
 <g stroke="#f0f">
 <path d=" M -56.90549 -56.90549 L -56.90549 0.0  " fill="none"/>
 </g>
 </g>
 </g>
 <g fill="#ccf">
 <g fill="#ccf">
 <path d=" M -62.55095 -34.68573 h 11.29092 v 12.46594 h -11.29092 Z  " stroke="none"/>
 </g>
 <g transform="translate(-59.21797,-31.35275)">
 <g fill="#000">
 <text style="stroke:none" transform="scale(1,-1) translate(2.31248,0)" text-anchor="middle"  font-size="10"> 
<g fill="#000">
 <g stroke="none"> <tspan font-family="cmr" font-size="9">4</tspan> </g> </g>
 </text> 
</g>
 </g>
 </g>
 </g>
 </g>
 <g stroke-width="0.2">
 <g stroke-linejoin="round">
 <g stroke-width="1.2">
 <path d=" M 113.81097 0.0 L 113.81097 -56.90549  " fill="none"/>
 <g stroke-width="0.8">
 <g stroke="#f0f">
 <path d=" M 113.81097 0.0 L 113.81097 -56.90549  " fill="none"/>
 </g>
 </g>
 </g>
 <g fill="#ccf">
 <g fill="#ccf">
 <path d=" M 108.16551 -34.6857 h 11.29092 v 12.46594 h -11.29092 Z  " stroke="none"/>
 </g>
 <g transform="translate(111.49849,-31.35272)">
 <g fill="#000">
 <text style="stroke:none" transform="scale(1,-1) translate(2.31248,0)" text-anchor="middle"  font-size="10"> 
<g fill="#000">
 <g stroke="none"> <tspan font-family="cmr" font-size="9">4</tspan> </g> </g>
 </text> 
</g>
 </g>
 </g>
 </g>
 </g>
 <g stroke-width="0.2">
 <g stroke-linejoin="round">
 <g stroke-width="1.2">
 <path d=" M 0.0 -56.90549 L 0.0 0.0  " fill="none"/>
 <g stroke-width="0.8">
 <g stroke="#ffc0c0">
 <path d=" M 0.0 -56.90549 L 0.0 0.0  " fill="none"/>
 </g>
 </g>
 </g>
 <g fill="#ccf">
 <g fill="#ccf">
 <path d=" M -5.64546 -34.68573 h 11.29092 v 12.46594 h -11.29092 Z  " stroke="none"/>
 </g>
 <g transform="translate(-2.31248,-31.35275)">
 <g fill="#000">
 <text style="stroke:none" transform="scale(1,-1) translate(2.31248,0)" text-anchor="middle"  font-size="10"> 
<g fill="#000">
 <g stroke="none"> <tspan font-family="cmr" font-size="9">5</tspan> </g> </g>
 </text> 
</g>
 </g>
 </g>
 </g>
 </g>
 <g stroke-width="0.2">
 <g stroke-linejoin="round">
 <g stroke-width="1.2">
 <path d=" M 56.90549 0.0 L 56.90549 -56.90549  " fill="none"/>
 <g stroke-width="0.8">
 <g stroke="#0ff">
 <path d=" M 56.90549 0.0 L 56.90549 -56.90549  " fill="none"/>
 </g>
 </g>
 </g>
 <g fill="#ccf">
 <g fill="#ccf">
 <path d=" M 51.26003 -34.6857 h 11.29092 v 12.46594 h -11.29092 Z  " stroke="none"/>
 </g>
 <g transform="translate(54.593,-31.35272)">
 <g fill="#000">
 <text style="stroke:none" transform="scale(1,-1) translate(2.31248,0)" text-anchor="middle"  font-size="10"> 
<g fill="#000">
 <g stroke="none"> <tspan font-family="cmr" font-size="9">6</tspan> </g> </g>
 </text> 
</g>
 </g>
 </g>
 </g>
 </g>
 <g stroke-width="0.2">
 <g stroke-linejoin="round">
 <g stroke-width="1.2">
 <path d=" M 56.90549 -56.90549 L 0.0 -56.90549  " fill="none"/>
 <g stroke-width="0.8">
 <g stroke="#c0ff00">
 <path d=" M 56.90549 -56.90549 L 0.0 -56.90549  " fill="none"/>
 </g>
 </g>
 </g>
 <g fill="#ccf">
 <g fill="#ccf">
 <path d=" M 22.8073 -63.13846 h 11.29092 v 12.46594 h -11.29092 Z  " stroke="none"/>
 </g>
 <g transform="translate(26.14027,-59.80548)">
 <g fill="#000">
 <text style="stroke:none" transform="scale(1,-1) translate(2.31248,0)" text-anchor="middle"  font-size="10"> 
<g fill="#000">
 <g stroke="none"> <tspan font-family="cmr" font-size="9">7</tspan> </g> </g>
 </text> 
</g>
 </g>
 </g>
 </g>
 </g>
 <g stroke-width="0.2">
 <g stroke-linejoin="round">
 <g stroke-width="1.2">
 <path d=" M 113.81097 -56.90549 L 56.90549 -56.90549  " fill="none"/>
 <g stroke-width="0.8">
 <g stroke="#ffc0c0">
 <path d=" M 113.81097 -56.90549 L 56.90549 -56.90549  " fill="none"/>
 </g>
 </g>
 </g>
 <g fill="#ccf">
 <g fill="#ccf">
 <path d=" M 79.71278 -63.13846 h 11.29092 v 12.46594 h -11.29092 Z  " stroke="none"/>
 </g>
 <g transform="translate(83.04576,-59.80548)">
 <g fill="#000">
 <text style="stroke:none" transform="scale(1,-1) translate(2.31248,0)" text-anchor="middle"  font-size="10"> 
<g fill="#000">
 <g stroke="none"> <tspan font-family="cmr" font-size="9">8</tspan> </g> </g>
 </text> 
</g>
 </g>
 </g>
 </g>
 </g>
 <g stroke-width="0.2">
 <g stroke-linejoin="round">
 <g stroke-width="1.2">
 <path d=" M 56.90549 -56.90549 L 28.45273 -106.1872  " fill="none"/>
 <g stroke-width="0.8">
 <g stroke="#ffc0c0">
 <path d=" M 56.90549 -56.90549 L 28.45273 -106.1872  " fill="none"/>
 </g>
 </g>
 </g>
 <g fill="#ccf">
 <g fill="#ccf">
 <path d=" M 37.03365 -87.7793 h 11.29092 v 12.46594 h -11.29092 Z  " stroke="none"/>
 </g>
 <g transform="translate(40.36662,-84.44632)">
 <g fill="#000">
 <text style="stroke:none" transform="scale(1,-1) translate(2.31248,0)" text-anchor="middle"  font-size="10"> 
<g fill="#000">
 <g stroke="none"> <tspan font-family="cmr" font-size="9">8</tspan> </g> </g>
 </text> 
</g>
 </g>
 </g>
 </g>
 </g>
 <g stroke-width="0.2">
 <g stroke-linejoin="round">
 <g stroke-width="1.2">
 <path d=" M 0.0 -56.90549 L -56.90549 -56.90549  " fill="none"/>
 <g stroke-width="0.8">
 <g stroke="#808000">
 <path d=" M 0.0 -56.90549 L -56.90549 -56.90549  " fill="none"/>
 </g>
 </g>
 </g>
 <g fill="#ccf">
 <g fill="#ccf">
 <path d=" M -34.09819 -63.13846 h 11.29092 v 12.46594 h -11.29092 Z  " stroke="none"/>
 </g>
 <g transform="translate(-30.76521,-59.80548)">
 <g fill="#000">
 <text style="stroke:none" transform="scale(1,-1) translate(2.31248,0)" text-anchor="middle"  font-size="10"> 
<g fill="#000">
 <g stroke="none"> <tspan font-family="cmr" font-size="9">9</tspan> </g> </g>
 </text> 
</g>
 </g>
 </g>
 </g>
 </g>
 <g stroke-width="0.2">
 <g stroke-linejoin="round">
 <g stroke-width="1.2">
 <path d=" M 28.45273 -106.1872 L 0.0 -56.90549  " fill="none"/>
 <g stroke-width="0.8">
 <g stroke="#808000">
 <path d=" M 28.45273 -106.1872 L 0.0 -56.90549  " fill="none"/>
 </g>
 </g>
 </g>
 <g fill="#ccf">
 <g fill="#ccf">
 <path d=" M 8.58092 -87.77933 h 11.29092 v 12.46594 h -11.29092 Z  " stroke="none"/>
 </g>
 <g transform="translate(11.9139,-84.44635)">
 <g fill="#000">
 <text style="stroke:none" transform="scale(1,-1) translate(2.31248,0)" text-anchor="middle"  font-size="10"> 
<g fill="#000">
 <g stroke="none"> <tspan font-family="cmr" font-size="9">9</tspan> </g> </g>
 </text> 
</g>
 </g>
 </g>
 </g>
 </g>
 <g fill="#e6e6e6">
 <g fill="#e6e6e6">
 <path d=" M 33.63046 49.28171 C 33.63046 52.14133 31.31235 54.45944 28.45273 54.45944 C 25.59311 54.45944 23.275 52.14133 23.275 49.28171 C 23.275 46.42209 25.59311 44.10397 28.45273 44.10397 C 31.31235 44.10397 33.63046 46.42209 33.63046 49.28171 Z M 28.45273 49.28171  " stroke="none"/>
 </g>
 <g transform="translate(26.75131,47.67061)">
 <g fill="#000">
 <text style="stroke:none" transform="scale(1,-1) translate(1.70142,0)" text-anchor="middle"  font-size="10"> 
<g fill="#000">
 <g stroke="none"> <tspan font-family="cmr" font-size="5">1</tspan> </g> </g>
 </text> 
</g>
 </g>
 </g>
 <g transform="translate(24.91975,49.28171)">
 <g fill="#000">
 <text style="stroke:none" transform="scale(1,-1) translate(0.0,0)" text-anchor="middle"  font-size="10"> 
<g fill="#000">
 <g stroke="none"> </g> </g>
 </text> 
</g>
 </g>
 <g fill="#e6e6e6">
 <g fill="#e6e6e6">
 <path d=" M -51.72775 0.0 C -51.72775 2.85962 -54.04587 5.17773 -56.90549 5.17773 C -59.7651 5.17773 -62.08322 2.85962 -62.08322 0.0 C -62.08322 -2.85962 -59.7651 -5.17773 -56.90549 -5.17773 C -54.04587 -5.17773 -51.72775 -2.85962 -51.72775 0.0 Z M -56.90549 0.0  " stroke="none"/>
 </g>
 <g transform="translate(-58.6069,-1.6111)">
 <g fill="#000">
 <text style="stroke:none" transform="scale(1,-1) translate(1.70142,0)" text-anchor="middle"  font-size="10"> 
<g fill="#000">
 <g stroke="none"> <tspan font-family="cmr" font-size="5">1</tspan> </g> </g>
 </text> 
</g>
 </g>
 </g>
 <g transform="translate(-60.43846,0.0)">
 <g fill="#000">
 <text style="stroke:none" transform="scale(1,-1) translate(0.0,0)" text-anchor="middle"  font-size="10"> 
<g fill="#000">
 <g stroke="none"> </g> </g>
 </text> 
</g>
 </g>
 <g fill="#e6e6e6">
 <g fill="#e6e6e6">
 <path d=" M 118.98871 0.0 C 118.98871 2.85962 116.6706 5.17773 113.81097 5.17773 C 110.95135 5.17773 108.63324 2.85962 108.63324 0.0 C 108.63324 -2.85962 110.95135 -5.17773 113.81097 -5.17773 C 116.6706 -5.17773 118.98871 -2.85962 118.98871 0.0 Z M 113.81097 0.0  " stroke="none"/>
 </g>
 <g transform="translate(112.10956,-1.6111)">
 <g fill="#000">
 <text style="stroke:none" transform="scale(1,-1) translate(1.70142,0)" text-anchor="middle"  font-size="10"> 
<g fill="#000">
 <g stroke="none"> <tspan font-family="cmr" font-size="5">1</tspan> </g> </g>
 </text> 
</g>
 </g>
 </g>
 <g transform="translate(110.278,0.0)">
 <g fill="#000">
 <text style="stroke:none" transform="scale(1,-1) translate(0.0,0)" text-anchor="middle"  font-size="10"> 
<g fill="#000">
 <g stroke="none"> </g> </g>
 </text> 
</g>
 </g>
 <g fill="#e6e6e6">
 <g fill="#e6e6e6">
 <path d=" M 5.17773 0.0 C 5.17773 2.85962 2.85962 5.17773 0.0 5.17773 C -2.85962 5.17773 -5.17773 2.85962 -5.17773 0.0 C -5.17773 -2.85962 -2.85962 -5.17773 0.0 -5.17773 C 2.85962 -5.17773 5.17773 -2.85962 5.17773 0.0 Z M 0.0 0.0  " stroke="none"/>
 </g>
 <g transform="translate(-1.70142,-1.6111)">
 <g fill="#000">
 <text style="stroke:none" transform="scale(1,-1) translate(1.70142,0)" text-anchor="middle"  font-size="10"> 
<g fill="#000">
 <g stroke="none"> <tspan font-family="cmr" font-size="5">2</tspan> </g> </g>
 </text> 
</g>
 </g>
 </g>
 <g transform="translate(-3.53297,0.0)">
 <g fill="#000">
 <text style="stroke:none" transform="scale(1,-1) translate(0.0,0)" text-anchor="middle"  font-size="10"> 
<g fill="#000">
 <g stroke="none"> </g> </g>
 </text> 
</g>
 </g>
 <g fill="#e6e6e6">
 <g fill="#e6e6e6">
 <path d=" M 62.08322 0.0 C 62.08322 2.85962 59.7651 5.17773 56.90549 5.17773 C 54.04587 5.17773 51.72775 2.85962 51.72775 0.0 C 51.72775 -2.85962 54.04587 -5.17773 56.90549 -5.17773 C 59.7651 -5.17773 62.08322 -2.85962 62.08322 0.0 Z M 56.90549 0.0  " stroke="none"/>
 </g>
 <g transform="translate(55.20407,-1.6111)">
 <g fill="#000">
 <text style="stroke:none" transform="scale(1,-1) translate(1.70142,0)" text-anchor="middle"  font-size="10"> 
<g fill="#000">
 <g stroke="none"> <tspan font-family="cmr" font-size="5">3</tspan> </g> </g>
 </text> 
</g>
 </g>
 </g>
 <g transform="translate(53.37251,0.0)">
 <g fill="#000">
 <text style="stroke:none" transform="scale(1,-1) translate(0.0,0)" text-anchor="middle"  font-size="10"> 
<g fill="#000">
 <g stroke="none"> </g> </g>
 </text> 
</g>
 </g>
 <g fill="#e6e6e6">
 <g fill="#e6e6e6">
 <path d=" M -51.72775 -56.90549 C -51.72775 -54.04587 -54.04587 -51.72775 -56.90549 -51.72775 C -59.7651 -51.72775 -62.08322 -54.04587 -62.08322 -56.90549 C -62.08322 -59.7651 -59.7651 -62.08322 -56.90549 -62.08322 C -54.04587 -62.08322 -51.72775 -59.7651 -51.72775 -56.90549 Z M -56.90549 -56.90549  " stroke="none"/>
 </g>
 <g transform="translate(-58.6069,-58.51659)">
 <g fill="#000">
 <text style="stroke:none" transform="scale(1,-1) translate(1.70142,0)" text-anchor="middle"  font-size="10"> 
<g fill="#000">
 <g stroke="none"> <tspan font-family="cmr" font-size="5">7</tspan> </g> </g>
 </text> 
</g>
 </g>
 </g>
 <g transform="translate(-60.43846,-56.90549)">
 <g fill="#000">
 <text style="stroke:none" transform="scale(1,-1) translate(0.0,0)" text-anchor="middle"  font-size="10"> 
<g fill="#000">
 <g stroke="none"> </g> </g>
 </text> 
</g>
 </g>
 <g fill="#e6e6e6">
 <g fill="#e6e6e6">
 <path d=" M 118.98871 -56.90549 C 118.98871 -54.04587 116.6706 -51.72775 113.81097 -51.72775 C 110.95135 -51.72775 108.63324 -54.04587 108.63324 -56.90549 C 108.63324 -59.7651 110.95135 -62.08322 113.81097 -62.08322 C 116.6706 -62.08322 118.98871 -59.7651 118.98871 -56.90549 Z M 113.81097 -56.90549  " stroke="none"/>
 </g>
 <g transform="translate(112.10956,-58.51659)">
 <g fill="#000">
 <text style="stroke:none" transform="scale(1,-1) translate(1.70142,0)" text-anchor="middle"  font-size="10"> 
<g fill="#000">
 <g stroke="none"> <tspan font-family="cmr" font-size="5">7</tspan> </g> </g>
 </text> 
</g>
 </g>
 </g>
 <g transform="translate(110.278,-56.90549)">
 <g fill="#000">
 <text style="stroke:none" transform="scale(1,-1) translate(0.0,0)" text-anchor="middle"  font-size="10"> 
<g fill="#000">
 <g stroke="none"> </g> </g>
 </text> 
</g>
 </g>
 <g fill="#e6e6e6">
 <g fill="#e6e6e6">
 <path d=" M 33.63046 -106.1872 C 33.63046 -103.32758 31.31235 -101.00946 28.45273 -101.00946 C 25.59311 -101.00946 23.275 -103.32758 23.275 -106.1872 C 23.275 -109.04681 25.59311 -111.36493 28.45273 -111.36493 C 31.31235 -111.36493 33.63046 -109.04681 33.63046 -106.1872 Z M 28.45273 -106.1872  " stroke="none"/>
 </g>
 <g transform="translate(26.75131,-107.7983)">
 <g fill="#000">
 <text style="stroke:none" transform="scale(1,-1) translate(1.70142,0)" text-anchor="middle"  font-size="10"> 
<g fill="#000">
 <g stroke="none"> <tspan font-family="cmr" font-size="5">7</tspan> </g> </g>
 </text> 
</g>
 </g>
 </g>
 <g transform="translate(24.91975,-106.1872)">
 <g fill="#000">
 <text style="stroke:none" transform="scale(1,-1) translate(0.0,0)" text-anchor="middle"  font-size="10"> 
<g fill="#000">
 <g stroke="none"> </g> </g>
 </text> 
</g>
 </g>
 <g fill="#e6e6e6">
 <g fill="#e6e6e6">
 <path d=" M 5.17773 -56.90549 C 5.17773 -54.04587 2.85962 -51.72775 0.0 -51.72775 C -2.85962 -51.72775 -5.17773 -54.04587 -5.17773 -56.90549 C -5.17773 -59.7651 -2.85962 -62.08322 0.0 -62.08322 C 2.85962 -62.08322 5.17773 -59.7651 5.17773 -56.90549 Z M 0.0 -56.90549  " stroke="none"/>
 </g>
 <g transform="translate(-1.70142,-58.51659)">
 <g fill="#000">
 <text style="stroke:none" transform="scale(1,-1) translate(1.70142,0)" text-anchor="middle"  font-size="10"> 
<g fill="#000">
 <g stroke="none"> <tspan font-family="cmr" font-size="5">8</tspan> </g> </g>
 </text> 
</g>
 </g>
 </g>
 <g transform="translate(-3.53297,-56.90549)">
 <g fill="#000">
 <text style="stroke:none" transform="scale(1,-1) translate(0.0,0)" text-anchor="middle"  font-size="10"> 
<g fill="#000">
 <g stroke="none"> </g> </g>
 </text> 
</g>
 </g>
 <g fill="#e6e6e6">
 <g fill="#e6e6e6">
 <path d=" M 62.08322 -56.90549 C 62.08322 -54.04587 59.7651 -51.72775 56.90549 -51.72775 C 54.04587 -51.72775 51.72775 -54.04587 51.72775 -56.90549 C 51.72775 -59.7651 54.04587 -62.08322 56.90549 -62.08322 C 59.7651 -62.08322 62.08322 -59.7651 62.08322 -56.90549 Z M 56.90549 -56.90549  " stroke="none"/>
 </g>
 <g transform="translate(55.20407,-58.51659)">
 <g fill="#000">
 <text style="stroke:none" transform="scale(1,-1) translate(1.70142,0)" text-anchor="middle"  font-size="10"> 
<g fill="#000">
 <g stroke="none"> <tspan font-family="cmr" font-size="5">9</tspan> </g> </g>
 </text> 
</g>
 </g>
 </g>
 <g transform="translate(53.37251,-56.90549)">
 <g fill="#000">
 <text style="stroke:none" transform="scale(1,-1) translate(0.0,0)" text-anchor="middle"  font-size="10"> 
<g fill="#000">
 <g stroke="none"> </g> </g>
 </text> 
</g>
 </g>
 </g>
 </g>
 
                                   </g> 
</svg> 
