<?xml version="1.0" encoding="iso-8859-1" standalone="no"?> 
<?xml-stylesheet href="_Wrapper_isoscelesColouring_images-1.css" type="text/css"?> 
<svg xmlns="http://www.w3.org/2000/svg" xmlns:xlink="http://www.w3.org/1999/xlink" width="186.55379pt" height="205.88382pt" viewBox="-6.86595 -71.94373 186.55379 205.88382 "> 
<g transform="translate(0,133.9401 ) scale(1,-1) translate(0,71.94373 )"> 
<g stroke="#000" fill="#000">
 <g stroke-width="0.4">
 <g fill="#ff6">
 <path d=" M 68.2864 0.0 L 53.11182 42.9205 L 0.0 0.0 Z  " stroke="none"/>
 </g>
 <g transform="translate(37.96545,11.0844)">
 <g fill="#000">
 <text style="stroke:none" transform="scale(1,-1) translate(2.5,0)" text-anchor="middle"  font-size="10"> 
<g fill="#000">
 <g stroke="none"> 1</g> </g>
 </text> 
</g>
 </g>
 <g fill="#ff6">
 <path d=" M 0.0 0.0 L 53.11182 -42.9205 L 68.2864 0.0 Z  " stroke="none"/>
 </g>
 <g transform="translate(37.96545,-17.52882)">
 <g fill="#000">
 <text style="stroke:none" transform="scale(1,-1) translate(2.5,0)" text-anchor="middle"  font-size="10"> 
<g fill="#000">
 <g stroke="none"> 2</g> </g>
 </text> 
</g>
 </g>
 <g fill="#ff6">
 <path d=" M 53.11182 42.9205 L 14.33142 66.76599 L 0.0 0.0 Z  " stroke="none"/>
 </g>
 <g transform="translate(19.98071,33.33937)">
 <g fill="#000">
 <text style="stroke:none" transform="scale(1,-1) translate(2.5,0)" text-anchor="middle"  font-size="10"> 
<g fill="#000">
 <g stroke="none"> 3</g> </g>
 </text> 
</g>
 </g>
 <g fill="#ff6">
 <path d=" M 0.0 0.0 L 14.33142 -66.76599 L 53.11182 -42.9205 Z  " stroke="none"/>
 </g>
 <g transform="translate(19.98071,-39.7838)">
 <g fill="#000">
 <text style="stroke:none" transform="scale(1,-1) translate(2.5,0)" text-anchor="middle"  font-size="10"> 
<g fill="#000">
 <g stroke="none"> 4</g> </g>
 </text> 
</g>
 </g>
 <g fill="#ff6">
 <path d=" M 121.39825 42.9205 L 106.22366 85.84186 L 53.11182 42.9205 Z  " stroke="none"/>
 </g>
 <g transform="translate(91.07648,54.00453)">
 <g fill="#000">
 <text style="stroke:none" transform="scale(1,-1) translate(2.5,0)" text-anchor="middle"  font-size="10"> 
<g fill="#000">
 <g stroke="none"> 5</g> </g>
 </text> 
</g>
 </g>
 <g fill="#ff6">
 <path d=" M 121.39825 42.9205 L 174.5101 85.84186 L 106.22366 85.84186 Z  " stroke="none"/>
 </g>
 <g transform="translate(131.54193,68.31142)">
 <g fill="#000">
 <text style="stroke:none" transform="scale(1,-1) translate(2.5,0)" text-anchor="middle"  font-size="10"> 
<g fill="#000">
 <g stroke="none"> 6</g> </g>
 </text> 
</g>
 </g>
 <g fill="#ff6">
 <path d=" M 68.2864 0.0 L 121.39825 42.9205 L 53.11182 42.9205 Z  " stroke="none"/>
 </g>
 <g transform="translate(78.43091,25.391)">
 <g fill="#000">
 <text style="stroke:none" transform="scale(1,-1) translate(2.5,0)" text-anchor="middle"  font-size="10"> 
<g fill="#000">
 <g stroke="none"> 7</g> </g>
 </text> 
</g>
 </g>
 <g fill="#ff6">
 <path d=" M 68.2864 0.0 L 107.0668 -23.8446 L 121.39825 42.9205 Z  " stroke="none"/>
 </g>
 <g transform="translate(96.41562,3.1363)">
 <g fill="#000">
 <text style="stroke:none" transform="scale(1,-1) translate(2.5,0)" text-anchor="middle"  font-size="10"> 
<g fill="#000">
 <g stroke="none"> 8</g> </g>
 </text> 
</g>
 </g>
 <g fill="#ff6">
 <path d=" M 106.22366 85.84186 L 37.93726 85.84186 L 53.11182 42.9205 Z  " stroke="none"/>
 </g>
 <g transform="translate(63.25656,68.31142)">
 <g fill="#000">
 <text style="stroke:none" transform="scale(1,-1) translate(2.5,0)" text-anchor="middle"  font-size="10"> 
<g fill="#000">
 <g stroke="none"> 9</g> </g>
 </text> 
</g>
 </g>
 <g fill="#ff6">
 <path d=" M 174.5101 85.84186 L 159.33551 128.76236 L 106.22366 85.84186 Z  " stroke="none"/>
 </g>
 <g transform="translate(141.68748,96.92494)">
 <g fill="#000">
 <text style="stroke:none" transform="scale(1,-1) translate(5.00002,0)" text-anchor="middle"  font-size="10"> 
<g fill="#000">
 <g stroke="none"> 10</g> </g>
 </text> 
</g>
 </g>
 <g stroke-width="0.2">
 <g stroke-linejoin="round">
 <g stroke-width="1.2">
 <path d=" M 68.2864 0.0 L 0.0 0.0  " fill="none"/>
 <g stroke-width="0.8">
 <g stroke="#f00">
 <path d=" M 68.2864 0.0 L 0.0 0.0  " fill="none"/>
 </g>
 </g>
 </g>
 <g fill="#ccf">
 <g fill="#ccf">
 <path d=" M 28.49776 -6.23297 h 11.29092 v 12.46594 h -11.29092 Z  " stroke="none"/>
 </g>
 <g transform="translate(31.83073,-2.9)">
 <g fill="#000">
 <text style="stroke:none" transform="scale(1,-1) translate(2.31248,0)" text-anchor="middle"  font-size="10"> 
<g fill="#000">
 <g stroke="none"> <tspan font-family="cmr" font-size="9">1</tspan></g> </g>
 </text> 
</g>
 </g>
 </g>
 </g>
 </g>
 <g stroke-width="0.2">
 <g stroke-linejoin="round">
 <g stroke-width="1.2">
 <path d=" M 0.0 0.0 L 53.11182 42.9205  " fill="none"/>
 <g stroke-width="0.8">
 <g stroke="#f00">
 <path d=" M 0.0 0.0 L 53.11182 42.9205  " fill="none"/>
 </g>
 </g>
 </g>
 <g fill="#ccf">
 <g fill="#ccf">
 <path d=" M 20.91045 15.22726 h 11.29092 v 12.46594 h -11.29092 Z  " stroke="none"/>
 </g>
 <g transform="translate(24.24342,18.56024)">
 <g fill="#000">
 <text style="stroke:none" transform="scale(1,-1) translate(2.31248,0)" text-anchor="middle"  font-size="10"> 
<g fill="#000">
 <g stroke="none"> <tspan font-family="cmr" font-size="9">2</tspan></g> </g>
 </text> 
</g>
 </g>
 </g>
 </g>
 </g>
 <g stroke-width="0.2">
 <g stroke-linejoin="round">
 <g stroke-width="1.2">
 <path d=" M 53.11182 -42.9205 L 0.0 0.0  " fill="none"/>
 <g stroke-width="0.8">
 <g stroke="#f00">
 <path d=" M 53.11182 -42.9205 L 0.0 0.0  " fill="none"/>
 </g>
 </g>
 </g>
 <g fill="#ccf">
 <g fill="#ccf">
 <path d=" M 20.91045 -27.69324 h 11.29092 v 12.46594 h -11.29092 Z  " stroke="none"/>
 </g>
 <g transform="translate(24.24342,-24.36026)">
 <g fill="#000">
 <text style="stroke:none" transform="scale(1,-1) translate(2.31248,0)" text-anchor="middle"  font-size="10"> 
<g fill="#000">
 <g stroke="none"> <tspan font-family="cmr" font-size="9">3</tspan></g> </g>
 </text> 
</g>
 </g>
 </g>
 </g>
 </g>
 <g stroke-width="0.2">
 <g stroke-linejoin="round">
 <g stroke-width="1.2">
 <path d=" M 0.0 0.0 L 14.33142 66.76599  " fill="none"/>
 <g stroke-width="0.8">
 <g stroke="#f00">
 <path d=" M 0.0 0.0 L 14.33142 66.76599  " fill="none"/>
 </g>
 </g>
 </g>
 <g fill="#ccf">
 <g fill="#ccf">
 <path d=" M 1.52025 27.15002 h 11.29092 v 12.46594 h -11.29092 Z  " stroke="none"/>
 </g>
 <g transform="translate(4.85323,30.483)">
 <g fill="#000">
 <text style="stroke:none" transform="scale(1,-1) translate(2.31248,0)" text-anchor="middle"  font-size="10"> 
<g fill="#000">
 <g stroke="none"> <tspan font-family="cmr" font-size="9">4</tspan></g> </g>
 </text> 
</g>
 </g>
 </g>
 </g>
 </g>
 <g stroke-width="0.2">
 <g stroke-linejoin="round">
 <g stroke-width="1.2">
 <path d=" M 14.33142 -66.76599 L 0.0 0.0  " fill="none"/>
 <g stroke-width="0.8">
 <g stroke="#f00">
 <path d=" M 14.33142 -66.76599 L 0.0 0.0  " fill="none"/>
 </g>
 </g>
 </g>
 <g fill="#ccf">
 <g fill="#ccf">
 <path d=" M 1.52025 -39.61597 h 11.29092 v 12.46594 h -11.29092 Z  " stroke="none"/>
 </g>
 <g transform="translate(4.85323,-36.28299)">
 <g fill="#000">
 <text style="stroke:none" transform="scale(1,-1) translate(2.31248,0)" text-anchor="middle"  font-size="10"> 
<g fill="#000">
 <g stroke="none"> <tspan font-family="cmr" font-size="9">4</tspan></g> </g>
 </text> 
</g>
 </g>
 </g>
 </g>
 </g>
 <g stroke-width="0.2">
 <g stroke-linejoin="round">
 <g stroke-width="1.2">
 <path d=" M 106.22366 85.84186 L 121.39825 42.9205  " fill="none"/>
 <g stroke-width="0.8">
 <g stroke="#00f">
 <path d=" M 106.22366 85.84186 L 121.39825 42.9205  " fill="none"/>
 </g>
 </g>
 </g>
 <g fill="#ccf">
 <g fill="#ccf">
 <path d=" M 108.16548 58.14822 h 11.29092 v 12.46594 h -11.29092 Z  " stroke="none"/>
 </g>
 <g transform="translate(111.49846,61.4812)">
 <g fill="#000">
 <text style="stroke:none" transform="scale(1,-1) translate(2.31248,0)" text-anchor="middle"  font-size="10"> 
<g fill="#000">
 <g stroke="none"> <tspan font-family="cmr" font-size="9">5</tspan></g> </g>
 </text> 
</g>
 </g>
 </g>
 </g>
 </g>
 <g stroke-width="0.2">
 <g stroke-linejoin="round">
 <g stroke-width="1.2">
 <path d=" M 121.39825 42.9205 L 68.2864 0.0  " fill="none"/>
 <g stroke-width="0.8">
 <g stroke="#f00">
 <path d=" M 121.39825 42.9205 L 68.2864 0.0  " fill="none"/>
 </g>
 </g>
 </g>
 <g fill="#ccf">
 <g fill="#ccf">
 <path d=" M 89.19688 15.2273 h 11.29092 v 12.46594 h -11.29092 Z  " stroke="none"/>
 </g>
 <g transform="translate(92.52986,18.56027)">
 <g fill="#000">
 <text style="stroke:none" transform="scale(1,-1) translate(2.31248,0)" text-anchor="middle"  font-size="10"> 
<g fill="#000">
 <g stroke="none"> <tspan font-family="cmr" font-size="9">6</tspan></g> </g>
 </text> 
</g>
 </g>
 </g>
 </g>
 </g>
 <g stroke-width="0.2">
 <g stroke-linejoin="round">
 <g stroke-width="1.2">
 <path d=" M 53.11182 42.9205 L 121.39825 42.9205  " fill="none"/>
 <g stroke-width="0.8">
 <g stroke="#f00">
 <path d=" M 53.11182 42.9205 L 121.39825 42.9205  " fill="none"/>
 </g>
 </g>
 </g>
 <g fill="#ccf">
 <g fill="#ccf">
 <path d=" M 81.60957 36.68753 h 11.29092 v 12.46594 h -11.29092 Z  " stroke="none"/>
 </g>
 <g transform="translate(84.94255,40.02051)">
 <g fill="#000">
 <text style="stroke:none" transform="scale(1,-1) translate(2.31248,0)" text-anchor="middle"  font-size="10"> 
<g fill="#000">
 <g stroke="none"> <tspan font-family="cmr" font-size="9">7</tspan></g> </g>
 </text> 
</g>
 </g>
 </g>
 </g>
 </g>
 <g stroke-width="0.2">
 <g stroke-linejoin="round">
 <g stroke-width="1.2">
 <path d=" M 121.39825 42.9205 L 107.0668 -23.8446  " fill="none"/>
 <g stroke-width="0.8">
 <g stroke="#f00">
 <path d=" M 121.39825 42.9205 L 107.0668 -23.8446  " fill="none"/>
 </g>
 </g>
 </g>
 <g fill="#ccf">
 <g fill="#ccf">
 <path d=" M 108.58708 3.305 h 11.29092 v 12.46594 h -11.29092 Z  " stroke="none"/>
 </g>
 <g transform="translate(111.92006,6.63797)">
 <g fill="#000">
 <text style="stroke:none" transform="scale(1,-1) translate(2.31248,0)" text-anchor="middle"  font-size="10"> 
<g fill="#000">
 <g stroke="none"> <tspan font-family="cmr" font-size="9">8</tspan></g> </g>
 </text> 
</g>
 </g>
 </g>
 </g>
 </g>
 <g stroke-width="0.2">
 <g stroke-linejoin="round">
 <g stroke-width="1.2">
 <path d=" M 174.5101 85.84186 L 121.39825 42.9205  " fill="none"/>
 <g stroke-width="0.8">
 <g stroke="#f00">
 <path d=" M 174.5101 85.84186 L 121.39825 42.9205  " fill="none"/>
 </g>
 </g>
 </g>
 <g fill="#ccf">
 <g fill="#ccf">
 <path d=" M 142.30873 58.14822 h 11.29092 v 12.46594 h -11.29092 Z  " stroke="none"/>
 </g>
 <g transform="translate(145.64171,61.4812)">
 <g fill="#000">
 <text style="stroke:none" transform="scale(1,-1) translate(2.31248,0)" text-anchor="middle"  font-size="10"> 
<g fill="#000">
 <g stroke="none"> <tspan font-family="cmr" font-size="9">8</tspan></g> </g>
 </text> 
</g>
 </g>
 </g>
 </g>
 </g>
 <g stroke-width="0.2">
 <g stroke-linejoin="round">
 <g stroke-width="1.2">
 <path d=" M 53.11182 42.9205 L 106.22366 85.84186  " fill="none"/>
 <g stroke-width="0.8">
 <g stroke="#f00">
 <path d=" M 53.11182 42.9205 L 106.22366 85.84186  " fill="none"/>
 </g>
 </g>
 </g>
 <g fill="#ccf">
 <g fill="#ccf">
 <path d=" M 74.02226 58.1482 h 11.29092 v 12.46594 h -11.29092 Z  " stroke="none"/>
 </g>
 <g transform="translate(77.35524,61.48117)">
 <g fill="#000">
 <text style="stroke:none" transform="scale(1,-1) translate(2.31248,0)" text-anchor="middle"  font-size="10"> 
<g fill="#000">
 <g stroke="none"> <tspan font-family="cmr" font-size="9">9</tspan></g> </g>
 </text> 
</g>
 </g>
 </g>
 </g>
 </g>
 <g stroke-width="0.2">
 <g stroke-linejoin="round">
 <g stroke-width="1.2">
 <path d=" M 106.22366 85.84186 L 174.5101 85.84186  " fill="none"/>
 <g stroke-width="0.8">
 <g stroke="#f00">
 <path d=" M 106.22366 85.84186 L 174.5101 85.84186  " fill="none"/>
 </g>
 </g>
 </g>
 <g fill="#ccf">
 <g fill="#ccf">
 <path d=" M 132.40894 79.60889 h 15.9159 v 12.46594 h -15.9159 Z  " stroke="none"/>
 </g>
 <g transform="translate(135.74191,82.94186)">
 <g fill="#000">
 <text style="stroke:none" transform="scale(1,-1) translate(4.62497,0)" text-anchor="middle"  font-size="10"> 
<g fill="#000">
 <g stroke="none"> <tspan font-family="cmr" font-size="9">10</tspan></g> </g>
 </text> 
</g>
 </g>
 </g>
 </g>
 </g>
 <g stroke-width="0.2">
 <g stroke-linejoin="round">
 <g stroke-width="1.2">
 <path d=" M 37.93726 85.84186 L 106.22366 85.84186  " fill="none"/>
 <g stroke-width="0.8">
 <g stroke="#f00">
 <path d=" M 37.93726 85.84186 L 106.22366 85.84186  " fill="none"/>
 </g>
 </g>
 </g>
 <g fill="#ccf">
 <g fill="#ccf">
 <path d=" M 64.1225 79.60889 h 15.9159 v 12.46594 h -15.9159 Z  " stroke="none"/>
 </g>
 <g transform="translate(67.45547,82.94186)">
 <g fill="#000">
 <text style="stroke:none" transform="scale(1,-1) translate(4.62497,0)" text-anchor="middle"  font-size="10"> 
<g fill="#000">
 <g stroke="none"> <tspan font-family="cmr" font-size="9">11</tspan></g> </g>
 </text> 
</g>
 </g>
 </g>
 </g>
 </g>
 <g stroke-width="0.2">
 <g stroke-linejoin="round">
 <g stroke-width="1.2">
 <path d=" M 106.22366 85.84186 L 159.33551 128.76236  " fill="none"/>
 <g stroke-width="0.8">
 <g stroke="#f00">
 <path d=" M 106.22366 85.84186 L 159.33551 128.76236  " fill="none"/>
 </g>
 </g>
 </g>
 <g fill="#ccf">
 <g fill="#ccf">
 <path d=" M 124.82162 101.06912 h 15.9159 v 12.46594 h -15.9159 Z  " stroke="none"/>
 </g>
 <g transform="translate(128.1546,104.4021)">
 <g fill="#000">
 <text style="stroke:none" transform="scale(1,-1) translate(4.62497,0)" text-anchor="middle"  font-size="10"> 
<g fill="#000">
 <g stroke="none"> <tspan font-family="cmr" font-size="9">11</tspan></g> </g>
 </text> 
</g>
 </g>
 </g>
 </g>
 </g>
 <g stroke-width="0.2">
 <g stroke-linejoin="round">
 <g stroke-width="1.2">
 <path d=" M 53.11182 42.9205 L 68.2864 0.0  " fill="none"/>
 <g stroke-width="0.8">
 <g stroke="#00f">
 <path d=" M 53.11182 42.9205 L 68.2864 0.0  " fill="none"/>
 </g>
 </g>
 </g>
 <g fill="#ccf">
 <g fill="#ccf">
 <path d=" M 52.74115 15.2273 h 15.9159 v 12.46594 h -15.9159 Z  " stroke="none"/>
 </g>
 <g transform="translate(56.07413,18.56027)">
 <g fill="#000">
 <text style="stroke:none" transform="scale(1,-1) translate(4.62497,0)" text-anchor="middle"  font-size="10"> 
<g fill="#000">
 <g stroke="none"> <tspan font-family="cmr" font-size="9">12</tspan></g> </g>
 </text> 
</g>
 </g>
 </g>
 </g>
 </g>
 <g stroke-width="0.2">
 <g stroke-linejoin="round">
 <g stroke-width="1.2">
 <path d=" M 68.2864 0.0 L 53.11182 -42.9205  " fill="none"/>
 <g stroke-width="0.8">
 <g stroke="#00f">
 <path d=" M 68.2864 0.0 L 53.11182 -42.9205  " fill="none"/>
 </g>
 </g>
 </g>
 <g fill="#ccf">
 <g fill="#ccf">
 <path d=" M 52.74118 -27.6932 h 15.9159 v 12.46594 h -15.9159 Z  " stroke="none"/>
 </g>
 <g transform="translate(56.07416,-24.36023)">
 <g fill="#000">
 <text style="stroke:none" transform="scale(1,-1) translate(4.62497,0)" text-anchor="middle"  font-size="10"> 
<g fill="#000">
 <g stroke="none"> <tspan font-family="cmr" font-size="9">13</tspan></g> </g>
 </text> 
</g>
 </g>
 </g>
 </g>
 </g>
 <g stroke-width="0.2">
 <g stroke-linejoin="round">
 <g stroke-width="1.2">
 <path d=" M 107.0668 -23.8446 L 68.2864 0.0  " fill="none"/>
 <g stroke-width="0.8">
 <g stroke="#00f">
 <path d=" M 107.0668 -23.8446 L 68.2864 0.0  " fill="none"/>
 </g>
 </g>
 </g>
 <g fill="#ccf">
 <g fill="#ccf">
 <path d=" M 79.71866 -18.15527 h 15.9159 v 12.46594 h -15.9159 Z  " stroke="none"/>
 </g>
 <g transform="translate(83.05164,-14.8223)">
 <g fill="#000">
 <text style="stroke:none" transform="scale(1,-1) translate(4.62497,0)" text-anchor="middle"  font-size="10"> 
<g fill="#000">
 <g stroke="none"> <tspan font-family="cmr" font-size="9">13</tspan></g> </g>
 </text> 
</g>
 </g>
 </g>
 </g>
 </g>
 <g stroke-width="0.2">
 <g stroke-linejoin="round">
 <g stroke-width="1.2">
 <path d=" M 14.33142 66.76599 L 53.11182 42.9205  " fill="none"/>
 <g stroke-width="0.8">
 <g stroke="#00f">
 <path d=" M 14.33142 66.76599 L 53.11182 42.9205  " fill="none"/>
 </g>
 </g>
 </g>
 <g fill="#ccf">
 <g fill="#ccf">
 <path d=" M 25.76367 48.61029 h 15.9159 v 12.46594 h -15.9159 Z  " stroke="none"/>
 </g>
 <g transform="translate(29.09665,51.94327)">
 <g fill="#000">
 <text style="stroke:none" transform="scale(1,-1) translate(4.62497,0)" text-anchor="middle"  font-size="10"> 
<g fill="#000">
 <g stroke="none"> <tspan font-family="cmr" font-size="9">14</tspan></g> </g>
 </text> 
</g>
 </g>
 </g>
 </g>
 </g>
 <g stroke-width="0.2">
 <g stroke-linejoin="round">
 <g stroke-width="1.2">
 <path d=" M 53.11182 42.9205 L 37.93726 85.84186  " fill="none"/>
 <g stroke-width="0.8">
 <g stroke="#00f">
 <path d=" M 53.11182 42.9205 L 37.93726 85.84186  " fill="none"/>
 </g>
 </g>
 </g>
 <g fill="#ccf">
 <g fill="#ccf">
 <path d=" M 37.56659 58.1482 h 15.9159 v 12.46594 h -15.9159 Z  " stroke="none"/>
 </g>
 <g transform="translate(40.89957,61.48117)">
 <g fill="#000">
 <text style="stroke:none" transform="scale(1,-1) translate(4.62497,0)" text-anchor="middle"  font-size="10"> 
<g fill="#000">
 <g stroke="none"> <tspan font-family="cmr" font-size="9">14</tspan></g> </g>
 </text> 
</g>
 </g>
 </g>
 </g>
 </g>
 <g stroke-width="0.2">
 <g stroke-linejoin="round">
 <g stroke-width="1.2">
 <path d=" M 53.11182 -42.9205 L 14.33142 -66.76599  " fill="none"/>
 <g stroke-width="0.8">
 <g stroke="#00f">
 <path d=" M 53.11182 -42.9205 L 14.33142 -66.76599  " fill="none"/>
 </g>
 </g>
 </g>
 <g fill="#ccf">
 <g fill="#ccf">
 <path d=" M 25.76367 -61.0762 h 15.9159 v 12.46594 h -15.9159 Z  " stroke="none"/>
 </g>
 <g transform="translate(29.09665,-57.74323)">
 <g fill="#000">
 <text style="stroke:none" transform="scale(1,-1) translate(4.62497,0)" text-anchor="middle"  font-size="10"> 
<g fill="#000">
 <g stroke="none"> <tspan font-family="cmr" font-size="9">15</tspan></g> </g>
 </text> 
</g>
 </g>
 </g>
 </g>
 </g>
 <g stroke-width="0.2">
 <g stroke-linejoin="round">
 <g stroke-width="1.2">
 <path d=" M 159.33551 128.76236 L 174.5101 85.84186  " fill="none"/>
 <g stroke-width="0.8">
 <g stroke="#00f">
 <path d=" M 159.33551 128.76236 L 174.5101 85.84186  " fill="none"/>
 </g>
 </g>
 </g>
 <g fill="#ccf">
 <g fill="#ccf">
 <path d=" M 158.96484 101.06915 h 15.9159 v 12.46594 h -15.9159 Z  " stroke="none"/>
 </g>
 <g transform="translate(162.29782,104.40213)">
 <g fill="#000">
 <text style="stroke:none" transform="scale(1,-1) translate(4.62497,0)" text-anchor="middle"  font-size="10"> 
<g fill="#000">
 <g stroke="none"> <tspan font-family="cmr" font-size="9">15</tspan></g> </g>
 </text> 
</g>
 </g>
 </g>
 </g>
 </g>
 <g fill="#e6e6e6">
 <g fill="#e6e6e6">
 <path d=" M 5.17773 0.0 C 5.17773 2.85962 2.85962 5.17773 0.0 5.17773 C -2.85962 5.17773 -5.17773 2.85962 -5.17773 0.0 C -5.17773 -2.85962 -2.85962 -5.17773 0.0 -5.17773 C 2.85962 -5.17773 5.17773 -2.85962 5.17773 0.0 Z M 0.0 0.0  " stroke="none"/>
 </g>
 <g transform="translate(-1.70142,-1.6111)">
 <g fill="#000">
 <text style="stroke:none" transform="scale(1,-1) translate(1.70142,0)" text-anchor="middle"  font-size="10"> 
<g fill="#000">
 <g stroke="none"> <tspan font-family="cmr" font-size="5">1</tspan></g> </g>
 </text> 
</g>
 </g>
 </g>
 <g transform="translate(-3.53297,0.0)">
 <g fill="#000">
 <text style="stroke:none" transform="scale(1,-1) translate(0.0,0)" text-anchor="middle"  font-size="10"> 
<g fill="#000">
 <g stroke="none"> </g> </g>
 </text> 
</g>
 </g>
 <g fill="#e6e6e6">
 <g fill="#e6e6e6">
 <path d=" M 126.57599 42.9205 C 126.57599 45.78012 124.25787 48.09824 121.39825 48.09824 C 118.53864 48.09824 116.22052 45.78012 116.22052 42.9205 C 116.22052 40.06088 118.53864 37.74277 121.39825 37.74277 C 124.25787 37.74277 126.57599 40.06088 126.57599 42.9205 Z M 121.39825 42.9205  " stroke="none"/>
 </g>
 <g transform="translate(119.69684,41.3094)">
 <g fill="#000">
 <text style="stroke:none" transform="scale(1,-1) translate(1.70142,0)" text-anchor="middle"  font-size="10"> 
<g fill="#000">
 <g stroke="none"> <tspan font-family="cmr" font-size="5">2</tspan></g> </g>
 </text> 
</g>
 </g>
 </g>
 <g transform="translate(117.86528,42.9205)">
 <g fill="#000">
 <text style="stroke:none" transform="scale(1,-1) translate(0.0,0)" text-anchor="middle"  font-size="10"> 
<g fill="#000">
 <g stroke="none"> </g> </g>
 </text> 
</g>
 </g>
 <g fill="#e6e6e6">
 <g fill="#e6e6e6">
 <path d=" M 111.4014 85.84186 C 111.4014 88.70148 109.08328 91.01959 106.22366 91.01959 C 103.36404 91.01959 101.04593 88.70148 101.04593 85.84186 C 101.04593 82.98224 103.36404 80.66412 106.22366 80.66412 C 109.08328 80.66412 111.4014 82.98224 111.4014 85.84186 Z M 106.22366 85.84186  " stroke="none"/>
 </g>
 <g transform="translate(104.52225,84.23076)">
 <g fill="#000">
 <text style="stroke:none" transform="scale(1,-1) translate(1.70142,0)" text-anchor="middle"  font-size="10"> 
<g fill="#000">
 <g stroke="none"> <tspan font-family="cmr" font-size="5">3</tspan></g> </g>
 </text> 
</g>
 </g>
 </g>
 <g transform="translate(102.69069,85.84186)">
 <g fill="#000">
 <text style="stroke:none" transform="scale(1,-1) translate(0.0,0)" text-anchor="middle"  font-size="10"> 
<g fill="#000">
 <g stroke="none"> </g> </g>
 </text> 
</g>
 </g>
 <g fill="#e6e6e6">
 <g fill="#e6e6e6">
 <path d=" M 73.46414 0.0 C 73.46414 2.85962 71.14603 5.17773 68.2864 5.17773 C 65.42679 5.17773 63.10867 2.85962 63.10867 0.0 C 63.10867 -2.85962 65.42679 -5.17773 68.2864 -5.17773 C 71.14603 -5.17773 73.46414 -2.85962 73.46414 0.0 Z M 68.2864 0.0  " stroke="none"/>
 </g>
 <g transform="translate(66.58499,-1.6111)">
 <g fill="#000">
 <text style="stroke:none" transform="scale(1,-1) translate(1.70142,0)" text-anchor="middle"  font-size="10"> 
<g fill="#000">
 <g stroke="none"> <tspan font-family="cmr" font-size="5">4</tspan></g> </g>
 </text> 
</g>
 </g>
 </g>
 <g transform="translate(64.75343,0.0)">
 <g fill="#000">
 <text style="stroke:none" transform="scale(1,-1) translate(0.0,0)" text-anchor="middle"  font-size="10"> 
<g fill="#000">
 <g stroke="none"> </g> </g>
 </text> 
</g>
 </g>
 <g fill="#e6e6e6">
 <g fill="#e6e6e6">
 <path d=" M 58.28955 42.9205 C 58.28955 45.78012 55.97144 48.09824 53.11182 48.09824 C 50.2522 48.09824 47.93408 45.78012 47.93408 42.9205 C 47.93408 40.06088 50.2522 37.74277 53.11182 37.74277 C 55.97144 37.74277 58.28955 40.06088 58.28955 42.9205 Z M 53.11182 42.9205  " stroke="none"/>
 </g>
 <g transform="translate(51.4104,41.3094)">
 <g fill="#000">
 <text style="stroke:none" transform="scale(1,-1) translate(1.70142,0)" text-anchor="middle"  font-size="10"> 
<g fill="#000">
 <g stroke="none"> <tspan font-family="cmr" font-size="5">5</tspan></g> </g>
 </text> 
</g>
 </g>
 </g>
 <g transform="translate(49.57884,42.9205)">
 <g fill="#000">
 <text style="stroke:none" transform="scale(1,-1) translate(0.0,0)" text-anchor="middle"  font-size="10"> 
<g fill="#000">
 <g stroke="none"> </g> </g>
 </text> 
</g>
 </g>
 <g fill="#e6e6e6">
 <g fill="#e6e6e6">
 <path d=" M 58.28955 -42.9205 C 58.28955 -40.06088 55.97144 -37.74277 53.11182 -37.74277 C 50.2522 -37.74277 47.93408 -40.06088 47.93408 -42.9205 C 47.93408 -45.78012 50.2522 -48.09824 53.11182 -48.09824 C 55.97144 -48.09824 58.28955 -45.78012 58.28955 -42.9205 Z M 53.11182 -42.9205  " stroke="none"/>
 </g>
 <g transform="translate(51.4104,-44.5316)">
 <g fill="#000">
 <text style="stroke:none" transform="scale(1,-1) translate(1.70142,0)" text-anchor="middle"  font-size="10"> 
<g fill="#000">
 <g stroke="none"> <tspan font-family="cmr" font-size="5">6</tspan></g> </g>
 </text> 
</g>
 </g>
 </g>
 <g transform="translate(49.57884,-42.9205)">
 <g fill="#000">
 <text style="stroke:none" transform="scale(1,-1) translate(0.0,0)" text-anchor="middle"  font-size="10"> 
<g fill="#000">
 <g stroke="none"> </g> </g>
 </text> 
</g>
 </g>
 <g fill="#e6e6e6">
 <g fill="#e6e6e6">
 <path d=" M 112.24454 -23.8446 C 112.24454 -20.98499 109.92642 -18.66687 107.0668 -18.66687 C 104.20718 -18.66687 101.88907 -20.98499 101.88907 -23.8446 C 101.88907 -26.70422 104.20718 -29.02234 107.0668 -29.02234 C 109.92642 -29.02234 112.24454 -26.70422 112.24454 -23.8446 Z M 107.0668 -23.8446  " stroke="none"/>
 </g>
 <g transform="translate(105.36539,-25.4557)">
 <g fill="#000">
 <text style="stroke:none" transform="scale(1,-1) translate(1.70142,0)" text-anchor="middle"  font-size="10"> 
<g fill="#000">
 <g stroke="none"> <tspan font-family="cmr" font-size="5">6</tspan></g> </g>
 </text> 
</g>
 </g>
 </g>
 <g transform="translate(103.53383,-23.8446)">
 <g fill="#000">
 <text style="stroke:none" transform="scale(1,-1) translate(0.0,0)" text-anchor="middle"  font-size="10"> 
<g fill="#000">
 <g stroke="none"> </g> </g>
 </text> 
</g>
 </g>
 <g fill="#e6e6e6">
 <g fill="#e6e6e6">
 <path d=" M 179.68784 85.84186 C 179.68784 88.70148 177.36972 91.01959 174.5101 91.01959 C 171.65048 91.01959 169.33237 88.70148 169.33237 85.84186 C 169.33237 82.98224 171.65048 80.66412 174.5101 80.66412 C 177.36972 80.66412 179.68784 82.98224 179.68784 85.84186 Z M 174.5101 85.84186  " stroke="none"/>
 </g>
 <g transform="translate(172.80869,84.23076)">
 <g fill="#000">
 <text style="stroke:none" transform="scale(1,-1) translate(1.70142,0)" text-anchor="middle"  font-size="10"> 
<g fill="#000">
 <g stroke="none"> <tspan font-family="cmr" font-size="5">6</tspan></g> </g>
 </text> 
</g>
 </g>
 </g>
 <g transform="translate(170.97713,85.84186)">
 <g fill="#000">
 <text style="stroke:none" transform="scale(1,-1) translate(0.0,0)" text-anchor="middle"  font-size="10"> 
<g fill="#000">
 <g stroke="none"> </g> </g>
 </text> 
</g>
 </g>
 <g fill="#e6e6e6">
 <g fill="#e6e6e6">
 <path d=" M 19.50916 66.76599 C 19.50916 69.62561 17.19104 71.94373 14.33142 71.94373 C 11.4718 71.94373 9.15369 69.62561 9.15369 66.76599 C 9.15369 63.90637 11.4718 61.58826 14.33142 61.58826 C 17.19104 61.58826 19.50916 63.90637 19.50916 66.76599 Z M 14.33142 66.76599  " stroke="none"/>
 </g>
 <g transform="translate(12.63,65.15489)">
 <g fill="#000">
 <text style="stroke:none" transform="scale(1,-1) translate(1.70142,0)" text-anchor="middle"  font-size="10"> 
<g fill="#000">
 <g stroke="none"> <tspan font-family="cmr" font-size="5">7</tspan></g> </g>
 </text> 
</g>
 </g>
 </g>
 <g transform="translate(10.79845,66.76599)">
 <g fill="#000">
 <text style="stroke:none" transform="scale(1,-1) translate(0.0,0)" text-anchor="middle"  font-size="10"> 
<g fill="#000">
 <g stroke="none"> </g> </g>
 </text> 
</g>
 </g>
 <g fill="#e6e6e6">
 <g fill="#e6e6e6">
 <path d=" M 19.50916 -66.76599 C 19.50916 -63.90637 17.19104 -61.58826 14.33142 -61.58826 C 11.4718 -61.58826 9.15369 -63.90637 9.15369 -66.76599 C 9.15369 -69.62561 11.4718 -71.94373 14.33142 -71.94373 C 17.19104 -71.94373 19.50916 -69.62561 19.50916 -66.76599 Z M 14.33142 -66.76599  " stroke="none"/>
 </g>
 <g transform="translate(12.63,-68.37709)">
 <g fill="#000">
 <text style="stroke:none" transform="scale(1,-1) translate(1.70142,0)" text-anchor="middle"  font-size="10"> 
<g fill="#000">
 <g stroke="none"> <tspan font-family="cmr" font-size="5">7</tspan></g> </g>
 </text> 
</g>
 </g>
 </g>
 <g transform="translate(10.79845,-66.76599)">
 <g fill="#000">
 <text style="stroke:none" transform="scale(1,-1) translate(0.0,0)" text-anchor="middle"  font-size="10"> 
<g fill="#000">
 <g stroke="none"> </g> </g>
 </text> 
</g>
 </g>
 <g fill="#e6e6e6">
 <g fill="#e6e6e6">
 <path d=" M 43.11499 85.84186 C 43.11499 88.70148 40.79688 91.01959 37.93726 91.01959 C 35.07764 91.01959 32.75952 88.70148 32.75952 85.84186 C 32.75952 82.98224 35.07764 80.66412 37.93726 80.66412 C 40.79688 80.66412 43.11499 82.98224 43.11499 85.84186 Z M 37.93726 85.84186  " stroke="none"/>
 </g>
 <g transform="translate(36.23584,84.23076)">
 <g fill="#000">
 <text style="stroke:none" transform="scale(1,-1) translate(1.70142,0)" text-anchor="middle"  font-size="10"> 
<g fill="#000">
 <g stroke="none"> <tspan font-family="cmr" font-size="5">7</tspan></g> </g>
 </text> 
</g>
 </g>
 </g>
 <g transform="translate(34.40428,85.84186)">
 <g fill="#000">
 <text style="stroke:none" transform="scale(1,-1) translate(0.0,0)" text-anchor="middle"  font-size="10"> 
<g fill="#000">
 <g stroke="none"> </g> </g>
 </text> 
</g>
 </g>
 <g fill="#e6e6e6">
 <g fill="#e6e6e6">
 <path d=" M 164.51324 128.76236 C 164.51324 131.62198 162.19513 133.9401 159.33551 133.9401 C 156.47589 133.9401 154.15778 131.62198 154.15778 128.76236 C 154.15778 125.90274 156.47589 123.58463 159.33551 123.58463 C 162.19513 123.58463 164.51324 125.90274 164.51324 128.76236 Z M 159.33551 128.76236  " stroke="none"/>
 </g>
 <g transform="translate(157.6341,127.15126)">
 <g fill="#000">
 <text style="stroke:none" transform="scale(1,-1) translate(1.70142,0)" text-anchor="middle"  font-size="10"> 
<g fill="#000">
 <g stroke="none"> <tspan font-family="cmr" font-size="5">7</tspan></g> </g>
 </text> 
</g>
 </g>
 </g>
 <g transform="translate(155.80254,128.76236)">
 <g fill="#000">
 <text style="stroke:none" transform="scale(1,-1) translate(0.0,0)" text-anchor="middle"  font-size="10"> 
<g fill="#000">
 <g stroke="none"> </g> </g>
 </text> 
</g>
 </g>
 </g>
 </g>
 
                                    </g> 
</svg> 
