<?xml version="1.0" encoding="UTF-8"?>
<svg xmlns="http://www.w3.org/2000/svg" xmlns:xlink="http://www.w3.org/1999/xlink" width="113.664pt" height="178.477pt" viewBox="0 0 113.664 178.477" version="1.2">
<defs>
<g>
<symbol overflow="visible" id="glyph0-0">
<path style="stroke:none;" d=""/>
</symbol>
<symbol overflow="visible" id="glyph0-1">
<path style="stroke:none;" d="M 1.203125 -2.953125 C 1.203125 -3.875 1.296875 -4.375 1.53125 -4.84375 C 1.71875 -5.203125 2.15625 -5.734375 2.8125 -5.734375 C 3 -5.734375 3.40625 -5.6875 3.609375 -5.375 C 3.28125 -5.375 3.140625 -5.203125 3.140625 -4.953125 C 3.140625 -4.734375 3.296875 -4.546875 3.546875 -4.546875 C 3.796875 -4.546875 3.96875 -4.703125 3.96875 -4.984375 C 3.96875 -5.484375 3.609375 -5.953125 2.796875 -5.953125 C 1.640625 -5.953125 0.390625 -4.8125 0.390625 -2.828125 C 0.390625 -0.40625 1.46875 0.203125 2.3125 0.203125 C 3.3125 0.203125 4.203125 -0.640625 4.203125 -1.8125 C 4.203125 -2.953125 3.375 -3.8125 2.375 -3.8125 C 1.828125 -3.8125 1.453125 -3.5 1.203125 -2.953125 Z M 2.3125 -0.046875 C 1.796875 -0.046875 1.5 -0.46875 1.390625 -0.734375 C 1.21875 -1.140625 1.21875 -1.875 1.21875 -2.015625 C 1.21875 -2.625 1.5 -3.578125 2.34375 -3.578125 C 2.5 -3.578125 2.9375 -3.578125 3.21875 -3.03125 C 3.390625 -2.6875 3.390625 -2.25 3.390625 -1.828125 C 3.390625 -1.390625 3.390625 -0.953125 3.21875 -0.625 C 2.9375 -0.109375 2.546875 -0.046875 2.3125 -0.046875 Z M 2.3125 -0.046875 "/>
</symbol>
<symbol overflow="visible" id="glyph0-2">
<path style="stroke:none;" d="M 1.53125 -4.0625 C 1.265625 -4.234375 1.0625 -4.46875 1.0625 -4.796875 C 1.0625 -5.375 1.6875 -5.734375 2.28125 -5.734375 C 2.96875 -5.734375 3.515625 -5.25 3.515625 -4.625 C 3.515625 -4 2.984375 -3.578125 2.625 -3.375 Z M 2.84375 -3.234375 C 3.296875 -3.453125 3.953125 -3.890625 3.953125 -4.625 C 3.953125 -5.453125 3.109375 -5.953125 2.3125 -5.953125 C 1.375 -5.953125 0.640625 -5.28125 0.640625 -4.453125 C 0.640625 -4.125 0.765625 -3.796875 0.96875 -3.546875 C 1.125 -3.375 1.1875 -3.328125 1.703125 -3 C 0.90625 -2.625 0.390625 -2.078125 0.390625 -1.34375 C 0.390625 -0.40625 1.328125 0.203125 2.28125 0.203125 C 3.328125 0.203125 4.203125 -0.53125 4.203125 -1.5 C 4.203125 -2.375 3.546875 -2.796875 3.3125 -2.9375 C 3.21875 -3.015625 2.953125 -3.171875 2.84375 -3.234375 Z M 1.9375 -2.84375 L 3.0625 -2.15625 C 3.265625 -2.015625 3.71875 -1.734375 3.71875 -1.1875 C 3.71875 -0.484375 3 -0.046875 2.296875 -0.046875 C 1.515625 -0.046875 0.859375 -0.609375 0.859375 -1.34375 C 0.859375 -2 1.3125 -2.53125 1.9375 -2.84375 Z M 1.9375 -2.84375 "/>
</symbol>
<symbol overflow="visible" id="glyph0-3">
<path style="stroke:none;" d="M 3.390625 -2.8125 L 3.390625 -2.625 C 3.390625 -0.4375 2.390625 -0.046875 1.890625 -0.046875 C 1.6875 -0.046875 1.21875 -0.09375 0.984375 -0.390625 L 1.03125 -0.390625 C 1.09375 -0.359375 1.453125 -0.4375 1.453125 -0.796875 C 1.453125 -1.03125 1.28125 -1.203125 1.03125 -1.203125 C 0.78125 -1.203125 0.609375 -1.046875 0.609375 -0.78125 C 0.609375 -0.1875 1.09375 0.203125 1.890625 0.203125 C 3.046875 0.203125 4.203125 -0.984375 4.203125 -2.9375 C 4.203125 -5.359375 3.125 -5.953125 2.328125 -5.953125 C 1.296875 -5.953125 0.390625 -5.125 0.390625 -3.953125 C 0.390625 -2.8125 1.203125 -1.953125 2.21875 -1.953125 C 2.875 -1.953125 3.21875 -2.4375 3.390625 -2.8125 Z M 2.234375 -2.1875 C 2.09375 -2.1875 1.65625 -2.1875 1.375 -2.734375 C 1.203125 -3.078125 1.203125 -3.515625 1.203125 -3.9375 C 1.203125 -4.375 1.203125 -4.8125 1.390625 -5.15625 C 1.65625 -5.609375 2 -5.734375 2.328125 -5.734375 C 2.9375 -5.734375 3.171875 -5.109375 3.203125 -5.015625 C 3.328125 -4.6875 3.375 -4.140625 3.375 -3.765625 C 3.375 -3.109375 3.078125 -2.1875 2.234375 -2.1875 Z M 2.234375 -2.1875 "/>
</symbol>
<symbol overflow="visible" id="glyph0-4">
<path style="stroke:none;" d="M 2.71875 -5.71875 C 2.71875 -5.9375 2.703125 -5.953125 2.484375 -5.953125 C 1.9375 -5.375 1.109375 -5.375 0.828125 -5.375 L 0.828125 -5.109375 C 1 -5.109375 1.546875 -5.109375 2.03125 -5.328125 L 2.03125 -0.71875 C 2.03125 -0.390625 2 -0.28125 1.171875 -0.28125 L 0.890625 -0.28125 L 0.890625 0 C 1.203125 -0.03125 2 -0.03125 2.375 -0.03125 C 2.734375 -0.03125 3.546875 -0.03125 3.859375 0 L 3.859375 -0.28125 L 3.578125 -0.28125 C 2.75 -0.28125 2.71875 -0.390625 2.71875 -0.71875 Z M 2.71875 -5.71875 "/>
</symbol>
<symbol overflow="visible" id="glyph0-5">
<path style="stroke:none;" d="M 4.125 -1.578125 L 3.875 -1.578125 C 3.859375 -1.46875 3.796875 -0.9375 3.671875 -0.796875 C 3.625 -0.71875 3 -0.71875 2.828125 -0.71875 L 1.234375 -0.71875 L 2.125 -1.5625 C 3.578125 -2.828125 4.125 -3.296875 4.125 -4.203125 C 4.125 -5.234375 3.28125 -5.953125 2.1875 -5.953125 C 1.15625 -5.953125 0.453125 -5.140625 0.453125 -4.328125 C 0.453125 -3.875 0.84375 -3.828125 0.921875 -3.828125 C 1.125 -3.828125 1.390625 -3.984375 1.390625 -4.296875 C 1.390625 -4.5625 1.203125 -4.765625 0.921875 -4.765625 C 0.875 -4.765625 0.84375 -4.765625 0.8125 -4.75 C 1.03125 -5.390625 1.59375 -5.671875 2.078125 -5.671875 C 3 -5.671875 3.3125 -4.828125 3.3125 -4.203125 C 3.3125 -3.296875 2.625 -2.5625 2.1875 -2.09375 L 0.546875 -0.328125 C 0.453125 -0.21875 0.453125 -0.203125 0.453125 0 L 3.875 0 Z M 4.125 -1.578125 "/>
</symbol>
<symbol overflow="visible" id="glyph0-6">
<path style="stroke:none;" d="M 4.234375 -2.859375 C 4.234375 -3.453125 4.203125 -4.234375 3.890625 -4.890625 C 3.5 -5.734375 2.8125 -5.953125 2.296875 -5.953125 C 1.765625 -5.953125 1.078125 -5.734375 0.6875 -4.875 C 0.40625 -4.265625 0.359375 -3.546875 0.359375 -2.859375 C 0.359375 -2.28125 0.375 -1.40625 0.765625 -0.703125 C 1.1875 0.046875 1.875 0.203125 2.28125 0.203125 C 2.875 0.203125 3.53125 -0.046875 3.90625 -0.875 C 4.171875 -1.46875 4.234375 -2.140625 4.234375 -2.859375 Z M 2.296875 -0.03125 C 2.03125 -0.03125 1.390625 -0.15625 1.21875 -1.15625 C 1.125 -1.6875 1.125 -2.453125 1.125 -2.96875 C 1.125 -3.578125 1.125 -4.28125 1.234375 -4.765625 C 1.40625 -5.5625 1.984375 -5.734375 2.28125 -5.734375 C 2.625 -5.734375 3.1875 -5.546875 3.359375 -4.71875 C 3.453125 -4.234375 3.453125 -3.53125 3.453125 -2.96875 C 3.453125 -2.40625 3.453125 -1.65625 3.375 -1.140625 C 3.1875 -0.109375 2.515625 -0.03125 2.296875 -0.03125 Z M 2.296875 -0.03125 "/>
</symbol>
<symbol overflow="visible" id="glyph0-7">
<path style="stroke:none;" d="M 2.71875 -3.140625 C 3.5625 -3.453125 3.953125 -4.109375 3.953125 -4.734375 C 3.953125 -5.421875 3.1875 -5.953125 2.265625 -5.953125 C 1.328125 -5.953125 0.640625 -5.421875 0.640625 -4.75 C 0.640625 -4.453125 0.828125 -4.28125 1.09375 -4.28125 C 1.34375 -4.28125 1.53125 -4.46875 1.53125 -4.734375 C 1.53125 -5.046875 1.328125 -5.171875 1.015625 -5.171875 C 1.25 -5.546875 1.796875 -5.734375 2.234375 -5.734375 C 2.96875 -5.734375 3.125 -5.140625 3.125 -4.71875 C 3.125 -4.453125 3.0625 -4.015625 2.84375 -3.6875 C 2.5625 -3.28125 2.25 -3.265625 2 -3.25 C 1.765625 -3.21875 1.75 -3.21875 1.6875 -3.21875 C 1.59375 -3.21875 1.53125 -3.203125 1.53125 -3.109375 C 1.53125 -3 1.59375 -3 1.75 -3 L 2.171875 -3 C 2.953125 -3 3.28125 -2.375 3.28125 -1.515625 C 3.28125 -0.375 2.6875 -0.046875 2.21875 -0.046875 C 2.0625 -0.046875 1.1875 -0.09375 0.78125 -0.765625 C 1.109375 -0.71875 1.359375 -0.9375 1.359375 -1.25 C 1.359375 -1.53125 1.140625 -1.71875 0.875 -1.71875 C 0.65625 -1.71875 0.390625 -1.59375 0.390625 -1.21875 C 0.390625 -0.421875 1.21875 0.203125 2.25 0.203125 C 3.375 0.203125 4.203125 -0.609375 4.203125 -1.515625 C 4.203125 -2.296875 3.578125 -2.953125 2.71875 -3.140625 Z M 2.71875 -3.140625 "/>
</symbol>
<symbol overflow="visible" id="glyph1-0">
<path style="stroke:none;" d=""/>
</symbol>
<symbol overflow="visible" id="glyph1-1">
<path style="stroke:none;" d="M 1.265625 -0.765625 L 2.3125 -1.78125 C 3.859375 -3.15625 4.46875 -3.703125 4.46875 -4.6875 C 4.46875 -5.828125 3.5625 -6.625 2.359375 -6.625 C 1.234375 -6.625 0.5 -5.703125 0.5 -4.8125 C 0.5 -4.265625 1 -4.265625 1.03125 -4.265625 C 1.1875 -4.265625 1.546875 -4.375 1.546875 -4.796875 C 1.546875 -5.046875 1.359375 -5.3125 1.015625 -5.3125 C 0.9375 -5.3125 0.921875 -5.3125 0.890625 -5.296875 C 1.109375 -5.9375 1.65625 -6.3125 2.21875 -6.3125 C 3.125 -6.3125 3.5625 -5.5 3.5625 -4.6875 C 3.5625 -3.890625 3.0625 -3.109375 2.515625 -2.5 L 0.609375 -0.375 C 0.5 -0.265625 0.5 -0.234375 0.5 0 L 4.1875 0 L 4.46875 -1.734375 L 4.21875 -1.734375 C 4.15625 -1.4375 4.09375 -1 4 -0.84375 C 3.921875 -0.765625 3.265625 -0.765625 3.046875 -0.765625 Z M 1.265625 -0.765625 "/>
</symbol>
<symbol overflow="visible" id="glyph1-2">
<path style="stroke:none;" d="M 4.46875 -2 C 4.46875 -3.1875 3.640625 -4.171875 2.578125 -4.171875 C 2.09375 -4.171875 1.671875 -4.015625 1.3125 -3.671875 L 1.3125 -5.609375 C 1.515625 -5.546875 1.84375 -5.46875 2.15625 -5.46875 C 3.375 -5.46875 4.078125 -6.375 4.078125 -6.515625 C 4.078125 -6.5625 4.046875 -6.625 3.96875 -6.625 C 3.96875 -6.625 3.9375 -6.625 3.890625 -6.59375 C 3.703125 -6.5 3.203125 -6.296875 2.546875 -6.296875 C 2.140625 -6.296875 1.6875 -6.375 1.21875 -6.578125 C 1.140625 -6.609375 1.125 -6.609375 1.109375 -6.609375 C 1 -6.609375 1 -6.53125 1 -6.375 L 1 -3.421875 C 1 -3.25 1 -3.171875 1.140625 -3.171875 C 1.21875 -3.171875 1.234375 -3.203125 1.265625 -3.265625 C 1.375 -3.421875 1.75 -3.953125 2.546875 -3.953125 C 3.078125 -3.953125 3.3125 -3.5 3.40625 -3.3125 C 3.5625 -2.953125 3.578125 -2.5625 3.578125 -2.0625 C 3.578125 -1.71875 3.578125 -1.125 3.34375 -0.703125 C 3.09375 -0.3125 2.734375 -0.0625 2.28125 -0.0625 C 1.546875 -0.0625 0.984375 -0.59375 0.8125 -1.171875 C 0.84375 -1.15625 0.875 -1.15625 0.984375 -1.15625 C 1.3125 -1.15625 1.484375 -1.40625 1.484375 -1.640625 C 1.484375 -1.875 1.3125 -2.125 0.984375 -2.125 C 0.84375 -2.125 0.5 -2.0625 0.5 -1.59375 C 0.5 -0.75 1.1875 0.21875 2.296875 0.21875 C 3.453125 0.21875 4.46875 -0.734375 4.46875 -2 Z M 4.46875 -2 "/>
</symbol>
<symbol overflow="visible" id="glyph1-3">
<path style="stroke:none;" d="M 2.875 -3.5 C 3.703125 -3.765625 4.265625 -4.46875 4.265625 -5.25 C 4.265625 -6.0625 3.40625 -6.625 2.4375 -6.625 C 1.4375 -6.625 0.6875 -6.015625 0.6875 -5.265625 C 0.6875 -4.9375 0.90625 -4.75 1.1875 -4.75 C 1.5 -4.75 1.703125 -4.96875 1.703125 -5.25 C 1.703125 -5.75 1.234375 -5.75 1.078125 -5.75 C 1.390625 -6.234375 2.046875 -6.375 2.40625 -6.375 C 2.8125 -6.375 3.359375 -6.15625 3.359375 -5.25 C 3.359375 -5.140625 3.34375 -4.5625 3.078125 -4.125 C 2.78125 -3.640625 2.4375 -3.625 2.203125 -3.609375 C 2.109375 -3.59375 1.875 -3.578125 1.8125 -3.578125 C 1.734375 -3.5625 1.65625 -3.5625 1.65625 -3.453125 C 1.65625 -3.34375 1.734375 -3.34375 1.890625 -3.34375 L 2.328125 -3.34375 C 3.15625 -3.34375 3.515625 -2.671875 3.515625 -1.703125 C 3.515625 -0.34375 2.828125 -0.0625 2.390625 -0.0625 C 1.96875 -0.0625 1.21875 -0.234375 0.875 -0.8125 C 1.21875 -0.765625 1.53125 -0.984375 1.53125 -1.359375 C 1.53125 -1.71875 1.265625 -1.921875 0.96875 -1.921875 C 0.734375 -1.921875 0.421875 -1.78125 0.421875 -1.34375 C 0.421875 -0.4375 1.34375 0.21875 2.421875 0.21875 C 3.640625 0.21875 4.546875 -0.6875 4.546875 -1.703125 C 4.546875 -2.515625 3.921875 -3.296875 2.875 -3.5 Z M 2.875 -3.5 "/>
</symbol>
<symbol overflow="visible" id="glyph1-4">
<path style="stroke:none;" d="M 4.734375 -6.046875 C 4.8125 -6.171875 4.8125 -6.1875 4.8125 -6.40625 L 2.40625 -6.40625 C 1.1875 -6.40625 1.171875 -6.53125 1.140625 -6.71875 L 0.890625 -6.71875 L 0.5625 -4.671875 L 0.8125 -4.671875 C 0.828125 -4.828125 0.921875 -5.453125 1.046875 -5.578125 C 1.125 -5.640625 1.890625 -5.640625 2.03125 -5.640625 L 4.078125 -5.640625 C 3.96875 -5.46875 3.1875 -4.390625 2.96875 -4.0625 C 2.078125 -2.71875 1.75 -1.34375 1.75 -0.328125 C 1.75 -0.234375 1.75 0.21875 2.203125 0.21875 C 2.65625 0.21875 2.65625 -0.234375 2.65625 -0.328125 L 2.65625 -0.828125 C 2.65625 -1.375 2.6875 -1.921875 2.765625 -2.46875 C 2.8125 -2.6875 2.953125 -3.546875 3.390625 -4.15625 Z M 4.734375 -6.046875 "/>
</symbol>
<symbol overflow="visible" id="glyph1-5">
<path style="stroke:none;" d="M 2.921875 -6.359375 C 2.921875 -6.59375 2.921875 -6.625 2.6875 -6.625 C 2.078125 -5.984375 1.203125 -5.984375 0.890625 -5.984375 L 0.890625 -5.671875 C 1.078125 -5.671875 1.671875 -5.671875 2.1875 -5.9375 L 2.1875 -0.78125 C 2.1875 -0.421875 2.15625 -0.3125 1.265625 -0.3125 L 0.9375 -0.3125 L 0.9375 0 C 1.296875 -0.03125 2.15625 -0.03125 2.546875 -0.03125 C 2.953125 -0.03125 3.8125 -0.03125 4.15625 0 L 4.15625 -0.3125 L 3.84375 -0.3125 C 2.953125 -0.3125 2.921875 -0.421875 2.921875 -0.78125 Z M 2.921875 -6.359375 "/>
</symbol>
</g>
<clipPath id="clip1">
  <path d="M 51 165 L 68 165 L 68 177.953125 L 51 177.953125 Z M 51 165 "/>
</clipPath>
</defs>
<g id="surface1">
<path style="fill-rule:nonzero;fill:rgb(100%,96.939087%,40.000916%);fill-opacity:1;stroke-width:0.3985;stroke-linecap:butt;stroke-linejoin:round;stroke:rgb(0%,0%,0%);stroke-opacity:1;stroke-miterlimit:10;" d="M 42.520285 158.686553 L 0.000432155 85.039801 L 85.040138 85.039801 Z M 0.000432155 85.039801 L 85.040138 85.039801 L 85.040138 0.000095294 L 0.000432155 0.000095294 Z M 0.000432155 85.039801 " transform="matrix(0.997053,0,0,-0.997053,16.753475,171.441501)"/>
<path style=" stroke:none;fill-rule:nonzero;fill:rgb(79.998779%,79.998779%,100%);fill-opacity:1;" d="M 32.34375 56.128906 L 43.558594 56.128906 L 43.558594 43.746094 L 32.34375 43.746094 Z M 32.34375 56.128906 "/>
<g style="fill:rgb(0%,0%,0%);fill-opacity:1;">
  <use xlink:href="#glyph0-1" x="35.653605" y="52.819159"/>
</g>
<path style=" stroke:none;fill-rule:nonzero;fill:rgb(79.998779%,79.998779%,100%);fill-opacity:1;" d="M 74.738281 56.128906 L 85.953125 56.128906 L 85.953125 43.746094 L 74.738281 43.746094 Z M 74.738281 56.128906 "/>
<g style="fill:rgb(0%,0%,0%);fill-opacity:1;">
  <use xlink:href="#glyph0-2" x="78.048283" y="52.819159"/>
</g>
<path style=" stroke:none;fill-rule:nonzero;fill:rgb(79.998779%,79.998779%,100%);fill-opacity:1;" d="M 53.539062 92.84375 L 64.757812 92.84375 L 64.757812 80.460938 L 53.539062 80.460938 Z M 53.539062 92.84375 "/>
<g style="fill:rgb(0%,0%,0%);fill-opacity:1;">
  <use xlink:href="#glyph0-3" x="56.850944" y="89.533628"/>
</g>
<path style=" stroke:none;fill-rule:nonzero;fill:rgb(79.998779%,79.998779%,100%);fill-opacity:1;" d="M 93.636719 135.238281 L 109.449219 135.238281 L 109.449219 122.855469 L 93.636719 122.855469 Z M 93.636719 135.238281 "/>
<g style="fill:rgb(0%,0%,0%);fill-opacity:1;">
  <use xlink:href="#glyph0-4" x="96.948413" y="131.928305"/>
  <use xlink:href="#glyph0-5" x="101.542665" y="131.928305"/>
</g>
<path style=" stroke:none;fill-rule:nonzero;fill:rgb(79.998779%,79.998779%,100%);fill-opacity:1;" d="M 8.847656 135.238281 L 24.660156 135.238281 L 24.660156 122.855469 L 8.847656 122.855469 Z M 8.847656 135.238281 "/>
<g style="fill:rgb(0%,0%,0%);fill-opacity:1;">
  <use xlink:href="#glyph0-4" x="12.159057" y="131.928305"/>
  <use xlink:href="#glyph0-6" x="16.753309" y="131.928305"/>
</g>
<g clip-path="url(#clip1)" clip-rule="nonzero">
<path style=" stroke:none;fill-rule:nonzero;fill:rgb(79.998779%,79.998779%,100%);fill-opacity:1;" d="M 51.242188 177.632812 L 67.054688 177.632812 L 67.054688 165.25 L 51.242188 165.25 Z M 51.242188 177.632812 "/>
</g>
<g style="fill:rgb(0%,0%,0%);fill-opacity:1;">
  <use xlink:href="#glyph0-4" x="54.553735" y="174.321986"/>
  <use xlink:href="#glyph0-7" x="59.147987" y="174.321986"/>
</g>
<path style=" stroke:none;fill-rule:nonzero;fill:rgb(0%,0%,100%);fill-opacity:1;" d="M 61.136719 13.222656 C 61.136719 12.125 60.246094 11.234375 59.148438 11.234375 C 58.050781 11.234375 57.160156 12.125 57.160156 13.222656 C 57.160156 14.320312 58.050781 15.207031 59.148438 15.207031 C 60.246094 15.207031 61.136719 14.320312 61.136719 13.222656 Z M 61.136719 13.222656 "/>
<g style="fill:rgb(0%,0%,100%);fill-opacity:1;">
  <use xlink:href="#glyph1-1" x="56.664495" y="9.714579"/>
</g>
<path style=" stroke:none;fill-rule:nonzero;fill:rgb(0%,0%,100%);fill-opacity:1;" d="M 18.738281 86.652344 C 18.738281 85.554688 17.851562 84.664062 16.753906 84.664062 C 15.65625 84.664062 14.765625 85.554688 14.765625 86.652344 C 14.765625 87.75 15.65625 88.636719 16.753906 88.636719 C 17.851562 88.636719 18.738281 87.75 18.738281 86.652344 Z M 18.738281 86.652344 "/>
<g style="fill:rgb(0%,0%,100%);fill-opacity:1;">
  <use xlink:href="#glyph1-2" x="8.277531" y="89.853681"/>
</g>
<path style=" stroke:none;fill-rule:nonzero;fill:rgb(0%,0%,100%);fill-opacity:1;" d="M 103.53125 86.652344 C 103.53125 85.554688 102.640625 84.664062 101.542969 84.664062 C 100.445312 84.664062 99.554688 85.554688 99.554688 86.652344 C 99.554688 87.75 100.445312 88.636719 101.542969 88.636719 C 102.640625 88.636719 103.53125 87.75 103.53125 86.652344 Z M 103.53125 86.652344 "/>
<g style="fill:rgb(0%,0%,100%);fill-opacity:1;">
  <use xlink:href="#glyph1-3" x="105.051459" y="89.853681"/>
</g>
<path style=" stroke:none;fill-rule:nonzero;fill:rgb(0%,0%,100%);fill-opacity:1;" d="M 103.53125 171.441406 C 103.53125 170.34375 102.640625 169.453125 101.542969 169.453125 C 100.445312 169.453125 99.554688 170.34375 99.554688 171.441406 C 99.554688 172.539062 100.445312 173.429688 101.542969 173.429688 C 102.640625 173.429688 103.53125 172.539062 103.53125 171.441406 Z M 103.53125 171.441406 "/>
<g style="fill:rgb(0%,0%,100%);fill-opacity:1;">
  <use xlink:href="#glyph1-4" x="105.051459" y="174.64204"/>
</g>
<path style=" stroke:none;fill-rule:nonzero;fill:rgb(0%,0%,100%);fill-opacity:1;" d="M 18.738281 171.441406 C 18.738281 170.34375 17.851562 169.453125 16.753906 169.453125 C 15.65625 169.453125 14.765625 170.34375 14.765625 171.441406 C 14.765625 172.539062 15.65625 173.429688 16.753906 173.429688 C 17.851562 173.429688 18.738281 172.539062 18.738281 171.441406 Z M 18.738281 171.441406 "/>
<g style="fill:rgb(0%,0%,100%);fill-opacity:1;">
  <use xlink:href="#glyph1-5" x="3.311212" y="174.64204"/>
  <use xlink:href="#glyph1-5" x="8.27783" y="174.64204"/>
</g>
<path style=" stroke:none;fill-rule:nonzero;fill:rgb(100%,96.939087%,40.000916%);fill-opacity:1;" d="M 55.835938 65.488281 L 62.457031 65.488281 L 62.457031 58.867188 L 55.835938 58.867188 Z M 55.835938 65.488281 "/>
<path style=" stroke:none;fill-rule:nonzero;fill:rgb(100%,96.939087%,40.000916%);fill-opacity:1;" d="M 55.835938 132.355469 L 62.460938 132.355469 L 62.460938 125.734375 L 55.835938 125.734375 Z M 55.835938 132.355469 "/>
</g>
</svg>
