<?xml version="1.0" encoding="iso-8859-1" standalone="no"?> 
<?xml-stylesheet href="_Wrapper_Image_EdgeFacePath.css" type="text/css"?> 
<svg xmlns="http://www.w3.org/2000/svg" xmlns:xlink="http://www.w3.org/1999/xlink" width="337.27176pt" height="133.134pt" viewBox="-67.8508 -71.33185 337.27176 133.134 "> 
<g transform="translate(0,61.80215 ) scale(1,-1) translate(0,71.33185 )"> 
             <g stroke="#000" fill="#000">
 <g stroke-width="0.4">
 <g stroke-linejoin="round">
 <g stroke="#000">
 <g fill="#ff6">
 <path d=" M 0.0 0.0 L 67.6508 -21.98123 L 41.80994 57.54716 Z  " />
 <g fill="#ccf">
 <g fill="#ccf">
 <path d=" M 26.25896 -16.76108 h 15.13287 v 11.54092 h -15.13287 Z  " stroke="none"/>
 </g>
 <g transform="translate(29.59193,-12.42812)">
 <g fill="#000">
 <text style="stroke:none" transform="scale(1,-1) translate(4.23346,0)" text-anchor="middle"  font-size="10"> 
<g fill="#000">
 <g stroke="none"> <tspan font-family="cmmi" font-size="9">e</tspan><tspan dy="3"><tspan font-family="cmr" font-size="6">1</tspan></tspan></g> </g>
 </text> 
</g>
 </g>
 </g>
 <g fill="#ccf">
 <g fill="#ccf">
 <path d=" M 13.33853 23.00313 h 15.13287 v 11.54092 h -15.13287 Z  " stroke="none"/>
 </g>
 <g transform="translate(16.67151,27.33609)">
 <g fill="#000">
 <text style="stroke:none" transform="scale(1,-1) translate(4.23346,0)" text-anchor="middle"  font-size="10"> 
<g fill="#000">
 <g stroke="none"> <tspan font-family="cmmi" font-size="9">e</tspan><tspan dy="3"><tspan font-family="cmr" font-size="6">2</tspan></tspan></g> </g>
 </text> 
</g>
 </g>
 </g>
 </g>
 </g>
 </g>
 <g transform="translate(31.25716,9.35512)">
 <g fill="#000">
 <text style="stroke:none" transform="scale(1,-1) translate(5.22919,0)" text-anchor="middle"  font-size="10"> 
<g fill="#000">
 <g stroke="none"> <tspan font-family="cmmi" font-size="10">f</tspan><tspan dy="3"><tspan font-family="cmr" font-size="7">1</tspan></tspan></g> </g>
 </text> 
</g>
 </g>
 <g stroke-linejoin="round">
 <g stroke="#000">
 <g fill="#ff6">
 <path d=" M 0.0 0.0 L 41.80994 57.54716 L -41.80994 57.54716 Z  " />
 <g fill="#ccf">
 <g fill="#ccf">
 <path d=" M 13.33853 23.00311 h 15.13287 v 11.54092 h -15.13287 Z  " stroke="none"/>
 </g>
 <g transform="translate(16.67151,27.33607)">
 <g fill="#000">
 <text style="stroke:none" transform="scale(1,-1) translate(4.23346,0)" text-anchor="middle"  font-size="10"> 
<g fill="#000">
 <g stroke="none"> <tspan font-family="cmmi" font-size="9">e</tspan><tspan dy="3"><tspan font-family="cmr" font-size="6">2</tspan> </tspan> </g> </g>
 </text> 
</g>
 </g>
 </g>
 <g fill="#ccf">
 <g fill="#ccf">
 <path d=" M -28.4714 23.00313 h 15.13287 v 11.54092 h -15.13287 Z  " stroke="none"/>
 </g>
 <g transform="translate(-25.13843,27.33609)">
 <g fill="#000">
 <text style="stroke:none" transform="scale(1,-1) translate(4.23346,0)" text-anchor="middle"  font-size="10"> 
<g fill="#000">
 <g stroke="none"> <tspan font-family="cmmi" font-size="9">e</tspan><tspan dy="3"><tspan font-family="cmr" font-size="6">3</tspan> </tspan> </g> </g>
 </text> 
</g>
 </g>
 </g>
 </g>
 </g>
 </g>
 <g transform="translate(-5.22919,35.86417)">
 <g fill="#000">
 <text style="stroke:none" transform="scale(1,-1) translate(5.22919,0)" text-anchor="middle"  font-size="10"> 
<g fill="#000">
 <g stroke="none"> <tspan font-family="cmmi" font-size="10">f</tspan><tspan dy="3"><tspan font-family="cmr" font-size="7">2</tspan></tspan></g> </g>
 </text> 
</g>
 </g>
 <g stroke-linejoin="round">
 <g stroke="#000">
 <g fill="#ff6">
 <path d=" M 0.0 0.0 L -41.80994 57.54716 L -67.6508 -21.98123 Z  " />
 <g fill="#ccf">
 <g fill="#ccf">
 <path d=" M -28.4714 23.00311 h 15.13287 v 11.54092 h -15.13287 Z  " stroke="none"/>
 </g>
 <g transform="translate(-25.13843,27.33607)">
 <g fill="#000">
 <text style="stroke:none" transform="scale(1,-1) translate(4.23346,0)" text-anchor="middle"  font-size="10"> 
<g fill="#000">
 <g stroke="none"> <tspan font-family="cmmi" font-size="9">e</tspan><tspan dy="3"><tspan font-family="cmr" font-size="6">3</tspan> </tspan> </g> </g>
 </text> 
</g>
 </g>
 </g>
 <g fill="#ccf">
 <g fill="#ccf">
 <path d=" M -41.39185 -16.76108 h 15.13287 v 11.54092 h -15.13287 Z  " stroke="none"/>
 </g>
 <g transform="translate(-38.05887,-12.42812)">
 <g fill="#000">
 <text style="stroke:none" transform="scale(1,-1) translate(4.23346,0)" text-anchor="middle"  font-size="10"> 
<g fill="#000">
 <g stroke="none"> <tspan font-family="cmmi" font-size="9">e</tspan><tspan dy="3"><tspan font-family="cmr" font-size="6">4</tspan> </tspan> </g> </g>
 </text> 
</g>
 </g>
 </g>
 </g>
 </g>
 </g>
 <g transform="translate(-41.71553,9.35512)">
 <g fill="#000">
 <text style="stroke:none" transform="scale(1,-1) translate(5.22919,0)" text-anchor="middle"  font-size="10"> 
<g fill="#000">
 <g stroke="none"> <tspan font-family="cmmi" font-size="10">f</tspan><tspan dy="3"><tspan font-family="cmr" font-size="7">3</tspan></tspan></g> </g>
 </text> 
</g>
 </g>
 <g stroke-linejoin="round">
 <g stroke="#000">
 <g fill="#ff6">
 <path d=" M 0.0 0.0 L -67.6508 -21.98123 L 0.0 -71.13185 Z  " />
 <g fill="#ccf">
 <g fill="#ccf">
 <path d=" M -41.39183 -16.76108 h 15.13287 v 11.54092 h -15.13287 Z  " stroke="none"/>
 </g>
 <g transform="translate(-38.05885,-12.42812)">
 <g fill="#000">
 <text style="stroke:none" transform="scale(1,-1) translate(4.23346,0)" text-anchor="middle"  font-size="10"> 
<g fill="#000">
 <g stroke="none"> <tspan font-family="cmmi" font-size="9">e</tspan><tspan dy="3"><tspan font-family="cmr" font-size="6">4</tspan> </tspan> </g> </g>
 </text> 
</g>
 </g>
 </g>
 <g fill="#ccf">
 <g fill="#ccf">
 <path d=" M -7.56644 -41.3364 h 15.13287 v 11.54092 h -15.13287 Z  " stroke="none"/>
 </g>
 <g transform="translate(-4.23346,-37.00343)">
 <g fill="#000">
 <text style="stroke:none" transform="scale(1,-1) translate(4.23346,0)" text-anchor="middle"  font-size="10"> 
<g fill="#000">
 <g stroke="none"> <tspan font-family="cmmi" font-size="9">e</tspan><tspan dy="3"><tspan font-family="cmr" font-size="6">5</tspan> </tspan> </g> </g>
 </text> 
</g>
 </g>
 </g>
 </g>
 </g>
 </g>
 <g transform="translate(-27.7791,-33.53722)">
 <g fill="#000">
 <text style="stroke:none" transform="scale(1,-1) translate(5.22919,0)" text-anchor="middle"  font-size="10"> 
<g fill="#000">
 <g stroke="none"> <tspan font-family="cmmi" font-size="10">f</tspan><tspan dy="3"><tspan font-family="cmr" font-size="7">4</tspan></tspan></g> </g>
 </text> 
</g>
 </g>
 <g stroke-linejoin="round">
 <g stroke="#000">
 <g fill="#ff6">
 <path d=" M 0.0 0.0 L 0.0 -71.13185 L 67.6508 -21.98123 Z  " />
 <g fill="#ccf">
 <g fill="#ccf">
 <path d=" M -7.56644 -41.33638 h 15.13287 v 11.54092 h -15.13287 Z  " stroke="none"/>
 </g>
 <g transform="translate(-4.23346,-37.00342)">
 <g fill="#000">
 <text style="stroke:none" transform="scale(1,-1) translate(4.23346,0)" text-anchor="middle"  font-size="10"> 
<g fill="#000">
 <g stroke="none"> <tspan font-family="cmmi" font-size="9">e</tspan><tspan dy="3"><tspan font-family="cmr" font-size="6">5</tspan> </tspan> </g> </g>
 </text> 
</g>
 </g>
 </g>
 <g fill="#ccf">
 <g fill="#ccf">
 <path d=" M 26.25897 -16.76108 h 15.13287 v 11.54092 h -15.13287 Z  " stroke="none"/>
 </g>
 <g transform="translate(29.59195,-12.42812)">
 <g fill="#000">
 <text style="stroke:none" transform="scale(1,-1) translate(4.23346,0)" text-anchor="middle"  font-size="10"> 
<g fill="#000">
 <g stroke="none"> <tspan font-family="cmmi" font-size="9">e</tspan><tspan dy="3"><tspan font-family="cmr" font-size="6">1</tspan> </tspan> </g> </g>
 </text> 
</g>
 </g>
 </g>
 </g>
 </g>
 </g>
 <g transform="translate(17.32072,-33.53722)">
 <g fill="#000">
 <text style="stroke:none" transform="scale(1,-1) translate(5.22919,0)" text-anchor="middle"  font-size="10"> 
<g fill="#000">
 <g stroke="none"> <tspan font-family="cmmi" font-size="10">f</tspan><tspan dy="3"><tspan font-family="cmr" font-size="7">5</tspan></tspan></g> </g>
 </text> 
</g>
 </g>
 <g fill="#00f">
 <g fill="#00f">
 <path d=" M 2.0 0.0 C 2.0 1.10458 1.10458 2.0 0.0 2.0 C -1.10458 2.0 -2.0 1.10458 -2.0 0.0 C -2.0 -1.10458 -1.10458 -2.0 0.0 -2.0 C 1.10458 -2.0 2.0 -1.10458 2.0 0.0 Z M 0.0 0.0  " stroke="none"/>
 </g>
 <g fill="#000">
 <text style="stroke:none" transform="scale(1,-1) translate(0.0,0)" text-anchor="middle"  font-size="10"> 
<g fill="#000">
 <g stroke="none"> </g> </g>
 </text> 
</g>
 </g>
 <g stroke="#00f" fill="#00f">
 <g stroke="#00f" fill="#00f">
 </g>
 <g transform="translate(12.06888,-3.41666)">
 <g fill="#00f">
 <text style="stroke:none" transform="scale(1,-1) translate(4.02777,0)" text-anchor="middle"  font-size="10"> 
<g fill="#00f">
 <g stroke="none"> <tspan font-family="cmmi" font-size="10">V </tspan> </g> </g>
 </text> 
</g>
 </g>
 </g>
 <g stroke-linejoin="round">
 <g stroke="#000">
 <g fill="#ff6">
 <path d=" M 199.16928 0.0 L 211.52097 -70.05168 L 269.22096 -12.35168 Z  " />
 <g fill="#ccf">
 <g fill="#ccf">
 <path d=" M 197.77869 -40.7963 h 15.13287 v 11.54092 h -15.13287 Z  " stroke="none"/>
 </g>
 <g transform="translate(201.11166,-36.46333)">
 <g fill="#000">
 <text style="stroke:none" transform="scale(1,-1) translate(4.23346,0)" text-anchor="middle"  font-size="10"> 
<g fill="#000">
 <g stroke="none"> <tspan font-family="cmmi" font-size="9">e</tspan><tspan dy="3"><tspan font-family="cmr" font-size="6">1</tspan> </tspan> </g> </g>
 </text> 
</g>
 </g>
 </g>
 </g>
 </g>
 </g>
 <g transform="translate(221.40744,-29.96735)">
 <g fill="#000">
 <text style="stroke:none" transform="scale(1,-1) translate(5.22919,0)" text-anchor="middle"  font-size="10"> 
<g fill="#000">
 <g stroke="none"> <tspan font-family="cmmi" font-size="10">f</tspan><tspan dy="3"><tspan font-family="cmr" font-size="7">1</tspan></tspan></g> </g>
 </text> 
</g>
 </g>
 <g stroke-linejoin="round">
 <g stroke="#000">
 <g fill="#ff6">
 <path d=" M 199.16928 0.0 L 269.22096 -12.35168 L 234.7352 61.60216 Z  " />
 <g fill="#ccf">
 <g fill="#ccf">
 <path d=" M 226.62868 -11.9463 h 15.13287 v 11.54092 h -15.13287 Z  " stroke="none"/>
 </g>
 <g transform="translate(229.96165,-7.61334)">
 <g fill="#000">
 <text style="stroke:none" transform="scale(1,-1) translate(4.23346,0)" text-anchor="middle"  font-size="10"> 
<g fill="#000">
 <g stroke="none"> <tspan font-family="cmmi" font-size="9">e</tspan><tspan dy="3"><tspan font-family="cmr" font-size="6">2</tspan> </tspan> </g> </g>
 </text> 
</g>
 </g>
 </g>
 </g>
 </g>
 </g>
 <g transform="translate(229.1454,13.91658)">
 <g fill="#000">
 <text style="stroke:none" transform="scale(1,-1) translate(5.22919,0)" text-anchor="middle"  font-size="10"> 
<g fill="#000">
 <g stroke="none"> <tspan font-family="cmmi" font-size="10">f</tspan><tspan dy="3"><tspan font-family="cmr" font-size="7">2</tspan></tspan></g> </g>
 </text> 
</g>
 </g>
 <g stroke-linejoin="round">
 <g stroke="#000">
 <g fill="#ff6">
 <path d=" M 199.16928 0.0 L 234.7352 61.60216 L 153.44632 54.48941 Z  " />
 <g fill="#ccf">
 <g fill="#ccf">
 <path d=" M 209.3858 25.03061 h 15.13287 v 11.54092 h -15.13287 Z  " stroke="none"/>
 </g>
 <g transform="translate(212.71878,29.36357)">
 <g fill="#000">
 <text style="stroke:none" transform="scale(1,-1) translate(4.23346,0)" text-anchor="middle"  font-size="10"> 
<g fill="#000">
 <g stroke="none"> <tspan font-family="cmmi" font-size="9">e</tspan><tspan dy="3"><tspan font-family="cmr" font-size="6">3</tspan> </tspan> </g> </g>
 </text> 
</g>
 </g>
 </g>
 </g>
 </g>
 </g>
 <g transform="translate(190.55446,36.1966)">
 <g fill="#000">
 <text style="stroke:none" transform="scale(1,-1) translate(5.22919,0)" text-anchor="middle"  font-size="10"> 
<g fill="#000">
 <g stroke="none"> <tspan font-family="cmmi" font-size="10">f</tspan><tspan dy="3"><tspan font-family="cmr" font-size="7">3</tspan></tspan></g> </g>
 </text> 
</g>
 </g>
 <g fill="#ccf">
 <g fill="#ccf">
 <path d=" M 168.74136 21.47424 h 15.13287 v 11.54092 h -15.13287 Z  " stroke="none"/>
 </g>
 <g transform="translate(172.07434,25.8072)">
 <g fill="#000">
 <text style="stroke:none" transform="scale(1,-1) translate(4.23346,0)" text-anchor="middle"  font-size="10"> 
<g fill="#000">
 <g stroke="none"> <tspan font-family="cmmi" font-size="9">e</tspan><tspan dy="3"><tspan font-family="cmr" font-size="6">4</tspan> </tspan> </g> </g>
 </text> 
</g>
 </g>
 </g>
 <g fill="#00f">
 <g fill="#00f">
 <path d=" M 201.16928 0.0 C 201.16928 1.10458 200.27386 2.0 199.16928 2.0 C 198.0647 2.0 197.16928 1.10458 197.16928 0.0 C 197.16928 -1.10458 198.0647 -2.0 199.16928 -2.0 C 200.27386 -2.0 201.16928 -1.10458 201.16928 0.0 Z M 199.16928 0.0  " stroke="none"/>
 </g>
 <g transform="translate(199.16928,0.0)">
 <g fill="#000">
 <text style="stroke:none" transform="scale(1,-1) translate(0.0,0)" text-anchor="middle"  font-size="10"> 
<g fill="#000">
 <g stroke="none"> </g> </g>
 </text> 
</g>
 </g>
 </g>
 <g stroke="#00f" fill="#00f">
 <g stroke="#00f" fill="#00f">
 </g>
 <g transform="translate(187.58076,-10.36629)">
 <g fill="#00f">
 <text style="stroke:none" transform="scale(1,-1) translate(4.02777,0)" text-anchor="middle"  font-size="10"> 
<g fill="#00f">
 <g stroke="none"> <tspan font-family="cmmi" font-size="10">V </tspan> </g> </g>
 </text> 
</g>
 </g>
 </g>
 </g>
 </g>
 
                                                                </g> 
</svg> 
