<?xml version="1.0" encoding="iso-8859-1" standalone="no"?> 
<?xml-stylesheet href="_Wrapper_paths-15.css" type="text/css"?> 
<svg xmlns="http://www.w3.org/2000/svg" xmlns:xlink="http://www.w3.org/1999/xlink" width="160.30472pt" height="100.59805pt" viewBox="-80.15236 -30.38219 160.30472 100.59805 "> 
<g transform="translate(0,70.21587 ) scale(1,-1) translate(0,30.38219 )"> 
               <g stroke="#000" fill="#000">
 <g stroke-width="0.4">
 <g fill="#ff6">
 <g stroke-linejoin="round">
 <g stroke="#000">
 <path d=" M 0.0 0.0 L -45.52454 -17.07181 L -68.2864 28.45273 Z M 0.0 0.0 L -68.2864 28.45273 L -28.45273 56.90549 Z  " />
 </g>
 </g>
 </g>
 <g fill="#ff6">
 <g stroke-linejoin="round">
 <g stroke="#000">
 <path d=" M 0.0 0.0 L 28.45273 56.90549 L 68.2864 28.45273 Z M 0.0 0.0 L 68.2864 28.45273 L 45.52454 -17.07181 Z  " />
 </g>
 </g>
 </g>
 <g fill="#00f">
 <g fill="#00f">
 <path d=" M 2.0 0.0 C 2.0 1.10458 1.10458 2.0 0.0 2.0 C -1.10458 2.0 -2.0 1.10458 -2.0 0.0 C -2.0 -1.10458 -1.10458 -2.0 0.0 -2.0 C 1.10458 -2.0 2.0 -1.10458 2.0 0.0 Z M 0.0 0.0  " stroke="none"/>
 </g>
 <g fill="#000">
 <text style="stroke:none" transform="scale(1,-1) translate(0.0,0)" text-anchor="middle"  font-size="10"> 
<g fill="#000">
 <g stroke="none"> </g> </g>
 </text> 
</g>
 </g>
 <g stroke="#00f" fill="#00f">
 <g stroke="#00f" fill="#00f">
 </g>
 <g transform="translate(-2.5,-9.9774)">
 <g fill="#00f">
 <text style="stroke:none" transform="scale(1,-1) translate(2.5,0)" text-anchor="middle"  font-size="10"> 
<g fill="#00f">
 <g stroke="none"> 1</g> </g>
 </text> 
</g>
 </g>
 </g>
 <g fill="#00f">
 <g fill="#00f">
 <path d=" M -26.45273 56.90549 C -26.45273 58.01007 -27.34814 58.90549 -28.45273 58.90549 C -29.55731 58.90549 -30.45273 58.01007 -30.45273 56.90549 C -30.45273 55.8009 -29.55731 54.90549 -28.45273 54.90549 C -27.34814 54.90549 -26.45273 55.8009 -26.45273 56.90549 Z M -28.45273 56.90549  " stroke="none"/>
 </g>
 <g transform="translate(-28.45273,56.90549)">
 <g fill="#000">
 <text style="stroke:none" transform="scale(1,-1) translate(0.0,0)" text-anchor="middle"  font-size="10"> 
<g fill="#000">
 <g stroke="none"> </g> </g>
 </text> 
</g>
 </g>
 </g>
 <g stroke="#00f" fill="#00f">
 <g stroke="#00f" fill="#00f">
 </g>
 <g transform="translate(-30.95273,60.43846)">
 <g fill="#00f">
 <text style="stroke:none" transform="scale(1,-1) translate(2.5,0)" text-anchor="middle"  font-size="10"> 
<g fill="#00f">
 <g stroke="none"> 2</g> </g>
 </text> 
</g>
 </g>
 </g>
 <g fill="#00f">
 <g fill="#00f">
 <path d=" M -66.2864 28.45273 C -66.2864 29.55731 -67.18182 30.45273 -68.2864 30.45273 C -69.39099 30.45273 -70.2864 29.55731 -70.2864 28.45273 C -70.2864 27.34814 -69.39099 26.45273 -68.2864 26.45273 C -67.18182 26.45273 -66.2864 27.34814 -66.2864 28.45273 Z M -68.2864 28.45273  " stroke="none"/>
 </g>
 <g transform="translate(-68.2864,28.45273)">
 <g fill="#000">
 <text style="stroke:none" transform="scale(1,-1) translate(0.0,0)" text-anchor="middle"  font-size="10"> 
<g fill="#000">
 <g stroke="none"> </g> </g>
 </text> 
</g>
 </g>
 </g>
 <g stroke="#00f" fill="#00f">
 <g stroke="#00f" fill="#00f">
 </g>
 <g transform="translate(-76.81938,25.23051)">
 <g fill="#00f">
 <text style="stroke:none" transform="scale(1,-1) translate(2.5,0)" text-anchor="middle"  font-size="10"> 
<g fill="#00f">
 <g stroke="none"> 3</g> </g>
 </text> 
</g>
 </g>
 </g>
 <g fill="#00f">
 <g fill="#00f">
 <path d=" M -43.52454 -17.07181 C -43.52454 -15.96722 -44.41995 -15.07181 -45.52454 -15.07181 C -46.62912 -15.07181 -47.52454 -15.96722 -47.52454 -17.07181 C -47.52454 -18.17639 -46.62912 -19.07181 -45.52454 -19.07181 C -44.41995 -19.07181 -43.52454 -18.17639 -43.52454 -17.07181 Z M -45.52454 -17.07181  " stroke="none"/>
 </g>
 <g transform="translate(-45.52454,-17.07181)">
 <g fill="#000">
 <text style="stroke:none" transform="scale(1,-1) translate(0.0,0)" text-anchor="middle"  font-size="10"> 
<g fill="#000">
 <g stroke="none"> </g> </g>
 </text> 
</g>
 </g>
 </g>
 <g stroke="#00f" fill="#00f">
 <g stroke="#00f" fill="#00f">
 </g>
 <g transform="translate(-48.02454,-27.04921)">
 <g fill="#00f">
 <text style="stroke:none" transform="scale(1,-1) translate(2.5,0)" text-anchor="middle"  font-size="10"> 
<g fill="#00f">
 <g stroke="none"> 4</g> </g>
 </text> 
</g>
 </g>
 </g>
 <g fill="#00f">
 <g fill="#00f">
 <path d=" M 47.52454 -17.07181 C 47.52454 -15.96722 46.62912 -15.07181 45.52454 -15.07181 C 44.41995 -15.07181 43.52454 -15.96722 43.52454 -17.07181 C 43.52454 -18.17639 44.41995 -19.07181 45.52454 -19.07181 C 46.62912 -19.07181 47.52454 -18.17639 47.52454 -17.07181 Z M 45.52454 -17.07181  " stroke="none"/>
 </g>
 <g transform="translate(45.52454,-17.07181)">
 <g fill="#000">
 <text style="stroke:none" transform="scale(1,-1) translate(0.0,0)" text-anchor="middle"  font-size="10"> 
<g fill="#000">
 <g stroke="none"> </g> </g>
 </text> 
</g>
 </g>
 </g>
 <g stroke="#00f" fill="#00f">
 <g stroke="#00f" fill="#00f">
 </g>
 <g transform="translate(43.02454,-27.04921)">
 <g fill="#00f">
 <text style="stroke:none" transform="scale(1,-1) translate(2.5,0)" text-anchor="middle"  font-size="10"> 
<g fill="#00f">
 <g stroke="none"> 5</g> </g>
 </text> 
</g>
 </g>
 </g>
 <g fill="#00f">
 <g fill="#00f">
 <path d=" M 70.2864 28.45273 C 70.2864 29.55731 69.39099 30.45273 68.2864 30.45273 C 67.18182 30.45273 66.2864 29.55731 66.2864 28.45273 C 66.2864 27.34814 67.18182 26.45273 68.2864 26.45273 C 69.39099 26.45273 70.2864 27.34814 70.2864 28.45273 Z M 68.2864 28.45273  " stroke="none"/>
 </g>
 <g transform="translate(68.2864,28.45273)">
 <g fill="#000">
 <text style="stroke:none" transform="scale(1,-1) translate(0.0,0)" text-anchor="middle"  font-size="10"> 
<g fill="#000">
 <g stroke="none"> </g> </g>
 </text> 
</g>
 </g>
 </g>
 <g stroke="#00f" fill="#00f">
 <g stroke="#00f" fill="#00f">
 </g>
 <g transform="translate(71.81938,25.23051)">
 <g fill="#00f">
 <text style="stroke:none" transform="scale(1,-1) translate(2.5,0)" text-anchor="middle"  font-size="10"> 
<g fill="#00f">
 <g stroke="none"> 6</g> </g>
 </text> 
</g>
 </g>
 </g>
 <g fill="#00f">
 <g fill="#00f">
 <path d=" M 30.45273 56.90549 C 30.45273 58.01007 29.55731 58.90549 28.45273 58.90549 C 27.34814 58.90549 26.45273 58.01007 26.45273 56.90549 C 26.45273 55.8009 27.34814 54.90549 28.45273 54.90549 C 29.55731 54.90549 30.45273 55.8009 30.45273 56.90549 Z M 28.45273 56.90549  " stroke="none"/>
 </g>
 <g transform="translate(28.45273,56.90549)">
 <g fill="#000">
 <text style="stroke:none" transform="scale(1,-1) translate(0.0,0)" text-anchor="middle"  font-size="10"> 
<g fill="#000">
 <g stroke="none"> </g> </g>
 </text> 
</g>
 </g>
 </g>
 <g stroke="#00f" fill="#00f">
 <g stroke="#00f" fill="#00f">
 </g>
 <g transform="translate(25.95273,60.43846)">
 <g fill="#00f">
 <text style="stroke:none" transform="scale(1,-1) translate(2.5,0)" text-anchor="middle"  font-size="10"> 
<g fill="#00f">
 <g stroke="none"> 7</g> </g>
 </text> 
</g>
 </g>
 </g>
 <g transform="translate(-43.63086,0.37692)">
 <g fill="#000">
 <text style="stroke:none" transform="scale(1,-1) translate(5.69446,0)" text-anchor="middle"  font-size="10"> 
<g fill="#000">
 <g stroke="none"> III</g> </g>
 </text> 
</g>
 </g>
 <g transform="translate(-34.05144,25.03564)">
 <g fill="#000">
 <text style="stroke:none" transform="scale(1,-1) translate(1.80556,0)" text-anchor="middle"  font-size="10"> 
<g fill="#000">
 <g stroke="none"> I </g> </g>
 </text> 
</g>
 </g>
 <g transform="translate(32.38084,0.37692)">
 <g fill="#000">
 <text style="stroke:none" transform="scale(1,-1) translate(5.55556,0)" text-anchor="middle"  font-size="10"> 
<g fill="#000">
 <g stroke="none"> IV </g> </g>
 </text> 
</g>
 </g>
 <g transform="translate(28.49588,25.03564)">
 <g fill="#000">
 <text style="stroke:none" transform="scale(1,-1) translate(3.75,0)" text-anchor="middle"  font-size="10"> 
<g fill="#000">
 <g stroke="none"> II </g> </g>
 </text> 
</g>
 </g>
 </g>
 </g>
 
                               </g> 
</svg> 
