<?xml version="1.0" encoding="UTF-8"?>
<svg xmlns="http://www.w3.org/2000/svg" xmlns:xlink="http://www.w3.org/1999/xlink" width="165.375pt" height="149.265pt" viewBox="0 0 165.375 149.265" version="1.2">
<defs>
<g>
<symbol overflow="visible" id="glyph0-0">
<path style="stroke:none;" d=""/>
</symbol>
<symbol overflow="visible" id="glyph0-1">
<path style="stroke:none;" d="M 2.71875 -3.140625 C 3.546875 -3.453125 3.9375 -4.109375 3.9375 -4.71875 C 3.9375 -5.40625 3.1875 -5.9375 2.25 -5.9375 C 1.328125 -5.9375 0.640625 -5.421875 0.640625 -4.734375 C 0.640625 -4.4375 0.828125 -4.28125 1.09375 -4.28125 C 1.34375 -4.28125 1.53125 -4.453125 1.53125 -4.71875 C 1.53125 -5.03125 1.328125 -5.171875 1.015625 -5.171875 C 1.25 -5.546875 1.796875 -5.71875 2.234375 -5.71875 C 2.96875 -5.71875 3.109375 -5.125 3.109375 -4.703125 C 3.109375 -4.4375 3.0625 -4.015625 2.84375 -3.671875 C 2.5625 -3.28125 2.25 -3.25 1.984375 -3.234375 C 1.765625 -3.21875 1.75 -3.21875 1.671875 -3.21875 C 1.59375 -3.21875 1.53125 -3.203125 1.53125 -3.109375 C 1.53125 -2.984375 1.59375 -2.984375 1.75 -2.984375 L 2.171875 -2.984375 C 2.9375 -2.984375 3.28125 -2.359375 3.28125 -1.515625 C 3.28125 -0.375 2.671875 -0.046875 2.21875 -0.046875 C 2.046875 -0.046875 1.1875 -0.09375 0.78125 -0.765625 C 1.109375 -0.71875 1.359375 -0.9375 1.359375 -1.234375 C 1.359375 -1.53125 1.140625 -1.71875 0.875 -1.71875 C 0.65625 -1.71875 0.390625 -1.59375 0.390625 -1.21875 C 0.390625 -0.421875 1.21875 0.203125 2.25 0.203125 C 3.359375 0.203125 4.1875 -0.609375 4.1875 -1.515625 C 4.1875 -2.296875 3.578125 -2.953125 2.71875 -3.140625 Z M 2.71875 -3.140625 "/>
</symbol>
<symbol overflow="visible" id="glyph0-2">
<path style="stroke:none;" d="M 0.921875 -3.078125 C 0.921875 -2.921875 0.921875 -2.8125 1.046875 -2.8125 C 1.125 -2.8125 1.15625 -2.859375 1.203125 -2.9375 C 1.46875 -3.3125 1.90625 -3.53125 2.359375 -3.53125 C 3.3125 -3.53125 3.3125 -2.15625 3.3125 -1.828125 C 3.3125 -1.546875 3.3125 -1 3.0625 -0.59375 C 2.828125 -0.21875 2.453125 -0.046875 2.109375 -0.046875 C 1.578125 -0.046875 0.984375 -0.390625 0.765625 -1.046875 C 0.78125 -1.046875 0.828125 -1.03125 0.890625 -1.03125 C 1.078125 -1.03125 1.328125 -1.140625 1.328125 -1.46875 C 1.328125 -1.734375 1.140625 -1.90625 0.890625 -1.90625 C 0.703125 -1.90625 0.453125 -1.796875 0.453125 -1.4375 C 0.453125 -0.625 1.140625 0.203125 2.125 0.203125 C 3.203125 0.203125 4.125 -0.671875 4.125 -1.78125 C 4.125 -2.859375 3.359375 -3.75 2.375 -3.75 C 1.953125 -3.75 1.515625 -3.609375 1.203125 -3.28125 L 1.203125 -5.046875 C 1.46875 -4.953125 1.75 -4.921875 2.03125 -4.921875 C 3.125 -4.921875 3.765625 -5.703125 3.765625 -5.828125 C 3.765625 -5.90625 3.71875 -5.9375 3.671875 -5.9375 C 3.65625 -5.9375 3.625 -5.9375 3.546875 -5.890625 C 3.125 -5.734375 2.71875 -5.65625 2.34375 -5.65625 C 1.96875 -5.65625 1.5625 -5.734375 1.15625 -5.890625 C 1.0625 -5.9375 1.046875 -5.9375 1.03125 -5.9375 C 0.921875 -5.9375 0.921875 -5.859375 0.921875 -5.703125 Z M 0.921875 -3.078125 "/>
</symbol>
<symbol overflow="visible" id="glyph0-3">
<path style="stroke:none;" d="M 1.203125 -2.953125 C 1.203125 -3.859375 1.296875 -4.375 1.53125 -4.828125 C 1.71875 -5.203125 2.15625 -5.71875 2.8125 -5.71875 C 2.984375 -5.71875 3.40625 -5.6875 3.609375 -5.359375 C 3.28125 -5.359375 3.125 -5.1875 3.125 -4.953125 C 3.125 -4.71875 3.296875 -4.546875 3.546875 -4.546875 C 3.796875 -4.546875 3.96875 -4.703125 3.96875 -4.96875 C 3.96875 -5.46875 3.609375 -5.9375 2.796875 -5.9375 C 1.640625 -5.9375 0.390625 -4.8125 0.390625 -2.8125 C 0.390625 -0.40625 1.46875 0.203125 2.3125 0.203125 C 3.296875 0.203125 4.1875 -0.640625 4.1875 -1.8125 C 4.1875 -2.9375 3.375 -3.796875 2.359375 -3.796875 C 1.828125 -3.796875 1.453125 -3.484375 1.203125 -2.953125 Z M 2.296875 -0.046875 C 1.796875 -0.046875 1.5 -0.46875 1.390625 -0.734375 C 1.21875 -1.140625 1.21875 -1.875 1.21875 -2.015625 C 1.21875 -2.609375 1.484375 -3.578125 2.34375 -3.578125 C 2.484375 -3.578125 2.921875 -3.578125 3.21875 -3.03125 C 3.375 -2.6875 3.375 -2.25 3.375 -1.8125 C 3.375 -1.390625 3.375 -0.953125 3.21875 -0.625 C 2.9375 -0.109375 2.546875 -0.046875 2.296875 -0.046875 Z M 2.296875 -0.046875 "/>
</symbol>
<symbol overflow="visible" id="glyph0-4">
<path style="stroke:none;" d="M 2.71875 -5.703125 C 2.71875 -5.921875 2.703125 -5.9375 2.484375 -5.9375 C 1.921875 -5.375 1.109375 -5.375 0.828125 -5.375 L 0.828125 -5.09375 C 1 -5.09375 1.546875 -5.09375 2.03125 -5.328125 L 2.03125 -0.71875 C 2.03125 -0.390625 2 -0.28125 1.171875 -0.28125 L 0.890625 -0.28125 L 0.890625 0 C 1.203125 -0.03125 2 -0.03125 2.359375 -0.03125 C 2.734375 -0.03125 3.53125 -0.03125 3.859375 0 L 3.859375 -0.28125 L 3.5625 -0.28125 C 2.734375 -0.28125 2.71875 -0.390625 2.71875 -0.71875 Z M 2.71875 -5.703125 "/>
</symbol>
<symbol overflow="visible" id="glyph0-5">
<path style="stroke:none;" d="M 0.265625 -1.75 L 0.265625 -1.46875 L 2.6875 -1.46875 L 2.6875 -0.703125 C 2.6875 -0.375 2.671875 -0.28125 2 -0.28125 L 1.796875 -0.28125 L 1.796875 0 C 2.359375 -0.03125 2.984375 -0.03125 3.046875 -0.03125 C 3.09375 -0.03125 3.734375 -0.03125 4.296875 0 L 4.296875 -0.28125 L 4.109375 -0.28125 C 3.4375 -0.28125 3.40625 -0.375 3.40625 -0.703125 L 3.40625 -1.46875 L 4.3125 -1.46875 L 4.3125 -1.75 L 3.40625 -1.75 L 3.40625 -5.796875 C 3.40625 -5.984375 3.40625 -6.046875 3.234375 -6.046875 C 3.125 -6.046875 3.125 -6.03125 3.046875 -5.90625 Z M 0.546875 -1.75 L 2.75 -5.046875 L 2.75 -1.75 Z M 0.546875 -1.75 "/>
</symbol>
<symbol overflow="visible" id="glyph0-6">
<path style="stroke:none;" d="M 4.125 -1.578125 L 3.875 -1.578125 C 3.859375 -1.46875 3.78125 -0.9375 3.671875 -0.796875 C 3.609375 -0.71875 3 -0.71875 2.8125 -0.71875 L 1.234375 -0.71875 L 2.109375 -1.546875 C 3.578125 -2.8125 4.125 -3.296875 4.125 -4.203125 C 4.125 -5.234375 3.28125 -5.9375 2.171875 -5.9375 C 1.15625 -5.9375 0.453125 -5.125 0.453125 -4.3125 C 0.453125 -3.875 0.84375 -3.828125 0.921875 -3.828125 C 1.109375 -3.828125 1.390625 -3.96875 1.390625 -4.296875 C 1.390625 -4.5625 1.203125 -4.75 0.921875 -4.75 C 0.875 -4.75 0.84375 -4.75 0.8125 -4.75 C 1.03125 -5.375 1.59375 -5.671875 2.078125 -5.671875 C 2.984375 -5.671875 3.296875 -4.8125 3.296875 -4.203125 C 3.296875 -3.296875 2.609375 -2.546875 2.1875 -2.09375 L 0.546875 -0.328125 C 0.453125 -0.21875 0.453125 -0.203125 0.453125 0 L 3.875 0 Z M 4.125 -1.578125 "/>
</symbol>
<symbol overflow="visible" id="glyph1-0">
<path style="stroke:none;" d=""/>
</symbol>
<symbol overflow="visible" id="glyph1-1">
<path style="stroke:none;" d="M 1.265625 -0.765625 L 2.3125 -1.78125 C 3.859375 -3.15625 4.453125 -3.6875 4.453125 -4.671875 C 4.453125 -5.8125 3.5625 -6.59375 2.34375 -6.59375 C 1.234375 -6.59375 0.5 -5.6875 0.5 -4.796875 C 0.5 -4.25 0.984375 -4.25 1.015625 -4.25 C 1.1875 -4.25 1.53125 -4.375 1.53125 -4.78125 C 1.53125 -5.03125 1.359375 -5.296875 1.015625 -5.296875 C 0.9375 -5.296875 0.90625 -5.296875 0.875 -5.28125 C 1.109375 -5.921875 1.640625 -6.296875 2.21875 -6.296875 C 3.125 -6.296875 3.546875 -5.484375 3.546875 -4.671875 C 3.546875 -3.890625 3.046875 -3.09375 2.5 -2.484375 L 0.609375 -0.359375 C 0.5 -0.25 0.5 -0.234375 0.5 0 L 4.171875 0 L 4.453125 -1.71875 L 4.203125 -1.71875 C 4.15625 -1.421875 4.078125 -0.984375 3.984375 -0.84375 C 3.90625 -0.765625 3.265625 -0.765625 3.046875 -0.765625 Z M 1.265625 -0.765625 "/>
</symbol>
<symbol overflow="visible" id="glyph1-2">
<path style="stroke:none;" d="M 2.90625 -6.34375 C 2.90625 -6.578125 2.90625 -6.59375 2.6875 -6.59375 C 2.078125 -5.96875 1.203125 -5.96875 0.875 -5.96875 L 0.875 -5.65625 C 1.078125 -5.65625 1.671875 -5.65625 2.171875 -5.90625 L 2.171875 -0.78125 C 2.171875 -0.421875 2.15625 -0.3125 1.265625 -0.3125 L 0.9375 -0.3125 L 0.9375 0 C 1.28125 -0.03125 2.15625 -0.03125 2.546875 -0.03125 C 2.9375 -0.03125 3.796875 -0.03125 4.15625 0 L 4.15625 -0.3125 L 3.828125 -0.3125 C 2.9375 -0.3125 2.90625 -0.421875 2.90625 -0.78125 Z M 2.90625 -6.34375 "/>
</symbol>
<symbol overflow="visible" id="glyph1-3">
<path style="stroke:none;" d="M 2.90625 -1.640625 L 2.90625 -0.765625 C 2.90625 -0.421875 2.890625 -0.3125 2.15625 -0.3125 L 1.953125 -0.3125 L 1.953125 0 C 2.359375 -0.03125 2.875 -0.03125 3.28125 -0.03125 C 3.703125 -0.03125 4.234375 -0.03125 4.640625 0 L 4.640625 -0.3125 L 4.421875 -0.3125 C 3.6875 -0.3125 3.671875 -0.421875 3.671875 -0.765625 L 3.671875 -1.640625 L 4.671875 -1.640625 L 4.671875 -1.9375 L 3.671875 -1.9375 L 3.671875 -6.453125 C 3.671875 -6.640625 3.671875 -6.703125 3.515625 -6.703125 C 3.421875 -6.703125 3.390625 -6.703125 3.3125 -6.59375 L 0.28125 -1.9375 L 0.28125 -1.640625 Z M 2.96875 -1.9375 L 0.5625 -1.9375 L 2.96875 -5.640625 Z M 2.96875 -1.9375 "/>
</symbol>
<symbol overflow="visible" id="glyph1-4">
<path style="stroke:none;" d="M 2.875 -3.484375 C 3.6875 -3.75 4.265625 -4.453125 4.265625 -5.234375 C 4.265625 -6.046875 3.390625 -6.59375 2.4375 -6.59375 C 1.4375 -6.59375 0.6875 -6 0.6875 -5.25 C 0.6875 -4.921875 0.90625 -4.734375 1.1875 -4.734375 C 1.5 -4.734375 1.6875 -4.953125 1.6875 -5.234375 C 1.6875 -5.734375 1.234375 -5.734375 1.078125 -5.734375 C 1.390625 -6.21875 2.046875 -6.34375 2.390625 -6.34375 C 2.796875 -6.34375 3.34375 -6.125 3.34375 -5.234375 C 3.34375 -5.125 3.328125 -4.546875 3.078125 -4.109375 C 2.78125 -3.640625 2.4375 -3.609375 2.1875 -3.59375 C 2.109375 -3.59375 1.875 -3.5625 1.796875 -3.5625 C 1.71875 -3.5625 1.65625 -3.546875 1.65625 -3.453125 C 1.65625 -3.34375 1.71875 -3.34375 1.890625 -3.34375 L 2.328125 -3.34375 C 3.140625 -3.34375 3.5 -2.671875 3.5 -1.6875 C 3.5 -0.34375 2.828125 -0.0625 2.390625 -0.0625 C 1.96875 -0.0625 1.21875 -0.234375 0.875 -0.8125 C 1.21875 -0.765625 1.53125 -0.984375 1.53125 -1.359375 C 1.53125 -1.71875 1.265625 -1.90625 0.96875 -1.90625 C 0.734375 -1.90625 0.421875 -1.765625 0.421875 -1.34375 C 0.421875 -0.4375 1.34375 0.21875 2.421875 0.21875 C 3.625 0.21875 4.53125 -0.6875 4.53125 -1.6875 C 4.53125 -2.5 3.90625 -3.28125 2.875 -3.484375 Z M 2.875 -3.484375 "/>
</symbol>
</g>
</defs>
<g id="surface1">
<path style="fill-rule:nonzero;fill:rgb(100%,96.939087%,40.000916%);fill-opacity:1;stroke-width:0.3985;stroke-linecap:butt;stroke-linejoin:round;stroke:rgb(0%,0%,0%);stroke-opacity:1;stroke-miterlimit:10;" d="M 0.00188669 0.00165099 L 70.868665 0.00165099 L 35.433313 61.372682 L 0.00188669 0.00165099 M 0.00188669 0.00165099 L -70.868817 0.00165099 L -35.433465 61.372682 L 0.00188669 0.00165099 M 35.433313 61.372682 L 0.00188669 122.743712 L -35.433465 61.372682 L 35.433313 61.372682 M 0.00188669 0.00165099 L 35.433313 61.372682 L -35.433465 61.372682 L 0.00188669 0.00165099 " transform="matrix(0.9951,0,0,-0.9951,82.377029,135.33758)"/>
<path style=" stroke:none;fill-rule:nonzero;fill:rgb(79.998779%,79.998779%,100%);fill-opacity:1;" d="M 112.039062 141.515625 L 123.234375 141.515625 L 123.234375 129.160156 L 112.039062 129.160156 Z M 112.039062 141.515625 "/>
<g style="fill:rgb(0%,0%,0%);fill-opacity:1;">
  <use xlink:href="#glyph0-1" x="115.343697" y="138.212424"/>
</g>
<path style=" stroke:none;fill-rule:nonzero;fill:rgb(79.998779%,79.998779%,100%);fill-opacity:1;" d="M 129.671875 110.980469 L 140.863281 110.980469 L 140.863281 98.621094 L 129.671875 98.621094 Z M 129.671875 110.980469 "/>
<g style="fill:rgb(0%,0%,0%);fill-opacity:1;">
  <use xlink:href="#glyph0-2" x="132.972888" y="107.676786"/>
</g>
<path style=" stroke:none;fill-rule:nonzero;fill:rgb(79.998779%,79.998779%,100%);fill-opacity:1;" d="M 41.519531 141.515625 L 52.714844 141.515625 L 52.714844 129.160156 L 41.519531 129.160156 Z M 41.519531 141.515625 "/>
<g style="fill:rgb(0%,0%,0%);fill-opacity:1;">
  <use xlink:href="#glyph0-1" x="44.82494" y="138.212424"/>
</g>
<path style=" stroke:none;fill-rule:nonzero;fill:rgb(79.998779%,79.998779%,100%);fill-opacity:1;" d="M 23.890625 110.980469 L 35.085938 110.980469 L 35.085938 98.621094 L 23.890625 98.621094 Z M 23.890625 110.980469 "/>
<g style="fill:rgb(0%,0%,0%);fill-opacity:1;">
  <use xlink:href="#glyph0-3" x="27.194753" y="107.676786"/>
</g>
<path style=" stroke:none;fill-rule:nonzero;fill:rgb(79.998779%,79.998779%,100%);fill-opacity:1;" d="M 94.410156 49.910156 L 105.605469 49.910156 L 105.605469 37.550781 L 94.410156 37.550781 Z M 94.410156 49.910156 "/>
<g style="fill:rgb(0%,0%,0%);fill-opacity:1;">
  <use xlink:href="#glyph0-2" x="97.71351" y="46.605508"/>
</g>
<path style=" stroke:none;fill-rule:nonzero;fill:rgb(79.998779%,79.998779%,100%);fill-opacity:1;" d="M 59.148438 49.910156 L 70.34375 49.910156 L 70.34375 37.550781 L 59.148438 37.550781 Z M 59.148438 49.910156 "/>
<g style="fill:rgb(0%,0%,0%);fill-opacity:1;">
  <use xlink:href="#glyph0-3" x="62.454132" y="46.605508"/>
</g>
<path style=" stroke:none;fill-rule:nonzero;fill:rgb(79.998779%,79.998779%,100%);fill-opacity:1;" d="M 94.410156 110.980469 L 105.605469 110.980469 L 105.605469 98.621094 L 94.410156 98.621094 Z M 94.410156 110.980469 "/>
<g style="fill:rgb(0%,0%,0%);fill-opacity:1;">
  <use xlink:href="#glyph0-4" x="97.71351" y="107.676786"/>
</g>
<path style=" stroke:none;fill-rule:nonzero;fill:rgb(79.998779%,79.998779%,100%);fill-opacity:1;" d="M 76.78125 80.445312 L 87.972656 80.445312 L 87.972656 68.085938 L 76.78125 68.085938 Z M 76.78125 80.445312 "/>
<g style="fill:rgb(0%,0%,0%);fill-opacity:1;">
  <use xlink:href="#glyph0-5" x="80.084318" y="77.141147"/>
</g>
<path style=" stroke:none;fill-rule:nonzero;fill:rgb(79.998779%,79.998779%,100%);fill-opacity:1;" d="M 59.148438 110.980469 L 70.34375 110.980469 L 70.34375 98.621094 L 59.148438 98.621094 Z M 59.148438 110.980469 "/>
<g style="fill:rgb(0%,0%,0%);fill-opacity:1;">
  <use xlink:href="#glyph0-6" x="62.454132" y="107.676786"/>
</g>
<g style="fill:rgb(0%,0%,0%);fill-opacity:1;">
  <use xlink:href="#glyph1-1" x="115.157613" y="118.175091"/>
</g>
<g style="fill:rgb(0%,0%,0%);fill-opacity:1;">
  <use xlink:href="#glyph1-2" x="79.898235" y="97.81833"/>
</g>
<g style="fill:rgb(0%,0%,0%);fill-opacity:1;">
  <use xlink:href="#glyph1-3" x="44.639851" y="118.175091"/>
</g>
<g style="fill:rgb(0%,0%,0%);fill-opacity:1;">
  <use xlink:href="#glyph1-4" x="79.898235" y="57.104809"/>
</g>
<path style=" stroke:none;fill-rule:nonzero;fill:rgb(0%,0%,100%);fill-opacity:1;" d="M 84.359375 135.335938 C 84.359375 134.242188 83.472656 133.355469 82.378906 133.355469 C 81.28125 133.355469 80.394531 134.242188 80.394531 135.335938 C 80.394531 136.433594 81.28125 137.320312 82.378906 137.320312 C 83.472656 137.320312 84.359375 136.433594 84.359375 135.335938 Z M 84.359375 135.335938 "/>
<g style="fill:rgb(0%,0%,100%);fill-opacity:1;">
  <use xlink:href="#glyph1-2" x="79.898235" y="145.228874"/>
</g>
<path style=" stroke:none;fill-rule:nonzero;fill:rgb(0%,0%,100%);fill-opacity:1;" d="M 154.878906 135.335938 C 154.878906 134.242188 153.992188 133.355469 152.898438 133.355469 C 151.800781 133.355469 150.914062 134.242188 150.914062 135.335938 C 150.914062 136.433594 151.800781 137.320312 152.898438 137.320312 C 153.992188 137.320312 154.878906 136.433594 154.878906 135.335938 Z M 154.878906 135.335938 "/>
<g style="fill:rgb(0%,0%,100%);fill-opacity:1;">
  <use xlink:href="#glyph1-3" x="156.398537" y="138.531851"/>
</g>
<path style=" stroke:none;fill-rule:nonzero;fill:rgb(0%,0%,100%);fill-opacity:1;" d="M 119.621094 74.265625 C 119.621094 73.171875 118.730469 72.28125 117.636719 72.28125 C 116.542969 72.28125 115.652344 73.171875 115.652344 74.265625 C 115.652344 75.359375 116.542969 76.25 117.636719 76.25 C 118.730469 76.25 119.621094 75.359375 119.621094 74.265625 Z M 119.621094 74.265625 "/>
<g style="fill:rgb(0%,0%,100%);fill-opacity:1;">
  <use xlink:href="#glyph1-1" x="121.139159" y="77.460574"/>
</g>
<path style=" stroke:none;fill-rule:nonzero;fill:rgb(0%,0%,100%);fill-opacity:1;" d="M 49.101562 74.265625 C 49.101562 73.171875 48.210938 72.28125 47.117188 72.28125 C 46.023438 72.28125 45.132812 73.171875 45.132812 74.265625 C 45.132812 75.359375 46.023438 76.25 47.117188 76.25 C 48.210938 76.25 49.101562 75.359375 49.101562 74.265625 Z M 49.101562 74.265625 "/>
<g style="fill:rgb(0%,0%,100%);fill-opacity:1;">
  <use xlink:href="#glyph1-4" x="38.658305" y="77.460574"/>
</g>
<path style=" stroke:none;fill-rule:nonzero;fill:rgb(0%,0%,100%);fill-opacity:1;" d="M 13.839844 135.335938 C 13.839844 134.242188 12.953125 133.355469 11.855469 133.355469 C 10.761719 133.355469 9.875 134.242188 9.875 135.335938 C 9.875 136.433594 10.761719 137.320312 11.855469 137.320312 C 12.953125 137.320312 13.839844 136.433594 13.839844 135.335938 Z M 13.839844 135.335938 "/>
<g style="fill:rgb(0%,0%,100%);fill-opacity:1;">
  <use xlink:href="#glyph1-3" x="3.398927" y="138.531851"/>
</g>
<path style=" stroke:none;fill-rule:nonzero;fill:rgb(0%,0%,100%);fill-opacity:1;" d="M 84.359375 13.195312 C 84.359375 12.097656 83.472656 11.210938 82.378906 11.210938 C 81.28125 11.210938 80.394531 12.097656 80.394531 13.195312 C 80.394531 14.289062 81.28125 15.175781 82.378906 15.175781 C 83.472656 15.175781 84.359375 14.289062 84.359375 13.195312 Z M 84.359375 13.195312 "/>
<g style="fill:rgb(0%,0%,100%);fill-opacity:1;">
  <use xlink:href="#glyph1-3" x="79.898235" y="9.692274"/>
</g>
</g>
</svg>
