<?xml version="1.0" encoding="UTF-8"?>
<svg xmlns="http://www.w3.org/2000/svg" xmlns:xlink="http://www.w3.org/1999/xlink" width="155.413pt" height="123.547pt" viewBox="0 0 155.413 123.547" version="1.2">
<g id="surface1">
<path style="fill-rule:nonzero;fill:rgb(100%,96.939087%,40.000916%);fill-opacity:1;stroke-width:0.3985;stroke-linecap:butt;stroke-linejoin:round;stroke:rgb(0%,0%,0%);stroke-opacity:1;stroke-miterlimit:10;" d="M 0.000887538 -0.00190901 L 0.000887538 85.040747 L -85.041769 -0.00190901 Z M 0.000887538 -0.00190901 " transform="matrix(0.996237,0,0,-0.996237,91.534272,91.541067)"/>
<path style="fill-rule:nonzero;fill:rgb(100%,96.939087%,40.000916%);fill-opacity:1;stroke-width:0.3985;stroke-linecap:butt;stroke-linejoin:round;stroke:rgb(0%,0%,0%);stroke-opacity:1;stroke-miterlimit:10;" d="M 0.000887538 -0.00190901 L 0.000887538 85.040747 L 56.694685 -28.346847 Z M 0.000887538 -0.00190901 L 0.000887538 85.040747 L -34.017743 -28.346847 Z M 0.000887538 -0.00190901 " transform="matrix(0.996237,0,0,-0.996237,91.534272,91.541067)"/>
<path style="fill:none;stroke-width:0.3985;stroke-linecap:butt;stroke-linejoin:round;stroke:rgb(0%,0%,0%);stroke-opacity:1;stroke-dasharray:2.98883,2.98883;stroke-miterlimit:10;" d="M 0.000887538 -0.00190901 L -85.041769 -0.00190901 " transform="matrix(0.996237,0,0,-0.996237,91.534272,91.541067)"/>
<path style="fill:none;stroke-width:0.3985;stroke-linecap:butt;stroke-linejoin:round;stroke:rgb(0%,0%,0%);stroke-opacity:1;stroke-miterlimit:10;" d="M 0.000887538 -0.00190901 L 0.000887538 85.040747 " transform="matrix(0.996237,0,0,-0.996237,91.534272,91.541067)"/>
<path style=" stroke:none;fill-rule:nonzero;fill:rgb(0%,0%,100%);fill-opacity:1;" d="M 150 119.78125 C 150 118.683594 149.109375 117.796875 148.015625 117.796875 C 146.917969 117.796875 146.03125 118.683594 146.03125 119.78125 C 146.03125 120.878906 146.917969 121.765625 148.015625 121.765625 C 149.109375 121.765625 150 120.878906 150 119.78125 Z M 150 119.78125 "/>
<path style=" stroke:none;fill-rule:nonzero;fill:rgb(0%,0%,100%);fill-opacity:1;" d="M 59.628906 119.78125 C 59.628906 118.683594 58.742188 117.796875 57.644531 117.796875 C 56.550781 117.796875 55.660156 118.683594 55.660156 119.78125 C 55.660156 120.878906 56.550781 121.765625 57.644531 121.765625 C 58.742188 121.765625 59.628906 120.878906 59.628906 119.78125 Z M 59.628906 119.78125 "/>
<path style=" stroke:none;fill-rule:nonzero;fill:rgb(0%,0%,100%);fill-opacity:1;" d="M 8.800781 91.542969 C 8.800781 90.445312 7.910156 89.554688 6.8125 89.554688 C 5.71875 89.554688 4.828125 90.445312 4.828125 91.542969 C 4.828125 92.636719 5.71875 93.527344 6.8125 93.527344 C 7.910156 93.527344 8.800781 92.636719 8.800781 91.542969 Z M 8.800781 91.542969 "/>
<path style=" stroke:none;fill-rule:nonzero;fill:rgb(100%,0%,0%);fill-opacity:1;" d="M 93.519531 91.542969 C 93.519531 90.445312 92.628906 89.554688 91.535156 89.554688 C 90.4375 89.554688 89.550781 90.445312 89.550781 91.542969 C 89.550781 92.636719 90.4375 93.527344 91.535156 93.527344 C 92.628906 93.527344 93.519531 92.636719 93.519531 91.542969 Z M 93.519531 91.542969 "/>
<path style=" stroke:none;fill-rule:nonzero;fill:rgb(100%,0%,0%);fill-opacity:1;" d="M 93.519531 6.820312 C 93.519531 5.722656 92.628906 4.835938 91.535156 4.835938 C 90.4375 4.835938 89.550781 5.722656 89.550781 6.820312 C 89.550781 7.917969 90.4375 8.804688 91.535156 8.804688 C 92.628906 8.804688 93.519531 7.917969 93.519531 6.820312 Z M 93.519531 6.820312 "/>
</g>
</svg>
