<?xml version="1.0" encoding="UTF-8"?>
<svg xmlns="http://www.w3.org/2000/svg" xmlns:xlink="http://www.w3.org/1999/xlink" width="183.759pt" height="155.413pt" viewBox="0 0 183.759 155.413" version="1.2">
<g id="surface1">
<path style="fill-rule:nonzero;fill:rgb(100%,96.939087%,40.000916%);fill-opacity:1;stroke-width:0.3985;stroke-linecap:butt;stroke-linejoin:round;stroke:rgb(0%,0%,0%);stroke-opacity:1;stroke-miterlimit:10;" d="M -85.040883 -0.0000902048 L 0.00177389 28.344848 L 85.040509 -0.0000902048 L 0.00177389 -28.345028 Z M -85.040883 -0.0000902048 L 0.00177389 -28.345028 L 0.00177389 -113.387685 Z M 0.00177389 -28.345028 L 0.00177389 -113.387685 L 85.040509 -0.0000902048 Z M 0.00177389 -28.345028 " transform="matrix(0.996237,0,0,-0.996237,91.759952,35.054598)"/>
<path style=" stroke:none;fill-rule:nonzero;fill:rgb(50%,50%,50%);fill-opacity:1;" d="M 8.03125 35.054688 C 8.03125 34.507812 7.585938 34.0625 7.039062 34.0625 C 6.492188 34.0625 6.046875 34.507812 6.046875 35.054688 C 6.046875 35.601562 6.492188 36.046875 7.039062 36.046875 C 7.585938 36.046875 8.03125 35.601562 8.03125 35.054688 Z M 8.03125 35.054688 "/>
<path style=" stroke:none;fill-rule:nonzero;fill:rgb(50%,50%,50%);fill-opacity:1;" d="M 92.753906 6.816406 C 92.753906 6.265625 92.308594 5.820312 91.761719 5.820312 C 91.210938 5.820312 90.765625 6.265625 90.765625 6.816406 C 90.765625 7.363281 91.210938 7.808594 91.761719 7.808594 C 92.308594 7.808594 92.753906 7.363281 92.753906 6.816406 Z M 92.753906 6.816406 "/>
<path style=" stroke:none;fill-rule:nonzero;fill:rgb(50%,50%,50%);fill-opacity:1;" d="M 177.472656 35.054688 C 177.472656 34.507812 177.027344 34.0625 176.480469 34.0625 C 175.933594 34.0625 175.488281 34.507812 175.488281 35.054688 C 175.488281 35.601562 175.933594 36.046875 176.480469 36.046875 C 177.027344 36.046875 177.472656 35.601562 177.472656 35.054688 Z M 177.472656 35.054688 "/>
<path style=" stroke:none;fill-rule:nonzero;fill:rgb(50%,50%,50%);fill-opacity:1;" d="M 92.753906 63.292969 C 92.753906 62.746094 92.308594 62.300781 91.761719 62.300781 C 91.210938 62.300781 90.765625 62.746094 90.765625 63.292969 C 90.765625 63.84375 91.210938 64.289062 91.761719 64.289062 C 92.308594 64.289062 92.753906 63.84375 92.753906 63.292969 Z M 92.753906 63.292969 "/>
<path style=" stroke:none;fill-rule:nonzero;fill:rgb(50%,50%,50%);fill-opacity:1;" d="M 92.753906 148.015625 C 92.753906 147.46875 92.308594 147.023438 91.761719 147.023438 C 91.210938 147.023438 90.765625 147.46875 90.765625 148.015625 C 90.765625 148.5625 91.210938 149.007812 91.761719 149.007812 C 92.308594 149.007812 92.753906 148.5625 92.753906 148.015625 Z M 92.753906 148.015625 "/>
<path style="fill:none;stroke-width:0.79701;stroke-linecap:butt;stroke-linejoin:miter;stroke:rgb(0%,0%,0%);stroke-opacity:1;stroke-miterlimit:10;" d="M -61.16981 -2.799687 L -7.730446 -20.612808 " transform="matrix(0.996237,0,0,-0.996237,91.759952,35.054598)"/>
<path style="fill:none;stroke-width:0.6376;stroke-linecap:round;stroke-linejoin:round;stroke:rgb(0%,0%,0%);stroke-opacity:1;stroke-miterlimit:10;" d="M -1.553062 2.073266 C -1.425346 1.293313 0.000636707 0.127719 0.389993 0.00123917 C -0.000604093 -0.128958 -1.426594 -1.294543 -1.555556 -2.073255 " transform="matrix(-0.94507,-0.31502,-0.31502,0.94507,30.822086,37.844341)"/>
<path style="fill:none;stroke-width:0.79701;stroke-linecap:butt;stroke-linejoin:miter;stroke:rgb(0%,0%,0%);stroke-opacity:1;stroke-miterlimit:10;" d="M 8.400565 -20.389311 L 61.839929 -2.57619 " transform="matrix(0.996237,0,0,-0.996237,91.759952,35.054598)"/>
<path style="fill:none;stroke-width:0.6376;stroke-linecap:round;stroke-linejoin:round;stroke:rgb(0%,0%,0%);stroke-opacity:1;stroke-miterlimit:10;" d="M -1.553393 2.071879 C -1.424432 1.293167 -0.00216174 0.128822 0.388435 -0.00137535 C -0.000920938 -0.127855 -1.423184 -1.294689 -1.55462 -2.073402 " transform="matrix(-0.94507,0.31502,0.31502,0.94507,100.12925,55.367216)"/>
<path style="fill:none;stroke-width:0.79701;stroke-linecap:butt;stroke-linejoin:miter;stroke:rgb(0%,0%,0%);stroke-opacity:1;stroke-miterlimit:10;" d="M 61.169437 2.799507 L 7.730073 20.612628 " transform="matrix(0.996237,0,0,-0.996237,91.759952,35.054598)"/>
<path style="fill:none;stroke-width:0.6376;stroke-linecap:round;stroke-linejoin:round;stroke:rgb(0%,0%,0%);stroke-opacity:1;stroke-miterlimit:10;" d="M -1.553359 2.072976 C -1.425643 1.293023 -0.000900312 0.13115 0.389696 0.000949979 C -0.000901135 -0.129248 -1.423171 -1.293592 -1.552133 -2.072304 " transform="matrix(0.94507,0.31502,0.31502,-0.94507,152.697817,32.264855)"/>
<path style="fill:none;stroke-width:0.79701;stroke-linecap:butt;stroke-linejoin:miter;stroke:rgb(0%,0%,0%);stroke-opacity:1;stroke-miterlimit:10;" d="M -8.400938 20.389131 L -61.840302 2.576009 " transform="matrix(0.996237,0,0,-0.996237,91.759952,35.054598)"/>
<path style="fill:none;stroke-width:0.6376;stroke-linecap:round;stroke-linejoin:round;stroke:rgb(0%,0%,0%);stroke-opacity:1;stroke-miterlimit:10;" d="M -1.553804 2.071826 C -1.423603 1.296833 0.00114708 0.127529 0.388024 -0.00142848 C -0.00133209 -0.127909 -1.423595 -1.294742 -1.555031 -2.073455 " transform="matrix(0.94507,-0.31502,-0.31502,-0.94507,83.390653,14.741979)"/>
<path style="fill:none;stroke-width:0.79701;stroke-linecap:butt;stroke-linejoin:miter;stroke:rgb(0%,0%,0%);stroke-opacity:1;stroke-miterlimit:10;" d="M -64.988868 -20.18934 L -13.082617 -89.398982 " transform="matrix(0.996237,0,0,-0.996237,91.759952,35.054598)"/>
<path style="fill:none;stroke-width:0.6376;stroke-linecap:round;stroke-linejoin:round;stroke:rgb(0%,0%,0%);stroke-opacity:1;stroke-miterlimit:10;" d="M -1.552923 2.072193 C -1.425102 1.295025 -0.000962334 0.128869 0.387227 -0.000531715 C -0.000180713 -0.131493 -1.425128 -1.292915 -1.554533 -2.073217 " transform="matrix(-0.597732,-0.79696,-0.79696,0.597732,27.016191,55.168298)"/>
<path style="fill:none;stroke-width:0.79701;stroke-linecap:butt;stroke-linejoin:miter;stroke:rgb(0%,0%,0%);stroke-opacity:1;stroke-miterlimit:10;" d="M -6.542382 -90.869359 L -6.542382 -39.249341 " transform="matrix(0.996237,0,0,-0.996237,91.759952,35.054598)"/>
<path style="fill:none;stroke-width:0.6376;stroke-linecap:round;stroke-linejoin:round;stroke:rgb(0%,0%,0%);stroke-opacity:1;stroke-miterlimit:10;" d="M -1.553779 2.073069 C -1.424386 1.29671 -0.0010613 0.128251 0.387118 -0.00114185 C -0.0010613 -0.130535 -1.424386 -1.295073 -1.553779 -2.071432 " transform="matrix(0,0.996237,0.996237,0,85.243325,125.583089)"/>
<path style="fill:none;stroke-width:0.79701;stroke-linecap:butt;stroke-linejoin:miter;stroke:rgb(0%,0%,0%);stroke-opacity:1;stroke-miterlimit:10;" d="M -13.753108 -30.301609 L -65.412336 -13.08056 " transform="matrix(0.996237,0,0,-0.996237,91.759952,35.054598)"/>
<path style="fill:none;stroke-width:0.6376;stroke-linecap:round;stroke-linejoin:round;stroke:rgb(0%,0%,0%);stroke-opacity:1;stroke-miterlimit:10;" d="M -1.554703 2.074019 C -1.423267 1.295306 -0.00100411 0.128473 0.388352 0.00199255 C -0.00224491 -0.128205 -1.423275 -1.296269 -1.553476 -2.071262 " transform="matrix(0.94507,0.31502,0.31502,-0.94507,78.058134,65.242826)"/>
<path style="fill:none;stroke-width:0.79701;stroke-linecap:butt;stroke-linejoin:miter;stroke:rgb(0%,0%,0%);stroke-opacity:1;stroke-miterlimit:10;" d="M 65.411963 -19.624715 L 13.505712 -88.830437 " transform="matrix(0.996237,0,0,-0.996237,91.759952,35.054598)"/>
<path style="fill:none;stroke-width:0.6376;stroke-linecap:round;stroke-linejoin:round;stroke:rgb(0%,0%,0%);stroke-opacity:1;stroke-miterlimit:10;" d="M -1.555265 2.071855 C -1.425076 1.297043 -0.000913315 0.130131 0.389632 0.00152213 C -0.00169494 -0.130231 -1.425835 -1.296387 -1.553655 -2.073555 " transform="matrix(-0.597732,0.79696,0.79696,0.597732,105.216057,123.551851)"/>
<path style="fill:none;stroke-width:0.79701;stroke-linecap:butt;stroke-linejoin:miter;stroke:rgb(0%,0%,0%);stroke-opacity:1;stroke-miterlimit:10;" d="M 6.542009 -91.57906 L 6.542009 -39.955121 " transform="matrix(0.996237,0,0,-0.996237,91.759952,35.054598)"/>
<path style="fill:none;stroke-width:0.6376;stroke-linecap:round;stroke-linejoin:round;stroke:rgb(0%,0%,0%);stroke-opacity:1;stroke-miterlimit:10;" d="M -1.552849 2.073443 C -1.423456 1.293163 -0.000131315 0.128625 0.388048 -0.000768616 C -0.000131315 -0.130162 -1.423456 -1.2947 -1.552849 -2.071059 " transform="matrix(0,-0.996237,-0.996237,0,98.276578,74.859244)"/>
<path style="fill:none;stroke-width:0.79701;stroke-linecap:butt;stroke-linejoin:miter;stroke:rgb(0%,0%,0%);stroke-opacity:1;stroke-miterlimit:10;" d="M 13.082243 -30.525107 L 64.741471 -13.307978 " transform="matrix(0.996237,0,0,-0.996237,91.759952,35.054598)"/>
<path style="fill:none;stroke-width:0.6376;stroke-linecap:round;stroke-linejoin:round;stroke:rgb(0%,0%,0%);stroke-opacity:1;stroke-miterlimit:10;" d="M -1.554443 2.070385 C -1.424242 1.295393 0.00174797 0.129808 0.388625 0.000850915 C -0.00197118 -0.129349 -1.424234 -1.296183 -1.55443 -2.071176 " transform="matrix(0.94507,-0.31502,-0.31502,-0.94507,156.25799,48.310729)"/>
</g>
</svg>
