<?xml version="1.0" encoding="iso-8859-1" standalone="no"?> 
<?xml-stylesheet href="_Wrapper_Image_SplitEdgePath.css" type="text/css"?> 
<svg xmlns="http://www.w3.org/2000/svg" xmlns:xlink="http://www.w3.org/1999/xlink" width="137.54288pt" height="125.18417pt" viewBox="-11.86595 -62.59209 137.54288 125.18417 "> 
<g transform="translate(0,62.59209 ) scale(1,-1) translate(0,62.59209 )"> 
<g stroke="#000" fill="#000">
 <g stroke-width="0.4">
 <g fill="#ff6">
 <path d=" M 28.45273 49.28171 L 56.90549 0.0 L 0.0 0.0 Z  " stroke="none"/>
 </g>
 <g transform="translate(25.86203,13.01031)">
 <g fill="#000">
 <text style="stroke:none" transform="scale(1,-1) translate(2.59027,0)" text-anchor="middle"  font-size="10"> 
<g fill="#000">
 <g stroke="none"> <tspan font-family="cmmi" font-size="10">I</tspan></g> </g>
 </text> 
</g>
 </g>
 <g fill="#ff6">
 <path d=" M 56.90549 0.0 L 28.45273 -49.28171 L 0.0 0.0 Z  " stroke="none"/>
 </g>
 <g transform="translate(23.27176,-19.84363)">
 <g fill="#000">
 <text style="stroke:none" transform="scale(1,-1) translate(5.18054,0)" text-anchor="middle"  font-size="10"> 
<g fill="#000">
 <g stroke="none"> <tspan font-family="cmmi" font-size="10">II</tspan></g> </g>
 </text> 
</g>
 </g>
 <g fill="#ff6">
 <path d=" M 85.35822 49.28171 L 113.81097 0.0 L 56.90549 0.0 Z  " stroke="none"/>
 </g>
 <g transform="translate(77.58609,13.01031)">
 <g fill="#000">
 <text style="stroke:none" transform="scale(1,-1) translate(7.77081,0)" text-anchor="middle"  font-size="10"> 
<g fill="#000">
 <g stroke="none"> <tspan font-family="cmmi" font-size="10">III</tspan></g> </g>
 </text> 
</g>
 </g>
 <g fill="#ff6">
 <path d=" M 113.81097 0.0 L 85.35822 -49.28171 L 56.90549 0.0 Z  " stroke="none"/>
 </g>
 <g transform="translate(78.73886,-19.84363)">
 <g fill="#000">
 <text style="stroke:none" transform="scale(1,-1) translate(6.61804,0)" text-anchor="middle"  font-size="10"> 
<g fill="#000">
 <g stroke="none"> <tspan font-family="cmmi" font-size="10">IV</tspan></g> </g>
 </text> 
</g>
 </g>
 <g stroke-linejoin="round">
 <g stroke="#000">
 <path d=" M 28.45273 49.28171 L 0.0 0.0  " fill="none"/>
 <g fill="#ccf">
 <g fill="#ccf">
 <path d=" M 8.58092 18.4079 h 11.29092 v 12.46594 h -11.29092 Z  " stroke="none"/>
 </g>
 <g transform="translate(11.9139,21.74088)">
 <g fill="#000">
 <text style="stroke:none" transform="scale(1,-1) translate(2.31248,0)" text-anchor="middle"  font-size="10"> 
<g fill="#000">
 <g stroke="none"> <tspan font-family="cmr" font-size="9">1</tspan></g> </g>
 </text> 
</g>
 </g>
 </g>
 </g>
 </g>
 <g stroke-linejoin="round">
 <g stroke="#000">
 <path d=" M 56.90549 0.0 L 28.45273 49.28171  " fill="none"/>
 <g fill="#ccf">
 <g fill="#ccf">
 <path d=" M 37.03365 18.40787 h 11.29092 v 12.46594 h -11.29092 Z  " stroke="none"/>
 </g>
 <g transform="translate(40.36662,21.74084)">
 <g fill="#000">
 <text style="stroke:none" transform="scale(1,-1) translate(2.31248,0)" text-anchor="middle"  font-size="10"> 
<g fill="#000">
 <g stroke="none"> <tspan font-family="cmr" font-size="9">2</tspan></g> </g>
 </text> 
</g>
 </g>
 </g>
 </g>
 </g>
 <g stroke-linejoin="round">
 <g stroke="#000">
 <path d=" M 0.0 0.0 L 56.90549 0.0  " fill="none"/>
 <g fill="#ccf">
 <g fill="#ccf">
 <path d=" M 22.80727 -6.23297 h 11.29092 v 12.46594 h -11.29092 Z  " stroke="none"/>
 </g>
 <g transform="translate(26.14024,-2.9)">
 <g fill="#000">
 <text style="stroke:none" transform="scale(1,-1) translate(2.31248,0)" text-anchor="middle"  font-size="10"> 
<g fill="#000">
 <g stroke="none"> <tspan font-family="cmr" font-size="9">3</tspan></g> </g>
 </text> 
</g>
 </g>
 </g>
 </g>
 </g>
 <g stroke-linejoin="round">
 <g stroke="#000">
 <path d=" M 0.0 0.0 L 28.45273 -49.28171  " fill="none"/>
 <g fill="#ccf">
 <g fill="#ccf">
 <path d=" M 8.58089 -30.87381 h 11.29092 v 12.46594 h -11.29092 Z  " stroke="none"/>
 </g>
 <g transform="translate(11.91386,-27.54083)">
 <g fill="#000">
 <text style="stroke:none" transform="scale(1,-1) translate(2.31248,0)" text-anchor="middle"  font-size="10"> 
<g fill="#000">
 <g stroke="none"> <tspan font-family="cmr" font-size="9">4</tspan></g> </g>
 </text> 
</g>
 </g>
 </g>
 </g>
 </g>
 <g stroke-linejoin="round">
 <g stroke="#000">
 <path d=" M 28.45273 -49.28171 L 56.90549 0.0  " fill="none"/>
 <g fill="#ccf">
 <g fill="#ccf">
 <path d=" M 37.03365 -30.87384 h 11.29092 v 12.46594 h -11.29092 Z  " stroke="none"/>
 </g>
 <g transform="translate(40.36662,-27.54086)">
 <g fill="#000">
 <text style="stroke:none" transform="scale(1,-1) translate(2.31248,0)" text-anchor="middle"  font-size="10"> 
<g fill="#000">
 <g stroke="none"> <tspan font-family="cmr" font-size="9">5</tspan></g> </g>
 </text> 
</g>
 </g>
 </g>
 </g>
 </g>
 <g stroke-linejoin="round">
 <g stroke="#000">
 <path d=" M 85.35822 49.28171 L 56.90549 0.0  " fill="none"/>
 <g fill="#ccf">
 <g fill="#ccf">
 <path d=" M 65.4864 18.4079 h 11.29092 v 12.46594 h -11.29092 Z  " stroke="none"/>
 </g>
 <g transform="translate(68.81938,21.74088)">
 <g fill="#000">
 <text style="stroke:none" transform="scale(1,-1) translate(2.31248,0)" text-anchor="middle"  font-size="10"> 
<g fill="#000">
 <g stroke="none"> <tspan font-family="cmr" font-size="9">6</tspan></g> </g>
 </text> 
</g>
 </g>
 </g>
 </g>
 </g>
 <g stroke-linejoin="round">
 <g stroke="#000">
 <path d=" M 113.81097 0.0 L 85.35822 49.28171  " fill="none"/>
 <g fill="#ccf">
 <g fill="#ccf">
 <path d=" M 93.93913 18.40787 h 11.29092 v 12.46594 h -11.29092 Z  " stroke="none"/>
 </g>
 <g transform="translate(97.27211,21.74084)">
 <g fill="#000">
 <text style="stroke:none" transform="scale(1,-1) translate(2.31248,0)" text-anchor="middle"  font-size="10"> 
<g fill="#000">
 <g stroke="none"> <tspan font-family="cmr" font-size="9">7</tspan></g> </g>
 </text> 
</g>
 </g>
 </g>
 </g>
 </g>
 <g stroke-linejoin="round">
 <g stroke="#000">
 <path d=" M 56.90549 0.0 L 113.81097 0.0  " fill="none"/>
 <g fill="#ccf">
 <g fill="#ccf">
 <path d=" M 79.71275 -6.23297 h 11.29092 v 12.46594 h -11.29092 Z  " stroke="none"/>
 </g>
 <g transform="translate(83.04573,-2.9)">
 <g fill="#000">
 <text style="stroke:none" transform="scale(1,-1) translate(2.31248,0)" text-anchor="middle"  font-size="10"> 
<g fill="#000">
 <g stroke="none"> <tspan font-family="cmr" font-size="9">8</tspan></g> </g>
 </text> 
</g>
 </g>
 </g>
 </g>
 </g>
 <g stroke-linejoin="round">
 <g stroke="#000">
 <path d=" M 56.90549 0.0 L 85.35822 -49.28171  " fill="none"/>
 <g fill="#ccf">
 <g fill="#ccf">
 <path d=" M 65.48637 -30.87381 h 11.29092 v 12.46594 h -11.29092 Z  " stroke="none"/>
 </g>
 <g transform="translate(68.81935,-27.54083)">
 <g fill="#000">
 <text style="stroke:none" transform="scale(1,-1) translate(2.31248,0)" text-anchor="middle"  font-size="10"> 
<g fill="#000">
 <g stroke="none"> <tspan font-family="cmr" font-size="9">9</tspan></g> </g>
 </text> 
</g>
 </g>
 </g>
 </g>
 </g>
 <g stroke-linejoin="round">
 <g stroke="#000">
 <path d=" M 85.35822 -49.28171 L 113.81097 0.0  " fill="none"/>
 <g fill="#ccf">
 <g fill="#ccf">
 <path d=" M 91.62665 -30.87384 h 15.9159 v 12.46594 h -15.9159 Z  " stroke="none"/>
 </g>
 <g transform="translate(94.95963,-27.54086)">
 <g fill="#000">
 <text style="stroke:none" transform="scale(1,-1) translate(4.62497,0)" text-anchor="middle"  font-size="10"> 
<g fill="#000">
 <g stroke="none"> <tspan font-family="cmr" font-size="9">10</tspan></g> </g>
 </text> 
</g>
 </g>
 </g>
 </g>
 </g>
 <g fill="#00f">
 <g fill="#00f">
 <path d=" M 2.0 0.0 C 2.0 1.10458 1.10458 2.0 0.0 2.0 C -1.10458 2.0 -2.0 1.10458 -2.0 0.0 C -2.0 -1.10458 -1.10458 -2.0 0.0 -2.0 C 1.10458 -2.0 2.0 -1.10458 2.0 0.0 Z M 0.0 0.0  " stroke="none"/>
 </g>
 <g fill="#000">
 <text style="stroke:none" transform="scale(1,-1) translate(0.0,0)" text-anchor="middle"  font-size="10"> 
<g fill="#000">
 <g stroke="none"> </g> </g>
 </text> 
</g>
 </g>
 <g stroke="#00f" fill="#00f">
 <g stroke="#00f" fill="#00f">
 </g>
 <g transform="translate(-8.53297,-3.22221)">
 <g fill="#00f">
 <text style="stroke:none" transform="scale(1,-1) translate(2.5,0)" text-anchor="middle"  font-size="10"> 
<g fill="#00f">
 <g stroke="none"> 1</g> </g>
 </text> 
</g>
 </g>
 </g>
 <g fill="#00f">
 <g fill="#00f">
 <path d=" M 30.45273 49.28171 C 30.45273 50.38629 29.55731 51.28171 28.45273 51.28171 C 27.34814 51.28171 26.45273 50.38629 26.45273 49.28171 C 26.45273 48.17712 27.34814 47.28171 28.45273 47.28171 C 29.55731 47.28171 30.45273 48.17712 30.45273 49.28171 Z M 28.45273 49.28171  " stroke="none"/>
 </g>
 <g transform="translate(28.45273,49.28171)">
 <g fill="#000">
 <text style="stroke:none" transform="scale(1,-1) translate(0.0,0)" text-anchor="middle"  font-size="10"> 
<g fill="#000">
 <g stroke="none"> </g> </g>
 </text> 
</g>
 </g>
 </g>
 <g stroke="#00f" fill="#00f">
 <g stroke="#00f" fill="#00f">
 </g>
 <g transform="translate(25.95273,52.81468)">
 <g fill="#00f">
 <text style="stroke:none" transform="scale(1,-1) translate(2.5,0)" text-anchor="middle"  font-size="10"> 
<g fill="#00f">
 <g stroke="none"> 2</g> </g>
 </text> 
</g>
 </g>
 </g>
 <g fill="#00f">
 <g fill="#00f">
 <path d=" M 58.90549 0.0 C 58.90549 1.10458 58.01007 2.0 56.90549 2.0 C 55.8009 2.0 54.90549 1.10458 54.90549 0.0 C 54.90549 -1.10458 55.8009 -2.0 56.90549 -2.0 C 58.01007 -2.0 58.90549 -1.10458 58.90549 0.0 Z M 56.90549 0.0  " stroke="none"/>
 </g>
 <g transform="translate(56.90549,0.0)">
 <g fill="#000">
 <text style="stroke:none" transform="scale(1,-1) translate(0.0,0)" text-anchor="middle"  font-size="10"> 
<g fill="#000">
 <g stroke="none"> </g> </g>
 </text> 
</g>
 </g>
 </g>
 <g stroke="#00f" fill="#00f">
 <g stroke="#00f" fill="#00f">
 </g>
 <g transform="translate(54.40549,3.53297)">
 <g fill="#00f">
 <text style="stroke:none" transform="scale(1,-1) translate(2.5,0)" text-anchor="middle"  font-size="10"> 
<g fill="#00f">
 <g stroke="none"> 3</g> </g>
 </text> 
</g>
 </g>
 </g>
 <g fill="#00f">
 <g fill="#00f">
 <path d=" M 30.45273 -49.28171 C 30.45273 -48.17712 29.55731 -47.28171 28.45273 -47.28171 C 27.34814 -47.28171 26.45273 -48.17712 26.45273 -49.28171 C 26.45273 -50.38629 27.34814 -51.28171 28.45273 -51.28171 C 29.55731 -51.28171 30.45273 -50.38629 30.45273 -49.28171 Z M 28.45273 -49.28171  " stroke="none"/>
 </g>
 <g transform="translate(28.45273,-49.28171)">
 <g fill="#000">
 <text style="stroke:none" transform="scale(1,-1) translate(0.0,0)" text-anchor="middle"  font-size="10"> 
<g fill="#000">
 <g stroke="none"> </g> </g>
 </text> 
</g>
 </g>
 </g>
 <g stroke="#00f" fill="#00f">
 <g stroke="#00f" fill="#00f">
 </g>
 <g transform="translate(25.95273,-59.25911)">
 <g fill="#00f">
 <text style="stroke:none" transform="scale(1,-1) translate(2.5,0)" text-anchor="middle"  font-size="10"> 
<g fill="#00f">
 <g stroke="none"> 4</g> </g>
 </text> 
</g>
 </g>
 </g>
 <g fill="#00f">
 <g fill="#00f">
 <path d=" M 87.35822 49.28171 C 87.35822 50.38629 86.4628 51.28171 85.35822 51.28171 C 84.25363 51.28171 83.35822 50.38629 83.35822 49.28171 C 83.35822 48.17712 84.25363 47.28171 85.35822 47.28171 C 86.4628 47.28171 87.35822 48.17712 87.35822 49.28171 Z M 85.35822 49.28171  " stroke="none"/>
 </g>
 <g transform="translate(85.35822,49.28171)">
 <g fill="#000">
 <text style="stroke:none" transform="scale(1,-1) translate(0.0,0)" text-anchor="middle"  font-size="10"> 
<g fill="#000">
 <g stroke="none"> </g> </g>
 </text> 
</g>
 </g>
 </g>
 <g stroke="#00f" fill="#00f">
 <g stroke="#00f" fill="#00f">
 </g>
 <g transform="translate(88.89119,46.0595)">
 <g fill="#00f">
 <text style="stroke:none" transform="scale(1,-1) translate(2.5,0)" text-anchor="middle"  font-size="10"> 
<g fill="#00f">
 <g stroke="none"> 5</g> </g>
 </text> 
</g>
 </g>
 </g>
 <g fill="#00f">
 <g fill="#00f">
 <path d=" M 115.81097 0.0 C 115.81097 1.10458 114.91556 2.0 113.81097 2.0 C 112.70639 2.0 111.81097 1.10458 111.81097 0.0 C 111.81097 -1.10458 112.70639 -2.0 113.81097 -2.0 C 114.91556 -2.0 115.81097 -1.10458 115.81097 0.0 Z M 113.81097 0.0  " stroke="none"/>
 </g>
 <g transform="translate(113.81097,0.0)">
 <g fill="#000">
 <text style="stroke:none" transform="scale(1,-1) translate(0.0,0)" text-anchor="middle"  font-size="10"> 
<g fill="#000">
 <g stroke="none"> </g> </g>
 </text> 
</g>
 </g>
 </g>
 <g stroke="#00f" fill="#00f">
 <g stroke="#00f" fill="#00f">
 </g>
 <g transform="translate(117.34395,-3.22221)">
 <g fill="#00f">
 <text style="stroke:none" transform="scale(1,-1) translate(2.5,0)" text-anchor="middle"  font-size="10"> 
<g fill="#00f">
 <g stroke="none"> 6</g> </g>
 </text> 
</g>
 </g>
 </g>
 <g fill="#00f">
 <g fill="#00f">
 <path d=" M 87.35822 -49.28171 C 87.35822 -48.17712 86.4628 -47.28171 85.35822 -47.28171 C 84.25363 -47.28171 83.35822 -48.17712 83.35822 -49.28171 C 83.35822 -50.38629 84.25363 -51.28171 85.35822 -51.28171 C 86.4628 -51.28171 87.35822 -50.38629 87.35822 -49.28171 Z M 85.35822 -49.28171  " stroke="none"/>
 </g>
 <g transform="translate(85.35822,-49.28171)">
 <g fill="#000">
 <text style="stroke:none" transform="scale(1,-1) translate(0.0,0)" text-anchor="middle"  font-size="10"> 
<g fill="#000">
 <g stroke="none"> </g> </g>
 </text> 
</g>
 </g>
 </g>
 <g stroke="#00f" fill="#00f">
 <g stroke="#00f" fill="#00f">
 </g>
 <g transform="translate(82.85822,-59.25911)">
 <g fill="#00f">
 <text style="stroke:none" transform="scale(1,-1) translate(2.5,0)" text-anchor="middle"  font-size="10"> 
<g fill="#00f">
 <g stroke="none"> 7</g> </g>
 </text> 
</g>
 </g>
 </g>
 </g>
 </g>
 
                          </g> 
</svg> 
