<?xml version="1.0" encoding="UTF-8"?>
<svg xmlns="http://www.w3.org/2000/svg" xmlns:xlink="http://www.w3.org/1999/xlink" width="84.547pt" height="66.854pt" viewBox="0 0 84.547 66.854" version="1.2">
<g id="surface1">
<path style="fill-rule:nonzero;fill:rgb(100%,96.939087%,40.000916%);fill-opacity:1;stroke-width:0.3985;stroke-linecap:butt;stroke-linejoin:round;stroke:rgb(0%,0%,0%);stroke-opacity:1;stroke-miterlimit:10;" d="M 283.469647 -0.00065295 L 283.469647 42.51892 L 240.946147 -0.00065295 Z M 283.469647 -0.00065295 " transform="matrix(0.994671,0,0,-0.994671,-232.857358,49.202476)"/>
<path style="fill-rule:nonzero;fill:rgb(100%,96.939087%,40.000916%);fill-opacity:1;stroke-width:0.3985;stroke-linecap:butt;stroke-linejoin:round;stroke:rgb(0%,0%,0%);stroke-opacity:1;stroke-miterlimit:10;" d="M 283.469647 -0.00065295 L 283.469647 42.51892 L 311.816029 -14.173844 Z M 283.469647 -0.00065295 L 283.469647 42.51892 L 266.461032 -14.173844 Z M 283.469647 -0.00065295 " transform="matrix(0.994671,0,0,-0.994671,-232.857358,49.202476)"/>
<path style="fill:none;stroke-width:0.3985;stroke-linecap:butt;stroke-linejoin:round;stroke:rgb(0%,0%,0%);stroke-opacity:1;stroke-dasharray:2.98883,2.98883;stroke-miterlimit:10;" d="M 283.469647 -0.00065295 L 240.946147 -0.00065295 " transform="matrix(0.994671,0,0,-0.994671,-232.857358,49.202476)"/>
<path style="fill:none;stroke-width:0.3985;stroke-linecap:butt;stroke-linejoin:round;stroke:rgb(0%,0%,0%);stroke-opacity:1;stroke-miterlimit:10;" d="M 283.469647 -0.00065295 L 283.469647 42.51892 " transform="matrix(0.994671,0,0,-0.994671,-232.857358,49.202476)"/>
<path style=" stroke:none;fill-rule:nonzero;fill:rgb(50%,50%,50%);fill-opacity:1;" d="M 78.285156 63.300781 C 78.285156 62.753906 77.84375 62.308594 77.296875 62.308594 C 76.75 62.308594 76.304688 62.753906 76.304688 63.300781 C 76.304688 63.847656 76.75 64.292969 77.296875 64.292969 C 77.84375 64.292969 78.285156 63.847656 78.285156 63.300781 Z M 78.285156 63.300781 "/>
<path style=" stroke:none;fill-rule:nonzero;fill:rgb(50%,50%,50%);fill-opacity:1;" d="M 33.171875 63.300781 C 33.171875 62.753906 32.730469 62.308594 32.183594 62.308594 C 31.636719 62.308594 31.191406 62.753906 31.191406 63.300781 C 31.191406 63.847656 31.636719 64.292969 32.183594 64.292969 C 32.730469 64.292969 33.171875 63.847656 33.171875 63.300781 Z M 33.171875 63.300781 "/>
<path style=" stroke:none;fill-rule:nonzero;fill:rgb(50%,50%,50%);fill-opacity:1;" d="M 7.796875 49.203125 C 7.796875 48.65625 7.355469 48.210938 6.804688 48.210938 C 6.257812 48.210938 5.816406 48.65625 5.816406 49.203125 C 5.816406 49.75 6.257812 50.195312 6.804688 50.195312 C 7.355469 50.195312 7.796875 49.75 7.796875 49.203125 Z M 7.796875 49.203125 "/>
<path style=" stroke:none;fill-rule:nonzero;fill:rgb(50%,50%,50%);fill-opacity:1;" d="M 50.089844 49.203125 C 50.089844 48.65625 49.648438 48.210938 49.101562 48.210938 C 48.554688 48.210938 48.109375 48.65625 48.109375 49.203125 C 48.109375 49.75 48.554688 50.195312 49.101562 50.195312 C 49.648438 50.195312 50.089844 49.75 50.089844 49.203125 Z M 50.089844 49.203125 "/>
<path style=" stroke:none;fill-rule:nonzero;fill:rgb(50%,50%,50%);fill-opacity:1;" d="M 50.089844 6.910156 C 50.089844 6.363281 49.648438 5.917969 49.101562 5.917969 C 48.554688 5.917969 48.109375 6.363281 48.109375 6.910156 C 48.109375 7.457031 48.554688 7.898438 49.101562 7.898438 C 49.648438 7.898438 50.089844 7.457031 50.089844 6.910156 Z M 50.089844 6.910156 "/>
</g>
</svg>
