<?xml version="1.0" encoding="iso-8859-1" standalone="no"?> 
<?xml-stylesheet href="_Wrapper_Image_LocalLegSymmetry.css" type="text/css"?> 
<svg xmlns="http://www.w3.org/2000/svg" xmlns:xlink="http://www.w3.org/1999/xlink" width="360.74637pt" height="114.61095pt" viewBox="-80.78854 -14.62636 360.74637 114.61095 "> 
<g transform="translate(0,99.98459 ) scale(1,-1) translate(0,14.62636 )"> 
               <g stroke="#000" fill="#000">
 <g stroke-width="0.4">
 <g fill="#ff6">
 <path d=" M 0.0 0.0 L 73.92259 42.67911 L 0.0 85.35823 Z M 0.0 0.0 L 0.0 85.35823 L -73.92259 42.67911 Z  " />
 </g>
 <g stroke-width="0.2">
 <g stroke-linejoin="round">
 <g stroke-width="1.2">
 <path d=" M 0.0 0.0 L 0.0 85.35823  " fill="none"/>
 <g stroke-width="0.8">
 <g stroke="#f00">
 <path d=" M 0.0 0.0 L 0.0 85.35823  " fill="none"/>
 </g>
 </g>
 </g>
 </g>
 </g>
 <g stroke-width="0.2">
 <g stroke-linejoin="round">
 <g stroke-width="1.2">
 <path d=" M 73.92259 42.67911 L 0.0 85.35823 L -73.92259 42.67911  " fill="none"/>
 <g stroke-width="0.8">
 <g stroke="#f00">
 <path d=" M 73.92259 42.67911 L 0.0 85.35823 L -73.92259 42.67911  " fill="none"/>
 </g>
 </g>
 </g>
 </g>
 </g>
 <g stroke-width="0.2">
 <g stroke-linejoin="round">
 <g stroke-width="1.2">
 <path d=" M 73.92259 42.67911 L 0.0 0.0 L -73.92259 42.67911  " fill="none"/>
 <g stroke-width="0.8">
 <g stroke="#00f">
 <path d=" M 73.92259 42.67911 L 0.0 0.0 L -73.92259 42.67911  " fill="none"/>
 </g>
 </g>
 </g>
 </g>
 </g>
 <g fill="#808080">
 <g fill="#808080">
 <path d=" M 1.0 0.0 C 1.0 0.55229 0.55229 1.0 0.0 1.0 C -0.55229 1.0 -1.0 0.55229 -1.0 0.0 C -1.0 -0.55229 -0.55229 -1.0 0.0 -1.0 C 0.55229 -1.0 1.0 -0.55229 1.0 0.0 Z M 0.0 0.0  " stroke="none"/>
 </g>
 <g fill="#000">
 <text style="stroke:none" transform="scale(1,-1) translate(0.0,0)" text-anchor="middle"  font-size="10"> 
<g fill="#000">
 <g stroke="none"> </g> </g>
 </text> 
</g>
 </g>
 <g transform="translate(0.0,-3.53297)">
 <g fill="#000">
 <text style="stroke:none" transform="scale(1,-1) translate(0.0,0)" text-anchor="middle"  font-size="10"> 
<g fill="#000">
 <g stroke="none"> </g> </g>
 </text> 
</g>
 </g>
 <g fill="#808080">
 <g fill="#808080">
 <path d=" M 74.92259 42.67911 C 74.92259 43.2314 74.47488 43.67911 73.92259 43.67911 C 73.3703 43.67911 72.92259 43.2314 72.92259 42.67911 C 72.92259 42.12682 73.3703 41.67911 73.92259 41.67911 C 74.47488 41.67911 74.92259 42.12682 74.92259 42.67911 Z M 73.92259 42.67911  " stroke="none"/>
 </g>
 <g transform="translate(73.92259,42.67911)">
 <g fill="#000">
 <text style="stroke:none" transform="scale(1,-1) translate(0.0,0)" text-anchor="middle"  font-size="10"> 
<g fill="#000">
 <g stroke="none"> </g> </g>
 </text> 
</g>
 </g>
 </g>
 <g transform="translate(77.45557,42.67911)">
 <g fill="#000">
 <text style="stroke:none" transform="scale(1,-1) translate(0.0,0)" text-anchor="middle"  font-size="10"> 
<g fill="#000">
 <g stroke="none"> </g> </g>
 </text> 
</g>
 </g>
 <g fill="#808080">
 <g fill="#808080">
 <path d=" M 1.0 85.35823 C 1.0 85.91052 0.55229 86.35823 0.0 86.35823 C -0.55229 86.35823 -1.0 85.91052 -1.0 85.35823 C -1.0 84.80594 -0.55229 84.35823 0.0 84.35823 C 0.55229 84.35823 1.0 84.80594 1.0 85.35823 Z M 0.0 85.35823  " stroke="none"/>
 </g>
 <g transform="translate(0.0,85.35823)">
 <g fill="#000">
 <text style="stroke:none" transform="scale(1,-1) translate(0.0,0)" text-anchor="middle"  font-size="10"> 
<g fill="#000">
 <g stroke="none"> </g> </g>
 </text> 
</g>
 </g>
 </g>
 <g transform="translate(0.0,88.8912)">
 <g fill="#000">
 <text style="stroke:none" transform="scale(1,-1) translate(0.0,0)" text-anchor="middle"  font-size="10"> 
<g fill="#000">
 <g stroke="none"> </g> </g>
 </text> 
</g>
 </g>
 <g fill="#808080">
 <g fill="#808080">
 <path d=" M -72.92259 42.67911 C -72.92259 43.2314 -73.3703 43.67911 -73.92259 43.67911 C -74.47488 43.67911 -74.92259 43.2314 -74.92259 42.67911 C -74.92259 42.12682 -74.47488 41.67911 -73.92259 41.67911 C -73.3703 41.67911 -72.92259 42.12682 -72.92259 42.67911 Z M -73.92259 42.67911  " stroke="none"/>
 </g>
 <g transform="translate(-73.92259,42.67911)">
 <g fill="#000">
 <text style="stroke:none" transform="scale(1,-1) translate(0.0,0)" text-anchor="middle"  font-size="10"> 
<g fill="#000">
 <g stroke="none"> </g> </g>
 </text> 
</g>
 </g>
 </g>
 <g transform="translate(-77.45557,42.67911)">
 <g fill="#000">
 <text style="stroke:none" transform="scale(1,-1) translate(0.0,0)" text-anchor="middle"  font-size="10"> 
<g fill="#000">
 <g stroke="none"> </g> </g>
 </text> 
</g>
 </g>
 <g stroke-dasharray="3.0,3.0" stroke-dashoffset="0.0">
 <g stroke-width="0.8">
 <path d=" M 0.0 -14.22636 L 0.0 99.5846  " fill="none"/>
 </g>
 </g>
 <g fill="#ff6">
 <path d=" M 199.16928 0.0 L 273.09187 42.67911 L 199.16928 85.35823 Z M 199.16928 0.0 L 199.16928 85.35823 L 125.24669 42.67911 Z  " />
 </g>
 <g stroke-width="0.2">
 <g stroke-linejoin="round">
 <g stroke-width="1.2">
 <path d=" M 199.16928 0.0 L 199.16928 85.35823  " fill="none"/>
 <g stroke-width="0.8">
 <g stroke="#f00">
 <path d=" M 199.16928 0.0 L 199.16928 85.35823  " fill="none"/>
 </g>
 </g>
 </g>
 </g>
 </g>
 <g stroke-width="0.2">
 <g stroke-linejoin="round">
 <g stroke-width="1.2">
 <path d=" M 273.09187 42.67911 L 199.16928 0.0 M 199.16928 85.35823 L 125.24669 42.67911  " fill="none"/>
 <g stroke-width="0.8">
 <g stroke="#f00">
 <path d=" M 273.09187 42.67911 L 199.16928 0.0 M 199.16928 85.35823 L 125.24669 42.67911  " fill="none"/>
 </g>
 </g>
 </g>
 </g>
 </g>
 <g stroke-width="0.2">
 <g stroke-linejoin="round">
 <g stroke-width="1.2">
 <path d=" M 273.09187 42.67911 L 199.16928 85.35823 M 199.16928 0.0 L 125.24669 42.67911  " fill="none"/>
 <g stroke-width="0.8">
 <g stroke="#00f">
 <path d=" M 273.09187 42.67911 L 199.16928 85.35823 M 199.16928 0.0 L 125.24669 42.67911  " fill="none"/>
 </g>
 </g>
 </g>
 </g>
 </g>
 <g fill="#808080">
 <g fill="#808080">
 <path d=" M 200.16928 0.0 C 200.16928 0.55229 199.72157 1.0 199.16928 1.0 C 198.61699 1.0 198.16928 0.55229 198.16928 0.0 C 198.16928 -0.55229 198.61699 -1.0 199.16928 -1.0 C 199.72157 -1.0 200.16928 -0.55229 200.16928 0.0 Z M 199.16928 0.0  " stroke="none"/>
 </g>
 <g transform="translate(199.16928,0.0)">
 <g fill="#000">
 <text style="stroke:none" transform="scale(1,-1) translate(0.0,0)" text-anchor="middle"  font-size="10"> 
<g fill="#000">
 <g stroke="none"> </g> </g>
 </text> 
</g>
 </g>
 </g>
 <g transform="translate(199.16928,-3.53297)">
 <g fill="#000">
 <text style="stroke:none" transform="scale(1,-1) translate(0.0,0)" text-anchor="middle"  font-size="10"> 
<g fill="#000">
 <g stroke="none"> </g> </g>
 </text> 
</g>
 </g>
 <g fill="#808080">
 <g fill="#808080">
 <path d=" M 274.09187 42.67911 C 274.09187 43.2314 273.64417 43.67911 273.09187 43.67911 C 272.53958 43.67911 272.09187 43.2314 272.09187 42.67911 C 272.09187 42.12682 272.53958 41.67911 273.09187 41.67911 C 273.64417 41.67911 274.09187 42.12682 274.09187 42.67911 Z M 273.09187 42.67911  " stroke="none"/>
 </g>
 <g transform="translate(273.09187,42.67911)">
 <g fill="#000">
 <text style="stroke:none" transform="scale(1,-1) translate(0.0,0)" text-anchor="middle"  font-size="10"> 
<g fill="#000">
 <g stroke="none"> </g> </g>
 </text> 
</g>
 </g>
 </g>
 <g transform="translate(276.62485,42.67911)">
 <g fill="#000">
 <text style="stroke:none" transform="scale(1,-1) translate(0.0,0)" text-anchor="middle"  font-size="10"> 
<g fill="#000">
 <g stroke="none"> </g> </g>
 </text> 
</g>
 </g>
 <g fill="#808080">
 <g fill="#808080">
 <path d=" M 200.16928 85.35823 C 200.16928 85.91052 199.72157 86.35823 199.16928 86.35823 C 198.61699 86.35823 198.16928 85.91052 198.16928 85.35823 C 198.16928 84.80594 198.61699 84.35823 199.16928 84.35823 C 199.72157 84.35823 200.16928 84.80594 200.16928 85.35823 Z M 199.16928 85.35823  " stroke="none"/>
 </g>
 <g transform="translate(199.16928,85.35823)">
 <g fill="#000">
 <text style="stroke:none" transform="scale(1,-1) translate(0.0,0)" text-anchor="middle"  font-size="10"> 
<g fill="#000">
 <g stroke="none"> </g> </g>
 </text> 
</g>
 </g>
 </g>
 <g transform="translate(199.16928,88.8912)">
 <g fill="#000">
 <text style="stroke:none" transform="scale(1,-1) translate(0.0,0)" text-anchor="middle"  font-size="10"> 
<g fill="#000">
 <g stroke="none"> </g> </g>
 </text> 
</g>
 </g>
 <g fill="#808080">
 <g fill="#808080">
 <path d=" M 126.24669 42.67911 C 126.24669 43.2314 125.79898 43.67911 125.24669 43.67911 C 124.6944 43.67911 124.24669 43.2314 124.24669 42.67911 C 124.24669 42.12682 124.6944 41.67911 125.24669 41.67911 C 125.79898 41.67911 126.24669 42.12682 126.24669 42.67911 Z M 125.24669 42.67911  " stroke="none"/>
 </g>
 <g transform="translate(125.24669,42.67911)">
 <g fill="#000">
 <text style="stroke:none" transform="scale(1,-1) translate(0.0,0)" text-anchor="middle"  font-size="10"> 
<g fill="#000">
 <g stroke="none"> </g> </g>
 </text> 
</g>
 </g>
 </g>
 <g transform="translate(121.71371,42.67911)">
 <g fill="#000">
 <text style="stroke:none" transform="scale(1,-1) translate(0.0,0)" text-anchor="middle"  font-size="10"> 
<g fill="#000">
 <g stroke="none"> </g> </g>
 </text> 
</g>
 </g>
 <g stroke="#000" fill="#000">
 <path d=" M 199.16928 42.67911 M 201.16928 42.67911 C 201.16928 43.78369 200.27386 44.67911 199.16928 44.67911 C 198.0647 44.67911 197.16928 43.78369 197.16928 42.67911 C 197.16928 41.57452 198.0647 40.67911 199.16928 40.67911 C 200.27386 40.67911 201.16928 41.57452 201.16928 42.67911 Z M 199.16928 42.67911  " stroke="none"/>
 </g>
 <g transform="matrix(2.0,0.0,0.0,2.0,188.61377,37.67911)">
 <g fill="#000">
 <text style="stroke:none" transform="scale(1,-1) translate(5.27776,0)" text-anchor="middle"  font-size="10"> 
<g fill="#000">
 <g stroke="none">  <tspan font-family="msam" font-size="10">&#x21BA;</tspan></g> </g>
 </text> 
</g>
 </g>
 </g>
 </g>
 
                                                                     </g> 
</svg> 
