<?xml version="1.0" encoding="iso-8859-1" standalone="no"?> 
<?xml-stylesheet href="_Wrapper_twisted_polygonal_complex-12.css" type="text/css"?> 
<svg xmlns="http://www.w3.org/2000/svg" xmlns:xlink="http://www.w3.org/1999/xlink" width="208.99402pt" height="148.53586pt" viewBox="-68.46811 -68.46811 208.99402 148.53586 "> 
<g transform="translate(0,80.06775 ) scale(1,-1) translate(0,68.46811 )"> 
             <g stroke="#000" fill="#000">
 <g stroke-width="0.4">
 <g stroke-linejoin="round">
 <g stroke="#000">
 <g fill="#ff6">
 <path d=" M -61.60216 35.56592 L 0.0 71.13185 L 0.0 0.0 Z M 0.0 71.13185 L 71.13185 71.13185 L 71.13185 0.0 L 0.0 0.0 Z M 71.13185 71.13185 L 132.73401 35.56592 L 71.13185 0.0 Z M 0.0 0.0 L 71.13185 0.0 L 35.56592 -61.60216 Z  " />
 </g>
 </g>
 </g>
 <g stroke-width="0.8">
 <g stroke="#00f" fill="#00f">
 <path d=" M -65.86989 42.95782 L -4.8826 78.16878  " fill="none"/>
 <g transform="matrix(0.86601,0.49998,-0.49998,0.86601,-4.88261,78.16876)">
 <g stroke-width="0.64">
 <g stroke-dasharray="none" stroke-dashoffset="0.0">
 <g stroke-linecap="round">
 <g stroke-linejoin="round">
 <path d=" M -1.55997 2.07996 C -1.42996 1.29997 0.0 0.12999 0.38998 0.0 C 0.0 -0.12999 -1.42996 -1.29997 -1.55997 -2.07996  " fill="none"/>
 </g>
 </g>
 </g>
 </g>
  </g>
 </g>
 </g>
 <g stroke-width="0.8">
 <g stroke="#00f" fill="#00f">
 <path d=" M -65.86989 28.17401 L -4.8826 -7.03693  " fill="none"/>
 <g transform="matrix(0.86601,-0.49998,0.49998,0.86601,-4.88261,-7.03691)">
 <g stroke-width="0.64">
 <g stroke-dasharray="none" stroke-dashoffset="0.0">
 <g stroke-linecap="round">
 <g stroke-linejoin="round">
 <path d=" M -1.55997 2.07996 C -1.42996 1.29997 0.0 0.12999 0.38998 0.0 C 0.0 -0.12999 -1.42996 -1.29997 -1.55997 -2.07996  " fill="none"/>
 </g>
 </g>
 </g>
 </g>
  </g>
 </g>
 </g>
 <g stroke-width="0.8">
 <g stroke="#f00" fill="#f00">
 <path d=" M 0.0 79.66776 L 70.42184 79.66776  " fill="none"/>
 <g transform="translate(70.42184,79.66776)">
 <g stroke-width="0.64">
 <g stroke-dasharray="none" stroke-dashoffset="0.0">
 <g stroke-linecap="round">
 <g stroke-linejoin="round">
 <path d=" M -1.55997 2.07996 C -1.42996 1.29997 0.0 0.12999 0.38998 0.0 C 0.0 -0.12999 -1.42996 -1.29997 -1.55997 -2.07996  " fill="none"/>
 </g>
 </g>
 </g>
 </g>
  </g>
 </g>
 </g>
 <g stroke-width="0.8">
 <g stroke="#f00" fill="#f00">
 <path d=" M 0.0 0.0 L 70.42184 0.0  " fill="none"/>
 <g transform="translate(70.42184,0.0)">
 <g stroke-width="0.64">
 <g stroke-dasharray="none" stroke-dashoffset="0.0">
 <g stroke-linecap="round">
 <g stroke-linejoin="round">
 <path d=" M -1.55997 2.07996 C -1.42996 1.29997 0.0 0.12999 0.38998 0.0 C 0.0 -0.12999 -1.42996 -1.29997 -1.55997 -2.07996  " fill="none"/>
 </g>
 </g>
 </g>
 </g>
  </g>
 </g>
 </g>
 <g stroke-width="0.8">
 <g stroke="#0f0" fill="#0f0">
 <path d=" M 78.52376 75.39958 L 139.51105 40.18863  " fill="none"/>
 <g transform="matrix(0.86601,-0.49998,0.49998,0.86601,139.51103,40.18864)">
 <g stroke-width="0.64">
 <g stroke-dasharray="none" stroke-dashoffset="0.0">
 <g stroke-linecap="round">
 <g stroke-linejoin="round">
 <path d=" M -1.55997 2.07996 C -1.42996 1.29997 0.0 0.12999 0.38998 0.0 C 0.0 -0.12999 -1.42996 -1.29997 -1.55997 -2.07996  " fill="none"/>
 </g>
 </g>
 </g>
 </g>
  </g>
 </g>
 </g>
 <g stroke-width="0.8">
 <g stroke="#0f0" fill="#0f0">
 <path d=" M 75.39958 -7.3919 L 136.38687 27.81903  " fill="none"/>
 <g transform="matrix(0.86601,0.49998,-0.49998,0.86601,136.38686,27.81902)">
 <g stroke-width="0.64">
 <g stroke-dasharray="none" stroke-dashoffset="0.0">
 <g stroke-linecap="round">
 <g stroke-linejoin="round">
 <path d=" M -1.55997 2.07996 C -1.42996 1.29997 0.0 0.12999 0.38998 0.0 C 0.0 -0.12999 -1.42996 -1.29997 -1.55997 -2.07996  " fill="none"/>
 </g>
 </g>
 </g>
 </g>
  </g>
 </g>
 </g>
 <g stroke="#808080" fill="#808080">
 <path d=" M -61.60216 35.56592 L -20.53374 35.56537 L -30.80107 17.78296  " fill="none"/>
 </g>
 <g transform="translate(-40.14508,26.4154)">
 <g fill="#000">
 <text style="stroke:none" transform="scale(1,-1) translate(2.5,0)" text-anchor="middle"  font-size="10"> 
<g fill="#000">
 <g stroke="none"> 1</g> </g>
 </text> 
</g>
 </g>
 <g stroke="#808080" fill="#808080">
 <path d=" M 0.0 0.0 L -20.53374 35.56537 L -30.80107 17.78296  " fill="none"/>
 </g>
 <g transform="translate(-19.61133,14.56029)">
 <g fill="#000">
 <text style="stroke:none" transform="scale(1,-1) translate(2.5,0)" text-anchor="middle"  font-size="10"> 
<g fill="#000">
 <g stroke="none"> 2</g> </g>
 </text> 
</g>
 </g>
 <g stroke="#808080" fill="#808080">
 <path d=" M 0.0 0.0 L -20.53374 35.56537 L 0.0 35.56592  " fill="none"/>
 </g>
 <g transform="translate(-9.34447,20.48784)">
 <g fill="#000">
 <text style="stroke:none" transform="scale(1,-1) translate(2.5,0)" text-anchor="middle"  font-size="10"> 
<g fill="#000">
 <g stroke="none"> 3</g> </g>
 </text> 
</g>
 </g>
 <g stroke="#808080" fill="#808080">
 <path d=" M 0.0 71.13185 L -20.53374 35.56537 L 0.0 35.56592  " fill="none"/>
 </g>
 <g transform="translate(-9.34447,44.1981)">
 <g fill="#000">
 <text style="stroke:none" transform="scale(1,-1) translate(2.5,0)" text-anchor="middle"  font-size="10"> 
<g fill="#000">
 <g stroke="none"> 4</g> </g>
 </text> 
</g>
 </g>
 <g stroke="#808080" fill="#808080">
 <path d=" M 0.0 71.13185 L -20.53374 35.56537 L -30.80107 53.34888  " fill="none"/>
 </g>
 <g transform="translate(-19.61133,50.12566)">
 <g fill="#000">
 <text style="stroke:none" transform="scale(1,-1) translate(2.5,0)" text-anchor="middle"  font-size="10"> 
<g fill="#000">
 <g stroke="none"> 5</g> </g>
 </text> 
</g>
 </g>
 <g stroke="#808080" fill="#808080">
 <path d=" M -61.60216 35.56592 L -20.53374 35.56537 L -30.80107 53.34888  " fill="none"/>
 </g>
 <g transform="translate(-40.14508,38.27054)">
 <g fill="#000">
 <text style="stroke:none" transform="scale(1,-1) translate(2.5,0)" text-anchor="middle"  font-size="10"> 
<g fill="#000">
 <g stroke="none"> 6</g> </g>
 </text> 
</g>
 </g>
 <g stroke="#808080" fill="#808080">
 <path d=" M 0.0 71.13185 L 35.56592 35.56592 L 0.0 35.56592  " fill="none"/>
 </g>
 <g transform="translate(9.35512,44.19829)">
 <g fill="#000">
 <text style="stroke:none" transform="scale(1,-1) translate(2.5,0)" text-anchor="middle"  font-size="10"> 
<g fill="#000">
 <g stroke="none"> 7</g> </g>
 </text> 
</g>
 </g>
 <g stroke="#808080" fill="#808080">
 <path d=" M 0.0 0.0 L 35.56592 35.56592 L 0.0 35.56592  " fill="none"/>
 </g>
 <g transform="translate(9.35512,20.48802)">
 <g fill="#000">
 <text style="stroke:none" transform="scale(1,-1) translate(2.5,0)" text-anchor="middle"  font-size="10"> 
<g fill="#000">
 <g stroke="none"> 8</g> </g>
 </text> 
</g>
 </g>
 <g stroke="#808080" fill="#808080">
 <path d=" M 0.0 0.0 L 35.56592 35.56592 L 35.56592 0.0  " fill="none"/>
 </g>
 <g transform="translate(21.21024,8.6329)">
 <g fill="#000">
 <text style="stroke:none" transform="scale(1,-1) translate(2.5,0)" text-anchor="middle"  font-size="10"> 
<g fill="#000">
 <g stroke="none"> 9</g> </g>
 </text> 
</g>
 </g>
 <g stroke="#808080" fill="#808080">
 <path d=" M 71.13185 0.0 L 35.56592 35.56592 L 35.56592 0.0  " fill="none"/>
 </g>
 <g transform="translate(42.42049,8.6329)">
 <g fill="#000">
 <text style="stroke:none" transform="scale(1,-1) translate(5.00002,0)" text-anchor="middle"  font-size="10"> 
<g fill="#000">
 <g stroke="none"> 10</g> </g>
 </text> 
</g>
 </g>
 <g stroke="#808080" fill="#808080">
 <path d=" M 71.13185 0.0 L 35.56592 35.56592 L 71.13184 35.56592  " fill="none"/>
 </g>
 <g transform="translate(54.2756,20.48802)">
 <g fill="#000">
 <text style="stroke:none" transform="scale(1,-1) translate(5.00002,0)" text-anchor="middle"  font-size="10"> 
<g fill="#000">
 <g stroke="none"> 11</g> </g>
 </text> 
</g>
 </g>
 <g stroke="#808080" fill="#808080">
 <path d=" M 71.13185 71.13185 L 35.56592 35.56592 L 71.13184 35.56592  " fill="none"/>
 </g>
 <g transform="translate(54.2756,44.19829)">
 <g fill="#000">
 <text style="stroke:none" transform="scale(1,-1) translate(5.00002,0)" text-anchor="middle"  font-size="10"> 
<g fill="#000">
 <g stroke="none"> 12</g> </g>
 </text> 
</g>
 </g>
 <g stroke="#808080" fill="#808080">
 <path d=" M 71.13185 71.13185 L 35.56592 35.56592 L 35.56592 71.13184  " fill="none"/>
 </g>
 <g transform="translate(42.42049,56.0534)">
 <g fill="#000">
 <text style="stroke:none" transform="scale(1,-1) translate(5.00002,0)" text-anchor="middle"  font-size="10"> 
<g fill="#000">
 <g stroke="none"> 13</g> </g>
 </text> 
</g>
 </g>
 <g stroke="#808080" fill="#808080">
 <path d=" M 0.0 71.13185 L 35.56592 35.56592 L 35.56592 71.13184  " fill="none"/>
 </g>
 <g transform="translate(18.71022,56.0534)">
 <g fill="#000">
 <text style="stroke:none" transform="scale(1,-1) translate(5.00002,0)" text-anchor="middle"  font-size="10"> 
<g fill="#000">
 <g stroke="none"> 14</g> </g>
 </text> 
</g>
 </g>
 <g stroke="#808080" fill="#808080">
 <path d=" M 71.13185 71.13185 L 91.6645 35.56537 L 71.13184 35.56592  " fill="none"/>
 </g>
 <g transform="translate(72.97485,44.1981)">
 <g fill="#000">
 <text style="stroke:none" transform="scale(1,-1) translate(5.00002,0)" text-anchor="middle"  font-size="10"> 
<g fill="#000">
 <g stroke="none"> 15</g> </g>
 </text> 
</g>
 </g>
 <g stroke="#808080" fill="#808080">
 <path d=" M 71.13185 0.0 L 91.6645 35.56537 L 71.13184 35.56592  " fill="none"/>
 </g>
 <g transform="translate(72.97485,20.48784)">
 <g fill="#000">
 <text style="stroke:none" transform="scale(1,-1) translate(5.00002,0)" text-anchor="middle"  font-size="10"> 
<g fill="#000">
 <g stroke="none"> 16</g> </g>
 </text> 
</g>
 </g>
 <g stroke="#808080" fill="#808080">
 <path d=" M 71.13185 0.0 L 91.6645 35.56537 L 101.93292 17.78296  " fill="none"/>
 </g>
 <g transform="translate(83.24173,14.56029)">
 <g fill="#000">
 <text style="stroke:none" transform="scale(1,-1) translate(5.00002,0)" text-anchor="middle"  font-size="10"> 
<g fill="#000">
 <g stroke="none"> 17</g> </g>
 </text> 
</g>
 </g>
 <g stroke="#808080" fill="#808080">
 <path d=" M 132.73401 35.56592 L 91.6645 35.56537 L 101.93292 17.78296  " fill="none"/>
 </g>
 <g transform="translate(103.77547,26.4154)">
 <g fill="#000">
 <text style="stroke:none" transform="scale(1,-1) translate(5.00002,0)" text-anchor="middle"  font-size="10"> 
<g fill="#000">
 <g stroke="none"> 18</g> </g>
 </text> 
</g>
 </g>
 <g stroke="#808080" fill="#808080">
 <path d=" M 132.73401 35.56592 L 91.6645 35.56537 L 101.93292 53.34888  " fill="none"/>
 </g>
 <g transform="translate(103.77547,38.27054)">
 <g fill="#000">
 <text style="stroke:none" transform="scale(1,-1) translate(5.00002,0)" text-anchor="middle"  font-size="10"> 
<g fill="#000">
 <g stroke="none"> 19</g> </g>
 </text> 
</g>
 </g>
 <g stroke="#808080" fill="#808080">
 <path d=" M 71.13185 71.13185 L 91.6645 35.56537 L 101.93292 53.34888  " fill="none"/>
 </g>
 <g transform="translate(83.24173,50.12566)">
 <g fill="#000">
 <text style="stroke:none" transform="scale(1,-1) translate(5.00002,0)" text-anchor="middle"  font-size="10"> 
<g fill="#000">
 <g stroke="none"> 20</g> </g>
 </text> 
</g>
 </g>
 <g stroke="#808080" fill="#808080">
 <path d=" M 71.13185 0.0 L 35.56537 -20.53374 L 35.56592 0.0  " fill="none"/>
 </g>
 <g transform="translate(42.4203,-10.06668)">
 <g fill="#000">
 <text style="stroke:none" transform="scale(1,-1) translate(5.00002,0)" text-anchor="middle"  font-size="10"> 
<g fill="#000">
 <g stroke="none"> 21</g> </g>
 </text> 
</g>
 </g>
 <g stroke="#808080" fill="#808080">
 <path d=" M 0.0 0.0 L 35.56537 -20.53374 L 35.56592 0.0  " fill="none"/>
 </g>
 <g transform="translate(18.71004,-10.06668)">
 <g fill="#000">
 <text style="stroke:none" transform="scale(1,-1) translate(5.00002,0)" text-anchor="middle"  font-size="10"> 
<g fill="#000">
 <g stroke="none"> 22</g> </g>
 </text> 
</g>
 </g>
 <g stroke="#808080" fill="#808080">
 <path d=" M 0.0 0.0 L 35.56537 -20.53374 L 17.78296 -30.80107  " fill="none"/>
 </g>
 <g transform="translate(12.78249,-20.33354)">
 <g fill="#000">
 <text style="stroke:none" transform="scale(1,-1) translate(5.00002,0)" text-anchor="middle"  font-size="10"> 
<g fill="#000">
 <g stroke="none"> 23</g> </g>
 </text> 
</g>
 </g>
 <g stroke="#808080" fill="#808080">
 <path d=" M 35.56592 -61.60216 L 35.56537 -20.53374 L 17.78296 -30.80107  " fill="none"/>
 </g>
 <g transform="translate(24.6376,-40.8673)">
 <g fill="#000">
 <text style="stroke:none" transform="scale(1,-1) translate(5.00002,0)" text-anchor="middle"  font-size="10"> 
<g fill="#000">
 <g stroke="none"> 24</g> </g>
 </text> 
</g>
 </g>
 <g stroke="#808080" fill="#808080">
 <path d=" M 35.56592 -61.60216 L 35.56537 -20.53374 L 53.34888 -30.80107  " fill="none"/>
 </g>
 <g transform="translate(36.49274,-40.8673)">
 <g fill="#000">
 <text style="stroke:none" transform="scale(1,-1) translate(5.00002,0)" text-anchor="middle"  font-size="10"> 
<g fill="#000">
 <g stroke="none"> 25</g> </g>
 </text> 
</g>
 </g>
 <g stroke="#808080" fill="#808080">
 <path d=" M 71.13185 0.0 L 35.56537 -20.53374 L 53.34888 -30.80107  " fill="none"/>
 </g>
 <g transform="translate(48.34785,-20.33354)">
 <g fill="#000">
 <text style="stroke:none" transform="scale(1,-1) translate(5.00002,0)" text-anchor="middle"  font-size="10"> 
<g fill="#000">
 <g stroke="none"> 26</g> </g>
 </text> 
</g>
 </g>
 <g transform="translate(-30.80107,17.78296)">
 <g fill="#000">
 <text style="stroke:none" transform="scale(1,-1) translate(0.0,0)" text-anchor="middle"  font-size="10"> 
<g fill="#000">
 <g stroke="none"> </g> </g>
 </text> 
</g>
 </g>
 <g transform="translate(-30.80107,53.34888)">
 <g fill="#000">
 <text style="stroke:none" transform="scale(1,-1) translate(0.0,0)" text-anchor="middle"  font-size="10"> 
<g fill="#000">
 <g stroke="none"> </g> </g>
 </text> 
</g>
 </g>
 <g transform="translate(0.0,35.56592)">
 <g fill="#000">
 <text style="stroke:none" transform="scale(1,-1) translate(0.0,0)" text-anchor="middle"  font-size="10"> 
<g fill="#000">
 <g stroke="none"> </g> </g>
 </text> 
</g>
 </g>
 <g transform="translate(35.56592,71.13184)">
 <g fill="#000">
 <text style="stroke:none" transform="scale(1,-1) translate(0.0,0)" text-anchor="middle"  font-size="10"> 
<g fill="#000">
 <g stroke="none"> </g> </g>
 </text> 
</g>
 </g>
 <g transform="translate(35.56592,0.0)">
 <g fill="#000">
 <text style="stroke:none" transform="scale(1,-1) translate(0.0,0)" text-anchor="middle"  font-size="10"> 
<g fill="#000">
 <g stroke="none"> </g> </g>
 </text> 
</g>
 </g>
 <g transform="translate(71.13184,35.56592)">
 <g fill="#000">
 <text style="stroke:none" transform="scale(1,-1) translate(0.0,0)" text-anchor="middle"  font-size="10"> 
<g fill="#000">
 <g stroke="none"> </g> </g>
 </text> 
</g>
 </g>
 <g transform="translate(101.93292,53.34888)">
 <g fill="#000">
 <text style="stroke:none" transform="scale(1,-1) translate(0.0,0)" text-anchor="middle"  font-size="10"> 
<g fill="#000">
 <g stroke="none"> </g> </g>
 </text> 
</g>
 </g>
 <g transform="translate(101.93292,17.78296)">
 <g fill="#000">
 <text style="stroke:none" transform="scale(1,-1) translate(0.0,0)" text-anchor="middle"  font-size="10"> 
<g fill="#000">
 <g stroke="none"> </g> </g>
 </text> 
</g>
 </g>
 <g transform="translate(17.78296,-30.80107)">
 <g fill="#000">
 <text style="stroke:none" transform="scale(1,-1) translate(0.0,0)" text-anchor="middle"  font-size="10"> 
<g fill="#000">
 <g stroke="none"> </g> </g>
 </text> 
</g>
 </g>
 <g transform="translate(53.34888,-30.80107)">
 <g fill="#000">
 <text style="stroke:none" transform="scale(1,-1) translate(0.0,0)" text-anchor="middle"  font-size="10"> 
<g fill="#000">
 <g stroke="none"> </g> </g>
 </text> 
</g>
 </g>
 <g fill="#00f">
 <g fill="#00f">
 <path d=" M -59.60216 35.56592 C -59.60216 36.6705 -60.49757 37.56592 -61.60216 37.56592 C -62.70674 37.56592 -63.60216 36.6705 -63.60216 35.56592 C -63.60216 34.46133 -62.70674 33.56592 -61.60216 33.56592 C -60.49757 33.56592 -59.60216 34.46133 -59.60216 35.56592 Z M -61.60216 35.56592  " stroke="none"/>
 </g>
 <g transform="translate(-61.60216,35.56592)">
 <g fill="#000">
 <text style="stroke:none" transform="scale(1,-1) translate(0.0,0)" text-anchor="middle"  font-size="10"> 
<g fill="#000">
 <g stroke="none"> </g> </g>
 </text> 
</g>
 </g>
 </g>
 <g transform="translate(-65.13513,35.56592)">
 <g fill="#000">
 <text style="stroke:none" transform="scale(1,-1) translate(0.0,0)" text-anchor="middle"  font-size="10"> 
<g fill="#000">
 <g stroke="none"> </g> </g>
 </text> 
</g>
 </g>
 <g fill="#00f">
 <g fill="#00f">
 <path d=" M 2.0 71.13185 C 2.0 72.23643 1.10458 73.13185 0.0 73.13185 C -1.10458 73.13185 -2.0 72.23643 -2.0 71.13185 C -2.0 70.02727 -1.10458 69.13185 0.0 69.13185 C 1.10458 69.13185 2.0 70.02727 2.0 71.13185 Z M 0.0 71.13185  " stroke="none"/>
 </g>
 <g transform="translate(0.0,71.13185)">
 <g fill="#000">
 <text style="stroke:none" transform="scale(1,-1) translate(0.0,0)" text-anchor="middle"  font-size="10"> 
<g fill="#000">
 <g stroke="none"> </g> </g>
 </text> 
</g>
 </g>
 </g>
 <g transform="translate(0.0,74.66483)">
 <g fill="#000">
 <text style="stroke:none" transform="scale(1,-1) translate(0.0,0)" text-anchor="middle"  font-size="10"> 
<g fill="#000">
 <g stroke="none"> </g> </g>
 </text> 
</g>
 </g>
 <g fill="#00f">
 <g fill="#00f">
 <path d=" M 73.13185 71.13185 C 73.13185 72.23643 72.23643 73.13185 71.13185 73.13185 C 70.02727 73.13185 69.13185 72.23643 69.13185 71.13185 C 69.13185 70.02727 70.02727 69.13185 71.13185 69.13185 C 72.23643 69.13185 73.13185 70.02727 73.13185 71.13185 Z M 71.13185 71.13185  " stroke="none"/>
 </g>
 <g transform="translate(71.13185,71.13185)">
 <g fill="#000">
 <text style="stroke:none" transform="scale(1,-1) translate(0.0,0)" text-anchor="middle"  font-size="10"> 
<g fill="#000">
 <g stroke="none"> </g> </g>
 </text> 
</g>
 </g>
 </g>
 <g transform="translate(71.13185,74.66483)">
 <g fill="#000">
 <text style="stroke:none" transform="scale(1,-1) translate(0.0,0)" text-anchor="middle"  font-size="10"> 
<g fill="#000">
 <g stroke="none"> </g> </g>
 </text> 
</g>
 </g>
 <g fill="#00f">
 <g fill="#00f">
 <path d=" M 134.73401 35.56592 C 134.73401 36.6705 133.8386 37.56592 132.73401 37.56592 C 131.62943 37.56592 130.73401 36.6705 130.73401 35.56592 C 130.73401 34.46133 131.62943 33.56592 132.73401 33.56592 C 133.8386 33.56592 134.73401 34.46133 134.73401 35.56592 Z M 132.73401 35.56592  " stroke="none"/>
 </g>
 <g transform="translate(132.73401,35.56592)">
 <g fill="#000">
 <text style="stroke:none" transform="scale(1,-1) translate(0.0,0)" text-anchor="middle"  font-size="10"> 
<g fill="#000">
 <g stroke="none"> </g> </g>
 </text> 
</g>
 </g>
 </g>
 <g transform="translate(136.26698,35.56592)">
 <g fill="#000">
 <text style="stroke:none" transform="scale(1,-1) translate(0.0,0)" text-anchor="middle"  font-size="10"> 
<g fill="#000">
 <g stroke="none"> </g> </g>
 </text> 
</g>
 </g>
 <g fill="#00f">
 <g fill="#00f">
 <path d=" M 2.0 0.0 C 2.0 1.10458 1.10458 2.0 0.0 2.0 C -1.10458 2.0 -2.0 1.10458 -2.0 0.0 C -2.0 -1.10458 -1.10458 -2.0 0.0 -2.0 C 1.10458 -2.0 2.0 -1.10458 2.0 0.0 Z M 0.0 0.0  " stroke="none"/>
 </g>
 <g fill="#000">
 <text style="stroke:none" transform="scale(1,-1) translate(0.0,0)" text-anchor="middle"  font-size="10"> 
<g fill="#000">
 <g stroke="none"> </g> </g>
 </text> 
</g>
 </g>
 <g transform="translate(0.0,-3.53297)">
 <g fill="#000">
 <text style="stroke:none" transform="scale(1,-1) translate(0.0,0)" text-anchor="middle"  font-size="10"> 
<g fill="#000">
 <g stroke="none"> </g> </g>
 </text> 
</g>
 </g>
 <g fill="#00f">
 <g fill="#00f">
 <path d=" M 73.13185 0.0 C 73.13185 1.10458 72.23643 2.0 71.13185 2.0 C 70.02727 2.0 69.13185 1.10458 69.13185 0.0 C 69.13185 -1.10458 70.02727 -2.0 71.13185 -2.0 C 72.23643 -2.0 73.13185 -1.10458 73.13185 0.0 Z M 71.13185 0.0  " stroke="none"/>
 </g>
 <g transform="translate(71.13185,0.0)">
 <g fill="#000">
 <text style="stroke:none" transform="scale(1,-1) translate(0.0,0)" text-anchor="middle"  font-size="10"> 
<g fill="#000">
 <g stroke="none"> </g> </g>
 </text> 
</g>
 </g>
 </g>
 <g transform="translate(71.13185,-3.53297)">
 <g fill="#000">
 <text style="stroke:none" transform="scale(1,-1) translate(0.0,0)" text-anchor="middle"  font-size="10"> 
<g fill="#000">
 <g stroke="none"> </g> </g>
 </text> 
</g>
 </g>
 <g fill="#00f">
 <g fill="#00f">
 <path d=" M 37.56592 -61.60216 C 37.56592 -60.49757 36.6705 -59.60216 35.56592 -59.60216 C 34.46133 -59.60216 33.56592 -60.49757 33.56592 -61.60216 C 33.56592 -62.70674 34.46133 -63.60216 35.56592 -63.60216 C 36.6705 -63.60216 37.56592 -62.70674 37.56592 -61.60216 Z M 35.56592 -61.60216  " stroke="none"/>
 </g>
 <g transform="translate(35.56592,-61.60216)">
 <g fill="#000">
 <text style="stroke:none" transform="scale(1,-1) translate(0.0,0)" text-anchor="middle"  font-size="10"> 
<g fill="#000">
 <g stroke="none"> </g> </g>
 </text> 
</g>
 </g>
 </g>
 <g transform="translate(35.56592,-65.13513)">
 <g fill="#000">
 <text style="stroke:none" transform="scale(1,-1) translate(0.0,0)" text-anchor="middle"  font-size="10"> 
<g fill="#000">
 <g stroke="none"> </g> </g>
 </text> 
</g>
 </g>
 <g transform="translate(-20.53374,35.56537)">
 <g fill="#000">
 <text style="stroke:none" transform="scale(1,-1) translate(0.0,0)" text-anchor="middle"  font-size="10"> 
<g fill="#000">
 <g stroke="none"> </g> </g>
 </text> 
</g>
 </g>
 <g transform="translate(35.56592,35.56592)">
 <g fill="#000">
 <text style="stroke:none" transform="scale(1,-1) translate(0.0,0)" text-anchor="middle"  font-size="10"> 
<g fill="#000">
 <g stroke="none"> </g> </g>
 </text> 
</g>
 </g>
 <g transform="translate(91.6645,35.56537)">
 <g fill="#000">
 <text style="stroke:none" transform="scale(1,-1) translate(0.0,0)" text-anchor="middle"  font-size="10"> 
<g fill="#000">
 <g stroke="none"> </g> </g>
 </text> 
</g>
 </g>
 <g transform="translate(35.56537,-20.53374)">
 <g fill="#000">
 <text style="stroke:none" transform="scale(1,-1) translate(0.0,0)" text-anchor="middle"  font-size="10"> 
<g fill="#000">
 <g stroke="none"> </g> </g>
 </text> 
</g>
 </g>
 </g>
 </g>
 
                                        </g> 
</svg> 
