<?xml version="1.0" encoding="iso-8859-1" standalone="no"?> 
<?xml-stylesheet href="_Wrapper__TIKZ_Cube_edgeColouredGlobal.css" type="text/css"?> 
<svg xmlns="http://www.w3.org/2000/svg" xmlns:xlink="http://www.w3.org/1999/xlink" width="243.53784pt" height="183.1824pt" viewBox="-64.86343 -63.13846 243.53784 183.1824 "> 
<g transform="translate(0,120.04395 ) scale(1,-1) translate(0,63.13846 )"> 
            <g stroke="#000" fill="#000">
 <g stroke-width="0.4">
 <g fill="#ff6">
 <path d=" M 56.90549 0.0 L 56.90549 56.90549 L 0.0 56.90549 L 0.0 0.0 Z  " stroke="none"/>
 </g>
 <g transform="translate(25.95273,25.23051)">
 <g fill="#000">
 <text style="stroke:none" transform="scale(1,-1) translate(2.5,0)" text-anchor="middle"  font-size="10"> 
<g fill="#000">
 <g stroke="none"> 1</g> </g>
 </text> 
</g>
 </g>
 <g fill="#ff6">
 <path d=" M 0.0 0.0 L 0.0 -56.90549 L 56.90549 -56.90549 L 56.90549 0.0 Z  " stroke="none"/>
 </g>
 <g transform="translate(25.95273,-31.67494)">
 <g fill="#000">
 <text style="stroke:none" transform="scale(1,-1) translate(2.5,0)" text-anchor="middle"  font-size="10"> 
<g fill="#000">
 <g stroke="none"> 3</g> </g>
 </text> 
</g>
 </g>
 <g fill="#ff6">
 <path d=" M 56.90549 0.0 L 113.81097 0.0 L 113.81097 56.90549 L 56.90549 56.90549 Z  " stroke="none"/>
 </g>
 <g transform="translate(82.85822,25.23051)">
 <g fill="#000">
 <text style="stroke:none" transform="scale(1,-1) translate(2.5,0)" text-anchor="middle"  font-size="10"> 
<g fill="#000">
 <g stroke="none"> 4</g> </g>
 </text> 
</g>
 </g>
 <g fill="#ff6">
 <path d=" M 0.0 56.90549 L -56.90549 56.90549 L -56.90549 0.0 L 0.0 0.0 Z  " stroke="none"/>
 </g>
 <g transform="translate(-30.95273,25.23051)">
 <g fill="#000">
 <text style="stroke:none" transform="scale(1,-1) translate(2.5,0)" text-anchor="middle"  font-size="10"> 
<g fill="#000">
 <g stroke="none"> 5</g> </g>
 </text> 
</g>
 </g>
 <g fill="#ff6">
 <path d=" M 56.90549 56.90549 L 56.90549 113.81097 L 0.0 113.81097 L 0.0 56.90549 Z  " stroke="none"/>
 </g>
 <g transform="translate(25.95273,82.136)">
 <g fill="#000">
 <text style="stroke:none" transform="scale(1,-1) translate(2.5,0)" text-anchor="middle"  font-size="10"> 
<g fill="#000">
 <g stroke="none"> 6</g> </g>
 </text> 
</g>
 </g>
 <g fill="#ff6">
 <path d=" M 113.81097 0.0 L 170.71646 0.0 L 170.71646 56.90549 L 113.81097 56.90549 Z  " stroke="none"/>
 </g>
 <g transform="translate(139.7637,25.23051)">
 <g fill="#000">
 <text style="stroke:none" transform="scale(1,-1) translate(2.5,0)" text-anchor="middle"  font-size="10"> 
<g fill="#000">
 <g stroke="none"> 7</g> </g>
 </text> 
</g>
 </g>
 <g stroke-width="0.2">
 <g stroke-linejoin="round">
 <g stroke-width="1.2">
 <path d=" M 56.90549 0.0 L 0.0 0.0  " fill="none"/>
 <g stroke-width="0.8">
 <g stroke="#f00">
 <path d=" M 56.90549 0.0 L 0.0 0.0  " fill="none"/>
 </g>
 </g>
 </g>
 <g fill="#ccf">
 <g fill="#ccf">
 <path d=" M 22.8073 -6.23297 h 11.29092 v 12.46594 h -11.29092 Z  " stroke="none"/>
 </g>
 <g transform="translate(26.14027,-2.9)">
 <g fill="#000">
 <text style="stroke:none" transform="scale(1,-1) translate(2.31248,0)" text-anchor="middle"  font-size="10"> 
<g fill="#000">
 <g stroke="none"> <tspan font-family="cmr" font-size="9">1</tspan> </g> </g>
 </text> 
</g>
 </g>
 </g>
 </g>
 </g>
 <g stroke-width="0.2">
 <g stroke-linejoin="round">
 <g stroke-width="1.2">
 <path d=" M 56.90549 56.90549 L 56.90549 0.0  " fill="none"/>
 <g stroke-width="0.8">
 <g stroke="#f00">
 <path d=" M 56.90549 56.90549 L 56.90549 0.0  " fill="none"/>
 </g>
 </g>
 </g>
 <g fill="#ccf">
 <g fill="#ccf">
 <path d=" M 51.26003 22.21979 h 11.29092 v 12.46594 h -11.29092 Z  " stroke="none"/>
 </g>
 <g transform="translate(54.593,25.55276)">
 <g fill="#000">
 <text style="stroke:none" transform="scale(1,-1) translate(2.31248,0)" text-anchor="middle"  font-size="10"> 
<g fill="#000">
 <g stroke="none"> <tspan font-family="cmr" font-size="9">2</tspan> </g> </g>
 </text> 
</g>
 </g>
 </g>
 </g>
 </g>
 <g stroke-width="0.2">
 <g stroke-linejoin="round">
 <g stroke-width="1.2">
 <path d=" M 0.0 56.90549 L 56.90549 56.90549  " fill="none"/>
 <g stroke-width="0.8">
 <g stroke="#f00">
 <path d=" M 0.0 56.90549 L 56.90549 56.90549  " fill="none"/>
 </g>
 </g>
 </g>
 <g fill="#ccf">
 <g fill="#ccf">
 <path d=" M 22.80727 50.67252 h 11.29092 v 12.46594 h -11.29092 Z  " stroke="none"/>
 </g>
 <g transform="translate(26.14024,54.0055)">
 <g fill="#000">
 <text style="stroke:none" transform="scale(1,-1) translate(2.31248,0)" text-anchor="middle"  font-size="10"> 
<g fill="#000">
 <g stroke="none"> <tspan font-family="cmr" font-size="9">3</tspan> </g> </g>
 </text> 
</g>
 </g>
 </g>
 </g>
 </g>
 <g stroke-width="0.2">
 <g stroke-linejoin="round">
 <g stroke-width="1.2">
 <path d=" M 0.0 0.0 L 0.0 56.90549  " fill="none"/>
 <g stroke-width="0.8">
 <g stroke="#f00">
 <path d=" M 0.0 0.0 L 0.0 56.90549  " fill="none"/>
 </g>
 </g>
 </g>
 <g fill="#ccf">
 <g fill="#ccf">
 <path d=" M -5.64546 22.21976 h 11.29092 v 12.46594 h -11.29092 Z  " stroke="none"/>
 </g>
 <g transform="translate(-2.31248,25.55273)">
 <g fill="#000">
 <text style="stroke:none" transform="scale(1,-1) translate(2.31248,0)" text-anchor="middle"  font-size="10"> 
<g fill="#000">
 <g stroke="none"> <tspan font-family="cmr" font-size="9">4</tspan> </g> </g>
 </text> 
</g>
 </g>
 </g>
 </g>
 </g>
 <g stroke-width="0.2">
 <g stroke-linejoin="round">
 <g stroke-width="1.2">
 <path d=" M 56.90549 0.0 L 56.90549 -56.90549  " fill="none"/>
 <g stroke-width="0.8">
 <g stroke="#f00">
 <path d=" M 56.90549 0.0 L 56.90549 -56.90549  " fill="none"/>
 </g>
 </g>
 </g>
 <g fill="#ccf">
 <g fill="#ccf">
 <path d=" M 51.26003 -34.6857 h 11.29092 v 12.46594 h -11.29092 Z  " stroke="none"/>
 </g>
 <g transform="translate(54.593,-31.35272)">
 <g fill="#000">
 <text style="stroke:none" transform="scale(1,-1) translate(2.31248,0)" text-anchor="middle"  font-size="10"> 
<g fill="#000">
 <g stroke="none"> <tspan font-family="cmr" font-size="9">5</tspan> </g> </g>
 </text> 
</g>
 </g>
 </g>
 </g>
 </g>
 <g stroke-width="0.2">
 <g stroke-linejoin="round">
 <g stroke-width="1.2">
 <path d=" M 113.81097 0.0 L 56.90549 0.0  " fill="none"/>
 <g stroke-width="0.8">
 <g stroke="#f00">
 <path d=" M 113.81097 0.0 L 56.90549 0.0  " fill="none"/>
 </g>
 </g>
 </g>
 <g fill="#ccf">
 <g fill="#ccf">
 <path d=" M 79.71278 -6.23297 h 11.29092 v 12.46594 h -11.29092 Z  " stroke="none"/>
 </g>
 <g transform="translate(83.04576,-2.9)">
 <g fill="#000">
 <text style="stroke:none" transform="scale(1,-1) translate(2.31248,0)" text-anchor="middle"  font-size="10"> 
<g fill="#000">
 <g stroke="none"> <tspan font-family="cmr" font-size="9">5</tspan> </g> </g>
 </text> 
</g>
 </g>
 </g>
 </g>
 </g>
 <g stroke-width="0.2">
 <g stroke-linejoin="round">
 <g stroke-width="1.2">
 <path d=" M 56.90549 56.90549 L 113.81097 56.90549  " fill="none"/>
 <g stroke-width="0.8">
 <g stroke="#f00">
 <path d=" M 56.90549 56.90549 L 113.81097 56.90549  " fill="none"/>
 </g>
 </g>
 </g>
 <g fill="#ccf">
 <g fill="#ccf">
 <path d=" M 79.71275 50.67252 h 11.29092 v 12.46594 h -11.29092 Z  " stroke="none"/>
 </g>
 <g transform="translate(83.04573,54.0055)">
 <g fill="#000">
 <text style="stroke:none" transform="scale(1,-1) translate(2.31248,0)" text-anchor="middle"  font-size="10"> 
<g fill="#000">
 <g stroke="none"> <tspan font-family="cmr" font-size="9">7</tspan> </g> </g>
 </text> 
</g>
 </g>
 </g>
 </g>
 </g>
 <g stroke-width="0.2">
 <g stroke-linejoin="round">
 <g stroke-width="1.2">
 <path d=" M 56.90549 113.81097 L 56.90549 56.90549  " fill="none"/>
 <g stroke-width="0.8">
 <g stroke="#f00">
 <path d=" M 56.90549 113.81097 L 56.90549 56.90549  " fill="none"/>
 </g>
 </g>
 </g>
 <g fill="#ccf">
 <g fill="#ccf">
 <path d=" M 51.26003 79.12527 h 11.29092 v 12.46594 h -11.29092 Z  " stroke="none"/>
 </g>
 <g transform="translate(54.593,82.45825)">
 <g fill="#000">
 <text style="stroke:none" transform="scale(1,-1) translate(2.31248,0)" text-anchor="middle"  font-size="10"> 
<g fill="#000">
 <g stroke="none"> <tspan font-family="cmr" font-size="9">7</tspan> </g> </g>
 </text> 
</g>
 </g>
 </g>
 </g>
 </g>
 <g stroke-width="0.2">
 <g stroke-linejoin="round">
 <g stroke-width="1.2">
 <path d=" M 0.0 56.90549 L 0.0 113.81097  " fill="none"/>
 <g stroke-width="0.8">
 <g stroke="#f00">
 <path d=" M 0.0 56.90549 L 0.0 113.81097  " fill="none"/>
 </g>
 </g>
 </g>
 <g fill="#ccf">
 <g fill="#ccf">
 <path d=" M -5.64546 79.12524 h 11.29092 v 12.46594 h -11.29092 Z  " stroke="none"/>
 </g>
 <g transform="translate(-2.31248,82.45822)">
 <g fill="#000">
 <text style="stroke:none" transform="scale(1,-1) translate(2.31248,0)" text-anchor="middle"  font-size="10"> 
<g fill="#000">
 <g stroke="none"> <tspan font-family="cmr" font-size="9">8</tspan> </g> </g>
 </text> 
</g>
 </g>
 </g>
 </g>
 </g>
 <g stroke-width="0.2">
 <g stroke-linejoin="round">
 <g stroke-width="1.2">
 <path d=" M -56.90549 56.90549 L 0.0 56.90549  " fill="none"/>
 <g stroke-width="0.8">
 <g stroke="#f00">
 <path d=" M -56.90549 56.90549 L 0.0 56.90549  " fill="none"/>
 </g>
 </g>
 </g>
 <g fill="#ccf">
 <g fill="#ccf">
 <path d=" M -34.09822 50.67252 h 11.29092 v 12.46594 h -11.29092 Z  " stroke="none"/>
 </g>
 <g transform="translate(-30.76524,54.0055)">
 <g fill="#000">
 <text style="stroke:none" transform="scale(1,-1) translate(2.31248,0)" text-anchor="middle"  font-size="10"> 
<g fill="#000">
 <g stroke="none"> <tspan font-family="cmr" font-size="9">8</tspan> </g> </g>
 </text> 
</g>
 </g>
 </g>
 </g>
 </g>
 <g stroke-width="0.2">
 <g stroke-linejoin="round">
 <g stroke-width="1.2">
 <path d=" M 0.0 -56.90549 L 0.0 0.0  " fill="none"/>
 <g stroke-width="0.8">
 <g stroke="#f00">
 <path d=" M 0.0 -56.90549 L 0.0 0.0  " fill="none"/>
 </g>
 </g>
 </g>
 <g fill="#ccf">
 <g fill="#ccf">
 <path d=" M -5.64546 -34.68573 h 11.29092 v 12.46594 h -11.29092 Z  " stroke="none"/>
 </g>
 <g transform="translate(-2.31248,-31.35275)">
 <g fill="#000">
 <text style="stroke:none" transform="scale(1,-1) translate(2.31248,0)" text-anchor="middle"  font-size="10"> 
<g fill="#000">
 <g stroke="none"> <tspan font-family="cmr" font-size="9">9</tspan> </g> </g>
 </text> 
</g>
 </g>
 </g>
 </g>
 </g>
 <g stroke-width="0.2">
 <g stroke-linejoin="round">
 <g stroke-width="1.2">
 <path d=" M 0.0 0.0 L -56.90549 0.0  " fill="none"/>
 <g stroke-width="0.8">
 <g stroke="#f00">
 <path d=" M 0.0 0.0 L -56.90549 0.0  " fill="none"/>
 </g>
 </g>
 </g>
 <g fill="#ccf">
 <g fill="#ccf">
 <path d=" M -34.09819 -6.23297 h 11.29092 v 12.46594 h -11.29092 Z  " stroke="none"/>
 </g>
 <g transform="translate(-30.76521,-2.9)">
 <g fill="#000">
 <text style="stroke:none" transform="scale(1,-1) translate(2.31248,0)" text-anchor="middle"  font-size="10"> 
<g fill="#000">
 <g stroke="none"> <tspan font-family="cmr" font-size="9">9</tspan> </g> </g>
 </text> 
</g>
 </g>
 </g>
 </g>
 </g>
 <g stroke-width="0.2">
 <g stroke-linejoin="round">
 <g stroke-width="1.2">
 <path d=" M 113.81097 56.90549 L 113.81097 0.0  " fill="none"/>
 <g stroke-width="0.8">
 <g stroke="#f00">
 <path d=" M 113.81097 56.90549 L 113.81097 0.0  " fill="none"/>
 </g>
 </g>
 </g>
 <g fill="#ccf">
 <g fill="#ccf">
 <path d=" M 105.85303 22.21979 h 15.9159 v 12.46594 h -15.9159 Z  " stroke="none"/>
 </g>
 <g transform="translate(109.186,25.55276)">
 <g fill="#000">
 <text style="stroke:none" transform="scale(1,-1) translate(4.62497,0)" text-anchor="middle"  font-size="10"> 
<g fill="#000">
 <g stroke="none"> <tspan font-family="cmr" font-size="9">10</tspan></g> </g>
 </text> 
</g>
 </g>
 </g>
 </g>
 </g>
 <g stroke-width="0.2">
 <g stroke-linejoin="round">
 <g stroke-width="1.2">
 <path d=" M 0.0 113.81097 L 56.90549 113.81097  " fill="none"/>
 <g stroke-width="0.8">
 <g stroke="#f00">
 <path d=" M 0.0 113.81097 L 56.90549 113.81097  " fill="none"/>
 </g>
 </g>
 </g>
 <g fill="#ccf">
 <g fill="#ccf">
 <path d=" M 20.49478 107.578 h 15.9159 v 12.46594 h -15.9159 Z  " stroke="none"/>
 </g>
 <g transform="translate(23.82776,110.91098)">
 <g fill="#000">
 <text style="stroke:none" transform="scale(1,-1) translate(4.62497,0)" text-anchor="middle"  font-size="10"> 
<g fill="#000">
 <g stroke="none"> <tspan font-family="cmr" font-size="9">11</tspan></g> </g>
 </text> 
</g>
 </g>
 </g>
 </g>
 </g>
 <g stroke-width="0.2">
 <g stroke-linejoin="round">
 <g stroke-width="1.2">
 <path d=" M 113.81097 56.90549 L 170.71646 56.90549  " fill="none"/>
 <g stroke-width="0.8">
 <g stroke="#f00">
 <path d=" M 113.81097 56.90549 L 170.71646 56.90549  " fill="none"/>
 </g>
 </g>
 </g>
 <g fill="#ccf">
 <g fill="#ccf">
 <path d=" M 134.30576 50.67252 h 15.9159 v 12.46594 h -15.9159 Z  " stroke="none"/>
 </g>
 <g transform="translate(137.63873,54.0055)">
 <g fill="#000">
 <text style="stroke:none" transform="scale(1,-1) translate(4.62497,0)" text-anchor="middle"  font-size="10"> 
<g fill="#000">
 <g stroke="none"> <tspan font-family="cmr" font-size="9">11</tspan></g> </g>
 </text> 
</g>
 </g>
 </g>
 </g>
 </g>
 <g stroke-width="0.2">
 <g stroke-linejoin="round">
 <g stroke-width="1.2">
 <path d=" M -56.90549 0.0 L -56.90549 56.90549  " fill="none"/>
 <g stroke-width="0.8">
 <g stroke="#f00">
 <path d=" M -56.90549 0.0 L -56.90549 56.90549  " fill="none"/>
 </g>
 </g>
 </g>
 <g fill="#ccf">
 <g fill="#ccf">
 <path d=" M -64.86343 22.21976 h 15.9159 v 12.46594 h -15.9159 Z  " stroke="none"/>
 </g>
 <g transform="translate(-61.53046,25.55273)">
 <g fill="#000">
 <text style="stroke:none" transform="scale(1,-1) translate(4.62497,0)" text-anchor="middle"  font-size="10"> 
<g fill="#000">
 <g stroke="none"> <tspan font-family="cmr" font-size="9">12</tspan></g> </g>
 </text> 
</g>
 </g>
 </g>
 </g>
 </g>
 <g stroke-width="0.2">
 <g stroke-linejoin="round">
 <g stroke-width="1.2">
 <path d=" M 170.71646 56.90549 L 170.71646 0.0  " fill="none"/>
 <g stroke-width="0.8">
 <g stroke="#f00">
 <path d=" M 170.71646 56.90549 L 170.71646 0.0  " fill="none"/>
 </g>
 </g>
 </g>
 <g fill="#ccf">
 <g fill="#ccf">
 <path d=" M 162.75851 22.21979 h 15.9159 v 12.46594 h -15.9159 Z  " stroke="none"/>
 </g>
 <g transform="translate(166.09149,25.55276)">
 <g fill="#000">
 <text style="stroke:none" transform="scale(1,-1) translate(4.62497,0)" text-anchor="middle"  font-size="10"> 
<g fill="#000">
 <g stroke="none"> <tspan font-family="cmr" font-size="9">12</tspan></g> </g>
 </text> 
</g>
 </g>
 </g>
 </g>
 </g>
 <g stroke-width="0.2">
 <g stroke-linejoin="round">
 <g stroke-width="1.2">
 <path d=" M 56.90549 -56.90549 L 0.0 -56.90549  " fill="none"/>
 <g stroke-width="0.8">
 <g stroke="#f00">
 <path d=" M 56.90549 -56.90549 L 0.0 -56.90549  " fill="none"/>
 </g>
 </g>
 </g>
 <g fill="#ccf">
 <g fill="#ccf">
 <path d=" M 20.49481 -63.13846 h 15.9159 v 12.46594 h -15.9159 Z  " stroke="none"/>
 </g>
 <g transform="translate(23.82779,-59.80548)">
 <g fill="#000">
 <text style="stroke:none" transform="scale(1,-1) translate(4.62497,0)" text-anchor="middle"  font-size="10"> 
<g fill="#000">
 <g stroke="none"> <tspan font-family="cmr" font-size="9">13</tspan></g> </g>
 </text> 
</g>
 </g>
 </g>
 </g>
 </g>
 <g stroke-width="0.2">
 <g stroke-linejoin="round">
 <g stroke-width="1.2">
 <path d=" M 170.71646 0.0 L 113.81097 0.0  " fill="none"/>
 <g stroke-width="0.8">
 <g stroke="#f00">
 <path d=" M 170.71646 0.0 L 113.81097 0.0  " fill="none"/>
 </g>
 </g>
 </g>
 <g fill="#ccf">
 <g fill="#ccf">
 <path d=" M 134.30579 -6.23297 h 15.9159 v 12.46594 h -15.9159 Z  " stroke="none"/>
 </g>
 <g transform="translate(137.63876,-2.9)">
 <g fill="#000">
 <text style="stroke:none" transform="scale(1,-1) translate(4.62497,0)" text-anchor="middle"  font-size="10"> 
<g fill="#000">
 <g stroke="none"> <tspan font-family="cmr" font-size="9">13</tspan></g> </g>
 </text> 
</g>
 </g>
 </g>
 </g>
 </g>
 <g fill="#e6e6e6">
 <g fill="#e6e6e6">
 <path d=" M 5.17773 0.0 C 5.17773 2.85962 2.85962 5.17773 0.0 5.17773 C -2.85962 5.17773 -5.17773 2.85962 -5.17773 0.0 C -5.17773 -2.85962 -2.85962 -5.17773 0.0 -5.17773 C 2.85962 -5.17773 5.17773 -2.85962 5.17773 0.0 Z M 0.0 0.0  " stroke="none"/>
 </g>
 <g transform="translate(-1.70142,-1.6111)">
 <g fill="#000">
 <text style="stroke:none" transform="scale(1,-1) translate(1.70142,0)" text-anchor="middle"  font-size="10"> 
<g fill="#000">
 <g stroke="none"> <tspan font-family="cmr" font-size="5">1</tspan> </g> </g>
 </text> 
</g>
 </g>
 </g>
 <g transform="translate(-3.53297,0.0)">
 <g fill="#000">
 <text style="stroke:none" transform="scale(1,-1) translate(0.0,0)" text-anchor="middle"  font-size="10"> 
<g fill="#000">
 <g stroke="none"> </g> </g>
 </text> 
</g>
 </g>
 <g fill="#e6e6e6">
 <g fill="#e6e6e6">
 <path d=" M 62.08322 0.0 C 62.08322 2.85962 59.7651 5.17773 56.90549 5.17773 C 54.04587 5.17773 51.72775 2.85962 51.72775 0.0 C 51.72775 -2.85962 54.04587 -5.17773 56.90549 -5.17773 C 59.7651 -5.17773 62.08322 -2.85962 62.08322 0.0 Z M 56.90549 0.0  " stroke="none"/>
 </g>
 <g transform="translate(55.20407,-1.6111)">
 <g fill="#000">
 <text style="stroke:none" transform="scale(1,-1) translate(1.70142,0)" text-anchor="middle"  font-size="10"> 
<g fill="#000">
 <g stroke="none"> <tspan font-family="cmr" font-size="5">2</tspan> </g> </g>
 </text> 
</g>
 </g>
 </g>
 <g transform="translate(53.37251,0.0)">
 <g fill="#000">
 <text style="stroke:none" transform="scale(1,-1) translate(0.0,0)" text-anchor="middle"  font-size="10"> 
<g fill="#000">
 <g stroke="none"> </g> </g>
 </text> 
</g>
 </g>
 <g fill="#e6e6e6">
 <g fill="#e6e6e6">
 <path d=" M 62.08322 56.90549 C 62.08322 59.7651 59.7651 62.08322 56.90549 62.08322 C 54.04587 62.08322 51.72775 59.7651 51.72775 56.90549 C 51.72775 54.04587 54.04587 51.72775 56.90549 51.72775 C 59.7651 51.72775 62.08322 54.04587 62.08322 56.90549 Z M 56.90549 56.90549  " stroke="none"/>
 </g>
 <g transform="translate(55.20407,55.29439)">
 <g fill="#000">
 <text style="stroke:none" transform="scale(1,-1) translate(1.70142,0)" text-anchor="middle"  font-size="10"> 
<g fill="#000">
 <g stroke="none"> <tspan font-family="cmr" font-size="5">3</tspan> </g> </g>
 </text> 
</g>
 </g>
 </g>
 <g transform="translate(53.37251,56.90549)">
 <g fill="#000">
 <text style="stroke:none" transform="scale(1,-1) translate(0.0,0)" text-anchor="middle"  font-size="10"> 
<g fill="#000">
 <g stroke="none"> </g> </g>
 </text> 
</g>
 </g>
 <g fill="#e6e6e6">
 <g fill="#e6e6e6">
 <path d=" M 5.17773 56.90549 C 5.17773 59.7651 2.85962 62.08322 0.0 62.08322 C -2.85962 62.08322 -5.17773 59.7651 -5.17773 56.90549 C -5.17773 54.04587 -2.85962 51.72775 0.0 51.72775 C 2.85962 51.72775 5.17773 54.04587 5.17773 56.90549 Z M 0.0 56.90549  " stroke="none"/>
 </g>
 <g transform="translate(-1.70142,55.29439)">
 <g fill="#000">
 <text style="stroke:none" transform="scale(1,-1) translate(1.70142,0)" text-anchor="middle"  font-size="10"> 
<g fill="#000">
 <g stroke="none"> <tspan font-family="cmr" font-size="5">4</tspan> </g> </g>
 </text> 
</g>
 </g>
 </g>
 <g transform="translate(-3.53297,56.90549)">
 <g fill="#000">
 <text style="stroke:none" transform="scale(1,-1) translate(0.0,0)" text-anchor="middle"  font-size="10"> 
<g fill="#000">
 <g stroke="none"> </g> </g>
 </text> 
</g>
 </g>
 <g fill="#e6e6e6">
 <g fill="#e6e6e6">
 <path d=" M 5.17773 -56.90549 C 5.17773 -54.04587 2.85962 -51.72775 0.0 -51.72775 C -2.85962 -51.72775 -5.17773 -54.04587 -5.17773 -56.90549 C -5.17773 -59.7651 -2.85962 -62.08322 0.0 -62.08322 C 2.85962 -62.08322 5.17773 -59.7651 5.17773 -56.90549 Z M 0.0 -56.90549  " stroke="none"/>
 </g>
 <g transform="translate(-1.70142,-58.51659)">
 <g fill="#000">
 <text style="stroke:none" transform="scale(1,-1) translate(1.70142,0)" text-anchor="middle"  font-size="10"> 
<g fill="#000">
 <g stroke="none"> <tspan font-family="cmr" font-size="5">6</tspan> </g> </g>
 </text> 
</g>
 </g>
 </g>
 <g transform="translate(-3.53297,-56.90549)">
 <g fill="#000">
 <text style="stroke:none" transform="scale(1,-1) translate(0.0,0)" text-anchor="middle"  font-size="10"> 
<g fill="#000">
 <g stroke="none"> </g> </g>
 </text> 
</g>
 </g>
 <g fill="#e6e6e6">
 <g fill="#e6e6e6">
 <path d=" M -51.72775 0.0 C -51.72775 2.85962 -54.04587 5.17773 -56.90549 5.17773 C -59.7651 5.17773 -62.08322 2.85962 -62.08322 0.0 C -62.08322 -2.85962 -59.7651 -5.17773 -56.90549 -5.17773 C -54.04587 -5.17773 -51.72775 -2.85962 -51.72775 0.0 Z M -56.90549 0.0  " stroke="none"/>
 </g>
 <g transform="translate(-58.6069,-1.6111)">
 <g fill="#000">
 <text style="stroke:none" transform="scale(1,-1) translate(1.70142,0)" text-anchor="middle"  font-size="10"> 
<g fill="#000">
 <g stroke="none"> <tspan font-family="cmr" font-size="5">6</tspan> </g> </g>
 </text> 
</g>
 </g>
 </g>
 <g transform="translate(-60.43846,0.0)">
 <g fill="#000">
 <text style="stroke:none" transform="scale(1,-1) translate(0.0,0)" text-anchor="middle"  font-size="10"> 
<g fill="#000">
 <g stroke="none"> </g> </g>
 </text> 
</g>
 </g>
 <g fill="#e6e6e6">
 <g fill="#e6e6e6">
 <path d=" M 175.8942 0.0 C 175.8942 2.85962 173.57608 5.17773 170.71646 5.17773 C 167.85684 5.17773 165.53873 2.85962 165.53873 0.0 C 165.53873 -2.85962 167.85684 -5.17773 170.71646 -5.17773 C 173.57608 -5.17773 175.8942 -2.85962 175.8942 0.0 Z M 170.71646 0.0  " stroke="none"/>
 </g>
 <g transform="translate(169.01505,-1.6111)">
 <g fill="#000">
 <text style="stroke:none" transform="scale(1,-1) translate(1.70142,0)" text-anchor="middle"  font-size="10"> 
<g fill="#000">
 <g stroke="none"> <tspan font-family="cmr" font-size="5">6</tspan> </g> </g>
 </text> 
</g>
 </g>
 </g>
 <g transform="translate(167.18349,0.0)">
 <g fill="#000">
 <text style="stroke:none" transform="scale(1,-1) translate(0.0,0)" text-anchor="middle"  font-size="10"> 
<g fill="#000">
 <g stroke="none"> </g> </g>
 </text> 
</g>
 </g>
 <g fill="#e6e6e6">
 <g fill="#e6e6e6">
 <path d=" M 62.08322 -56.90549 C 62.08322 -54.04587 59.7651 -51.72775 56.90549 -51.72775 C 54.04587 -51.72775 51.72775 -54.04587 51.72775 -56.90549 C 51.72775 -59.7651 54.04587 -62.08322 56.90549 -62.08322 C 59.7651 -62.08322 62.08322 -59.7651 62.08322 -56.90549 Z M 56.90549 -56.90549  " stroke="none"/>
 </g>
 <g transform="translate(55.20407,-58.51659)">
 <g fill="#000">
 <text style="stroke:none" transform="scale(1,-1) translate(1.70142,0)" text-anchor="middle"  font-size="10"> 
<g fill="#000">
 <g stroke="none"> <tspan font-family="cmr" font-size="5">7</tspan> </g> </g>
 </text> 
</g>
 </g>
 </g>
 <g transform="translate(53.37251,-56.90549)">
 <g fill="#000">
 <text style="stroke:none" transform="scale(1,-1) translate(0.0,0)" text-anchor="middle"  font-size="10"> 
<g fill="#000">
 <g stroke="none"> </g> </g>
 </text> 
</g>
 </g>
 <g fill="#e6e6e6">
 <g fill="#e6e6e6">
 <path d=" M 118.98871 0.0 C 118.98871 2.85962 116.6706 5.17773 113.81097 5.17773 C 110.95135 5.17773 108.63324 2.85962 108.63324 0.0 C 108.63324 -2.85962 110.95135 -5.17773 113.81097 -5.17773 C 116.6706 -5.17773 118.98871 -2.85962 118.98871 0.0 Z M 113.81097 0.0  " stroke="none"/>
 </g>
 <g transform="translate(112.10956,-1.6111)">
 <g fill="#000">
 <text style="stroke:none" transform="scale(1,-1) translate(1.70142,0)" text-anchor="middle"  font-size="10"> 
<g fill="#000">
 <g stroke="none"> <tspan font-family="cmr" font-size="5">7</tspan> </g> </g>
 </text> 
</g>
 </g>
 </g>
 <g transform="translate(110.278,0.0)">
 <g fill="#000">
 <text style="stroke:none" transform="scale(1,-1) translate(0.0,0)" text-anchor="middle"  font-size="10"> 
<g fill="#000">
 <g stroke="none"> </g> </g>
 </text> 
</g>
 </g>
 <g fill="#e6e6e6">
 <g fill="#e6e6e6">
 <path d=" M 118.98871 56.90549 C 118.98871 59.7651 116.6706 62.08322 113.81097 62.08322 C 110.95135 62.08322 108.63324 59.7651 108.63324 56.90549 C 108.63324 54.04587 110.95135 51.72775 113.81097 51.72775 C 116.6706 51.72775 118.98871 54.04587 118.98871 56.90549 Z M 113.81097 56.90549  " stroke="none"/>
 </g>
 <g transform="translate(112.10956,55.29439)">
 <g fill="#000">
 <text style="stroke:none" transform="scale(1,-1) translate(1.70142,0)" text-anchor="middle"  font-size="10"> 
<g fill="#000">
 <g stroke="none"> <tspan font-family="cmr" font-size="5">8</tspan> </g> </g>
 </text> 
</g>
 </g>
 </g>
 <g transform="translate(110.278,56.90549)">
 <g fill="#000">
 <text style="stroke:none" transform="scale(1,-1) translate(0.0,0)" text-anchor="middle"  font-size="10"> 
<g fill="#000">
 <g stroke="none"> </g> </g>
 </text> 
</g>
 </g>
 <g fill="#e6e6e6">
 <g fill="#e6e6e6">
 <path d=" M 62.08322 113.81097 C 62.08322 116.6706 59.7651 118.98871 56.90549 118.98871 C 54.04587 118.98871 51.72775 116.6706 51.72775 113.81097 C 51.72775 110.95135 54.04587 108.63324 56.90549 108.63324 C 59.7651 108.63324 62.08322 110.95135 62.08322 113.81097 Z M 56.90549 113.81097  " stroke="none"/>
 </g>
 <g transform="translate(55.20407,112.19987)">
 <g fill="#000">
 <text style="stroke:none" transform="scale(1,-1) translate(1.70142,0)" text-anchor="middle"  font-size="10"> 
<g fill="#000">
 <g stroke="none"> <tspan font-family="cmr" font-size="5">8</tspan> </g> </g>
 </text> 
</g>
 </g>
 </g>
 <g transform="translate(53.37251,113.81097)">
 <g fill="#000">
 <text style="stroke:none" transform="scale(1,-1) translate(0.0,0)" text-anchor="middle"  font-size="10"> 
<g fill="#000">
 <g stroke="none"> </g> </g>
 </text> 
</g>
 </g>
 <g fill="#e6e6e6">
 <g fill="#e6e6e6">
 <path d=" M 5.17773 113.81097 C 5.17773 116.6706 2.85962 118.98871 0.0 118.98871 C -2.85962 118.98871 -5.17773 116.6706 -5.17773 113.81097 C -5.17773 110.95135 -2.85962 108.63324 0.0 108.63324 C 2.85962 108.63324 5.17773 110.95135 5.17773 113.81097 Z M 0.0 113.81097  " stroke="none"/>
 </g>
 <g transform="translate(-1.70142,112.19987)">
 <g fill="#000">
 <text style="stroke:none" transform="scale(1,-1) translate(1.70142,0)" text-anchor="middle"  font-size="10"> 
<g fill="#000">
 <g stroke="none"> <tspan font-family="cmr" font-size="5">9</tspan> </g> </g>
 </text> 
</g>
 </g>
 </g>
 <g transform="translate(-3.53297,113.81097)">
 <g fill="#000">
 <text style="stroke:none" transform="scale(1,-1) translate(0.0,0)" text-anchor="middle"  font-size="10"> 
<g fill="#000">
 <g stroke="none"> </g> </g>
 </text> 
</g>
 </g>
 <g fill="#e6e6e6">
 <g fill="#e6e6e6">
 <path d=" M -51.72775 56.90549 C -51.72775 59.7651 -54.04587 62.08322 -56.90549 62.08322 C -59.7651 62.08322 -62.08322 59.7651 -62.08322 56.90549 C -62.08322 54.04587 -59.7651 51.72775 -56.90549 51.72775 C -54.04587 51.72775 -51.72775 54.04587 -51.72775 56.90549 Z M -56.90549 56.90549  " stroke="none"/>
 </g>
 <g transform="translate(-58.6069,55.29439)">
 <g fill="#000">
 <text style="stroke:none" transform="scale(1,-1) translate(1.70142,0)" text-anchor="middle"  font-size="10"> 
<g fill="#000">
 <g stroke="none"> <tspan font-family="cmr" font-size="5">9</tspan> </g> </g>
 </text> 
</g>
 </g>
 </g>
 <g transform="translate(-60.43846,56.90549)">
 <g fill="#000">
 <text style="stroke:none" transform="scale(1,-1) translate(0.0,0)" text-anchor="middle"  font-size="10"> 
<g fill="#000">
 <g stroke="none"> </g> </g>
 </text> 
</g>
 </g>
 <g fill="#e6e6e6">
 <g fill="#e6e6e6">
 <path d=" M 175.8942 56.90549 C 175.8942 59.7651 173.57608 62.08322 170.71646 62.08322 C 167.85684 62.08322 165.53873 59.7651 165.53873 56.90549 C 165.53873 54.04587 167.85684 51.72775 170.71646 51.72775 C 173.57608 51.72775 175.8942 54.04587 175.8942 56.90549 Z M 170.71646 56.90549  " stroke="none"/>
 </g>
 <g transform="translate(169.01505,55.29439)">
 <g fill="#000">
 <text style="stroke:none" transform="scale(1,-1) translate(1.70142,0)" text-anchor="middle"  font-size="10"> 
<g fill="#000">
 <g stroke="none"> <tspan font-family="cmr" font-size="5">9</tspan> </g> </g>
 </text> 
</g>
 </g>
 </g>
 <g transform="translate(167.18349,56.90549)">
 <g fill="#000">
 <text style="stroke:none" transform="scale(1,-1) translate(0.0,0)" text-anchor="middle"  font-size="10"> 
<g fill="#000">
 <g stroke="none"> </g> </g>
 </text> 
</g>
 </g>
 </g>
 </g>
 
                                              </g> 
</svg> 
