<?xml version="1.0" encoding="iso-8859-1" standalone="no"?> 
<?xml-stylesheet href="_Wrapper_Image_TetraExt.css" type="text/css"?> 
<svg xmlns="http://www.w3.org/2000/svg" xmlns:xlink="http://www.w3.org/1999/xlink" width="284.5274pt" height="64.8722pt" viewBox="-142.2637 -7.9667 284.5274 64.8722 "> 
<g transform="translate(0, 56.90549 ) scale(1,-1) translate(0,7.9667 )"> 
                                           <g stroke="#000" fill="#000">
 <g stroke-width="0.4">
 <g fill="#ff6">
 <path d=" M 28.45273 -7.9667 L 142.2637 -7.9667 L 142.2637 56.90549 L 28.45273 56.90549 Z  " stroke="none"/>
 </g>
 <g fill="#ff6">
 <path d=" M -28.45273 -7.9667 L -142.2637 -7.9667 L -142.2637 56.90549 L -28.45273 56.90549 Z  " stroke="none"/>
 </g>
 <g stroke-linejoin="round">
 <g stroke="#000">
 <path d=" M -17.07181 17.64053 L 17.07181 17.64053  " fill="none"/>
 </g>
 </g>
 <g stroke-linejoin="round">
 <g stroke="#000">
 <path d=" M 8.53546 23.33145 L 17.07181 17.64053  " fill="none"/>
 </g>
 </g>
 <g stroke-linejoin="round">
 <g stroke="#000">
 <path d=" M 8.53546 11.95053 L 17.07181 17.64053  " fill="none"/>
 </g>
 </g>
 <g stroke-linejoin="round">
 <g stroke="#000">
 <path d=" M -85.35822 49.28171 L -56.90549 0.0  " fill="none"/>
 </g>
 </g>
 <g stroke-linejoin="round">
 <g stroke="#000">
 <path d=" M -56.90549 0.0 L -113.81097 0.0  " fill="none"/>
 </g>
 </g>
 <g stroke-linejoin="round">
 <g stroke="#000">
 <path d=" M -85.35822 49.28171 L -113.81097 0.0  " fill="none"/>
 </g>
 </g>
 <g stroke-linejoin="round">
 <g stroke="#000">
 <path d=" M 85.35822 49.28171 L 56.90549 0.0  " fill="none"/>
 </g>
 </g>
 <g stroke-linejoin="round">
 <g stroke="#000">
 <path d=" M 56.90549 0.0 L 113.81097 0.0  " fill="none"/>
 </g>
 </g>
 <g stroke-linejoin="round">
 <g stroke="#000">
 <path d=" M 85.35822 49.28171 L 113.81097 0.0  " fill="none"/>
 </g>
 </g>
 <g stroke-linejoin="round">
 <g stroke="#000">
 <path d=" M 85.35822 49.28171 L 85.35822 19.34766  " fill="none"/>
 </g>
 </g>
 <g stroke-linejoin="round">
 <g stroke="#000">
 <path d=" M 56.90549 0.0 L 85.35822 19.34766  " fill="none"/>
 </g>
 </g>
 <g stroke-linejoin="round">
 <g stroke="#000">
 <path d=" M 113.81097 0.0 L 85.35822 19.34766  " fill="none"/>
 </g>
 </g>
 <g fill="#00f">
 <g fill="#00f">
 <path d=" M -83.35822 49.28171 C -83.35822 50.38629 -84.25363 51.28171 -85.35822 51.28171 C -86.4628 51.28171 -87.35822 50.38629 -87.35822 49.28171 C -87.35822 48.17712 -86.4628 47.28171 -85.35822 47.28171 C -84.25363 47.28171 -83.35822 48.17712 -83.35822 49.28171 Z M -85.35822 49.28171  " stroke="none"/>
 </g>
 <g transform="translate(-85.35822,49.28171)">
 <g fill="#000">
 <text style="stroke:none" transform="scale(1,-1) translate(0.0,0)" text-anchor="middle"  font-size="10"> 
<g fill="#000">
 <g stroke="none"> </g> </g>
 </text> 
</g>
 </g>
 </g>
 <g transform="translate(-88.89119,49.28171)">
 <g fill="#000">
 <text style="stroke:none" transform="scale(1,-1) translate(0.0,0)" text-anchor="middle"  font-size="10"> 
<g fill="#000">
 <g stroke="none"> </g> </g>
 </text> 
</g>
 </g>
 <g fill="#00f">
 <g fill="#00f">
 <path d=" M -54.90549 0.0 C -54.90549 1.10458 -55.8009 2.0 -56.90549 2.0 C -58.01007 2.0 -58.90549 1.10458 -58.90549 0.0 C -58.90549 -1.10458 -58.01007 -2.0 -56.90549 -2.0 C -55.8009 -2.0 -54.90549 -1.10458 -54.90549 0.0 Z M -56.90549 0.0  " stroke="none"/>
 </g>
 <g transform="translate(-56.90549,0.0)">
 <g fill="#000">
 <text style="stroke:none" transform="scale(1,-1) translate(0.0,0)" text-anchor="middle"  font-size="10"> 
<g fill="#000">
 <g stroke="none"> </g> </g>
 </text> 
</g>
 </g>
 </g>
 <g transform="translate(-60.43846,0.0)">
 <g fill="#000">
 <text style="stroke:none" transform="scale(1,-1) translate(0.0,0)" text-anchor="middle"  font-size="10"> 
<g fill="#000">
 <g stroke="none"> </g> </g>
 </text> 
</g>
 </g>
 <g fill="#00f">
 <g fill="#00f">
 <path d=" M -111.81097 0.0 C -111.81097 1.10458 -112.70639 2.0 -113.81097 2.0 C -114.91556 2.0 -115.81097 1.10458 -115.81097 0.0 C -115.81097 -1.10458 -114.91556 -2.0 -113.81097 -2.0 C -112.70639 -2.0 -111.81097 -1.10458 -111.81097 0.0 Z M -113.81097 0.0  " stroke="none"/>
 </g>
 <g transform="translate(-113.81097,0.0)">
 <g fill="#000">
 <text style="stroke:none" transform="scale(1,-1) translate(0.0,0)" text-anchor="middle"  font-size="10"> 
<g fill="#000">
 <g stroke="none"> </g> </g>
 </text> 
</g>
 </g>
 </g>
 <g transform="translate(-117.34395,0.0)">
 <g fill="#000">
 <text style="stroke:none" transform="scale(1,-1) translate(0.0,0)" text-anchor="middle"  font-size="10"> 
<g fill="#000">
 <g stroke="none"> </g> </g>
 </text> 
</g>
 </g>
 <g fill="#00f">
 <g fill="#00f">
 <path d=" M 87.35822 49.28171 C 87.35822 50.38629 86.4628 51.28171 85.35822 51.28171 C 84.25363 51.28171 83.35822 50.38629 83.35822 49.28171 C 83.35822 48.17712 84.25363 47.28171 85.35822 47.28171 C 86.4628 47.28171 87.35822 48.17712 87.35822 49.28171 Z M 85.35822 49.28171  " stroke="none"/>
 </g>
 <g transform="translate(85.35822,49.28171)">
 <g fill="#000">
 <text style="stroke:none" transform="scale(1,-1) translate(0.0,0)" text-anchor="middle"  font-size="10"> 
<g fill="#000">
 <g stroke="none"> </g> </g>
 </text> 
</g>
 </g>
 </g>
 <g transform="translate(81.82524,49.28171)">
 <g fill="#000">
 <text style="stroke:none" transform="scale(1,-1) translate(0.0,0)" text-anchor="middle"  font-size="10"> 
<g fill="#000">
 <g stroke="none"> </g> </g>
 </text> 
</g>
 </g>
 <g fill="#00f">
 <g fill="#00f">
 <path d=" M 58.90549 0.0 C 58.90549 1.10458 58.01007 2.0 56.90549 2.0 C 55.8009 2.0 54.90549 1.10458 54.90549 0.0 C 54.90549 -1.10458 55.8009 -2.0 56.90549 -2.0 C 58.01007 -2.0 58.90549 -1.10458 58.90549 0.0 Z M 56.90549 0.0  " stroke="none"/>
 </g>
 <g transform="translate(56.90549,0.0)">
 <g fill="#000">
 <text style="stroke:none" transform="scale(1,-1) translate(0.0,0)" text-anchor="middle"  font-size="10"> 
<g fill="#000">
 <g stroke="none"> </g> </g>
 </text> 
</g>
 </g>
 </g>
 <g transform="translate(53.37251,0.0)">
 <g fill="#000">
 <text style="stroke:none" transform="scale(1,-1) translate(0.0,0)" text-anchor="middle"  font-size="10"> 
<g fill="#000">
 <g stroke="none"> </g> </g>
 </text> 
</g>
 </g>
 <g fill="#00f">
 <g fill="#00f">
 <path d=" M 115.81097 0.0 C 115.81097 1.10458 114.91556 2.0 113.81097 2.0 C 112.70639 2.0 111.81097 1.10458 111.81097 0.0 C 111.81097 -1.10458 112.70639 -2.0 113.81097 -2.0 C 114.91556 -2.0 115.81097 -1.10458 115.81097 0.0 Z M 113.81097 0.0  " stroke="none"/>
 </g>
 <g transform="translate(113.81097,0.0)">
 <g fill="#000">
 <text style="stroke:none" transform="scale(1,-1) translate(0.0,0)" text-anchor="middle"  font-size="10"> 
<g fill="#000">
 <g stroke="none"> </g> </g>
 </text> 
</g>
 </g>
 </g>
 <g transform="translate(110.278,0.0)">
 <g fill="#000">
 <text style="stroke:none" transform="scale(1,-1) translate(0.0,0)" text-anchor="middle"  font-size="10"> 
<g fill="#000">
 <g stroke="none"> </g> </g>
 </text> 
</g>
 </g>
 <g fill="#00f">
 <g fill="#00f">
 <path d=" M 87.35822 19.34766 C 87.35822 20.45224 86.4628 21.34766 85.35822 21.34766 C 84.25363 21.34766 83.35822 20.45224 83.35822 19.34766 C 83.35822 18.24307 84.25363 17.34766 85.35822 17.34766 C 86.4628 17.34766 87.35822 18.24307 87.35822 19.34766 Z M 85.35822 19.34766  " stroke="none"/>
 </g>
 <g transform="translate(85.35822,19.34766)">
 <g fill="#000">
 <text style="stroke:none" transform="scale(1,-1) translate(0.0,0)" text-anchor="middle"  font-size="10"> 
<g fill="#000">
 <g stroke="none"> </g> </g>
 </text> 
</g>
 </g>
 </g>
 <g transform="translate(81.82524,19.34766)">
 <g fill="#000">
 <text style="stroke:none" transform="scale(1,-1) translate(0.0,0)" text-anchor="middle"  font-size="10"> 
<g fill="#000">
 <g stroke="none"> </g> </g>
 </text> 
</g>
 </g>
 </g>
 </g>
 
                                                                                     </g> 
</svg> 
