<?xml version="1.0" encoding="UTF-8"?>
<svg xmlns="http://www.w3.org/2000/svg" xmlns:xlink="http://www.w3.org/1999/xlink" width="178.659pt" height="177.612pt" viewBox="0 0 178.659 177.612" version="1.2">
<defs>
<g>
<symbol overflow="visible" id="glyph0-0">
<path style="stroke:none;" d=""/>
</symbol>
<symbol overflow="visible" id="glyph0-1">
<path style="stroke:none;" d="M 2.71875 -5.71875 C 2.71875 -5.9375 2.71875 -5.96875 2.484375 -5.96875 C 1.9375 -5.390625 1.109375 -5.390625 0.828125 -5.390625 L 0.828125 -5.109375 C 1 -5.109375 1.546875 -5.109375 2.03125 -5.34375 L 2.03125 -0.71875 C 2.03125 -0.390625 2 -0.28125 1.171875 -0.28125 L 0.890625 -0.28125 L 0.890625 0 C 1.203125 -0.03125 2 -0.03125 2.375 -0.03125 C 2.734375 -0.03125 3.546875 -0.03125 3.875 0 L 3.875 -0.28125 L 3.578125 -0.28125 C 2.75 -0.28125 2.71875 -0.390625 2.71875 -0.71875 Z M 2.71875 -5.71875 "/>
</symbol>
<symbol overflow="visible" id="glyph0-2">
<path style="stroke:none;" d="M 2.734375 -3.15625 C 3.5625 -3.46875 3.953125 -4.125 3.953125 -4.734375 C 3.953125 -5.421875 3.203125 -5.96875 2.265625 -5.96875 C 1.328125 -5.96875 0.640625 -5.4375 0.640625 -4.75 C 0.640625 -4.453125 0.828125 -4.28125 1.09375 -4.28125 C 1.359375 -4.28125 1.546875 -4.46875 1.546875 -4.734375 C 1.546875 -5.046875 1.328125 -5.1875 1.015625 -5.1875 C 1.25 -5.5625 1.796875 -5.734375 2.234375 -5.734375 C 2.984375 -5.734375 3.125 -5.140625 3.125 -4.734375 C 3.125 -4.453125 3.078125 -4.03125 2.84375 -3.6875 C 2.5625 -3.28125 2.25 -3.265625 2 -3.25 C 1.765625 -3.234375 1.75 -3.234375 1.6875 -3.234375 C 1.609375 -3.21875 1.53125 -3.21875 1.53125 -3.109375 C 1.53125 -3 1.609375 -3 1.75 -3 L 2.171875 -3 C 2.953125 -3 3.296875 -2.375 3.296875 -1.515625 C 3.296875 -0.375 2.6875 -0.046875 2.234375 -0.046875 C 2.0625 -0.046875 1.1875 -0.09375 0.78125 -0.765625 C 1.109375 -0.71875 1.359375 -0.9375 1.359375 -1.25 C 1.359375 -1.546875 1.140625 -1.734375 0.875 -1.734375 C 0.65625 -1.734375 0.390625 -1.59375 0.390625 -1.21875 C 0.390625 -0.421875 1.21875 0.203125 2.25 0.203125 C 3.375 0.203125 4.203125 -0.609375 4.203125 -1.515625 C 4.203125 -2.296875 3.59375 -2.96875 2.734375 -3.15625 Z M 2.734375 -3.15625 "/>
</symbol>
<symbol overflow="visible" id="glyph0-3">
<path style="stroke:none;" d="M 4.390625 -5.46875 C 4.46875 -5.5625 4.46875 -5.578125 4.46875 -5.765625 L 2.234375 -5.765625 C 1.109375 -5.765625 1.078125 -5.875 1.0625 -6.046875 L 0.8125 -6.046875 L 0.515625 -4.1875 L 0.765625 -4.1875 C 0.796875 -4.390625 0.875 -4.890625 0.984375 -5 C 1.046875 -5.046875 1.75 -5.046875 1.875 -5.046875 L 3.765625 -5.046875 L 2.90625 -3.875 C 1.734375 -2.28125 1.625 -0.8125 1.625 -0.296875 C 1.625 -0.203125 1.625 0.203125 2.046875 0.203125 C 2.46875 0.203125 2.46875 -0.203125 2.46875 -0.3125 L 2.46875 -0.75 C 2.46875 -2.0625 2.65625 -3.109375 3.140625 -3.75 Z M 4.390625 -5.46875 "/>
</symbol>
<symbol overflow="visible" id="glyph0-4">
<path style="stroke:none;" d="M 0.265625 -1.75 L 0.265625 -1.484375 L 2.703125 -1.484375 L 2.703125 -0.703125 C 2.703125 -0.375 2.671875 -0.28125 2 -0.28125 L 1.8125 -0.28125 L 1.8125 0 C 2.375 -0.03125 3 -0.03125 3.0625 -0.03125 C 3.109375 -0.03125 3.75 -0.03125 4.3125 0 L 4.3125 -0.28125 L 4.125 -0.28125 C 3.453125 -0.28125 3.421875 -0.375 3.421875 -0.703125 L 3.421875 -1.484375 L 4.328125 -1.484375 L 4.328125 -1.75 L 3.421875 -1.75 L 3.421875 -5.8125 C 3.421875 -6 3.421875 -6.0625 3.25 -6.0625 C 3.140625 -6.0625 3.140625 -6.046875 3.046875 -5.921875 Z M 0.546875 -1.75 L 2.75 -5.0625 L 2.75 -1.75 Z M 0.546875 -1.75 "/>
</symbol>
<symbol overflow="visible" id="glyph0-5">
<path style="stroke:none;" d="M 4.140625 -1.578125 L 3.890625 -1.578125 C 3.875 -1.46875 3.796875 -0.9375 3.6875 -0.796875 C 3.625 -0.71875 3.015625 -0.71875 2.828125 -0.71875 L 1.234375 -0.71875 L 2.125 -1.5625 C 3.59375 -2.828125 4.140625 -3.296875 4.140625 -4.21875 C 4.140625 -5.25 3.28125 -5.96875 2.1875 -5.96875 C 1.15625 -5.96875 0.453125 -5.140625 0.453125 -4.328125 C 0.453125 -3.890625 0.84375 -3.84375 0.921875 -3.84375 C 1.125 -3.84375 1.390625 -3.984375 1.390625 -4.3125 C 1.390625 -4.578125 1.203125 -4.765625 0.921875 -4.765625 C 0.875 -4.765625 0.84375 -4.765625 0.8125 -4.765625 C 1.03125 -5.40625 1.609375 -5.6875 2.09375 -5.6875 C 3 -5.6875 3.3125 -4.828125 3.3125 -4.21875 C 3.3125 -3.296875 2.625 -2.5625 2.1875 -2.09375 L 0.5625 -0.328125 C 0.453125 -0.21875 0.453125 -0.203125 0.453125 0 L 3.890625 0 Z M 4.140625 -1.578125 "/>
</symbol>
<symbol overflow="visible" id="glyph0-6">
<path style="stroke:none;" d="M 0.9375 -3.09375 C 0.9375 -2.921875 0.9375 -2.828125 1.0625 -2.828125 C 1.125 -2.828125 1.15625 -2.859375 1.203125 -2.953125 C 1.484375 -3.328125 1.90625 -3.53125 2.375 -3.53125 C 3.328125 -3.53125 3.328125 -2.15625 3.328125 -1.828125 C 3.328125 -1.5625 3.328125 -1 3.078125 -0.59375 C 2.84375 -0.21875 2.46875 -0.046875 2.109375 -0.046875 C 1.578125 -0.046875 0.984375 -0.390625 0.765625 -1.046875 C 0.78125 -1.046875 0.828125 -1.03125 0.890625 -1.03125 C 1.078125 -1.03125 1.328125 -1.140625 1.328125 -1.46875 C 1.328125 -1.75 1.140625 -1.90625 0.890625 -1.90625 C 0.703125 -1.90625 0.453125 -1.796875 0.453125 -1.4375 C 0.453125 -0.625 1.140625 0.203125 2.125 0.203125 C 3.21875 0.203125 4.140625 -0.6875 4.140625 -1.796875 C 4.140625 -2.875 3.359375 -3.765625 2.390625 -3.765625 C 1.953125 -3.765625 1.515625 -3.609375 1.203125 -3.296875 L 1.203125 -5.0625 C 1.484375 -4.984375 1.75 -4.9375 2.03125 -4.9375 C 3.140625 -4.9375 3.78125 -5.734375 3.78125 -5.84375 C 3.78125 -5.921875 3.71875 -5.96875 3.6875 -5.96875 C 3.65625 -5.96875 3.640625 -5.96875 3.5625 -5.921875 C 3.140625 -5.75 2.734375 -5.671875 2.359375 -5.671875 C 1.96875 -5.671875 1.5625 -5.75 1.15625 -5.921875 C 1.0625 -5.96875 1.046875 -5.96875 1.03125 -5.96875 C 0.9375 -5.96875 0.9375 -5.875 0.9375 -5.71875 Z M 0.9375 -3.09375 "/>
</symbol>
<symbol overflow="visible" id="glyph0-7">
<path style="stroke:none;" d="M 3.390625 -2.8125 L 3.390625 -2.625 C 3.390625 -0.4375 2.40625 -0.046875 1.890625 -0.046875 C 1.6875 -0.046875 1.234375 -0.09375 1 -0.390625 L 1.03125 -0.390625 C 1.09375 -0.359375 1.453125 -0.4375 1.453125 -0.796875 C 1.453125 -1.03125 1.296875 -1.203125 1.03125 -1.203125 C 0.78125 -1.203125 0.625 -1.046875 0.625 -0.78125 C 0.625 -0.1875 1.09375 0.203125 1.890625 0.203125 C 3.046875 0.203125 4.203125 -0.984375 4.203125 -2.953125 C 4.203125 -5.375 3.140625 -5.96875 2.328125 -5.96875 C 1.296875 -5.96875 0.390625 -5.125 0.390625 -3.953125 C 0.390625 -2.8125 1.203125 -1.953125 2.21875 -1.953125 C 2.875 -1.953125 3.234375 -2.4375 3.390625 -2.8125 Z M 2.234375 -2.1875 C 2.09375 -2.1875 1.65625 -2.1875 1.375 -2.734375 C 1.203125 -3.078125 1.203125 -3.515625 1.203125 -3.953125 C 1.203125 -4.375 1.203125 -4.828125 1.390625 -5.171875 C 1.65625 -5.625 2 -5.734375 2.328125 -5.734375 C 2.9375 -5.734375 3.171875 -5.125 3.21875 -5.03125 C 3.34375 -4.703125 3.375 -4.15625 3.375 -3.765625 C 3.375 -3.109375 3.078125 -2.1875 2.234375 -2.1875 Z M 2.234375 -2.1875 "/>
</symbol>
<symbol overflow="visible" id="glyph0-8">
<path style="stroke:none;" d="M 1.203125 -2.96875 C 1.203125 -3.875 1.296875 -4.390625 1.546875 -4.859375 C 1.71875 -5.21875 2.15625 -5.734375 2.8125 -5.734375 C 3 -5.734375 3.40625 -5.703125 3.609375 -5.375 C 3.28125 -5.375 3.140625 -5.203125 3.140625 -4.96875 C 3.140625 -4.734375 3.296875 -4.5625 3.546875 -4.5625 C 3.8125 -4.5625 3.96875 -4.71875 3.96875 -4.984375 C 3.96875 -5.484375 3.609375 -5.96875 2.796875 -5.96875 C 1.640625 -5.96875 0.390625 -4.828125 0.390625 -2.828125 C 0.390625 -0.40625 1.484375 0.203125 2.3125 0.203125 C 3.3125 0.203125 4.203125 -0.640625 4.203125 -1.8125 C 4.203125 -2.953125 3.390625 -3.8125 2.375 -3.8125 C 1.828125 -3.8125 1.453125 -3.5 1.203125 -2.96875 Z M 2.3125 -0.046875 C 1.796875 -0.046875 1.5 -0.46875 1.390625 -0.734375 C 1.234375 -1.140625 1.21875 -1.875 1.21875 -2.015625 C 1.21875 -2.625 1.5 -3.59375 2.359375 -3.59375 C 2.5 -3.59375 2.9375 -3.59375 3.21875 -3.03125 C 3.390625 -2.6875 3.390625 -2.25 3.390625 -1.828125 C 3.390625 -1.390625 3.390625 -0.953125 3.21875 -0.625 C 2.953125 -0.109375 2.546875 -0.046875 2.3125 -0.046875 Z M 2.3125 -0.046875 "/>
</symbol>
<symbol overflow="visible" id="glyph0-9">
<path style="stroke:none;" d="M 4.234375 -2.859375 C 4.234375 -3.46875 4.203125 -4.234375 3.890625 -4.90625 C 3.5 -5.75 2.8125 -5.96875 2.296875 -5.96875 C 1.765625 -5.96875 1.078125 -5.75 0.6875 -4.890625 C 0.40625 -4.265625 0.359375 -3.546875 0.359375 -2.859375 C 0.359375 -2.28125 0.375 -1.421875 0.765625 -0.703125 C 1.1875 0.046875 1.875 0.203125 2.296875 0.203125 C 2.875 0.203125 3.53125 -0.046875 3.90625 -0.875 C 4.1875 -1.484375 4.234375 -2.15625 4.234375 -2.859375 Z M 2.296875 -0.03125 C 2.03125 -0.03125 1.390625 -0.15625 1.21875 -1.15625 C 1.125 -1.6875 1.125 -2.46875 1.125 -2.96875 C 1.125 -3.578125 1.125 -4.28125 1.234375 -4.78125 C 1.421875 -5.578125 1.984375 -5.734375 2.296875 -5.734375 C 2.625 -5.734375 3.203125 -5.5625 3.359375 -4.734375 C 3.46875 -4.234375 3.46875 -3.53125 3.46875 -2.96875 C 3.46875 -2.421875 3.46875 -1.671875 3.375 -1.140625 C 3.1875 -0.109375 2.53125 -0.03125 2.296875 -0.03125 Z M 2.296875 -0.03125 "/>
</symbol>
<symbol overflow="visible" id="glyph0-10">
<path style="stroke:none;" d="M 1.546875 -4.0625 C 1.265625 -4.234375 1.0625 -4.46875 1.0625 -4.8125 C 1.0625 -5.390625 1.6875 -5.734375 2.28125 -5.734375 C 2.96875 -5.734375 3.53125 -5.25 3.53125 -4.625 C 3.53125 -4 2.984375 -3.59375 2.625 -3.390625 Z M 2.859375 -3.234375 C 3.296875 -3.453125 3.953125 -3.90625 3.953125 -4.625 C 3.953125 -5.46875 3.109375 -5.96875 2.3125 -5.96875 C 1.375 -5.96875 0.640625 -5.296875 0.640625 -4.46875 C 0.640625 -4.125 0.765625 -3.8125 0.96875 -3.546875 C 1.125 -3.375 1.1875 -3.34375 1.703125 -3.015625 C 0.90625 -2.625 0.390625 -2.09375 0.390625 -1.359375 C 0.390625 -0.40625 1.328125 0.203125 2.296875 0.203125 C 3.328125 0.203125 4.203125 -0.53125 4.203125 -1.5 C 4.203125 -2.375 3.546875 -2.796875 3.328125 -2.953125 C 3.21875 -3.015625 2.96875 -3.171875 2.859375 -3.234375 Z M 1.9375 -2.859375 L 3.078125 -2.15625 C 3.28125 -2.015625 3.71875 -1.734375 3.71875 -1.1875 C 3.71875 -0.484375 3.015625 -0.046875 2.296875 -0.046875 C 1.515625 -0.046875 0.875 -0.609375 0.875 -1.359375 C 0.875 -2 1.3125 -2.53125 1.9375 -2.859375 Z M 1.9375 -2.859375 "/>
</symbol>
<symbol overflow="visible" id="glyph1-0">
<path style="stroke:none;" d=""/>
</symbol>
<symbol overflow="visible" id="glyph1-1">
<path style="stroke:none;" d="M 2.875 -3.5 C 3.703125 -3.765625 4.265625 -4.46875 4.265625 -5.25 C 4.265625 -6.0625 3.40625 -6.625 2.4375 -6.625 C 1.4375 -6.625 0.6875 -6.015625 0.6875 -5.265625 C 0.6875 -4.9375 0.90625 -4.75 1.1875 -4.75 C 1.5 -4.75 1.703125 -4.96875 1.703125 -5.25 C 1.703125 -5.75 1.234375 -5.75 1.078125 -5.75 C 1.390625 -6.234375 2.046875 -6.375 2.40625 -6.375 C 2.8125 -6.375 3.359375 -6.15625 3.359375 -5.25 C 3.359375 -5.140625 3.34375 -4.5625 3.078125 -4.125 C 2.78125 -3.640625 2.4375 -3.625 2.203125 -3.609375 C 2.109375 -3.59375 1.875 -3.578125 1.8125 -3.578125 C 1.734375 -3.5625 1.65625 -3.5625 1.65625 -3.453125 C 1.65625 -3.34375 1.734375 -3.34375 1.890625 -3.34375 L 2.328125 -3.34375 C 3.15625 -3.34375 3.515625 -2.671875 3.515625 -1.703125 C 3.515625 -0.34375 2.828125 -0.0625 2.390625 -0.0625 C 1.96875 -0.0625 1.21875 -0.234375 0.875 -0.8125 C 1.21875 -0.765625 1.53125 -0.984375 1.53125 -1.359375 C 1.53125 -1.71875 1.265625 -1.921875 0.96875 -1.921875 C 0.734375 -1.921875 0.421875 -1.78125 0.421875 -1.34375 C 0.421875 -0.4375 1.34375 0.21875 2.421875 0.21875 C 3.640625 0.21875 4.546875 -0.6875 4.546875 -1.703125 C 4.546875 -2.515625 3.921875 -3.296875 2.875 -3.5 Z M 2.875 -3.5 "/>
</symbol>
<symbol overflow="visible" id="glyph1-2">
<path style="stroke:none;" d="M 1.265625 -0.765625 L 2.3125 -1.78125 C 3.859375 -3.15625 4.46875 -3.703125 4.46875 -4.6875 C 4.46875 -5.828125 3.5625 -6.625 2.359375 -6.625 C 1.234375 -6.625 0.5 -5.703125 0.5 -4.8125 C 0.5 -4.265625 1 -4.265625 1.03125 -4.265625 C 1.1875 -4.265625 1.546875 -4.375 1.546875 -4.796875 C 1.546875 -5.046875 1.359375 -5.3125 1.015625 -5.3125 C 0.9375 -5.3125 0.921875 -5.3125 0.890625 -5.296875 C 1.109375 -5.9375 1.65625 -6.3125 2.21875 -6.3125 C 3.125 -6.3125 3.5625 -5.5 3.5625 -4.6875 C 3.5625 -3.890625 3.0625 -3.109375 2.515625 -2.5 L 0.609375 -0.375 C 0.5 -0.265625 0.5 -0.234375 0.5 0 L 4.1875 0 L 4.46875 -1.734375 L 4.21875 -1.734375 C 4.15625 -1.4375 4.09375 -1 4 -0.84375 C 3.921875 -0.765625 3.265625 -0.765625 3.046875 -0.765625 Z M 1.265625 -0.765625 "/>
</symbol>
<symbol overflow="visible" id="glyph1-3">
<path style="stroke:none;" d="M 4.46875 -2 C 4.46875 -3.1875 3.640625 -4.171875 2.578125 -4.171875 C 2.09375 -4.171875 1.671875 -4.015625 1.3125 -3.671875 L 1.3125 -5.609375 C 1.515625 -5.546875 1.84375 -5.46875 2.15625 -5.46875 C 3.375 -5.46875 4.078125 -6.375 4.078125 -6.515625 C 4.078125 -6.5625 4.046875 -6.625 3.96875 -6.625 C 3.96875 -6.625 3.9375 -6.625 3.890625 -6.59375 C 3.703125 -6.5 3.203125 -6.296875 2.546875 -6.296875 C 2.140625 -6.296875 1.6875 -6.375 1.21875 -6.578125 C 1.140625 -6.609375 1.125 -6.609375 1.109375 -6.609375 C 1 -6.609375 1 -6.53125 1 -6.375 L 1 -3.421875 C 1 -3.25 1 -3.171875 1.140625 -3.171875 C 1.21875 -3.171875 1.234375 -3.203125 1.265625 -3.265625 C 1.375 -3.421875 1.75 -3.953125 2.546875 -3.953125 C 3.078125 -3.953125 3.3125 -3.5 3.40625 -3.3125 C 3.5625 -2.953125 3.578125 -2.5625 3.578125 -2.0625 C 3.578125 -1.71875 3.578125 -1.125 3.34375 -0.703125 C 3.09375 -0.3125 2.734375 -0.0625 2.28125 -0.0625 C 1.546875 -0.0625 0.984375 -0.59375 0.8125 -1.171875 C 0.84375 -1.15625 0.875 -1.15625 0.984375 -1.15625 C 1.3125 -1.15625 1.484375 -1.40625 1.484375 -1.640625 C 1.484375 -1.875 1.3125 -2.125 0.984375 -2.125 C 0.84375 -2.125 0.5 -2.0625 0.5 -1.59375 C 0.5 -0.75 1.1875 0.21875 2.296875 0.21875 C 3.453125 0.21875 4.46875 -0.734375 4.46875 -2 Z M 4.46875 -2 "/>
</symbol>
<symbol overflow="visible" id="glyph1-4">
<path style="stroke:none;" d="M 1.3125 -3.265625 L 1.3125 -3.5 C 1.3125 -6.015625 2.546875 -6.375 3.046875 -6.375 C 3.296875 -6.375 3.703125 -6.3125 3.921875 -5.96875 C 3.78125 -5.96875 3.375 -5.96875 3.375 -5.53125 C 3.375 -5.21875 3.625 -5.0625 3.828125 -5.0625 C 4 -5.0625 4.296875 -5.15625 4.296875 -5.546875 C 4.296875 -6.140625 3.859375 -6.625 3.03125 -6.625 C 1.765625 -6.625 0.421875 -5.34375 0.421875 -3.140625 C 0.421875 -0.484375 1.5625 0.21875 2.5 0.21875 C 3.59375 0.21875 4.546875 -0.71875 4.546875 -2.03125 C 4.546875 -3.296875 3.65625 -4.25 2.546875 -4.25 C 1.875 -4.25 1.515625 -3.734375 1.3125 -3.265625 Z M 2.5 -0.0625 C 1.875 -0.0625 1.5625 -0.65625 1.515625 -0.8125 C 1.328125 -1.265625 1.328125 -2.0625 1.328125 -2.25 C 1.328125 -3.015625 1.65625 -4.015625 2.546875 -4.015625 C 2.703125 -4.015625 3.15625 -4.015625 3.46875 -3.40625 C 3.640625 -3.03125 3.640625 -2.53125 3.640625 -2.03125 C 3.640625 -1.5625 3.640625 -1.0625 3.484375 -0.703125 C 3.1875 -0.109375 2.71875 -0.0625 2.5 -0.0625 Z M 2.5 -0.0625 "/>
</symbol>
<symbol overflow="visible" id="glyph1-5">
<path style="stroke:none;" d="M 2.921875 -1.640625 L 2.921875 -0.78125 C 2.921875 -0.421875 2.90625 -0.3125 2.171875 -0.3125 L 1.953125 -0.3125 L 1.953125 0 C 2.359375 -0.03125 2.875 -0.03125 3.296875 -0.03125 C 3.71875 -0.03125 4.25 -0.03125 4.65625 0 L 4.65625 -0.3125 L 4.4375 -0.3125 C 3.703125 -0.3125 3.6875 -0.421875 3.6875 -0.78125 L 3.6875 -1.640625 L 4.6875 -1.640625 L 4.6875 -1.953125 L 3.6875 -1.953125 L 3.6875 -6.46875 C 3.6875 -6.671875 3.6875 -6.734375 3.53125 -6.734375 C 3.4375 -6.734375 3.40625 -6.734375 3.328125 -6.609375 L 0.28125 -1.953125 L 0.28125 -1.640625 Z M 2.984375 -1.953125 L 0.5625 -1.953125 L 2.984375 -5.65625 Z M 2.984375 -1.953125 "/>
</symbol>
<symbol overflow="visible" id="glyph1-6">
<path style="stroke:none;" d="M 1.625 -4.546875 C 1.15625 -4.84375 1.125 -5.171875 1.125 -5.34375 C 1.125 -5.953125 1.765625 -6.375 2.46875 -6.375 C 3.203125 -6.375 3.828125 -5.859375 3.828125 -5.140625 C 3.828125 -4.578125 3.453125 -4.09375 2.859375 -3.75 Z M 3.078125 -3.59375 C 3.78125 -3.96875 4.265625 -4.484375 4.265625 -5.140625 C 4.265625 -6.046875 3.390625 -6.625 2.484375 -6.625 C 1.484375 -6.625 0.6875 -5.890625 0.6875 -4.953125 C 0.6875 -4.78125 0.703125 -4.328125 1.125 -3.859375 C 1.234375 -3.75 1.59375 -3.5 1.84375 -3.328125 C 1.265625 -3.046875 0.421875 -2.484375 0.421875 -1.5 C 0.421875 -0.453125 1.4375 0.21875 2.46875 0.21875 C 3.59375 0.21875 4.546875 -0.609375 4.546875 -1.671875 C 4.546875 -2.03125 4.4375 -2.46875 4.046875 -2.890625 C 3.859375 -3.09375 3.703125 -3.203125 3.078125 -3.59375 Z M 2.078125 -3.1875 L 3.296875 -2.40625 C 3.578125 -2.21875 4.046875 -1.921875 4.046875 -1.3125 C 4.046875 -0.578125 3.296875 -0.0625 2.484375 -0.0625 C 1.625 -0.0625 0.921875 -0.671875 0.921875 -1.5 C 0.921875 -2.078125 1.234375 -2.71875 2.078125 -3.1875 Z M 2.078125 -3.1875 "/>
</symbol>
<symbol overflow="visible" id="glyph1-7">
<path style="stroke:none;" d="M 2.921875 -6.359375 C 2.921875 -6.59375 2.921875 -6.625 2.6875 -6.625 C 2.078125 -5.984375 1.203125 -5.984375 0.890625 -5.984375 L 0.890625 -5.671875 C 1.078125 -5.671875 1.671875 -5.671875 2.1875 -5.9375 L 2.1875 -0.78125 C 2.1875 -0.421875 2.15625 -0.3125 1.265625 -0.3125 L 0.9375 -0.3125 L 0.9375 0 C 1.296875 -0.03125 2.15625 -0.03125 2.546875 -0.03125 C 2.953125 -0.03125 3.8125 -0.03125 4.15625 0 L 4.15625 -0.3125 L 3.84375 -0.3125 C 2.953125 -0.3125 2.921875 -0.421875 2.921875 -0.78125 Z M 2.921875 -6.359375 "/>
</symbol>
<symbol overflow="visible" id="glyph1-8">
<path style="stroke:none;" d="M 3.640625 -3.15625 L 3.640625 -2.84375 C 3.640625 -0.515625 2.609375 -0.0625 2.03125 -0.0625 C 1.875 -0.0625 1.328125 -0.078125 1.0625 -0.421875 C 1.5 -0.421875 1.578125 -0.703125 1.578125 -0.875 C 1.578125 -1.1875 1.34375 -1.328125 1.125 -1.328125 C 0.96875 -1.328125 0.671875 -1.25 0.671875 -0.859375 C 0.671875 -0.1875 1.203125 0.21875 2.046875 0.21875 C 3.328125 0.21875 4.546875 -1.140625 4.546875 -3.265625 C 4.546875 -5.9375 3.40625 -6.625 2.515625 -6.625 C 1.96875 -6.625 1.484375 -6.4375 1.046875 -6 C 0.640625 -5.546875 0.421875 -5.125 0.421875 -4.375 C 0.421875 -3.140625 1.296875 -2.171875 2.40625 -2.171875 C 3.015625 -2.171875 3.421875 -2.578125 3.640625 -3.15625 Z M 2.421875 -2.390625 C 2.25 -2.390625 1.796875 -2.390625 1.484375 -3.015625 C 1.3125 -3.390625 1.3125 -3.890625 1.3125 -4.375 C 1.3125 -4.90625 1.3125 -5.375 1.515625 -5.75 C 1.78125 -6.234375 2.171875 -6.375 2.515625 -6.375 C 2.96875 -6.375 3.296875 -6.03125 3.46875 -5.578125 C 3.59375 -5.265625 3.625 -4.640625 3.625 -4.1875 C 3.625 -3.359375 3.296875 -2.390625 2.421875 -2.390625 Z M 2.421875 -2.390625 "/>
</symbol>
<symbol overflow="visible" id="glyph1-9">
<path style="stroke:none;" d="M 2.234375 -6.015625 C 2.234375 -6.375 2.265625 -6.484375 3.046875 -6.484375 L 3.3125 -6.484375 L 3.3125 -6.78125 C 2.96875 -6.75 2.171875 -6.75 1.796875 -6.75 C 1.40625 -6.75 0.625 -6.75 0.28125 -6.78125 L 0.28125 -6.484375 L 0.53125 -6.484375 C 1.328125 -6.484375 1.34375 -6.375 1.34375 -6.015625 L 1.34375 -0.78125 C 1.34375 -0.421875 1.328125 -0.3125 0.53125 -0.3125 L 0.28125 -0.3125 L 0.28125 0 C 0.625 -0.03125 1.40625 -0.03125 1.78125 -0.03125 C 2.171875 -0.03125 2.96875 -0.03125 3.3125 0 L 3.3125 -0.3125 L 3.046875 -0.3125 C 2.265625 -0.3125 2.234375 -0.421875 2.234375 -0.78125 Z M 2.234375 -6.015625 "/>
</symbol>
<symbol overflow="visible" id="glyph1-10">
<path style="stroke:none;" d="M 6.171875 -5.8125 C 6.3125 -6.1875 6.578125 -6.46875 7.25 -6.484375 L 7.25 -6.78125 C 6.953125 -6.765625 6.546875 -6.75 6.296875 -6.75 C 6 -6.75 5.421875 -6.78125 5.15625 -6.78125 L 5.15625 -6.484375 C 5.671875 -6.46875 5.890625 -6.21875 5.890625 -5.984375 C 5.890625 -5.90625 5.859375 -5.84375 5.828125 -5.78125 L 4.015625 -1 L 2.109375 -6.015625 C 2.0625 -6.15625 2.0625 -6.171875 2.0625 -6.1875 C 2.0625 -6.484375 2.625 -6.484375 2.875 -6.484375 L 2.875 -6.78125 C 2.515625 -6.75 1.828125 -6.75 1.453125 -6.75 C 0.96875 -6.75 0.546875 -6.78125 0.1875 -6.78125 L 0.1875 -6.484375 C 0.828125 -6.484375 1.03125 -6.484375 1.15625 -6.109375 L 3.46875 0 C 3.53125 0.1875 3.59375 0.21875 3.71875 0.21875 C 3.890625 0.21875 3.90625 0.171875 3.953125 0.03125 Z M 6.171875 -5.8125 "/>
</symbol>
</g>
</defs>
<g id="surface1">
<path style="fill-rule:nonzero;fill:rgb(100%,96.939087%,40.000916%);fill-opacity:1;stroke-width:0.3985;stroke-linecap:butt;stroke-linejoin:round;stroke:rgb(0%,0%,0%);stroke-opacity:1;stroke-miterlimit:10;" d="M 0.00128631 14.17457 L 70.866694 -0.000860249 L 35.43399 75.546629 Z M 0.00128631 -14.172376 L 70.866694 -0.000860249 L 35.43399 -75.544435 Z M 0.00128631 -14.172376 " transform="matrix(0.99782,0,0,-0.99782,89.158873,88.612423)"/>
<path style=" stroke:none;fill-rule:nonzero;fill:rgb(79.998779%,79.998779%,100%);fill-opacity:1;" d="M 116.605469 87.738281 L 132.425781 87.738281 L 132.425781 75.34375 L 116.605469 75.34375 Z M 116.605469 87.738281 "/>
<g style="fill:rgb(0%,0%,0%);fill-opacity:1;">
  <use xlink:href="#glyph0-1" x="119.917679" y="84.424571"/>
  <use xlink:href="#glyph0-2" x="124.515468" y="84.424571"/>
</g>
<path style=" stroke:none;fill-rule:nonzero;fill:rgb(79.998779%,79.998779%,100%);fill-opacity:1;" d="M 136.582031 57.117188 L 147.804688 57.117188 L 147.804688 44.726562 L 136.582031 44.726562 Z M 136.582031 57.117188 "/>
<g style="fill:rgb(0%,0%,0%);fill-opacity:1;">
  <use xlink:href="#glyph0-3" x="139.89404" y="53.80546"/>
</g>
<path style=" stroke:none;fill-rule:nonzero;fill:rgb(79.998779%,79.998779%,100%);fill-opacity:1;" d="M 116.605469 101.878906 L 132.425781 101.878906 L 132.425781 89.488281 L 116.605469 89.488281 Z M 116.605469 101.878906 "/>
<g style="fill:rgb(0%,0%,0%);fill-opacity:1;">
  <use xlink:href="#glyph0-1" x="119.917679" y="98.566677"/>
  <use xlink:href="#glyph0-4" x="124.515468" y="98.566677"/>
</g>
<path style=" stroke:none;fill-rule:nonzero;fill:rgb(79.998779%,79.998779%,100%);fill-opacity:1;" d="M 134.28125 132.5 L 150.105469 132.5 L 150.105469 120.105469 L 134.28125 120.105469 Z M 134.28125 132.5 "/>
<g style="fill:rgb(0%,0%,0%);fill-opacity:1;">
  <use xlink:href="#glyph0-1" x="137.595062" y="129.185789"/>
  <use xlink:href="#glyph0-5" x="142.192851" y="129.185789"/>
</g>
<path style="fill-rule:nonzero;fill:rgb(100%,96.939087%,40.000916%);fill-opacity:1;stroke-width:0.3985;stroke-linecap:butt;stroke-linejoin:round;stroke:rgb(0%,0%,0%);stroke-opacity:1;stroke-miterlimit:10;" d="M 0.00128631 14.17457 L -70.868037 -0.000860249 L -35.435333 75.546629 Z M 0.00128631 -14.172376 L -70.868037 -0.000860249 L -35.435333 -75.544435 Z M 0.00128631 -14.172376 " transform="matrix(0.99782,0,0,-0.99782,89.158873,88.612423)"/>
<path style=" stroke:none;fill-rule:nonzero;fill:rgb(79.998779%,79.998779%,100%);fill-opacity:1;" d="M 45.890625 87.738281 L 61.714844 87.738281 L 61.714844 75.34375 L 45.890625 75.34375 Z M 45.890625 87.738281 "/>
<g style="fill:rgb(0%,0%,0%);fill-opacity:1;">
  <use xlink:href="#glyph0-1" x="49.206151" y="84.424571"/>
  <use xlink:href="#glyph0-6" x="53.80394" y="84.424571"/>
</g>
<path style=" stroke:none;fill-rule:nonzero;fill:rgb(79.998779%,79.998779%,100%);fill-opacity:1;" d="M 30.511719 57.117188 L 41.738281 57.117188 L 41.738281 44.726562 L 30.511719 44.726562 Z M 30.511719 57.117188 "/>
<g style="fill:rgb(0%,0%,0%);fill-opacity:1;">
  <use xlink:href="#glyph0-7" x="33.826748" y="53.80546"/>
</g>
<path style=" stroke:none;fill-rule:nonzero;fill:rgb(79.998779%,79.998779%,100%);fill-opacity:1;" d="M 45.890625 101.878906 L 61.714844 101.878906 L 61.714844 89.488281 L 45.890625 89.488281 Z M 45.890625 101.878906 "/>
<g style="fill:rgb(0%,0%,0%);fill-opacity:1;">
  <use xlink:href="#glyph0-1" x="49.206151" y="98.566677"/>
  <use xlink:href="#glyph0-8" x="53.80394" y="98.566677"/>
</g>
<path style=" stroke:none;fill-rule:nonzero;fill:rgb(79.998779%,79.998779%,100%);fill-opacity:1;" d="M 28.214844 132.5 L 44.035156 132.5 L 44.035156 120.105469 L 28.214844 120.105469 Z M 28.214844 132.5 "/>
<g style="fill:rgb(0%,0%,0%);fill-opacity:1;">
  <use xlink:href="#glyph0-1" x="31.52777" y="129.185789"/>
  <use xlink:href="#glyph0-9" x="36.125559" y="129.185789"/>
</g>
<path style="fill-rule:nonzero;fill:rgb(100%,96.939087%,40.000916%);fill-opacity:1;stroke-width:0.3985;stroke-linecap:butt;stroke-linejoin:round;stroke:rgb(0%,0%,0%);stroke-opacity:1;stroke-miterlimit:10;" d="M 0.00128631 14.17457 L 35.43399 75.546629 L -35.435333 75.546629 Z M 0.00128631 -14.172376 L 35.43399 -75.544435 L -35.435333 -75.544435 Z M 0.00128631 -14.172376 " transform="matrix(0.99782,0,0,-0.99782,89.158873,88.612423)"/>
<path style=" stroke:none;fill-rule:nonzero;fill:rgb(79.998779%,79.998779%,100%);fill-opacity:1;" d="M 101.226562 50.046875 L 112.449219 50.046875 L 112.449219 37.652344 L 101.226562 37.652344 Z M 101.226562 50.046875 "/>
<g style="fill:rgb(0%,0%,0%);fill-opacity:1;">
  <use xlink:href="#glyph0-5" x="104.538276" y="46.733908"/>
</g>
<path style=" stroke:none;fill-rule:nonzero;fill:rgb(79.998779%,79.998779%,100%);fill-opacity:1;" d="M 83.546875 19.425781 L 94.769531 19.425781 L 94.769531 7.035156 L 83.546875 7.035156 Z M 83.546875 19.425781 "/>
<g style="fill:rgb(0%,0%,0%);fill-opacity:1;">
  <use xlink:href="#glyph0-10" x="86.860893" y="16.114797"/>
</g>
<path style=" stroke:none;fill-rule:nonzero;fill:rgb(79.998779%,79.998779%,100%);fill-opacity:1;" d="M 65.867188 50.046875 L 77.09375 50.046875 L 77.09375 37.652344 L 65.867188 37.652344 Z M 65.867188 50.046875 "/>
<g style="fill:rgb(0%,0%,0%);fill-opacity:1;">
  <use xlink:href="#glyph0-2" x="69.182512" y="46.733908"/>
</g>
<path style=" stroke:none;fill-rule:nonzero;fill:rgb(79.998779%,79.998779%,100%);fill-opacity:1;" d="M 101.226562 139.570312 L 112.449219 139.570312 L 112.449219 127.179688 L 101.226562 127.179688 Z M 101.226562 139.570312 "/>
<g style="fill:rgb(0%,0%,0%);fill-opacity:1;">
  <use xlink:href="#glyph0-8" x="104.538276" y="136.256343"/>
</g>
<path style=" stroke:none;fill-rule:nonzero;fill:rgb(79.998779%,79.998779%,100%);fill-opacity:1;" d="M 81.246094 170.191406 L 97.070312 170.191406 L 97.070312 157.796875 L 81.246094 157.796875 Z M 81.246094 170.191406 "/>
<g style="fill:rgb(0%,0%,0%);fill-opacity:1;">
  <use xlink:href="#glyph0-1" x="84.561915" y="166.875454"/>
  <use xlink:href="#glyph0-1" x="89.159704" y="166.875454"/>
</g>
<path style=" stroke:none;fill-rule:nonzero;fill:rgb(79.998779%,79.998779%,100%);fill-opacity:1;" d="M 65.867188 139.570312 L 77.09375 139.570312 L 77.09375 127.179688 L 65.867188 127.179688 Z M 65.867188 139.570312 "/>
<g style="fill:rgb(0%,0%,0%);fill-opacity:1;">
  <use xlink:href="#glyph0-6" x="69.182512" y="136.256343"/>
</g>
<path style=" stroke:none;fill-rule:nonzero;fill:rgb(0%,0%,100%);fill-opacity:1;" d="M 55.789062 13.230469 C 55.789062 12.132812 54.902344 11.242188 53.800781 11.242188 C 52.703125 11.242188 51.8125 12.132812 51.8125 13.230469 C 51.8125 14.328125 52.703125 15.21875 53.800781 15.21875 C 54.902344 15.21875 55.789062 14.328125 55.789062 13.230469 Z M 55.789062 13.230469 "/>
<g style="fill:rgb(0%,0%,100%);fill-opacity:1;">
  <use xlink:href="#glyph1-1" x="51.318536" y="9.719767"/>
</g>
<path style=" stroke:none;fill-rule:nonzero;fill:rgb(0%,0%,100%);fill-opacity:1;" d="M 126.503906 13.230469 C 126.503906 12.132812 125.613281 11.242188 124.515625 11.242188 C 123.417969 11.242188 122.527344 12.132812 122.527344 13.230469 C 122.527344 14.328125 123.417969 15.21875 124.515625 15.21875 C 125.613281 15.21875 126.503906 14.328125 126.503906 13.230469 Z M 126.503906 13.230469 "/>
<g style="fill:rgb(0%,0%,100%);fill-opacity:1;">
  <use xlink:href="#glyph1-2" x="122.030064" y="9.719767"/>
</g>
<path style=" stroke:none;fill-rule:nonzero;fill:rgb(0%,0%,100%);fill-opacity:1;" d="M 55.789062 163.992188 C 55.789062 162.894531 54.902344 162.003906 53.800781 162.003906 C 52.703125 162.003906 51.8125 162.894531 51.8125 163.992188 C 51.8125 165.09375 52.703125 165.980469 53.800781 165.980469 C 54.902344 165.980469 55.789062 165.09375 55.789062 163.992188 Z M 55.789062 163.992188 "/>
<g style="fill:rgb(0%,0%,100%);fill-opacity:1;">
  <use xlink:href="#glyph1-3" x="51.318536" y="173.911085"/>
</g>
<path style=" stroke:none;fill-rule:nonzero;fill:rgb(0%,0%,100%);fill-opacity:1;" d="M 126.503906 163.992188 C 126.503906 162.894531 125.613281 162.003906 124.515625 162.003906 C 123.417969 162.003906 122.527344 162.894531 122.527344 163.992188 C 122.527344 165.09375 123.417969 165.980469 124.515625 165.980469 C 125.613281 165.980469 126.503906 165.09375 126.503906 163.992188 Z M 126.503906 163.992188 "/>
<g style="fill:rgb(0%,0%,100%);fill-opacity:1;">
  <use xlink:href="#glyph1-4" x="122.030064" y="173.911085"/>
</g>
<path style=" stroke:none;fill-rule:nonzero;fill:rgb(0%,0%,100%);fill-opacity:1;" d="M 20.433594 88.613281 C 20.433594 87.515625 19.542969 86.625 18.445312 86.625 C 17.347656 86.625 16.457031 87.515625 16.457031 88.613281 C 16.457031 89.710938 17.347656 90.601562 18.445312 90.601562 C 19.542969 90.601562 20.433594 89.710938 20.433594 88.613281 Z M 20.433594 88.613281 "/>
<g style="fill:rgb(0%,0%,100%);fill-opacity:1;">
  <use xlink:href="#glyph1-5" x="9.964875" y="91.815426"/>
</g>
<path style=" stroke:none;fill-rule:nonzero;fill:rgb(0%,0%,100%);fill-opacity:1;" d="M 91.148438 74.46875 C 91.148438 73.371094 90.257812 72.480469 89.160156 72.480469 C 88.0625 72.480469 87.171875 73.371094 87.171875 74.46875 C 87.171875 75.566406 88.0625 76.457031 89.160156 76.457031 C 90.257812 76.457031 91.148438 75.566406 91.148438 74.46875 Z M 91.148438 74.46875 "/>
<g style="fill:rgb(0%,0%,100%);fill-opacity:1;">
  <use xlink:href="#glyph1-6" x="86.6743" y="84.38865"/>
</g>
<path style=" stroke:none;fill-rule:nonzero;fill:rgb(0%,0%,100%);fill-opacity:1;" d="M 161.859375 88.613281 C 161.859375 87.515625 160.96875 86.625 159.871094 86.625 C 158.773438 86.625 157.882812 87.515625 157.882812 88.613281 C 157.882812 89.710938 158.773438 90.601562 159.871094 90.601562 C 160.96875 90.601562 161.859375 89.710938 161.859375 88.613281 Z M 161.859375 88.613281 "/>
<g style="fill:rgb(0%,0%,100%);fill-opacity:1;">
  <use xlink:href="#glyph1-7" x="163.382728" y="91.815426"/>
</g>
<path style=" stroke:none;fill-rule:nonzero;fill:rgb(0%,0%,100%);fill-opacity:1;" d="M 91.148438 102.753906 C 91.148438 101.65625 90.257812 100.765625 89.160156 100.765625 C 88.0625 100.765625 87.171875 101.65625 87.171875 102.753906 C 87.171875 103.851562 88.0625 104.742188 89.160156 104.742188 C 90.257812 104.742188 91.148438 103.851562 91.148438 102.753906 Z M 91.148438 102.753906 "/>
<g style="fill:rgb(0%,0%,100%);fill-opacity:1;">
  <use xlink:href="#glyph1-8" x="86.6743" y="99.242202"/>
</g>
<g style="fill:rgb(0%,0%,0%);fill-opacity:1;">
  <use xlink:href="#glyph1-9" x="122.719558" y="62.168191"/>
</g>
<g style="fill:rgb(0%,0%,0%);fill-opacity:1;">
  <use xlink:href="#glyph1-9" x="85.431016" y="37.04208"/>
</g>
<g style="fill:rgb(0%,0%,0%);fill-opacity:1;">
  <use xlink:href="#glyph1-9" x="89.299014" y="37.04208"/>
</g>
<g style="fill:rgb(0%,0%,0%);fill-opacity:1;">
  <use xlink:href="#glyph1-9" x="48.143472" y="62.168191"/>
</g>
<g style="fill:rgb(0%,0%,0%);fill-opacity:1;">
  <use xlink:href="#glyph1-9" x="52.01147" y="62.168191"/>
</g>
<g style="fill:rgb(0%,0%,0%);fill-opacity:1;">
  <use xlink:href="#glyph1-9" x="55.879468" y="62.168191"/>
</g>
<g style="fill:rgb(0%,0%,0%);fill-opacity:1;">
  <use xlink:href="#glyph1-9" x="48.281172" y="121.849815"/>
  <use xlink:href="#glyph1-10" x="51.870825" y="121.849815"/>
</g>
<g style="fill:rgb(0%,0%,0%);fill-opacity:1;">
  <use xlink:href="#glyph1-10" x="85.431016" y="146.975926"/>
</g>
<g style="fill:rgb(0%,0%,0%);fill-opacity:1;">
  <use xlink:href="#glyph1-10" x="118.991702" y="121.849815"/>
  <use xlink:href="#glyph1-9" x="126.447365" y="121.849815"/>
</g>
</g>
</svg>
