<?xml version="1.0" encoding="iso-8859-1" standalone="no"?> 
<?xml-stylesheet href="_Wrapper_modification-19.css" type="text/css"?> 
<svg xmlns="http://www.w3.org/2000/svg" xmlns:xlink="http://www.w3.org/1999/xlink" width="80.63739pt" height="125.18076pt" viewBox="-68.77144 -62.59038 80.63739 125.18076 "> 
<g transform="translate(0,62.59038 ) scale(1,-1) translate(0,62.59038 )"> 
             <g stroke="#000" fill="#000">
 <g stroke-width="0.4">
 <g stroke-linejoin="round">
 <g stroke="#000">
 <g fill="#ff6">
 <path d=" M 0.0 0.0 L -28.45274 49.28 L -56.90549 0.0 Z M -28.45274 -49.28 L -56.90549 0.0 L 0.0 0.0 Z  " />
 <g fill="#ccf">
 <g fill="#ccf">
 <path d=" M -19.87183 18.40703 h 11.29092 v 12.46594 h -11.29092 Z  " stroke="none"/>
 </g>
 <g transform="translate(-16.53885,21.74)">
 <g fill="#000">
 <text style="stroke:none" transform="scale(1,-1) translate(2.31248,0)" text-anchor="middle"  font-size="10"> 
<g fill="#000">
 <g stroke="none"> <tspan font-family="cmr" font-size="9">1</tspan></g> </g>
 </text> 
</g>
 </g>
 </g>
 <g fill="#ccf">
 <g fill="#ccf">
 <path d=" M -48.32457 18.40703 h 11.29092 v 12.46594 h -11.29092 Z  " stroke="none"/>
 </g>
 <g transform="translate(-44.9916,21.74)">
 <g fill="#000">
 <text style="stroke:none" transform="scale(1,-1) translate(2.31248,0)" text-anchor="middle"  font-size="10"> 
<g fill="#000">
 <g stroke="none"> <tspan font-family="cmr" font-size="9">3</tspan></g> </g>
 </text> 
</g>
 </g>
 </g>
 <g fill="#ccf">
 <g fill="#ccf">
 <path d=" M -34.0982 -6.23297 h 11.29092 v 12.46594 h -11.29092 Z  " stroke="none"/>
 </g>
 <g transform="translate(-30.76523,-2.9)">
 <g fill="#000">
 <text style="stroke:none" transform="scale(1,-1) translate(2.31248,0)" text-anchor="middle"  font-size="10"> 
<g fill="#000">
 <g stroke="none"> <tspan font-family="cmr" font-size="9">7</tspan></g> </g>
 </text> 
</g>
 </g>
 </g>
 <g fill="#ccf">
 <g fill="#ccf">
 <path d=" M -48.32457 -30.87297 h 11.29092 v 12.46594 h -11.29092 Z  " stroke="none"/>
 </g>
 <g transform="translate(-44.9916,-27.54)">
 <g fill="#000">
 <text style="stroke:none" transform="scale(1,-1) translate(2.31248,0)" text-anchor="middle"  font-size="10"> 
<g fill="#000">
 <g stroke="none"> <tspan font-family="cmr" font-size="9">4</tspan></g> </g>
 </text> 
</g>
 </g>
 </g>
 <g fill="#ccf">
 <g fill="#ccf">
 <path d=" M -34.0982 -6.23297 h 11.29092 v 12.46594 h -11.29092 Z  " stroke="none"/>
 </g>
 <g transform="translate(-30.76523,-2.9)">
 <g fill="#000">
 <text style="stroke:none" transform="scale(1,-1) translate(2.31248,0)" text-anchor="middle"  font-size="10"> 
<g fill="#000">
 <g stroke="none"> <tspan font-family="cmr" font-size="9">7</tspan></g> </g>
 </text> 
</g>
 </g>
 </g>
 <g fill="#ccf">
 <g fill="#ccf">
 <path d=" M -19.87183 -30.87297 h 11.29092 v 12.46594 h -11.29092 Z  " stroke="none"/>
 </g>
 <g transform="translate(-16.53885,-27.54)">
 <g fill="#000">
 <text style="stroke:none" transform="scale(1,-1) translate(2.31248,0)" text-anchor="middle"  font-size="10"> 
<g fill="#000">
 <g stroke="none"> <tspan font-family="cmr" font-size="9">5</tspan></g> </g>
 </text> 
</g>
 </g>
 </g>
 </g>
 </g>
 </g>
 <g fill="#00f">
 <g fill="#00f">
 <path d=" M 2.0 0.0 C 2.0 1.10458 1.10458 2.0 0.0 2.0 C -1.10458 2.0 -2.0 1.10458 -2.0 0.0 C -2.0 -1.10458 -1.10458 -2.0 0.0 -2.0 C 1.10458 -2.0 2.0 -1.10458 2.0 0.0 Z M 0.0 0.0  " stroke="none"/>
 </g>
 <g fill="#000">
 <text style="stroke:none" transform="scale(1,-1) translate(0.0,0)" text-anchor="middle"  font-size="10"> 
<g fill="#000">
 <g stroke="none"> </g> </g>
 </text> 
</g>
 </g>
 <g stroke="#00f" fill="#00f">
 <g stroke="#00f" fill="#00f">
 </g>
 <g transform="translate(3.53297,-3.22221)">
 <g fill="#00f">
 <text style="stroke:none" transform="scale(1,-1) translate(2.5,0)" text-anchor="middle"  font-size="10"> 
<g fill="#00f">
 <g stroke="none"> 8</g> </g>
 </text> 
</g>
 </g>
 </g>
 <g fill="#00f">
 <g fill="#00f">
 <path d=" M -26.45274 49.28 C -26.45274 50.38458 -27.34816 51.28 -28.45274 51.28 C -29.55733 51.28 -30.45274 50.38458 -30.45274 49.28 C -30.45274 48.17542 -29.55733 47.28 -28.45274 47.28 C -27.34816 47.28 -26.45274 48.17542 -26.45274 49.28 Z M -28.45274 49.28  " stroke="none"/>
 </g>
 <g transform="translate(-28.45274,49.28)">
 <g fill="#000">
 <text style="stroke:none" transform="scale(1,-1) translate(0.0,0)" text-anchor="middle"  font-size="10"> 
<g fill="#000">
 <g stroke="none"> </g> </g>
 </text> 
</g>
 </g>
 </g>
 <g stroke="#00f" fill="#00f">
 <g stroke="#00f" fill="#00f">
 </g>
 <g transform="translate(-30.95274,52.81297)">
 <g fill="#00f">
 <text style="stroke:none" transform="scale(1,-1) translate(2.5,0)" text-anchor="middle"  font-size="10"> 
<g fill="#00f">
 <g stroke="none"> 3</g> </g>
 </text> 
</g>
 </g>
 </g>
 <g fill="#00f">
 <g fill="#00f">
 <path d=" M -54.90549 0.0 C -54.90549 1.10458 -55.8009 2.0 -56.90549 2.0 C -58.01007 2.0 -58.90549 1.10458 -58.90549 0.0 C -58.90549 -1.10458 -58.01007 -2.0 -56.90549 -2.0 C -55.8009 -2.0 -54.90549 -1.10458 -54.90549 0.0 Z M -56.90549 0.0  " stroke="none"/>
 </g>
 <g transform="translate(-56.90549,0.0)">
 <g fill="#000">
 <text style="stroke:none" transform="scale(1,-1) translate(0.0,0)" text-anchor="middle"  font-size="10"> 
<g fill="#000">
 <g stroke="none"> </g> </g>
 </text> 
</g>
 </g>
 </g>
 <g stroke="#00f" fill="#00f">
 <g stroke="#00f" fill="#00f">
 </g>
 <g transform="translate(-65.43846,-3.22221)">
 <g fill="#00f">
 <text style="stroke:none" transform="scale(1,-1) translate(2.5,0)" text-anchor="middle"  font-size="10"> 
<g fill="#00f">
 <g stroke="none"> 7</g> </g>
 </text> 
</g>
 </g>
 </g>
 <g fill="#00f">
 <g fill="#00f">
 <path d=" M -26.45274 -49.28 C -26.45274 -48.17542 -27.34816 -47.28 -28.45274 -47.28 C -29.55733 -47.28 -30.45274 -48.17542 -30.45274 -49.28 C -30.45274 -50.38458 -29.55733 -51.28 -28.45274 -51.28 C -27.34816 -51.28 -26.45274 -50.38458 -26.45274 -49.28 Z M -28.45274 -49.28  " stroke="none"/>
 </g>
 <g transform="translate(-28.45274,-49.28)">
 <g fill="#000">
 <text style="stroke:none" transform="scale(1,-1) translate(0.0,0)" text-anchor="middle"  font-size="10"> 
<g fill="#000">
 <g stroke="none"> </g> </g>
 </text> 
</g>
 </g>
 </g>
 <g stroke="#00f" fill="#00f">
 <g stroke="#00f" fill="#00f">
 </g>
 <g transform="translate(-30.95274,-59.2574)">
 <g fill="#00f">
 <text style="stroke:none" transform="scale(1,-1) translate(2.5,0)" text-anchor="middle"  font-size="10"> 
<g fill="#00f">
 <g stroke="none"> 6</g> </g>
 </text> 
</g>
 </g>
 </g>
 <g transform="translate(-31.04257,13.00975)">
 <g fill="#000">
 <text style="stroke:none" transform="scale(1,-1) translate(2.59027,0)" text-anchor="middle"  font-size="10"> 
<g fill="#000">
 <g stroke="none"> <tspan font-family="cmmi" font-size="10">I</tspan></g> </g>
 </text> 
</g>
 </g>
 <g transform="translate(-33.63284,-19.84306)">
 <g fill="#000">
 <text style="stroke:none" transform="scale(1,-1) translate(5.18054,0)" text-anchor="middle"  font-size="10"> 
<g fill="#000">
 <g stroke="none"> <tspan font-family="cmmi" font-size="10">II</tspan></g> </g>
 </text> 
</g>
 </g>
 </g>
 </g>
 
               </g> 
</svg> 
