<?xml version="1.0" encoding="iso-8859-1" standalone="no"?> 
<?xml-stylesheet href="_Wrapper_Image_FaceGraphTetra.css" type="text/css"?> 
<svg xmlns="http://www.w3.org/2000/svg" xmlns:xlink="http://www.w3.org/1999/xlink" width="62.53928pt" height="62.53928pt" viewBox="-2.8169 -2.8169 62.53928 62.53928 "> 
<g transform="translate(0, 59.72238 ) scale(1,-1) translate(0,2.8169 )"> 
 <g stroke="#000" fill="#000">
 <g stroke-width="0.4">
 <g fill="#000">
 <g fill="#000">
 <path d=" M 2.8169 0.0 C 2.8169 1.55574 1.55574 2.8169 0.0 2.8169 C -1.55574 2.8169 -2.8169 1.55574 -2.8169 0.0 C -2.8169 -1.55574 -1.55574 -2.8169 0.0 -2.8169 C 1.55574 -2.8169 2.8169 -1.55574 2.8169 0.0 Z M 0.0 0.0  " stroke="none"/>
 </g>
 <g fill="#000">
 <text style="stroke:none" transform="scale(1,-1) translate(0.0,0)" text-anchor="middle"  font-size="10"> 
<g fill="#000">
 <g stroke="none"> </g> </g>
 </text> 
</g>
 </g>
 <g fill="#000">
 <g fill="#000">
 <path d=" M 59.72238 0.0 C 59.72238 1.55574 58.46123 2.8169 56.90549 2.8169 C 55.34975 2.8169 54.0886 1.55574 54.0886 0.0 C 54.0886 -1.55574 55.34975 -2.8169 56.90549 -2.8169 C 58.46123 -2.8169 59.72238 -1.55574 59.72238 0.0 Z M 56.90549 0.0  " stroke="none"/>
 </g>
 <g transform="translate(56.90549,0.0)">
 <g fill="#000">
 <text style="stroke:none" transform="scale(1,-1) translate(0.0,0)" text-anchor="middle"  font-size="10"> 
<g fill="#000">
 <g stroke="none"> </g> </g>
 </text> 
</g>
 </g>
 </g>
 <g fill="#000">
 <g fill="#000">
 <path d=" M 31.26964 56.90549 C 31.26964 58.46123 30.00848 59.72238 28.45274 59.72238 C 26.897 59.72238 25.63585 58.46123 25.63585 56.90549 C 25.63585 55.34975 26.897 54.0886 28.45274 54.0886 C 30.00848 54.0886 31.26964 55.34975 31.26964 56.90549 Z M 28.45274 56.90549  " stroke="none"/>
 </g>
 <g transform="translate(28.45274,56.90549)">
 <g fill="#000">
 <text style="stroke:none" transform="scale(1,-1) translate(0.0,0)" text-anchor="middle"  font-size="10"> 
<g fill="#000">
 <g stroke="none"> </g> </g>
 </text> 
</g>
 </g>
 </g>
 <g fill="#000">
 <g fill="#000">
 <path d=" M 31.26964 28.45274 C 31.26964 30.00848 30.00848 31.26964 28.45274 31.26964 C 26.897 31.26964 25.63585 30.00848 25.63585 28.45274 C 25.63585 26.897 26.897 25.63585 28.45274 25.63585 C 30.00848 25.63585 31.26964 26.897 31.26964 28.45274 Z M 28.45274 28.45274  " stroke="none"/>
 </g>
 <g transform="translate(28.45274,28.45274)">
 <g fill="#000">
 <text style="stroke:none" transform="scale(1,-1) translate(0.0,0)" text-anchor="middle"  font-size="10"> 
<g fill="#000">
 <g stroke="none"> </g> </g>
 </text> 
</g>
 </g>
 </g>
 <path d=" M 3.01689 0.0 L 53.8886 0.0  " fill="none"/>
 <path d=" M 27.10367 54.20729 L 1.34908 2.6982  " fill="none"/>
 <path d=" M 28.45274 31.46964 L 28.45274 53.8886  " fill="none"/>
 <path d=" M 2.13326 2.13326 L 26.31949 26.31949  " fill="none"/>
 <path d=" M 55.55641 2.6982 L 29.80182 54.20729  " fill="none"/>
 <path d=" M 54.77223 2.13326 L 30.586 26.31949  " fill="none"/>
 </g>
 </g>
                   </g> 
</svg> 
