<?xml version="1.0" encoding="UTF-8"?>
<svg xmlns="http://www.w3.org/2000/svg" xmlns:xlink="http://www.w3.org/1999/xlink" width="200.282pt" height="56.646pt" viewBox="0 0 200.282 56.646" version="1.2">
<defs>
<clipPath id="clip1">
  <path d="M 0.265625 20 L 43 20 L 43 56.292969 L 0.265625 56.292969 Z M 0.265625 20 "/>
</clipPath>
<clipPath id="clip2">
  <path d="M 0.265625 6 L 86 6 L 86 50 L 0.265625 50 Z M 0.265625 6 "/>
</clipPath>
</defs>
<g id="surface1">
<g clip-path="url(#clip1)" clip-rule="nonzero">
<path style="fill-rule:nonzero;fill:rgb(100%,96.939087%,40.000916%);fill-opacity:1;stroke-width:0.3985;stroke-linecap:butt;stroke-linejoin:round;stroke:rgb(0%,0%,0%);stroke-opacity:1;stroke-miterlimit:10;" d="M -42.521997 -14.174247 L -14.174066 -21.261229 L -28.348032 14.173684 Z M -14.174066 -21.261229 L -28.348032 14.173684 L -0.000101049 -0.000281538 Z M -14.174066 -21.261229 " transform="matrix(0.993789,0,0,-0.993789,42.71885,34.96847)"/>
</g>
<path style="fill-rule:nonzero;fill:rgb(100%,96.939087%,40.000916%);fill-opacity:1;stroke-width:0.3985;stroke-linecap:butt;stroke-linejoin:round;stroke:rgb(0%,0%,0%);stroke-opacity:1;stroke-miterlimit:10;" d="M -0.000101049 -0.000281538 L 21.260847 28.347649 L 42.521795 -1.41925 Z M -0.000101049 -0.000281538 " transform="matrix(0.993789,0,0,-0.993789,42.71885,34.96847)"/>
<g clip-path="url(#clip2)" clip-rule="nonzero">
<path style="fill:none;stroke-width:0.3985;stroke-linecap:butt;stroke-linejoin:round;stroke:rgb(0%,0%,0%);stroke-opacity:1;stroke-dasharray:2.98883,2.98883;stroke-miterlimit:10;" d="M -42.521997 -14.174247 L -0.000101049 -0.000281538 M 42.521795 -1.41925 L 17.007871 14.173684 M -0.000101049 -0.000281538 L 17.007871 14.173684 M 21.260847 28.347649 L 17.007871 14.173684 " transform="matrix(0.993789,0,0,-0.993789,42.71885,34.96847)"/>
</g>
<path style="fill-rule:nonzero;fill:rgb(100%,96.939087%,40.000916%);fill-opacity:1;stroke-width:0.3985;stroke-linecap:butt;stroke-linejoin:round;stroke:rgb(0%,0%,0%);stroke-opacity:1;stroke-miterlimit:10;" d="M 113.387691 -0.000281538 L 90.711705 -8.502302 L 79.371746 14.173684 Z M 113.387691 -0.000281538 L 79.371746 14.173684 L 99.213725 28.347649 Z M 113.387691 -0.000281538 " transform="matrix(0.993789,0,0,-0.993789,42.71885,34.96847)"/>
<path style="fill-rule:nonzero;fill:rgb(100%,96.939087%,40.000916%);fill-opacity:1;stroke-width:0.3985;stroke-linecap:butt;stroke-linejoin:round;stroke:rgb(0%,0%,0%);stroke-opacity:1;stroke-miterlimit:10;" d="M 113.387691 -0.000281538 L 127.561656 28.347649 L 147.403635 14.173684 Z M 113.387691 -0.000281538 L 147.403635 14.173684 L 136.063677 -8.502302 Z M 113.387691 -0.000281538 " transform="matrix(0.993789,0,0,-0.993789,42.71885,34.96847)"/>
<path style=" stroke:none;fill-rule:nonzero;fill:rgb(50%,50%,50%);fill-opacity:1;" d="M 156.390625 34.96875 C 156.390625 34.421875 155.949219 33.976562 155.402344 33.976562 C 154.855469 33.976562 154.410156 34.421875 154.410156 34.96875 C 154.410156 35.515625 154.855469 35.957031 155.402344 35.957031 C 155.949219 35.957031 156.390625 35.515625 156.390625 34.96875 Z M 156.390625 34.96875 "/>
<path style=" stroke:none;fill-rule:nonzero;fill:rgb(50%,50%,50%);fill-opacity:1;" d="M 142.308594 6.796875 C 142.308594 6.25 141.863281 5.808594 141.316406 5.808594 C 140.769531 5.808594 140.328125 6.25 140.328125 6.796875 C 140.328125 7.34375 140.769531 7.789062 141.316406 7.789062 C 141.863281 7.789062 142.308594 7.34375 142.308594 6.796875 Z M 142.308594 6.796875 "/>
<path style=" stroke:none;fill-rule:nonzero;fill:rgb(50%,50%,50%);fill-opacity:1;" d="M 122.585938 20.882812 C 122.585938 20.335938 122.144531 19.894531 121.597656 19.894531 C 121.050781 19.894531 120.605469 20.335938 120.605469 20.882812 C 120.605469 21.429688 121.050781 21.875 121.597656 21.875 C 122.144531 21.875 122.585938 21.429688 122.585938 20.882812 Z M 122.585938 20.882812 "/>
<path style=" stroke:none;fill-rule:nonzero;fill:rgb(50%,50%,50%);fill-opacity:1;" d="M 133.855469 43.417969 C 133.855469 42.871094 133.410156 42.429688 132.867188 42.429688 C 132.320312 42.429688 131.875 42.871094 131.875 43.417969 C 131.875 43.964844 132.320312 44.410156 132.867188 44.410156 C 133.410156 44.410156 133.855469 43.964844 133.855469 43.417969 Z M 133.855469 43.417969 "/>
<path style=" stroke:none;fill-rule:nonzero;fill:rgb(50%,50%,50%);fill-opacity:1;" d="M 178.929688 43.417969 C 178.929688 42.871094 178.484375 42.429688 177.9375 42.429688 C 177.390625 42.429688 176.949219 42.871094 176.949219 43.417969 C 176.949219 43.964844 177.390625 44.410156 177.9375 44.410156 C 178.484375 44.410156 178.929688 43.964844 178.929688 43.417969 Z M 178.929688 43.417969 "/>
<path style=" stroke:none;fill-rule:nonzero;fill:rgb(50%,50%,50%);fill-opacity:1;" d="M 190.195312 20.882812 C 190.195312 20.335938 189.753906 19.894531 189.207031 19.894531 C 188.660156 19.894531 188.214844 20.335938 188.214844 20.882812 C 188.214844 21.429688 188.660156 21.875 189.207031 21.875 C 189.753906 21.875 190.195312 21.429688 190.195312 20.882812 Z M 190.195312 20.882812 "/>
<path style=" stroke:none;fill-rule:nonzero;fill:rgb(50%,50%,50%);fill-opacity:1;" d="M 170.476562 6.796875 C 170.476562 6.25 170.035156 5.808594 169.488281 5.808594 C 168.941406 5.808594 168.496094 6.25 168.496094 6.796875 C 168.496094 7.34375 168.941406 7.789062 169.488281 7.789062 C 170.035156 7.789062 170.476562 7.34375 170.476562 6.796875 Z M 170.476562 6.796875 "/>
</g>
</svg>
