<?xml version="1.0" encoding="UTF-8"?>
<svg xmlns="http://www.w3.org/2000/svg" xmlns:xlink="http://www.w3.org/1999/xlink" width="151.893pt" height="98.72pt" viewBox="0 0 151.893 98.72" version="1.2">
<g id="surface1">
<path style="fill-rule:nonzero;fill:rgb(100%,96.939087%,40.000916%);fill-opacity:1;stroke-width:0.3985;stroke-linecap:butt;stroke-linejoin:round;stroke:rgb(0%,0%,0%);stroke-opacity:1;stroke-miterlimit:10;" d="M -0.00163993 14.174651 L 56.693867 -28.347959 L 56.693867 56.693343 Z M 56.693867 -28.347959 L 56.693867 56.693343 L 141.735169 56.693343 L 141.735169 -28.347959 Z M 56.693867 -28.347959 " transform="matrix(0.997172,0,0,-0.997172,6.982104,63.353311)"/>
<path style=" stroke:none;fill-rule:nonzero;fill:rgb(0%,0%,100%);fill-opacity:1;" d="M 8.96875 49.21875 C 8.96875 48.121094 8.078125 47.234375 6.980469 47.234375 C 5.882812 47.234375 4.996094 48.121094 4.996094 49.21875 C 4.996094 50.316406 5.882812 51.207031 6.980469 51.207031 C 8.078125 51.207031 8.96875 50.316406 8.96875 49.21875 Z M 8.96875 49.21875 "/>
<path style=" stroke:none;fill-rule:nonzero;fill:rgb(0%,0%,100%);fill-opacity:1;" d="M 65.503906 91.621094 C 65.503906 90.523438 64.613281 89.632812 63.515625 89.632812 C 62.417969 89.632812 61.527344 90.523438 61.527344 91.621094 C 61.527344 92.71875 62.417969 93.605469 63.515625 93.605469 C 64.613281 93.605469 65.503906 92.71875 65.503906 91.621094 Z M 65.503906 91.621094 "/>
<path style=" stroke:none;fill-rule:nonzero;fill:rgb(0%,0%,100%);fill-opacity:1;" d="M 65.503906 6.820312 C 65.503906 5.722656 64.613281 4.832031 63.515625 4.832031 C 62.417969 4.832031 61.527344 5.722656 61.527344 6.820312 C 61.527344 7.917969 62.417969 8.808594 63.515625 8.808594 C 64.613281 8.808594 65.503906 7.917969 65.503906 6.820312 Z M 65.503906 6.820312 "/>
<path style=" stroke:none;fill-rule:nonzero;fill:rgb(0%,0%,100%);fill-opacity:1;" d="M 150.300781 6.820312 C 150.300781 5.722656 149.414062 4.832031 148.316406 4.832031 C 147.21875 4.832031 146.328125 5.722656 146.328125 6.820312 C 146.328125 7.917969 147.21875 8.808594 148.316406 8.808594 C 149.414062 8.808594 150.300781 7.917969 150.300781 6.820312 Z M 150.300781 6.820312 "/>
<path style=" stroke:none;fill-rule:nonzero;fill:rgb(0%,0%,100%);fill-opacity:1;" d="M 150.300781 91.621094 C 150.300781 90.523438 149.414062 89.632812 148.316406 89.632812 C 147.21875 89.632812 146.328125 90.523438 146.328125 91.621094 C 146.328125 92.71875 147.21875 93.605469 148.316406 93.605469 C 149.414062 93.605469 150.300781 92.71875 150.300781 91.621094 Z M 150.300781 91.621094 "/>
</g>
</svg>
