<?xml version="1.0" encoding="UTF-8"?>
<svg xmlns="http://www.w3.org/2000/svg" xmlns:xlink="http://www.w3.org/1999/xlink" width="108.683pt" height="93.438pt" viewBox="0 0 108.683 93.438" version="1.2">
<defs>
<g>
<symbol overflow="visible" id="glyph0-0">
<path style="stroke:none;" d=""/>
</symbol>
<symbol overflow="visible" id="glyph0-1">
<path style="stroke:none;" d="M 2.703125 -5.6875 C 2.703125 -5.90625 2.703125 -5.9375 2.46875 -5.9375 C 1.921875 -5.359375 1.109375 -5.359375 0.828125 -5.359375 L 0.828125 -5.078125 C 1 -5.078125 1.546875 -5.078125 2.015625 -5.3125 L 2.015625 -0.71875 C 2.015625 -0.390625 2 -0.28125 1.171875 -0.28125 L 0.875 -0.28125 L 0.875 0 C 1.203125 -0.03125 2 -0.03125 2.359375 -0.03125 C 2.71875 -0.03125 3.53125 -0.03125 3.84375 0 L 3.84375 -0.28125 L 3.5625 -0.28125 C 2.734375 -0.28125 2.703125 -0.390625 2.703125 -0.71875 Z M 2.703125 -5.6875 "/>
</symbol>
<symbol overflow="visible" id="glyph0-2">
<path style="stroke:none;" d="M 2.71875 -3.140625 C 3.546875 -3.453125 3.9375 -4.09375 3.9375 -4.71875 C 3.9375 -5.390625 3.171875 -5.9375 2.25 -5.9375 C 1.328125 -5.9375 0.625 -5.40625 0.625 -4.734375 C 0.625 -4.4375 0.828125 -4.265625 1.09375 -4.265625 C 1.34375 -4.265625 1.53125 -4.453125 1.53125 -4.71875 C 1.53125 -5.015625 1.3125 -5.15625 1.015625 -5.15625 C 1.25 -5.53125 1.796875 -5.703125 2.234375 -5.703125 C 2.96875 -5.703125 3.109375 -5.125 3.109375 -4.703125 C 3.109375 -4.4375 3.0625 -4.015625 2.828125 -3.671875 C 2.5625 -3.265625 2.25 -3.25 1.984375 -3.234375 C 1.765625 -3.21875 1.75 -3.21875 1.671875 -3.21875 C 1.59375 -3.203125 1.515625 -3.203125 1.515625 -3.09375 C 1.515625 -2.984375 1.59375 -2.984375 1.75 -2.984375 L 2.171875 -2.984375 C 2.9375 -2.984375 3.28125 -2.359375 3.28125 -1.515625 C 3.28125 -0.375 2.671875 -0.046875 2.21875 -0.046875 C 2.046875 -0.046875 1.1875 -0.09375 0.78125 -0.75 C 1.109375 -0.71875 1.359375 -0.9375 1.359375 -1.234375 C 1.359375 -1.53125 1.125 -1.71875 0.875 -1.71875 C 0.65625 -1.71875 0.390625 -1.578125 0.390625 -1.21875 C 0.390625 -0.421875 1.21875 0.203125 2.25 0.203125 C 3.359375 0.203125 4.1875 -0.609375 4.1875 -1.515625 C 4.1875 -2.28125 3.578125 -2.953125 2.71875 -3.140625 Z M 2.71875 -3.140625 "/>
</symbol>
<symbol overflow="visible" id="glyph0-3">
<path style="stroke:none;" d="M 4.109375 -1.578125 L 3.859375 -1.578125 C 3.84375 -1.453125 3.78125 -0.9375 3.65625 -0.796875 C 3.609375 -0.71875 3 -0.71875 2.8125 -0.71875 L 1.234375 -0.71875 L 2.109375 -1.546875 C 3.578125 -2.8125 4.109375 -3.28125 4.109375 -4.1875 C 4.109375 -5.21875 3.265625 -5.9375 2.171875 -5.9375 C 1.15625 -5.9375 0.453125 -5.125 0.453125 -4.3125 C 0.453125 -3.859375 0.84375 -3.828125 0.921875 -3.828125 C 1.109375 -3.828125 1.375 -3.96875 1.375 -4.28125 C 1.375 -4.546875 1.1875 -4.75 0.921875 -4.75 C 0.875 -4.75 0.84375 -4.75 0.8125 -4.734375 C 1.03125 -5.375 1.59375 -5.65625 2.078125 -5.65625 C 2.984375 -5.65625 3.296875 -4.8125 3.296875 -4.1875 C 3.296875 -3.28125 2.609375 -2.546875 2.1875 -2.078125 L 0.546875 -0.328125 C 0.453125 -0.21875 0.453125 -0.203125 0.453125 0 L 3.859375 0 Z M 4.109375 -1.578125 "/>
</symbol>
<symbol overflow="visible" id="glyph1-0">
<path style="stroke:none;" d=""/>
</symbol>
<symbol overflow="visible" id="glyph1-1">
<path style="stroke:none;" d="M 2.234375 -6 C 2.234375 -6.34375 2.265625 -6.453125 3.046875 -6.453125 L 3.296875 -6.453125 L 3.296875 -6.765625 C 2.953125 -6.734375 2.171875 -6.734375 1.796875 -6.734375 C 1.40625 -6.734375 0.625 -6.734375 0.28125 -6.765625 L 0.28125 -6.453125 L 0.53125 -6.453125 C 1.3125 -6.453125 1.34375 -6.34375 1.34375 -6 L 1.34375 -0.765625 C 1.34375 -0.421875 1.3125 -0.3125 0.53125 -0.3125 L 0.28125 -0.3125 L 0.28125 0 C 0.625 -0.03125 1.40625 -0.03125 1.78125 -0.03125 C 2.171875 -0.03125 2.953125 -0.03125 3.296875 0 L 3.296875 -0.3125 L 3.046875 -0.3125 C 2.265625 -0.3125 2.234375 -0.421875 2.234375 -0.765625 Z M 2.234375 -6 "/>
</symbol>
<symbol overflow="visible" id="glyph1-2">
<path style="stroke:none;" d="M 2.90625 -6.34375 C 2.90625 -6.578125 2.90625 -6.59375 2.6875 -6.59375 C 2.078125 -5.96875 1.203125 -5.96875 0.875 -5.96875 L 0.875 -5.65625 C 1.078125 -5.65625 1.671875 -5.65625 2.171875 -5.90625 L 2.171875 -0.78125 C 2.171875 -0.421875 2.15625 -0.3125 1.265625 -0.3125 L 0.9375 -0.3125 L 0.9375 0 C 1.28125 -0.03125 2.15625 -0.03125 2.546875 -0.03125 C 2.9375 -0.03125 3.796875 -0.03125 4.15625 0 L 4.15625 -0.3125 L 3.828125 -0.3125 C 2.9375 -0.3125 2.90625 -0.421875 2.90625 -0.78125 Z M 2.90625 -6.34375 "/>
</symbol>
<symbol overflow="visible" id="glyph1-3">
<path style="stroke:none;" d="M 1.265625 -0.765625 L 2.3125 -1.78125 C 3.859375 -3.15625 4.453125 -3.6875 4.453125 -4.671875 C 4.453125 -5.8125 3.5625 -6.59375 2.34375 -6.59375 C 1.234375 -6.59375 0.5 -5.6875 0.5 -4.796875 C 0.5 -4.25 0.984375 -4.25 1.015625 -4.25 C 1.1875 -4.25 1.53125 -4.375 1.53125 -4.78125 C 1.53125 -5.03125 1.359375 -5.296875 1.015625 -5.296875 C 0.9375 -5.296875 0.90625 -5.296875 0.875 -5.28125 C 1.109375 -5.921875 1.640625 -6.296875 2.21875 -6.296875 C 3.125 -6.296875 3.546875 -5.484375 3.546875 -4.671875 C 3.546875 -3.890625 3.046875 -3.09375 2.5 -2.484375 L 0.609375 -0.359375 C 0.5 -0.25 0.5 -0.234375 0.5 0 L 4.171875 0 L 4.453125 -1.71875 L 4.203125 -1.71875 C 4.15625 -1.421875 4.078125 -0.984375 3.984375 -0.84375 C 3.90625 -0.765625 3.265625 -0.765625 3.046875 -0.765625 Z M 1.265625 -0.765625 "/>
</symbol>
<symbol overflow="visible" id="glyph1-4">
<path style="stroke:none;" d="M 2.875 -3.484375 C 3.6875 -3.75 4.265625 -4.453125 4.265625 -5.234375 C 4.265625 -6.046875 3.390625 -6.59375 2.4375 -6.59375 C 1.4375 -6.59375 0.6875 -6 0.6875 -5.25 C 0.6875 -4.921875 0.90625 -4.734375 1.1875 -4.734375 C 1.5 -4.734375 1.6875 -4.953125 1.6875 -5.234375 C 1.6875 -5.734375 1.234375 -5.734375 1.078125 -5.734375 C 1.390625 -6.21875 2.046875 -6.34375 2.390625 -6.34375 C 2.796875 -6.34375 3.34375 -6.125 3.34375 -5.234375 C 3.34375 -5.125 3.328125 -4.546875 3.078125 -4.109375 C 2.78125 -3.640625 2.4375 -3.609375 2.1875 -3.59375 C 2.109375 -3.59375 1.875 -3.5625 1.796875 -3.5625 C 1.71875 -3.5625 1.65625 -3.546875 1.65625 -3.453125 C 1.65625 -3.34375 1.71875 -3.34375 1.890625 -3.34375 L 2.328125 -3.34375 C 3.140625 -3.34375 3.5 -2.671875 3.5 -1.6875 C 3.5 -0.34375 2.828125 -0.0625 2.390625 -0.0625 C 1.96875 -0.0625 1.21875 -0.234375 0.875 -0.8125 C 1.21875 -0.765625 1.53125 -0.984375 1.53125 -1.359375 C 1.53125 -1.71875 1.265625 -1.90625 0.96875 -1.90625 C 0.734375 -1.90625 0.421875 -1.765625 0.421875 -1.34375 C 0.421875 -0.4375 1.34375 0.21875 2.421875 0.21875 C 3.625 0.21875 4.53125 -0.6875 4.53125 -1.6875 C 4.53125 -2.5 3.90625 -3.28125 2.875 -3.484375 Z M 2.875 -3.484375 "/>
</symbol>
</g>
<clipPath id="clip1">
  <path d="M 48 80 L 60 80 L 60 92.878906 L 48 92.878906 Z M 48 80 "/>
</clipPath>
</defs>
<g id="surface1">
<path style="fill-rule:nonzero;fill:rgb(100%,96.939087%,40.000916%);fill-opacity:1;stroke-width:0.3985;stroke-linecap:butt;stroke-linejoin:round;stroke:rgb(0%,0%,0%);stroke-opacity:1;stroke-miterlimit:10;" d="M -0.000695365 0.000692475 L 85.038983 0.000692475 L 42.519144 73.648041 Z M -0.000695365 0.000692475 " transform="matrix(0.994021,0,0,-0.994021,11.91866,86.387407)"/>
<g clip-path="url(#clip1)" clip-rule="nonzero">
<path style=" stroke:none;fill-rule:nonzero;fill:rgb(79.998779%,79.998779%,100%);fill-opacity:1;" d="M 48.59375 92.558594 L 59.777344 92.558594 L 59.777344 80.214844 L 48.59375 80.214844 Z M 48.59375 92.558594 "/>
</g>
<g style="fill:rgb(0%,0%,0%);fill-opacity:1;">
  <use xlink:href="#glyph0-1" x="51.893226" y="89.259135"/>
</g>
<path style=" stroke:none;fill-rule:nonzero;fill:rgb(79.998779%,79.998779%,100%);fill-opacity:1;" d="M 69.726562 55.957031 L 80.910156 55.957031 L 80.910156 43.609375 L 69.726562 43.609375 Z M 69.726562 55.957031 "/>
<g style="fill:rgb(0%,0%,0%);fill-opacity:1;">
  <use xlink:href="#glyph0-2" x="73.026118" y="52.656289"/>
</g>
<path style=" stroke:none;fill-rule:nonzero;fill:rgb(79.998779%,79.998779%,100%);fill-opacity:1;" d="M 27.460938 55.957031 L 38.640625 55.957031 L 38.640625 43.609375 L 27.460938 43.609375 Z M 27.460938 55.957031 "/>
<g style="fill:rgb(0%,0%,0%);fill-opacity:1;">
  <use xlink:href="#glyph0-3" x="30.761327" y="52.656289"/>
</g>
<g style="fill:rgb(0%,0%,0%);fill-opacity:1;">
  <use xlink:href="#glyph1-1" x="52.395206" y="65.369821"/>
</g>
<path style=" stroke:none;fill-rule:nonzero;fill:rgb(0%,0%,100%);fill-opacity:1;" d="M 13.898438 86.386719 C 13.898438 85.292969 13.011719 84.40625 11.917969 84.40625 C 10.824219 84.40625 9.9375 85.292969 9.9375 86.386719 C 9.9375 87.480469 10.824219 88.367188 11.917969 88.367188 C 13.011719 88.367188 13.898438 87.480469 13.898438 86.386719 Z M 13.898438 86.386719 "/>
<g style="fill:rgb(0%,0%,100%);fill-opacity:1;">
  <use xlink:href="#glyph1-2" x="3.468485" y="89.578215"/>
</g>
<path style=" stroke:none;fill-rule:nonzero;fill:rgb(0%,0%,100%);fill-opacity:1;" d="M 98.429688 86.386719 C 98.429688 85.292969 97.542969 84.40625 96.449219 84.40625 C 95.355469 84.40625 94.46875 85.292969 94.46875 86.386719 C 94.46875 87.480469 95.355469 88.367188 96.449219 88.367188 C 97.542969 88.367188 98.429688 87.480469 98.429688 86.386719 Z M 98.429688 86.386719 "/>
<g style="fill:rgb(0%,0%,100%);fill-opacity:1;">
  <use xlink:href="#glyph1-3" x="99.94819" y="89.578215"/>
</g>
<path style=" stroke:none;fill-rule:nonzero;fill:rgb(0%,0%,100%);fill-opacity:1;" d="M 56.164062 13.179688 C 56.164062 12.085938 55.277344 11.199219 54.183594 11.199219 C 53.089844 11.199219 52.203125 12.085938 52.203125 13.179688 C 52.203125 14.273438 53.089844 15.160156 54.183594 15.160156 C 55.277344 15.160156 56.164062 14.273438 56.164062 13.179688 Z M 56.164062 13.179688 "/>
<g style="fill:rgb(0%,0%,100%);fill-opacity:1;">
  <use xlink:href="#glyph1-4" x="51.708338" y="9.682761"/>
</g>
</g>
</svg>
