<?xml version="1.0" encoding="iso-8859-1" standalone="no"?> 
<?xml-stylesheet href="_Wrapper_modification-6.css" type="text/css"?> 
<svg xmlns="http://www.w3.org/2000/svg" xmlns:xlink="http://www.w3.org/1999/xlink" width="273.37099pt" height="154.6581pt" viewBox="-85.78854 -55.98949 273.37099 154.6581 "> 
<g transform="translate(0,98.66861 ) scale(1,-1) translate(0,55.98949 )"> 
                <g stroke="#000" fill="#000">
 <g stroke-width="0.4">
 <g stroke-linejoin="round">
 <g stroke="#000">
 <g fill="#ff6">
 <path d=" M 0.0 0.0 L -73.92259 -42.67911 L 0.0 85.35823 Z M 0.0 0.0 L -73.92259 -42.67911 L 73.92259 -42.67911 Z M 0.0 0.0 L 0.0 85.35823 L 73.92259 -42.67911 Z  " />
 <g fill="#ccf">
 <g fill="#ccf">
 <path d=" M -44.91925 15.10658 h 15.9159 v 12.46594 h -15.9159 Z  " stroke="none"/>
 </g>
 <g transform="translate(-41.58627,18.43956)">
 <g fill="#000">
 <text style="stroke:none" transform="scale(1,-1) translate(4.62497,0)" text-anchor="middle"  font-size="10"> 
<g fill="#000">
 <g stroke="none"> <tspan font-family="cmr" font-size="9">13</tspan></g> </g>
 </text> 
</g>
 </g>
 </g>
 <g fill="#ccf">
 <g fill="#ccf">
 <path d=" M -44.91924 -27.57253 h 15.9159 v 12.46594 h -15.9159 Z  " stroke="none"/>
 </g>
 <g transform="translate(-41.58626,-24.23955)">
 <g fill="#000">
 <text style="stroke:none" transform="scale(1,-1) translate(4.62497,0)" text-anchor="middle"  font-size="10"> 
<g fill="#000">
 <g stroke="none"> <tspan font-family="cmr" font-size="9">16</tspan></g> </g>
 </text> 
</g>
 </g>
 </g>
 <g fill="#ccf">
 <g fill="#ccf">
 <path d=" M -7.95795 -48.91208 h 15.9159 v 12.46594 h -15.9159 Z  " stroke="none"/>
 </g>
 <g transform="translate(-4.62497,-45.5791)">
 <g fill="#000">
 <text style="stroke:none" transform="scale(1,-1) translate(4.62497,0)" text-anchor="middle"  font-size="10"> 
<g fill="#000">
 <g stroke="none"> <tspan font-family="cmr" font-size="9">17</tspan></g> </g>
 </text> 
</g>
 </g>
 </g>
 <g fill="#ccf">
 <g fill="#ccf">
 <path d=" M -7.95795 36.44614 h 15.9159 v 12.46594 h -15.9159 Z  " stroke="none"/>
 </g>
 <g transform="translate(-4.62497,39.77911)">
 <g fill="#000">
 <text style="stroke:none" transform="scale(1,-1) translate(4.62497,0)" text-anchor="middle"  font-size="10"> 
<g fill="#000">
 <g stroke="none"> <tspan font-family="cmr" font-size="9">14</tspan></g> </g>
 </text> 
</g>
 </g>
 </g>
 <g fill="#ccf">
 <g fill="#ccf">
 <path d=" M 29.00334 15.1066 h 15.9159 v 12.46594 h -15.9159 Z  " stroke="none"/>
 </g>
 <g transform="translate(32.33632,18.43958)">
 <g fill="#000">
 <text style="stroke:none" transform="scale(1,-1) translate(4.62497,0)" text-anchor="middle"  font-size="10"> 
<g fill="#000">
 <g stroke="none"> <tspan font-family="cmr" font-size="9">15</tspan></g> </g>
 </text> 
</g>
 </g>
 </g>
 <g fill="#ccf">
 <g fill="#ccf">
 <path d=" M 29.00336 -27.57253 h 15.9159 v 12.46594 h -15.9159 Z  " stroke="none"/>
 </g>
 <g transform="translate(32.33633,-24.23955)">
 <g fill="#000">
 <text style="stroke:none" transform="scale(1,-1) translate(4.62497,0)" text-anchor="middle"  font-size="10"> 
<g fill="#000">
 <g stroke="none"> <tspan font-family="cmr" font-size="9">18</tspan></g> </g>
 </text> 
</g>
 </g>
 </g>
 </g>
 </g>
 </g>
 <g transform="translate(-26.25145,7.25311)">
 <g fill="#000">
 <text style="stroke:none" transform="scale(1,-1) translate(7.77081,0)" text-anchor="middle"  font-size="10"> 
<g fill="#000">
 <g stroke="none"> <tspan font-family="cmmi" font-size="10">III</tspan></g> </g>
 </text> 
</g>
 </g>
 <g transform="translate(-6.61804,-30.08978)">
 <g fill="#000">
 <text style="stroke:none" transform="scale(1,-1) translate(6.61804,0)" text-anchor="middle"  font-size="10"> 
<g fill="#000">
 <g stroke="none"> <tspan font-family="cmmi" font-size="10">IV</tspan> </g> </g>
 </text> 
</g>
 </g>
 <g transform="translate(15.93954,20.97066)">
 <g fill="#000">
 <text style="stroke:none" transform="scale(1,-1) translate(5.18054,0)" text-anchor="middle"  font-size="10"> 
<g fill="#000">
 <g stroke="none"> <tspan font-family="cmmi" font-size="10">II</tspan> </g> </g>
 </text> 
</g>
 </g>
 <g stroke-linejoin="round">
 <g stroke="#000">
 <g fill="#6ff">
 <path d=" M 0.0 0.0 L 164.89966 44.18475 L 170.71646 0.0 Z M 0.0 0.0 L 170.71646 0.0 L 164.89966 -44.18475 Z  " />
 <g fill="#ccf">
 <g fill="#ccf">
 <path d=" M 74.49188 15.8594 h 15.9159 v 12.46594 h -15.9159 Z  " stroke="none"/>
 </g>
 <g transform="translate(77.82486,19.19238)">
 <g fill="#000">
 <text style="stroke:none" transform="scale(1,-1) translate(4.62497,0)" text-anchor="middle"  font-size="10"> 
<g fill="#000">
 <g stroke="none"> <tspan font-family="cmr" font-size="9">19</tspan> </g> </g>
 </text> 
</g>
 </g>
 </g>
 <g fill="#ccf">
 <g fill="#ccf">
 <path d=" M 159.85011 15.8594 h 15.9159 v 12.46594 h -15.9159 Z  " stroke="none"/>
 </g>
 <g transform="translate(163.18309,19.19238)">
 <g fill="#000">
 <text style="stroke:none" transform="scale(1,-1) translate(4.62497,0)" text-anchor="middle"  font-size="10"> 
<g fill="#000">
 <g stroke="none"> <tspan font-family="cmr" font-size="9">22</tspan> </g> </g>
 </text> 
</g>
 </g>
 </g>
 <g fill="#ccf">
 <g fill="#ccf">
 <path d=" M 77.40028 -6.23297 h 15.9159 v 12.46594 h -15.9159 Z  " stroke="none"/>
 </g>
 <g transform="translate(80.73326,-2.9)">
 <g fill="#000">
 <text style="stroke:none" transform="scale(1,-1) translate(4.62497,0)" text-anchor="middle"  font-size="10"> 
<g fill="#000">
 <g stroke="none"> <tspan font-family="cmr" font-size="9">20</tspan> </g> </g>
 </text> 
</g>
 </g>
 </g>
 <g fill="#ccf">
 <g fill="#ccf">
 <path d=" M 159.85011 -28.32535 h 15.9159 v 12.46594 h -15.9159 Z  " stroke="none"/>
 </g>
 <g transform="translate(163.18309,-24.99237)">
 <g fill="#000">
 <text style="stroke:none" transform="scale(1,-1) translate(4.62497,0)" text-anchor="middle"  font-size="10"> 
<g fill="#000">
 <g stroke="none"> <tspan font-family="cmr" font-size="9">23</tspan> </g> </g>
 </text> 
</g>
 </g>
 </g>
 <g fill="#ccf">
 <g fill="#ccf">
 <path d=" M 74.49188 -28.32535 h 15.9159 v 12.46594 h -15.9159 Z  " stroke="none"/>
 </g>
 <g transform="translate(77.82486,-24.99237)">
 <g fill="#000">
 <text style="stroke:none" transform="scale(1,-1) translate(4.62497,0)" text-anchor="middle"  font-size="10"> 
<g fill="#000">
 <g stroke="none"> <tspan font-family="cmr" font-size="9">21</tspan> </g> </g>
 </text> 
</g>
 </g>
 </g>
 </g>
 </g>
 </g>
 <g transform="translate(104.74535,11.31136)">
 <g fill="#000">
 <text style="stroke:none" transform="scale(1,-1) translate(7.12498,0)" text-anchor="middle"  font-size="10"> 
<g fill="#000">
 <g stroke="none"> <tspan font-family="cmmi" font-size="10">IX</tspan> </g> </g>
 </text> 
</g>
 </g>
 <g transform="translate(104.74535,-18.14467)">
 <g fill="#000">
 <text style="stroke:none" transform="scale(1,-1) translate(7.12498,0)" text-anchor="middle"  font-size="10"> 
<g fill="#000">
 <g stroke="none"> <tspan font-family="cmmi" font-size="10">XI</tspan> </g> </g>
 </text> 
</g>
 </g>
 <g fill="#00f">
 <g fill="#00f">
 <path d=" M 2.0 0.0 C 2.0 1.10458 1.10458 2.0 0.0 2.0 C -1.10458 2.0 -2.0 1.10458 -2.0 0.0 C -2.0 -1.10458 -1.10458 -2.0 0.0 -2.0 C 1.10458 -2.0 2.0 -1.10458 2.0 0.0 Z M 0.0 0.0  " stroke="none"/>
 </g>
 <g fill="#000">
 <text style="stroke:none" transform="scale(1,-1) translate(0.0,0)" text-anchor="middle"  font-size="10"> 
<g fill="#000">
 <g stroke="none"> </g> </g>
 </text> 
</g>
 </g>
 <g stroke="#00f" fill="#00f">
 <g stroke="#00f" fill="#00f">
 </g>
 <g transform="translate(-2.5,-9.9774)">
 <g fill="#00f">
 <text style="stroke:none" transform="scale(1,-1) translate(2.5,0)" text-anchor="middle"  font-size="10"> 
<g fill="#00f">
 <g stroke="none"> 1 </g> </g>
 </text> 
</g>
 </g>
 </g>
 <g fill="#00f">
 <g fill="#00f">
 <path d=" M -71.92259 -42.67911 C -71.92259 -41.57452 -72.81801 -40.67911 -73.92259 -40.67911 C -75.02718 -40.67911 -75.92259 -41.57452 -75.92259 -42.67911 C -75.92259 -43.78369 -75.02718 -44.67911 -73.92259 -44.67911 C -72.81801 -44.67911 -71.92259 -43.78369 -71.92259 -42.67911 Z M -73.92259 -42.67911  " stroke="none"/>
 </g>
 <g transform="translate(-73.92259,-42.67911)">
 <g fill="#000">
 <text style="stroke:none" transform="scale(1,-1) translate(0.0,0)" text-anchor="middle"  font-size="10"> 
<g fill="#000">
 <g stroke="none"> </g> </g>
 </text> 
</g>
 </g>
 </g>
 <g stroke="#00f" fill="#00f">
 <g stroke="#00f" fill="#00f">
 </g>
 <g transform="translate(-82.45557,-52.65651)">
 <g fill="#00f">
 <text style="stroke:none" transform="scale(1,-1) translate(2.5,0)" text-anchor="middle"  font-size="10"> 
<g fill="#00f">
 <g stroke="none"> 6 </g> </g>
 </text> 
</g>
 </g>
 </g>
 <g fill="#00f">
 <g fill="#00f">
 <path d=" M 2.0 85.35823 C 2.0 86.46281 1.10458 87.35823 0.0 87.35823 C -1.10458 87.35823 -2.0 86.46281 -2.0 85.35823 C -2.0 84.25365 -1.10458 83.35823 0.0 83.35823 C 1.10458 83.35823 2.0 84.25365 2.0 85.35823 Z M 0.0 85.35823  " stroke="none"/>
 </g>
 <g transform="translate(0.0,85.35823)">
 <g fill="#000">
 <text style="stroke:none" transform="scale(1,-1) translate(0.0,0)" text-anchor="middle"  font-size="10"> 
<g fill="#000">
 <g stroke="none"> </g> </g>
 </text> 
</g>
 </g>
 </g>
 <g stroke="#00f" fill="#00f">
 <g stroke="#00f" fill="#00f">
 </g>
 <g transform="translate(-2.5,88.8912)">
 <g fill="#00f">
 <text style="stroke:none" transform="scale(1,-1) translate(2.5,0)" text-anchor="middle"  font-size="10"> 
<g fill="#00f">
 <g stroke="none"> 5 </g> </g>
 </text> 
</g>
 </g>
 </g>
 <g fill="#00f">
 <g fill="#00f">
 <path d=" M 75.92259 -42.67911 C 75.92259 -41.57452 75.02718 -40.67911 73.92259 -40.67911 C 72.81801 -40.67911 71.92259 -41.57452 71.92259 -42.67911 C 71.92259 -43.78369 72.81801 -44.67911 73.92259 -44.67911 C 75.02718 -44.67911 75.92259 -43.78369 75.92259 -42.67911 Z M 73.92259 -42.67911  " stroke="none"/>
 </g>
 <g transform="translate(73.92259,-42.67911)">
 <g fill="#000">
 <text style="stroke:none" transform="scale(1,-1) translate(0.0,0)" text-anchor="middle"  font-size="10"> 
<g fill="#000">
 <g stroke="none"> </g> </g>
 </text> 
</g>
 </g>
 </g>
 <g stroke="#00f" fill="#00f">
 <g stroke="#00f" fill="#00f">
 </g>
 <g transform="translate(77.45557,-52.65651)">
 <g fill="#00f">
 <text style="stroke:none" transform="scale(1,-1) translate(2.5,0)" text-anchor="middle"  font-size="10"> 
<g fill="#00f">
 <g stroke="none"> 7 </g> </g>
 </text> 
</g>
 </g>
 </g>
 <g fill="#00f">
 <g fill="#00f">
 <path d=" M 166.89966 44.18475 C 166.89966 45.28934 166.00424 46.18475 164.89966 46.18475 C 163.79507 46.18475 162.89966 45.28934 162.89966 44.18475 C 162.89966 43.08017 163.79507 42.18475 164.89966 42.18475 C 166.00424 42.18475 166.89966 43.08017 166.89966 44.18475 Z M 164.89966 44.18475  " stroke="none"/>
 </g>
 <g transform="translate(164.89966,44.18475)">
 <g fill="#000">
 <text style="stroke:none" transform="scale(1,-1) translate(0.0,0)" text-anchor="middle"  font-size="10"> 
<g fill="#000">
 <g stroke="none"> </g> </g>
 </text> 
</g>
 </g>
 </g>
 <g stroke="#00f" fill="#00f">
 <g stroke="#00f" fill="#00f">
 </g>
 <g transform="translate(168.43263,40.96254)">
 <g fill="#00f">
 <text style="stroke:none" transform="scale(1,-1) translate(2.5,0)" text-anchor="middle"  font-size="10"> 
<g fill="#00f">
 <g stroke="none"> 8 </g> </g>
 </text> 
</g>
 </g>
 </g>
 <g fill="#00f">
 <g fill="#00f">
 <path d=" M 172.71646 0.0 C 172.71646 1.10458 171.82104 2.0 170.71646 2.0 C 169.61188 2.0 168.71646 1.10458 168.71646 0.0 C 168.71646 -1.10458 169.61188 -2.0 170.71646 -2.0 C 171.82104 -2.0 172.71646 -1.10458 172.71646 0.0 Z M 170.71646 0.0  " stroke="none"/>
 </g>
 <g transform="translate(170.71646,0.0)">
 <g fill="#000">
 <text style="stroke:none" transform="scale(1,-1) translate(0.0,0)" text-anchor="middle"  font-size="10"> 
<g fill="#000">
 <g stroke="none"> </g> </g>
 </text> 
</g>
 </g>
 </g>
 <g stroke="#00f" fill="#00f">
 <g stroke="#00f" fill="#00f">
 </g>
 <g transform="translate(174.24944,-3.22221)">
 <g fill="#00f">
 <text style="stroke:none" transform="scale(1,-1) translate(5.00002,0)" text-anchor="middle"  font-size="10"> 
<g fill="#00f">
 <g stroke="none"> 10 </g> </g>
 </text> 
</g>
 </g>
 </g>
 <g fill="#00f">
 <g fill="#00f">
 <path d=" M 166.89966 -44.18475 C 166.89966 -43.08017 166.00424 -42.18475 164.89966 -42.18475 C 163.79507 -42.18475 162.89966 -43.08017 162.89966 -44.18475 C 162.89966 -45.28934 163.79507 -46.18475 164.89966 -46.18475 C 166.00424 -46.18475 166.89966 -45.28934 166.89966 -44.18475 Z M 164.89966 -44.18475  " stroke="none"/>
 </g>
 <g transform="translate(164.89966,-44.18475)">
 <g fill="#000">
 <text style="stroke:none" transform="scale(1,-1) translate(0.0,0)" text-anchor="middle"  font-size="10"> 
<g fill="#000">
 <g stroke="none"> </g> </g>
 </text> 
</g>
 </g>
 </g>
 <g stroke="#00f" fill="#00f">
 <g stroke="#00f" fill="#00f">
 </g>
 <g transform="translate(168.43263,-47.40697)">
 <g fill="#00f">
 <text style="stroke:none" transform="scale(1,-1) translate(5.00002,0)" text-anchor="middle"  font-size="10"> 
<g fill="#00f">
 <g stroke="none"> 12 </g> </g>
 </text> 
</g>
 </g>
 </g>
 </g>
 </g>
 
                                                    </g> 
</svg> 
