<?xml version="1.0" encoding="iso-8859-1" standalone="no"?> 
<?xml-stylesheet href="_Wrapper_Image_facegraph_oct3.css" type="text/css"?> 
<svg xmlns="http://www.w3.org/2000/svg" xmlns:xlink="http://www.w3.org/1999/xlink" width="239.66563pt" height="181.07193pt" viewBox="-6.86595 -5.17773 239.66563 181.07193 "> 
<g transform="translate(0,175.8942 ) scale(1,-1) translate(0,5.17773 )"> 
<g stroke="#000" fill="#000">
 <g stroke-width="0.4">
 <g stroke-width="0.2">
 <g stroke-linejoin="round">
 <g stroke-width="1.2">
 <path d=" M 0.0 0.0 L 227.62195 56.90549  " fill="none"/>
 <g stroke-width="0.8">
 <g stroke="#fff">
 <path d=" M 0.0 0.0 L 227.62195 56.90549  " fill="none"/>
 </g>
 </g>
 </g>
 <g transform="translate(113.81097,28.45273)">
 <g fill="#000">
 <text style="stroke:none" transform="scale(1,-1) translate(0.0,0)" text-anchor="middle"  font-size="10"> 
<g fill="#000">
 <g stroke="none"> </g> </g>
 </text> 
</g>
 </g>
 </g>
 </g>
 <g stroke-width="0.2">
 <g stroke-linejoin="round">
 <g stroke-width="1.2">
 <path d=" M 0.0 0.0 L 227.62195 113.81097  " fill="none"/>
 <g stroke-width="0.8">
 <g stroke="#fff">
 <path d=" M 0.0 0.0 L 227.62195 113.81097  " fill="none"/>
 </g>
 </g>
 </g>
 <g transform="translate(113.81097,56.90549)">
 <g fill="#000">
 <text style="stroke:none" transform="scale(1,-1) translate(0.0,0)" text-anchor="middle"  font-size="10"> 
<g fill="#000">
 <g stroke="none"> </g> </g>
 </text> 
</g>
 </g>
 </g>
 </g>
 <g stroke-width="0.2">
 <g stroke-linejoin="round">
 <g stroke-width="1.2">
 <path d=" M 0.0 170.71646 L 227.62195 113.81097  " fill="none"/>
 <g stroke-width="0.8">
 <g stroke="#fff">
 <path d=" M 0.0 170.71646 L 227.62195 113.81097  " fill="none"/>
 </g>
 </g>
 </g>
 <g transform="translate(113.81097,142.26373)">
 <g fill="#000">
 <text style="stroke:none" transform="scale(1,-1) translate(0.0,0)" text-anchor="middle"  font-size="10"> 
<g fill="#000">
 <g stroke="none"> </g> </g>
 </text> 
</g>
 </g>
 </g>
 </g>
 <g stroke-width="0.2">
 <g stroke-linejoin="round">
 <g stroke-width="1.2">
 <path d=" M 227.62195 56.90549 L 0.0 170.71646  " fill="none"/>
 <g stroke-width="0.8">
 <g stroke="#fff">
 <path d=" M 227.62195 56.90549 L 0.0 170.71646  " fill="none"/>
 </g>
 </g>
 </g>
 <g transform="translate(113.81097,113.81097)">
 <g fill="#000">
 <text style="stroke:none" transform="scale(1,-1) translate(0.0,0)" text-anchor="middle"  font-size="10"> 
<g fill="#000">
 <g stroke="none"> </g> </g>
 </text> 
</g>
 </g>
 </g>
 </g>
 <g stroke-width="0.2">
 <g stroke-linejoin="round">
 <g stroke-width="1.2">
 <path d=" M 0.0 0.0 L 227.62195 0.0  " fill="none"/>
 <g stroke-width="0.8">
 <g stroke="#fff">
 <path d=" M 0.0 0.0 L 227.62195 0.0  " fill="none"/>
 </g>
 </g>
 </g>
 <g transform="translate(113.81097,0.0)">
 <g fill="#000">
 <text style="stroke:none" transform="scale(1,-1) translate(0.0,0)" text-anchor="middle"  font-size="10"> 
<g fill="#000">
 <g stroke="none"> </g> </g>
 </text> 
</g>
 </g>
 </g>
 </g>
 <g stroke-width="0.2">
 <g stroke-linejoin="round">
 <g stroke-width="1.2">
 <path d=" M 0.0 56.90549 L 227.62195 56.90549  " fill="none"/>
 <g stroke-width="0.8">
 <g stroke="#fff">
 <path d=" M 0.0 56.90549 L 227.62195 56.90549  " fill="none"/>
 </g>
 </g>
 </g>
 <g transform="translate(113.81097,56.90549)">
 <g fill="#000">
 <text style="stroke:none" transform="scale(1,-1) translate(0.0,0)" text-anchor="middle"  font-size="10"> 
<g fill="#000">
 <g stroke="none"> </g> </g>
 </text> 
</g>
 </g>
 </g>
 </g>
 <g stroke-width="0.2">
 <g stroke-linejoin="round">
 <g stroke-width="1.2">
 <path d=" M 0.0 56.90549 L 227.62195 0.0  " fill="none"/>
 <g stroke-width="0.8">
 <g stroke="#fff">
 <path d=" M 0.0 56.90549 L 227.62195 0.0  " fill="none"/>
 </g>
 </g>
 </g>
 <g transform="translate(113.81097,28.45276)">
 <g fill="#000">
 <text style="stroke:none" transform="scale(1,-1) translate(0.0,0)" text-anchor="middle"  font-size="10"> 
<g fill="#000">
 <g stroke="none"> </g> </g>
 </text> 
</g>
 </g>
 </g>
 </g>
 <g stroke-width="0.2">
 <g stroke-linejoin="round">
 <g stroke-width="1.2">
 <path d=" M 0.0 113.81097 L 227.62195 113.81097  " fill="none"/>
 <g stroke-width="0.8">
 <g stroke="#fff">
 <path d=" M 0.0 113.81097 L 227.62195 113.81097  " fill="none"/>
 </g>
 </g>
 </g>
 <g transform="translate(113.81097,113.81097)">
 <g fill="#000">
 <text style="stroke:none" transform="scale(1,-1) translate(0.0,0)" text-anchor="middle"  font-size="10"> 
<g fill="#000">
 <g stroke="none"> </g> </g>
 </text> 
</g>
 </g>
 </g>
 </g>
 <g stroke-width="0.2">
 <g stroke-linejoin="round">
 <g stroke-width="1.2">
 <path d=" M 227.62195 0.0 L 0.0 113.81097  " fill="none"/>
 <g stroke-width="0.8">
 <g stroke="#fff">
 <path d=" M 227.62195 0.0 L 0.0 113.81097  " fill="none"/>
 </g>
 </g>
 </g>
 <g transform="translate(113.81097,56.90549)">
 <g fill="#000">
 <text style="stroke:none" transform="scale(1,-1) translate(0.0,0)" text-anchor="middle"  font-size="10"> 
<g fill="#000">
 <g stroke="none"> </g> </g>
 </text> 
</g>
 </g>
 </g>
 </g>
 <g stroke-width="0.2">
 <g stroke-linejoin="round">
 <g stroke-width="1.2">
 <path d=" M 0.0 170.71646 L 227.62195 170.71646  " fill="none"/>
 <g stroke-width="0.8">
 <g stroke="#fff">
 <path d=" M 0.0 170.71646 L 227.62195 170.71646  " fill="none"/>
 </g>
 </g>
 </g>
 <g transform="translate(113.81097,170.71646)">
 <g fill="#000">
 <text style="stroke:none" transform="scale(1,-1) translate(0.0,0)" text-anchor="middle"  font-size="10"> 
<g fill="#000">
 <g stroke="none"> </g> </g>
 </text> 
</g>
 </g>
 </g>
 </g>
 <g stroke-width="0.2">
 <g stroke-linejoin="round">
 <g stroke-width="1.2">
 <path d=" M 0.0 113.81097 L 227.62195 170.71646  " fill="none"/>
 <g stroke-width="0.8">
 <g stroke="#fff">
 <path d=" M 0.0 113.81097 L 227.62195 170.71646  " fill="none"/>
 </g>
 </g>
 </g>
 <g transform="translate(113.81097,142.2637)">
 <g fill="#000">
 <text style="stroke:none" transform="scale(1,-1) translate(0.0,0)" text-anchor="middle"  font-size="10"> 
<g fill="#000">
 <g stroke="none"> </g> </g>
 </text> 
</g>
 </g>
 </g>
 </g>
 <g stroke-width="0.2">
 <g stroke-linejoin="round">
 <g stroke-width="1.2">
 <path d=" M 0.0 56.90549 L 227.62195 170.71646  " fill="none"/>
 <g stroke-width="0.8">
 <g stroke="#fff">
 <path d=" M 0.0 56.90549 L 227.62195 170.71646  " fill="none"/>
 </g>
 </g>
 </g>
 <g transform="translate(113.81097,113.81097)">
 <g fill="#000">
 <text style="stroke:none" transform="scale(1,-1) translate(0.0,0)" text-anchor="middle"  font-size="10"> 
<g fill="#000">
 <g stroke="none"> </g> </g>
 </text> 
</g>
 </g>
 </g>
 </g>
 <g fill="#e6e6e6">
 <g fill="#e6e6e6">
 <path d=" M 5.17773 0.0 C 5.17773 2.85962 2.85962 5.17773 0.0 5.17773 C -2.85962 5.17773 -5.17773 2.85962 -5.17773 0.0 C -5.17773 -2.85962 -2.85962 -5.17773 0.0 -5.17773 C 2.85962 -5.17773 5.17773 -2.85962 5.17773 0.0 Z M 0.0 0.0  " stroke="none"/>
 </g>
 <g transform="translate(-1.70142,-1.6111)">
 <g fill="#000">
 <text style="stroke:none" transform="scale(1,-1) translate(1.70142,0)" text-anchor="middle"  font-size="10"> 
<g fill="#000">
 <g stroke="none"> <tspan font-family="cmr" font-size="5">1</tspan></g> </g>
 </text> 
</g>
 </g>
 </g>
 <g transform="translate(-3.53297,0.0)">
 <g fill="#000">
 <text style="stroke:none" transform="scale(1,-1) translate(0.0,0)" text-anchor="middle"  font-size="10"> 
<g fill="#000">
 <g stroke="none"> </g> </g>
 </text> 
</g>
 </g>
 <g fill="#e6e6e6">
 <g fill="#e6e6e6">
 <path d=" M 5.17773 56.90549 C 5.17773 59.7651 2.85962 62.08322 0.0 62.08322 C -2.85962 62.08322 -5.17773 59.7651 -5.17773 56.90549 C -5.17773 54.04587 -2.85962 51.72775 0.0 51.72775 C 2.85962 51.72775 5.17773 54.04587 5.17773 56.90549 Z M 0.0 56.90549  " stroke="none"/>
 </g>
 <g transform="translate(-1.70142,55.29439)">
 <g fill="#000">
 <text style="stroke:none" transform="scale(1,-1) translate(1.70142,0)" text-anchor="middle"  font-size="10"> 
<g fill="#000">
 <g stroke="none"> <tspan font-family="cmr" font-size="5">2</tspan></g> </g>
 </text> 
</g>
 </g>
 </g>
 <g transform="translate(-3.53297,56.90549)">
 <g fill="#000">
 <text style="stroke:none" transform="scale(1,-1) translate(0.0,0)" text-anchor="middle"  font-size="10"> 
<g fill="#000">
 <g stroke="none"> </g> </g>
 </text> 
</g>
 </g>
 <g fill="#e6e6e6">
 <g fill="#e6e6e6">
 <path d=" M 232.79968 56.90549 C 232.79968 59.7651 230.48157 62.08322 227.62195 62.08322 C 224.76233 62.08322 222.44421 59.7651 222.44421 56.90549 C 222.44421 54.04587 224.76233 51.72775 227.62195 51.72775 C 230.48157 51.72775 232.79968 54.04587 232.79968 56.90549 Z M 227.62195 56.90549  " stroke="none"/>
 </g>
 <g transform="translate(225.92053,55.29439)">
 <g fill="#000">
 <text style="stroke:none" transform="scale(1,-1) translate(1.70142,0)" text-anchor="middle"  font-size="10"> 
<g fill="#000">
 <g stroke="none"> <tspan font-family="cmr" font-size="5">3</tspan></g> </g>
 </text> 
</g>
 </g>
 </g>
 <g transform="translate(224.08897,56.90549)">
 <g fill="#000">
 <text style="stroke:none" transform="scale(1,-1) translate(0.0,0)" text-anchor="middle"  font-size="10"> 
<g fill="#000">
 <g stroke="none"> </g> </g>
 </text> 
</g>
 </g>
 <g fill="#e6e6e6">
 <g fill="#e6e6e6">
 <path d=" M 232.79968 0.0 C 232.79968 2.85962 230.48157 5.17773 227.62195 5.17773 C 224.76233 5.17773 222.44421 2.85962 222.44421 0.0 C 222.44421 -2.85962 224.76233 -5.17773 227.62195 -5.17773 C 230.48157 -5.17773 232.79968 -2.85962 232.79968 0.0 Z M 227.62195 0.0  " stroke="none"/>
 </g>
 <g transform="translate(225.92053,-1.6111)">
 <g fill="#000">
 <text style="stroke:none" transform="scale(1,-1) translate(1.70142,0)" text-anchor="middle"  font-size="10"> 
<g fill="#000">
 <g stroke="none"> <tspan font-family="cmr" font-size="5">4</tspan></g> </g>
 </text> 
</g>
 </g>
 </g>
 <g transform="translate(224.08897,0.0)">
 <g fill="#000">
 <text style="stroke:none" transform="scale(1,-1) translate(0.0,0)" text-anchor="middle"  font-size="10"> 
<g fill="#000">
 <g stroke="none"> </g> </g>
 </text> 
</g>
 </g>
 <g fill="#e6e6e6">
 <g fill="#e6e6e6">
 <path d=" M 5.17773 170.71646 C 5.17773 173.57608 2.85962 175.8942 0.0 175.8942 C -2.85962 175.8942 -5.17773 173.57608 -5.17773 170.71646 C -5.17773 167.85684 -2.85962 165.53873 0.0 165.53873 C 2.85962 165.53873 5.17773 167.85684 5.17773 170.71646 Z M 0.0 170.71646  " stroke="none"/>
 </g>
 <g transform="translate(-1.70142,169.10536)">
 <g fill="#000">
 <text style="stroke:none" transform="scale(1,-1) translate(1.70142,0)" text-anchor="middle"  font-size="10"> 
<g fill="#000">
 <g stroke="none"> <tspan font-family="cmr" font-size="5">5</tspan></g> </g>
 </text> 
</g>
 </g>
 </g>
 <g transform="translate(-3.53297,170.71646)">
 <g fill="#000">
 <text style="stroke:none" transform="scale(1,-1) translate(0.0,0)" text-anchor="middle"  font-size="10"> 
<g fill="#000">
 <g stroke="none"> </g> </g>
 </text> 
</g>
 </g>
 <g fill="#e6e6e6">
 <g fill="#e6e6e6">
 <path d=" M 5.17773 113.81097 C 5.17773 116.6706 2.85962 118.98871 0.0 118.98871 C -2.85962 118.98871 -5.17773 116.6706 -5.17773 113.81097 C -5.17773 110.95135 -2.85962 108.63324 0.0 108.63324 C 2.85962 108.63324 5.17773 110.95135 5.17773 113.81097 Z M 0.0 113.81097  " stroke="none"/>
 </g>
 <g transform="translate(-1.70142,112.19987)">
 <g fill="#000">
 <text style="stroke:none" transform="scale(1,-1) translate(1.70142,0)" text-anchor="middle"  font-size="10"> 
<g fill="#000">
 <g stroke="none"> <tspan font-family="cmr" font-size="5">6</tspan></g> </g>
 </text> 
</g>
 </g>
 </g>
 <g transform="translate(-3.53297,113.81097)">
 <g fill="#000">
 <text style="stroke:none" transform="scale(1,-1) translate(0.0,0)" text-anchor="middle"  font-size="10"> 
<g fill="#000">
 <g stroke="none"> </g> </g>
 </text> 
</g>
 </g>
 <g fill="#e6e6e6">
 <g fill="#e6e6e6">
 <path d=" M 232.79968 113.81097 C 232.79968 116.6706 230.48157 118.98871 227.62195 118.98871 C 224.76233 118.98871 222.44421 116.6706 222.44421 113.81097 C 222.44421 110.95135 224.76233 108.63324 227.62195 108.63324 C 230.48157 108.63324 232.79968 110.95135 232.79968 113.81097 Z M 227.62195 113.81097  " stroke="none"/>
 </g>
 <g transform="translate(225.92053,112.19987)">
 <g fill="#000">
 <text style="stroke:none" transform="scale(1,-1) translate(1.70142,0)" text-anchor="middle"  font-size="10"> 
<g fill="#000">
 <g stroke="none"> <tspan font-family="cmr" font-size="5">7</tspan></g> </g>
 </text> 
</g>
 </g>
 </g>
 <g transform="translate(224.08897,113.81097)">
 <g fill="#000">
 <text style="stroke:none" transform="scale(1,-1) translate(0.0,0)" text-anchor="middle"  font-size="10"> 
<g fill="#000">
 <g stroke="none"> </g> </g>
 </text> 
</g>
 </g>
 <g fill="#e6e6e6">
 <g fill="#e6e6e6">
 <path d=" M 232.79968 170.71646 C 232.79968 173.57608 230.48157 175.8942 227.62195 175.8942 C 224.76233 175.8942 222.44421 173.57608 222.44421 170.71646 C 222.44421 167.85684 224.76233 165.53873 227.62195 165.53873 C 230.48157 165.53873 232.79968 167.85684 232.79968 170.71646 Z M 227.62195 170.71646  " stroke="none"/>
 </g>
 <g transform="translate(225.92053,169.10536)">
 <g fill="#000">
 <text style="stroke:none" transform="scale(1,-1) translate(1.70142,0)" text-anchor="middle"  font-size="10"> 
<g fill="#000">
 <g stroke="none"> <tspan font-family="cmr" font-size="5">8</tspan></g> </g>
 </text> 
</g>
 </g>
 </g>
 <g transform="translate(224.08897,170.71646)">
 <g fill="#000">
 <text style="stroke:none" transform="scale(1,-1) translate(0.0,0)" text-anchor="middle"  font-size="10"> 
<g fill="#000">
 <g stroke="none"> </g> </g>
 </text> 
</g>
 </g>
 </g>
 </g>
 
                                              </g> 
</svg> 
