<?xml version="1.0" encoding="UTF-8" standalone="no"?>
<!-- Created with Inkscape (http://www.inkscape.org/) -->

<svg
   version="1.1"
   id="svg1"
   width="437.82266"
   height="199.02"
   viewBox="0 0 437.82266 199.02"
   xmlns="http://www.w3.org/2000/svg"
   xmlns:svg="http://www.w3.org/2000/svg">
  <defs
     id="defs1" />
  <g
     id="g1">
    <path
       id="path1"
       d="m 99.21382,0 -35.4335,61.3728 h 70.867 z m 0,0 35.4335,61.3728 L 170.08084,0 Z m 0,0 h 70.86702 l -35.43352,-61.3728 z m 0,0 35.4335,-61.3728 h -70.867 z m 0,0 L 63.78032,-61.3728 28.3468,0 Z m 0,0 H 28.3468 L 63.78032,61.3728 99.21382,0"
       style="fill:#fff766;fill-opacity:1;fill-rule:nonzero;stroke:#000000;stroke-width:0.3985;stroke-linecap:butt;stroke-linejoin:round;stroke-miterlimit:10;stroke-dasharray:none;stroke-opacity:1"
       transform="matrix(1.3333333,0,0,-1.3333333,195.28933,99.509333)" />
    <path
       id="path2"
       d="m 93.58937,55.16302 h 11.24889 V 67.58255 H 93.58937 Z"
       style="fill:#ccccff;fill-opacity:1;fill-rule:nonzero;stroke:none"
       transform="matrix(1.3333333,0,0,-1.3333333,195.28933,99.509333)" />
    <path
       id="path3"
       d="m 2.7294688,-5.7310313 c 0,-0.2226562 -0.011719,-0.234375 -0.234375,-0.234375 -0.5625,0.5625 -1.3828125,0.5625 -1.66406255,0.5625 v 0.28125 c 0.17578125,0 0.71484375,0 1.20703125,-0.234375 v 4.64062505 c 0,0.328125 -0.035156,0.43359375 -0.8671875,0.43359375 h -0.28125 v 0.28125 C 1.2060313,-0.024 2.0029063,-0.024 2.3779063,-0.024 c 0.3632812,0 1.171875,0 1.4882812,0.0234375 v -0.28125 h -0.28125 c -0.8320312,0 -0.8554687,-0.10546875 -0.8554687,-0.43359375 z m 0,0"
       style="fill:#000000;fill-opacity:1;fill-rule:nonzero;stroke:none"
       aria-label="1"
       transform="matrix(1.3333333,0,0,1.3333333,324.50133,21.532)" />
    <path
       id="path4"
       d="m 111.30612,24.47662 h 11.24889 v 12.41953 h -11.24889 z"
       style="fill:#ccccff;fill-opacity:1;fill-rule:nonzero;stroke:none"
       transform="matrix(1.3333333,0,0,-1.3333333,195.28933,99.509333)" />
    <path
       id="path5"
       d="m 3.3972578,-2.8252344 v 0.1992188 c 0,2.19140623 -0.9960937,2.56640623 -1.5117187,2.56640623 -0.1992188,0 -0.65625,-0.03515625 -0.89062504,-0.328125 h 0.0351562 c 0.070312,0.0234375 0.421875,-0.046875 0.421875,-0.41015625 0,-0.23437498 -0.1640625,-0.41015628 -0.4101562,-0.41015628 -0.25781258,0 -0.42187508,0.1523438 -0.42187508,0.42187503 0,0.59765625 0.46875008,0.984375 1.27734378,0.984375 1.1601563,0 2.3203125,-1.18359375 2.3203125,-3.15234373 0,-2.4257813 -1.078125,-3.0117188 -1.8867187,-3.0117188 -1.03125,0 -1.94531258,0.8320313 -1.94531258,2.0039063 0,1.1367187 0.82031258,1.9921875 1.83984378,1.9921875 0.65625,0 1.0078125,-0.46875 1.171875,-0.8554688 z m -1.1601562,0.6328125 c -0.140625,0 -0.5742188,0 -0.8671875,-0.5507812 -0.1640625,-0.3398438 -0.1640625,-0.7851563 -0.1640625,-1.2070313 0,-0.4335937 0,-0.8789062 0.1875,-1.21875 0.2695312,-0.4570312 0.609375,-0.5742187 0.9375,-0.5742187 0.609375,0 0.8554687,0.609375 0.890625,0.703125 0.1171875,0.328125 0.1523437,0.8789062 0.1523437,1.265625 0,0.65625 -0.2929687,1.5820312 -1.1367187,1.5820312 z m 0,0"
       style="fill:#000000;fill-opacity:1;fill-rule:nonzero;stroke:none"
       aria-label="9"
       transform="matrix(1.3333333,0,0,1.3333333,348.12267,62.446667)" />
    <path
       id="path6"
       d="m 146.73962,24.47664 h 11.24889 v 12.41953 h -11.24889 z"
       style="fill:#ccccff;fill-opacity:1;fill-rule:nonzero;stroke:none"
       transform="matrix(1.3333333,0,0,-1.3333333,195.28933,99.509333)" />
    <path
       id="path7"
       d="M 4.1371094,-1.5830469 H 3.8910156 c -0.023437,0.1171875 -0.09375,0.64453128 -0.2109375,0.78515628 -0.046875,0.0820313 -0.6679687,0.0820313 -0.84375,0.0820313 h -1.59375 L 2.1214844,-1.5596094 c 1.4765625,-1.2773437 2.015625,-1.7460937 2.015625,-2.6601562 0,-1.03125 -0.84375,-1.7460938 -1.9453125,-1.7460938 -1.03125,0 -1.73437502,0.8085938 -1.73437502,1.6289063 0,0.4453125 0.38671875,0.4921875 0.46875,0.4921875 0.19921872,0 0.46875002,-0.140625 0.46875002,-0.46875 0,-0.2695313 -0.1875,-0.46875 -0.46875002,-0.46875 -0.046875,0 -0.0703125,0 -0.10546875,0.011719 0.21093747,-0.6328125 0.78515627,-0.9257812 1.26562497,-0.9257812 0.9140625,0 1.2304688,0.8554687 1.2304688,1.4765625 0,0.9140625 -0.6914063,1.6523437 -1.125,2.1210937 l -1.64062502,1.76953128 c -0.09375,0.10546875 -0.09375,0.1171875 -0.09375,0.328125 H 3.8910156 Z m 0,0"
       style="fill:#000000;fill-opacity:1;fill-rule:nonzero;stroke:none"
       aria-label="2"
       transform="matrix(1.3333333,0,0,1.3333333,395.36667,62.446667)" />
    <path
       id="path8"
       d="m 126.71901,-6.20976 h 15.85663 V 6.20977 h -15.85663 z"
       style="fill:#ccccff;fill-opacity:1;fill-rule:nonzero;stroke:none"
       transform="matrix(1.3333333,0,0,-1.3333333,195.28933,99.509333)" />
    <path
       id="path9"
       d="m 2.729375,-5.7290078 c 0,-0.2226563 -0.011719,-0.234375 -0.234375,-0.234375 -0.5625,0.5625 -1.3828125,0.5625 -1.6640625,0.5625 v 0.28125 c 0.1757813,0 0.7148438,0 1.2070313,-0.234375 v 4.64062499 c 0,0.328125 -0.035156,0.43359375 -0.8671875,0.43359375 H 0.88953125 v 0.28125 c 0.31640625,-0.0234375 1.11328125,-0.0234375 1.48828125,-0.0234375 0.3632813,0 1.171875,0 1.4882813,0.0234375 v -0.28125 h -0.28125 c -0.8320313,0 -0.8554688,-0.10546875 -0.8554688,-0.43359375 z m 6.1201172,2.859375 c 0,-0.5976563 -0.023437,-1.3710938 -0.3398438,-2.0390625 -0.3984375,-0.84375 -1.078125,-1.0546875 -1.59375,-1.0546875 -0.5390625,0 -1.21875,0.2109375 -1.6171875,1.0664062 -0.2929687,0.6210938 -0.328125,1.3476563 -0.328125,2.0273438 0,0.5859375 0.011719,1.453125 0.3984375,2.16796874 0.421875,0.76171875 1.125,0.90234375 1.5351563,0.90234375 0.5859375,0 1.2421875,-0.2578125 1.6171875,-1.078125 0.2695312,-0.59765629 0.328125,-1.27734379 0.328125,-1.99218749 z m -1.9335938,2.84765624 c -0.2695312,0 -0.9140625,-0.12890625 -1.0898437,-1.13671874 -0.09375,-0.5390625 -0.09375,-1.3007813 -0.09375,-1.8164063 0,-0.609375 0,-1.3125 0.1171875,-1.8164062 0.1757812,-0.796875 0.75,-0.9492188 1.0546875,-0.9492188 0.3398437,0 0.9023437,0.1757813 1.078125,1.0078125 0.09375,0.4921875 0.09375,1.1953125 0.09375,1.7578125 0,0.5507813 0,1.3125 -0.09375,1.8398438 -0.1875,1.01953124 -0.84375,1.11328124 -1.0664063,1.11328124 z m 0,0"
       style="fill:#000000;fill-opacity:1;fill-rule:nonzero;stroke:none"
       aria-label="10"
       transform="matrix(1.3333333,0,0,1.3333333,368.67333,103.36133)" />
    <path
       id="path10"
       d="m 146.73964,-36.89615 h 11.24889 v 12.41953 h -11.24889 z"
       style="fill:#ccccff;fill-opacity:1;fill-rule:nonzero;stroke:none"
       transform="matrix(1.3333333,0,0,-1.3333333,195.28933,99.509333)" />
    <path
       id="path11"
       d="m 2.7308594,-3.1513359 c 0.8320312,-0.3164063 1.2304687,-0.9726563 1.2304687,-1.59375 0,-0.6914063 -0.7617187,-1.21875 -1.6875,-1.21875 -0.9375,0 -1.64062497,0.5273437 -1.64062497,1.2070312 0,0.2929688 0.19921875,0.46875 0.45703127,0.46875 0.2695312,0 0.4570312,-0.1875 0.4570312,-0.4570312 0,-0.3046875 -0.2226562,-0.4453125 -0.5273437,-0.4453125 0.234375,-0.375 0.7851562,-0.5507813 1.21875,-0.5507813 0.75,0 0.890625,0.5859375 0.890625,1.0078125 0,0.2695313 -0.058594,0.703125 -0.28125,1.0429688 -0.2695313,0.3984375 -0.5859375,0.421875 -0.84375,0.4335937 -0.234375,0.023437 -0.2460938,0.023437 -0.3164063,0.023437 -0.082031,0.011719 -0.1523437,0.011719 -0.1523437,0.1171875 0,0.1171875 0.070312,0.1171875 0.2226562,0.1171875 h 0.421875 c 0.7734375,0 1.125,0.6210938 1.125,1.4765625 0,1.14843751 -0.6210937,1.46484376 -1.078125,1.46484376 -0.1640625,0 -1.03125,-0.03515625 -1.44140622,-0.703125 0.32812502,0.046875 0.57421872,-0.17578125 0.57421872,-0.48046876 0,-0.3046875 -0.2226562,-0.4921875 -0.48046872,-0.4921875 -0.22265625,0 -0.4921875,0.140625 -0.4921875,0.515625 0,0.79687501 0.83203122,1.41796876 1.87500002,1.41796876 1.1132812,0 1.9570312,-0.80859375 1.9570312,-1.72265626 0,-0.7851562 -0.6210937,-1.4414062 -1.4882812,-1.6289057 z m 0,0"
       style="fill:#000000;fill-opacity:1;fill-rule:nonzero;stroke:none"
       aria-label="3"
       transform="matrix(1.3333333,0,0,1.3333333,395.36667,144.276)" />
    <path
       id="path12"
       d="m 109.00226,-36.89615 h 15.85663 v 12.41953 h -15.85663 z"
       style="fill:#ccccff;fill-opacity:1;fill-rule:nonzero;stroke:none"
       transform="matrix(1.3333333,0,0,-1.3333333,195.28933,99.509333)" />
    <path
       id="path13"
       d="m 2.7295547,-5.7294609 c 0,-0.2226563 -0.011719,-0.234375 -0.234375,-0.234375 -0.5625,0.5625 -1.3828125,0.5625 -1.66406251,0.5625 v 0.28125 c 0.17578121,0 0.71484371,0 1.20703121,-0.234375 v 4.64062496 c 0,0.328125 -0.035156,0.43359375 -0.8671875,0.43359375 H 0.88971094 v 0.28125 c 0.31640626,-0.0234375 1.11328126,-0.0234375 1.48828126,-0.0234375 0.3632812,0 1.171875,0 1.4882812,0.0234375 v -0.28125 h -0.28125 c -0.8320312,0 -0.8554687,-0.10546875 -0.8554687,-0.43359375 z m 4.6083984,0 c 0,-0.2226563 -0.011719,-0.234375 -0.234375,-0.234375 -0.5625,0.5625 -1.3828125,0.5625 -1.6640625,0.5625 v 0.28125 c 0.1757813,0 0.7148438,0 1.2070313,-0.234375 v 4.64062496 c 0,0.328125 -0.035156,0.43359375 -0.8671875,0.43359375 h -0.28125 v 0.28125 c 0.3164062,-0.0234375 1.1132812,-0.0234375 1.4882812,-0.0234375 0.3632813,0 1.171875,0 1.4882813,0.0234375 v -0.28125 h -0.28125 c -0.8320313,0 -0.8554688,-0.10546875 -0.8554688,-0.43359375 z m 0,0"
       style="fill:#000000;fill-opacity:1;fill-rule:nonzero;stroke:none"
       aria-label="11"
       transform="matrix(1.3333333,0,0,1.3333333,345.052,144.276)" />
    <path
       id="path14"
       d="m 93.58937,-67.58257 h 11.24889 v 12.41953 H 93.58937 Z"
       style="fill:#ccccff;fill-opacity:1;fill-rule:nonzero;stroke:none"
       transform="matrix(1.3333333,0,0,-1.3333333,195.28933,99.509333)" />
    <path
       id="path15"
       d="m 0.2568125,-1.7572578 v 0.28125 h 2.4492188 v 0.77343749 c 0,0.328125 -0.023437,0.421875 -0.703125,0.421875 h -0.1875 V 5.546875e-4 C 2.3779063,-0.02288281 2.999,-0.02288281 3.0693125,-0.02288281 c 0.035156,0 0.6914063,0 1.2539063,0.0234374975 V -0.28069531 H 4.124 c -0.6679687,0 -0.703125,-0.09375 -0.703125,-0.421875 V -1.4760078 h 0.9140625 v -0.28125 H 3.420875 v -4.0664063 c 0,-0.1875 0,-0.2460937 -0.1640625,-0.2460937 -0.1054687,0 -0.1171875,0.011719 -0.1992187,0.140625 z m 0.29296875,0 2.21484375,-3.3164063 v 3.3164063 z m 0,0"
       style="fill:#000000;fill-opacity:1;fill-rule:nonzero;stroke:none"
       aria-label="4"
       transform="matrix(1.3333333,0,0,1.3333333,324.50133,185.19067)" />
    <path
       id="path16"
       d="m 73.56876,-36.89615 h 15.85663 v 12.41953 H 73.56876 Z"
       style="fill:#ccccff;fill-opacity:1;fill-rule:nonzero;stroke:none"
       transform="matrix(1.3333333,0,0,-1.3333333,195.28933,99.509333)" />
    <path
       id="path17"
       d="m 2.7309141,-5.7294609 c 0,-0.2226563 -0.011719,-0.234375 -0.234375,-0.234375 -0.5625,0.5625 -1.3828125,0.5625 -1.66406254,0.5625 v 0.28125 c 0.17578124,0 0.71484374,0 1.20703124,-0.234375 v 4.64062496 c 0,0.328125 -0.035156,0.43359375 -0.8671875,0.43359375 H 0.89107031 v 0.28125 c 0.31640629,-0.0234375 1.11328129,-0.0234375 1.48828129,-0.0234375 0.3632812,0 1.171875,0 1.4882812,0.0234375 v -0.28125 h -0.28125 c -0.8320312,0 -0.8554687,-0.10546875 -0.8554687,-0.43359375 z m 6.0146484,4.1484375 H 8.4994688 c -0.023437,0.1171875 -0.09375,0.64453121 -0.2109375,0.78515621 -0.046875,0.0820313 -0.6679688,0.0820313 -0.84375,0.0820313 h -1.59375 L 6.7299375,-1.5575859 c 1.4765625,-1.2773438 2.015625,-1.7460938 2.015625,-2.6601563 0,-1.03125 -0.84375,-1.7460937 -1.9453125,-1.7460937 -1.03125,0 -1.734375,0.8085937 -1.734375,1.6289062 0,0.4453125 0.3867188,0.4921875 0.46875,0.4921875 0.1992188,0 0.46875,-0.140625 0.46875,-0.46875 0,-0.2695312 -0.1875,-0.46875 -0.46875,-0.46875 -0.046875,0 -0.070312,0 -0.1054687,0.011719 0.2109375,-0.6328125 0.7851562,-0.9257813 1.265625,-0.9257813 0.9140625,0 1.2304687,0.8554688 1.2304687,1.4765625 0,0.9140625 -0.6914062,1.6523438 -1.125,2.1210938 l -1.640625,1.76953121 c -0.09375,0.10546875 -0.09375,0.1171875 -0.09375,0.328125 h 3.4335938 z m 0,0"
       style="fill:#000000;fill-opacity:1;fill-rule:nonzero;stroke:none"
       aria-label="12"
       transform="matrix(1.3333333,0,0,1.3333333,297.808,144.276)" />
    <path
       id="path18"
       d="m 40.43912,-36.89616 h 11.24889 v 12.41953 H 40.43912 Z"
       style="fill:#ccccff;fill-opacity:1;fill-rule:nonzero;stroke:none"
       transform="matrix(1.3333333,0,0,-1.3333333,195.28933,99.509333)" />
    <path
       id="path19"
       d="m 0.93610938,-3.0927422 c 0,0.1640625 0,0.2578125 0.11718752,0.2578125 0.070312,0 0.1054687,-0.035156 0.1523437,-0.1171875 0.2695313,-0.375 0.703125,-0.5859375 1.171875,-0.5859375 0.9609375,0 0.9609375,1.3828125 0.9609375,1.6992188 0,0.28125 0,0.8320312 -0.2578125,1.24218746 -0.234375,0.375 -0.6210937,0.5390625 -0.9609375,0.5390625 -0.5390625,0 -1.13671872,-0.328125 -1.34765622,-0.99609376 0.0117188,0 0.0585938,0.023437 0.1171875,0.023437 0.18750002,0 0.44531252,-0.1171875 0.44531252,-0.4335937 0,-0.28125 -0.1992188,-0.4453125 -0.44531252,-0.4453125 -0.1875,0 -0.43359375,0.1054687 -0.43359375,0.46875 0,0.80859371 0.67968747,1.64062496 1.67578127,1.64062496 1.0898437,0 2.0039062,-0.87890625 2.0039062,-1.99218746 0,-1.0898438 -0.7617187,-1.96875 -1.7460937,-1.96875 -0.421875,0 -0.8671875,0.140625 -1.1835938,0.4570312 v -1.7578125 c 0.2695313,0.082031 0.5507813,0.1171875 0.8320313,0.1171875 1.1015625,0 1.7460937,-0.796875 1.7460937,-0.9140625 0,-0.070312 -0.058594,-0.1054687 -0.1054687,-0.1054687 -0.011719,0 -0.035156,0 -0.1171875,0.035156 -0.4101563,0.1757813 -0.8320313,0.2460938 -1.2070313,0.2460938 -0.3867187,0 -0.7851562,-0.070312 -1.1953125,-0.2460938 -0.09375,-0.035156 -0.1054687,-0.035156 -0.1171875,-0.035156 -0.10546872,0 -0.10546872,0.082031 -0.10546872,0.234375 z m 0,0"
       style="fill:#000000;fill-opacity:1;fill-rule:nonzero;stroke:none"
       aria-label="5"
       transform="matrix(1.3333333,0,0,1.3333333,253.63467,144.276)" />
    <path
       id="path20"
       d="M 55.852,-6.20976 H 71.70863 V 6.20977 H 55.852 Z"
       style="fill:#ccccff;fill-opacity:1;fill-rule:nonzero;stroke:none"
       transform="matrix(1.3333333,0,0,-1.3333333,195.28933,99.509333)" />
    <path
       id="path21"
       d="m 2.7291641,-5.7290078 c 0,-0.2226563 -0.011719,-0.234375 -0.234375,-0.234375 -0.5625,0.5625 -1.3828125,0.5625 -1.66406254,0.5625 v 0.28125 c 0.17578124,0 0.71484374,0 1.20703124,-0.234375 v 4.64062499 c 0,0.328125 -0.035156,0.43359375 -0.8671875,0.43359375 H 0.88932031 v 0.28125 c 0.31640629,-0.0234375 1.11328129,-0.0234375 1.48828129,-0.0234375 0.3632812,0 1.171875,0 1.4882812,0.0234375 v -0.28125 h -0.28125 c -0.8320312,0 -0.8554687,-0.10546875 -0.8554687,-0.43359375 z m 4.6083984,2.578125 c 0.8320312,-0.3164063 1.2304687,-0.9726563 1.2304687,-1.59375 0,-0.6914063 -0.7617187,-1.21875 -1.6875,-1.21875 -0.9375,0 -1.640625,0.5273437 -1.640625,1.2070312 0,0.2929688 0.1992188,0.46875 0.4570313,0.46875 0.2695312,0 0.4570312,-0.1875 0.4570312,-0.4570312 0,-0.3046875 -0.2226562,-0.4453125 -0.5273437,-0.4453125 0.234375,-0.375 0.7851562,-0.5507813 1.21875,-0.5507813 0.75,0 0.890625,0.5859375 0.890625,1.0078125 0,0.2695313 -0.058594,0.703125 -0.28125,1.0429688 -0.2695313,0.3984375 -0.5859375,0.421875 -0.84375,0.4335937 -0.234375,0.023437 -0.2460938,0.023437 -0.3164063,0.023437 -0.082031,0.011719 -0.1523437,0.011719 -0.1523437,0.1171875 0,0.1171875 0.070312,0.1171875 0.2226562,0.1171875 h 0.421875 c 0.7734375,0 1.125,0.6210938 1.125,1.4765625 0,1.14843754 -0.6210937,1.46484379 -1.078125,1.46484379 -0.1640625,0 -1.03125,-0.03515625 -1.4414062,-0.703125 0.328125,0.046875 0.5742187,-0.17578125 0.5742187,-0.48046879 0,-0.3046875 -0.2226562,-0.4921875 -0.4804687,-0.4921875 -0.2226563,0 -0.4921875,0.140625 -0.4921875,0.515625 0,0.79687504 0.8320312,1.41796879 1.875,1.41796879 1.1132812,0 1.9570312,-0.80859375 1.9570312,-1.72265629 0,-0.7851562 -0.6210937,-1.4414062 -1.4882812,-1.6289057 z m 0,0"
       style="fill:#000000;fill-opacity:1;fill-rule:nonzero;stroke:none"
       aria-label="13"
       transform="matrix(1.3333333,0,0,1.3333333,274.18533,103.36133)" />
    <path
       id="path22"
       d="M 40.4391,24.47662 H 51.68799 V 36.89615 H 40.4391 Z"
       style="fill:#ccccff;fill-opacity:1;fill-rule:nonzero;stroke:none"
       transform="matrix(1.3333333,0,0,-1.3333333,195.28933,99.509333)" />
    <path
       id="path23"
       d="m 1.2056406,-2.9658594 c 0,-0.9140625 0.09375,-1.4296875 0.3398438,-1.8984375 0.1757812,-0.3632812 0.609375,-0.8789062 1.2773437,-0.8789062 0.1757813,0 0.5859375,0.035156 0.796875,0.3515625 -0.328125,0 -0.46875,0.1757812 -0.46875,0.4101562 0,0.234375 0.1523438,0.421875 0.4101563,0.421875 0.2460937,0 0.421875,-0.1640625 0.421875,-0.4335937 0,-0.5039063 -0.3632813,-0.9726563 -1.1835938,-0.9726563 -1.1484375,0 -2.41406247,1.1367188 -2.41406247,3.1289063 0,2.43749998 1.08984377,3.03515623 1.93359377,3.03515623 0.9960937,0 1.8984375,-0.83203125 1.8984375,-2.01562503 0,-1.1367187 -0.8320313,-2.0039062 -1.8398438,-2.0039062 -0.5390625,0 -0.9257812,0.3164062 -1.171875,0.8554687 z m 1.1015625,2.90625003 c -0.5039062,0 -0.796875,-0.421875 -0.9140625,-0.6796875 C 1.2290781,-1.1377344 1.2173594,-1.8877344 1.2173594,-2.0283594 c 0,-0.5976562 0.28125,-1.5703125 1.1367187,-1.5703125 0.140625,0 0.5859375,0 0.8671875,0.5625 0.1757813,0.3398438 0.1757813,0.7734375 0.1757813,1.2070313 0,0.4335937 0,0.86718748 -0.1757813,1.19531248 -0.2695312,0.515625 -0.6679687,0.57421875 -0.9140625,0.57421875 z m 0,0"
       style="fill:#000000;fill-opacity:1;fill-rule:nonzero;stroke:none"
       aria-label="6"
       transform="matrix(1.3333333,0,0,1.3333333,253.63467,62.446667)" />
    <path
       id="path24"
       d="M 75.87262,24.47664 H 87.12151 V 36.89617 H 75.87262 Z"
       style="fill:#ccccff;fill-opacity:1;fill-rule:nonzero;stroke:none"
       transform="matrix(1.3333333,0,0,-1.3333333,195.28933,99.509333)" />
    <path
       id="path25"
       d="m 1.5470547,-4.0674219 c -0.2695313,-0.1757812 -0.4804688,-0.4101562 -0.4804688,-0.75 0,-0.5859375 0.6328125,-0.9257812 1.21875,-0.9257812 0.6914063,0 1.2421875,0.4804687 1.2421875,1.1015625 0,0.6328125 -0.5273437,1.0429687 -0.890625,1.2539062 z m 1.3125,0.8203125 c 0.4453125,-0.2109375 1.1015625,-0.6679687 1.1015625,-1.3945312 0,-0.8320313 -0.84375,-1.3242188 -1.6523438,-1.3242188 -0.9375,0 -1.67578121,0.6679688 -1.67578121,1.4882813 0,0.3398437 0.12890625,0.6679687 0.33984375,0.9257812 0.15234376,0.1757813 0.21093746,0.2109375 0.72656246,0.5390625 -0.78515621,0.375 -1.31249996,0.9257813 -1.31249996,1.6523438 0,0.96093748 0.93749996,1.55859373 1.91015626,1.55859373 1.0429687,0 1.921875,-0.73828125 1.921875,-1.71093753 0,-0.8671875 -0.6679688,-1.2890625 -0.890625,-1.4414062 -0.1054688,-0.070312 -0.3632813,-0.234375 -0.46875,-0.2929688 z m -0.9140625,0.3867188 1.125,0.703125 c 0.2109375,0.1289062 0.65625,0.421875 0.65625,0.9609375 0,0.71484373 -0.7148438,1.13671873 -1.4179688,1.13671873 -0.7851562,0 -1.44140621,-0.55078125 -1.44140621,-1.30078123 0,-0.6445313 0.44531251,-1.171875 1.07812501,-1.5 z m 0,0"
       style="fill:#000000;fill-opacity:1;fill-rule:nonzero;stroke:none"
       aria-label="8"
       transform="matrix(1.3333333,0,0,1.3333333,300.87867,62.446667)" />
    <path
       id="path26"
       d="m 65.77287,61.3728 c 0,1.10047 -0.89209,1.99256 -1.99255,1.99256 -1.10048,0 -1.99255,-0.89209 -1.99255,-1.99256 0,-1.10048 0.89207,-1.99255 1.99255,-1.99255 1.10046,0 1.99255,0.89207 1.99255,1.99255 z"
       style="fill:#0000ff;fill-opacity:1;fill-rule:nonzero;stroke:none"
       transform="matrix(1.3333333,0,0,-1.3333333,195.28933,99.509333)" />
    <path
       id="path27"
       d="m 2.9307578,-6.3737891 c 0,-0.234375 0,-0.2578125 -0.234375,-0.2578125 -0.609375,0.6328125 -1.4882812,0.6328125 -1.80468749,0.6328125 v 0.3164063 c 0.19921879,0 0.78515629,0 1.30078129,-0.2578125 v 5.15624999 c 0,0.3515625 -0.035156,0.48046875 -0.9257813,0.48046875 H 0.95028906 v 0.3046875 C 1.3018516,-0.03394531 2.1573203,-0.03394531 2.5557578,-0.03394531 c 0.3984375,0 1.265625,0 1.6171875,0.03515625 v -0.3046875 H 3.8565391 c -0.9023438,0 -0.9257813,-0.1171875 -0.9257813,-0.48046875 z m 0,0"
       style="fill:#0000ff;fill-opacity:1;fill-rule:nonzero;stroke:none"
       aria-label="1"
       transform="matrix(1.3333333,0,0,1.3333333,268.99467,12.986667)" />
    <path
       id="path28"
       d="m 136.63988,61.3728 c 0,1.10047 -0.89209,1.99256 -1.99256,1.99256 -1.10048,0 -1.99255,-0.89209 -1.99255,-1.99256 0,-1.10048 0.89207,-1.99255 1.99255,-1.99255 1.10047,0 1.99256,0.89207 1.99256,1.99255 z"
       style="fill:#0000ff;fill-opacity:1;fill-rule:nonzero;stroke:none"
       transform="matrix(1.3333333,0,0,-1.3333333,195.28933,99.509333)" />
    <path
       id="path29"
       d="M 1.2664141,-0.76050781 2.3211016,-1.7917578 c 1.5585937,-1.3710938 2.15625,-1.9101563 2.15625,-2.90625 0,-1.1367188 -0.9023438,-1.9335938 -2.1210938,-1.9335938 -1.125,0 -1.85156249,0.9140625 -1.85156249,1.8046875 0,0.5507813 0.4921875,0.5507813 0.52734379,0.5507813 0.1640625,0 0.515625,-0.1171875 0.515625,-0.5273438 0,-0.2578125 -0.1875,-0.515625 -0.5273438,-0.515625 -0.0820312,0 -0.10546874,0 -0.12890624,0.011719 0.22265624,-0.6445313 0.76171874,-1.0195313 1.33593754,-1.0195313 0.9140625,0 1.3359375,0.8085938 1.3359375,1.6289063 0,0.796875 -0.4921875,1.5820312 -1.0429688,2.203125 L 0.61016406,-0.36207031 C 0.50469531,-0.25660156 0.50469531,-0.23316406 0.50469531,0.00121094 H 4.1961016 l 0.28125,-1.73437504 H 4.2195391 c -0.046875,0.3046875 -0.1171875,0.73828129 -0.2109375,0.89062504 -0.070313,0.0820313 -0.7265625,0.0820313 -0.9492188,0.0820313 z m 0,0"
       style="fill:#0000ff;fill-opacity:1;fill-rule:nonzero;stroke:none"
       aria-label="2"
       transform="matrix(1.3333333,0,0,1.3333333,379.51067,12.986667)" />
    <path
       id="path30"
       d="m 172.0734,0 c 0,1.10046 -0.8921,1.99255 -1.99256,1.99255 -1.10048,0 -1.99255,-0.89209 -1.99255,-1.99255 0,-1.10046 0.89207,-1.99255 1.99255,-1.99255 1.10046,0 1.99256,0.89209 1.99256,1.99255 z"
       style="fill:#0000ff;fill-opacity:1;fill-rule:nonzero;stroke:none"
       transform="matrix(1.3333333,0,0,-1.3333333,195.28933,99.509333)" />
    <path
       id="path31"
       d="m 2.8939609,-3.5041094 c 0.8085938,-0.2695312 1.3945313,-0.9726562 1.3945313,-1.7578125 0,-0.8203125 -0.8789063,-1.3710937 -1.8398438,-1.3710937 -1.0078125,0 -1.75781246,0.5976562 -1.75781246,1.3476562 0,0.3398438 0.2109375,0.5273438 0.50390626,0.5273438 0.3046875,0 0.5039062,-0.2226563 0.5039062,-0.515625 0,-0.4921875 -0.46875,-0.4921875 -0.609375,-0.4921875 0.3046875,-0.4921875 0.9609375,-0.6210938 1.3242188,-0.6210938 0.4101562,0 0.9492187,0.2226563 0.9492187,1.1132813 0,0.1289062 -0.011719,0.703125 -0.2695312,1.1367187 -0.3046875,0.4804688 -0.6445313,0.515625 -0.890625,0.515625 -0.082031,0.011719 -0.3164063,0.035156 -0.3867188,0.035156 -0.082031,0.011719 -0.1523437,0.023437 -0.1523437,0.1171875 0,0.1171875 0.070312,0.1171875 0.234375,0.1171875 h 0.4453125 c 0.8085937,0 1.1835937,0.6679687 1.1835937,1.6523437 0,1.34765628 -0.6914062,1.64062503 -1.125,1.64062503 -0.4335937,0 -1.171875,-0.17578125 -1.52343746,-0.76171875 0.35156246,0.0585938 0.65624996,-0.1640625 0.65624996,-0.53906248 0,-0.3632813 -0.2695312,-0.5625 -0.56249996,-0.5625 -0.234375,0 -0.55078125,0.140625 -0.55078125,0.5742187 0,0.91406253 0.92578121,1.57031253 2.00390621,1.57031253 1.21875,0 2.1210938,-0.9140625 2.1210938,-1.92187503 0,-0.8203125 -0.6210938,-1.59375 -1.6523438,-1.8046872 z m 0,0"
       style="fill:#0000ff;fill-opacity:1;fill-rule:nonzero;stroke:none"
       aria-label="3"
       transform="matrix(1.3333333,0,0,1.3333333,426.75467,103.78933)" />
    <path
       id="path32"
       d="m 136.63988,-61.3728 c 0,1.10048 -0.89209,1.99255 -1.99256,1.99255 -1.10048,0 -1.99255,-0.89207 -1.99255,-1.99255 0,-1.10047 0.89207,-1.99256 1.99255,-1.99256 1.10047,0 1.99256,0.89209 1.99256,1.99256 z"
       style="fill:#0000ff;fill-opacity:1;fill-rule:nonzero;stroke:none"
       transform="matrix(1.3333333,0,0,-1.3333333,195.28933,99.509333)" />
    <path
       id="path33"
       d="m 2.9304766,-1.6393125 v 0.8671875 c 0,0.3515625 -0.023437,0.46875 -0.7617188,0.46875 H 1.9578203 v 0.3046875 c 0.4101563,-0.03515625 0.9375,-0.03515625 1.3476563,-0.03515625 0.421875,0 0.9492187,0 1.359375,0.03515625 V -0.303375 H 4.4539141 c -0.7382813,0 -0.7617188,-0.1171875 -0.7617188,-0.46875 V -1.6393125 H 4.6882891 V -1.9557187 H 3.6921953 v -4.5234375 c 0,-0.1992188 0,-0.2578125 -0.1523437,-0.2578125 -0.09375,0 -0.1171875,0 -0.1992188,0.1171875 l -3.05859374,4.6640625 v 0.3164062 z m 0.058594,-0.3164062 H 0.56328906 L 2.9890703,-5.6705625 Z m 0,0"
       style="fill:#0000ff;fill-opacity:1;fill-rule:nonzero;stroke:none"
       aria-label="4"
       transform="matrix(1.3333333,0,0,1.3333333,379.51067,194.592)" />
    <path
       id="path34"
       d="m 65.77287,-61.3728 c 0,1.10048 -0.89209,1.99255 -1.99255,1.99255 -1.10048,0 -1.99255,-0.89207 -1.99255,-1.99255 0,-1.10047 0.89207,-1.99256 1.99255,-1.99256 1.10046,0 1.99255,0.89209 1.99255,1.99256 z"
       style="fill:#0000ff;fill-opacity:1;fill-rule:nonzero;stroke:none"
       transform="matrix(1.3333333,0,0,-1.3333333,195.28933,99.509333)" />
    <path
       id="path35"
       d="m 4.4776328,-2.0025937 c 0,-1.1835938 -0.8203125,-2.1796875 -1.8984375,-2.1796875 -0.4804687,0 -0.9023437,0.1640625 -1.265625,0.5039062 v -1.9335937 c 0.1992188,0.058594 0.5273438,0.1289062 0.84375,0.1289062 1.2304688,0 1.9335938,-0.9140625 1.9335938,-1.0429687 0,-0.058594 -0.035156,-0.1054688 -0.1054688,-0.1054688 -0.011719,0 -0.035156,0 -0.082031,0.023437 -0.1992188,0.09375 -0.6796875,0.2929688 -1.3476563,0.2929688 -0.3984375,0 -0.8554687,-0.070312 -1.3242187,-0.28125 -0.082031,-0.023437 -0.1054688,-0.023437 -0.1289063,-0.023437 -0.09375,0 -0.09375,0.082031 -0.09375,0.234375 v 2.953125 c 0,0.1757812 0,0.2578125 0.140625,0.2578125 0.070312,0 0.082031,-0.035156 0.1289063,-0.09375 C 1.383883,-3.4205625 1.758883,-3.959625 2.555758,-3.959625 c 0.5273438,0 0.7734375,0.4570313 0.8554688,0.6328125 0.1523437,0.375 0.1757812,0.7617188 0.1757812,1.2539063 0,0.3515625 0,0.9492187 -0.234375,1.3710937 -0.2460937,0.38671875 -0.609375,0.64453125 -1.0664062,0.64453125 -0.7265625,0 -1.30078129,-0.52734375 -1.46484379,-1.11328125 0.0234375,0.011719 0.0585938,0.011719 0.1640625,0.011719 0.32812499,0 0.50390629,-0.2460938 0.50390629,-0.4804688 0,-0.2460937 -0.1757813,-0.4921875 -0.50390629,-0.4921875 -0.140625,0 -0.48046875,0.070312 -0.48046875,0.5273438 0,0.8554687 0.67968754,1.82812495 1.79296874,1.82812495 1.1601563,0 2.1796875,-0.9609375 2.1796873,-2.22656265 z m 0,0"
       style="fill:#0000ff;fill-opacity:1;fill-rule:nonzero;stroke:none"
       aria-label="5"
       transform="matrix(1.3333333,0,0,1.3333333,268.99467,194.592)" />
    <path
       id="path36"
       d="m 30.33936,0 c 0,1.10046 -0.89208,1.99255 -1.99256,1.99255 -1.10046,0 -1.99255,-0.89209 -1.99255,-1.99255 0,-1.10046 0.89209,-1.99255 1.99255,-1.99255 1.10048,0 1.99256,0.89209 1.99256,1.99255 z"
       style="fill:#0000ff;fill-opacity:1;fill-rule:nonzero;stroke:none"
       transform="matrix(1.3333333,0,0,-1.3333333,195.28933,99.509333)" />
    <path
       id="path37"
       d="m 1.312,-3.2697344 v -0.234375 c 0,-2.5195312 1.2421875,-2.8828125 1.7460938,-2.8828125 0.234375,0 0.65625,0.058594 0.8789062,0.3984375 -0.1523437,0 -0.5507812,0 -0.5507812,0.4453125 0,0.3164063 0.234375,0.4570313 0.4570312,0.4570313 0.1640625,0 0.4570313,-0.082031 0.4570313,-0.46875 0,-0.5976563 -0.4335938,-1.078125 -1.265625,-1.078125 -1.2773438,0 -2.6132813,1.2890625 -2.6132813,3.4804687 0,2.66015628 1.1484375,3.37500003 2.0742188,3.37500003 1.1132812,0 2.0507812,-0.9375 2.0507812,-2.25000003 0,-1.265625 -0.8789062,-2.2265625 -1.9921875,-2.2265625 -0.6679687,0 -1.0429687,0.5039063 -1.2421875,0.984375 z m 1.1835938,3.21093753 c -0.6210938,0 -0.9257813,-0.59765625 -0.984375,-0.75 C 1.3354375,-1.2775469 1.3354375,-2.0744219 1.3354375,-2.2502031 c 0,-0.7734375 0.3164063,-1.7695313 1.21875,-1.7695313 0.1523438,0 0.609375,0 0.9257813,0.609375 0.1757812,0.375 0.1757812,0.8789063 0.1757812,1.3710938 0,0.4804687 0,0.9726562 -0.1640625,1.33593748 C 3.187,-0.10567187 2.7299688,-0.05879687 2.4955938,-0.05879687 Z m 0,0"
       style="fill:#0000ff;fill-opacity:1;fill-rule:nonzero;stroke:none"
       aria-label="6"
       transform="matrix(1.3333333,0,0,1.3333333,221.75067,103.78933)" />
    <path
       id="path38"
       d="m 101.20638,0 c 0,1.10046 -0.89209,1.99255 -1.99256,1.99255 -1.10048,0 -1.99255,-0.89209 -1.99255,-1.99255 0,-1.10046 0.89207,-1.99255 1.99255,-1.99255 1.10047,0 1.99256,0.89209 1.99256,1.99255 z"
       style="fill:#0000ff;fill-opacity:1;fill-rule:nonzero;stroke:none"
       transform="matrix(1.3333333,0,0,-1.3333333,195.28933,99.509333)" />
    <path
       id="path39"
       d="m 1.6303359,-4.5465703 c -0.46875,-0.3046875 -0.5039062,-0.6445313 -0.5039062,-0.8085938 0,-0.609375 0.6445312,-1.03125 1.359375,-1.03125 0.7265625,0 1.359375,0.515625 1.359375,1.2421875 0,0.5625 -0.3867188,1.0429688 -0.984375,1.3945313 z m 1.453125,0.9375 c 0.7148438,-0.3632813 1.2070313,-0.8789063 1.2070313,-1.5351563 0,-0.9257812 -0.890625,-1.4882812 -1.7929688,-1.4882812 -0.9960937,0 -1.80468746,0.7382812 -1.80468746,1.6640625 0,0.1757812 0.0117188,0.6210937 0.43359376,1.0898437 0.1054687,0.1289063 0.4804687,0.375 0.7265625,0.5390625 -0.5742188,0.2929688 -1.42968751,0.84375 -1.42968751,1.8398438 0,1.05468749 1.00781251,1.72265624 2.06250001,1.72265624 1.125,0 2.0625,-0.83203125 2.0625,-1.89843754 0,-0.3515625 -0.1054688,-0.8085937 -0.4804688,-1.21875 -0.1875,-0.2109375 -0.3515625,-0.3164062 -0.984375,-0.7148437 z m -0.9960937,0.421875 1.21875,0.7734375 c 0.28125,0.1875 0.75,0.4921875 0.75,1.1015625 0,0.73828124 -0.75,1.25390624 -1.5585938,1.25390624 -0.8671875,0 -1.58203121,-0.62109375 -1.58203121,-1.44140624 0,-0.5859375 0.31640621,-1.21875 1.17187501,-1.6875 z m 0,0"
       style="fill:#0000ff;fill-opacity:1;fill-rule:nonzero;stroke:none"
       aria-label="8"
       transform="matrix(1.3333333,0,0,1.3333333,324.252,94.816)" />
    <path
       id="path40"
       d="m 3.7271719,-6.0350859 c 0.09375,-0.3632813 0.1171875,-0.4570313 0.9023437,-0.4570313 0.2460938,0 0.3164063,0 0.3164063,-0.1875 0,-0.1289062 -0.1054688,-0.1289062 -0.140625,-0.1289062 -0.2929688,0 -1.03125,0.035156 -1.3125,0.035156 -0.3046875,0 -1.03125,-0.035156 -1.3359375,-0.035156 -0.058594,0 -0.1992188,0 -0.1992188,0.1992187 0,0.1171875 0.09375,0.1171875 0.28125,0.1171875 0.421875,0 0.6914063,0 0.6914063,0.1875 0,0.046875 0,0.070312 -0.023437,0.1640625 l -1.3476563,5.36718751 c -0.082031,0.36328125 -0.1171875,0.46875 -0.90234372,0.46875 -0.22265625,0 -0.31640625,0 -0.31640625,0.19921875 0,0.1054687525 0.1171875,0.1054687525 0.15234375,0.1054687525 0.28125,0 1.00781252,-0.0351562525 1.30078122,-0.0351562525 0.3046875,0 1.03125,0.0351562525 1.3359375,0.0351562525 0.082031,0 0.1992188,0 0.1992188,-0.1875000025 0,-0.1171875 -0.082031,-0.1171875 -0.3046875,-0.1171875 -0.1757813,0 -0.2226563,0 -0.421875,-0.0234375 -0.2109375,-0.0234375 -0.2460938,-0.0585938 -0.2460938,-0.17578125 0,-0.0703125 0.011719,-0.15234375 0.035156,-0.22265625 z m 0,0"
       style="fill:#000000;fill-opacity:1;fill-rule:nonzero;stroke:none"
       aria-label="I"
       transform="matrix(1.3333333,0,0,1.3333333,324.132,49.496)" />
    <path
       id="path41"
       d="m 3.7257578,-6.0340781 c 0.09375,-0.3632813 0.1171875,-0.4570313 0.9023438,-0.4570313 0.2460937,0 0.3164062,0 0.3164062,-0.1875 0,-0.1289062 -0.1054687,-0.1289062 -0.140625,-0.1289062 -0.2929687,0 -1.03125,0.035156 -1.3125,0.035156 -0.3046875,0 -1.03125,-0.035156 -1.3359375,-0.035156 -0.058594,0 -0.1992187,0 -0.1992187,0.1992187 0,0.1171875 0.09375,0.1171875 0.28125,0.1171875 0.421875,0 0.6914062,0 0.6914062,0.1875 0,0.046875 0,0.070312 -0.023437,0.1640625 l -1.3476562,5.36718753 c -0.082031,0.36328125 -0.1171875,0.46875 -0.90234379,0.46875 -0.22265625,0 -0.31640625,0 -0.31640625,0.19921875 0,0.10546875 0.1171875,0.10546875 0.15234375,0.10546875 0.28125,0 1.00781249,-0.03515625 1.30078129,-0.03515625 0.3046875,0 1.03125,0.03515625 1.3359375,0.03515625 0.082031,0 0.1992187,0 0.1992187,-0.1875 0,-0.1171875 -0.082031,-0.1171875 -0.3046875,-0.1171875 -0.1757812,0 -0.2226562,0 -0.421875,-0.0234375 -0.2109375,-0.0234375 -0.2460937,-0.0585938 -0.2460937,-0.17578125 0,-0.0703125 0.011719,-0.15234375 0.035156,-0.22265625 z m 5.15625,0 c 0.09375,-0.3632813 0.1171875,-0.4570313 0.9023438,-0.4570313 0.2460934,0 0.3164064,0 0.3164064,-0.1875 0,-0.1289062 -0.1054689,-0.1289062 -0.1406252,-0.1289062 -0.2929687,0 -1.03125,0.035156 -1.3125,0.035156 -0.3046875,0 -1.03125,-0.035156 -1.3359375,-0.035156 -0.058594,0 -0.1992187,0 -0.1992187,0.1992187 0,0.1171875 0.09375,0.1171875 0.28125,0.1171875 0.421875,0 0.6914062,0 0.6914062,0.1875 0,0.046875 0,0.070312 -0.023437,0.1640625 l -1.3476562,5.36718753 c -0.082031,0.36328125 -0.1171875,0.46875 -0.9023438,0.46875 -0.2226562,0 -0.3164062,0 -0.3164062,0.19921875 0,0.10546875 0.1171875,0.10546875 0.1523437,0.10546875 0.28125,0 1.0078125,-0.03515625 1.3007813,-0.03515625 0.3046875,0 1.03125,0.03515625 1.3359375,0.03515625 0.082031,0 0.1992187,0 0.1992187,-0.1875 0,-0.1171875 -0.082031,-0.1171875 -0.3046875,-0.1171875 -0.1757812,0 -0.2226562,0 -0.421875,-0.0234375 -0.2109375,-0.0234375 -0.2460937,-0.0585938 -0.2460937,-0.17578125 0,-0.0703125 0.011719,-0.15234375 0.035156,-0.22265625 z m 0,0"
       style="fill:#000000;fill-opacity:1;fill-rule:nonzero;stroke:none"
       aria-label="II"
       transform="matrix(1.3333333,0,0,1.3333333,367.93467,76.772)" />
    <path
       id="path42"
       d="m 3.7257031,-6.0349922 c 0.09375,-0.3632812 0.1171875,-0.4570312 0.9023438,-0.4570312 0.2460937,0 0.3164062,0 0.3164062,-0.1875 0,-0.1289063 -0.1054687,-0.1289063 -0.140625,-0.1289063 -0.2929687,0 -1.03125,0.035156 -1.3125,0.035156 -0.3046875,0 -1.03125,-0.035156 -1.3359375,-0.035156 -0.058594,0 -0.1992187,0 -0.1992187,0.1992188 0,0.1171875 0.09375,0.1171875 0.28125,0.1171875 0.421875,0 0.6914062,0 0.6914062,0.1875 0,0.046875 0,0.070312 -0.023437,0.1640625 l -1.3476562,5.36718746 c -0.082031,0.36328125 -0.1171875,0.46875 -0.90234378,0.46875 -0.22265625,0 -0.31640625,0 -0.31640625,0.19921875 0,0.1054687525 0.1171875,0.1054687525 0.15234375,0.1054687525 0.28125,0 1.00781248,-0.0351562525 1.30078128,-0.0351562525 0.3046875,0 1.03125,0.0351562525 1.3359375,0.0351562525 0.082031,0 0.1992187,0 0.1992187,-0.1875000025 0,-0.1171875 -0.082031,-0.1171875 -0.3046875,-0.1171875 -0.1757812,0 -0.2226562,0 -0.421875,-0.0234375 -0.2109375,-0.0234375 -0.2460937,-0.0585938 -0.2460937,-0.17578125 0,-0.0703125 0.011719,-0.15234375 0.035156,-0.22265625 z m 5.15625,0 c 0.09375,-0.3632812 0.1171875,-0.4570312 0.9023438,-0.4570312 0.2460941,0 0.3164061,0 0.3164061,-0.1875 0,-0.1289063 -0.1054686,-0.1289063 -0.1406249,-0.1289063 -0.2929687,0 -1.03125,0.035156 -1.3125,0.035156 -0.3046875,0 -1.03125,-0.035156 -1.3359375,-0.035156 -0.058594,0 -0.1992187,0 -0.1992187,0.1992188 0,0.1171875 0.09375,0.1171875 0.28125,0.1171875 0.421875,0 0.6914062,0 0.6914062,0.1875 0,0.046875 0,0.070312 -0.023437,0.1640625 l -1.3476562,5.36718746 c -0.082031,0.36328125 -0.1171875,0.46875 -0.9023438,0.46875 -0.2226562,0 -0.3164062,0 -0.3164062,0.19921875 0,0.1054687525 0.1171875,0.1054687525 0.1523437,0.1054687525 0.28125,0 1.0078125,-0.0351562525 1.3007813,-0.0351562525 0.3046875,0 1.03125,0.0351562525 1.3359375,0.0351562525 0.082031,0 0.1992187,0 0.1992187,-0.1875000025 0,-0.1171875 -0.082031,-0.1171875 -0.3046875,-0.1171875 -0.1757812,0 -0.2226562,0 -0.421875,-0.0234375 -0.2109375,-0.0234375 -0.2460937,-0.0585938 -0.2460937,-0.17578125 0,-0.0703125 0.011719,-0.15234375 0.035156,-0.22265625 z m 5.1679689,0 c 0.09375,-0.3632812 0.117187,-0.4570312 0.902344,-0.4570312 0.246093,0 0.316406,0 0.316406,-0.1875 0,-0.1289063 -0.105469,-0.1289063 -0.140625,-0.1289063 -0.292969,0 -1.03125,0.035156 -1.3125,0.035156 -0.304688,0 -1.03125,-0.035156 -1.335938,-0.035156 -0.05859,0 -0.199218,0 -0.199218,0.1992188 0,0.1171875 0.09375,0.1171875 0.28125,0.1171875 0.421875,0 0.691406,0 0.691406,0.1875 0,0.046875 0,0.070312 -0.02344,0.1640625 l -1.347656,5.36718746 c -0.08203,0.36328125 -0.117187,0.46875 -0.902344,0.46875 -0.222656,0 -0.316406,0 -0.316406,0.19921875 0,0.1054687525 0.117188,0.1054687525 0.152344,0.1054687525 0.28125,0 1.007812,-0.0351562525 1.300781,-0.0351562525 0.304688,0 1.03125,0.0351562525 1.335938,0.0351562525 0.08203,0 0.199218,0 0.199218,-0.1875000025 0,-0.1171875 -0.08203,-0.1171875 -0.304687,-0.1171875 -0.175781,0 -0.222656,0 -0.421875,-0.0234375 -0.210938,-0.0234375 -0.246094,-0.0585938 -0.246094,-0.17578125 0,-0.0703125 0.01172,-0.15234375 0.03516,-0.22265625 z m 0,0"
       style="fill:#000000;fill-opacity:1;fill-rule:nonzero;stroke:none"
       aria-label="III"
       transform="matrix(1.3333333,0,0,1.3333333,364.49333,131.324)" />
    <path
       id="path43"
       d="m 3.7265,-6.0339844 c 0.09375,-0.3632812 0.1171875,-0.4570312 0.9023437,-0.4570312 0.2460938,0 0.3164063,0 0.3164063,-0.1875 0,-0.1289063 -0.1054688,-0.1289063 -0.140625,-0.1289063 -0.2929688,0 -1.03125,0.035156 -1.3125,0.035156 -0.3046875,0 -1.03125,-0.035156 -1.3359375,-0.035156 -0.058594,0 -0.1992188,0 -0.1992188,0.1992188 0,0.1171875 0.09375,0.1171875 0.28125,0.1171875 0.421875,0 0.6914063,0 0.6914063,0.1875 0,0.046875 0,0.070312 -0.023437,0.1640625 l -1.3476563,5.36718748 c -0.082031,0.36328125 -0.1171875,0.46875 -0.9023437,0.46875 -0.22265625,0 -0.31640625,0 -0.31640625,0.19921875 0,0.10546875 0.1171875,0.10546875 0.15234375,0.10546875 0.28125,0 1.0078125,-0.03515625 1.3007812,-0.03515625 0.3046875,0 1.03125,0.03515625 1.3359375,0.03515625 0.082031,0 0.1992188,0 0.1992188,-0.1875 0,-0.1171875 -0.082031,-0.1171875 -0.3046875,-0.1171875 -0.1757813,0 -0.2226563,0 -0.421875,-0.0234375 -0.2109375,-0.0234375 -0.2460938,-0.0585938 -0.2460938,-0.17578125 0,-0.0703125 0.011719,-0.15234375 0.035156,-0.22265625 z m 7.6875,0.3632813 c 0.480469,-0.7734375 0.902344,-0.8085938 1.277344,-0.8203125 0.117187,-0.011719 0.128906,-0.1875 0.128906,-0.1875 0,-0.082031 -0.05859,-0.1289063 -0.128906,-0.1289063 -0.257813,0 -0.550782,0.035156 -0.820313,0.035156 -0.328125,0 -0.667969,-0.035156 -0.984375,-0.035156 -0.05859,0 -0.1875,0 -0.1875,0.1992188 0,0.1054687 0.08203,0.1171875 0.152344,0.1171875 0.269531,0.011719 0.457031,0.1171875 0.457031,0.328125 0,0.1523437 -0.140625,0.3632812 -0.140625,0.375 L 8.1093125,-0.92460937 7.429625,-6.1980469 c 0,-0.1640625 0.2226562,-0.2929687 0.6796875,-0.2929687 0.140625,0 0.2578125,0 0.2578125,-0.1992188 0,-0.09375 -0.082031,-0.1171875 -0.140625,-0.1171875 -0.3984375,0 -0.8320313,0.035156 -1.2421875,0.035156 -0.1757813,0 -0.3632813,-0.011719 -0.5390625,-0.011719 -0.1875,0 -0.375,-0.023437 -0.5390625,-0.023437 -0.070312,0 -0.1875,0 -0.1875,0.1992188 0,0.1171875 0.082031,0.1171875 0.2460937,0.1171875 0.5507813,0 0.5625,0.082031 0.5976563,0.3398437 l 0.7851562,6.14062503 c 0.035156,0.19921875 0.070312,0.234375 0.1992188,0.234375 0.1640625,0 0.1992187,-0.0585938 0.28125,-0.1875 z m 0,0"
       style="fill:#000000;fill-opacity:1;fill-rule:nonzero;stroke:none"
       aria-label="IV"
       transform="matrix(1.3333333,0,0,1.3333333,318.78133,158.6)" />
    <path
       id="path44"
       d="m 6.2591641,-5.6717109 c 0.4804687,-0.7734375 0.9023437,-0.8085938 1.2773437,-0.8203125 0.1171875,-0.011719 0.1289063,-0.1875 0.1289063,-0.1875 0,-0.082031 -0.058594,-0.1289063 -0.1289063,-0.1289063 -0.2578125,0 -0.5507812,0.035156 -0.8203125,0.035156 -0.328125,0 -0.6679687,-0.035156 -0.984375,-0.035156 -0.058594,0 -0.1875,0 -0.1875,0.1992188 0,0.1054687 0.082031,0.1171875 0.1523438,0.1171875 0.2695312,0.011719 0.4570312,0.1171875 0.4570312,0.328125 0,0.1523437 -0.140625,0.3632812 -0.140625,0.375 L 2.9544766,-0.92561719 2.2747891,-6.1990547 c 0,-0.1640625 0.2226562,-0.2929687 0.6796875,-0.2929687 0.140625,0 0.2578125,0 0.2578125,-0.1992188 0,-0.09375 -0.082031,-0.1171875 -0.140625,-0.1171875 -0.3984375,0 -0.8320313,0.035156 -1.2421875,0.035156 -0.1757813,0 -0.3632813,-0.011719 -0.5390625,-0.011719 -0.1875,0 -0.37500004,-0.023437 -0.53906254,-0.023437 -0.0703125,0 -0.1875,0 -0.1875,0.1992188 0,0.1171875 0.0820313,0.1171875 0.24609375,0.1171875 0.55078129,0 0.56249999,0.082031 0.59765629,0.3398437 l 0.7851562,6.14062501 c 0.035156,0.19921875 0.070312,0.234375 0.1992188,0.234375 0.1640625,0 0.1992187,-0.0585938 0.28125,-0.1875 z m 0,0"
       style="fill:#000000;fill-opacity:1;fill-rule:nonzero;stroke:none"
       aria-label="V"
       transform="matrix(1.3333333,0,0,1.3333333,274.97867,131.324)" />
    <path
       id="path45"
       d="m 6.2581094,-5.6707969 c 0.4804687,-0.7734375 0.9023437,-0.8085937 1.2773437,-0.8203125 0.1171875,-0.011719 0.1289063,-0.1875 0.1289063,-0.1875 0,-0.082031 -0.058594,-0.1289062 -0.1289063,-0.1289062 -0.2578125,0 -0.5507812,0.035156 -0.8203125,0.035156 -0.328125,0 -0.6679687,-0.035156 -0.984375,-0.035156 -0.058594,0 -0.1875,0 -0.1875,0.1992187 0,0.1054688 0.082031,0.1171875 0.1523438,0.1171875 0.2695312,0.011719 0.4570312,0.1171875 0.4570312,0.328125 0,0.1523438 -0.140625,0.3632813 -0.140625,0.375 L 2.9534219,-0.92470312 2.2737344,-6.1981406 c 0,-0.1640625 0.2226562,-0.2929688 0.6796875,-0.2929688 0.140625,0 0.2578125,0 0.2578125,-0.1992187 0,-0.09375 -0.082031,-0.1171875 -0.140625,-0.1171875 -0.3984375,0 -0.8320313,0.035156 -1.2421875,0.035156 -0.1757813,0 -0.3632813,-0.011719 -0.5390625,-0.011719 -0.1875,0 -0.37500002,-0.023437 -0.53906252,-0.023437 -0.0703125,0 -0.1875,0 -0.1875,0.1992187 0,0.1171875 0.0820313,0.1171875 0.24609375,0.1171875 0.55078127,0 0.56249997,0.082031 0.59765627,0.3398438 l 0.7851562,6.14062498 c 0.035156,0.19921875 0.070312,0.234375 0.1992188,0.234375 0.1640625,0 0.1992187,-0.0585938 0.28125,-0.1875 z m 5.4902346,-0.3632812 c 0.09375,-0.3632813 0.117187,-0.4570313 0.902344,-0.4570313 0.246093,0 0.316406,0 0.316406,-0.1875 0,-0.1289062 -0.105469,-0.1289062 -0.140625,-0.1289062 -0.292969,0 -1.03125,0.035156 -1.3125,0.035156 -0.304688,0 -1.03125,-0.035156 -1.335938,-0.035156 -0.05859,0 -0.1992185,0 -0.1992185,0.1992187 0,0.1171875 0.093751,0.1171875 0.2812505,0.1171875 0.421875,0 0.691406,0 0.691406,0.1875 0,0.046875 0,0.070312 -0.02344,0.1640625 l -1.347656,5.36718753 c -0.082031,0.36328125 -0.1171875,0.46875 -0.9023437,0.46875 -0.2226563,0 -0.3164063,0 -0.3164063,0.19921875 0,0.10546875 0.1171875,0.10546875 0.1523438,0.10546875 0.28125,0 1.0078125,-0.03515625 1.3007812,-0.03515625 0.304688,0 1.03125,0.03515625 1.335938,0.03515625 0.08203,0 0.199218,0 0.199218,-0.1875 0,-0.1171875 -0.08203,-0.1171875 -0.304687,-0.1171875 -0.175781,0 -0.222656,0 -0.421875,-0.0234375 -0.210938,-0.0234375 -0.246094,-0.0585938 -0.246094,-0.17578125 0,-0.0703125 0.01172,-0.15234375 0.03516,-0.22265625 z m 0,0"
       style="fill:#000000;fill-opacity:1;fill-rule:nonzero;stroke:none"
       aria-label="VI"
       transform="matrix(1.3333333,0,0,1.3333333,271.53867,76.772)" />
    <path
       id="path46"
       d="m 8.3089219,-2.2978906 c -0.5507813,0.421875 -0.8203125,0.8320312 -0.9023438,0.9609375 -0.4453125,0.69140623 -0.5273437,1.31249998 -0.5273437,1.32421873 0,0.1171875 0.1289062,0.1171875 0.1992187,0.1171875 0.1757813,0 0.1875,-0.01171875 0.2226563,-0.19921875 0.234375,-0.97265628 0.8203125,-1.80468748 1.9453125,-2.26171878 0.1171875,-0.046875 0.1523437,-0.070312 0.1523437,-0.140625 0,-0.058594 -0.070312,-0.09375 -0.082031,-0.1054687 -0.4453125,-0.1640625 -1.640625,-0.6679688 -2.0273438,-2.34375 -0.023437,-0.1171875 -0.035156,-0.140625 -0.2109375,-0.140625 -0.070312,0 -0.1992187,0 -0.1992187,0.1171875 0,0.023437 0.09375,0.6445312 0.515625,1.3125 0.1992187,0.3046875 0.4804687,0.6445312 0.9140625,0.9609375 H 0.90267188 c -0.17578125,0 -0.3515625,0 -0.3515625,0.1992187 0,0.1992188 0.17578125,0.1992188 0.3515625,0.1992188 z m 0,0"
       style="fill:#000000;fill-opacity:1;fill-rule:nonzero;stroke:none"
       aria-label="→"
       transform="matrix(1.3333333,0,0,1.3333333,188.648,101.94667)" />
    <path
       id="path47"
       d="m -99.21382,0 -35.4335,61.3728 h 70.867 z m 0,0 35.4335,61.3728 L -28.3468,0 Z m 0,0 H -28.3468 L -63.78032,-61.3728 -99.21382,0"
       style="fill:#fff766;fill-opacity:1;fill-rule:nonzero;stroke:#000000;stroke-width:0.3985;stroke-linecap:butt;stroke-linejoin:round;stroke-miterlimit:10;stroke-dasharray:none;stroke-opacity:1"
       transform="matrix(1.3333333,0,0,-1.3333333,195.28933,99.509333)" />
    <path
       id="path48"
       d="m -122.55501,24.47662 h 11.24889 v 12.41953 h -11.24889 z"
       style="fill:#ccccff;fill-opacity:1;fill-rule:nonzero;stroke:none"
       transform="matrix(1.3333333,0,0,-1.3333333,195.28933,99.509333)" />
    <path
       id="path49"
       d="m 0.937875,-3.0947656 c 0,0.1640625 0,0.2578125 0.1171875,0.2578125 0.070312,0 0.1054687,-0.035156 0.1523437,-0.1171875 0.2695313,-0.375 0.703125,-0.5859375 1.171875,-0.5859375 0.9609375,0 0.9609375,1.3828125 0.9609375,1.6992187 0,0.28125 0,0.8320313 -0.2578125,1.24218753 -0.234375,0.375 -0.6210937,0.5390625 -0.9609375,0.5390625 -0.5390625,0 -1.1367187,-0.328125 -1.3476562,-0.99609373 0.0117188,0 0.0585938,0.023437 0.1171875,0.023437 0.1875,0 0.4453125,-0.1171875 0.4453125,-0.4335938 0,-0.28125 -0.1992188,-0.4453125 -0.4453125,-0.4453125 -0.1875,0 -0.43359375,0.1054688 -0.43359375,0.46875 0,0.80859378 0.67968745,1.64062503 1.67578125,1.64062503 1.0898437,0 2.0039062,-0.87890625 2.0039062,-1.99218753 0,-1.0898437 -0.7617187,-1.96875 -1.7460937,-1.96875 -0.421875,0 -0.8671875,0.140625 -1.1835938,0.4570313 v -1.7578125 c 0.2695313,0.082031 0.5507813,0.1171875 0.8320313,0.1171875 1.1015625,0 1.7460937,-0.796875 1.7460937,-0.9140625 0,-0.070312 -0.058594,-0.1054688 -0.1054687,-0.1054688 -0.011719,0 -0.035156,0 -0.1171875,0.035156 -0.4101563,0.1757812 -0.8320313,0.2460937 -1.2070313,0.2460937 -0.3867187,0 -0.7851562,-0.070312 -1.1953125,-0.2460937 -0.09375,-0.035156 -0.1054687,-0.035156 -0.1171875,-0.035156 -0.1054687,0 -0.1054687,0.082031 -0.1054687,0.234375 z m 0,0"
       style="fill:#000000;fill-opacity:1;fill-rule:nonzero;stroke:none"
       aria-label="5"
       transform="matrix(1.3333333,0,0,1.3333333,36.312,62.446667)" />
    <path
       id="path50"
       d="m -104.83826,55.16302 h 11.24889 v 12.41953 h -11.24889 z"
       style="fill:#ccccff;fill-opacity:1;fill-rule:nonzero;stroke:none"
       transform="matrix(1.3333333,0,0,-1.3333333,195.28933,99.509333)" />
    <path
       id="path51"
       d="m 2.7296641,-5.7310313 c 0,-0.2226562 -0.011719,-0.234375 -0.234375,-0.234375 -0.5625,0.5625 -1.3828125,0.5625 -1.66406254,0.5625 v 0.28125 c 0.17578124,0 0.71484374,0 1.20703124,-0.234375 v 4.64062505 c 0,0.328125 -0.035156,0.43359375 -0.8671875,0.43359375 H 0.88982031 v 0.28125 C 1.2062266,-0.024 2.0031016,-0.024 2.3781016,-0.024 c 0.3632812,0 1.171875,0 1.4882812,0.0234375 v -0.28125 h -0.28125 c -0.8320312,0 -0.8554687,-0.10546875 -0.8554687,-0.43359375 z m 0,0"
       style="fill:#000000;fill-opacity:1;fill-rule:nonzero;stroke:none"
       aria-label="1"
       transform="matrix(1.3333333,0,0,1.3333333,59.934667,21.532)" />
    <path
       id="path52"
       d="m -87.1215,24.47662 h 11.24889 V 36.89615 H -87.1215 Z"
       style="fill:#ccccff;fill-opacity:1;fill-rule:nonzero;stroke:none"
       transform="matrix(1.3333333,0,0,-1.3333333,195.28933,99.509333)" />
    <path
       id="path53"
       d="m 1.2060469,-2.9658594 c 0,-0.9140625 0.09375,-1.4296875 0.3398437,-1.8984375 0.1757813,-0.3632812 0.609375,-0.8789062 1.2773438,-0.8789062 0.1757812,0 0.5859375,0.035156 0.796875,0.3515625 -0.328125,0 -0.46875,0.1757812 -0.46875,0.4101562 0,0.234375 0.1523437,0.421875 0.4101562,0.421875 0.2460938,0 0.421875,-0.1640625 0.421875,-0.4335937 0,-0.5039063 -0.3632812,-0.9726563 -1.1835937,-0.9726563 -1.1484375,0 -2.41406253,1.1367188 -2.41406253,3.1289063 0,2.43749998 1.08984373,3.03515623 1.93359373,3.03515623 0.9960938,0 1.8984375,-0.83203125 1.8984375,-2.01562503 0,-1.1367187 -0.8320312,-2.0039062 -1.8398437,-2.0039062 -0.5390625,0 -0.9257813,0.3164062 -1.171875,0.8554687 z m 1.1015625,2.90625003 c -0.5039063,0 -0.796875,-0.421875 -0.9140625,-0.6796875 C 1.2294844,-1.1377344 1.2177656,-1.8877344 1.2177656,-2.0283594 c 0,-0.5976562 0.28125,-1.5703125 1.1367188,-1.5703125 0.140625,0 0.5859375,0 0.8671875,0.5625 0.1757812,0.3398438 0.1757812,0.7734375 0.1757812,1.2070313 0,0.4335937 0,0.86718748 -0.1757812,1.19531248 -0.2695313,0.515625 -0.6679688,0.57421875 -0.9140625,0.57421875 z m 0,0"
       style="fill:#000000;fill-opacity:1;fill-rule:nonzero;stroke:none"
       aria-label="6"
       transform="matrix(1.3333333,0,0,1.3333333,83.556,62.446667)" />
    <path
       id="path54"
       d="m -51.688,24.47664 h 11.24889 V 36.89617 H -51.688 Z"
       style="fill:#ccccff;fill-opacity:1;fill-rule:nonzero;stroke:none"
       transform="matrix(1.3333333,0,0,-1.3333333,195.28933,99.509333)" />
    <path
       id="path55"
       d="M 4.1373047,-1.5830469 H 3.8912109 c -0.023437,0.1171875 -0.09375,0.64453128 -0.2109375,0.78515628 -0.046875,0.0820313 -0.6679687,0.0820313 -0.84375,0.0820313 h -1.59375 L 2.1216797,-1.5596094 c 1.4765625,-1.2773437 2.015625,-1.7460937 2.015625,-2.6601562 0,-1.03125 -0.84375,-1.7460938 -1.9453125,-1.7460938 -1.03125,0 -1.73437501,0.8085938 -1.73437501,1.6289063 0,0.4453125 0.38671875,0.4921875 0.46875,0.4921875 0.19921871,0 0.46875001,-0.140625 0.46875001,-0.46875 0,-0.2695313 -0.1875,-0.46875 -0.46875001,-0.46875 -0.046875,0 -0.0703125,0 -0.10546875,0.011719 0.21093746,-0.6328125 0.78515626,-0.9257812 1.26562496,-0.9257812 0.9140625,0 1.2304688,0.8554687 1.2304688,1.4765625 0,0.9140625 -0.6914063,1.6523437 -1.125,2.1210937 l -1.64062501,1.76953128 c -0.09375,0.10546875 -0.09375,0.1171875 -0.09375,0.328125 H 3.8912109 Z m 0,0"
       style="fill:#000000;fill-opacity:1;fill-rule:nonzero;stroke:none"
       aria-label="2"
       transform="matrix(1.3333333,0,0,1.3333333,130.8,62.446667)" />
    <path
       id="path56"
       d="m -69.40475,-6.20976 h 11.24889 V 6.20977 h -11.24889 z"
       style="fill:#ccccff;fill-opacity:1;fill-rule:nonzero;stroke:none"
       transform="matrix(1.3333333,0,0,-1.3333333,195.28933,99.509333)" />
    <path
       id="path57"
       d="m 4.3952969,-5.4711953 c 0.082031,-0.09375 0.082031,-0.1171875 0.082031,-0.3046875 h -2.238281 c -1.125,0 -1.1484375,-0.1171875 -1.1835938,-0.28125 H 0.80935937 l -0.29296875,1.875 h 0.24609375 c 0.0351563,-0.2109375 0.10546875,-0.7148438 0.22265625,-0.8203125 0.0703125,-0.046875 0.77343748,-0.046875 0.90234378,-0.046875 h 1.875 l -0.8554688,1.171875 c -1.171875,1.6054687 -1.2773437,3.05859374 -1.2773437,3.57421874 0,0.09375 0,0.50390625 0.4101562,0.50390625 0.421875,0 0.421875,-0.3984375 0.421875,-0.515625 v -0.43359375 c 0,-1.32421874 0.1992188,-2.35546874 0.6796875,-3.01171874 z m 0,0"
       style="fill:#000000;fill-opacity:1;fill-rule:nonzero;stroke:none"
       aria-label="7"
       transform="matrix(1.3333333,0,0,1.3333333,107.17867,103.36133)" />
    <path
       id="path58"
       d="m -51.68799,-36.89615 h 11.24889 v 12.41953 h -11.24889 z"
       style="fill:#ccccff;fill-opacity:1;fill-rule:nonzero;stroke:none"
       transform="matrix(1.3333333,0,0,-1.3333333,195.28933,99.509333)" />
    <path
       id="path59"
       d="m 2.7310547,-3.1513359 c 0.8320312,-0.3164063 1.2304687,-0.9726563 1.2304687,-1.59375 0,-0.6914063 -0.7617187,-1.21875 -1.6875,-1.21875 -0.9375,0 -1.64062496,0.5273437 -1.64062496,1.2070312 0,0.2929688 0.19921875,0.46875 0.45703126,0.46875 0.2695312,0 0.4570312,-0.1875 0.4570312,-0.4570312 0,-0.3046875 -0.2226562,-0.4453125 -0.5273437,-0.4453125 0.234375,-0.375 0.7851562,-0.5507813 1.21875,-0.5507813 0.75,0 0.890625,0.5859375 0.890625,1.0078125 0,0.2695313 -0.058594,0.703125 -0.28125,1.0429688 -0.2695313,0.3984375 -0.5859375,0.421875 -0.84375,0.4335937 -0.234375,0.023437 -0.2460938,0.023437 -0.3164063,0.023437 -0.082031,0.011719 -0.1523437,0.011719 -0.1523437,0.1171875 0,0.1171875 0.070312,0.1171875 0.2226562,0.1171875 h 0.421875 c 0.7734375,0 1.125,0.6210938 1.125,1.4765625 0,1.14843751 -0.6210937,1.46484376 -1.078125,1.46484376 -0.1640625,0 -1.03125,-0.03515625 -1.44140621,-0.703125 0.32812501,0.046875 0.57421871,-0.17578125 0.57421871,-0.48046876 0,-0.3046875 -0.2226562,-0.4921875 -0.48046871,-0.4921875 -0.22265625,0 -0.4921875,0.140625 -0.4921875,0.515625 0,0.79687501 0.83203121,1.41796876 1.87500001,1.41796876 1.1132812,0 1.9570312,-0.80859375 1.9570312,-1.72265626 0,-0.7851562 -0.6210937,-1.4414062 -1.4882812,-1.6289057 z m 0,0"
       style="fill:#000000;fill-opacity:1;fill-rule:nonzero;stroke:none"
       aria-label="3"
       transform="matrix(1.3333333,0,0,1.3333333,130.8,144.276)" />
    <path
       id="path60"
       d="m -87.1215,-36.89616 h 11.24889 v 12.41953 H -87.1215 Z"
       style="fill:#ccccff;fill-opacity:1;fill-rule:nonzero;stroke:none"
       transform="matrix(1.3333333,0,0,-1.3333333,195.28933,99.509333)" />
    <path
       id="path61"
       d="m 0.25682812,-1.7568047 v 0.28125 H 2.7060469 v 0.77343751 c 0,0.328125 -0.023437,0.421875 -0.703125,0.421875 h -0.1875 v 0.28125 c 0.5625,-0.0234375 1.1835937,-0.0234375 1.2539062,-0.0234375 0.035156,0 0.6914063,0 1.2539063,0.0234375 v -0.28125 H 4.1240156 c -0.6679687,0 -0.703125,-0.09375 -0.703125,-0.421875 V -1.4755547 h 0.9140625 v -0.28125 H 3.4208906 v -4.0664062 c 0,-0.1875 0,-0.2460938 -0.1640625,-0.2460938 -0.1054687,0 -0.1171875,0.011719 -0.1992187,0.140625 z m 0.29296875,0 2.21484373,-3.3164062 v 3.3164062 z m 0,0"
       style="fill:#000000;fill-opacity:1;fill-rule:nonzero;stroke:none"
       aria-label="4"
       transform="matrix(1.3333333,0,0,1.3333333,83.556,144.276)" />
    <path
       id="path62"
       d="m -132.65477,61.3728 c 0,1.10047 -0.89207,1.99256 -1.99255,1.99256 -1.10047,0 -1.99256,-0.89209 -1.99256,-1.99256 0,-1.10048 0.89209,-1.99255 1.99256,-1.99255 1.10048,0 1.99255,0.89207 1.99255,1.99255 z"
       style="fill:#0000ff;fill-opacity:1;fill-rule:nonzero;stroke:none"
       transform="matrix(1.3333333,0,0,-1.3333333,195.28933,99.509333)" />
    <path
       id="path63"
       d="m 2.9290234,-6.3737891 c 0,-0.234375 0,-0.2578125 -0.234375,-0.2578125 -0.609375,0.6328125 -1.4882812,0.6328125 -1.80468746,0.6328125 v 0.3164063 c 0.19921876,0 0.78515626,0 1.30078126,-0.2578125 v 5.15624999 c 0,0.3515625 -0.035156,0.48046875 -0.9257813,0.48046875 H 0.94855469 v 0.3046875 C 1.3001172,-0.03394531 2.1555859,-0.03394531 2.5540234,-0.03394531 c 0.3984375,0 1.265625,0 1.6171875,0.03515625 v -0.3046875 H 3.8548047 c -0.9023438,0 -0.9257813,-0.1171875 -0.9257813,-0.48046875 z m 0,0"
       style="fill:#0000ff;fill-opacity:1;fill-rule:nonzero;stroke:none"
       aria-label="1"
       transform="matrix(1.3333333,0,0,1.3333333,4.4266667,12.986667)" />
    <path
       id="path64"
       d="m -61.78777,61.3728 c 0,1.10047 -0.89207,1.99256 -1.99255,1.99256 -1.10046,0 -1.99255,-0.89209 -1.99255,-1.99256 0,-1.10048 0.89209,-1.99255 1.99255,-1.99255 1.10048,0 1.99255,0.89207 1.99255,1.99255 z"
       style="fill:#0000ff;fill-opacity:1;fill-rule:nonzero;stroke:none"
       transform="matrix(1.3333333,0,0,-1.3333333,195.28933,99.509333)" />
    <path
       id="path65"
       d="M 1.2646797,-0.76050781 2.3193672,-1.7917578 c 1.5585937,-1.3710938 2.15625,-1.9101563 2.15625,-2.90625 0,-1.1367188 -0.9023438,-1.9335938 -2.1210938,-1.9335938 -1.125,0 -1.85156246,0.9140625 -1.85156246,1.8046875 0,0.5507813 0.4921875,0.5507813 0.52734376,0.5507813 0.1640625,0 0.515625,-0.1171875 0.515625,-0.5273438 0,-0.2578125 -0.1875,-0.515625 -0.5273438,-0.515625 -0.0820312,0 -0.10546871,0 -0.12890621,0.011719 0.22265621,-0.6445313 0.76171871,-1.0195313 1.33593751,-1.0195313 0.9140625,0 1.3359375,0.8085938 1.3359375,1.6289063 0,0.796875 -0.4921875,1.5820312 -1.0429688,2.203125 L 0.60842969,-0.36207031 C 0.50296094,-0.25660156 0.50296094,-0.23316406 0.50296094,0.00121094 H 4.1943672 l 0.28125,-1.73437504 H 4.2178047 c -0.046875,0.3046875 -0.1171875,0.73828129 -0.2109375,0.89062504 -0.070313,0.0820313 -0.7265625,0.0820313 -0.9492188,0.0820313 z m 0,0"
       style="fill:#0000ff;fill-opacity:1;fill-rule:nonzero;stroke:none"
       aria-label="2"
       transform="matrix(1.3333333,0,0,1.3333333,114.94267,12.986667)" />
    <path
       id="path66"
       d="m -26.35425,0 c 0,1.10046 -0.89209,1.99255 -1.99255,1.99255 -1.10048,0 -1.99256,-0.89209 -1.99256,-1.99255 0,-1.10046 0.89208,-1.99255 1.99256,-1.99255 1.10046,0 1.99255,0.89209 1.99255,1.99255 z"
       style="fill:#0000ff;fill-opacity:1;fill-rule:nonzero;stroke:none"
       transform="matrix(1.3333333,0,0,-1.3333333,195.28933,99.509333)" />
    <path
       id="path67"
       d="m 2.8951562,-3.5041094 c 0.8085938,-0.2695312 1.3945313,-0.9726562 1.3945313,-1.7578125 0,-0.8203125 -0.8789063,-1.3710937 -1.8398438,-1.3710937 -1.0078125,0 -1.75781245,0.5976562 -1.75781245,1.3476562 0,0.3398438 0.2109375,0.5273438 0.50390625,0.5273438 0.3046875,0 0.5039062,-0.2226563 0.5039062,-0.515625 0,-0.4921875 -0.46875,-0.4921875 -0.609375,-0.4921875 0.3046875,-0.4921875 0.9609375,-0.6210938 1.3242188,-0.6210938 0.4101562,0 0.9492187,0.2226563 0.9492187,1.1132813 0,0.1289062 -0.011719,0.703125 -0.2695312,1.1367187 -0.3046875,0.4804688 -0.6445313,0.515625 -0.890625,0.515625 -0.082031,0.011719 -0.3164063,0.035156 -0.3867188,0.035156 -0.082031,0.011719 -0.1523437,0.023437 -0.1523437,0.1171875 0,0.1171875 0.070312,0.1171875 0.234375,0.1171875 H 2.344375 c 0.8085937,0 1.1835937,0.6679687 1.1835937,1.6523437 0,1.34765628 -0.6914062,1.64062503 -1.125,1.64062503 -0.4335937,0 -1.171875,-0.17578125 -1.52343745,-0.76171875 0.35156245,0.0585938 0.65624995,-0.1640625 0.65624995,-0.53906248 0,-0.3632813 -0.2695312,-0.5625 -0.56249995,-0.5625 -0.234375,0 -0.55078125,0.140625 -0.55078125,0.5742187 0,0.91406253 0.9257812,1.57031253 2.0039062,1.57031253 1.21875,0 2.1210938,-0.9140625 2.1210938,-1.92187503 0,-0.8203125 -0.6210938,-1.59375 -1.6523438,-1.8046872 z m 0,0"
       style="fill:#0000ff;fill-opacity:1;fill-rule:nonzero;stroke:none"
       aria-label="3"
       transform="matrix(1.3333333,0,0,1.3333333,162.18667,103.78933)" />
    <path
       id="path68"
       d="m -61.78777,-61.3728 c 0,1.10048 -0.89207,1.99255 -1.99255,1.99255 -1.10046,0 -1.99255,-0.89207 -1.99255,-1.99255 0,-1.10047 0.89209,-1.99256 1.99255,-1.99256 1.10048,0 1.99255,0.89209 1.99255,1.99256 z"
       style="fill:#0000ff;fill-opacity:1;fill-rule:nonzero;stroke:none"
       transform="matrix(1.3333333,0,0,-1.3333333,195.28933,99.509333)" />
    <path
       id="path69"
       d="m 2.9287422,-1.6393125 v 0.8671875 c 0,0.3515625 -0.023437,0.46875 -0.7617188,0.46875 H 1.9560859 v 0.3046875 c 0.4101563,-0.03515625 0.9375,-0.03515625 1.3476563,-0.03515625 0.421875,0 0.9492187,0 1.359375,0.03515625 V -0.303375 H 4.4521797 c -0.7382813,0 -0.7617188,-0.1171875 -0.7617188,-0.46875 V -1.6393125 H 4.6865547 V -1.9557187 H 3.6904609 v -4.5234375 c 0,-0.1992188 0,-0.2578125 -0.1523437,-0.2578125 -0.09375,0 -0.1171875,0 -0.1992188,0.1171875 l -3.05859371,4.6640625 v 0.3164062 z m 0.058594,-0.3164062 H 0.56155469 L 2.9873359,-5.6705625 Z m 0,0"
       style="fill:#0000ff;fill-opacity:1;fill-rule:nonzero;stroke:none"
       aria-label="4"
       transform="matrix(1.3333333,0,0,1.3333333,114.94267,194.592)" />
    <path
       id="path70"
       d="m -97.22127,0 c 0,1.10046 -0.89207,1.99255 -1.99255,1.99255 -1.10047,0 -1.99256,-0.89209 -1.99256,-1.99255 0,-1.10046 0.89209,-1.99255 1.99256,-1.99255 1.10048,0 1.99255,0.89209 1.99255,1.99255 z"
       style="fill:#0000ff;fill-opacity:1;fill-rule:nonzero;stroke:none"
       transform="matrix(1.3333333,0,0,-1.3333333,195.28933,99.509333)" />
    <path
       id="path71"
       d="m 4.4774688,-2.0046172 c 0,-1.1835937 -0.8203125,-2.1796875 -1.8984375,-2.1796875 -0.4804688,0 -0.9023438,0.1640625 -1.265625,0.5039063 v -1.9335938 c 0.1992187,0.058594 0.5273437,0.1289063 0.84375,0.1289063 1.2304687,0 1.9335937,-0.9140625 1.9335937,-1.0429688 0,-0.058594 -0.035156,-0.1054687 -0.1054687,-0.1054687 -0.011719,0 -0.035156,0 -0.082031,0.023437 -0.1992187,0.09375 -0.6796875,0.2929687 -1.3476562,0.2929687 -0.3984375,0 -0.8554688,-0.070312 -1.3242188,-0.28125 -0.082031,-0.023437 -0.1054687,-0.023437 -0.1289062,-0.023437 -0.09375,0 -0.09375,0.082031 -0.09375,0.234375 v 2.953125 c 0,0.1757813 0,0.2578125 0.140625,0.2578125 0.070312,0 0.082031,-0.035156 0.1289062,-0.09375 0.1054688,-0.1523437 0.4804688,-0.6914062 1.2773438,-0.6914062 0.5273437,0 0.7734375,0.4570312 0.8554687,0.6328125 0.1523438,0.375 0.1757813,0.7617187 0.1757813,1.2539062 0,0.3515625 0,0.9492188 -0.234375,1.37109376 -0.2460938,0.38671875 -0.609375,0.64453125 -1.0664063,0.64453125 -0.7265625,0 -1.30078125,-0.52734375 -1.46484375,-1.11328121 0.0234375,0.011719 0.0585938,0.011719 0.1640625,0.011719 0.32812505,0 0.50390625,-0.2460937 0.50390625,-0.4804687 0,-0.2460938 -0.1757812,-0.4921875 -0.50390625,-0.4921875 -0.140625,0 -0.48046875,0.070312 -0.48046875,0.5273437 0,0.85546876 0.6796875,1.82812501 1.7929688,1.82812501 1.1601562,0 2.1796875,-0.9609375 2.1796872,-2.22656281 z m 0,0"
       style="fill:#0000ff;fill-opacity:1;fill-rule:nonzero;stroke:none"
       aria-label="5"
       transform="matrix(1.3333333,0,0,1.3333333,51.670667,112.76267)" />
    <path
       id="path72"
       d="m 3.7273672,-6.0350859 c 0.09375,-0.3632813 0.1171875,-0.4570313 0.9023437,-0.4570313 0.2460938,0 0.3164063,0 0.3164063,-0.1875 0,-0.1289062 -0.1054688,-0.1289062 -0.140625,-0.1289062 -0.2929688,0 -1.03125,0.035156 -1.3125,0.035156 -0.3046875,0 -1.03125,-0.035156 -1.3359375,-0.035156 -0.058594,0 -0.1992188,0 -0.1992188,0.1992187 0,0.1171875 0.09375,0.1171875 0.28125,0.1171875 0.421875,0 0.6914063,0 0.6914063,0.1875 0,0.046875 0,0.070312 -0.023437,0.1640625 l -1.3476563,5.36718751 c -0.082031,0.36328125 -0.1171875,0.46875 -0.90234371,0.46875 -0.22265625,0 -0.31640625,0 -0.31640625,0.19921875 0,0.1054687525 0.1171875,0.1054687525 0.15234375,0.1054687525 0.28125,0 1.00781251,-0.0351562525 1.30078121,-0.0351562525 0.3046875,0 1.03125,0.0351562525 1.3359375,0.0351562525 0.082031,0 0.1992188,0 0.1992188,-0.1875000025 0,-0.1171875 -0.082031,-0.1171875 -0.3046875,-0.1171875 -0.1757813,0 -0.2226563,0 -0.421875,-0.0234375 -0.2109375,-0.0234375 -0.2460938,-0.0585938 -0.2460938,-0.17578125 0,-0.0703125 0.011719,-0.15234375 0.035156,-0.22265625 z m 0,0"
       style="fill:#000000;fill-opacity:1;fill-rule:nonzero;stroke:none"
       aria-label="I"
       transform="matrix(1.3333333,0,0,1.3333333,59.565333,49.496)" />
    <path
       id="path73"
       d="m 3.7259531,-6.0340781 c 0.09375,-0.3632813 0.1171875,-0.4570313 0.9023438,-0.4570313 0.2460937,0 0.3164062,0 0.3164062,-0.1875 0,-0.1289062 -0.1054687,-0.1289062 -0.140625,-0.1289062 -0.2929687,0 -1.03125,0.035156 -1.3125,0.035156 -0.3046875,0 -1.03125,-0.035156 -1.3359375,-0.035156 -0.058594,0 -0.1992187,0 -0.1992187,0.1992187 0,0.1171875 0.09375,0.1171875 0.28125,0.1171875 0.421875,0 0.6914062,0 0.6914062,0.1875 0,0.046875 0,0.070312 -0.023437,0.1640625 l -1.3476562,5.36718753 c -0.082031,0.36328125 -0.1171875,0.46875 -0.90234377,0.46875 -0.22265625,0 -0.31640625,0 -0.31640625,0.19921875 0,0.10546875 0.1171875,0.10546875 0.15234375,0.10546875 0.28125,0 1.00781247,-0.03515625 1.30078127,-0.03515625 0.3046875,0 1.03125,0.03515625 1.3359375,0.03515625 0.082031,0 0.1992187,0 0.1992187,-0.1875 0,-0.1171875 -0.082031,-0.1171875 -0.3046875,-0.1171875 -0.1757812,0 -0.2226562,0 -0.421875,-0.0234375 -0.2109375,-0.0234375 -0.2460937,-0.0585938 -0.2460937,-0.17578125 0,-0.0703125 0.011719,-0.15234375 0.035156,-0.22265625 z m 5.15625,0 c 0.09375,-0.3632813 0.1171875,-0.4570313 0.9023438,-0.4570313 0.2460941,0 0.3164061,0 0.3164061,-0.1875 0,-0.1289062 -0.1054686,-0.1289062 -0.1406249,-0.1289062 -0.2929687,0 -1.03125,0.035156 -1.3125,0.035156 -0.3046875,0 -1.03125,-0.035156 -1.3359375,-0.035156 -0.058594,0 -0.1992187,0 -0.1992187,0.1992187 0,0.1171875 0.09375,0.1171875 0.28125,0.1171875 0.421875,0 0.6914062,0 0.6914062,0.1875 0,0.046875 0,0.070312 -0.023437,0.1640625 l -1.3476562,5.36718753 c -0.082031,0.36328125 -0.1171875,0.46875 -0.9023438,0.46875 -0.2226562,0 -0.3164062,0 -0.3164062,0.19921875 0,0.10546875 0.1171875,0.10546875 0.1523437,0.10546875 0.28125,0 1.0078125,-0.03515625 1.3007813,-0.03515625 0.3046875,0 1.03125,0.03515625 1.3359375,0.03515625 0.082031,0 0.1992187,0 0.1992187,-0.1875 0,-0.1171875 -0.082031,-0.1171875 -0.3046875,-0.1171875 -0.1757812,0 -0.2226562,0 -0.421875,-0.0234375 -0.2109375,-0.0234375 -0.2460937,-0.0585938 -0.2460937,-0.17578125 0,-0.0703125 0.011719,-0.15234375 0.035156,-0.22265625 z m 0,0"
       style="fill:#000000;fill-opacity:1;fill-rule:nonzero;stroke:none"
       aria-label="II"
       transform="matrix(1.3333333,0,0,1.3333333,103.368,76.772)" />
    <path
       id="path74"
       d="m 3.7258984,-6.0349922 c 0.09375,-0.3632812 0.1171875,-0.4570312 0.9023438,-0.4570312 0.2460937,0 0.3164062,0 0.3164062,-0.1875 0,-0.1289063 -0.1054687,-0.1289063 -0.140625,-0.1289063 -0.2929687,0 -1.03125,0.035156 -1.3125,0.035156 -0.3046875,0 -1.03125,-0.035156 -1.3359375,-0.035156 -0.058594,0 -0.1992187,0 -0.1992187,0.1992188 0,0.1171875 0.09375,0.1171875 0.28125,0.1171875 0.421875,0 0.6914062,0 0.6914062,0.1875 0,0.046875 0,0.070312 -0.023437,0.1640625 l -1.3476562,5.36718746 c -0.082031,0.36328125 -0.1171875,0.46875 -0.90234376,0.46875 -0.22265625,0 -0.31640625,0 -0.31640625,0.19921875 0,0.1054687525 0.1171875,0.1054687525 0.15234375,0.1054687525 0.28125,0 1.00781246,-0.0351562525 1.30078126,-0.0351562525 0.3046875,0 1.03125,0.0351562525 1.3359375,0.0351562525 0.082031,0 0.1992187,0 0.1992187,-0.1875000025 0,-0.1171875 -0.082031,-0.1171875 -0.3046875,-0.1171875 -0.1757812,0 -0.2226562,0 -0.421875,-0.0234375 -0.2109375,-0.0234375 -0.2460937,-0.0585938 -0.2460937,-0.17578125 0,-0.0703125 0.011719,-0.15234375 0.035156,-0.22265625 z m 5.15625,0 c 0.09375,-0.3632812 0.1171875,-0.4570312 0.9023438,-0.4570312 0.2460938,0 0.3164058,0 0.3164058,-0.1875 0,-0.1289063 -0.1054683,-0.1289063 -0.1406246,-0.1289063 -0.2929687,0 -1.03125,0.035156 -1.3125,0.035156 -0.3046875,0 -1.03125,-0.035156 -1.3359375,-0.035156 -0.058594,0 -0.1992187,0 -0.1992187,0.1992188 0,0.1171875 0.09375,0.1171875 0.28125,0.1171875 0.421875,0 0.6914062,0 0.6914062,0.1875 0,0.046875 0,0.070312 -0.023437,0.1640625 l -1.3476562,5.36718746 c -0.082031,0.36328125 -0.1171875,0.46875 -0.9023438,0.46875 -0.2226562,0 -0.3164062,0 -0.3164062,0.19921875 0,0.1054687525 0.1171875,0.1054687525 0.1523437,0.1054687525 0.28125,0 1.0078125,-0.0351562525 1.3007813,-0.0351562525 0.3046875,0 1.03125,0.0351562525 1.3359375,0.0351562525 0.082031,0 0.1992187,0 0.1992187,-0.1875000025 0,-0.1171875 -0.082031,-0.1171875 -0.3046875,-0.1171875 -0.1757812,0 -0.2226562,0 -0.421875,-0.0234375 -0.2109375,-0.0234375 -0.2460937,-0.0585938 -0.2460937,-0.17578125 0,-0.0703125 0.011719,-0.15234375 0.035156,-0.22265625 z m 5.1679686,0 c 0.09375,-0.3632812 0.117188,-0.4570312 0.902344,-0.4570312 0.246094,0 0.316406,0 0.316406,-0.1875 0,-0.1289063 -0.105469,-0.1289063 -0.140625,-0.1289063 -0.292969,0 -1.03125,0.035156 -1.3125,0.035156 -0.304687,0 -1.03125,-0.035156 -1.335937,-0.035156 -0.05859,0 -0.199219,0 -0.199219,0.1992188 0,0.1171875 0.09375,0.1171875 0.28125,0.1171875 0.421875,0 0.691406,0 0.691406,0.1875 0,0.046875 0,0.070312 -0.02344,0.1640625 l -1.347657,5.36718746 c -0.08203,0.36328125 -0.117187,0.46875 -0.902343,0.46875 -0.222657,0 -0.316407,0 -0.316407,0.19921875 0,0.1054687525 0.117188,0.1054687525 0.152344,0.1054687525 0.28125,0 1.007813,-0.0351562525 1.300781,-0.0351562525 0.304688,0 1.03125,0.0351562525 1.335938,0.0351562525 0.08203,0 0.199219,0 0.199219,-0.1875000025 0,-0.1171875 -0.08203,-0.1171875 -0.304688,-0.1171875 -0.175781,0 -0.222656,0 -0.421875,-0.0234375 -0.210937,-0.0234375 -0.246094,-0.0585938 -0.246094,-0.17578125 0,-0.0703125 0.01172,-0.15234375 0.03516,-0.22265625 z m 0,0"
       style="fill:#000000;fill-opacity:1;fill-rule:nonzero;stroke:none"
       aria-label="III"
       transform="matrix(1.3333333,0,0,1.3333333,99.926667,131.324)" />
  </g>
</svg>
