<?xml version="1.0" encoding="UTF-8" standalone="no"?>
<svg
   xmlns:dc="http://purl.org/dc/elements/1.1/"
   xmlns:cc="http://creativecommons.org/ns#"
   xmlns:rdf="http://www.w3.org/1999/02/22-rdf-syntax-ns#"
   xmlns:svg="http://www.w3.org/2000/svg"
   xmlns="http://www.w3.org/2000/svg"
   viewBox="0 0 445.09332 79.87867"
   height="79.87867"
   width="445.09332"
   xml:space="preserve"
   id="svg2"
   version="1.1"><metadata
     id="metadata8"><rdf:RDF><cc:Work
         rdf:about=""><dc:format>image/svg+xml</dc:format><dc:type
           rdf:resource="http://purl.org/dc/dcmitype/StillImage" /></cc:Work></rdf:RDF></metadata><defs
     id="defs6" /><g
     transform="matrix(1.3333333,0,0,-1.3333333,0,79.878667)"
     id="g10"><g
       transform="translate(33.851,1.608)"
       id="g12"><g
         id="g14"><g
           id="g16"><g
             id="g18" /><g
             id="g20" /><g
             id="g22" /><g
             id="g24" /><path
             id="path26"
             style="fill:none;stroke:#000000;stroke-width:0.3985;stroke-linecap:butt;stroke-linejoin:miter;stroke-miterlimit:10;stroke-dasharray:none;stroke-opacity:1"
             d="M 0,56.69362 V 0" /><path
             id="path28"
             style="fill:none;stroke:#000000;stroke-width:0.3985;stroke-linecap:butt;stroke-linejoin:miter;stroke-miterlimit:10;stroke-dasharray:none;stroke-opacity:1"
             d="M 56.69362,56.69362 V 0" /><g
             id="g30"><g
               id="g32"><path
                 id="path34"
                 style="fill:#ffffff;fill-opacity:1;fill-rule:nonzero;stroke:#000000;stroke-width:0.3985;stroke-linecap:butt;stroke-linejoin:miter;stroke-miterlimit:10;stroke-dasharray:none;stroke-opacity:1"
                 d="m 1.40903,56.69362 c 0,0.77818 -0.63085,1.40903 -1.40903,1.40903 -0.77818,0 -1.40903,-0.63085 -1.40903,-1.40903 0,-0.7782 0.63085,-1.40904 1.40903,-1.40904 0.77818,0 1.40903,0.63084 1.40903,1.40904 z" /></g><g
               transform="translate(0,56.693)"
               id="g36"><g
                 id="g38" /><g
                 transform="translate(0,-56.693)"
                 id="g40" /></g></g><g
             id="g42"><g
               id="g44"><path
                 id="path46"
                 style="fill:#ffffff;fill-opacity:1;fill-rule:nonzero;stroke:#000000;stroke-width:0.3985;stroke-linecap:butt;stroke-linejoin:miter;stroke-miterlimit:10;stroke-dasharray:none;stroke-opacity:1"
                 d="m 58.10265,56.69362 c 0,0.77818 -0.63085,1.40903 -1.40903,1.40903 -0.7782,0 -1.40904,-0.63085 -1.40904,-1.40903 0,-0.7782 0.63084,-1.40904 1.40904,-1.40904 0.77818,0 1.40903,0.63084 1.40903,1.40904 z" /></g><g
               transform="translate(56.693,56.693)"
               id="g48"><g
                 id="g50" /><g
                 transform="translate(-56.693,-56.693)"
                 id="g52" /></g></g><g
             id="g54"><g
               id="g56"><path
                 id="path58"
                 style="fill:#ffffff;fill-opacity:1;fill-rule:nonzero;stroke:#000000;stroke-width:0.3985;stroke-linecap:butt;stroke-linejoin:miter;stroke-miterlimit:10;stroke-dasharray:none;stroke-opacity:1"
                 d="M 1.40903,0 C 1.40903,0.77818 0.77818,1.40903 0,1.40903 -0.77818,1.40903 -1.40903,0.77818 -1.40903,0 c 0,-0.77818 0.63085,-1.40903 1.40903,-1.40903 0.77818,0 1.40903,0.63085 1.40903,1.40903 z" /></g><g
               id="g60"><g
                 id="g62" /></g></g><g
             id="g64"><g
               id="g66"><path
                 id="path68"
                 style="fill:#ffffff;fill-opacity:1;fill-rule:nonzero;stroke:#000000;stroke-width:0.3985;stroke-linecap:butt;stroke-linejoin:miter;stroke-miterlimit:10;stroke-dasharray:none;stroke-opacity:1"
                 d="m 58.10265,0 c 0,0.77818 -0.63085,1.40903 -1.40903,1.40903 -0.7782,0 -1.40904,-0.63085 -1.40904,-1.40903 0,-0.77818 0.63084,-1.40903 1.40904,-1.40903 0.77818,0 1.40903,0.63085 1.40903,1.40903 z" /></g><g
               transform="translate(56.693)"
               id="g70"><g
                 id="g72" /><g
                 transform="translate(-56.693)"
                 id="g74" /></g></g><g
             id="g76"><path
               id="path78"
               style="fill:none;stroke:#000000;stroke-width:0.79701;stroke-linecap:butt;stroke-linejoin:miter;stroke-miterlimit:10;stroke-dasharray:none;stroke-opacity:1"
               d="M 96.37895,28.34679 H 197.72028" /><g
               transform="translate(197.72028,28.34679)"
               id="g80"><g
                 id="g82"><path
                   id="path84"
                   style="fill:none;stroke:#000000;stroke-width:0.6376;stroke-linecap:round;stroke-linejoin:round;stroke-miterlimit:10;stroke-dasharray:none;stroke-opacity:1"
                   d="M -1.55415,2.0722 C -1.42464,1.29512 0,0.1295 0.38852,0 0,-0.1295 -1.42464,-1.29512 -1.55415,-2.0722" /></g></g></g><g
             id="g86" /><g
             id="g88" /><g
             id="g90" /><g
             id="g92" /><g
             id="g94" /><g
             id="g96" /><path
             id="path98"
             style="fill:none;stroke:#000000;stroke-width:0.3985;stroke-linecap:butt;stroke-linejoin:miter;stroke-miterlimit:10;stroke-dasharray:none;stroke-opacity:1"
             d="M 226.77448,56.69362 V 0" /><path
             id="path100"
             style="fill:none;stroke:#000000;stroke-width:0.3985;stroke-linecap:butt;stroke-linejoin:miter;stroke-miterlimit:10;stroke-dasharray:none;stroke-opacity:1"
             d="M 283.4681,56.69362 V 0" /><g
             id="g102"><path
               id="path104"
               style="fill:none;stroke:#ff0000;stroke-width:1.59404004;stroke-linecap:butt;stroke-linejoin:miter;stroke-miterlimit:10;stroke-dasharray:none;stroke-opacity:1"
               d="M 226.77448,28.34679 H 283.4681" /></g><g
             id="g106"><g
               id="g108"><path
                 id="path110"
                 style="fill:#ffffff;fill-opacity:1;fill-rule:nonzero;stroke:#000000;stroke-width:0.3985;stroke-linecap:butt;stroke-linejoin:miter;stroke-miterlimit:10;stroke-dasharray:none;stroke-opacity:1"
                 d="m 228.18352,28.34679 c 0,0.77818 -0.63086,1.40904 -1.40904,1.40904 -0.7782,0 -1.40905,-0.63086 -1.40905,-1.40904 0,-0.77819 0.63085,-1.40905 1.40905,-1.40905 0.77818,0 1.40904,0.63086 1.40904,1.40905 z" /></g><g
               transform="translate(226.771,28.347)"
               id="g112"><g
                 id="g114" /><g
                 transform="translate(-226.771,-28.347)"
                 id="g116" /></g></g><g
             id="g118"><g
               transform="translate(214.171,24.943)"
               id="g120"><g
                 id="g122"><g
                   transform="translate(-248.022,-26.551)"
                   id="g124"><text
                     id="text128"
                     style="font-variant:normal;font-weight:normal;font-size:9.96259975px;font-family:CMMI10;-inkscape-font-specification:CMMI10;writing-mode:lr-tb;fill:#000000;fill-opacity:1;fill-rule:nonzero;stroke:none"
                     transform="matrix(1,0,0,-1,248.022,26.551)"><tspan
                       id="tspan126"
                       y="0"
                       x="0">A</tspan></text>
<g
                     transform="translate(248.022,26.551)"
                     id="g130" /></g></g><g
                 transform="translate(-214.171,-24.943)"
                 id="g132" /></g></g><g
             id="g134"><g
               id="g136"><path
                 id="path138"
                 style="fill:#ffffff;fill-opacity:1;fill-rule:nonzero;stroke:#000000;stroke-width:0.3985;stroke-linecap:butt;stroke-linejoin:miter;stroke-miterlimit:10;stroke-dasharray:none;stroke-opacity:1"
                 d="m 284.87714,28.34679 c 0,0.77818 -0.63086,1.40904 -1.40904,1.40904 -0.7782,0 -1.40905,-0.63086 -1.40905,-1.40904 0,-0.77819 0.63085,-1.40905 1.40905,-1.40905 0.77818,0 1.40904,0.63086 1.40904,1.40905 z" /></g><g
               transform="translate(283.464,28.347)"
               id="g140"><g
                 id="g142" /><g
                 transform="translate(-283.464,-28.347)"
                 id="g144" /></g></g><g
             id="g146"><g
               transform="translate(288.592,24.943)"
               id="g148"><g
                 id="g150"><g
                   transform="translate(-322.443,-26.551)"
                   id="g152"><text
                     id="text156"
                     style="font-variant:normal;font-weight:normal;font-size:9.96259975px;font-family:CMMI10;-inkscape-font-specification:CMMI10;writing-mode:lr-tb;fill:#000000;fill-opacity:1;fill-rule:nonzero;stroke:none"
                     transform="matrix(1,0,0,-1,322.443,26.551)"><tspan
                       id="tspan154"
                       y="0"
                       x="0">B</tspan></text>
<g
                     transform="translate(322.443,26.551)"
                     id="g158" /></g></g><g
                 transform="translate(-288.592,-24.943)"
                 id="g160" /></g></g><g
             id="g162"><g
               id="g164"><path
                 id="path166"
                 style="fill:#ffffff;fill-opacity:1;fill-rule:nonzero;stroke:#000000;stroke-width:0.3985;stroke-linecap:butt;stroke-linejoin:miter;stroke-miterlimit:10;stroke-dasharray:none;stroke-opacity:1"
                 d="m 228.18352,56.69362 c 0,0.77818 -0.63086,1.40903 -1.40904,1.40903 -0.7782,0 -1.40905,-0.63085 -1.40905,-1.40903 0,-0.7782 0.63085,-1.40904 1.40905,-1.40904 0.77818,0 1.40904,0.63084 1.40904,1.40904 z" /></g><g
               transform="translate(226.771,56.693)"
               id="g168"><g
                 id="g170" /><g
                 transform="translate(-226.771,-56.693)"
                 id="g172" /></g></g><g
             id="g174"><g
               id="g176"><path
                 id="path178"
                 style="fill:#ffffff;fill-opacity:1;fill-rule:nonzero;stroke:#000000;stroke-width:0.3985;stroke-linecap:butt;stroke-linejoin:miter;stroke-miterlimit:10;stroke-dasharray:none;stroke-opacity:1"
                 d="m 284.87714,56.69362 c 0,0.77818 -0.63086,1.40903 -1.40904,1.40903 -0.7782,0 -1.40905,-0.63085 -1.40905,-1.40903 0,-0.7782 0.63085,-1.40904 1.40905,-1.40904 0.77818,0 1.40904,0.63084 1.40904,1.40904 z" /></g><g
               transform="translate(283.464,56.693)"
               id="g180"><g
                 id="g182" /><g
                 transform="translate(-283.464,-56.693)"
                 id="g184" /></g></g><g
             id="g186"><g
               id="g188"><path
                 id="path190"
                 style="fill:#ffffff;fill-opacity:1;fill-rule:nonzero;stroke:#000000;stroke-width:0.3985;stroke-linecap:butt;stroke-linejoin:miter;stroke-miterlimit:10;stroke-dasharray:none;stroke-opacity:1"
                 d="m 228.18352,0 c 0,0.77818 -0.63086,1.40903 -1.40904,1.40903 -0.7782,0 -1.40905,-0.63085 -1.40905,-1.40903 0,-0.77818 0.63085,-1.40903 1.40905,-1.40903 0.77818,0 1.40904,0.63085 1.40904,1.40903 z" /></g><g
               transform="translate(226.771)"
               id="g192"><g
                 id="g194" /><g
                 transform="translate(-226.771)"
                 id="g196" /></g></g><g
             id="g198"><g
               id="g200"><path
                 id="path202"
                 style="fill:#ffffff;fill-opacity:1;fill-rule:nonzero;stroke:#000000;stroke-width:0.3985;stroke-linecap:butt;stroke-linejoin:miter;stroke-miterlimit:10;stroke-dasharray:none;stroke-opacity:1"
                 d="m 284.87714,0 c 0,0.77818 -0.63086,1.40903 -1.40904,1.40903 -0.7782,0 -1.40905,-0.63085 -1.40905,-1.40903 0,-0.77818 0.63085,-1.40903 1.40905,-1.40903 0.77818,0 1.40904,0.63085 1.40904,1.40903 z" /></g><g
               transform="translate(283.464)"
               id="g204"><g
                 id="g206" /><g
                 transform="translate(-283.464)"
                 id="g208" /></g></g><g
             id="g210"><g
               transform="translate(-30.53,25.856)"
               id="g212"><g
                 id="g214"><g
                   transform="translate(-3.321,-27.464)"
                   id="g216"><text
                     id="text220"
                     style="font-variant:normal;font-weight:normal;font-size:9.96259975px;font-family:CMMI10;-inkscape-font-specification:CMMI10;writing-mode:lr-tb;fill:#000000;fill-opacity:1;fill-rule:nonzero;stroke:none"
                     transform="matrix(1,0,0,-1,3.321,27.464)"><tspan
                       id="tspan218"
                       y="0"
                       x="0 4.6385865 9.8241196 14.934934 19.573521">edgeA</tspan></text>
<g
                     transform="translate(3.321,27.464)"
                     id="g222" /></g></g><g
                 transform="translate(30.53,-25.856)"
                 id="g224" /></g></g><g
             id="g226"><g
               transform="translate(59.886,25.856)"
               id="g228"><g
                 id="g230"><g
                   transform="translate(-93.737,-27.464)"
                   id="g232"><text
                     id="text236"
                     style="font-variant:normal;font-weight:normal;font-size:9.96259975px;font-family:CMMI10;-inkscape-font-specification:CMMI10;writing-mode:lr-tb;fill:#000000;fill-opacity:1;fill-rule:nonzero;stroke:none"
                     transform="matrix(1,0,0,-1,93.737,27.464)"><tspan
                       id="tspan234"
                       y="0"
                       x="0 4.6385865 9.8241196 14.934934 19.573521">edgeB</tspan></text>
<g
                     transform="translate(93.737,27.464)"
                     id="g238" /></g></g><g
                 transform="translate(-59.886,-25.856)"
                 id="g240" /></g></g></g></g></g></g></svg>