<?xml version="1.0" encoding="UTF-8" standalone="no"?>
<svg
   xmlns:dc="http://purl.org/dc/elements/1.1/"
   xmlns:cc="http://creativecommons.org/ns#"
   xmlns:rdf="http://www.w3.org/1999/02/22-rdf-syntax-ns#"
   xmlns:svg="http://www.w3.org/2000/svg"
   xmlns="http://www.w3.org/2000/svg"
   viewBox="0 0 382.24133 79.87867"
   height="79.87867"
   width="382.24133"
   xml:space="preserve"
   id="svg2"
   version="1.1"><metadata
     id="metadata8"><rdf:RDF><cc:Work
         rdf:about=""><dc:format>image/svg+xml</dc:format><dc:type
           rdf:resource="http://purl.org/dc/dcmitype/StillImage" /></cc:Work></rdf:RDF></metadata><defs
     id="defs6" /><g
     transform="matrix(1.3333333,0,0,-1.3333333,0,79.878667)"
     id="g10"><g
       transform="translate(1.608,1.608)"
       id="g12"><g
         id="g14"><g
           id="g16"><g
             id="g18" /><g
             id="g20" /><g
             id="g22" /><g
             id="g24" /><path
             id="path26"
             style="fill:none;stroke:#000000;stroke-width:0.3985;stroke-linecap:butt;stroke-linejoin:miter;stroke-miterlimit:10;stroke-dasharray:none;stroke-opacity:1"
             d="M 226.77448,56.69362 V 0" /><path
             id="path28"
             style="fill:none;stroke:#000000;stroke-width:0.3985;stroke-linecap:butt;stroke-linejoin:miter;stroke-miterlimit:10;stroke-dasharray:none;stroke-opacity:1"
             d="M 283.4681,56.69362 V 0" /><g
             id="g30"><g
               id="g32"><path
                 id="path34"
                 style="fill:#ffffff;fill-opacity:1;fill-rule:nonzero;stroke:#000000;stroke-width:0.3985;stroke-linecap:butt;stroke-linejoin:miter;stroke-miterlimit:10;stroke-dasharray:none;stroke-opacity:1"
                 d="m 228.18352,56.69362 c 0,0.77818 -0.63086,1.40903 -1.40904,1.40903 -0.7782,0 -1.40905,-0.63085 -1.40905,-1.40903 0,-0.7782 0.63085,-1.40904 1.40905,-1.40904 0.77818,0 1.40904,0.63084 1.40904,1.40904 z" /></g><g
               transform="translate(226.772,56.693)"
               id="g36"><g
                 id="g38" /><g
                 transform="translate(-226.772,-56.693)"
                 id="g40" /></g></g><g
             id="g42"><g
               id="g44"><path
                 id="path46"
                 style="fill:#ffffff;fill-opacity:1;fill-rule:nonzero;stroke:#000000;stroke-width:0.3985;stroke-linecap:butt;stroke-linejoin:miter;stroke-miterlimit:10;stroke-dasharray:none;stroke-opacity:1"
                 d="m 284.87714,56.69362 c 0,0.77818 -0.63086,1.40903 -1.40904,1.40903 -0.7782,0 -1.40905,-0.63085 -1.40905,-1.40903 0,-0.7782 0.63085,-1.40904 1.40905,-1.40904 0.77818,0 1.40904,0.63084 1.40904,1.40904 z" /></g><g
               transform="translate(283.465,56.693)"
               id="g48"><g
                 id="g50" /><g
                 transform="translate(-283.465,-56.693)"
                 id="g52" /></g></g><g
             id="g54"><g
               id="g56"><path
                 id="path58"
                 style="fill:#ffffff;fill-opacity:1;fill-rule:nonzero;stroke:#000000;stroke-width:0.3985;stroke-linecap:butt;stroke-linejoin:miter;stroke-miterlimit:10;stroke-dasharray:none;stroke-opacity:1"
                 d="m 228.18352,0 c 0,0.77818 -0.63086,1.40903 -1.40904,1.40903 -0.7782,0 -1.40905,-0.63085 -1.40905,-1.40903 0,-0.77818 0.63085,-1.40903 1.40905,-1.40903 0.77818,0 1.40904,0.63085 1.40904,1.40903 z" /></g><g
               transform="translate(226.772)"
               id="g60"><g
                 id="g62" /><g
                 transform="translate(-226.772)"
                 id="g64" /></g></g><g
             id="g66"><g
               id="g68"><path
                 id="path70"
                 style="fill:#ffffff;fill-opacity:1;fill-rule:nonzero;stroke:#000000;stroke-width:0.3985;stroke-linecap:butt;stroke-linejoin:miter;stroke-miterlimit:10;stroke-dasharray:none;stroke-opacity:1"
                 d="m 284.87714,0 c 0,0.77818 -0.63086,1.40903 -1.40904,1.40903 -0.7782,0 -1.40905,-0.63085 -1.40905,-1.40903 0,-0.77818 0.63085,-1.40903 1.40905,-1.40903 0.77818,0 1.40904,0.63085 1.40904,1.40903 z" /></g><g
               transform="translate(283.465)"
               id="g72"><g
                 id="g74" /><g
                 transform="translate(-283.465)"
                 id="g76" /></g></g><g
             id="g78"><path
               id="path80"
               style="fill:none;stroke:#000000;stroke-width:0.79701;stroke-linecap:butt;stroke-linejoin:miter;stroke-miterlimit:10;stroke-dasharray:none;stroke-opacity:1"
               d="M 96.37895,28.34679 H 197.72028" /><g
               transform="translate(197.72028,28.34679)"
               id="g82"><g
                 id="g84"><path
                   id="path86"
                   style="fill:none;stroke:#000000;stroke-width:0.6376;stroke-linecap:round;stroke-linejoin:round;stroke-miterlimit:10;stroke-dasharray:none;stroke-opacity:1"
                   d="M -1.55415,2.0722 C -1.42464,1.29512 0,0.1295 0.38852,0 0,-0.1295 -1.42464,-1.29512 -1.55415,-2.0722" /></g></g></g><g
             id="g88" /><g
             id="g90" /><g
             id="g92" /><g
             id="g94" /><g
             id="g96" /><g
             id="g98" /><path
             id="path100"
             style="fill:none;stroke:#000000;stroke-width:0.3985;stroke-linecap:butt;stroke-linejoin:miter;stroke-miterlimit:10;stroke-dasharray:none;stroke-opacity:1"
             d="M 0,56.69362 V 0" /><path
             id="path102"
             style="fill:none;stroke:#000000;stroke-width:0.3985;stroke-linecap:butt;stroke-linejoin:miter;stroke-miterlimit:10;stroke-dasharray:none;stroke-opacity:1"
             d="M 56.69362,56.69362 V 0" /><g
             id="g104"><path
               id="path106"
               style="fill:none;stroke:#ff0000;stroke-width:1.59404004;stroke-linecap:butt;stroke-linejoin:miter;stroke-miterlimit:10;stroke-dasharray:none;stroke-opacity:1"
               d="M 0,28.34679 H 56.69362" /></g><g
             id="g108"><g
               id="g110"><path
                 id="path112"
                 style="fill:#ffffff;fill-opacity:1;fill-rule:nonzero;stroke:#000000;stroke-width:0.3985;stroke-linecap:butt;stroke-linejoin:miter;stroke-miterlimit:10;stroke-dasharray:none;stroke-opacity:1"
                 d="m 1.40903,28.34679 c 0,0.77818 -0.63085,1.40904 -1.40903,1.40904 -0.77818,0 -1.40903,-0.63086 -1.40903,-1.40904 0,-0.77819 0.63085,-1.40905 1.40903,-1.40905 0.77818,0 1.40903,0.63086 1.40903,1.40905 z" /></g><g
               transform="translate(0,28.347)"
               id="g114"><g
                 id="g116" /><g
                 transform="translate(0,-28.347)"
                 id="g118" /></g></g><g
             id="g120"><g
               id="g122"><path
                 id="path124"
                 style="fill:#ffffff;fill-opacity:1;fill-rule:nonzero;stroke:#000000;stroke-width:0.3985;stroke-linecap:butt;stroke-linejoin:miter;stroke-miterlimit:10;stroke-dasharray:none;stroke-opacity:1"
                 d="m 58.10265,28.34679 c 0,0.77818 -0.63085,1.40904 -1.40903,1.40904 -0.7782,0 -1.40904,-0.63086 -1.40904,-1.40904 0,-0.77819 0.63084,-1.40905 1.40904,-1.40905 0.77818,0 1.40903,0.63086 1.40903,1.40905 z" /></g><g
               transform="translate(56.693,28.347)"
               id="g126"><g
                 id="g128" /><g
                 transform="translate(-56.693,-28.347)"
                 id="g130" /></g></g><g
             id="g132"><g
               id="g134"><path
                 id="path136"
                 style="fill:#ffffff;fill-opacity:1;fill-rule:nonzero;stroke:#000000;stroke-width:0.3985;stroke-linecap:butt;stroke-linejoin:miter;stroke-miterlimit:10;stroke-dasharray:none;stroke-opacity:1"
                 d="m 1.40903,56.69362 c 0,0.77818 -0.63085,1.40903 -1.40903,1.40903 -0.77818,0 -1.40903,-0.63085 -1.40903,-1.40903 0,-0.7782 0.63085,-1.40904 1.40903,-1.40904 0.77818,0 1.40903,0.63084 1.40903,1.40904 z" /></g><g
               transform="translate(0,56.693)"
               id="g138"><g
                 id="g140" /><g
                 transform="translate(0,-56.693)"
                 id="g142" /></g></g><g
             id="g144"><g
               id="g146"><path
                 id="path148"
                 style="fill:#ffffff;fill-opacity:1;fill-rule:nonzero;stroke:#000000;stroke-width:0.3985;stroke-linecap:butt;stroke-linejoin:miter;stroke-miterlimit:10;stroke-dasharray:none;stroke-opacity:1"
                 d="m 58.10265,56.69362 c 0,0.77818 -0.63085,1.40903 -1.40903,1.40903 -0.7782,0 -1.40904,-0.63085 -1.40904,-1.40903 0,-0.7782 0.63084,-1.40904 1.40904,-1.40904 0.77818,0 1.40903,0.63084 1.40903,1.40904 z" /></g><g
               transform="translate(56.693,56.693)"
               id="g150"><g
                 id="g152" /><g
                 transform="translate(-56.693,-56.693)"
                 id="g154" /></g></g><g
             id="g156"><g
               id="g158"><path
                 id="path160"
                 style="fill:#ffffff;fill-opacity:1;fill-rule:nonzero;stroke:#000000;stroke-width:0.3985;stroke-linecap:butt;stroke-linejoin:miter;stroke-miterlimit:10;stroke-dasharray:none;stroke-opacity:1"
                 d="M 1.40903,0 C 1.40903,0.77818 0.77818,1.40903 0,1.40903 -0.77818,1.40903 -1.40903,0.77818 -1.40903,0 c 0,-0.77818 0.63085,-1.40903 1.40903,-1.40903 0.77818,0 1.40903,0.63085 1.40903,1.40903 z" /></g><g
               id="g162"><g
                 id="g164" /></g></g><g
             id="g166"><g
               id="g168"><path
                 id="path170"
                 style="fill:#ffffff;fill-opacity:1;fill-rule:nonzero;stroke:#000000;stroke-width:0.3985;stroke-linecap:butt;stroke-linejoin:miter;stroke-miterlimit:10;stroke-dasharray:none;stroke-opacity:1"
                 d="m 58.10265,0 c 0,0.77818 -0.63085,1.40903 -1.40903,1.40903 -0.7782,0 -1.40904,-0.63085 -1.40904,-1.40903 0,-0.77818 0.63084,-1.40903 1.40904,-1.40903 0.77818,0 1.40903,0.63085 1.40903,1.40903 z" /></g><g
               transform="translate(56.693)"
               id="g172"><g
                 id="g174" /><g
                 transform="translate(-56.693)"
                 id="g176" /></g></g><g
             id="g178"><g
               transform="translate(18.56,34.36)"
               id="g180"><g
                 id="g182"><g
                   transform="translate(-20.168,-35.968)"
                   id="g184"><text
                     id="text188"
                     style="font-variant:normal;font-weight:normal;font-size:9.96259975px;font-family:CMMI10;-inkscape-font-specification:CMMI10;writing-mode:lr-tb;fill:#000000;fill-opacity:1;fill-rule:nonzero;stroke:none"
                     transform="matrix(1,0,0,-1,20.168,35.968)"><tspan
                       id="tspan186"
                       y="0"
                       x="0 4.6385865 9.8241196 14.934934">edge</tspan></text>
<g
                     transform="translate(20.168,35.968)"
                     id="g190" /></g></g><g
                 transform="translate(-18.56,-34.36)"
                 id="g192" /></g></g></g></g></g></g></svg>