solid edgeStone_version2_pi4
	facet normal -0.81649658092772603 -0. -0.57735026918962573 
		outer loop
			vertex 1.4142135623730949 1.4142135623730949 -1. 
			vertex 1.4142135623730949 0. -1. 
			vertex 0.70710678118654746 0.70710678118654746 0. 
		endloop
	endfacet
	facet normal 0.70710678118654757 -0.70710678118654757 0. 
		outer loop
			vertex 1.4142135623730949 1.4142135623730949 -1. 
			vertex 1.4142135623730949 1.4142135623730949 0. 
			vertex 0.70710678118654746 0.70710678118654746 0. 
		endloop
	endfacet
	facet normal 0. -0.81649658092772603 0.57735026918962573 
		outer loop
			vertex 1.4142135623730949 1.4142135623730949 -1. 
			vertex 2.8284271247461898 1.4142135623730949 -1. 
			vertex 2.1213203435596424 2.1213203435596424 0. 
		endloop
	endfacet
	facet normal -0.70710678118654757 0.70710678118654757 0. 
		outer loop
			vertex 1.4142135623730949 1.4142135623730949 -1. 
			vertex 1.4142135623730949 1.4142135623730949 0. 
			vertex 2.1213203435596424 2.1213203435596424 0. 
		endloop
	endfacet
	facet normal -0.40824829046386302 -0.40824829046386291 -0.81649658092772592 
		outer loop
			vertex 0.70710678118654746 0.70710678118654746 0. 
			vertex 1.9142135623730949 0.91421356237309503 -0.70710678118654757 
			vertex 1.7071067811865472 -0.29289321881345243 -1.5700924586837749e-16 
		endloop
	endfacet
	facet normal -0.40824829046386296 -0.40824829046386307 0.81649658092772603 
		outer loop
			vertex 1.9142135623730949 0.91421356237309503 -0.70710678118654757 
			vertex 3.1213203435596424 1.1213203435596426 -1.5700924586837749e-16 
			vertex 2.1213203435596424 2.1213203435596424 0. 
		endloop
	endfacet
	facet normal 0.70710678118654757 0.70710678118654746 3.9252311467094385e-17 
		outer loop
			vertex 1.4142135623730949 0. -1. 
			vertex 0.70710678118654746 0.70710678118654746 0. 
			vertex 1.7071067811865472 -0.29289321881345243 -1.5700924586837749e-16 
		endloop
	endfacet
	facet normal 0.70710678118654746 0.70710678118654757 -1.1775693440128314e-16 
		outer loop
			vertex 3.1213203435596424 1.1213203435596426 -1.5700924586837749e-16 
			vertex 2.8284271247461898 1.4142135623730949 -1. 
			vertex 2.1213203435596424 2.1213203435596424 0. 
		endloop
	endfacet
	facet normal -0.35740674433659325 0.86285620946101671 0.3574067443365932 
		outer loop
			vertex 1.9142135623730949 0.91421356237309503 -0.70710678118654757 
			vertex 3.1213203435596424 1.1213203435596426 -1.5700924586837749e-16 
			vertex 2.8284271247461898 1.4142135623730949 -1. 
		endloop
	endfacet
	facet normal 0.86285620946101682 -0.35740674433659331 -0.35740674433659314 
		outer loop
			vertex 1.4142135623730949 0. -1. 
			vertex 1.9142135623730949 0.91421356237309503 -0.70710678118654757 
			vertex 1.7071067811865472 -0.29289321881345243 -1.5700924586837749e-16 
		endloop
	endfacet
	facet normal 0.50000000000000011 -0.50000000000000011 0.70710678118654757 
		outer loop
			vertex 1.4142135623730949 1.4142135623730949 0. 
			vertex 1.9142135623730949 0.91421356237309503 -0.70710678118654757 
			vertex 2.1213203435596424 2.1213203435596424 0. 
		endloop
	endfacet
	facet normal 0.50000000000000011 -0.50000000000000011 0.70710678118654757 
		outer loop
			vertex 1.4142135623730949 1.4142135623730949 0. 
			vertex 0.70710678118654746 0.70710678118654746 0. 
			vertex 1.9142135623730949 0.91421356237309503 -0.70710678118654757 
		endloop
	endfacet
	facet normal -0. 0. 1. 
		outer loop
			vertex 1.4142135623730949 1.4142135623730949 -1. 
			vertex 1.4142135623730949 0. -1. 
			vertex 2.8284271247461898 1.4142135623730949 -1. 
		endloop
	endfacet
	facet normal -0.5 0.5 -0.70710678118654768 
		outer loop
			vertex 1.4142135623730949 0. -1. 
			vertex 1.9142135623730949 0.91421356237309503 -0.70710678118654757 
			vertex 2.8284271247461898 1.4142135623730949 -1. 
		endloop
	endfacet
endsolid edgeStone_version2_pi4