solid versatileBlock_Curved_pi8
	facet normal -0.99848819431027103 0. 0.05496658824244352 
		outer loop
			vertex 0. 0. 0. 
			vertex 0.15223200000000001 -2. 2.7653500000000002 
			vertex 0.15223200000000001 2. 2.7653500000000002 
		endloop
	endfacet
	facet normal -0.92388328934032848 0. 0.38267436245154307 
		outer loop
			vertex 0.15223200000000001 -2. 2.7653500000000002 
			vertex 0.917578 0. 4.6131099999999998 
			vertex 0.15223200000000001 2. 2.7653500000000002 
		endloop
	endfacet
	facet normal -1. 0. 0. 
		outer loop
			vertex 2. -2. 0. 
			vertex 2. -2. 2. 
			vertex 2. 0. 2. 
		endloop
	endfacet
	facet normal -1. 0. 0. 
		outer loop
			vertex 2. 0. 2. 
			vertex 2. 2. 2. 
			vertex 2. 2. 0. 
		endloop
	endfacet
	facet normal -1. 0. 0. 
		outer loop
			vertex 2. -2. 0. 
			vertex 2. 0. 2. 
			vertex 2. 2. 0. 
		endloop
	endfacet
	facet normal -0. 0. 1. 
		outer loop
			vertex 0. 0. 0. 
			vertex 2. -2. 0. 
			vertex 2. 2. 0. 
		endloop
	endfacet
	facet normal 0.63933699397742461 0.63933699397742461 0.42719599279934833 
		outer loop
			vertex 0. 0. 0. 
			vertex 0.15223200000000001 -2. 2.7653500000000002 
			vertex 2. -2. 0. 
		endloop
	endfacet
	facet normal 0. -1. 0. 
		outer loop
			vertex 0.15223200000000001 -2. 2.7653500000000002 
			vertex 2. -2. 0. 
			vertex 2. -2. 2. 
		endloop
	endfacet
	facet normal 0.38267465538612977 0. 0.92388316800616466 
		outer loop
			vertex 0.15223200000000001 -2. 2.7653500000000002 
			vertex 2. -2. 2. 
			vertex 2. 0. 2. 
		endloop
	endfacet
	facet normal -0.75434113883310605 0.57734969628739186 -0.31246883758357225 
		outer loop
			vertex 0.15223200000000001 -2. 2.7653500000000002 
			vertex 0.917578 0. 4.6131099999999998 
			vertex 2. 0. 2. 
		endloop
	endfacet
	facet normal -0.75434113883310616 -0.57734969628739197 -0.31246883758357225 
		outer loop
			vertex 0.917578 0. 4.6131099999999998 
			vertex 0.15223200000000001 2. 2.7653500000000002 
			vertex 2. 0. 2. 
		endloop
	endfacet
	facet normal 0.38267465538612977 0. 0.92388316800616466 
		outer loop
			vertex 0.15223200000000001 2. 2.7653500000000002 
			vertex 2. 0. 2. 
			vertex 2. 2. 2. 
		endloop
	endfacet
	facet normal 0. 1. 0. 
		outer loop
			vertex 0.15223200000000001 2. 2.7653500000000002 
			vertex 2. 2. 2. 
			vertex 2. 2. 0. 
		endloop
	endfacet
	facet normal -0.63933699397742461 0.63933699397742461 -0.42719599279934833 
		outer loop
			vertex 0. 0. 0. 
			vertex 0.15223200000000001 2. 2.7653500000000002 
			vertex 2. 2. 0. 
		endloop
	endfacet
endsolid versatileBlock_Curved_pi8